G75*
%MOIN*%
%OFA0B0*%
%FSLAX25Y25*%
%IPPOS*%
%LPD*%
%AMOC8*
5,1,8,0,0,1.08239X$1,22.5*
%
%ADD10R,0.06000X0.06000*%
%ADD11R,0.07047X0.01417*%
%ADD12R,0.03150X0.03150*%
%ADD13R,0.04724X0.03937*%
%ADD14C,0.00800*%
%ADD15C,0.01200*%
%ADD16C,0.01800*%
D10*
X0011800Y0023933D03*
X0021800Y0023933D03*
X0031800Y0023933D03*
X0041800Y0023933D03*
X0051800Y0023933D03*
X0061800Y0023933D03*
X0071800Y0023933D03*
X0081800Y0023933D03*
X0091800Y0023933D03*
X0101800Y0023933D03*
X0101800Y0084033D03*
X0091800Y0084033D03*
X0081800Y0084033D03*
X0071800Y0084033D03*
X0061800Y0084033D03*
X0051800Y0084033D03*
X0041800Y0084033D03*
X0031800Y0084033D03*
X0021800Y0084033D03*
X0011800Y0084033D03*
D11*
X0063506Y0070637D03*
X0063506Y0067861D03*
X0063506Y0065085D03*
X0063506Y0062310D03*
X0063506Y0059534D03*
X0063506Y0056759D03*
X0063506Y0053983D03*
X0063506Y0051207D03*
X0063506Y0048432D03*
X0063506Y0045656D03*
X0063506Y0042881D03*
X0063506Y0040105D03*
X0063506Y0037330D03*
D12*
X0078400Y0039583D03*
X0084400Y0039583D03*
X0084400Y0062083D03*
X0078400Y0062083D03*
X0078400Y0068183D03*
X0084400Y0068183D03*
D13*
X0085337Y0054523D03*
X0077463Y0050783D03*
X0085337Y0047043D03*
D14*
X0007700Y0029945D02*
X0007700Y0019783D01*
X0097992Y0019783D01*
X0097940Y0019813D01*
X0097680Y0020073D01*
X0097495Y0020393D01*
X0097400Y0020749D01*
X0097400Y0023533D01*
X0101400Y0023533D01*
X0101400Y0024333D01*
X0097400Y0024333D01*
X0097400Y0027117D01*
X0097495Y0027473D01*
X0097680Y0027793D01*
X0097940Y0028053D01*
X0098260Y0028238D01*
X0098616Y0028333D01*
X0101400Y0028333D01*
X0101400Y0024333D01*
X0102200Y0024333D01*
X0106200Y0024333D01*
X0106200Y0027117D01*
X0106105Y0027473D01*
X0105920Y0027793D01*
X0105660Y0028053D01*
X0105340Y0028238D01*
X0104984Y0028333D01*
X0102200Y0028333D01*
X0102200Y0024333D01*
X0102200Y0023533D01*
X0106200Y0023533D01*
X0106200Y0020749D01*
X0106105Y0020393D01*
X0105920Y0020073D01*
X0105660Y0019813D01*
X0105608Y0019783D01*
X0130500Y0019783D01*
X0130500Y0088183D01*
X0025608Y0088183D01*
X0025660Y0088153D01*
X0025920Y0087893D01*
X0026105Y0087573D01*
X0026200Y0087217D01*
X0026200Y0084433D01*
X0022200Y0084433D01*
X0022200Y0083633D01*
X0022200Y0079633D01*
X0024984Y0079633D01*
X0025340Y0079728D01*
X0025660Y0079913D01*
X0025920Y0080173D01*
X0026105Y0080493D01*
X0026200Y0080849D01*
X0026200Y0083633D01*
X0022200Y0083633D01*
X0021400Y0083633D01*
X0021400Y0079633D01*
X0018616Y0079633D01*
X0018260Y0079728D01*
X0017940Y0079913D01*
X0017680Y0080173D01*
X0017495Y0080493D01*
X0017400Y0080849D01*
X0017400Y0083633D01*
X0021400Y0083633D01*
X0021400Y0084433D01*
X0017400Y0084433D01*
X0017400Y0087217D01*
X0017495Y0087573D01*
X0017680Y0087893D01*
X0017940Y0088153D01*
X0017992Y0088183D01*
X0007700Y0088183D01*
X0007700Y0078022D01*
X0011938Y0073783D01*
X0012700Y0073022D01*
X0012700Y0034945D01*
X0007700Y0029945D01*
X0007918Y0030162D02*
X0030400Y0030162D01*
X0030400Y0029364D02*
X0007700Y0029364D01*
X0007700Y0028565D02*
X0030400Y0028565D01*
X0030400Y0027933D02*
X0028386Y0027933D01*
X0027800Y0027347D01*
X0027800Y0020519D01*
X0028386Y0019933D01*
X0035214Y0019933D01*
X0035800Y0020519D01*
X0035800Y0027347D01*
X0035214Y0027933D01*
X0033200Y0027933D01*
X0033200Y0040903D01*
X0035600Y0043303D01*
X0035600Y0041996D01*
X0036713Y0040883D01*
X0038287Y0040883D01*
X0038802Y0041398D01*
X0059221Y0041466D01*
X0058983Y0041228D01*
X0058983Y0038982D01*
X0059248Y0038717D01*
X0058983Y0038452D01*
X0058983Y0036207D01*
X0059568Y0035621D01*
X0067444Y0035621D01*
X0068030Y0036207D01*
X0068030Y0038452D01*
X0067765Y0038717D01*
X0068030Y0038982D01*
X0068030Y0041228D01*
X0067765Y0041493D01*
X0068030Y0041758D01*
X0068030Y0044004D01*
X0067765Y0044268D01*
X0068030Y0044533D01*
X0068030Y0046779D01*
X0067826Y0046983D01*
X0069847Y0046983D01*
X0074000Y0051136D01*
X0074000Y0066496D01*
X0074213Y0066283D01*
X0075787Y0066283D01*
X0075825Y0066321D01*
X0075825Y0066194D01*
X0076411Y0065608D01*
X0077000Y0065608D01*
X0077000Y0064658D01*
X0076411Y0064658D01*
X0075825Y0064072D01*
X0075825Y0060094D01*
X0076411Y0059508D01*
X0080389Y0059508D01*
X0080975Y0060094D01*
X0080975Y0064072D01*
X0080389Y0064658D01*
X0079800Y0064658D01*
X0079800Y0065608D01*
X0080389Y0065608D01*
X0080975Y0066194D01*
X0080975Y0070172D01*
X0080389Y0070758D01*
X0076411Y0070758D01*
X0075825Y0070172D01*
X0075825Y0070045D01*
X0075787Y0070083D01*
X0074213Y0070083D01*
X0074000Y0069870D01*
X0074000Y0080033D01*
X0075214Y0080033D01*
X0075800Y0080619D01*
X0075800Y0087447D01*
X0075214Y0088033D01*
X0068386Y0088033D01*
X0067800Y0087447D01*
X0067800Y0080619D01*
X0068386Y0080033D01*
X0071200Y0080033D01*
X0071200Y0063663D01*
X0069108Y0065755D01*
X0069108Y0065770D01*
X0068887Y0065983D01*
X0069787Y0065983D01*
X0070900Y0067096D01*
X0070900Y0068670D01*
X0069787Y0069783D01*
X0068430Y0069783D01*
X0068430Y0070637D01*
X0068430Y0071530D01*
X0068334Y0071886D01*
X0068150Y0072205D01*
X0067890Y0072466D01*
X0067570Y0072650D01*
X0067214Y0072745D01*
X0063506Y0072745D01*
X0059798Y0072745D01*
X0059442Y0072650D01*
X0059123Y0072466D01*
X0058862Y0072205D01*
X0058678Y0071886D01*
X0058583Y0071530D01*
X0058583Y0070637D01*
X0063506Y0070637D01*
X0063506Y0072745D01*
X0063506Y0070637D01*
X0063506Y0070637D01*
X0063506Y0070637D01*
X0058583Y0070637D01*
X0058583Y0069744D01*
X0058658Y0069461D01*
X0054715Y0069461D01*
X0052037Y0066783D01*
X0049063Y0066783D01*
X0043400Y0072446D01*
X0043400Y0080033D01*
X0045214Y0080033D01*
X0045800Y0080619D01*
X0045800Y0087447D01*
X0045214Y0088033D01*
X0038386Y0088033D01*
X0037800Y0087447D01*
X0037800Y0080619D01*
X0038386Y0080033D01*
X0040200Y0080033D01*
X0040200Y0071120D01*
X0041137Y0070183D01*
X0041137Y0070183D01*
X0046800Y0064520D01*
X0047737Y0063583D01*
X0052037Y0063583D01*
X0054910Y0060710D01*
X0059035Y0060710D01*
X0058983Y0060657D01*
X0058983Y0058447D01*
X0058862Y0058327D01*
X0058678Y0058008D01*
X0058583Y0057652D01*
X0058583Y0056759D01*
X0063506Y0056759D01*
X0063506Y0056759D01*
X0058583Y0056759D01*
X0058583Y0055866D01*
X0058678Y0055510D01*
X0058751Y0055383D01*
X0058487Y0055383D01*
X0057987Y0055883D01*
X0056413Y0055883D01*
X0055300Y0054770D01*
X0055300Y0053196D01*
X0056413Y0052083D01*
X0057987Y0052083D01*
X0058487Y0052583D01*
X0059235Y0052583D01*
X0058983Y0052330D01*
X0058983Y0050085D01*
X0059248Y0049820D01*
X0058983Y0049555D01*
X0058983Y0047309D01*
X0059245Y0047046D01*
X0035906Y0046991D01*
X0035328Y0046991D01*
X0035327Y0046990D01*
X0035325Y0046990D01*
X0034919Y0046582D01*
X0030400Y0042063D01*
X0030400Y0027933D01*
X0028219Y0027767D02*
X0025381Y0027767D01*
X0025214Y0027933D02*
X0025800Y0027347D01*
X0025800Y0020519D01*
X0025214Y0019933D01*
X0018386Y0019933D01*
X0017800Y0020519D01*
X0017800Y0027347D01*
X0018386Y0027933D01*
X0025214Y0027933D01*
X0025800Y0026968D02*
X0027800Y0026968D01*
X0027800Y0026170D02*
X0025800Y0026170D01*
X0025800Y0025371D02*
X0027800Y0025371D01*
X0027800Y0024573D02*
X0025800Y0024573D01*
X0025800Y0023774D02*
X0027800Y0023774D01*
X0027800Y0022976D02*
X0025800Y0022976D01*
X0025800Y0022177D02*
X0027800Y0022177D01*
X0027800Y0021379D02*
X0025800Y0021379D01*
X0025800Y0020580D02*
X0027800Y0020580D01*
X0031800Y0023933D02*
X0031800Y0041483D01*
X0035908Y0045591D01*
X0063506Y0045656D01*
X0068030Y0045334D02*
X0079925Y0045334D01*
X0079925Y0046132D02*
X0068030Y0046132D01*
X0067878Y0046931D02*
X0079335Y0046931D01*
X0079925Y0046341D02*
X0078452Y0047815D01*
X0074687Y0047815D01*
X0074101Y0048400D01*
X0074101Y0053166D01*
X0074687Y0053752D01*
X0080239Y0053752D01*
X0080825Y0053166D01*
X0080825Y0049401D01*
X0081575Y0048651D01*
X0081575Y0049196D01*
X0081670Y0049552D01*
X0081855Y0049871D01*
X0082115Y0050132D01*
X0082434Y0050316D01*
X0082790Y0050411D01*
X0084937Y0050411D01*
X0084937Y0047443D01*
X0085737Y0047443D01*
X0085737Y0050411D01*
X0087884Y0050411D01*
X0088240Y0050316D01*
X0088559Y0050132D01*
X0088819Y0049871D01*
X0089004Y0049552D01*
X0089099Y0049196D01*
X0089099Y0047443D01*
X0085737Y0047443D01*
X0085737Y0046643D01*
X0089099Y0046643D01*
X0089099Y0044890D01*
X0089004Y0044534D01*
X0088819Y0044215D01*
X0088559Y0043954D01*
X0088240Y0043770D01*
X0087884Y0043674D01*
X0085737Y0043674D01*
X0085737Y0046643D01*
X0084937Y0046643D01*
X0084937Y0043674D01*
X0082790Y0043674D01*
X0082725Y0043692D01*
X0082725Y0042774D01*
X0083341Y0042158D01*
X0086389Y0042158D01*
X0086975Y0041572D01*
X0086975Y0037594D01*
X0086389Y0037008D01*
X0082411Y0037008D01*
X0081825Y0037594D01*
X0081825Y0039714D01*
X0080975Y0040565D01*
X0080975Y0037594D01*
X0080389Y0037008D01*
X0076411Y0037008D01*
X0075825Y0037594D01*
X0075825Y0038183D01*
X0074620Y0038183D01*
X0074020Y0038783D01*
X0073313Y0038783D01*
X0072200Y0039896D01*
X0072200Y0041470D01*
X0073313Y0042583D01*
X0074887Y0042583D01*
X0075862Y0041608D01*
X0076411Y0042158D01*
X0079925Y0042158D01*
X0079925Y0046341D01*
X0081325Y0046921D02*
X0081325Y0042194D01*
X0083500Y0040019D01*
X0084400Y0039583D01*
X0081795Y0039744D02*
X0080975Y0039744D01*
X0080975Y0038946D02*
X0081825Y0038946D01*
X0081825Y0038147D02*
X0080975Y0038147D01*
X0080730Y0037349D02*
X0082070Y0037349D01*
X0078400Y0039583D02*
X0075200Y0039583D01*
X0074100Y0040683D01*
X0072352Y0039744D02*
X0068030Y0039744D01*
X0068030Y0040543D02*
X0072200Y0040543D01*
X0072200Y0041341D02*
X0067917Y0041341D01*
X0068030Y0042140D02*
X0072870Y0042140D01*
X0075330Y0042140D02*
X0076393Y0042140D01*
X0079925Y0042938D02*
X0068030Y0042938D01*
X0068030Y0043737D02*
X0079925Y0043737D01*
X0079925Y0044535D02*
X0068030Y0044535D01*
X0063506Y0042881D02*
X0037511Y0042794D01*
X0037500Y0042783D01*
X0035600Y0042938D02*
X0035235Y0042938D01*
X0035600Y0042140D02*
X0034437Y0042140D01*
X0033638Y0041341D02*
X0036255Y0041341D01*
X0038745Y0041341D02*
X0059096Y0041341D01*
X0058983Y0040543D02*
X0033200Y0040543D01*
X0033200Y0039744D02*
X0058983Y0039744D01*
X0059019Y0038946D02*
X0033200Y0038946D01*
X0033200Y0038147D02*
X0058983Y0038147D01*
X0058983Y0037349D02*
X0033200Y0037349D01*
X0033200Y0036550D02*
X0058983Y0036550D01*
X0059438Y0035752D02*
X0033200Y0035752D01*
X0033200Y0034953D02*
X0130500Y0034953D01*
X0130500Y0034155D02*
X0033200Y0034155D01*
X0033200Y0033356D02*
X0130500Y0033356D01*
X0130500Y0032558D02*
X0033200Y0032558D01*
X0033200Y0031759D02*
X0130500Y0031759D01*
X0130500Y0030961D02*
X0033200Y0030961D01*
X0033200Y0030162D02*
X0130500Y0030162D01*
X0130500Y0029364D02*
X0033200Y0029364D01*
X0033200Y0028565D02*
X0130500Y0028565D01*
X0130500Y0027767D02*
X0105935Y0027767D01*
X0106200Y0026968D02*
X0130500Y0026968D01*
X0130500Y0026170D02*
X0106200Y0026170D01*
X0106200Y0025371D02*
X0130500Y0025371D01*
X0130500Y0024573D02*
X0106200Y0024573D01*
X0106200Y0022976D02*
X0130500Y0022976D01*
X0130500Y0023774D02*
X0102200Y0023774D01*
X0102200Y0024573D02*
X0101400Y0024573D01*
X0101400Y0025371D02*
X0102200Y0025371D01*
X0102200Y0026170D02*
X0101400Y0026170D01*
X0101400Y0026968D02*
X0102200Y0026968D01*
X0102200Y0027767D02*
X0101400Y0027767D01*
X0097665Y0027767D02*
X0095381Y0027767D01*
X0095214Y0027933D02*
X0095800Y0027347D01*
X0095800Y0020519D01*
X0095214Y0019933D01*
X0088386Y0019933D01*
X0087800Y0020519D01*
X0087800Y0027347D01*
X0088386Y0027933D01*
X0095214Y0027933D01*
X0095800Y0026968D02*
X0097400Y0026968D01*
X0097400Y0026170D02*
X0095800Y0026170D01*
X0095800Y0025371D02*
X0097400Y0025371D01*
X0097400Y0024573D02*
X0095800Y0024573D01*
X0095800Y0023774D02*
X0101400Y0023774D01*
X0097400Y0022976D02*
X0095800Y0022976D01*
X0095800Y0022177D02*
X0097400Y0022177D01*
X0097400Y0021379D02*
X0095800Y0021379D01*
X0095800Y0020580D02*
X0097445Y0020580D01*
X0106155Y0020580D02*
X0130500Y0020580D01*
X0130500Y0021379D02*
X0106200Y0021379D01*
X0106200Y0022177D02*
X0130500Y0022177D01*
X0130500Y0035752D02*
X0067575Y0035752D01*
X0068030Y0036550D02*
X0130500Y0036550D01*
X0130500Y0037349D02*
X0086730Y0037349D01*
X0086975Y0038147D02*
X0130500Y0038147D01*
X0130500Y0038946D02*
X0086975Y0038946D01*
X0086975Y0039744D02*
X0130500Y0039744D01*
X0130500Y0040543D02*
X0086975Y0040543D01*
X0086975Y0041341D02*
X0130500Y0041341D01*
X0130500Y0042140D02*
X0086407Y0042140D01*
X0085737Y0043737D02*
X0084937Y0043737D01*
X0084937Y0044535D02*
X0085737Y0044535D01*
X0085737Y0045334D02*
X0084937Y0045334D01*
X0084937Y0046132D02*
X0085737Y0046132D01*
X0085737Y0046931D02*
X0130500Y0046931D01*
X0130500Y0047729D02*
X0089099Y0047729D01*
X0089099Y0048528D02*
X0130500Y0048528D01*
X0130500Y0049327D02*
X0089064Y0049327D01*
X0088565Y0050125D02*
X0130500Y0050125D01*
X0130500Y0050924D02*
X0080825Y0050924D01*
X0080825Y0051722D02*
X0082393Y0051722D01*
X0082561Y0051555D02*
X0081975Y0052141D01*
X0081975Y0056906D01*
X0082561Y0057492D01*
X0083589Y0057492D01*
X0082937Y0058143D01*
X0082937Y0059508D01*
X0082411Y0059508D01*
X0081825Y0060094D01*
X0081825Y0064072D01*
X0082411Y0064658D01*
X0086389Y0064658D01*
X0086975Y0064072D01*
X0086975Y0060094D01*
X0086389Y0059508D01*
X0085737Y0059508D01*
X0085737Y0059303D01*
X0086737Y0058303D01*
X0086737Y0057492D01*
X0088113Y0057492D01*
X0088699Y0056906D01*
X0088699Y0052141D01*
X0088113Y0051555D01*
X0082561Y0051555D01*
X0081975Y0052521D02*
X0080825Y0052521D01*
X0080672Y0053319D02*
X0081975Y0053319D01*
X0081975Y0054118D02*
X0074000Y0054118D01*
X0074000Y0054916D02*
X0081975Y0054916D01*
X0081975Y0055715D02*
X0074000Y0055715D01*
X0074000Y0056513D02*
X0081975Y0056513D01*
X0082380Y0057312D02*
X0074000Y0057312D01*
X0074000Y0058110D02*
X0082970Y0058110D01*
X0082937Y0058909D02*
X0074000Y0058909D01*
X0074000Y0059707D02*
X0076212Y0059707D01*
X0075825Y0060506D02*
X0074000Y0060506D01*
X0074000Y0061304D02*
X0075825Y0061304D01*
X0075825Y0062103D02*
X0074000Y0062103D01*
X0074000Y0062901D02*
X0075825Y0062901D01*
X0075825Y0063700D02*
X0074000Y0063700D01*
X0074000Y0064498D02*
X0076251Y0064498D01*
X0077000Y0065297D02*
X0074000Y0065297D01*
X0074000Y0066095D02*
X0075924Y0066095D01*
X0075000Y0068183D02*
X0078400Y0068183D01*
X0078400Y0062083D01*
X0080975Y0062103D02*
X0081825Y0062103D01*
X0081825Y0062901D02*
X0080975Y0062901D01*
X0080975Y0063700D02*
X0081825Y0063700D01*
X0082251Y0064498D02*
X0080549Y0064498D01*
X0079800Y0065297D02*
X0088224Y0065297D01*
X0088900Y0064620D02*
X0086975Y0066546D01*
X0086975Y0066194D01*
X0086389Y0065608D01*
X0082411Y0065608D01*
X0081825Y0066194D01*
X0081825Y0070172D01*
X0082411Y0070758D01*
X0086389Y0070758D01*
X0086975Y0070172D01*
X0086975Y0069783D01*
X0088263Y0069783D01*
X0089200Y0068846D01*
X0089200Y0068846D01*
X0091163Y0066883D01*
X0091587Y0066883D01*
X0092700Y0065770D01*
X0092700Y0064196D01*
X0091587Y0063083D01*
X0090013Y0063083D01*
X0088900Y0064196D01*
X0088900Y0064620D01*
X0088900Y0064498D02*
X0086549Y0064498D01*
X0086975Y0063700D02*
X0089396Y0063700D01*
X0086975Y0062901D02*
X0130500Y0062901D01*
X0130500Y0062103D02*
X0086975Y0062103D01*
X0086975Y0061304D02*
X0130500Y0061304D01*
X0130500Y0060506D02*
X0086975Y0060506D01*
X0086588Y0059707D02*
X0130500Y0059707D01*
X0130500Y0058909D02*
X0086131Y0058909D01*
X0086737Y0058110D02*
X0130500Y0058110D01*
X0130500Y0057312D02*
X0088294Y0057312D01*
X0088699Y0056513D02*
X0130500Y0056513D01*
X0130500Y0055715D02*
X0088699Y0055715D01*
X0088699Y0054916D02*
X0130500Y0054916D01*
X0130500Y0054118D02*
X0088699Y0054118D01*
X0088699Y0053319D02*
X0130500Y0053319D01*
X0130500Y0052521D02*
X0088699Y0052521D01*
X0088281Y0051722D02*
X0130500Y0051722D01*
X0130500Y0046132D02*
X0089099Y0046132D01*
X0089099Y0045334D02*
X0130500Y0045334D01*
X0130500Y0044535D02*
X0089004Y0044535D01*
X0088117Y0043737D02*
X0130500Y0043737D01*
X0130500Y0042938D02*
X0082725Y0042938D01*
X0080996Y0040543D02*
X0080975Y0040543D01*
X0075825Y0038147D02*
X0068030Y0038147D01*
X0068030Y0037349D02*
X0076070Y0037349D01*
X0073150Y0038946D02*
X0067994Y0038946D01*
X0077463Y0050783D02*
X0081325Y0046921D01*
X0078537Y0047729D02*
X0070593Y0047729D01*
X0071392Y0048528D02*
X0074101Y0048528D01*
X0074101Y0049327D02*
X0072190Y0049327D01*
X0072989Y0050125D02*
X0074101Y0050125D01*
X0074101Y0050924D02*
X0073787Y0050924D01*
X0074000Y0051722D02*
X0074101Y0051722D01*
X0074101Y0052521D02*
X0074000Y0052521D01*
X0074000Y0053319D02*
X0074254Y0053319D01*
X0072600Y0051716D02*
X0069267Y0048383D01*
X0062380Y0048383D01*
X0063000Y0048432D01*
X0063506Y0048432D01*
X0063506Y0051207D02*
X0068776Y0051207D01*
X0068794Y0051190D01*
X0070150Y0052521D02*
X0071200Y0052521D01*
X0071200Y0052296D02*
X0070693Y0051789D01*
X0070693Y0051977D01*
X0069580Y0053090D01*
X0068030Y0053090D01*
X0068030Y0055070D01*
X0068150Y0055190D01*
X0068334Y0055510D01*
X0068430Y0055866D01*
X0068430Y0056759D01*
X0068430Y0057652D01*
X0068334Y0058008D01*
X0068150Y0058327D01*
X0068030Y0058447D01*
X0068030Y0060657D01*
X0067765Y0060922D01*
X0068030Y0061187D01*
X0068030Y0062873D01*
X0069300Y0061603D01*
X0069300Y0061170D01*
X0068800Y0060670D01*
X0068800Y0059096D01*
X0069913Y0057983D01*
X0071200Y0057983D01*
X0071200Y0052296D01*
X0071200Y0053319D02*
X0068030Y0053319D01*
X0068030Y0054118D02*
X0071200Y0054118D01*
X0071200Y0054916D02*
X0068030Y0054916D01*
X0068389Y0055715D02*
X0071200Y0055715D01*
X0071200Y0056513D02*
X0068430Y0056513D01*
X0068430Y0056759D02*
X0063506Y0056759D01*
X0068430Y0056759D01*
X0068430Y0057312D02*
X0071200Y0057312D01*
X0069786Y0058110D02*
X0068275Y0058110D01*
X0068030Y0058909D02*
X0068987Y0058909D01*
X0068800Y0059707D02*
X0068030Y0059707D01*
X0068030Y0060506D02*
X0068800Y0060506D01*
X0069300Y0061304D02*
X0068030Y0061304D01*
X0068030Y0062103D02*
X0068800Y0062103D01*
X0070700Y0062183D02*
X0070700Y0059883D01*
X0070700Y0062183D02*
X0067719Y0065164D01*
X0063506Y0065085D01*
X0069566Y0065297D02*
X0071200Y0065297D01*
X0071200Y0066095D02*
X0069899Y0066095D01*
X0070698Y0066894D02*
X0071200Y0066894D01*
X0071200Y0067692D02*
X0070900Y0067692D01*
X0070900Y0068491D02*
X0071200Y0068491D01*
X0071200Y0069289D02*
X0070281Y0069289D01*
X0071200Y0070088D02*
X0068430Y0070088D01*
X0068430Y0070637D02*
X0063506Y0070637D01*
X0068430Y0070637D01*
X0068430Y0070886D02*
X0071200Y0070886D01*
X0071200Y0071685D02*
X0068388Y0071685D01*
X0067859Y0072483D02*
X0071200Y0072483D01*
X0071200Y0073282D02*
X0043400Y0073282D01*
X0043400Y0074080D02*
X0071200Y0074080D01*
X0071200Y0074879D02*
X0043400Y0074879D01*
X0043400Y0075677D02*
X0071200Y0075677D01*
X0071200Y0076476D02*
X0043400Y0076476D01*
X0043400Y0077274D02*
X0071200Y0077274D01*
X0071200Y0078073D02*
X0043400Y0078073D01*
X0043400Y0078871D02*
X0071200Y0078871D01*
X0071200Y0079670D02*
X0043400Y0079670D01*
X0045650Y0080468D02*
X0047950Y0080468D01*
X0047800Y0080619D02*
X0048386Y0080033D01*
X0055214Y0080033D01*
X0055800Y0080619D01*
X0055800Y0087447D01*
X0055214Y0088033D01*
X0048386Y0088033D01*
X0047800Y0087447D01*
X0047800Y0080619D01*
X0047800Y0081267D02*
X0045800Y0081267D01*
X0045800Y0082065D02*
X0047800Y0082065D01*
X0047800Y0082864D02*
X0045800Y0082864D01*
X0045800Y0083662D02*
X0047800Y0083662D01*
X0047800Y0084461D02*
X0045800Y0084461D01*
X0045800Y0085260D02*
X0047800Y0085260D01*
X0047800Y0086058D02*
X0045800Y0086058D01*
X0045800Y0086857D02*
X0047800Y0086857D01*
X0048008Y0087655D02*
X0045592Y0087655D01*
X0038008Y0087655D02*
X0035592Y0087655D01*
X0035800Y0087447D02*
X0035214Y0088033D01*
X0028386Y0088033D01*
X0027800Y0087447D01*
X0027800Y0080619D01*
X0028386Y0080033D01*
X0035214Y0080033D01*
X0035800Y0080619D01*
X0035800Y0087447D01*
X0035800Y0086857D02*
X0037800Y0086857D01*
X0037800Y0086058D02*
X0035800Y0086058D01*
X0035800Y0085260D02*
X0037800Y0085260D01*
X0037800Y0084461D02*
X0035800Y0084461D01*
X0035800Y0083662D02*
X0037800Y0083662D01*
X0037800Y0082864D02*
X0035800Y0082864D01*
X0035800Y0082065D02*
X0037800Y0082065D01*
X0037800Y0081267D02*
X0035800Y0081267D01*
X0035650Y0080468D02*
X0037950Y0080468D01*
X0040200Y0079670D02*
X0025122Y0079670D01*
X0026091Y0080468D02*
X0027950Y0080468D01*
X0027800Y0081267D02*
X0026200Y0081267D01*
X0026200Y0082065D02*
X0027800Y0082065D01*
X0027800Y0082864D02*
X0026200Y0082864D01*
X0026200Y0084461D02*
X0027800Y0084461D01*
X0027800Y0083662D02*
X0022200Y0083662D01*
X0022200Y0082864D02*
X0021400Y0082864D01*
X0021400Y0083662D02*
X0015800Y0083662D01*
X0015800Y0082864D02*
X0017400Y0082864D01*
X0017400Y0082065D02*
X0015800Y0082065D01*
X0015800Y0081267D02*
X0017400Y0081267D01*
X0017509Y0080468D02*
X0015650Y0080468D01*
X0015800Y0080619D02*
X0015800Y0087447D01*
X0015214Y0088033D01*
X0008386Y0088033D01*
X0007800Y0087447D01*
X0007800Y0080619D01*
X0008386Y0080033D01*
X0015214Y0080033D01*
X0015800Y0080619D01*
X0018478Y0079670D02*
X0007700Y0079670D01*
X0007700Y0080468D02*
X0007950Y0080468D01*
X0007800Y0081267D02*
X0007700Y0081267D01*
X0007700Y0082065D02*
X0007800Y0082065D01*
X0007800Y0082864D02*
X0007700Y0082864D01*
X0007700Y0083662D02*
X0007800Y0083662D01*
X0007800Y0084461D02*
X0007700Y0084461D01*
X0007700Y0085260D02*
X0007800Y0085260D01*
X0007800Y0086058D02*
X0007700Y0086058D01*
X0007700Y0086857D02*
X0007800Y0086857D01*
X0007700Y0087655D02*
X0008008Y0087655D01*
X0015592Y0087655D02*
X0017543Y0087655D01*
X0017400Y0086857D02*
X0015800Y0086857D01*
X0015800Y0086058D02*
X0017400Y0086058D01*
X0017400Y0085260D02*
X0015800Y0085260D01*
X0015800Y0084461D02*
X0017400Y0084461D01*
X0021400Y0082065D02*
X0022200Y0082065D01*
X0022200Y0081267D02*
X0021400Y0081267D01*
X0021400Y0080468D02*
X0022200Y0080468D01*
X0022200Y0079670D02*
X0021400Y0079670D01*
X0026200Y0085260D02*
X0027800Y0085260D01*
X0027800Y0086058D02*
X0026200Y0086058D01*
X0026200Y0086857D02*
X0027800Y0086857D01*
X0028008Y0087655D02*
X0026057Y0087655D01*
X0040200Y0078871D02*
X0007700Y0078871D01*
X0007700Y0078073D02*
X0040200Y0078073D01*
X0040200Y0077274D02*
X0008447Y0077274D01*
X0009246Y0076476D02*
X0040200Y0076476D01*
X0040200Y0075677D02*
X0010044Y0075677D01*
X0010843Y0074879D02*
X0040200Y0074879D01*
X0040200Y0074080D02*
X0011641Y0074080D01*
X0012440Y0073282D02*
X0040200Y0073282D01*
X0040200Y0072483D02*
X0012700Y0072483D01*
X0012700Y0071685D02*
X0040200Y0071685D01*
X0040434Y0070886D02*
X0012700Y0070886D01*
X0012700Y0070088D02*
X0041233Y0070088D01*
X0042031Y0069289D02*
X0012700Y0069289D01*
X0012700Y0068491D02*
X0042830Y0068491D01*
X0043628Y0067692D02*
X0012700Y0067692D01*
X0012700Y0066894D02*
X0044427Y0066894D01*
X0045225Y0066095D02*
X0012700Y0066095D01*
X0012700Y0065297D02*
X0046024Y0065297D01*
X0046800Y0064520D02*
X0046800Y0064520D01*
X0046822Y0064498D02*
X0012700Y0064498D01*
X0012700Y0063700D02*
X0047621Y0063700D01*
X0052719Y0062901D02*
X0012700Y0062901D01*
X0012700Y0062103D02*
X0053518Y0062103D01*
X0054316Y0061304D02*
X0012700Y0061304D01*
X0012700Y0060506D02*
X0058983Y0060506D01*
X0058983Y0059707D02*
X0012700Y0059707D01*
X0012700Y0058909D02*
X0058983Y0058909D01*
X0058737Y0058110D02*
X0012700Y0058110D01*
X0012700Y0057312D02*
X0058583Y0057312D01*
X0058583Y0056513D02*
X0012700Y0056513D01*
X0012700Y0055715D02*
X0056245Y0055715D01*
X0055446Y0054916D02*
X0012700Y0054916D01*
X0012700Y0054118D02*
X0055300Y0054118D01*
X0055300Y0053319D02*
X0012700Y0053319D01*
X0012700Y0052521D02*
X0055976Y0052521D01*
X0057200Y0053983D02*
X0063506Y0053983D01*
X0063506Y0056759D02*
X0063506Y0056759D01*
X0058623Y0055715D02*
X0058155Y0055715D01*
X0058424Y0052521D02*
X0059173Y0052521D01*
X0058983Y0051722D02*
X0012700Y0051722D01*
X0012700Y0050924D02*
X0058983Y0050924D01*
X0058983Y0050125D02*
X0012700Y0050125D01*
X0012700Y0049327D02*
X0058983Y0049327D01*
X0058983Y0048528D02*
X0012700Y0048528D01*
X0012700Y0047729D02*
X0058983Y0047729D01*
X0072600Y0051716D02*
X0072600Y0083233D01*
X0071800Y0084033D01*
X0067800Y0083662D02*
X0065800Y0083662D01*
X0065800Y0082864D02*
X0067800Y0082864D01*
X0067800Y0082065D02*
X0065800Y0082065D01*
X0065800Y0081267D02*
X0067800Y0081267D01*
X0067950Y0080468D02*
X0065650Y0080468D01*
X0065800Y0080619D02*
X0065800Y0087447D01*
X0065214Y0088033D01*
X0058386Y0088033D01*
X0057800Y0087447D01*
X0057800Y0080619D01*
X0058386Y0080033D01*
X0065214Y0080033D01*
X0065800Y0080619D01*
X0065800Y0084461D02*
X0067800Y0084461D01*
X0067800Y0085260D02*
X0065800Y0085260D01*
X0065800Y0086058D02*
X0067800Y0086058D01*
X0067800Y0086857D02*
X0065800Y0086857D01*
X0065592Y0087655D02*
X0068008Y0087655D01*
X0075592Y0087655D02*
X0078008Y0087655D01*
X0077800Y0087447D02*
X0077800Y0080619D01*
X0078386Y0080033D01*
X0085214Y0080033D01*
X0085800Y0080619D01*
X0085800Y0087447D01*
X0085214Y0088033D01*
X0078386Y0088033D01*
X0077800Y0087447D01*
X0077800Y0086857D02*
X0075800Y0086857D01*
X0075800Y0086058D02*
X0077800Y0086058D01*
X0077800Y0085260D02*
X0075800Y0085260D01*
X0075800Y0084461D02*
X0077800Y0084461D01*
X0077800Y0083662D02*
X0075800Y0083662D01*
X0075800Y0082864D02*
X0077800Y0082864D01*
X0077800Y0082065D02*
X0075800Y0082065D01*
X0075800Y0081267D02*
X0077800Y0081267D01*
X0077950Y0080468D02*
X0075650Y0080468D01*
X0074000Y0079670D02*
X0130500Y0079670D01*
X0130500Y0080468D02*
X0105650Y0080468D01*
X0105800Y0080619D02*
X0105214Y0080033D01*
X0098386Y0080033D01*
X0097800Y0080619D01*
X0097800Y0087447D01*
X0098386Y0088033D01*
X0105214Y0088033D01*
X0105800Y0087447D01*
X0105800Y0080619D01*
X0105800Y0081267D02*
X0130500Y0081267D01*
X0130500Y0082065D02*
X0105800Y0082065D01*
X0105800Y0082864D02*
X0130500Y0082864D01*
X0130500Y0083662D02*
X0105800Y0083662D01*
X0105800Y0084461D02*
X0130500Y0084461D01*
X0130500Y0085260D02*
X0105800Y0085260D01*
X0105800Y0086058D02*
X0130500Y0086058D01*
X0130500Y0086857D02*
X0105800Y0086857D01*
X0105592Y0087655D02*
X0130500Y0087655D01*
X0130500Y0078871D02*
X0074000Y0078871D01*
X0074000Y0078073D02*
X0130500Y0078073D01*
X0130500Y0077274D02*
X0074000Y0077274D01*
X0074000Y0076476D02*
X0130500Y0076476D01*
X0130500Y0075677D02*
X0074000Y0075677D01*
X0074000Y0074879D02*
X0130500Y0074879D01*
X0130500Y0074080D02*
X0074000Y0074080D01*
X0074000Y0073282D02*
X0130500Y0073282D01*
X0130500Y0072483D02*
X0074000Y0072483D01*
X0074000Y0071685D02*
X0130500Y0071685D01*
X0130500Y0070886D02*
X0074000Y0070886D01*
X0074000Y0070088D02*
X0075825Y0070088D01*
X0080975Y0070088D02*
X0081825Y0070088D01*
X0081825Y0069289D02*
X0080975Y0069289D01*
X0080975Y0068491D02*
X0081825Y0068491D01*
X0081825Y0067692D02*
X0080975Y0067692D01*
X0080975Y0066894D02*
X0081825Y0066894D01*
X0081924Y0066095D02*
X0080876Y0066095D01*
X0086876Y0066095D02*
X0087425Y0066095D01*
X0089555Y0068491D02*
X0130500Y0068491D01*
X0130500Y0069289D02*
X0088757Y0069289D01*
X0086975Y0070088D02*
X0130500Y0070088D01*
X0130500Y0067692D02*
X0090354Y0067692D01*
X0091152Y0066894D02*
X0130500Y0066894D01*
X0130500Y0066095D02*
X0092375Y0066095D01*
X0092700Y0065297D02*
X0130500Y0065297D01*
X0130500Y0064498D02*
X0092700Y0064498D01*
X0092204Y0063700D02*
X0130500Y0063700D01*
X0097950Y0080468D02*
X0095650Y0080468D01*
X0095800Y0080619D02*
X0095800Y0087447D01*
X0095214Y0088033D01*
X0088386Y0088033D01*
X0087800Y0087447D01*
X0087800Y0080619D01*
X0088386Y0080033D01*
X0095214Y0080033D01*
X0095800Y0080619D01*
X0095800Y0081267D02*
X0097800Y0081267D01*
X0097800Y0082065D02*
X0095800Y0082065D01*
X0095800Y0082864D02*
X0097800Y0082864D01*
X0097800Y0083662D02*
X0095800Y0083662D01*
X0095800Y0084461D02*
X0097800Y0084461D01*
X0097800Y0085260D02*
X0095800Y0085260D01*
X0095800Y0086058D02*
X0097800Y0086058D01*
X0097800Y0086857D02*
X0095800Y0086857D01*
X0095592Y0087655D02*
X0098008Y0087655D01*
X0088008Y0087655D02*
X0085592Y0087655D01*
X0085800Y0086857D02*
X0087800Y0086857D01*
X0087800Y0086058D02*
X0085800Y0086058D01*
X0085800Y0085260D02*
X0087800Y0085260D01*
X0087800Y0084461D02*
X0085800Y0084461D01*
X0085800Y0083662D02*
X0087800Y0083662D01*
X0087800Y0082864D02*
X0085800Y0082864D01*
X0085800Y0082065D02*
X0087800Y0082065D01*
X0087800Y0081267D02*
X0085800Y0081267D01*
X0085650Y0080468D02*
X0087950Y0080468D01*
X0063506Y0072483D02*
X0063506Y0072483D01*
X0063506Y0071685D02*
X0063506Y0071685D01*
X0063506Y0070886D02*
X0063506Y0070886D01*
X0063506Y0070637D02*
X0063506Y0070637D01*
X0059154Y0072483D02*
X0043400Y0072483D01*
X0044161Y0071685D02*
X0058624Y0071685D01*
X0058583Y0070886D02*
X0044959Y0070886D01*
X0045758Y0070088D02*
X0058583Y0070088D01*
X0054543Y0069289D02*
X0046556Y0069289D01*
X0047355Y0068491D02*
X0053745Y0068491D01*
X0052946Y0067692D02*
X0048154Y0067692D01*
X0048952Y0066894D02*
X0052148Y0066894D01*
X0070365Y0064498D02*
X0071200Y0064498D01*
X0071163Y0063700D02*
X0071200Y0063700D01*
X0080975Y0061304D02*
X0081825Y0061304D01*
X0081825Y0060506D02*
X0080975Y0060506D01*
X0080588Y0059707D02*
X0082212Y0059707D01*
X0084337Y0058723D02*
X0084337Y0062020D01*
X0084400Y0062083D01*
X0084337Y0058723D02*
X0085337Y0057723D01*
X0085337Y0054523D01*
X0084937Y0050125D02*
X0085737Y0050125D01*
X0085737Y0049327D02*
X0084937Y0049327D01*
X0084937Y0048528D02*
X0085737Y0048528D01*
X0085737Y0047729D02*
X0084937Y0047729D01*
X0081610Y0049327D02*
X0080899Y0049327D01*
X0080825Y0050125D02*
X0082109Y0050125D01*
X0085214Y0027933D02*
X0078386Y0027933D01*
X0077800Y0027347D01*
X0077800Y0020519D01*
X0078386Y0019933D01*
X0085214Y0019933D01*
X0085800Y0020519D01*
X0085800Y0027347D01*
X0085214Y0027933D01*
X0085381Y0027767D02*
X0088219Y0027767D01*
X0087800Y0026968D02*
X0085800Y0026968D01*
X0085800Y0026170D02*
X0087800Y0026170D01*
X0087800Y0025371D02*
X0085800Y0025371D01*
X0085800Y0024573D02*
X0087800Y0024573D01*
X0087800Y0023774D02*
X0085800Y0023774D01*
X0085800Y0022976D02*
X0087800Y0022976D01*
X0087800Y0022177D02*
X0085800Y0022177D01*
X0085800Y0021379D02*
X0087800Y0021379D01*
X0087800Y0020580D02*
X0085800Y0020580D01*
X0077800Y0020580D02*
X0075800Y0020580D01*
X0075800Y0020519D02*
X0075800Y0027347D01*
X0075214Y0027933D01*
X0068386Y0027933D01*
X0067800Y0027347D01*
X0067800Y0020519D01*
X0068386Y0019933D01*
X0075214Y0019933D01*
X0075800Y0020519D01*
X0075800Y0021379D02*
X0077800Y0021379D01*
X0077800Y0022177D02*
X0075800Y0022177D01*
X0075800Y0022976D02*
X0077800Y0022976D01*
X0077800Y0023774D02*
X0075800Y0023774D01*
X0075800Y0024573D02*
X0077800Y0024573D01*
X0077800Y0025371D02*
X0075800Y0025371D01*
X0075800Y0026170D02*
X0077800Y0026170D01*
X0077800Y0026968D02*
X0075800Y0026968D01*
X0075381Y0027767D02*
X0078219Y0027767D01*
X0068219Y0027767D02*
X0065381Y0027767D01*
X0065214Y0027933D02*
X0065800Y0027347D01*
X0065800Y0020519D01*
X0065214Y0019933D01*
X0058386Y0019933D01*
X0057800Y0020519D01*
X0057800Y0027347D01*
X0058386Y0027933D01*
X0065214Y0027933D01*
X0065800Y0026968D02*
X0067800Y0026968D01*
X0067800Y0026170D02*
X0065800Y0026170D01*
X0065800Y0025371D02*
X0067800Y0025371D01*
X0067800Y0024573D02*
X0065800Y0024573D01*
X0065800Y0023774D02*
X0067800Y0023774D01*
X0067800Y0022976D02*
X0065800Y0022976D01*
X0065800Y0022177D02*
X0067800Y0022177D01*
X0067800Y0021379D02*
X0065800Y0021379D01*
X0065800Y0020580D02*
X0067800Y0020580D01*
X0057800Y0020580D02*
X0055800Y0020580D01*
X0055800Y0020519D02*
X0055800Y0027347D01*
X0055214Y0027933D01*
X0048386Y0027933D01*
X0047800Y0027347D01*
X0047800Y0020519D01*
X0048386Y0019933D01*
X0055214Y0019933D01*
X0055800Y0020519D01*
X0055800Y0021379D02*
X0057800Y0021379D01*
X0057800Y0022177D02*
X0055800Y0022177D01*
X0055800Y0022976D02*
X0057800Y0022976D01*
X0057800Y0023774D02*
X0055800Y0023774D01*
X0055800Y0024573D02*
X0057800Y0024573D01*
X0057800Y0025371D02*
X0055800Y0025371D01*
X0055800Y0026170D02*
X0057800Y0026170D01*
X0057800Y0026968D02*
X0055800Y0026968D01*
X0055381Y0027767D02*
X0058219Y0027767D01*
X0048219Y0027767D02*
X0045381Y0027767D01*
X0045214Y0027933D02*
X0045800Y0027347D01*
X0045800Y0020519D01*
X0045214Y0019933D01*
X0038386Y0019933D01*
X0037800Y0020519D01*
X0037800Y0027347D01*
X0038386Y0027933D01*
X0045214Y0027933D01*
X0045800Y0026968D02*
X0047800Y0026968D01*
X0047800Y0026170D02*
X0045800Y0026170D01*
X0045800Y0025371D02*
X0047800Y0025371D01*
X0047800Y0024573D02*
X0045800Y0024573D01*
X0045800Y0023774D02*
X0047800Y0023774D01*
X0047800Y0022976D02*
X0045800Y0022976D01*
X0045800Y0022177D02*
X0047800Y0022177D01*
X0047800Y0021379D02*
X0045800Y0021379D01*
X0045800Y0020580D02*
X0047800Y0020580D01*
X0037800Y0020580D02*
X0035800Y0020580D01*
X0035800Y0021379D02*
X0037800Y0021379D01*
X0037800Y0022177D02*
X0035800Y0022177D01*
X0035800Y0022976D02*
X0037800Y0022976D01*
X0037800Y0023774D02*
X0035800Y0023774D01*
X0035800Y0024573D02*
X0037800Y0024573D01*
X0037800Y0025371D02*
X0035800Y0025371D01*
X0035800Y0026170D02*
X0037800Y0026170D01*
X0037800Y0026968D02*
X0035800Y0026968D01*
X0035381Y0027767D02*
X0038219Y0027767D01*
X0030400Y0030961D02*
X0008716Y0030961D01*
X0009515Y0031759D02*
X0030400Y0031759D01*
X0030400Y0032558D02*
X0010313Y0032558D01*
X0011112Y0033356D02*
X0030400Y0033356D01*
X0030400Y0034155D02*
X0011910Y0034155D01*
X0012700Y0034953D02*
X0030400Y0034953D01*
X0030400Y0035752D02*
X0012700Y0035752D01*
X0012700Y0036550D02*
X0030400Y0036550D01*
X0030400Y0037349D02*
X0012700Y0037349D01*
X0012700Y0038147D02*
X0030400Y0038147D01*
X0030400Y0038946D02*
X0012700Y0038946D01*
X0012700Y0039744D02*
X0030400Y0039744D01*
X0030400Y0040543D02*
X0012700Y0040543D01*
X0012700Y0041341D02*
X0030400Y0041341D01*
X0030477Y0042140D02*
X0012700Y0042140D01*
X0012700Y0042938D02*
X0031275Y0042938D01*
X0032074Y0043737D02*
X0012700Y0043737D01*
X0012700Y0044535D02*
X0032872Y0044535D01*
X0033671Y0045334D02*
X0012700Y0045334D01*
X0012700Y0046132D02*
X0034469Y0046132D01*
X0035266Y0046931D02*
X0012700Y0046931D01*
X0015214Y0027933D02*
X0008386Y0027933D01*
X0007800Y0027347D01*
X0007800Y0020519D01*
X0008386Y0019933D01*
X0015214Y0019933D01*
X0015800Y0020519D01*
X0015800Y0027347D01*
X0015214Y0027933D01*
X0015381Y0027767D02*
X0018219Y0027767D01*
X0017800Y0026968D02*
X0015800Y0026968D01*
X0015800Y0026170D02*
X0017800Y0026170D01*
X0017800Y0025371D02*
X0015800Y0025371D01*
X0015800Y0024573D02*
X0017800Y0024573D01*
X0017800Y0023774D02*
X0015800Y0023774D01*
X0015800Y0022976D02*
X0017800Y0022976D01*
X0017800Y0022177D02*
X0015800Y0022177D01*
X0015800Y0021379D02*
X0017800Y0021379D01*
X0017800Y0020580D02*
X0015800Y0020580D01*
X0007800Y0020580D02*
X0007700Y0020580D01*
X0007700Y0021379D02*
X0007800Y0021379D01*
X0007800Y0022177D02*
X0007700Y0022177D01*
X0007700Y0022976D02*
X0007800Y0022976D01*
X0007800Y0023774D02*
X0007700Y0023774D01*
X0007700Y0024573D02*
X0007800Y0024573D01*
X0007800Y0025371D02*
X0007700Y0025371D01*
X0007700Y0026170D02*
X0007800Y0026170D01*
X0007800Y0026968D02*
X0007700Y0026968D01*
X0007700Y0027767D02*
X0008219Y0027767D01*
X0055650Y0080468D02*
X0057950Y0080468D01*
X0057800Y0081267D02*
X0055800Y0081267D01*
X0055800Y0082065D02*
X0057800Y0082065D01*
X0057800Y0082864D02*
X0055800Y0082864D01*
X0055800Y0083662D02*
X0057800Y0083662D01*
X0057800Y0084461D02*
X0055800Y0084461D01*
X0055800Y0085260D02*
X0057800Y0085260D01*
X0057800Y0086058D02*
X0055800Y0086058D01*
X0055800Y0086857D02*
X0057800Y0086857D01*
X0058008Y0087655D02*
X0055592Y0087655D01*
D15*
X0041800Y0084033D02*
X0041800Y0071783D01*
X0048400Y0065183D01*
X0052700Y0065183D01*
X0055378Y0067861D01*
X0063506Y0067861D01*
X0063922Y0067883D01*
X0069000Y0067883D01*
X0063506Y0062310D02*
X0055573Y0062310D01*
X0052700Y0065183D01*
X0084400Y0068183D02*
X0087600Y0068183D01*
X0090800Y0064983D01*
D16*
X0090800Y0064983D03*
X0075000Y0068183D03*
X0069000Y0067883D03*
X0070700Y0059883D03*
X0057200Y0053983D03*
X0068794Y0051190D03*
X0074100Y0040683D03*
X0037500Y0042783D03*
M02*
