%
M48
M72
T01C0.01000
T02C0.03800
%
T01
X74100Y40683
X68794Y51190
X57200Y53983
X70700Y59883
X69000Y67883
X75000Y68183
X90800Y64983
X37500Y42783
T02
X11800Y23933
X21800Y23933
X31800Y23933
X41800Y23933
X51800Y23933
X61800Y23933
X71800Y23933
X81800Y23933
X91800Y23933
X101800Y23933
X101800Y84033
X91800Y84033
X81800Y84033
X71800Y84033
X61800Y84033
X51800Y84033
X41800Y84033
X31800Y84033
X21800Y84033
X11800Y84033
M30
