G75*
%MOIN*%
%OFA0B0*%
%FSLAX25Y25*%
%IPPOS*%
%LPD*%
%AMOC8*
5,1,8,0,0,1.08239X$1,22.5*
%
%ADD10C,0.00700*%
%ADD11R,0.00028X0.27104*%
%ADD12R,0.00028X0.15540*%
%ADD13R,0.00028X0.00868*%
%ADD14R,0.00028X0.27384*%
%ADD15R,0.00028X0.16772*%
%ADD16R,0.00028X0.27496*%
%ADD17R,0.00028X0.16996*%
%ADD18R,0.00028X0.27580*%
%ADD19R,0.00028X0.17164*%
%ADD20R,0.00028X0.27664*%
%ADD21R,0.00028X0.17304*%
%ADD22R,0.00028X0.27720*%
%ADD23R,0.00028X0.17444*%
%ADD24R,0.00028X0.27804*%
%ADD25R,0.00028X0.17556*%
%ADD26R,0.00028X0.27860*%
%ADD27R,0.00028X0.17668*%
%ADD28R,0.00028X0.27916*%
%ADD29R,0.00028X0.17752*%
%ADD30R,0.00028X0.27944*%
%ADD31R,0.00028X0.17836*%
%ADD32R,0.00028X0.28000*%
%ADD33R,0.00028X0.17948*%
%ADD34R,0.00028X0.28028*%
%ADD35R,0.00028X0.18032*%
%ADD36R,0.00028X0.28084*%
%ADD37R,0.00028X0.18060*%
%ADD38R,0.00028X0.28084*%
%ADD39R,0.00028X0.18144*%
%ADD40R,0.00028X0.28140*%
%ADD41R,0.00028X0.18200*%
%ADD42R,0.00028X0.28168*%
%ADD43R,0.00028X0.18284*%
%ADD44R,0.00028X0.28196*%
%ADD45R,0.00028X0.18340*%
%ADD46R,0.00028X0.18396*%
%ADD47R,0.00028X0.28252*%
%ADD48R,0.00028X0.18452*%
%ADD49R,0.00028X0.28280*%
%ADD50R,0.00028X0.18508*%
%ADD51R,0.00028X0.28308*%
%ADD52R,0.00028X0.18564*%
%ADD53R,0.00028X0.28336*%
%ADD54R,0.00028X0.18620*%
%ADD55R,0.00028X0.18648*%
%ADD56R,0.00028X0.28364*%
%ADD57R,0.00028X0.18704*%
%ADD58R,0.00028X0.28364*%
%ADD59R,0.00028X0.18760*%
%ADD60R,0.00028X0.28392*%
%ADD61R,0.00028X0.18788*%
%ADD62R,0.00028X0.18816*%
%ADD63R,0.00028X0.28448*%
%ADD64R,0.00028X0.18872*%
%ADD65R,0.00028X0.28476*%
%ADD66R,0.00028X0.18900*%
%ADD67R,0.00028X0.28448*%
%ADD68R,0.00028X0.18956*%
%ADD69R,0.00028X0.28476*%
%ADD70R,0.00028X0.18984*%
%ADD71R,0.00028X0.28504*%
%ADD72R,0.00028X0.19040*%
%ADD73R,0.00028X0.19068*%
%ADD74R,0.00028X0.28532*%
%ADD75R,0.00028X0.19096*%
%ADD76R,0.00028X0.19152*%
%ADD77R,0.00028X0.28560*%
%ADD78R,0.00028X0.28588*%
%ADD79R,0.00028X0.19208*%
%ADD80R,0.00028X0.28560*%
%ADD81R,0.00028X0.19236*%
%ADD82R,0.00028X0.19264*%
%ADD83R,0.00028X0.19292*%
%ADD84R,0.00028X0.28616*%
%ADD85R,0.00028X0.19320*%
%ADD86R,0.00028X0.19348*%
%ADD87R,0.00028X0.19404*%
%ADD88R,0.00028X0.28644*%
%ADD89R,0.00028X0.19404*%
%ADD90R,0.00028X0.28644*%
%ADD91R,0.00028X0.19432*%
%ADD92R,0.00028X0.19460*%
%ADD93R,0.00028X0.19488*%
%ADD94R,0.00028X0.16352*%
%ADD95R,0.00028X0.06244*%
%ADD96R,0.00028X0.04200*%
%ADD97R,0.00028X0.19516*%
%ADD98R,0.00028X0.16128*%
%ADD99R,0.00028X0.05740*%
%ADD100R,0.00028X0.04004*%
%ADD101R,0.00028X0.19544*%
%ADD102R,0.00028X0.15932*%
%ADD103R,0.00028X0.05348*%
%ADD104R,0.00028X0.03780*%
%ADD105R,0.00028X0.19572*%
%ADD106R,0.00028X0.15764*%
%ADD107R,0.00028X0.05068*%
%ADD108R,0.00028X0.03696*%
%ADD109R,0.00028X0.03556*%
%ADD110R,0.00028X0.03164*%
%ADD111R,0.00028X0.01512*%
%ADD112R,0.00028X0.02576*%
%ADD113R,0.00028X0.02996*%
%ADD114R,0.00028X0.03136*%
%ADD115R,0.00028X0.05432*%
%ADD116R,0.00028X0.04172*%
%ADD117R,0.00028X0.04816*%
%ADD118R,0.00028X0.03556*%
%ADD119R,0.00028X0.03584*%
%ADD120R,0.00028X0.03024*%
%ADD121R,0.00028X0.04032*%
%ADD122R,0.00028X0.04592*%
%ADD123R,0.00028X0.03472*%
%ADD124R,0.00028X0.03108*%
%ADD125R,0.00028X0.03948*%
%ADD126R,0.00028X0.04396*%
%ADD127R,0.00028X0.03388*%
%ADD128R,0.00028X0.03612*%
%ADD129R,0.00028X0.03864*%
%ADD130R,0.00028X0.03332*%
%ADD131R,0.00028X0.03612*%
%ADD132R,0.00028X0.03164*%
%ADD133R,0.00028X0.01512*%
%ADD134R,0.00028X0.02576*%
%ADD135R,0.00028X0.03024*%
%ADD136R,0.00028X0.03080*%
%ADD137R,0.00028X0.05432*%
%ADD138R,0.00028X0.04032*%
%ADD139R,0.00028X0.03248*%
%ADD140R,0.00028X0.03640*%
%ADD141R,0.00028X0.03080*%
%ADD142R,0.00028X0.03192*%
%ADD143R,0.00028X0.03640*%
%ADD144R,0.00028X0.03724*%
%ADD145R,0.00028X0.03668*%
%ADD146R,0.00028X0.03052*%
%ADD147R,0.00028X0.03500*%
%ADD148R,0.00028X0.02968*%
%ADD149R,0.00028X0.03444*%
%ADD150R,0.00028X0.03220*%
%ADD151R,0.00028X0.02940*%
%ADD152R,0.00028X0.03696*%
%ADD153R,0.00028X0.02968*%
%ADD154R,0.00028X0.03332*%
%ADD155R,0.00028X0.03108*%
%ADD156R,0.00028X0.02884*%
%ADD157R,0.00028X0.03276*%
%ADD158R,0.00028X0.02856*%
%ADD159R,0.00028X0.03248*%
%ADD160R,0.00028X0.02800*%
%ADD161R,0.00028X0.02912*%
%ADD162R,0.00028X0.02828*%
%ADD163R,0.00028X0.02744*%
%ADD164R,0.00028X0.03752*%
%ADD165R,0.00028X0.02716*%
%ADD166R,0.00028X0.02884*%
%ADD167R,0.00028X0.02660*%
%ADD168R,0.00028X0.02688*%
%ADD169R,0.00028X0.03752*%
%ADD170R,0.00028X0.02940*%
%ADD171R,0.00028X0.03052*%
%ADD172R,0.00028X0.02660*%
%ADD173R,0.00028X0.02632*%
%ADD174R,0.00028X0.02604*%
%ADD175R,0.00028X0.03780*%
%ADD176R,0.00028X0.02940*%
%ADD177R,0.00028X0.02548*%
%ADD178R,0.00028X0.02548*%
%ADD179R,0.00028X0.02828*%
%ADD180R,0.00028X0.02912*%
%ADD181R,0.00028X0.02492*%
%ADD182R,0.00028X0.02520*%
%ADD183R,0.00028X0.02856*%
%ADD184R,0.00028X0.02464*%
%ADD185R,0.00028X0.03808*%
%ADD186R,0.00028X0.02828*%
%ADD187R,0.00028X0.02828*%
%ADD188R,0.00028X0.02464*%
%ADD189R,0.00028X0.03808*%
%ADD190R,0.00028X0.02408*%
%ADD191R,0.00028X0.02436*%
%ADD192R,0.00028X0.02772*%
%ADD193R,0.00028X0.02380*%
%ADD194R,0.00028X0.02352*%
%ADD195R,0.00028X0.03836*%
%ADD196R,0.00028X0.02324*%
%ADD197R,0.00028X0.02296*%
%ADD198R,0.00028X0.03836*%
%ADD199R,0.00028X0.02744*%
%ADD200R,0.00028X0.02296*%
%ADD201R,0.00028X0.02268*%
%ADD202R,0.00028X0.02212*%
%ADD203R,0.00028X0.02240*%
%ADD204R,0.00028X0.02184*%
%ADD205R,0.00028X0.02212*%
%ADD206R,0.00028X0.02156*%
%ADD207R,0.00028X0.02128*%
%ADD208R,0.00028X0.02128*%
%ADD209R,0.00028X0.03864*%
%ADD210R,0.00028X0.02436*%
%ADD211R,0.00028X0.02100*%
%ADD212R,0.00028X0.02128*%
%ADD213R,0.00028X0.02100*%
%ADD214R,0.00028X0.02632*%
%ADD215R,0.00028X0.02072*%
%ADD216R,0.00028X0.00728*%
%ADD217R,0.00028X0.02044*%
%ADD218R,0.00028X0.00616*%
%ADD219R,0.00028X0.01148*%
%ADD220R,0.00028X0.02016*%
%ADD221R,0.00028X0.01008*%
%ADD222R,0.00028X0.01428*%
%ADD223R,0.00028X0.01288*%
%ADD224R,0.00028X0.02604*%
%ADD225R,0.00028X0.02688*%
%ADD226R,0.00028X0.01680*%
%ADD227R,0.00028X0.01988*%
%ADD228R,0.00028X0.02576*%
%ADD229R,0.00028X0.01876*%
%ADD230R,0.00028X0.01960*%
%ADD231R,0.00028X0.01680*%
%ADD232R,0.00028X0.01848*%
%ADD233R,0.00028X0.01932*%
%ADD234R,0.00028X0.01904*%
%ADD235R,0.00028X0.02184*%
%ADD236R,0.00028X0.02240*%
%ADD237R,0.00028X0.02520*%
%ADD238R,0.00028X0.02184*%
%ADD239R,0.00028X0.01904*%
%ADD240R,0.00028X0.02352*%
%ADD241R,0.00028X0.01848*%
%ADD242R,0.00028X0.02520*%
%ADD243R,0.00028X0.02156*%
%ADD244R,0.00028X0.01848*%
%ADD245R,0.00028X0.01820*%
%ADD246R,0.00028X0.02492*%
%ADD247R,0.00028X0.01792*%
%ADD248R,0.00028X0.01820*%
%ADD249R,0.00028X0.02464*%
%ADD250R,0.00028X0.03192*%
%ADD251R,0.00028X0.01764*%
%ADD252R,0.00028X0.02464*%
%ADD253R,0.00028X0.02576*%
%ADD254R,0.00028X0.02072*%
%ADD255R,0.00028X0.03304*%
%ADD256R,0.00028X0.01820*%
%ADD257R,0.00028X0.02856*%
%ADD258R,0.00028X0.01736*%
%ADD259R,0.00028X0.01792*%
%ADD260R,0.00028X0.01736*%
%ADD261R,0.00028X0.05264*%
%ADD262R,0.00028X0.01708*%
%ADD263R,0.00028X0.05292*%
%ADD264R,0.00028X0.01988*%
%ADD265R,0.00028X0.05320*%
%ADD266R,0.00028X0.05348*%
%ADD267R,0.00028X0.01652*%
%ADD268R,0.00028X0.02380*%
%ADD269R,0.00028X0.00028*%
%ADD270R,0.00028X0.02492*%
%ADD271R,0.00028X0.01960*%
%ADD272R,0.00028X0.05376*%
%ADD273R,0.00028X0.01624*%
%ADD274R,0.00028X0.00084*%
%ADD275R,0.00028X0.05348*%
%ADD276R,0.00028X0.03360*%
%ADD277R,0.00028X0.01624*%
%ADD278R,0.00028X0.05376*%
%ADD279R,0.00028X0.03416*%
%ADD280R,0.00028X0.01596*%
%ADD281R,0.00028X0.00112*%
%ADD282R,0.00028X0.05376*%
%ADD283R,0.00028X0.05404*%
%ADD284R,0.00028X0.01568*%
%ADD285R,0.00028X0.00140*%
%ADD286R,0.00028X0.01876*%
%ADD287R,0.00028X0.03528*%
%ADD288R,0.00028X0.02324*%
%ADD289R,0.00028X0.00168*%
%ADD290R,0.00028X0.01876*%
%ADD291R,0.00028X0.03584*%
%ADD292R,0.00028X0.01540*%
%ADD293R,0.00028X0.00168*%
%ADD294R,0.00028X0.01540*%
%ADD295R,0.00028X0.00196*%
%ADD296R,0.00028X0.01512*%
%ADD297R,0.00028X0.00224*%
%ADD298R,0.00028X0.05460*%
%ADD299R,0.00028X0.01484*%
%ADD300R,0.00028X0.00252*%
%ADD301R,0.00028X0.02240*%
%ADD302R,0.00028X0.00280*%
%ADD303R,0.00028X0.01792*%
%ADD304R,0.00028X0.05460*%
%ADD305R,0.00028X0.01456*%
%ADD306R,0.00028X0.00280*%
%ADD307R,0.00028X0.05488*%
%ADD308R,0.00028X0.01456*%
%ADD309R,0.00028X0.00336*%
%ADD310R,0.00028X0.01764*%
%ADD311R,0.00028X0.03920*%
%ADD312R,0.00028X0.01428*%
%ADD313R,0.00028X0.00364*%
%ADD314R,0.00028X0.03976*%
%ADD315R,0.00028X0.01400*%
%ADD316R,0.00028X0.02184*%
%ADD317R,0.00028X0.00392*%
%ADD318R,0.00028X0.05488*%
%ADD319R,0.00028X0.03976*%
%ADD320R,0.00028X0.01400*%
%ADD321R,0.00028X0.00392*%
%ADD322R,0.00028X0.00420*%
%ADD323R,0.00028X0.05516*%
%ADD324R,0.00028X0.01372*%
%ADD325R,0.00028X0.00448*%
%ADD326R,0.00028X0.04088*%
%ADD327R,0.00028X0.00476*%
%ADD328R,0.00028X0.04144*%
%ADD329R,0.00028X0.01344*%
%ADD330R,0.00028X0.00504*%
%ADD331R,0.00028X0.00532*%
%ADD332R,0.00028X0.02212*%
%ADD333R,0.00028X0.05516*%
%ADD334R,0.00028X0.04172*%
%ADD335R,0.00028X0.01344*%
%ADD336R,0.00028X0.00532*%
%ADD337R,0.00028X0.01316*%
%ADD338R,0.00028X0.05544*%
%ADD339R,0.00028X0.00588*%
%ADD340R,0.00028X0.04256*%
%ADD341R,0.00028X0.02016*%
%ADD342R,0.00028X0.00644*%
%ADD343R,0.00028X0.02156*%
%ADD344R,0.00028X0.05544*%
%ADD345R,0.00028X0.04312*%
%ADD346R,0.00028X0.01288*%
%ADD347R,0.00028X0.00644*%
%ADD348R,0.00028X0.04312*%
%ADD349R,0.00028X0.01260*%
%ADD350R,0.00028X0.00700*%
%ADD351R,0.00028X0.04368*%
%ADD352R,0.00028X0.00756*%
%ADD353R,0.00028X0.01568*%
%ADD354R,0.00028X0.04424*%
%ADD355R,0.00028X0.01232*%
%ADD356R,0.00028X0.00756*%
%ADD357R,0.00028X0.04424*%
%ADD358R,0.00028X0.01232*%
%ADD359R,0.00028X0.00784*%
%ADD360R,0.00028X0.05572*%
%ADD361R,0.00028X0.00812*%
%ADD362R,0.00028X0.04480*%
%ADD363R,0.00028X0.00840*%
%ADD364R,0.00028X0.01540*%
%ADD365R,0.00028X0.01876*%
%ADD366R,0.00028X0.00868*%
%ADD367R,0.00028X0.02044*%
%ADD368R,0.00028X0.01540*%
%ADD369R,0.00028X0.05572*%
%ADD370R,0.00028X0.04480*%
%ADD371R,0.00028X0.01204*%
%ADD372R,0.00028X0.01204*%
%ADD373R,0.00028X0.00896*%
%ADD374R,0.00028X0.04508*%
%ADD375R,0.00028X0.00924*%
%ADD376R,0.00028X0.04536*%
%ADD377R,0.00028X0.00952*%
%ADD378R,0.00028X0.01176*%
%ADD379R,0.00028X0.04228*%
%ADD380R,0.00028X0.00980*%
%ADD381R,0.00028X0.01820*%
%ADD382R,0.00028X0.01008*%
%ADD383R,0.00028X0.03220*%
%ADD384R,0.00028X0.04564*%
%ADD385R,0.00028X0.01176*%
%ADD386R,0.00028X0.04592*%
%ADD387R,0.00028X0.01036*%
%ADD388R,0.00028X0.01064*%
%ADD389R,0.00028X0.01484*%
%ADD390R,0.00028X0.01092*%
%ADD391R,0.00028X0.01120*%
%ADD392R,0.00028X0.01484*%
%ADD393R,0.00028X0.04620*%
%ADD394R,0.00028X0.01148*%
%ADD395R,0.00028X0.01120*%
%ADD396R,0.00028X0.04620*%
%ADD397R,0.00028X0.04648*%
%ADD398R,0.00028X0.02212*%
%ADD399R,0.00028X0.04648*%
%ADD400R,0.00028X0.01456*%
%ADD401R,0.00028X0.04676*%
%ADD402R,0.00028X0.02548*%
%ADD403R,0.00028X0.01596*%
%ADD404R,0.00028X0.01764*%
%ADD405R,0.00028X0.01456*%
%ADD406R,0.00028X0.04704*%
%ADD407R,0.00028X0.04704*%
%ADD408R,0.00028X0.05600*%
%ADD409R,0.00028X0.02520*%
%ADD410R,0.00028X0.01512*%
%ADD411R,0.00028X0.05600*%
%ADD412R,0.00028X0.01372*%
%ADD413R,0.00028X0.01428*%
%ADD414R,0.00028X0.02156*%
%ADD415R,0.00028X0.01260*%
%ADD416R,0.00028X0.02716*%
%ADD417R,0.00028X0.04564*%
%ADD418R,0.00028X0.02772*%
%ADD419R,0.00028X0.04508*%
%ADD420R,0.00028X0.04452*%
%ADD421R,0.00028X0.02492*%
%ADD422R,0.00028X0.00028*%
%ADD423R,0.00028X0.00112*%
%ADD424R,0.00028X0.01148*%
%ADD425R,0.00028X0.04340*%
%ADD426R,0.00028X0.00196*%
%ADD427R,0.00028X0.01092*%
%ADD428R,0.00028X0.01148*%
%ADD429R,0.00028X0.00392*%
%ADD430R,0.00028X0.00420*%
%ADD431R,0.00028X0.01036*%
%ADD432R,0.00028X0.04200*%
%ADD433R,0.00028X0.01316*%
%ADD434R,0.00028X0.04116*%
%ADD435R,0.00028X0.00700*%
%ADD436R,0.00028X0.01428*%
%ADD437R,0.00028X0.00980*%
%ADD438R,0.00028X0.01708*%
%ADD439R,0.00028X0.01120*%
%ADD440R,0.00028X0.00896*%
%ADD441R,0.00028X0.02800*%
%ADD442R,0.00028X0.05404*%
%ADD443R,0.00028X0.08652*%
%ADD444R,0.00028X0.08848*%
%ADD445R,0.00028X0.08764*%
%ADD446R,0.00028X0.08932*%
%ADD447R,0.00028X0.08876*%
%ADD448R,0.00028X0.09072*%
%ADD449R,0.00028X0.03612*%
%ADD450R,0.00028X0.09016*%
%ADD451R,0.00028X0.09212*%
%ADD452R,0.00028X0.09268*%
%ADD453R,0.00028X0.09464*%
%ADD454R,0.00028X0.19124*%
%ADD455R,0.00028X0.05320*%
%ADD456R,0.00028X0.19124*%
%ADD457R,0.00028X0.05320*%
%ADD458R,0.00028X0.03360*%
%ADD459R,0.00028X0.03304*%
%ADD460R,0.00028X0.05292*%
%ADD461R,0.00028X0.03192*%
%ADD462R,0.00028X0.02884*%
%ADD463R,0.00028X0.01904*%
%ADD464R,0.00028X0.16800*%
%ADD465R,0.00028X0.01176*%
%ADD466R,0.00028X0.14532*%
%ADD467R,0.00028X0.00812*%
%ADD468R,0.00028X0.14504*%
%ADD469R,0.00028X0.00840*%
%ADD470R,0.00028X0.14504*%
%ADD471R,0.00028X0.01652*%
%ADD472R,0.00028X0.02128*%
%ADD473R,0.00028X0.01848*%
%ADD474R,0.00028X0.02268*%
%ADD475R,0.00028X0.02548*%
%ADD476R,0.00028X0.03220*%
%ADD477R,0.00028X0.03248*%
%ADD478R,0.00028X0.03612*%
%ADD479R,0.00028X0.03724*%
%ADD480R,0.00028X0.03920*%
%ADD481R,0.00028X0.04060*%
%ADD482R,0.00028X0.04256*%
%ADD483R,0.00028X0.04284*%
%ADD484R,0.00028X0.08512*%
%ADD485R,0.00028X0.09828*%
%ADD486R,0.00028X0.05096*%
%ADD487R,0.00028X0.08512*%
%ADD488R,0.00028X0.27356*%
%ADD489R,0.00028X0.27608*%
%ADD490R,0.00028X0.08540*%
%ADD491R,0.00028X0.06300*%
%ADD492R,0.00028X0.49840*%
%ADD493R,0.00028X0.49812*%
%ADD494R,0.00028X0.49784*%
%ADD495R,0.00028X0.49756*%
%ADD496R,0.00028X0.49728*%
%ADD497R,0.00028X0.49700*%
%ADD498R,0.00028X0.49672*%
%ADD499R,0.00028X0.49644*%
%ADD500R,0.00028X0.49616*%
%ADD501R,0.00028X0.49588*%
%ADD502R,0.00028X0.49560*%
%ADD503R,0.00028X0.49532*%
%ADD504R,0.00028X0.49504*%
%ADD505R,0.00028X0.49448*%
%ADD506R,0.00028X0.49420*%
%ADD507R,0.00028X0.49392*%
%ADD508R,0.00028X0.49364*%
%ADD509R,0.00028X0.49336*%
%ADD510R,0.00028X0.49308*%
%ADD511R,0.00028X0.49252*%
%ADD512R,0.00028X0.49224*%
%ADD513R,0.00028X0.49196*%
%ADD514R,0.00028X0.49140*%
%ADD515R,0.00028X0.49112*%
%ADD516R,0.00028X0.49056*%
%ADD517R,0.00028X0.49000*%
%ADD518R,0.00028X0.48972*%
%ADD519R,0.00028X0.48916*%
%ADD520R,0.00028X0.48860*%
%ADD521R,0.00028X0.48804*%
%ADD522R,0.00028X0.48748*%
%ADD523R,0.00028X0.48692*%
%ADD524R,0.00028X0.48608*%
%ADD525R,0.00028X0.48524*%
%ADD526R,0.00028X0.48468*%
%ADD527R,0.00028X0.48356*%
%ADD528R,0.00028X0.48244*%
%ADD529R,0.00028X0.48104*%
%ADD530R,0.00028X0.47908*%
%ADD531C,0.00400*%
%ADD532C,0.00591*%
%ADD533C,0.00800*%
D10*
X0124350Y0022937D02*
X0124350Y0024353D01*
X0124352Y0024427D01*
X0124358Y0024501D01*
X0124367Y0024575D01*
X0124381Y0024648D01*
X0124398Y0024720D01*
X0124419Y0024791D01*
X0124444Y0024861D01*
X0124473Y0024929D01*
X0124504Y0024996D01*
X0124540Y0025062D01*
X0124579Y0025125D01*
X0124621Y0025186D01*
X0124666Y0025245D01*
X0124714Y0025301D01*
X0124765Y0025355D01*
X0124819Y0025406D01*
X0124875Y0025454D01*
X0124934Y0025499D01*
X0124995Y0025541D01*
X0125059Y0025580D01*
X0125124Y0025616D01*
X0125191Y0025647D01*
X0125259Y0025676D01*
X0125329Y0025701D01*
X0125400Y0025722D01*
X0125472Y0025739D01*
X0125545Y0025753D01*
X0125619Y0025762D01*
X0125693Y0025768D01*
X0125767Y0025770D01*
X0128033Y0025770D01*
X0128107Y0025768D01*
X0128181Y0025762D01*
X0128255Y0025753D01*
X0128328Y0025739D01*
X0128400Y0025722D01*
X0128471Y0025701D01*
X0128541Y0025676D01*
X0128609Y0025647D01*
X0128676Y0025616D01*
X0128742Y0025580D01*
X0128805Y0025541D01*
X0128866Y0025499D01*
X0128925Y0025454D01*
X0128981Y0025406D01*
X0129035Y0025355D01*
X0129086Y0025301D01*
X0129134Y0025245D01*
X0129179Y0025186D01*
X0129221Y0025125D01*
X0129260Y0025062D01*
X0129296Y0024996D01*
X0129327Y0024929D01*
X0129356Y0024861D01*
X0129381Y0024791D01*
X0129402Y0024720D01*
X0129419Y0024648D01*
X0129433Y0024575D01*
X0129442Y0024501D01*
X0129448Y0024427D01*
X0129450Y0024353D01*
X0129450Y0022937D01*
X0124350Y0022937D01*
X0124350Y0028137D02*
X0124350Y0029270D01*
X0124350Y0028703D02*
X0129450Y0028703D01*
X0129450Y0028137D02*
X0129450Y0029270D01*
X0127325Y0031997D02*
X0126475Y0033555D01*
X0124350Y0032988D02*
X0124352Y0032894D01*
X0124357Y0032799D01*
X0124367Y0032705D01*
X0124380Y0032612D01*
X0124396Y0032519D01*
X0124417Y0032426D01*
X0124441Y0032335D01*
X0124468Y0032244D01*
X0124500Y0032155D01*
X0124534Y0032067D01*
X0124572Y0031981D01*
X0124614Y0031896D01*
X0124658Y0031813D01*
X0124706Y0031731D01*
X0124758Y0031652D01*
X0124812Y0031574D01*
X0124869Y0031499D01*
X0124929Y0031426D01*
X0124993Y0031356D01*
X0125058Y0031288D01*
X0126475Y0033555D02*
X0126439Y0033612D01*
X0126401Y0033666D01*
X0126359Y0033717D01*
X0126315Y0033767D01*
X0126267Y0033813D01*
X0126218Y0033857D01*
X0126165Y0033898D01*
X0126111Y0033936D01*
X0126054Y0033970D01*
X0125995Y0034002D01*
X0125935Y0034029D01*
X0125873Y0034054D01*
X0125810Y0034074D01*
X0125746Y0034091D01*
X0125681Y0034105D01*
X0125615Y0034114D01*
X0125549Y0034120D01*
X0125483Y0034122D01*
X0125483Y0034121D02*
X0125417Y0034119D01*
X0125351Y0034113D01*
X0125286Y0034104D01*
X0125222Y0034090D01*
X0125158Y0034073D01*
X0125095Y0034053D01*
X0125034Y0034028D01*
X0124975Y0034000D01*
X0124917Y0033969D01*
X0124860Y0033935D01*
X0124806Y0033897D01*
X0124755Y0033856D01*
X0124705Y0033812D01*
X0124659Y0033766D01*
X0124615Y0033716D01*
X0124574Y0033665D01*
X0124536Y0033611D01*
X0124502Y0033555D01*
X0124471Y0033496D01*
X0124443Y0033437D01*
X0124418Y0033376D01*
X0124398Y0033313D01*
X0124381Y0033249D01*
X0124367Y0033185D01*
X0124358Y0033120D01*
X0124352Y0033054D01*
X0124350Y0032988D01*
X0129025Y0033838D02*
X0129078Y0033764D01*
X0129128Y0033688D01*
X0129175Y0033609D01*
X0129218Y0033529D01*
X0129257Y0033447D01*
X0129294Y0033363D01*
X0129326Y0033278D01*
X0129355Y0033192D01*
X0129380Y0033104D01*
X0129401Y0033015D01*
X0129419Y0032926D01*
X0129432Y0032836D01*
X0129442Y0032745D01*
X0129448Y0032654D01*
X0129450Y0032563D01*
X0129448Y0032497D01*
X0129442Y0032431D01*
X0129433Y0032366D01*
X0129419Y0032302D01*
X0129402Y0032238D01*
X0129382Y0032175D01*
X0129357Y0032114D01*
X0129329Y0032055D01*
X0129298Y0031997D01*
X0129264Y0031940D01*
X0129226Y0031886D01*
X0129185Y0031835D01*
X0129141Y0031785D01*
X0129095Y0031739D01*
X0129045Y0031695D01*
X0128994Y0031654D01*
X0128940Y0031616D01*
X0128884Y0031582D01*
X0128825Y0031551D01*
X0128766Y0031523D01*
X0128705Y0031498D01*
X0128642Y0031478D01*
X0128578Y0031461D01*
X0128514Y0031447D01*
X0128449Y0031438D01*
X0128383Y0031432D01*
X0128317Y0031430D01*
X0128251Y0031432D01*
X0128185Y0031438D01*
X0128119Y0031447D01*
X0128054Y0031461D01*
X0127990Y0031478D01*
X0127927Y0031498D01*
X0127865Y0031523D01*
X0127805Y0031550D01*
X0127746Y0031582D01*
X0127689Y0031616D01*
X0127635Y0031654D01*
X0127582Y0031695D01*
X0127533Y0031739D01*
X0127485Y0031785D01*
X0127441Y0031835D01*
X0127399Y0031886D01*
X0127361Y0031940D01*
X0127325Y0031997D01*
X0126617Y0036605D02*
X0126617Y0038022D01*
X0126616Y0038022D02*
X0126618Y0038096D01*
X0126624Y0038170D01*
X0126633Y0038244D01*
X0126647Y0038317D01*
X0126664Y0038389D01*
X0126685Y0038460D01*
X0126710Y0038530D01*
X0126739Y0038598D01*
X0126770Y0038665D01*
X0126806Y0038731D01*
X0126845Y0038794D01*
X0126887Y0038855D01*
X0126932Y0038914D01*
X0126980Y0038970D01*
X0127031Y0039024D01*
X0127085Y0039075D01*
X0127141Y0039123D01*
X0127200Y0039168D01*
X0127261Y0039210D01*
X0127325Y0039249D01*
X0127390Y0039285D01*
X0127457Y0039316D01*
X0127525Y0039345D01*
X0127595Y0039370D01*
X0127666Y0039391D01*
X0127738Y0039408D01*
X0127811Y0039422D01*
X0127885Y0039431D01*
X0127959Y0039437D01*
X0128033Y0039439D01*
X0128107Y0039437D01*
X0128181Y0039431D01*
X0128255Y0039422D01*
X0128328Y0039408D01*
X0128400Y0039391D01*
X0128471Y0039370D01*
X0128541Y0039345D01*
X0128609Y0039316D01*
X0128676Y0039285D01*
X0128742Y0039249D01*
X0128805Y0039210D01*
X0128866Y0039168D01*
X0128925Y0039123D01*
X0128981Y0039075D01*
X0129035Y0039024D01*
X0129086Y0038970D01*
X0129134Y0038914D01*
X0129179Y0038855D01*
X0129221Y0038794D01*
X0129260Y0038731D01*
X0129296Y0038665D01*
X0129327Y0038598D01*
X0129356Y0038530D01*
X0129381Y0038460D01*
X0129402Y0038389D01*
X0129419Y0038317D01*
X0129433Y0038244D01*
X0129442Y0038170D01*
X0129448Y0038096D01*
X0129450Y0038022D01*
X0129450Y0036605D01*
X0124350Y0036605D01*
X0124350Y0041741D02*
X0124350Y0044008D01*
X0124350Y0045795D02*
X0129450Y0047495D01*
X0124350Y0049195D01*
X0125625Y0048770D02*
X0125625Y0046220D01*
X0124350Y0041741D02*
X0129450Y0041741D01*
X0129450Y0051015D02*
X0127042Y0052715D01*
X0124350Y0052715D01*
X0127042Y0052715D02*
X0129450Y0054415D01*
X0127325Y0059837D02*
X0126475Y0061395D01*
X0124350Y0060828D02*
X0124352Y0060734D01*
X0124357Y0060639D01*
X0124367Y0060545D01*
X0124380Y0060452D01*
X0124396Y0060359D01*
X0124417Y0060266D01*
X0124441Y0060175D01*
X0124468Y0060084D01*
X0124500Y0059995D01*
X0124534Y0059907D01*
X0124572Y0059821D01*
X0124614Y0059736D01*
X0124658Y0059653D01*
X0124706Y0059571D01*
X0124758Y0059492D01*
X0124812Y0059414D01*
X0124869Y0059339D01*
X0124929Y0059266D01*
X0124993Y0059196D01*
X0125058Y0059128D01*
X0126475Y0061395D02*
X0126439Y0061452D01*
X0126401Y0061506D01*
X0126359Y0061557D01*
X0126315Y0061607D01*
X0126267Y0061653D01*
X0126218Y0061697D01*
X0126165Y0061738D01*
X0126111Y0061776D01*
X0126054Y0061810D01*
X0125995Y0061842D01*
X0125935Y0061869D01*
X0125873Y0061894D01*
X0125810Y0061914D01*
X0125746Y0061931D01*
X0125681Y0061945D01*
X0125615Y0061954D01*
X0125549Y0061960D01*
X0125483Y0061962D01*
X0125483Y0061961D02*
X0125417Y0061959D01*
X0125351Y0061953D01*
X0125286Y0061944D01*
X0125222Y0061930D01*
X0125158Y0061913D01*
X0125095Y0061893D01*
X0125034Y0061868D01*
X0124975Y0061840D01*
X0124917Y0061809D01*
X0124860Y0061775D01*
X0124806Y0061737D01*
X0124755Y0061696D01*
X0124705Y0061652D01*
X0124659Y0061606D01*
X0124615Y0061556D01*
X0124574Y0061505D01*
X0124536Y0061451D01*
X0124502Y0061395D01*
X0124471Y0061336D01*
X0124443Y0061277D01*
X0124418Y0061216D01*
X0124398Y0061153D01*
X0124381Y0061089D01*
X0124367Y0061025D01*
X0124358Y0060960D01*
X0124352Y0060894D01*
X0124350Y0060828D01*
X0129025Y0061678D02*
X0129078Y0061604D01*
X0129128Y0061528D01*
X0129175Y0061449D01*
X0129218Y0061369D01*
X0129257Y0061287D01*
X0129294Y0061203D01*
X0129326Y0061118D01*
X0129355Y0061032D01*
X0129380Y0060944D01*
X0129401Y0060855D01*
X0129419Y0060766D01*
X0129432Y0060676D01*
X0129442Y0060585D01*
X0129448Y0060494D01*
X0129450Y0060403D01*
X0129448Y0060337D01*
X0129442Y0060271D01*
X0129433Y0060206D01*
X0129419Y0060142D01*
X0129402Y0060078D01*
X0129382Y0060015D01*
X0129357Y0059954D01*
X0129329Y0059895D01*
X0129298Y0059837D01*
X0129264Y0059780D01*
X0129226Y0059726D01*
X0129185Y0059675D01*
X0129141Y0059625D01*
X0129095Y0059579D01*
X0129045Y0059535D01*
X0128994Y0059494D01*
X0128940Y0059456D01*
X0128884Y0059422D01*
X0128825Y0059391D01*
X0128766Y0059363D01*
X0128705Y0059338D01*
X0128642Y0059318D01*
X0128578Y0059301D01*
X0128514Y0059287D01*
X0128449Y0059278D01*
X0128383Y0059272D01*
X0128317Y0059270D01*
X0128251Y0059272D01*
X0128185Y0059278D01*
X0128119Y0059287D01*
X0128054Y0059301D01*
X0127990Y0059318D01*
X0127927Y0059338D01*
X0127865Y0059363D01*
X0127805Y0059390D01*
X0127746Y0059422D01*
X0127689Y0059456D01*
X0127635Y0059494D01*
X0127582Y0059535D01*
X0127533Y0059579D01*
X0127485Y0059625D01*
X0127441Y0059675D01*
X0127399Y0059726D01*
X0127361Y0059780D01*
X0127325Y0059837D01*
X0127183Y0064348D02*
X0127183Y0067182D01*
X0129450Y0067182D02*
X0124350Y0067182D01*
X0124350Y0069548D02*
X0124350Y0070682D01*
X0124350Y0070115D02*
X0129450Y0070115D01*
X0129450Y0069548D02*
X0129450Y0070682D01*
X0129450Y0073061D02*
X0129450Y0075328D01*
X0127183Y0074761D02*
X0127183Y0073061D01*
X0129450Y0073061D02*
X0124350Y0073061D01*
X0124350Y0075328D01*
X0124350Y0077585D02*
X0124350Y0079852D01*
X0124350Y0077585D02*
X0129450Y0077585D01*
X0129450Y0082096D02*
X0124350Y0082096D01*
X0124350Y0083513D01*
X0124352Y0083587D01*
X0124358Y0083661D01*
X0124367Y0083735D01*
X0124381Y0083808D01*
X0124398Y0083880D01*
X0124419Y0083951D01*
X0124444Y0084021D01*
X0124473Y0084089D01*
X0124504Y0084156D01*
X0124540Y0084222D01*
X0124579Y0084285D01*
X0124621Y0084346D01*
X0124666Y0084405D01*
X0124714Y0084461D01*
X0124765Y0084515D01*
X0124819Y0084566D01*
X0124875Y0084614D01*
X0124934Y0084659D01*
X0124995Y0084701D01*
X0125059Y0084740D01*
X0125124Y0084776D01*
X0125191Y0084807D01*
X0125259Y0084836D01*
X0125329Y0084861D01*
X0125400Y0084882D01*
X0125472Y0084899D01*
X0125545Y0084913D01*
X0125619Y0084922D01*
X0125693Y0084928D01*
X0125767Y0084930D01*
X0128033Y0084930D01*
X0128107Y0084928D01*
X0128181Y0084922D01*
X0128255Y0084913D01*
X0128328Y0084899D01*
X0128400Y0084882D01*
X0128471Y0084861D01*
X0128541Y0084836D01*
X0128609Y0084807D01*
X0128676Y0084776D01*
X0128742Y0084740D01*
X0128805Y0084701D01*
X0128866Y0084659D01*
X0128925Y0084614D01*
X0128981Y0084566D01*
X0129035Y0084515D01*
X0129086Y0084461D01*
X0129134Y0084405D01*
X0129179Y0084346D01*
X0129221Y0084285D01*
X0129260Y0084222D01*
X0129296Y0084156D01*
X0129327Y0084089D01*
X0129356Y0084021D01*
X0129381Y0083951D01*
X0129402Y0083880D01*
X0129419Y0083808D01*
X0129433Y0083735D01*
X0129442Y0083661D01*
X0129448Y0083587D01*
X0129450Y0083513D01*
X0129450Y0082096D01*
X0129450Y0064348D02*
X0124350Y0064348D01*
D11*
X0110008Y0056217D03*
D12*
X0110036Y0031955D03*
D13*
X0117232Y0035007D03*
X0110036Y0040215D03*
X0114376Y0042539D03*
X0117400Y0045983D03*
D14*
X0110036Y0056357D03*
D15*
X0110064Y0032403D03*
D16*
X0110064Y0056441D03*
D17*
X0110092Y0032403D03*
D18*
X0110092Y0056511D03*
D19*
X0110120Y0032403D03*
D20*
X0110120Y0056553D03*
D21*
X0110148Y0032389D03*
D22*
X0110148Y0056609D03*
D23*
X0110176Y0032375D03*
D24*
X0110176Y0056651D03*
D25*
X0110204Y0032375D03*
D26*
X0119528Y0045787D03*
X0110204Y0056707D03*
D27*
X0110232Y0032347D03*
D28*
X0110232Y0056735D03*
D29*
X0110260Y0032333D03*
D30*
X0110260Y0056777D03*
D31*
X0110288Y0032319D03*
D32*
X0110288Y0056805D03*
D33*
X0110316Y0032319D03*
D34*
X0110316Y0056847D03*
D35*
X0110344Y0032305D03*
D36*
X0110344Y0056875D03*
D37*
X0110372Y0032291D03*
D38*
X0110372Y0056903D03*
D39*
X0110400Y0032277D03*
D40*
X0110400Y0056931D03*
D41*
X0110428Y0032277D03*
D42*
X0110428Y0056973D03*
D43*
X0110456Y0032263D03*
D44*
X0110456Y0056987D03*
X0110484Y0057015D03*
D45*
X0110484Y0032263D03*
D46*
X0110512Y0032235D03*
D47*
X0110512Y0057043D03*
D48*
X0110540Y0032235D03*
D49*
X0110540Y0057057D03*
D50*
X0110568Y0032235D03*
D51*
X0110568Y0057099D03*
D52*
X0110596Y0032207D03*
D53*
X0110596Y0057113D03*
X0110624Y0057141D03*
D54*
X0110624Y0032207D03*
D55*
X0110652Y0032193D03*
D56*
X0110652Y0057155D03*
D57*
X0110680Y0032193D03*
D58*
X0110680Y0057183D03*
D59*
X0110708Y0032193D03*
D60*
X0110708Y0057197D03*
X0110736Y0057225D03*
D61*
X0110736Y0032179D03*
D62*
X0110764Y0032165D03*
D63*
X0110764Y0057253D03*
D64*
X0110792Y0032165D03*
D65*
X0110792Y0057267D03*
D66*
X0110820Y0032151D03*
D67*
X0110820Y0057281D03*
D68*
X0110848Y0032151D03*
D69*
X0110848Y0057295D03*
D70*
X0110876Y0032137D03*
D71*
X0110876Y0057309D03*
X0110904Y0057337D03*
D72*
X0110904Y0032137D03*
D73*
X0110932Y0032123D03*
D74*
X0110932Y0057351D03*
X0110960Y0057379D03*
D75*
X0118240Y0036869D03*
X0110960Y0032109D03*
D76*
X0110988Y0032109D03*
X0111016Y0032109D03*
D77*
X0110988Y0057393D03*
D78*
X0111016Y0057407D03*
X0111072Y0057435D03*
X0111100Y0057463D03*
D79*
X0111044Y0032109D03*
D80*
X0111044Y0057421D03*
D81*
X0111072Y0032095D03*
D82*
X0111100Y0032081D03*
D83*
X0111128Y0032095D03*
D84*
X0111128Y0057477D03*
X0111156Y0057477D03*
X0111184Y0057505D03*
D85*
X0111156Y0032081D03*
D86*
X0111184Y0032067D03*
D87*
X0111212Y0032067D03*
D88*
X0111212Y0057519D03*
D89*
X0111240Y0032067D03*
D90*
X0111240Y0057519D03*
X0111268Y0057547D03*
X0111296Y0057547D03*
D91*
X0111268Y0032053D03*
D92*
X0111296Y0032067D03*
D93*
X0111324Y0032053D03*
D94*
X0111324Y0051429D03*
D95*
X0111324Y0063651D03*
D96*
X0111520Y0063693D03*
X0113872Y0067249D03*
X0113900Y0067249D03*
X0116952Y0067249D03*
X0111324Y0069797D03*
D97*
X0111352Y0032039D03*
D98*
X0111352Y0051317D03*
D99*
X0111352Y0063679D03*
X0119500Y0063707D03*
D100*
X0111352Y0069923D03*
D101*
X0111380Y0032053D03*
D102*
X0111380Y0051219D03*
D103*
X0111380Y0063679D03*
D104*
X0111380Y0070035D03*
X0111548Y0056679D03*
D105*
X0111408Y0032039D03*
D106*
X0111408Y0051163D03*
D107*
X0111408Y0063679D03*
D108*
X0113396Y0067249D03*
X0117456Y0067249D03*
X0111408Y0070105D03*
X0111576Y0056637D03*
X0111716Y0023961D03*
X0111772Y0023961D03*
D109*
X0111436Y0024031D03*
D110*
X0111436Y0028875D03*
X0111464Y0028875D03*
X0111492Y0028875D03*
X0111520Y0028875D03*
X0111576Y0028875D03*
X0111604Y0028875D03*
X0111632Y0028875D03*
X0111660Y0028875D03*
X0111688Y0028875D03*
X0111716Y0028875D03*
X0111772Y0028875D03*
X0111800Y0028875D03*
X0111828Y0028875D03*
X0111856Y0028875D03*
X0111884Y0028875D03*
X0111940Y0028875D03*
X0111968Y0028875D03*
X0111996Y0028875D03*
X0112024Y0028875D03*
X0112052Y0028875D03*
X0112108Y0028875D03*
X0112136Y0028875D03*
X0112164Y0028875D03*
X0112192Y0028875D03*
X0112220Y0028875D03*
X0112276Y0028875D03*
X0112304Y0028875D03*
X0112332Y0028875D03*
X0112360Y0028875D03*
X0112388Y0028875D03*
X0112416Y0028875D03*
X0112472Y0028875D03*
X0112500Y0028875D03*
X0112528Y0028875D03*
X0112556Y0028875D03*
X0112584Y0028875D03*
X0112640Y0028875D03*
X0112668Y0028875D03*
X0112696Y0028875D03*
X0112724Y0028875D03*
X0112752Y0028875D03*
X0112808Y0028875D03*
X0112836Y0028875D03*
X0112864Y0028875D03*
X0112892Y0028875D03*
X0112920Y0028875D03*
X0112976Y0028875D03*
X0113004Y0028875D03*
X0113032Y0028875D03*
X0113060Y0028875D03*
X0113088Y0028875D03*
X0113116Y0028875D03*
X0113172Y0028875D03*
X0113200Y0028875D03*
X0113228Y0028875D03*
X0113256Y0028875D03*
X0113284Y0028875D03*
X0113340Y0028875D03*
X0113368Y0028875D03*
X0113396Y0028875D03*
X0113424Y0028875D03*
X0113452Y0028875D03*
X0113508Y0028875D03*
X0113536Y0028875D03*
X0113564Y0028875D03*
X0113592Y0028875D03*
X0113620Y0028875D03*
X0113676Y0028875D03*
X0113704Y0028875D03*
X0113732Y0028875D03*
X0113760Y0028875D03*
X0113788Y0028875D03*
X0113816Y0028875D03*
X0113872Y0028875D03*
X0113900Y0028875D03*
X0113928Y0028875D03*
X0113956Y0028875D03*
X0113984Y0028875D03*
X0114040Y0028875D03*
X0114068Y0028875D03*
X0114096Y0028875D03*
X0114124Y0028875D03*
X0114152Y0028875D03*
X0114208Y0028875D03*
X0114236Y0028875D03*
X0114264Y0028875D03*
X0114292Y0028875D03*
X0114320Y0028875D03*
X0114376Y0028875D03*
X0114404Y0028875D03*
X0114432Y0028875D03*
X0114460Y0028875D03*
X0114488Y0028875D03*
X0114516Y0028875D03*
X0114572Y0028875D03*
X0114600Y0028875D03*
X0114628Y0028875D03*
X0114656Y0028875D03*
X0114684Y0028875D03*
X0114740Y0028875D03*
X0114768Y0028875D03*
X0114796Y0028875D03*
X0114824Y0028875D03*
X0114852Y0028875D03*
X0114908Y0028875D03*
X0114936Y0028875D03*
X0114964Y0028875D03*
X0114992Y0028875D03*
X0115020Y0028875D03*
X0115076Y0028875D03*
X0115104Y0028875D03*
X0115132Y0028875D03*
X0115160Y0028875D03*
X0115188Y0028875D03*
X0115216Y0028875D03*
X0115272Y0028875D03*
X0115300Y0028875D03*
X0115328Y0028875D03*
X0115356Y0028875D03*
X0115384Y0028875D03*
X0115440Y0028875D03*
X0115468Y0028875D03*
X0115496Y0028875D03*
X0115524Y0028875D03*
X0115552Y0028875D03*
X0115608Y0028875D03*
X0115636Y0028875D03*
X0115664Y0028875D03*
X0115692Y0028875D03*
X0115720Y0028875D03*
X0115776Y0028875D03*
X0115804Y0028875D03*
X0115832Y0028875D03*
X0115860Y0028875D03*
X0115888Y0028875D03*
X0115916Y0028875D03*
X0115972Y0028875D03*
X0116000Y0028875D03*
X0116028Y0028875D03*
X0116056Y0028875D03*
X0116084Y0028875D03*
X0116140Y0028875D03*
X0116168Y0028875D03*
X0116196Y0028875D03*
X0116224Y0028875D03*
X0116252Y0028875D03*
X0116308Y0028875D03*
X0116336Y0028875D03*
X0116364Y0028875D03*
X0116392Y0028875D03*
X0116420Y0028875D03*
X0116476Y0028875D03*
X0116504Y0028875D03*
X0116532Y0028875D03*
X0116560Y0028875D03*
X0116588Y0028875D03*
X0116616Y0028875D03*
X0116672Y0028875D03*
X0116700Y0028875D03*
X0116728Y0028875D03*
X0116756Y0028875D03*
X0116784Y0028875D03*
X0116840Y0028875D03*
X0116868Y0028875D03*
X0116896Y0028875D03*
X0116924Y0028875D03*
X0116952Y0028875D03*
X0117008Y0028875D03*
X0117036Y0028875D03*
X0117064Y0028875D03*
X0117092Y0028875D03*
X0117120Y0028875D03*
X0117176Y0028875D03*
X0117204Y0028875D03*
X0117232Y0028875D03*
X0117260Y0028875D03*
X0117288Y0028875D03*
X0117316Y0028875D03*
X0117372Y0028875D03*
X0117400Y0028875D03*
D111*
X0117400Y0032641D03*
X0117372Y0032641D03*
X0117316Y0032641D03*
X0117288Y0032641D03*
X0117260Y0032641D03*
X0117232Y0032641D03*
X0117204Y0032641D03*
X0117176Y0032641D03*
X0117120Y0032641D03*
X0117092Y0032641D03*
X0117064Y0032641D03*
X0117036Y0032641D03*
X0117008Y0032641D03*
X0116952Y0032641D03*
X0116924Y0032641D03*
X0116896Y0032641D03*
X0116868Y0032641D03*
X0116840Y0032641D03*
X0116784Y0032641D03*
X0116756Y0032641D03*
X0116728Y0032641D03*
X0116700Y0032641D03*
X0116672Y0032641D03*
X0116616Y0032641D03*
X0116588Y0032641D03*
X0116560Y0032641D03*
X0116532Y0032641D03*
X0116504Y0032641D03*
X0116476Y0032641D03*
X0116420Y0032641D03*
X0116392Y0032641D03*
X0116364Y0032641D03*
X0116336Y0032641D03*
X0116308Y0032641D03*
X0116252Y0032641D03*
X0116224Y0032641D03*
X0116196Y0032641D03*
X0116168Y0032641D03*
X0116140Y0032641D03*
X0116084Y0032641D03*
X0116056Y0032641D03*
X0116028Y0032641D03*
X0116000Y0032641D03*
X0115972Y0032641D03*
X0115916Y0032641D03*
X0115888Y0032641D03*
X0115860Y0032641D03*
X0115832Y0032641D03*
X0115804Y0032641D03*
X0115776Y0032641D03*
X0115720Y0032641D03*
X0115692Y0032641D03*
X0115664Y0032641D03*
X0115636Y0032641D03*
X0115608Y0032641D03*
X0115552Y0032641D03*
X0115524Y0032641D03*
X0115496Y0032641D03*
X0115468Y0032641D03*
X0115440Y0032641D03*
X0115384Y0032641D03*
X0115356Y0032641D03*
X0115328Y0032641D03*
X0115300Y0032641D03*
X0115272Y0032641D03*
X0115216Y0032641D03*
X0115188Y0032641D03*
X0115160Y0032641D03*
X0115132Y0032641D03*
X0115104Y0032641D03*
X0115076Y0032641D03*
X0115020Y0032641D03*
X0114992Y0032641D03*
X0114964Y0032641D03*
X0114936Y0032641D03*
X0114908Y0032641D03*
X0114852Y0032641D03*
X0114824Y0032641D03*
X0114796Y0032641D03*
X0114768Y0032641D03*
X0114740Y0032641D03*
X0114684Y0032641D03*
X0114656Y0032641D03*
X0114628Y0032641D03*
X0114600Y0032641D03*
X0114572Y0032641D03*
X0114516Y0032641D03*
X0114488Y0032641D03*
X0114460Y0032641D03*
X0114432Y0032641D03*
X0114404Y0032641D03*
X0114376Y0032641D03*
X0114320Y0032641D03*
X0114292Y0032641D03*
X0114264Y0032641D03*
X0114236Y0032641D03*
X0114208Y0032641D03*
X0114152Y0032641D03*
X0114124Y0032641D03*
X0114096Y0032641D03*
X0114068Y0032641D03*
X0114040Y0032641D03*
X0113984Y0032641D03*
X0113956Y0032641D03*
X0113928Y0032641D03*
X0113900Y0032641D03*
X0113872Y0032641D03*
X0113816Y0032641D03*
X0113788Y0032641D03*
X0113760Y0032641D03*
X0113732Y0032641D03*
X0113704Y0032641D03*
X0113676Y0032641D03*
X0113620Y0032641D03*
X0113592Y0032641D03*
X0113564Y0032641D03*
X0113536Y0032641D03*
X0113508Y0032641D03*
X0113452Y0032641D03*
X0113424Y0032641D03*
X0113396Y0032641D03*
X0113368Y0032641D03*
X0113340Y0032641D03*
X0113284Y0032641D03*
X0113256Y0032641D03*
X0113228Y0032641D03*
X0113200Y0032641D03*
X0113172Y0032641D03*
X0113116Y0032641D03*
X0113088Y0032641D03*
X0113060Y0032641D03*
X0113032Y0032641D03*
X0113004Y0032641D03*
X0112976Y0032641D03*
X0112920Y0032641D03*
X0112892Y0032641D03*
X0112864Y0032641D03*
X0112836Y0032641D03*
X0112808Y0032641D03*
X0112752Y0032641D03*
X0112724Y0032641D03*
X0112696Y0032641D03*
X0112668Y0032641D03*
X0112640Y0032641D03*
X0112584Y0032641D03*
X0112556Y0032641D03*
X0112528Y0032641D03*
X0112500Y0032641D03*
X0112472Y0032641D03*
X0112416Y0032641D03*
X0112388Y0032641D03*
X0112360Y0032641D03*
X0112332Y0032641D03*
X0112304Y0032641D03*
X0112276Y0032641D03*
X0112220Y0032641D03*
X0112192Y0032641D03*
X0112164Y0032641D03*
X0112136Y0032641D03*
X0112108Y0032641D03*
X0112052Y0032641D03*
X0112024Y0032641D03*
X0111996Y0032641D03*
X0111968Y0032641D03*
X0111940Y0032641D03*
X0111884Y0032641D03*
X0111856Y0032641D03*
X0111828Y0032641D03*
X0111800Y0032641D03*
X0111772Y0032641D03*
X0111716Y0032641D03*
X0111688Y0032641D03*
X0111660Y0032641D03*
X0111632Y0032641D03*
X0111604Y0032641D03*
X0111576Y0032641D03*
X0111520Y0032641D03*
X0111492Y0032641D03*
X0111464Y0032641D03*
X0111436Y0032641D03*
X0117232Y0038773D03*
X0116392Y0055545D03*
X0116364Y0055545D03*
X0116336Y0055545D03*
X0116308Y0055545D03*
X0116252Y0055545D03*
X0114628Y0055545D03*
X0114600Y0055545D03*
X0114572Y0055545D03*
X0114516Y0055545D03*
X0114488Y0055545D03*
X0114460Y0055545D03*
D112*
X0112304Y0056077D03*
X0118492Y0056077D03*
X0111968Y0063609D03*
X0118016Y0067249D03*
X0114992Y0036113D03*
X0114964Y0036113D03*
X0114936Y0036113D03*
X0114908Y0036113D03*
X0114852Y0036113D03*
X0114824Y0036113D03*
X0114796Y0036113D03*
X0114768Y0036113D03*
X0114740Y0036113D03*
X0114684Y0036113D03*
X0114656Y0036113D03*
X0114628Y0036113D03*
X0114600Y0036113D03*
X0114572Y0036113D03*
X0114516Y0036113D03*
X0114488Y0036113D03*
X0114460Y0036113D03*
X0114432Y0036113D03*
X0114404Y0036113D03*
X0114376Y0036113D03*
X0114320Y0036113D03*
X0114292Y0036113D03*
X0114264Y0036113D03*
X0114236Y0036113D03*
X0114208Y0036113D03*
X0114152Y0036113D03*
X0114124Y0036113D03*
X0114096Y0036113D03*
X0114068Y0036113D03*
X0114040Y0036113D03*
X0113984Y0036113D03*
X0113956Y0036113D03*
X0113928Y0036113D03*
X0113900Y0036113D03*
X0113872Y0036113D03*
X0113816Y0036113D03*
X0113788Y0036113D03*
X0113760Y0036113D03*
X0113732Y0036113D03*
X0113704Y0036113D03*
X0113676Y0036113D03*
X0113620Y0036113D03*
X0113592Y0036113D03*
X0113564Y0036113D03*
X0113536Y0036113D03*
X0113508Y0036113D03*
X0113452Y0036113D03*
X0113424Y0036113D03*
X0113396Y0036113D03*
X0113368Y0036113D03*
X0113340Y0036113D03*
X0113284Y0036113D03*
X0113256Y0036113D03*
X0113228Y0036113D03*
X0113200Y0036113D03*
X0113172Y0036113D03*
X0113116Y0036113D03*
X0113088Y0036113D03*
X0113060Y0036113D03*
X0113032Y0036113D03*
X0113004Y0036113D03*
X0112976Y0036113D03*
X0112920Y0036113D03*
X0112892Y0036113D03*
X0112864Y0036113D03*
X0112836Y0036113D03*
X0112808Y0036113D03*
X0112752Y0036113D03*
X0112724Y0036113D03*
X0112696Y0036113D03*
X0112668Y0036113D03*
X0112640Y0036113D03*
X0112584Y0036113D03*
X0112556Y0036113D03*
X0112528Y0036113D03*
X0112500Y0036113D03*
X0112472Y0036113D03*
X0112416Y0036113D03*
X0112388Y0036113D03*
X0112360Y0036113D03*
X0112332Y0036113D03*
X0112304Y0036113D03*
X0112276Y0036113D03*
X0112220Y0036113D03*
X0112192Y0036113D03*
X0112164Y0036113D03*
X0112136Y0036113D03*
X0112108Y0036113D03*
X0112052Y0036113D03*
X0112024Y0036113D03*
X0111996Y0036113D03*
X0111968Y0036113D03*
X0111940Y0036113D03*
X0111884Y0036113D03*
X0111856Y0036113D03*
X0111828Y0036113D03*
X0111800Y0036113D03*
X0111772Y0036113D03*
X0111716Y0036113D03*
X0111688Y0036113D03*
X0111660Y0036113D03*
X0111632Y0036113D03*
X0111604Y0036113D03*
X0111576Y0036113D03*
X0111520Y0036113D03*
X0111492Y0036113D03*
X0111464Y0036113D03*
X0111436Y0036113D03*
D113*
X0111436Y0040327D03*
X0111632Y0040327D03*
X0111660Y0040327D03*
X0117372Y0042511D03*
X0111828Y0044919D03*
X0111800Y0044919D03*
X0111772Y0044919D03*
X0112864Y0060347D03*
X0111772Y0063707D03*
X0119220Y0070483D03*
D114*
X0117792Y0067249D03*
X0113060Y0067249D03*
X0119108Y0063693D03*
X0118940Y0056357D03*
X0111856Y0056357D03*
X0111464Y0044849D03*
X0111436Y0044849D03*
D115*
X0111436Y0050589D03*
X0111464Y0050589D03*
X0111492Y0050589D03*
X0111520Y0050589D03*
X0111576Y0050589D03*
X0111604Y0050589D03*
X0111632Y0050589D03*
X0111660Y0050589D03*
X0111688Y0050589D03*
X0111716Y0050589D03*
X0111772Y0050589D03*
X0111800Y0050589D03*
X0111828Y0050589D03*
X0111856Y0050589D03*
X0111884Y0050589D03*
X0111940Y0050589D03*
X0111968Y0050589D03*
X0111996Y0050589D03*
X0112024Y0050589D03*
X0112052Y0050589D03*
X0112108Y0050589D03*
X0112136Y0050589D03*
X0112164Y0050589D03*
X0112192Y0050589D03*
X0112220Y0050589D03*
X0112276Y0050589D03*
X0112304Y0050589D03*
X0112332Y0050589D03*
X0112360Y0050589D03*
X0112388Y0050589D03*
X0112416Y0050589D03*
X0112472Y0050589D03*
X0112500Y0050589D03*
X0112528Y0050589D03*
X0112556Y0050589D03*
X0112584Y0050589D03*
X0112640Y0050589D03*
X0112668Y0050589D03*
X0112696Y0050589D03*
X0112724Y0050589D03*
X0112752Y0050589D03*
X0112808Y0050589D03*
X0112836Y0050589D03*
X0112864Y0050589D03*
X0112892Y0050589D03*
X0112920Y0050589D03*
X0112976Y0050589D03*
X0113004Y0050589D03*
X0113032Y0050589D03*
X0113060Y0050589D03*
X0113088Y0050589D03*
X0113116Y0050589D03*
X0113172Y0050589D03*
X0113200Y0050589D03*
X0113228Y0050589D03*
X0113256Y0050589D03*
X0113284Y0050589D03*
X0113340Y0050589D03*
X0113368Y0050589D03*
X0113396Y0050589D03*
X0113424Y0050589D03*
X0113452Y0050589D03*
X0113508Y0050589D03*
X0113536Y0050589D03*
X0113564Y0050589D03*
X0113592Y0050589D03*
X0113620Y0050589D03*
X0113676Y0050589D03*
X0113704Y0050589D03*
X0113732Y0050589D03*
X0113760Y0050589D03*
X0113788Y0050589D03*
X0113816Y0050589D03*
X0113872Y0050589D03*
X0113900Y0050589D03*
X0113928Y0050589D03*
X0113956Y0050589D03*
X0113984Y0050589D03*
X0114040Y0050589D03*
X0114068Y0050589D03*
X0114096Y0050589D03*
X0114124Y0050589D03*
X0114152Y0050589D03*
X0114208Y0050589D03*
X0114236Y0050589D03*
X0114264Y0050589D03*
X0114292Y0050589D03*
X0114320Y0050589D03*
X0114376Y0050589D03*
X0114404Y0050589D03*
X0114432Y0050589D03*
X0113452Y0060977D03*
X0113396Y0061005D03*
X0113368Y0061033D03*
X0117204Y0060893D03*
X0117260Y0060921D03*
X0117288Y0060949D03*
X0117316Y0060949D03*
D116*
X0111436Y0056847D03*
D117*
X0111436Y0063693D03*
X0119416Y0063693D03*
D118*
X0111436Y0070175D03*
D119*
X0117540Y0067249D03*
X0111632Y0056581D03*
X0119416Y0051513D03*
X0111492Y0024017D03*
X0111464Y0024017D03*
D120*
X0111464Y0040341D03*
X0111492Y0040341D03*
X0111520Y0040341D03*
X0111576Y0040341D03*
X0111604Y0040341D03*
X0117400Y0042497D03*
X0111716Y0044905D03*
X0111940Y0056301D03*
X0118856Y0056301D03*
X0113004Y0067249D03*
X0111660Y0070553D03*
D121*
X0113676Y0067249D03*
X0113704Y0067249D03*
X0117176Y0067249D03*
X0119360Y0056805D03*
X0111464Y0056805D03*
D122*
X0111464Y0063693D03*
X0119388Y0063693D03*
D123*
X0117596Y0067249D03*
X0113256Y0067249D03*
X0111464Y0070245D03*
X0119136Y0056525D03*
D124*
X0117876Y0060291D03*
X0112892Y0060347D03*
X0111884Y0056343D03*
X0111520Y0044863D03*
X0111492Y0044863D03*
X0117428Y0042511D03*
X0119276Y0070399D03*
X0111604Y0070483D03*
D125*
X0111492Y0056763D03*
X0119332Y0056763D03*
D126*
X0111492Y0063707D03*
X0116672Y0067235D03*
D127*
X0119388Y0070203D03*
X0111492Y0070287D03*
X0112976Y0060375D03*
X0117792Y0060319D03*
X0111716Y0056483D03*
X0114516Y0051611D03*
D128*
X0111632Y0063707D03*
X0113340Y0067235D03*
X0111520Y0024003D03*
D129*
X0112388Y0023877D03*
X0112416Y0023877D03*
X0112472Y0023877D03*
X0112500Y0023877D03*
X0112528Y0023877D03*
X0112556Y0023877D03*
X0112584Y0023877D03*
X0112640Y0023877D03*
X0112668Y0023877D03*
X0112696Y0023877D03*
X0112724Y0023877D03*
X0112752Y0023877D03*
X0112808Y0023877D03*
X0112836Y0023877D03*
X0112864Y0023877D03*
X0112892Y0023877D03*
X0112920Y0023877D03*
X0112976Y0023877D03*
X0113004Y0023877D03*
X0113032Y0023877D03*
X0113060Y0023877D03*
X0113088Y0023877D03*
X0113116Y0023877D03*
X0113172Y0023877D03*
X0113200Y0023877D03*
X0113228Y0023877D03*
X0113256Y0023877D03*
X0113284Y0023877D03*
X0113340Y0023877D03*
X0113368Y0023877D03*
X0113396Y0023877D03*
X0113424Y0023877D03*
X0113452Y0023877D03*
X0113508Y0023877D03*
X0113536Y0023877D03*
X0113564Y0023877D03*
X0113592Y0023877D03*
X0113620Y0023877D03*
X0113676Y0023877D03*
X0113704Y0023877D03*
X0113732Y0023877D03*
X0113760Y0023877D03*
X0113788Y0023877D03*
X0113816Y0023877D03*
X0113872Y0023877D03*
X0113900Y0023877D03*
X0113928Y0023877D03*
X0113956Y0023877D03*
X0113984Y0023877D03*
X0114040Y0023877D03*
X0114068Y0023877D03*
X0114096Y0023877D03*
X0114124Y0023877D03*
X0114152Y0023877D03*
X0114208Y0023877D03*
X0114236Y0023877D03*
X0114264Y0023877D03*
X0114292Y0023877D03*
X0114320Y0023877D03*
X0114376Y0023877D03*
X0114404Y0023877D03*
X0114432Y0023877D03*
X0114460Y0023877D03*
X0114488Y0023877D03*
X0114516Y0023877D03*
X0114572Y0023877D03*
X0114600Y0023877D03*
X0114628Y0023877D03*
X0114656Y0023877D03*
X0114684Y0023877D03*
X0114740Y0023877D03*
X0114768Y0023877D03*
X0114796Y0023877D03*
X0114824Y0023877D03*
X0114852Y0023877D03*
X0114908Y0023877D03*
X0114936Y0023877D03*
X0114964Y0023877D03*
X0114992Y0023877D03*
X0115020Y0023877D03*
X0115076Y0023877D03*
X0115104Y0023877D03*
X0115132Y0023877D03*
X0115160Y0023877D03*
X0115188Y0023877D03*
X0115216Y0023877D03*
X0115272Y0023877D03*
X0115300Y0023877D03*
X0115328Y0023877D03*
X0115356Y0023877D03*
X0115384Y0023877D03*
X0115440Y0023877D03*
X0115468Y0023877D03*
X0115496Y0023877D03*
X0115524Y0023877D03*
X0115552Y0023877D03*
X0115608Y0023877D03*
X0115636Y0023877D03*
X0115664Y0023877D03*
X0115692Y0023877D03*
X0115720Y0023877D03*
X0115776Y0023877D03*
X0115804Y0023877D03*
X0115832Y0023877D03*
X0115860Y0023877D03*
X0115888Y0023877D03*
X0115916Y0023877D03*
X0115972Y0023877D03*
X0116000Y0023877D03*
X0116028Y0023877D03*
X0116056Y0023877D03*
X0116084Y0023877D03*
X0116140Y0023877D03*
X0116168Y0023877D03*
X0116196Y0023877D03*
X0116224Y0023877D03*
X0116252Y0023877D03*
X0116308Y0023877D03*
X0116336Y0023877D03*
X0116364Y0023877D03*
X0116392Y0023877D03*
X0116420Y0023877D03*
X0116476Y0023877D03*
X0116504Y0023877D03*
X0116532Y0023877D03*
X0116560Y0023877D03*
X0116588Y0023877D03*
X0116616Y0023877D03*
X0116672Y0023877D03*
X0116700Y0023877D03*
X0116728Y0023877D03*
X0116756Y0023877D03*
X0116784Y0023877D03*
X0116840Y0023877D03*
X0116868Y0023877D03*
X0116896Y0023877D03*
X0116924Y0023877D03*
X0116952Y0023877D03*
X0117008Y0023877D03*
X0117036Y0023877D03*
X0117064Y0023877D03*
X0117092Y0023877D03*
X0117120Y0023877D03*
X0117176Y0023877D03*
X0117204Y0023877D03*
X0117232Y0023877D03*
X0117260Y0023877D03*
X0117288Y0023877D03*
X0117316Y0023877D03*
X0117372Y0023877D03*
X0117400Y0023877D03*
X0117428Y0023877D03*
X0117456Y0023877D03*
X0117484Y0023877D03*
X0117540Y0023877D03*
X0117568Y0023877D03*
X0117596Y0023877D03*
X0117624Y0023877D03*
X0117652Y0023877D03*
X0117708Y0023877D03*
X0117736Y0023877D03*
X0117764Y0023877D03*
X0117792Y0023877D03*
X0117820Y0023877D03*
X0117876Y0023877D03*
X0117904Y0023877D03*
X0117932Y0023877D03*
X0117960Y0023877D03*
X0117988Y0023877D03*
X0118016Y0023877D03*
X0118072Y0023877D03*
X0118100Y0023877D03*
X0118128Y0023877D03*
X0118156Y0023877D03*
X0118184Y0023877D03*
X0119304Y0056721D03*
X0111520Y0056721D03*
X0111576Y0063693D03*
X0113536Y0067249D03*
X0117316Y0067249D03*
D130*
X0119360Y0070259D03*
X0111520Y0070343D03*
X0111688Y0063707D03*
X0119052Y0056455D03*
X0119388Y0051639D03*
D131*
X0111548Y0024003D03*
D132*
X0111548Y0028875D03*
X0111744Y0028875D03*
X0111912Y0028875D03*
X0112080Y0028875D03*
X0112248Y0028875D03*
X0112444Y0028875D03*
X0112612Y0028875D03*
X0112780Y0028875D03*
X0112948Y0028875D03*
X0113144Y0028875D03*
X0113312Y0028875D03*
X0113480Y0028875D03*
X0113648Y0028875D03*
X0113844Y0028875D03*
X0114012Y0028875D03*
X0114180Y0028875D03*
X0114348Y0028875D03*
X0114544Y0028875D03*
X0114712Y0028875D03*
X0114880Y0028875D03*
X0115048Y0028875D03*
X0115244Y0028875D03*
X0115412Y0028875D03*
X0115580Y0028875D03*
X0115748Y0028875D03*
X0115944Y0028875D03*
X0116112Y0028875D03*
X0116280Y0028875D03*
X0116448Y0028875D03*
X0116644Y0028875D03*
X0116812Y0028875D03*
X0116980Y0028875D03*
X0117148Y0028875D03*
X0117344Y0028875D03*
D133*
X0117344Y0032641D03*
X0117148Y0032641D03*
X0116980Y0032641D03*
X0116812Y0032641D03*
X0116644Y0032641D03*
X0116448Y0032641D03*
X0116280Y0032641D03*
X0116112Y0032641D03*
X0115944Y0032641D03*
X0115748Y0032641D03*
X0115580Y0032641D03*
X0115412Y0032641D03*
X0115244Y0032641D03*
X0115048Y0032641D03*
X0114880Y0032641D03*
X0114712Y0032641D03*
X0114544Y0032641D03*
X0114348Y0032641D03*
X0114180Y0032641D03*
X0114012Y0032641D03*
X0113844Y0032641D03*
X0113648Y0032641D03*
X0113480Y0032641D03*
X0113312Y0032641D03*
X0113144Y0032641D03*
X0112948Y0032641D03*
X0112780Y0032641D03*
X0112612Y0032641D03*
X0112444Y0032641D03*
X0112248Y0032641D03*
X0112080Y0032641D03*
X0111912Y0032641D03*
X0111744Y0032641D03*
X0111548Y0032641D03*
X0116280Y0036281D03*
X0115580Y0052549D03*
X0118380Y0052549D03*
X0116280Y0055545D03*
X0114544Y0055545D03*
X0112612Y0067249D03*
D134*
X0112612Y0036113D03*
X0112780Y0036113D03*
X0112948Y0036113D03*
X0113144Y0036113D03*
X0113312Y0036113D03*
X0113480Y0036113D03*
X0113648Y0036113D03*
X0113844Y0036113D03*
X0114012Y0036113D03*
X0114180Y0036113D03*
X0114348Y0036113D03*
X0114544Y0036113D03*
X0114712Y0036113D03*
X0114880Y0036113D03*
X0112444Y0036113D03*
X0112248Y0036113D03*
X0112080Y0036113D03*
X0111912Y0036113D03*
X0111744Y0036113D03*
X0111548Y0036113D03*
D135*
X0111548Y0040341D03*
X0111744Y0044905D03*
X0119080Y0063693D03*
X0117848Y0067249D03*
D136*
X0118912Y0056329D03*
X0111548Y0044877D03*
D137*
X0111548Y0050589D03*
X0111744Y0050589D03*
X0111912Y0050589D03*
X0112080Y0050589D03*
X0112248Y0050589D03*
X0112444Y0050589D03*
X0112612Y0050589D03*
X0112780Y0050589D03*
X0112948Y0050589D03*
X0113144Y0050589D03*
X0113312Y0050589D03*
X0113480Y0050589D03*
X0113648Y0050589D03*
X0113844Y0050589D03*
X0114012Y0050589D03*
X0114180Y0050589D03*
X0114348Y0050589D03*
X0113312Y0061061D03*
D138*
X0111548Y0063693D03*
X0117148Y0067249D03*
D139*
X0111548Y0070385D03*
D140*
X0113368Y0067249D03*
X0117484Y0067249D03*
X0119220Y0063693D03*
X0114488Y0051485D03*
X0111604Y0023989D03*
X0111576Y0023989D03*
D141*
X0111576Y0044877D03*
X0111604Y0044877D03*
X0113032Y0067249D03*
X0117820Y0067249D03*
X0111632Y0070525D03*
D142*
X0111576Y0070441D03*
X0113088Y0067249D03*
X0117764Y0067249D03*
X0119304Y0070357D03*
X0118968Y0056385D03*
X0111828Y0056385D03*
X0119360Y0051709D03*
X0117428Y0028889D03*
D143*
X0111604Y0056609D03*
D144*
X0111604Y0063707D03*
X0119472Y0069979D03*
X0111828Y0023947D03*
X0111800Y0023947D03*
D145*
X0111688Y0023975D03*
X0111660Y0023975D03*
X0111632Y0023975D03*
X0119220Y0056623D03*
D146*
X0118884Y0056315D03*
X0117904Y0060291D03*
X0119332Y0051779D03*
X0114572Y0051779D03*
X0111688Y0044891D03*
X0111660Y0044891D03*
X0111632Y0044891D03*
D147*
X0111660Y0056539D03*
X0111660Y0063707D03*
X0119192Y0063707D03*
X0119416Y0070147D03*
D148*
X0119192Y0070525D03*
X0111688Y0070581D03*
X0117932Y0060277D03*
X0118828Y0056273D03*
X0111968Y0056273D03*
X0111884Y0044933D03*
X0111856Y0044933D03*
X0111716Y0040313D03*
X0111688Y0040313D03*
D149*
X0111688Y0056511D03*
D150*
X0111716Y0063707D03*
D151*
X0111800Y0063707D03*
X0119052Y0063707D03*
X0111716Y0070623D03*
X0114600Y0051835D03*
X0111968Y0044947D03*
X0111940Y0044947D03*
X0117288Y0042511D03*
X0117316Y0042511D03*
X0111800Y0040299D03*
X0111772Y0040299D03*
D152*
X0111744Y0023961D03*
D153*
X0111744Y0040313D03*
X0117344Y0042497D03*
D154*
X0111744Y0056455D03*
D155*
X0111744Y0063707D03*
D156*
X0111744Y0070651D03*
X0112080Y0044975D03*
X0111912Y0040271D03*
D157*
X0111772Y0056427D03*
X0119024Y0056427D03*
D158*
X0117176Y0042497D03*
X0111996Y0040257D03*
X0111968Y0040257D03*
X0111772Y0070693D03*
D159*
X0113116Y0067249D03*
X0117736Y0067249D03*
X0111800Y0056413D03*
D160*
X0112108Y0056189D03*
X0118688Y0056189D03*
X0117456Y0049273D03*
X0117428Y0049273D03*
X0117400Y0049273D03*
X0117372Y0049273D03*
X0116560Y0049273D03*
X0116532Y0049273D03*
X0116504Y0049273D03*
X0112332Y0045017D03*
X0112304Y0045017D03*
X0117092Y0042497D03*
X0112136Y0040229D03*
X0112108Y0040229D03*
X0112920Y0067249D03*
X0117932Y0067249D03*
X0119108Y0070637D03*
X0111800Y0070721D03*
D161*
X0111996Y0044961D03*
X0112024Y0044961D03*
X0112052Y0044961D03*
X0117260Y0042497D03*
X0111856Y0040285D03*
X0111828Y0040285D03*
D162*
X0112220Y0045003D03*
X0112276Y0045003D03*
X0116588Y0049287D03*
X0116616Y0049287D03*
X0116672Y0049287D03*
X0116700Y0049287D03*
X0116728Y0049287D03*
X0116756Y0049287D03*
X0116784Y0049287D03*
X0117176Y0049287D03*
X0117204Y0049287D03*
X0117232Y0049287D03*
X0117260Y0049287D03*
X0117288Y0049287D03*
X0117316Y0049287D03*
X0119276Y0051891D03*
X0118716Y0056203D03*
X0119024Y0063707D03*
X0111828Y0063707D03*
D163*
X0117960Y0067249D03*
X0119052Y0070693D03*
X0111856Y0070777D03*
X0111828Y0070749D03*
X0118996Y0063693D03*
X0118632Y0056161D03*
X0114656Y0051933D03*
X0116336Y0049245D03*
X0116364Y0049245D03*
X0117540Y0049245D03*
X0117568Y0049245D03*
X0117596Y0049245D03*
X0112500Y0045045D03*
X0112472Y0045045D03*
X0117008Y0042497D03*
X0112276Y0040201D03*
D164*
X0111940Y0023933D03*
X0111884Y0023933D03*
X0111856Y0023933D03*
X0113424Y0067249D03*
X0113452Y0067249D03*
X0117400Y0067249D03*
X0117428Y0067249D03*
D165*
X0111856Y0063707D03*
X0112164Y0056147D03*
X0118604Y0056147D03*
X0117652Y0049231D03*
X0117624Y0049231D03*
X0116308Y0049231D03*
X0112556Y0045059D03*
X0112528Y0045059D03*
X0116952Y0042511D03*
X0112360Y0040187D03*
X0112332Y0040187D03*
X0112304Y0040187D03*
D166*
X0111940Y0040271D03*
X0111884Y0040271D03*
X0117204Y0042511D03*
X0117232Y0042511D03*
X0112108Y0044975D03*
X0112836Y0060319D03*
D167*
X0118016Y0060263D03*
X0111884Y0063679D03*
X0112220Y0056119D03*
X0114684Y0051975D03*
X0116168Y0049203D03*
X0116196Y0049203D03*
X0117736Y0049203D03*
X0112724Y0045087D03*
X0112696Y0045087D03*
X0112668Y0045087D03*
X0116896Y0042511D03*
X0116924Y0042511D03*
X0112472Y0040159D03*
X0118996Y0070763D03*
D168*
X0119024Y0070721D03*
X0112892Y0067249D03*
X0111884Y0070805D03*
X0112192Y0056133D03*
X0118576Y0056133D03*
X0117708Y0049217D03*
X0116252Y0049217D03*
X0116224Y0049217D03*
X0112640Y0045073D03*
X0112584Y0045073D03*
X0112416Y0040173D03*
X0112388Y0040173D03*
D169*
X0111912Y0023933D03*
X0119248Y0063693D03*
D170*
X0111912Y0044947D03*
D171*
X0111912Y0056315D03*
X0119248Y0070455D03*
D172*
X0111912Y0063651D03*
X0112780Y0060291D03*
X0118548Y0056119D03*
X0112444Y0040159D03*
D173*
X0112780Y0045101D03*
X0112248Y0056105D03*
X0111912Y0070833D03*
D174*
X0111940Y0070847D03*
X0111968Y0070875D03*
X0118940Y0070819D03*
X0111940Y0063623D03*
X0112276Y0056091D03*
X0118520Y0056091D03*
X0117820Y0049175D03*
X0116084Y0049175D03*
X0112864Y0045115D03*
X0112836Y0045115D03*
X0112808Y0045115D03*
X0116840Y0042511D03*
X0112584Y0040131D03*
D175*
X0112052Y0023919D03*
X0112024Y0023919D03*
X0111996Y0023919D03*
X0111968Y0023919D03*
X0119276Y0056679D03*
D176*
X0118800Y0056259D03*
X0111996Y0056259D03*
X0117876Y0067263D03*
D177*
X0111996Y0063595D03*
X0112332Y0056063D03*
X0118464Y0056063D03*
X0115188Y0036127D03*
X0115160Y0036127D03*
X0115132Y0036127D03*
X0115104Y0036127D03*
X0115076Y0036127D03*
X0115020Y0036127D03*
D178*
X0112752Y0040103D03*
X0112724Y0040103D03*
X0116728Y0042511D03*
X0116756Y0042511D03*
X0113004Y0045143D03*
X0112976Y0045143D03*
X0116000Y0049147D03*
X0116028Y0049147D03*
X0117876Y0049147D03*
X0118940Y0063707D03*
X0111996Y0070903D03*
D179*
X0117120Y0042511D03*
X0112052Y0040243D03*
X0112024Y0040243D03*
D180*
X0119304Y0051849D03*
X0118772Y0056245D03*
X0112024Y0056245D03*
X0112976Y0067249D03*
D181*
X0112024Y0063567D03*
X0112388Y0056035D03*
X0118408Y0056035D03*
X0119164Y0052059D03*
X0117932Y0049119D03*
X0113116Y0045171D03*
X0115328Y0036127D03*
X0115356Y0036127D03*
X0115384Y0036127D03*
X0115440Y0036127D03*
X0115468Y0036127D03*
X0115496Y0036127D03*
D182*
X0115300Y0036113D03*
X0115272Y0036113D03*
X0115216Y0036113D03*
X0114740Y0052045D03*
X0112360Y0056049D03*
X0112752Y0060277D03*
X0118436Y0056049D03*
X0112836Y0067249D03*
X0112024Y0070917D03*
X0112052Y0070945D03*
D183*
X0119136Y0070609D03*
X0117960Y0060277D03*
X0112052Y0056217D03*
X0114628Y0051877D03*
X0116840Y0049301D03*
X0116868Y0049301D03*
X0116896Y0049301D03*
X0116924Y0049301D03*
X0116952Y0049301D03*
X0117008Y0049301D03*
X0117036Y0049301D03*
X0117064Y0049301D03*
X0117092Y0049301D03*
X0117120Y0049301D03*
X0112192Y0044989D03*
X0112164Y0044989D03*
X0112136Y0044989D03*
D184*
X0113172Y0045185D03*
X0113200Y0045185D03*
X0113228Y0045185D03*
X0117960Y0049105D03*
X0118352Y0056021D03*
X0112416Y0056021D03*
X0112052Y0063553D03*
X0112808Y0067249D03*
X0118828Y0070917D03*
D185*
X0117344Y0067249D03*
X0113480Y0067249D03*
X0112080Y0023905D03*
D186*
X0112080Y0040243D03*
X0117148Y0042511D03*
D187*
X0112248Y0045003D03*
X0116644Y0049287D03*
X0116812Y0049287D03*
X0112080Y0056203D03*
D188*
X0118380Y0056021D03*
X0115944Y0049105D03*
X0118912Y0063693D03*
X0118044Y0067249D03*
X0112080Y0063525D03*
X0112080Y0070973D03*
D189*
X0117372Y0067249D03*
X0112164Y0023905D03*
X0112136Y0023905D03*
X0112108Y0023905D03*
D190*
X0115664Y0036141D03*
X0113088Y0040033D03*
X0113060Y0040033D03*
X0113340Y0045213D03*
X0113368Y0045213D03*
X0115888Y0049077D03*
X0118016Y0049077D03*
X0118296Y0055993D03*
X0112500Y0055993D03*
X0112472Y0055993D03*
X0112108Y0063497D03*
X0118884Y0063693D03*
X0112136Y0071001D03*
D191*
X0112108Y0070987D03*
X0118772Y0070959D03*
X0118800Y0070931D03*
X0118072Y0060235D03*
X0118324Y0056007D03*
X0119136Y0052087D03*
X0114768Y0052087D03*
X0115916Y0049091D03*
X0117988Y0049091D03*
X0113284Y0045199D03*
X0113256Y0045199D03*
X0116560Y0042511D03*
X0116588Y0042511D03*
X0116616Y0042511D03*
X0113032Y0040047D03*
X0113004Y0040047D03*
X0112976Y0040047D03*
X0115524Y0036127D03*
X0115552Y0036127D03*
X0115608Y0036127D03*
X0115636Y0036127D03*
D192*
X0112220Y0040215D03*
X0112192Y0040215D03*
X0112164Y0040215D03*
X0117036Y0042511D03*
X0117064Y0042511D03*
X0112416Y0045031D03*
X0112388Y0045031D03*
X0112360Y0045031D03*
X0116392Y0049259D03*
X0116420Y0049259D03*
X0116476Y0049259D03*
X0117484Y0049259D03*
X0118660Y0056175D03*
X0117988Y0060263D03*
X0112808Y0060319D03*
X0112136Y0056175D03*
D193*
X0112528Y0055979D03*
X0112724Y0060263D03*
X0112136Y0063483D03*
X0118856Y0063679D03*
X0118072Y0067263D03*
X0118268Y0055979D03*
X0119108Y0052115D03*
X0114796Y0052115D03*
X0115860Y0049063D03*
X0113452Y0045227D03*
X0113424Y0045227D03*
X0113396Y0045227D03*
X0116476Y0042511D03*
X0116504Y0042511D03*
X0116532Y0042511D03*
X0113172Y0040019D03*
X0113116Y0040019D03*
X0115692Y0036127D03*
D194*
X0115720Y0036141D03*
X0113228Y0040005D03*
X0113200Y0040005D03*
X0113508Y0045241D03*
X0113536Y0045241D03*
X0115832Y0049049D03*
X0118240Y0055965D03*
X0112556Y0055965D03*
X0112164Y0063469D03*
X0118828Y0063637D03*
X0118716Y0071001D03*
X0112192Y0071057D03*
X0112164Y0071029D03*
D195*
X0113508Y0067235D03*
X0112360Y0023891D03*
X0112332Y0023891D03*
X0112304Y0023891D03*
X0112276Y0023891D03*
X0112220Y0023891D03*
X0112192Y0023891D03*
X0118240Y0023863D03*
D196*
X0115776Y0036155D03*
X0113284Y0039991D03*
X0113256Y0039991D03*
X0116392Y0042511D03*
X0116420Y0042511D03*
X0113592Y0045255D03*
X0113564Y0045255D03*
X0118072Y0049035D03*
X0114824Y0052143D03*
X0112584Y0055951D03*
X0118100Y0060235D03*
X0118772Y0063595D03*
X0118800Y0063623D03*
X0112192Y0063455D03*
X0112220Y0071071D03*
X0118660Y0071043D03*
X0118688Y0071015D03*
D197*
X0118632Y0071057D03*
X0112220Y0063441D03*
X0118156Y0055937D03*
X0118184Y0055937D03*
X0118100Y0049021D03*
X0115804Y0049021D03*
X0113676Y0045269D03*
X0113620Y0045269D03*
X0113368Y0039977D03*
X0113340Y0039977D03*
D198*
X0112248Y0023891D03*
D199*
X0112248Y0040201D03*
X0112444Y0045045D03*
X0119248Y0051933D03*
D200*
X0112612Y0055937D03*
X0112248Y0063413D03*
X0112248Y0071085D03*
X0113648Y0045269D03*
D201*
X0113704Y0045283D03*
X0113732Y0045283D03*
X0113760Y0045283D03*
X0116336Y0042511D03*
X0116364Y0042511D03*
X0113452Y0039963D03*
X0113424Y0039963D03*
X0113396Y0039963D03*
X0115804Y0036155D03*
X0115832Y0036155D03*
X0115776Y0049007D03*
X0114852Y0052171D03*
X0119052Y0052171D03*
X0118128Y0055923D03*
X0112668Y0055923D03*
X0112640Y0055923D03*
X0112276Y0063399D03*
X0118100Y0067263D03*
X0118604Y0071071D03*
X0112276Y0071099D03*
D202*
X0112360Y0071155D03*
X0112304Y0063371D03*
X0118632Y0063483D03*
X0118660Y0063511D03*
X0113900Y0045311D03*
X0113872Y0045311D03*
X0116252Y0042511D03*
X0113564Y0039935D03*
X0113536Y0039935D03*
D203*
X0112696Y0055909D03*
X0118100Y0055909D03*
X0112304Y0071113D03*
D204*
X0112388Y0071169D03*
X0112332Y0063357D03*
X0118604Y0063469D03*
X0118128Y0060221D03*
X0118156Y0048965D03*
X0113956Y0045325D03*
X0113928Y0045325D03*
X0116224Y0042525D03*
X0113620Y0039921D03*
X0113592Y0039921D03*
X0115888Y0036169D03*
D205*
X0119024Y0052199D03*
X0118072Y0055895D03*
X0112724Y0055895D03*
X0112696Y0060263D03*
X0112332Y0071127D03*
X0118520Y0071127D03*
D206*
X0112416Y0071183D03*
X0112360Y0063343D03*
X0116168Y0042511D03*
X0116196Y0042511D03*
X0113704Y0039907D03*
X0113676Y0039907D03*
X0115916Y0036183D03*
D207*
X0113788Y0039893D03*
X0113760Y0039893D03*
X0113732Y0039893D03*
X0112388Y0063329D03*
D208*
X0112416Y0063301D03*
X0112724Y0067249D03*
X0118436Y0071169D03*
X0118464Y0071169D03*
X0118576Y0063441D03*
X0117932Y0055853D03*
X0112864Y0055853D03*
X0112836Y0055853D03*
X0114936Y0052241D03*
X0118968Y0052241D03*
X0115720Y0048937D03*
X0114124Y0045353D03*
X0114096Y0045353D03*
X0114068Y0045353D03*
D209*
X0114012Y0023877D03*
X0114180Y0023877D03*
X0114348Y0023877D03*
X0114544Y0023877D03*
X0114712Y0023877D03*
X0114880Y0023877D03*
X0115048Y0023877D03*
X0115244Y0023877D03*
X0115412Y0023877D03*
X0115580Y0023877D03*
X0115748Y0023877D03*
X0115944Y0023877D03*
X0116112Y0023877D03*
X0116280Y0023877D03*
X0116448Y0023877D03*
X0116644Y0023877D03*
X0116812Y0023877D03*
X0116980Y0023877D03*
X0117148Y0023877D03*
X0117344Y0023877D03*
X0117512Y0023877D03*
X0117680Y0023877D03*
X0117848Y0023877D03*
X0118044Y0023877D03*
X0118212Y0023877D03*
X0113844Y0023877D03*
X0113648Y0023877D03*
X0113480Y0023877D03*
X0113312Y0023877D03*
X0113144Y0023877D03*
X0112948Y0023877D03*
X0112780Y0023877D03*
X0112612Y0023877D03*
X0112444Y0023877D03*
D210*
X0115580Y0036127D03*
X0113312Y0045199D03*
X0112444Y0056007D03*
D211*
X0112444Y0063287D03*
X0114180Y0045367D03*
X0116112Y0042511D03*
X0113844Y0039879D03*
D212*
X0112444Y0071197D03*
D213*
X0112472Y0071211D03*
X0118408Y0071183D03*
X0118520Y0063399D03*
X0118492Y0063371D03*
X0112472Y0063287D03*
X0112892Y0055839D03*
X0117904Y0055839D03*
X0114964Y0052255D03*
X0118184Y0048923D03*
X0114152Y0045367D03*
X0116084Y0042511D03*
X0116140Y0042511D03*
X0113816Y0039879D03*
X0115972Y0036183D03*
D214*
X0112556Y0040145D03*
X0112528Y0040145D03*
X0112500Y0040145D03*
X0116868Y0042497D03*
X0112752Y0045101D03*
X0116140Y0049189D03*
X0117764Y0049189D03*
X0117792Y0049189D03*
X0119220Y0051989D03*
X0118968Y0063693D03*
X0117988Y0067249D03*
X0112864Y0067249D03*
X0118968Y0070777D03*
D215*
X0118352Y0071225D03*
X0118156Y0067249D03*
X0118464Y0063357D03*
X0112500Y0063273D03*
X0112668Y0060249D03*
X0112920Y0055825D03*
X0117876Y0055825D03*
X0118940Y0052269D03*
X0115692Y0048909D03*
X0114264Y0045381D03*
X0114236Y0045381D03*
X0114208Y0045381D03*
X0113928Y0039865D03*
X0113900Y0039865D03*
X0113872Y0039865D03*
X0116000Y0036197D03*
X0112500Y0071225D03*
D216*
X0112528Y0060165D03*
X0118324Y0060165D03*
X0114152Y0042525D03*
X0117176Y0034965D03*
D217*
X0113984Y0039851D03*
X0113956Y0039851D03*
X0116028Y0042511D03*
X0116056Y0042511D03*
X0114320Y0045395D03*
X0114292Y0045395D03*
X0114992Y0052283D03*
X0112976Y0055811D03*
X0117792Y0055811D03*
X0117820Y0055811D03*
X0118156Y0060207D03*
X0118352Y0063287D03*
X0118408Y0063315D03*
X0118436Y0063343D03*
X0112528Y0063259D03*
X0112528Y0071239D03*
X0112556Y0071239D03*
X0118324Y0071239D03*
D218*
X0112528Y0067249D03*
X0117092Y0034909D03*
D219*
X0116700Y0045843D03*
X0116672Y0045843D03*
X0112556Y0060179D03*
X0114684Y0071687D03*
X0114740Y0071687D03*
X0114768Y0071687D03*
X0114796Y0071687D03*
X0114824Y0071687D03*
X0114852Y0071687D03*
X0114908Y0071687D03*
X0115972Y0071687D03*
X0116000Y0071687D03*
X0116028Y0071687D03*
X0116056Y0071687D03*
X0116084Y0071687D03*
X0116140Y0071687D03*
X0116168Y0071687D03*
D220*
X0118296Y0071253D03*
X0112584Y0071253D03*
X0112696Y0067249D03*
X0112556Y0063245D03*
X0112584Y0063217D03*
X0118296Y0063245D03*
X0118324Y0063273D03*
X0117764Y0055797D03*
X0113032Y0055797D03*
X0113004Y0055797D03*
X0115020Y0052297D03*
X0114404Y0045409D03*
X0114376Y0045409D03*
X0116000Y0042525D03*
X0114068Y0039837D03*
X0114040Y0039837D03*
X0116028Y0036197D03*
D221*
X0114572Y0042525D03*
X0117036Y0045913D03*
X0117064Y0045913D03*
X0112556Y0067249D03*
D222*
X0112584Y0060207D03*
X0115720Y0052591D03*
X0118240Y0052591D03*
X0115972Y0045703D03*
X0115916Y0045703D03*
X0117120Y0038871D03*
X0116308Y0036295D03*
D223*
X0116896Y0039025D03*
X0116840Y0039053D03*
X0116784Y0039081D03*
X0116028Y0039389D03*
X0115972Y0039417D03*
X0115916Y0039417D03*
X0114992Y0042525D03*
X0114964Y0042525D03*
X0114936Y0042525D03*
X0116308Y0045773D03*
X0116336Y0045773D03*
X0116084Y0052661D03*
X0116056Y0052661D03*
X0116028Y0052661D03*
X0117904Y0052661D03*
X0117932Y0052661D03*
X0117960Y0052661D03*
X0112584Y0067249D03*
X0113984Y0071617D03*
X0114040Y0071617D03*
X0116840Y0071617D03*
X0116868Y0071617D03*
X0116896Y0071617D03*
D224*
X0114712Y0052003D03*
X0116112Y0049175D03*
X0116812Y0042511D03*
X0112612Y0040131D03*
D225*
X0112612Y0045073D03*
X0117680Y0049217D03*
D226*
X0115244Y0045577D03*
X0114880Y0039669D03*
X0117344Y0038661D03*
X0116980Y0055629D03*
X0113844Y0055629D03*
X0112612Y0060221D03*
D227*
X0112612Y0063203D03*
X0112612Y0071267D03*
X0115944Y0042511D03*
D228*
X0116784Y0042497D03*
X0112920Y0045129D03*
X0112892Y0045129D03*
X0116056Y0049161D03*
X0119192Y0052017D03*
X0112696Y0040117D03*
X0112668Y0040117D03*
X0112640Y0040117D03*
D229*
X0114376Y0039767D03*
X0114404Y0039767D03*
X0115776Y0042511D03*
X0115804Y0042511D03*
X0114796Y0045479D03*
X0114768Y0045479D03*
X0114740Y0045479D03*
X0118268Y0048811D03*
X0118772Y0052367D03*
X0115132Y0052367D03*
X0112640Y0060235D03*
X0112808Y0063119D03*
X0117820Y0062979D03*
X0117876Y0063007D03*
X0117904Y0063035D03*
X0117932Y0063035D03*
X0118184Y0060207D03*
X0118128Y0071323D03*
X0118100Y0071323D03*
X0112752Y0071323D03*
D230*
X0112640Y0071281D03*
X0112640Y0063189D03*
X0112668Y0063189D03*
X0118156Y0063161D03*
X0118240Y0063217D03*
X0117652Y0055769D03*
X0113116Y0055769D03*
X0118856Y0052325D03*
X0118240Y0048853D03*
X0114572Y0045437D03*
X0114516Y0045437D03*
X0115916Y0042525D03*
X0114152Y0039809D03*
D231*
X0114824Y0039669D03*
X0114852Y0039669D03*
X0115496Y0042525D03*
X0115524Y0042525D03*
X0115300Y0045577D03*
X0115272Y0045577D03*
X0115328Y0052465D03*
X0115356Y0052465D03*
X0118576Y0052465D03*
X0117064Y0055629D03*
X0117036Y0055629D03*
X0117008Y0055629D03*
X0113816Y0055629D03*
X0113788Y0055629D03*
X0113760Y0055629D03*
X0112640Y0067249D03*
X0113032Y0071421D03*
X0113060Y0071421D03*
X0117792Y0071421D03*
X0117820Y0071421D03*
D232*
X0112668Y0067249D03*
X0112836Y0063105D03*
X0112864Y0063105D03*
X0113340Y0055713D03*
X0113368Y0055713D03*
X0117428Y0055713D03*
X0117456Y0055713D03*
X0115160Y0052381D03*
X0117428Y0038577D03*
D233*
X0114264Y0039795D03*
X0114236Y0039795D03*
X0114208Y0039795D03*
X0115860Y0042511D03*
X0115888Y0042511D03*
X0114628Y0045451D03*
X0114600Y0045451D03*
X0115076Y0052339D03*
X0118828Y0052339D03*
X0117624Y0055755D03*
X0117596Y0055755D03*
X0113200Y0055755D03*
X0113172Y0055755D03*
X0118072Y0063119D03*
X0118128Y0063147D03*
X0118184Y0063175D03*
X0112696Y0063175D03*
X0112668Y0071295D03*
X0118184Y0071295D03*
X0116084Y0036211D03*
D234*
X0114320Y0039781D03*
X0114292Y0039781D03*
X0115832Y0042525D03*
X0114684Y0045465D03*
X0114656Y0045465D03*
X0115636Y0048825D03*
X0115104Y0052353D03*
X0118800Y0052353D03*
X0117568Y0055741D03*
X0117540Y0055741D03*
X0113256Y0055741D03*
X0113228Y0055741D03*
X0112752Y0063133D03*
X0112724Y0063161D03*
X0117960Y0063049D03*
X0118100Y0063133D03*
X0118184Y0067249D03*
X0118156Y0071309D03*
X0112724Y0071309D03*
X0112696Y0071309D03*
D235*
X0118128Y0067249D03*
X0118016Y0055881D03*
X0112752Y0055881D03*
X0114908Y0052213D03*
X0118996Y0052213D03*
D236*
X0118128Y0048993D03*
X0113816Y0045297D03*
X0113788Y0045297D03*
X0116308Y0042525D03*
X0113508Y0039949D03*
X0115860Y0036169D03*
X0118688Y0063525D03*
X0118716Y0063553D03*
X0112752Y0067249D03*
X0118576Y0071085D03*
D237*
X0112780Y0040089D03*
D238*
X0112780Y0055881D03*
D239*
X0112780Y0063133D03*
X0118044Y0063105D03*
X0114712Y0045465D03*
X0116112Y0036225D03*
D240*
X0115748Y0036141D03*
X0113480Y0045241D03*
X0112780Y0067249D03*
D241*
X0112780Y0071337D03*
X0117848Y0062993D03*
X0115748Y0042525D03*
D242*
X0116700Y0042497D03*
X0112836Y0040089D03*
X0112808Y0040089D03*
X0113032Y0045157D03*
X0113060Y0045157D03*
X0113088Y0045157D03*
X0115972Y0049133D03*
X0117904Y0049133D03*
X0118884Y0070861D03*
X0118856Y0070889D03*
D243*
X0118492Y0071155D03*
X0117988Y0055867D03*
X0117960Y0055867D03*
X0112808Y0055867D03*
X0113984Y0045339D03*
X0114040Y0045339D03*
D244*
X0114824Y0045493D03*
X0114852Y0045493D03*
X0114460Y0039753D03*
X0114432Y0039753D03*
X0117792Y0062965D03*
X0118072Y0071337D03*
X0112808Y0071337D03*
D245*
X0112836Y0071351D03*
X0118016Y0071351D03*
X0114936Y0045507D03*
X0114908Y0045507D03*
X0115720Y0042511D03*
X0114516Y0039739D03*
X0114488Y0039739D03*
X0116140Y0036239D03*
D246*
X0112892Y0040075D03*
X0112864Y0040075D03*
X0116672Y0042511D03*
D247*
X0115692Y0042525D03*
X0115664Y0042525D03*
X0114600Y0039725D03*
X0114572Y0039725D03*
X0112892Y0071365D03*
X0112864Y0071365D03*
X0117988Y0071365D03*
D248*
X0112892Y0063091D03*
X0112920Y0063063D03*
X0113396Y0055699D03*
X0113424Y0055699D03*
X0113452Y0055699D03*
X0117372Y0055699D03*
X0117400Y0055699D03*
X0115188Y0052395D03*
D249*
X0112920Y0040061D03*
D250*
X0112920Y0060361D03*
D251*
X0112920Y0071379D03*
X0117932Y0071379D03*
X0117960Y0071379D03*
X0115636Y0042511D03*
X0114684Y0039711D03*
X0114656Y0039711D03*
X0114628Y0039711D03*
D252*
X0112948Y0040061D03*
D253*
X0112948Y0045129D03*
X0117848Y0049161D03*
D254*
X0117848Y0055825D03*
X0112948Y0055825D03*
X0118380Y0071197D03*
D255*
X0113144Y0067249D03*
X0112948Y0060361D03*
D256*
X0112948Y0063063D03*
D257*
X0112948Y0067249D03*
X0118744Y0056217D03*
X0117148Y0049301D03*
X0116980Y0049301D03*
D258*
X0113648Y0055657D03*
X0118212Y0060193D03*
X0112948Y0071393D03*
X0115580Y0042525D03*
X0114712Y0039697D03*
D259*
X0114964Y0045521D03*
X0114992Y0045521D03*
X0115608Y0048769D03*
X0115216Y0052409D03*
X0118716Y0052409D03*
X0117316Y0055685D03*
X0117288Y0055685D03*
X0113508Y0055685D03*
X0112976Y0063049D03*
D260*
X0113620Y0055657D03*
X0117176Y0055657D03*
X0117204Y0055657D03*
X0118660Y0052437D03*
X0115272Y0052437D03*
X0118296Y0048741D03*
X0115160Y0045549D03*
X0115132Y0045549D03*
X0115104Y0045549D03*
X0115608Y0042525D03*
X0114740Y0039697D03*
X0116196Y0036253D03*
X0117904Y0071393D03*
X0112976Y0071393D03*
D261*
X0113004Y0061285D03*
D262*
X0113676Y0055643D03*
X0113704Y0055643D03*
X0113732Y0055643D03*
X0117092Y0055643D03*
X0117120Y0055643D03*
X0118604Y0052451D03*
X0118632Y0052451D03*
X0115300Y0052451D03*
X0115216Y0045563D03*
X0115188Y0045563D03*
X0115552Y0042511D03*
X0114796Y0039683D03*
X0114768Y0039683D03*
X0117372Y0038619D03*
X0117876Y0071407D03*
X0113004Y0071407D03*
D263*
X0113032Y0061271D03*
D264*
X0118268Y0063231D03*
X0117736Y0055783D03*
X0117708Y0055783D03*
X0113088Y0055783D03*
X0113060Y0055783D03*
X0118884Y0052311D03*
X0115664Y0048867D03*
X0114488Y0045423D03*
X0114460Y0045423D03*
X0114432Y0045423D03*
X0115972Y0042511D03*
X0114124Y0039823D03*
X0114096Y0039823D03*
X0116056Y0036211D03*
X0118240Y0071267D03*
X0118268Y0071267D03*
D265*
X0117708Y0061201D03*
X0113060Y0061229D03*
D266*
X0113088Y0061215D03*
X0113116Y0061187D03*
X0117540Y0061075D03*
X0117568Y0061103D03*
D267*
X0116952Y0055615D03*
X0116924Y0055615D03*
X0116896Y0055615D03*
X0113928Y0055615D03*
X0113900Y0055615D03*
X0113872Y0055615D03*
X0115384Y0052479D03*
X0115384Y0045591D03*
X0115356Y0045591D03*
X0115328Y0045591D03*
X0115468Y0042511D03*
X0114936Y0039655D03*
X0114908Y0039655D03*
X0116224Y0036267D03*
X0117764Y0071435D03*
X0113116Y0071435D03*
X0113088Y0071435D03*
D268*
X0118744Y0070987D03*
X0118044Y0049063D03*
X0113144Y0040019D03*
D269*
X0113144Y0042567D03*
D270*
X0113144Y0045171D03*
X0115412Y0036127D03*
D271*
X0114180Y0039809D03*
X0114544Y0045437D03*
X0115048Y0052325D03*
X0113144Y0055769D03*
X0117680Y0055769D03*
X0118212Y0063189D03*
X0118212Y0071281D03*
D272*
X0117512Y0061061D03*
X0113144Y0061173D03*
D273*
X0114012Y0055601D03*
X0116812Y0055601D03*
X0115412Y0052493D03*
X0115580Y0048685D03*
X0115412Y0045605D03*
X0115412Y0042525D03*
X0113144Y0071449D03*
D274*
X0113172Y0042567D03*
X0113200Y0042567D03*
X0116728Y0034727D03*
D275*
X0117624Y0061131D03*
X0117652Y0061159D03*
X0113172Y0061159D03*
D276*
X0119164Y0063693D03*
X0113172Y0067249D03*
D277*
X0113172Y0071449D03*
X0117708Y0071449D03*
X0117736Y0071449D03*
X0116868Y0055601D03*
X0116840Y0055601D03*
X0114040Y0055601D03*
X0113984Y0055601D03*
X0113956Y0055601D03*
X0118520Y0052493D03*
X0115440Y0045605D03*
X0115440Y0042525D03*
X0115020Y0039641D03*
X0114992Y0039641D03*
X0114964Y0039641D03*
X0117316Y0038689D03*
D278*
X0113200Y0061145D03*
D279*
X0119108Y0056497D03*
X0117652Y0067249D03*
X0117624Y0067249D03*
X0113228Y0067249D03*
X0113200Y0067249D03*
D280*
X0118240Y0067263D03*
X0117652Y0071463D03*
X0113228Y0071463D03*
X0113200Y0071463D03*
X0114068Y0055587D03*
X0114096Y0055587D03*
X0114124Y0055587D03*
X0116700Y0055587D03*
X0116728Y0055587D03*
X0116756Y0055587D03*
X0116784Y0055587D03*
X0115468Y0052507D03*
X0115440Y0052507D03*
X0118492Y0052507D03*
X0118324Y0048671D03*
X0115524Y0045619D03*
X0115496Y0045619D03*
X0115468Y0045619D03*
X0115076Y0039627D03*
X0116252Y0036267D03*
D281*
X0113256Y0042553D03*
X0113228Y0042553D03*
D282*
X0113228Y0061117D03*
X0117456Y0061033D03*
X0117484Y0061033D03*
X0119472Y0063693D03*
D283*
X0117428Y0061019D03*
X0117400Y0060991D03*
X0117372Y0060991D03*
X0113340Y0061047D03*
X0113284Y0061075D03*
X0113256Y0061103D03*
D284*
X0114152Y0055573D03*
X0114208Y0055573D03*
X0114236Y0055573D03*
X0114264Y0055573D03*
X0114292Y0055573D03*
X0116560Y0055573D03*
X0116588Y0055573D03*
X0116616Y0055573D03*
X0116672Y0055573D03*
X0115496Y0052521D03*
X0118436Y0052521D03*
X0118464Y0052521D03*
X0115608Y0045633D03*
X0115552Y0045633D03*
X0115384Y0042525D03*
X0115356Y0042525D03*
X0115328Y0042525D03*
X0115160Y0039613D03*
X0115132Y0039613D03*
X0115104Y0039613D03*
X0117288Y0038717D03*
X0117428Y0032641D03*
X0117596Y0071477D03*
X0117624Y0071477D03*
X0113284Y0071477D03*
X0113256Y0071477D03*
D285*
X0113284Y0042567D03*
X0116784Y0034755D03*
D286*
X0117484Y0055727D03*
X0113284Y0055727D03*
D287*
X0119164Y0056553D03*
X0117568Y0067249D03*
X0113284Y0067249D03*
D288*
X0118212Y0055951D03*
X0119080Y0052143D03*
X0116448Y0042511D03*
X0113312Y0039991D03*
D289*
X0113312Y0042553D03*
D290*
X0113312Y0055727D03*
X0117512Y0055727D03*
D291*
X0113312Y0067249D03*
D292*
X0113312Y0071491D03*
X0118380Y0022715D03*
X0118548Y0022715D03*
X0118744Y0022715D03*
X0118912Y0022715D03*
X0119080Y0022715D03*
X0119248Y0022715D03*
D293*
X0113340Y0042553D03*
D294*
X0115188Y0039599D03*
X0115216Y0039599D03*
X0115636Y0045647D03*
X0115664Y0045647D03*
X0115552Y0052535D03*
X0115524Y0052535D03*
X0118408Y0052535D03*
X0118240Y0060179D03*
X0117568Y0071491D03*
X0117540Y0071491D03*
X0113340Y0071491D03*
X0118268Y0022715D03*
X0118296Y0022715D03*
X0118324Y0022715D03*
X0118352Y0022715D03*
X0118408Y0022715D03*
X0118436Y0022715D03*
X0118464Y0022715D03*
X0118492Y0022715D03*
X0118520Y0022715D03*
X0118576Y0022715D03*
X0118604Y0022715D03*
X0118632Y0022715D03*
X0118660Y0022715D03*
X0118688Y0022715D03*
X0118716Y0022715D03*
X0118772Y0022715D03*
X0118800Y0022715D03*
X0118828Y0022715D03*
X0118856Y0022715D03*
X0118884Y0022715D03*
X0118940Y0022715D03*
X0118968Y0022715D03*
X0118996Y0022715D03*
X0119024Y0022715D03*
X0119052Y0022715D03*
X0119108Y0022715D03*
X0119136Y0022715D03*
X0119164Y0022715D03*
X0119192Y0022715D03*
X0119220Y0022715D03*
X0119276Y0022715D03*
X0119304Y0022715D03*
X0119332Y0022715D03*
X0119360Y0022715D03*
X0119388Y0022715D03*
X0119416Y0022715D03*
D295*
X0113368Y0042567D03*
D296*
X0115272Y0042525D03*
X0115300Y0042525D03*
X0115272Y0039585D03*
X0117204Y0038801D03*
X0115720Y0045661D03*
X0115692Y0045661D03*
X0117484Y0071505D03*
X0113396Y0071505D03*
X0113368Y0071505D03*
D297*
X0113396Y0042553D03*
X0113424Y0042553D03*
X0116840Y0034769D03*
D298*
X0117036Y0060823D03*
X0117092Y0060851D03*
X0117120Y0060851D03*
X0117176Y0060879D03*
X0117232Y0060907D03*
X0113592Y0060907D03*
X0113536Y0060935D03*
X0113424Y0060991D03*
D299*
X0113424Y0071519D03*
X0113452Y0071519D03*
X0117400Y0071519D03*
X0117428Y0071519D03*
X0117456Y0071519D03*
X0115832Y0045675D03*
X0115804Y0045675D03*
X0115776Y0045675D03*
X0115356Y0039571D03*
X0115328Y0039571D03*
X0115300Y0039571D03*
D300*
X0113452Y0042567D03*
X0114488Y0047999D03*
X0116868Y0034783D03*
D301*
X0113480Y0039949D03*
D302*
X0113480Y0042553D03*
D303*
X0113480Y0055685D03*
X0117344Y0055685D03*
D304*
X0117148Y0060879D03*
X0113480Y0060963D03*
D305*
X0113480Y0071533D03*
X0117344Y0071533D03*
X0115412Y0039557D03*
D306*
X0113508Y0042553D03*
X0116896Y0034797D03*
D307*
X0116840Y0060753D03*
X0116924Y0060781D03*
X0117008Y0060809D03*
X0117064Y0060837D03*
X0113760Y0060837D03*
X0113732Y0060837D03*
X0113676Y0060865D03*
X0113620Y0060893D03*
X0113564Y0060921D03*
X0113508Y0060949D03*
D308*
X0113508Y0071533D03*
X0113536Y0071533D03*
X0117372Y0071533D03*
X0115216Y0042525D03*
X0115188Y0042525D03*
X0115160Y0042525D03*
X0115384Y0039557D03*
X0117176Y0038829D03*
D309*
X0116924Y0034825D03*
X0113592Y0042553D03*
X0113564Y0042553D03*
X0113536Y0042553D03*
D310*
X0115020Y0045535D03*
X0115076Y0045535D03*
X0118688Y0052423D03*
X0117260Y0055671D03*
X0117232Y0055671D03*
X0113592Y0055671D03*
X0113564Y0055671D03*
X0113536Y0055671D03*
X0117400Y0038591D03*
X0116168Y0036239D03*
D311*
X0117260Y0067249D03*
X0117288Y0067249D03*
X0113592Y0067249D03*
X0113564Y0067249D03*
X0119500Y0069881D03*
D312*
X0117316Y0071547D03*
X0117288Y0071547D03*
X0117260Y0071547D03*
X0113592Y0071547D03*
X0113564Y0071547D03*
X0115440Y0039543D03*
X0115468Y0039543D03*
X0115496Y0039543D03*
D313*
X0113620Y0042539D03*
D314*
X0113620Y0067249D03*
X0117204Y0067249D03*
X0117232Y0067249D03*
D315*
X0118268Y0067249D03*
X0117232Y0071561D03*
X0117204Y0071561D03*
X0113676Y0071561D03*
X0113620Y0071561D03*
X0115776Y0052605D03*
X0115804Y0052605D03*
X0118184Y0052605D03*
X0116028Y0045717D03*
X0116000Y0045717D03*
X0115132Y0042525D03*
X0115104Y0042525D03*
X0115524Y0039529D03*
X0115552Y0039529D03*
X0115608Y0039501D03*
X0115636Y0039501D03*
X0117064Y0038913D03*
X0117092Y0038885D03*
D316*
X0113648Y0039921D03*
D317*
X0113648Y0042553D03*
D318*
X0113648Y0060893D03*
X0116980Y0060809D03*
D319*
X0113648Y0067249D03*
D320*
X0113648Y0071561D03*
D321*
X0113676Y0042553D03*
D322*
X0113704Y0042539D03*
D323*
X0114124Y0060711D03*
X0114040Y0060739D03*
X0113956Y0060767D03*
X0113928Y0060767D03*
X0113872Y0060795D03*
X0113816Y0060823D03*
X0113788Y0060823D03*
X0113704Y0060851D03*
X0116588Y0060683D03*
X0116672Y0060711D03*
X0116700Y0060711D03*
X0116728Y0060711D03*
X0116756Y0060739D03*
X0116784Y0060739D03*
X0116868Y0060767D03*
X0116896Y0060767D03*
X0116952Y0060795D03*
D324*
X0115860Y0052619D03*
X0115832Y0052619D03*
X0118100Y0052619D03*
X0118128Y0052619D03*
X0118156Y0052619D03*
X0116084Y0045731D03*
X0116056Y0045731D03*
X0115076Y0042539D03*
X0115664Y0039487D03*
X0115692Y0039487D03*
X0117008Y0038955D03*
X0117036Y0038927D03*
X0117092Y0071575D03*
X0117120Y0071575D03*
X0117176Y0071575D03*
X0113760Y0071575D03*
X0113732Y0071575D03*
X0113704Y0071575D03*
D325*
X0113732Y0042553D03*
X0113760Y0042553D03*
D326*
X0113760Y0067249D03*
X0113732Y0067249D03*
X0117092Y0067249D03*
X0117120Y0067249D03*
D327*
X0113788Y0042539D03*
X0116476Y0036323D03*
X0117008Y0034867D03*
D328*
X0117036Y0067249D03*
X0117008Y0067249D03*
X0113816Y0067249D03*
X0113788Y0067249D03*
D329*
X0113788Y0071589D03*
X0113816Y0071589D03*
X0117008Y0071589D03*
X0117036Y0071589D03*
X0117064Y0071589D03*
X0118268Y0060193D03*
X0118072Y0052633D03*
X0115916Y0052633D03*
X0115888Y0052633D03*
X0116140Y0045745D03*
X0116168Y0045745D03*
X0116196Y0045745D03*
X0115020Y0042525D03*
X0115720Y0039473D03*
X0115776Y0039473D03*
X0117428Y0035189D03*
D330*
X0117036Y0034881D03*
X0113816Y0042553D03*
D331*
X0113844Y0042539D03*
D332*
X0116280Y0042511D03*
X0113844Y0045311D03*
X0115748Y0048979D03*
D333*
X0116812Y0060739D03*
X0113844Y0060795D03*
D334*
X0113844Y0067235D03*
D335*
X0113844Y0071589D03*
X0115944Y0052633D03*
X0118044Y0052633D03*
X0115048Y0042525D03*
X0115748Y0039473D03*
X0116980Y0038969D03*
D336*
X0117064Y0034895D03*
X0113900Y0042539D03*
X0113872Y0042539D03*
D337*
X0115804Y0039459D03*
X0115832Y0039459D03*
X0115860Y0039431D03*
X0115888Y0039431D03*
X0116868Y0039039D03*
X0116924Y0039011D03*
X0116952Y0038983D03*
X0116336Y0036295D03*
X0116252Y0045759D03*
X0116224Y0045759D03*
X0116000Y0052647D03*
X0115972Y0052647D03*
X0117988Y0052647D03*
X0118016Y0052647D03*
X0116952Y0071603D03*
X0116924Y0071603D03*
X0113956Y0071603D03*
X0113928Y0071603D03*
X0113900Y0071603D03*
X0113872Y0071603D03*
D338*
X0113900Y0060781D03*
X0113984Y0060753D03*
X0114068Y0060725D03*
X0114096Y0060725D03*
X0114152Y0060697D03*
X0114208Y0060697D03*
X0114264Y0060669D03*
X0114292Y0060669D03*
X0114320Y0060669D03*
X0114404Y0060641D03*
X0114432Y0060641D03*
X0114572Y0060613D03*
X0114600Y0060613D03*
X0116028Y0060585D03*
X0116196Y0060613D03*
X0116224Y0060613D03*
X0116252Y0060613D03*
X0116364Y0060641D03*
X0116392Y0060641D03*
X0116420Y0060641D03*
X0116476Y0060669D03*
X0116504Y0060669D03*
X0116532Y0060669D03*
X0116560Y0060669D03*
X0116616Y0060697D03*
D339*
X0113984Y0042539D03*
X0113956Y0042539D03*
X0113928Y0042539D03*
D340*
X0113928Y0067249D03*
X0113956Y0067249D03*
X0113984Y0067249D03*
X0116868Y0067249D03*
X0116896Y0067249D03*
X0116924Y0067249D03*
D341*
X0118380Y0063301D03*
X0114012Y0039837D03*
D342*
X0114012Y0042539D03*
D343*
X0114012Y0045339D03*
D344*
X0114180Y0060697D03*
X0114012Y0060753D03*
X0116280Y0060613D03*
X0116448Y0060641D03*
X0116644Y0060697D03*
D345*
X0116812Y0067249D03*
X0114012Y0067249D03*
D346*
X0114012Y0071617D03*
X0116812Y0071617D03*
X0116280Y0045773D03*
X0115944Y0039417D03*
D347*
X0114068Y0042539D03*
X0114040Y0042539D03*
X0117120Y0034923D03*
D348*
X0116840Y0067249D03*
X0116784Y0067249D03*
X0114068Y0067249D03*
X0114040Y0067249D03*
D349*
X0114068Y0071631D03*
X0114096Y0071631D03*
X0114124Y0071631D03*
X0114152Y0071631D03*
X0116700Y0071631D03*
X0116728Y0071631D03*
X0116756Y0071631D03*
X0116784Y0071631D03*
X0116196Y0052675D03*
X0116168Y0052675D03*
X0116140Y0052675D03*
X0117792Y0052675D03*
X0117820Y0052675D03*
X0117876Y0052675D03*
X0116420Y0045787D03*
X0116392Y0045787D03*
X0116364Y0045787D03*
X0116000Y0039403D03*
X0116056Y0039375D03*
X0116084Y0039375D03*
X0116140Y0039347D03*
X0116168Y0039347D03*
X0116252Y0039319D03*
X0116392Y0039263D03*
X0116588Y0039179D03*
X0116700Y0039123D03*
X0116728Y0039123D03*
X0116756Y0039095D03*
X0117400Y0035175D03*
D350*
X0114124Y0042539D03*
X0114096Y0042539D03*
D351*
X0114096Y0067249D03*
X0114124Y0067249D03*
X0114152Y0067249D03*
X0116700Y0067249D03*
X0116728Y0067249D03*
D352*
X0114180Y0042539D03*
X0116448Y0036323D03*
D353*
X0115580Y0045633D03*
X0116644Y0055573D03*
X0114180Y0055573D03*
D354*
X0114180Y0067249D03*
X0116644Y0067249D03*
D355*
X0116644Y0071645D03*
X0114180Y0071645D03*
X0116280Y0052689D03*
X0117680Y0052689D03*
X0116448Y0045801D03*
X0114880Y0042525D03*
X0116280Y0039305D03*
X0116448Y0039249D03*
D356*
X0114208Y0042539D03*
D357*
X0119360Y0063693D03*
X0116616Y0067249D03*
X0116588Y0067249D03*
X0114264Y0067249D03*
X0114236Y0067249D03*
X0114208Y0067249D03*
D358*
X0114208Y0071645D03*
X0114236Y0071645D03*
X0114264Y0071645D03*
X0114292Y0071645D03*
X0114320Y0071645D03*
X0116560Y0071645D03*
X0116588Y0071645D03*
X0116616Y0071645D03*
X0116672Y0071645D03*
X0116336Y0052689D03*
X0116308Y0052689D03*
X0116252Y0052689D03*
X0116224Y0052689D03*
X0117708Y0052689D03*
X0117736Y0052689D03*
X0117764Y0052689D03*
X0116476Y0045801D03*
X0114908Y0042525D03*
X0114852Y0042525D03*
X0116196Y0039333D03*
X0116224Y0039333D03*
X0116308Y0039305D03*
X0116336Y0039277D03*
X0116364Y0039277D03*
X0116420Y0039249D03*
X0116476Y0039221D03*
X0116504Y0039221D03*
X0116532Y0039193D03*
X0116560Y0039193D03*
X0116616Y0039165D03*
X0116672Y0039137D03*
X0116364Y0036309D03*
D359*
X0117204Y0034993D03*
X0114236Y0042525D03*
D360*
X0115328Y0060543D03*
X0115356Y0060543D03*
X0115384Y0060543D03*
X0115440Y0060543D03*
X0115468Y0060543D03*
X0115496Y0060543D03*
X0115524Y0060543D03*
X0115692Y0060571D03*
X0115720Y0060571D03*
X0115776Y0060571D03*
X0115804Y0060571D03*
X0115832Y0060571D03*
X0115860Y0060571D03*
X0115888Y0060571D03*
X0115916Y0060571D03*
X0115972Y0060571D03*
X0116000Y0060571D03*
X0116056Y0060599D03*
X0116084Y0060599D03*
X0116140Y0060599D03*
X0116168Y0060599D03*
X0116308Y0060627D03*
X0116336Y0060627D03*
X0115132Y0060571D03*
X0115104Y0060571D03*
X0115076Y0060571D03*
X0115020Y0060571D03*
X0114992Y0060571D03*
X0114964Y0060571D03*
X0114936Y0060571D03*
X0114908Y0060571D03*
X0114852Y0060571D03*
X0114824Y0060571D03*
X0114796Y0060599D03*
X0114768Y0060599D03*
X0114740Y0060599D03*
X0114684Y0060599D03*
X0114656Y0060599D03*
X0114628Y0060599D03*
X0114516Y0060627D03*
X0114488Y0060627D03*
X0114460Y0060627D03*
X0114376Y0060655D03*
X0114236Y0060683D03*
D361*
X0114264Y0042539D03*
X0114292Y0042539D03*
D362*
X0114292Y0067249D03*
X0114320Y0067249D03*
X0114376Y0067249D03*
X0116476Y0067249D03*
X0116504Y0067249D03*
X0116532Y0067249D03*
D363*
X0114320Y0042525D03*
X0118324Y0030037D03*
X0118352Y0030037D03*
X0118408Y0030037D03*
X0118436Y0030037D03*
X0118464Y0030037D03*
X0118492Y0030037D03*
X0118520Y0030037D03*
X0118576Y0030037D03*
X0118604Y0030037D03*
X0118632Y0030037D03*
X0118660Y0030037D03*
X0118688Y0030037D03*
X0118716Y0030037D03*
X0118772Y0030037D03*
X0118800Y0030037D03*
X0118828Y0030037D03*
X0118856Y0030037D03*
X0118884Y0030037D03*
X0118940Y0030037D03*
X0118968Y0030037D03*
X0118996Y0030037D03*
X0119024Y0030037D03*
X0119052Y0030037D03*
X0119108Y0030037D03*
X0119136Y0030037D03*
X0119164Y0030037D03*
X0119192Y0030037D03*
X0119220Y0030037D03*
X0119276Y0030037D03*
X0119304Y0030037D03*
X0119332Y0030037D03*
X0119360Y0030037D03*
X0119388Y0030037D03*
X0119416Y0030037D03*
D364*
X0117260Y0038759D03*
X0116532Y0055559D03*
X0116504Y0055559D03*
X0116476Y0055559D03*
X0116420Y0055559D03*
X0114432Y0055559D03*
X0114404Y0055559D03*
X0114376Y0055559D03*
X0114320Y0055559D03*
D365*
X0114348Y0039767D03*
D366*
X0114348Y0042539D03*
D367*
X0114348Y0045395D03*
X0118212Y0048895D03*
X0118912Y0052283D03*
D368*
X0116448Y0055559D03*
X0114348Y0055559D03*
D369*
X0114880Y0060571D03*
X0115048Y0060571D03*
X0114712Y0060599D03*
X0114544Y0060627D03*
X0114348Y0060655D03*
X0115412Y0060543D03*
X0115748Y0060571D03*
X0115944Y0060571D03*
X0116112Y0060599D03*
D370*
X0114348Y0067249D03*
D371*
X0114348Y0071659D03*
X0116448Y0071659D03*
X0116448Y0052703D03*
D372*
X0116420Y0052703D03*
X0116392Y0052703D03*
X0116364Y0052703D03*
X0116476Y0052703D03*
X0117540Y0052703D03*
X0117568Y0052703D03*
X0117596Y0052703D03*
X0117624Y0052703D03*
X0117652Y0052703D03*
X0116560Y0045815D03*
X0116532Y0045815D03*
X0116504Y0045815D03*
X0116504Y0071659D03*
X0116532Y0071659D03*
X0116476Y0071659D03*
X0116420Y0071659D03*
X0114460Y0071659D03*
X0114432Y0071659D03*
X0114404Y0071659D03*
X0114376Y0071659D03*
D373*
X0117316Y0045969D03*
X0117372Y0045969D03*
X0117428Y0045969D03*
X0114404Y0042525D03*
D374*
X0114404Y0067235D03*
D375*
X0117260Y0045955D03*
X0117288Y0045955D03*
X0114432Y0042539D03*
X0116420Y0036323D03*
X0117260Y0035035D03*
D376*
X0116420Y0067249D03*
X0116392Y0067249D03*
X0116364Y0067249D03*
X0116336Y0067249D03*
X0114516Y0067249D03*
X0114488Y0067249D03*
X0114460Y0067249D03*
X0114432Y0067249D03*
D377*
X0117176Y0045941D03*
X0117204Y0045941D03*
X0117232Y0045941D03*
X0114488Y0042525D03*
X0114460Y0042525D03*
D378*
X0114768Y0042525D03*
X0114796Y0042525D03*
X0114824Y0042525D03*
X0116588Y0045829D03*
X0116616Y0045829D03*
X0114460Y0048461D03*
X0116504Y0052717D03*
X0116532Y0052717D03*
X0116560Y0052717D03*
X0116588Y0052717D03*
X0116616Y0052717D03*
X0116672Y0052717D03*
X0116700Y0052717D03*
X0116728Y0052717D03*
X0117260Y0052717D03*
X0117288Y0052717D03*
X0117316Y0052717D03*
X0117372Y0052717D03*
X0117400Y0052717D03*
X0117428Y0052717D03*
X0117456Y0052717D03*
X0117484Y0052717D03*
X0117372Y0035133D03*
X0116392Y0071673D03*
X0116364Y0071673D03*
X0116336Y0071673D03*
X0116308Y0071673D03*
X0116252Y0071673D03*
X0116224Y0071673D03*
X0116196Y0071673D03*
X0114656Y0071673D03*
X0114628Y0071673D03*
X0114600Y0071673D03*
X0114572Y0071673D03*
X0114516Y0071673D03*
X0114488Y0071673D03*
D379*
X0114460Y0051191D03*
D380*
X0117092Y0045927D03*
X0117120Y0045927D03*
X0114516Y0042539D03*
X0117288Y0035063D03*
D381*
X0114544Y0039739D03*
X0114880Y0045507D03*
X0118044Y0071351D03*
D382*
X0114544Y0042525D03*
D383*
X0114544Y0051695D03*
D384*
X0114544Y0067235D03*
X0116280Y0067235D03*
D385*
X0116280Y0071673D03*
X0114544Y0071673D03*
X0116644Y0052717D03*
X0117344Y0052717D03*
X0117512Y0052717D03*
X0116644Y0045829D03*
D386*
X0116252Y0067249D03*
X0116224Y0067249D03*
X0116196Y0067249D03*
X0116168Y0067249D03*
X0116140Y0067249D03*
X0114684Y0067249D03*
X0114656Y0067249D03*
X0114628Y0067249D03*
X0114600Y0067249D03*
X0114572Y0067249D03*
D387*
X0116952Y0045899D03*
X0117008Y0045899D03*
X0114600Y0042539D03*
X0117316Y0035091D03*
D388*
X0114656Y0042525D03*
X0114628Y0042525D03*
X0116896Y0045885D03*
X0116924Y0045885D03*
X0118296Y0060165D03*
D389*
X0116224Y0055531D03*
X0116196Y0055531D03*
X0116168Y0055531D03*
X0116140Y0055531D03*
X0116084Y0055531D03*
X0116056Y0055531D03*
X0116028Y0055531D03*
X0116000Y0055531D03*
X0114852Y0055531D03*
X0114824Y0055531D03*
X0114796Y0055531D03*
X0114768Y0055531D03*
X0114740Y0055531D03*
X0114684Y0055531D03*
X0114656Y0055531D03*
X0115608Y0052563D03*
X0115636Y0052563D03*
X0118324Y0052563D03*
X0118352Y0052563D03*
D390*
X0116868Y0045871D03*
X0116840Y0045871D03*
X0114684Y0042539D03*
X0116392Y0036323D03*
D391*
X0114712Y0042525D03*
X0115048Y0071701D03*
X0115244Y0071701D03*
X0115412Y0071701D03*
X0115580Y0071701D03*
X0115748Y0071701D03*
D392*
X0116112Y0055531D03*
X0114880Y0055531D03*
X0114712Y0055531D03*
D393*
X0114712Y0067235D03*
X0116112Y0067235D03*
D394*
X0116112Y0071687D03*
X0115944Y0071687D03*
X0114880Y0071687D03*
X0114712Y0071687D03*
D395*
X0114936Y0071701D03*
X0114964Y0071701D03*
X0114992Y0071701D03*
X0115020Y0071701D03*
X0115076Y0071701D03*
X0115104Y0071701D03*
X0115132Y0071701D03*
X0115160Y0071701D03*
X0115188Y0071701D03*
X0115216Y0071701D03*
X0115272Y0071701D03*
X0115300Y0071701D03*
X0115328Y0071701D03*
X0115356Y0071701D03*
X0115384Y0071701D03*
X0115440Y0071701D03*
X0115468Y0071701D03*
X0115496Y0071701D03*
X0115524Y0071701D03*
X0115552Y0071701D03*
X0115608Y0071701D03*
X0115636Y0071701D03*
X0115664Y0071701D03*
X0115692Y0071701D03*
X0115720Y0071701D03*
X0115776Y0071701D03*
X0115804Y0071701D03*
X0115832Y0071701D03*
X0115860Y0071701D03*
X0115888Y0071701D03*
X0115916Y0071701D03*
X0116728Y0045857D03*
X0116756Y0045857D03*
X0116784Y0045857D03*
X0114740Y0042525D03*
D396*
X0114740Y0067235D03*
D397*
X0114768Y0067249D03*
X0114796Y0067249D03*
X0114824Y0067249D03*
X0114852Y0067249D03*
X0114908Y0067249D03*
X0114936Y0067249D03*
X0114964Y0067249D03*
X0115860Y0067249D03*
X0115888Y0067249D03*
X0115916Y0067249D03*
X0115972Y0067249D03*
X0116000Y0067249D03*
X0116028Y0067249D03*
X0116056Y0067249D03*
X0116084Y0067249D03*
D398*
X0118548Y0071099D03*
X0118044Y0055895D03*
X0114880Y0052199D03*
D399*
X0114880Y0067249D03*
X0115944Y0067249D03*
D400*
X0115972Y0055517D03*
X0115916Y0055517D03*
X0115888Y0055517D03*
X0115860Y0055517D03*
X0115832Y0055517D03*
X0115804Y0055517D03*
X0115776Y0055517D03*
X0115720Y0055517D03*
X0115692Y0055517D03*
X0115664Y0055517D03*
X0115636Y0055517D03*
X0115608Y0055517D03*
X0115552Y0055517D03*
X0115524Y0055517D03*
X0115496Y0055517D03*
X0115468Y0055517D03*
X0115440Y0055517D03*
X0115384Y0055517D03*
X0115356Y0055517D03*
X0115328Y0055517D03*
X0115300Y0055517D03*
X0115272Y0055517D03*
X0115216Y0055517D03*
X0115188Y0055517D03*
X0115160Y0055517D03*
X0115132Y0055517D03*
X0115104Y0055517D03*
X0115076Y0055517D03*
X0115020Y0055517D03*
X0114992Y0055517D03*
X0114964Y0055517D03*
X0114936Y0055517D03*
X0114908Y0055517D03*
X0115664Y0052577D03*
X0115692Y0052577D03*
X0118268Y0052577D03*
X0118296Y0052577D03*
X0115552Y0048601D03*
X0115860Y0045689D03*
X0115888Y0045689D03*
D401*
X0115832Y0067235D03*
X0115804Y0067235D03*
X0115020Y0067235D03*
X0114992Y0067235D03*
D402*
X0118044Y0060235D03*
X0115048Y0036127D03*
D403*
X0115048Y0039627D03*
X0117680Y0071463D03*
D404*
X0118212Y0067263D03*
X0115244Y0052423D03*
X0115048Y0045535D03*
D405*
X0115048Y0055517D03*
X0115244Y0055517D03*
X0115412Y0055517D03*
X0115580Y0055517D03*
X0115748Y0055517D03*
X0115944Y0055517D03*
D406*
X0115748Y0067249D03*
X0115580Y0067249D03*
X0115412Y0067249D03*
X0115244Y0067249D03*
X0115048Y0067249D03*
D407*
X0115076Y0067249D03*
X0115104Y0067249D03*
X0115132Y0067249D03*
X0115160Y0067249D03*
X0115188Y0067249D03*
X0115216Y0067249D03*
X0115272Y0067249D03*
X0115300Y0067249D03*
X0115328Y0067249D03*
X0115356Y0067249D03*
X0115384Y0067249D03*
X0115440Y0067249D03*
X0115468Y0067249D03*
X0115496Y0067249D03*
X0115524Y0067249D03*
X0115552Y0067249D03*
X0115608Y0067249D03*
X0115636Y0067249D03*
X0115664Y0067249D03*
X0115692Y0067249D03*
X0115720Y0067249D03*
X0115776Y0067249D03*
D408*
X0115664Y0060557D03*
X0115636Y0060557D03*
X0115608Y0060557D03*
X0115552Y0060557D03*
X0115300Y0060557D03*
X0115272Y0060557D03*
X0115216Y0060557D03*
X0115188Y0060557D03*
X0115160Y0060557D03*
D409*
X0115244Y0036113D03*
D410*
X0115244Y0039585D03*
X0115244Y0042525D03*
X0115748Y0045661D03*
X0117512Y0071505D03*
D411*
X0115580Y0060557D03*
X0115244Y0060557D03*
D412*
X0117148Y0071575D03*
X0116112Y0045731D03*
X0115580Y0039515D03*
D413*
X0115944Y0045703D03*
X0115748Y0052591D03*
X0118212Y0052591D03*
D414*
X0115944Y0036183D03*
D415*
X0116812Y0039067D03*
X0116644Y0039151D03*
X0116112Y0039375D03*
X0116112Y0052675D03*
X0117848Y0052675D03*
D416*
X0116280Y0049231D03*
X0116980Y0042511D03*
D417*
X0116308Y0067235D03*
D418*
X0119080Y0070679D03*
X0117512Y0049259D03*
X0116448Y0049259D03*
D419*
X0116448Y0067235D03*
D420*
X0116560Y0067235D03*
D421*
X0116644Y0042511D03*
D422*
X0116700Y0034727D03*
X0118352Y0067263D03*
D423*
X0116756Y0034741D03*
D424*
X0116756Y0052731D03*
X0116784Y0052731D03*
X0116840Y0052731D03*
X0116868Y0052731D03*
X0116896Y0052731D03*
X0116924Y0052731D03*
X0116952Y0052731D03*
X0117008Y0052731D03*
X0117036Y0052731D03*
X0117064Y0052731D03*
X0117092Y0052731D03*
X0117120Y0052731D03*
X0117176Y0052731D03*
X0117204Y0052731D03*
X0117232Y0052731D03*
D425*
X0116756Y0067235D03*
D426*
X0116812Y0034755D03*
D427*
X0116812Y0045871D03*
D428*
X0116812Y0052731D03*
X0116980Y0052731D03*
X0117148Y0052731D03*
D429*
X0116952Y0034825D03*
D430*
X0116980Y0034839D03*
D431*
X0116980Y0045899D03*
D432*
X0116980Y0067249D03*
D433*
X0116980Y0071603D03*
D434*
X0119528Y0069755D03*
X0117064Y0067235D03*
X0119388Y0056847D03*
D435*
X0117148Y0034951D03*
D436*
X0117148Y0038843D03*
D437*
X0117148Y0045927D03*
D438*
X0117148Y0055643D03*
X0117848Y0071407D03*
D439*
X0117344Y0035105D03*
D440*
X0117344Y0045969D03*
D441*
X0117344Y0049273D03*
D442*
X0117344Y0060963D03*
D443*
X0117456Y0031619D03*
D444*
X0117456Y0041993D03*
D445*
X0117484Y0031675D03*
D446*
X0117484Y0041951D03*
D447*
X0117512Y0031731D03*
D448*
X0117512Y0041881D03*
D449*
X0117512Y0067263D03*
X0119444Y0070063D03*
D450*
X0117540Y0031801D03*
D451*
X0117540Y0041811D03*
D452*
X0117568Y0031927D03*
D453*
X0117568Y0041685D03*
D454*
X0117596Y0036855D03*
X0117624Y0036855D03*
X0117652Y0036855D03*
X0117708Y0036855D03*
X0117736Y0036855D03*
X0117764Y0036855D03*
X0117792Y0036855D03*
X0117820Y0036855D03*
X0117876Y0036855D03*
X0117904Y0036855D03*
X0117932Y0036855D03*
X0117960Y0036855D03*
X0117988Y0036855D03*
X0118016Y0036855D03*
X0118072Y0036855D03*
X0118100Y0036855D03*
X0118128Y0036855D03*
X0118156Y0036855D03*
X0118184Y0036855D03*
D455*
X0117596Y0061117D03*
D456*
X0117680Y0036855D03*
X0117848Y0036855D03*
X0118044Y0036855D03*
X0118212Y0036855D03*
D457*
X0117680Y0061173D03*
D458*
X0119080Y0056469D03*
X0117680Y0067249D03*
D459*
X0117708Y0067249D03*
X0117820Y0060305D03*
D460*
X0117736Y0061215D03*
X0117764Y0061243D03*
D461*
X0117848Y0060305D03*
D462*
X0117904Y0067263D03*
X0119164Y0070567D03*
D463*
X0118016Y0063077D03*
X0117988Y0063077D03*
D464*
X0118268Y0038017D03*
X0118296Y0038017D03*
D465*
X0118296Y0067249D03*
D466*
X0118324Y0039151D03*
D467*
X0118324Y0067263D03*
D468*
X0118352Y0039165D03*
X0118408Y0039165D03*
X0118436Y0039165D03*
X0118464Y0039165D03*
X0118492Y0039165D03*
X0118520Y0039165D03*
X0118576Y0039165D03*
X0118604Y0039165D03*
X0118632Y0039165D03*
X0118660Y0039165D03*
X0118688Y0039165D03*
X0118716Y0039165D03*
X0118772Y0039165D03*
X0118800Y0039165D03*
X0118828Y0039165D03*
X0118856Y0039165D03*
X0118884Y0039165D03*
X0118940Y0039165D03*
X0118968Y0039165D03*
X0118996Y0039165D03*
X0119024Y0039165D03*
X0119052Y0039165D03*
X0119108Y0039165D03*
X0119136Y0039165D03*
X0119164Y0039165D03*
X0119192Y0039165D03*
X0119220Y0039165D03*
X0119276Y0039165D03*
X0119304Y0039165D03*
X0119332Y0039165D03*
X0119360Y0039165D03*
X0119388Y0039165D03*
X0119416Y0039165D03*
D469*
X0119248Y0030037D03*
X0119080Y0030037D03*
X0118912Y0030037D03*
X0118744Y0030037D03*
X0118548Y0030037D03*
X0118380Y0030037D03*
D470*
X0118380Y0039165D03*
X0118548Y0039165D03*
X0118744Y0039165D03*
X0118912Y0039165D03*
X0119080Y0039165D03*
X0119248Y0039165D03*
X0119444Y0039165D03*
D471*
X0118548Y0052479D03*
D472*
X0118548Y0063413D03*
D473*
X0118744Y0052381D03*
D474*
X0118744Y0063567D03*
D475*
X0118912Y0070847D03*
D476*
X0118996Y0056399D03*
D477*
X0119136Y0063693D03*
X0119332Y0070301D03*
D478*
X0119192Y0056595D03*
D479*
X0119248Y0056651D03*
D480*
X0119276Y0063693D03*
D481*
X0119304Y0063707D03*
D482*
X0119332Y0063693D03*
D483*
X0119416Y0056903D03*
D484*
X0119444Y0026201D03*
D485*
X0119444Y0054243D03*
D486*
X0119444Y0063693D03*
D487*
X0119472Y0026201D03*
X0119500Y0026201D03*
D488*
X0119472Y0045591D03*
D489*
X0119500Y0045689D03*
D490*
X0119528Y0026215D03*
D491*
X0119528Y0063679D03*
D492*
X0119556Y0046865D03*
X0119584Y0046865D03*
D493*
X0119612Y0046851D03*
D494*
X0119640Y0046837D03*
D495*
X0119668Y0046823D03*
X0119696Y0046823D03*
D496*
X0119724Y0046809D03*
D497*
X0119752Y0046795D03*
D498*
X0119780Y0046781D03*
D499*
X0119808Y0046767D03*
D500*
X0119836Y0046753D03*
D501*
X0119864Y0046739D03*
X0119892Y0046739D03*
D502*
X0119920Y0046725D03*
D503*
X0119948Y0046711D03*
D504*
X0119976Y0046697D03*
D505*
X0120004Y0046669D03*
D506*
X0120032Y0046655D03*
D507*
X0120060Y0046641D03*
D508*
X0120088Y0046627D03*
D509*
X0120116Y0046613D03*
D510*
X0120144Y0046599D03*
D511*
X0120172Y0046571D03*
D512*
X0120200Y0046557D03*
D513*
X0120228Y0046543D03*
D514*
X0120256Y0046515D03*
D515*
X0120284Y0046501D03*
D516*
X0120312Y0046473D03*
D517*
X0120340Y0046445D03*
D518*
X0120368Y0046431D03*
D519*
X0120396Y0046403D03*
D520*
X0120424Y0046375D03*
D521*
X0120452Y0046347D03*
D522*
X0120480Y0046319D03*
D523*
X0120508Y0046291D03*
D524*
X0120536Y0046249D03*
D525*
X0120564Y0046207D03*
D526*
X0120592Y0046179D03*
D527*
X0120620Y0046123D03*
D528*
X0120648Y0046067D03*
D529*
X0120676Y0045997D03*
D530*
X0120704Y0045899D03*
D531*
X0105558Y0046437D02*
X0105558Y0043770D01*
X0103425Y0043770D01*
X0103425Y0045370D01*
X0103423Y0045434D01*
X0103417Y0045499D01*
X0103408Y0045562D01*
X0103394Y0045625D01*
X0103377Y0045687D01*
X0103356Y0045748D01*
X0103331Y0045808D01*
X0103303Y0045866D01*
X0103271Y0045922D01*
X0103236Y0045976D01*
X0103198Y0046028D01*
X0103157Y0046078D01*
X0103112Y0046124D01*
X0103066Y0046169D01*
X0103016Y0046210D01*
X0102964Y0046248D01*
X0102910Y0046283D01*
X0102854Y0046315D01*
X0102796Y0046343D01*
X0102736Y0046368D01*
X0102675Y0046389D01*
X0102613Y0046406D01*
X0102550Y0046420D01*
X0102487Y0046429D01*
X0102422Y0046435D01*
X0102358Y0046437D01*
X0101825Y0046437D01*
X0101761Y0046435D01*
X0101696Y0046429D01*
X0101633Y0046420D01*
X0101570Y0046406D01*
X0101508Y0046389D01*
X0101447Y0046368D01*
X0101387Y0046343D01*
X0101329Y0046315D01*
X0101273Y0046283D01*
X0101219Y0046248D01*
X0101167Y0046210D01*
X0101117Y0046169D01*
X0101071Y0046124D01*
X0101026Y0046078D01*
X0100985Y0046028D01*
X0100947Y0045976D01*
X0100912Y0045922D01*
X0100880Y0045866D01*
X0100852Y0045808D01*
X0100827Y0045748D01*
X0100806Y0045687D01*
X0100789Y0045625D01*
X0100775Y0045562D01*
X0100766Y0045499D01*
X0100760Y0045434D01*
X0100758Y0045370D01*
X0100758Y0043770D01*
X0098642Y0042442D02*
X0093842Y0042442D01*
X0093842Y0044576D01*
X0093842Y0046498D02*
X0098642Y0046498D01*
X0098642Y0048632D01*
X0096509Y0048098D02*
X0096509Y0046498D01*
X0093842Y0046498D02*
X0093842Y0048632D01*
X0093842Y0050545D02*
X0093842Y0051879D01*
X0093844Y0051951D01*
X0093850Y0052023D01*
X0093860Y0052095D01*
X0093873Y0052166D01*
X0093891Y0052236D01*
X0093912Y0052305D01*
X0093937Y0052372D01*
X0093965Y0052439D01*
X0093997Y0052503D01*
X0094033Y0052566D01*
X0094072Y0052627D01*
X0094114Y0052686D01*
X0094159Y0052742D01*
X0094207Y0052796D01*
X0094258Y0052847D01*
X0094312Y0052895D01*
X0094368Y0052940D01*
X0094427Y0052982D01*
X0094488Y0053021D01*
X0094551Y0053057D01*
X0094615Y0053089D01*
X0094682Y0053117D01*
X0094749Y0053142D01*
X0094818Y0053163D01*
X0094888Y0053181D01*
X0094959Y0053194D01*
X0095031Y0053204D01*
X0095103Y0053210D01*
X0095175Y0053212D01*
X0097309Y0053212D01*
X0097381Y0053210D01*
X0097453Y0053204D01*
X0097525Y0053194D01*
X0097596Y0053181D01*
X0097666Y0053163D01*
X0097735Y0053142D01*
X0097802Y0053117D01*
X0097869Y0053089D01*
X0097933Y0053057D01*
X0097996Y0053021D01*
X0098057Y0052982D01*
X0098116Y0052940D01*
X0098172Y0052895D01*
X0098226Y0052847D01*
X0098277Y0052796D01*
X0098325Y0052742D01*
X0098370Y0052686D01*
X0098412Y0052627D01*
X0098451Y0052566D01*
X0098487Y0052503D01*
X0098519Y0052439D01*
X0098547Y0052372D01*
X0098572Y0052305D01*
X0098593Y0052236D01*
X0098611Y0052166D01*
X0098624Y0052095D01*
X0098634Y0052023D01*
X0098640Y0051951D01*
X0098642Y0051879D01*
X0098642Y0050545D01*
X0093842Y0050545D01*
X0100758Y0056094D02*
X0100758Y0057428D01*
X0100760Y0057500D01*
X0100766Y0057572D01*
X0100776Y0057644D01*
X0100789Y0057715D01*
X0100807Y0057785D01*
X0100828Y0057854D01*
X0100853Y0057921D01*
X0100881Y0057988D01*
X0100913Y0058052D01*
X0100949Y0058115D01*
X0100988Y0058176D01*
X0101030Y0058235D01*
X0101075Y0058291D01*
X0101123Y0058345D01*
X0101174Y0058396D01*
X0101228Y0058444D01*
X0101284Y0058489D01*
X0101343Y0058531D01*
X0101404Y0058570D01*
X0101467Y0058606D01*
X0101531Y0058638D01*
X0101598Y0058666D01*
X0101665Y0058691D01*
X0101734Y0058712D01*
X0101804Y0058730D01*
X0101875Y0058743D01*
X0101947Y0058753D01*
X0102019Y0058759D01*
X0102091Y0058761D01*
X0104225Y0058761D01*
X0104297Y0058759D01*
X0104369Y0058753D01*
X0104441Y0058743D01*
X0104512Y0058730D01*
X0104582Y0058712D01*
X0104651Y0058691D01*
X0104718Y0058666D01*
X0104785Y0058638D01*
X0104849Y0058606D01*
X0104912Y0058570D01*
X0104973Y0058531D01*
X0105032Y0058489D01*
X0105088Y0058444D01*
X0105142Y0058396D01*
X0105193Y0058345D01*
X0105241Y0058291D01*
X0105286Y0058235D01*
X0105328Y0058176D01*
X0105367Y0058115D01*
X0105403Y0058052D01*
X0105435Y0057988D01*
X0105463Y0057921D01*
X0105488Y0057854D01*
X0105509Y0057785D01*
X0105527Y0057715D01*
X0105540Y0057644D01*
X0105550Y0057572D01*
X0105556Y0057500D01*
X0105558Y0057428D01*
X0105558Y0056094D01*
X0100758Y0056094D01*
X0097575Y0057877D02*
X0098642Y0059211D01*
X0093842Y0059211D01*
X0093842Y0060544D02*
X0093842Y0057877D01*
X0100758Y0061984D02*
X0100758Y0063050D01*
X0100758Y0061984D02*
X0100760Y0061920D01*
X0100766Y0061855D01*
X0100775Y0061792D01*
X0100789Y0061729D01*
X0100806Y0061667D01*
X0100827Y0061606D01*
X0100852Y0061546D01*
X0100880Y0061488D01*
X0100912Y0061432D01*
X0100947Y0061378D01*
X0100985Y0061326D01*
X0101026Y0061276D01*
X0101071Y0061230D01*
X0101117Y0061185D01*
X0101167Y0061144D01*
X0101219Y0061106D01*
X0101273Y0061071D01*
X0101329Y0061039D01*
X0101387Y0061011D01*
X0101447Y0060986D01*
X0101508Y0060965D01*
X0101570Y0060948D01*
X0101633Y0060934D01*
X0101696Y0060925D01*
X0101761Y0060919D01*
X0101825Y0060917D01*
X0104491Y0060917D01*
X0104555Y0060919D01*
X0104620Y0060925D01*
X0104683Y0060934D01*
X0104746Y0060948D01*
X0104808Y0060965D01*
X0104869Y0060986D01*
X0104929Y0061011D01*
X0104987Y0061039D01*
X0105043Y0061071D01*
X0105097Y0061106D01*
X0105149Y0061144D01*
X0105199Y0061185D01*
X0105245Y0061230D01*
X0105290Y0061276D01*
X0105331Y0061326D01*
X0105369Y0061378D01*
X0105404Y0061432D01*
X0105436Y0061488D01*
X0105464Y0061546D01*
X0105489Y0061606D01*
X0105510Y0061667D01*
X0105527Y0061729D01*
X0105541Y0061792D01*
X0105550Y0061855D01*
X0105556Y0061920D01*
X0105558Y0061984D01*
X0105558Y0063050D01*
X0098642Y0063624D02*
X0094909Y0062557D01*
X0094909Y0065224D01*
X0095975Y0064424D02*
X0093842Y0064424D01*
X0100758Y0067326D02*
X0100758Y0069993D01*
X0100758Y0068660D02*
X0105558Y0068660D01*
X0104491Y0067326D01*
X0103425Y0072006D02*
X0105558Y0072006D01*
X0105558Y0074673D01*
X0103425Y0073606D02*
X0103425Y0072006D01*
X0100758Y0072006D02*
X0100758Y0073606D01*
X0100760Y0073670D01*
X0100766Y0073735D01*
X0100775Y0073798D01*
X0100789Y0073861D01*
X0100806Y0073923D01*
X0100827Y0073984D01*
X0100852Y0074044D01*
X0100880Y0074102D01*
X0100912Y0074158D01*
X0100947Y0074212D01*
X0100985Y0074264D01*
X0101026Y0074314D01*
X0101071Y0074360D01*
X0101117Y0074405D01*
X0101167Y0074446D01*
X0101219Y0074484D01*
X0101273Y0074519D01*
X0101329Y0074551D01*
X0101387Y0074579D01*
X0101447Y0074604D01*
X0101508Y0074625D01*
X0101570Y0074642D01*
X0101633Y0074656D01*
X0101696Y0074665D01*
X0101761Y0074671D01*
X0101825Y0074673D01*
X0102358Y0074673D01*
X0102422Y0074671D01*
X0102487Y0074665D01*
X0102550Y0074656D01*
X0102613Y0074642D01*
X0102675Y0074625D01*
X0102736Y0074604D01*
X0102796Y0074579D01*
X0102854Y0074551D01*
X0102910Y0074519D01*
X0102964Y0074484D01*
X0103016Y0074446D01*
X0103066Y0074405D01*
X0103112Y0074360D01*
X0103157Y0074314D01*
X0103198Y0074264D01*
X0103236Y0074212D01*
X0103271Y0074158D01*
X0103303Y0074102D01*
X0103331Y0074044D01*
X0103356Y0073984D01*
X0103377Y0073923D01*
X0103394Y0073861D01*
X0103408Y0073798D01*
X0103417Y0073735D01*
X0103423Y0073670D01*
X0103425Y0073606D01*
X0102758Y0038884D02*
X0103558Y0037417D01*
X0105558Y0037950D02*
X0105556Y0038036D01*
X0105551Y0038121D01*
X0105541Y0038207D01*
X0105529Y0038292D01*
X0105512Y0038376D01*
X0105492Y0038459D01*
X0105468Y0038542D01*
X0105441Y0038623D01*
X0105411Y0038703D01*
X0105377Y0038782D01*
X0105339Y0038859D01*
X0105299Y0038935D01*
X0105255Y0039008D01*
X0105208Y0039080D01*
X0105158Y0039150D01*
X0101425Y0036750D02*
X0101359Y0036818D01*
X0101297Y0036887D01*
X0101238Y0036960D01*
X0101182Y0037035D01*
X0101129Y0037112D01*
X0101079Y0037191D01*
X0101032Y0037272D01*
X0100989Y0037356D01*
X0100950Y0037440D01*
X0100914Y0037527D01*
X0100881Y0037615D01*
X0100853Y0037704D01*
X0100828Y0037794D01*
X0100806Y0037885D01*
X0100789Y0037977D01*
X0100775Y0038070D01*
X0100766Y0038163D01*
X0100760Y0038256D01*
X0100758Y0038350D01*
X0100760Y0038414D01*
X0100766Y0038479D01*
X0100775Y0038542D01*
X0100789Y0038605D01*
X0100806Y0038667D01*
X0100827Y0038728D01*
X0100852Y0038788D01*
X0100880Y0038846D01*
X0100912Y0038902D01*
X0100947Y0038956D01*
X0100985Y0039008D01*
X0101026Y0039058D01*
X0101071Y0039104D01*
X0101117Y0039149D01*
X0101167Y0039190D01*
X0101219Y0039228D01*
X0101273Y0039263D01*
X0101329Y0039295D01*
X0101387Y0039323D01*
X0101447Y0039348D01*
X0101508Y0039369D01*
X0101570Y0039386D01*
X0101633Y0039400D01*
X0101696Y0039409D01*
X0101761Y0039415D01*
X0101825Y0039417D01*
X0101887Y0039415D01*
X0101950Y0039410D01*
X0102011Y0039401D01*
X0102073Y0039388D01*
X0102133Y0039372D01*
X0102192Y0039353D01*
X0102251Y0039330D01*
X0102307Y0039304D01*
X0102362Y0039274D01*
X0102416Y0039242D01*
X0102467Y0039206D01*
X0102516Y0039168D01*
X0102563Y0039127D01*
X0102608Y0039083D01*
X0102649Y0039036D01*
X0102689Y0038988D01*
X0102725Y0038937D01*
X0102758Y0038884D01*
X0103558Y0037417D02*
X0103591Y0037364D01*
X0103627Y0037313D01*
X0103667Y0037265D01*
X0103708Y0037218D01*
X0103753Y0037174D01*
X0103800Y0037133D01*
X0103849Y0037095D01*
X0103900Y0037059D01*
X0103954Y0037027D01*
X0104009Y0036997D01*
X0104065Y0036971D01*
X0104124Y0036948D01*
X0104183Y0036929D01*
X0104243Y0036913D01*
X0104305Y0036900D01*
X0104366Y0036891D01*
X0104429Y0036886D01*
X0104491Y0036884D01*
X0104491Y0036883D02*
X0104555Y0036885D01*
X0104620Y0036891D01*
X0104683Y0036900D01*
X0104746Y0036914D01*
X0104808Y0036931D01*
X0104869Y0036952D01*
X0104929Y0036977D01*
X0104987Y0037005D01*
X0105043Y0037037D01*
X0105097Y0037072D01*
X0105149Y0037110D01*
X0105199Y0037151D01*
X0105245Y0037196D01*
X0105290Y0037242D01*
X0105331Y0037292D01*
X0105369Y0037344D01*
X0105404Y0037398D01*
X0105436Y0037454D01*
X0105464Y0037512D01*
X0105489Y0037572D01*
X0105510Y0037633D01*
X0105527Y0037695D01*
X0105541Y0037758D01*
X0105550Y0037821D01*
X0105556Y0037886D01*
X0105558Y0037950D01*
X0105558Y0035126D02*
X0105558Y0034060D01*
X0105556Y0033996D01*
X0105550Y0033931D01*
X0105541Y0033868D01*
X0105527Y0033805D01*
X0105510Y0033743D01*
X0105489Y0033682D01*
X0105464Y0033622D01*
X0105436Y0033564D01*
X0105404Y0033508D01*
X0105369Y0033454D01*
X0105331Y0033402D01*
X0105290Y0033352D01*
X0105245Y0033306D01*
X0105199Y0033261D01*
X0105149Y0033220D01*
X0105097Y0033182D01*
X0105043Y0033147D01*
X0104987Y0033115D01*
X0104929Y0033087D01*
X0104869Y0033062D01*
X0104808Y0033041D01*
X0104746Y0033024D01*
X0104683Y0033010D01*
X0104620Y0033001D01*
X0104555Y0032995D01*
X0104491Y0032993D01*
X0101825Y0032993D01*
X0101761Y0032995D01*
X0101696Y0033001D01*
X0101633Y0033010D01*
X0101570Y0033024D01*
X0101508Y0033041D01*
X0101447Y0033062D01*
X0101387Y0033087D01*
X0101329Y0033115D01*
X0101273Y0033147D01*
X0101219Y0033182D01*
X0101167Y0033220D01*
X0101117Y0033261D01*
X0101071Y0033306D01*
X0101026Y0033352D01*
X0100985Y0033402D01*
X0100947Y0033454D01*
X0100912Y0033508D01*
X0100880Y0033564D01*
X0100852Y0033622D01*
X0100827Y0033682D01*
X0100806Y0033743D01*
X0100789Y0033805D01*
X0100775Y0033868D01*
X0100766Y0033931D01*
X0100760Y0033996D01*
X0100758Y0034060D01*
X0100758Y0035126D01*
D532*
X0114352Y0074396D02*
X0114159Y0076301D01*
X0113518Y0076506D01*
X0112920Y0076814D01*
X0111436Y0075604D01*
X0110418Y0076621D01*
X0111629Y0078105D01*
X0111321Y0078703D01*
X0113367Y0079551D01*
X0113579Y0079172D01*
X0113873Y0078854D01*
X0114234Y0078613D01*
X0114641Y0078462D01*
X0115072Y0078411D01*
X0115511Y0078464D01*
X0115924Y0078620D01*
X0116289Y0078870D01*
X0116583Y0079198D01*
X0116792Y0079588D01*
X0116901Y0080016D01*
X0116906Y0080458D01*
X0116806Y0080888D01*
X0116606Y0081282D01*
X0116318Y0081617D01*
X0115959Y0081875D01*
X0115549Y0082039D01*
X0115112Y0082102D01*
X0114672Y0082058D01*
X0114256Y0081912D01*
X0113886Y0081671D01*
X0113584Y0081348D01*
X0113367Y0080963D01*
X0111321Y0081811D01*
X0111629Y0082409D01*
X0110418Y0083893D01*
X0111436Y0084911D01*
X0112920Y0083700D01*
X0113518Y0084008D01*
X0114159Y0084213D01*
X0114352Y0086118D01*
X0115792Y0086118D01*
X0115985Y0084213D01*
X0116626Y0084008D01*
X0117224Y0083700D01*
X0118708Y0084911D01*
X0119726Y0083893D01*
X0118515Y0082409D01*
X0118823Y0081811D01*
X0119028Y0081170D01*
X0120933Y0080977D01*
X0120933Y0079537D01*
X0119028Y0079344D01*
X0118823Y0078703D01*
X0118515Y0078105D01*
X0119726Y0076621D01*
X0118708Y0075604D01*
X0117224Y0076814D01*
X0116626Y0076506D01*
X0115985Y0076301D01*
X0115792Y0074396D01*
X0114352Y0074396D01*
X0114297Y0074944D02*
X0115847Y0074944D01*
X0115907Y0075533D02*
X0114237Y0075533D01*
X0114177Y0076122D02*
X0115967Y0076122D01*
X0117024Y0076711D02*
X0113120Y0076711D01*
X0112795Y0076711D02*
X0110492Y0076711D01*
X0110918Y0076122D02*
X0112072Y0076122D01*
X0110972Y0077300D02*
X0119172Y0077300D01*
X0119652Y0076711D02*
X0117349Y0076711D01*
X0118072Y0076122D02*
X0119226Y0076122D01*
X0118692Y0077889D02*
X0111452Y0077889D01*
X0111437Y0078478D02*
X0114598Y0078478D01*
X0115548Y0078478D02*
X0118707Y0078478D01*
X0118940Y0079067D02*
X0116466Y0079067D01*
X0116809Y0079657D02*
X0120933Y0079657D01*
X0120933Y0080246D02*
X0116904Y0080246D01*
X0116818Y0080835D02*
X0120933Y0080835D01*
X0118947Y0081424D02*
X0116484Y0081424D01*
X0115615Y0082013D02*
X0118719Y0082013D01*
X0118673Y0082602D02*
X0111471Y0082602D01*
X0111425Y0082013D02*
X0114542Y0082013D01*
X0113654Y0081424D02*
X0112256Y0081424D01*
X0110991Y0083191D02*
X0119153Y0083191D01*
X0119633Y0083780D02*
X0117321Y0083780D01*
X0117069Y0083780D02*
X0113075Y0083780D01*
X0112823Y0083780D02*
X0110511Y0083780D01*
X0110895Y0084369D02*
X0112100Y0084369D01*
X0114174Y0084369D02*
X0115970Y0084369D01*
X0115910Y0084958D02*
X0114234Y0084958D01*
X0114294Y0085547D02*
X0115850Y0085547D01*
X0118044Y0084369D02*
X0119249Y0084369D01*
X0113676Y0079067D02*
X0112200Y0079067D01*
D533*
X0081400Y0040583D02*
X0081400Y0038583D01*
X0083969Y0044199D02*
X0078800Y0044199D01*
X0078800Y0047974D01*
X0084000Y0049907D02*
X0084000Y0051714D01*
X0078800Y0053593D02*
X0078800Y0057367D01*
X0083969Y0057367D01*
X0081400Y0061083D02*
X0081400Y0063083D01*
X0081400Y0067183D02*
X0081400Y0069183D01*
M02*
