G75*
%MOIN*%
%OFA0B0*%
%FSLAX25Y25*%
%IPPOS*%
%LPD*%
%AMOC8*
5,1,8,0,0,1.08239X$1,22.5*
%
%ADD10C,0.07800*%
%ADD11C,0.08200*%
%ADD12R,0.04343X0.04343*%
%ADD13R,0.03950X0.03950*%
D10*
X0011800Y0013983D03*
X0021800Y0013983D03*
X0031800Y0013983D03*
X0041800Y0013983D03*
X0051800Y0013983D03*
X0061800Y0013983D03*
X0071800Y0013983D03*
X0081800Y0013983D03*
X0091800Y0013983D03*
X0101800Y0013983D03*
X0101800Y0023933D03*
X0091800Y0023933D03*
X0081800Y0023933D03*
X0071800Y0023933D03*
X0061800Y0023933D03*
X0051800Y0023933D03*
X0041800Y0023933D03*
X0031800Y0023933D03*
X0021800Y0023933D03*
X0011800Y0023933D03*
X0011800Y0084033D03*
X0021800Y0084033D03*
X0031800Y0084033D03*
X0041800Y0084033D03*
X0051800Y0084033D03*
X0061800Y0084033D03*
X0071800Y0084033D03*
X0081800Y0084033D03*
X0091800Y0084033D03*
X0101800Y0084033D03*
X0101800Y0093983D03*
X0091800Y0093983D03*
X0081800Y0093983D03*
X0071800Y0093983D03*
X0061800Y0093983D03*
X0051800Y0093983D03*
X0041800Y0093983D03*
X0031800Y0093983D03*
X0021800Y0093983D03*
X0011800Y0093983D03*
D11*
X0011800Y0068933D03*
X0011800Y0058933D03*
X0011800Y0048933D03*
X0011800Y0038933D03*
X0031800Y0038933D03*
X0041800Y0038933D03*
X0051800Y0038933D03*
X0061800Y0038933D03*
X0071800Y0038933D03*
X0081800Y0038933D03*
X0081800Y0048933D03*
X0071800Y0048933D03*
X0061800Y0048933D03*
X0051800Y0048933D03*
X0041800Y0048933D03*
X0031800Y0048933D03*
X0031800Y0058933D03*
X0041800Y0058933D03*
X0051800Y0058933D03*
X0061800Y0058933D03*
X0071800Y0058933D03*
X0081800Y0058933D03*
X0081800Y0068933D03*
X0071800Y0068933D03*
X0061800Y0068933D03*
X0051800Y0068933D03*
X0041800Y0068933D03*
X0031800Y0068933D03*
X0102149Y0058930D03*
X0101975Y0048932D03*
X0101800Y0038933D03*
X0102324Y0068928D03*
D12*
X0110829Y0064633D03*
X0110829Y0058333D03*
X0126971Y0058333D03*
X0126971Y0064633D03*
X0126971Y0083333D03*
X0126971Y0089633D03*
X0110829Y0089633D03*
X0110829Y0083333D03*
X0110829Y0024633D03*
X0110829Y0018333D03*
X0126971Y0018333D03*
X0126971Y0024633D03*
D13*
X0124400Y0051483D03*
X0118400Y0051483D03*
X0118400Y0076483D03*
X0124400Y0076483D03*
M02*
