%
M48
M72
T01C0.01000
T02C0.04000
%
T01
X122000Y72083
X123900Y86483
X127000Y94583
T02
X11800Y13983
X21800Y13983
X31800Y13983
X41800Y13983
X51800Y13983
X61800Y13983
X71800Y13983
X81800Y13983
X91800Y13983
X101800Y13983
X101800Y23933
X91800Y23933
X81800Y23933
X71800Y23933
X61800Y23933
X51800Y23933
X41800Y23933
X31800Y23933
X21800Y23933
X11800Y23933
X11800Y38933
X11800Y48933
X11800Y58933
X11800Y68933
X31800Y68933
X41800Y68933
X51800Y68933
X61800Y68933
X71800Y68933
X81800Y68933
X81800Y58933
X71800Y58933
X61800Y58933
X51800Y58933
X41800Y58933
X31800Y58933
X31800Y48933
X41800Y48933
X51800Y48933
X61800Y48933
X71800Y48933
X81800Y48933
X81800Y38933
X71800Y38933
X61800Y38933
X51800Y38933
X41800Y38933
X31800Y38933
X101800Y38933
X101975Y48932
X102149Y58930
X102324Y68928
X101800Y84033
X91800Y84033
X81800Y84033
X71800Y84033
X61800Y84033
X51800Y84033
X41800Y84033
X31800Y84033
X21800Y84033
X11800Y84033
X11800Y93983
X21800Y93983
X31800Y93983
X41800Y93983
X51800Y93983
X61800Y93983
X71800Y93983
X81800Y93983
X91800Y93983
X101800Y93983
M30
