G75*
%MOIN*%
%OFA0B0*%
%FSLAX25Y25*%
%IPPOS*%
%LPD*%
%AMOC8*
5,1,8,0,0,1.08239X$1,22.5*
%
%ADD10C,0.07000*%
%ADD11C,0.07400*%
%ADD12C,0.00800*%
%ADD13C,0.01800*%
D10*
X0011800Y0013983D03*
X0021800Y0013983D03*
X0031800Y0013983D03*
X0041800Y0013983D03*
X0051800Y0013983D03*
X0061800Y0013983D03*
X0071800Y0013983D03*
X0081800Y0013983D03*
X0091800Y0013983D03*
X0101800Y0013983D03*
X0101800Y0023933D03*
X0091800Y0023933D03*
X0081800Y0023933D03*
X0071800Y0023933D03*
X0061800Y0023933D03*
X0051800Y0023933D03*
X0041800Y0023933D03*
X0031800Y0023933D03*
X0021800Y0023933D03*
X0011800Y0023933D03*
X0011800Y0084033D03*
X0021800Y0084033D03*
X0031800Y0084033D03*
X0041800Y0084033D03*
X0051800Y0084033D03*
X0061800Y0084033D03*
X0071800Y0084033D03*
X0081800Y0084033D03*
X0091800Y0084033D03*
X0101800Y0084033D03*
X0101800Y0093983D03*
X0091800Y0093983D03*
X0081800Y0093983D03*
X0071800Y0093983D03*
X0061800Y0093983D03*
X0051800Y0093983D03*
X0041800Y0093983D03*
X0031800Y0093983D03*
X0021800Y0093983D03*
X0011800Y0093983D03*
D11*
X0011800Y0068933D03*
X0011800Y0058933D03*
X0011800Y0048933D03*
X0011800Y0038933D03*
X0031800Y0038933D03*
X0041800Y0038933D03*
X0051800Y0038933D03*
X0061800Y0038933D03*
X0071800Y0038933D03*
X0081800Y0038933D03*
X0081800Y0048933D03*
X0071800Y0048933D03*
X0061800Y0048933D03*
X0051800Y0048933D03*
X0041800Y0048933D03*
X0031800Y0048933D03*
X0031800Y0058933D03*
X0041800Y0058933D03*
X0051800Y0058933D03*
X0061800Y0058933D03*
X0071800Y0058933D03*
X0081800Y0058933D03*
X0081800Y0068933D03*
X0071800Y0068933D03*
X0061800Y0068933D03*
X0051800Y0068933D03*
X0041800Y0068933D03*
X0031800Y0068933D03*
X0102149Y0058930D03*
X0101975Y0048932D03*
X0101800Y0038933D03*
X0102324Y0068928D03*
D12*
X0015615Y0011434D02*
X0014464Y0010283D01*
X0019136Y0010283D01*
X0017985Y0011434D01*
X0017300Y0013088D01*
X0017300Y0014878D01*
X0017985Y0016532D01*
X0019251Y0017798D01*
X0020905Y0018483D01*
X0022695Y0018483D01*
X0024349Y0017798D01*
X0025615Y0016532D01*
X0026300Y0014878D01*
X0026300Y0013088D01*
X0025615Y0011434D01*
X0024464Y0010283D01*
X0029136Y0010283D01*
X0027985Y0011434D01*
X0027300Y0013088D01*
X0027300Y0014878D01*
X0027985Y0016532D01*
X0029251Y0017798D01*
X0030905Y0018483D01*
X0032695Y0018483D01*
X0034349Y0017798D01*
X0035615Y0016532D01*
X0036300Y0014878D01*
X0036300Y0013088D01*
X0035615Y0011434D01*
X0034464Y0010283D01*
X0039136Y0010283D01*
X0037985Y0011434D01*
X0037300Y0013088D01*
X0037300Y0014878D01*
X0037985Y0016532D01*
X0039251Y0017798D01*
X0040905Y0018483D01*
X0042695Y0018483D01*
X0044349Y0017798D01*
X0045615Y0016532D01*
X0046300Y0014878D01*
X0046300Y0013088D01*
X0045615Y0011434D01*
X0044464Y0010283D01*
X0049136Y0010283D01*
X0047985Y0011434D01*
X0047300Y0013088D01*
X0047300Y0014878D01*
X0047985Y0016532D01*
X0049251Y0017798D01*
X0050905Y0018483D01*
X0052695Y0018483D01*
X0054349Y0017798D01*
X0055615Y0016532D01*
X0056300Y0014878D01*
X0056300Y0013088D01*
X0055615Y0011434D01*
X0054464Y0010283D01*
X0059136Y0010283D01*
X0057985Y0011434D01*
X0057300Y0013088D01*
X0057300Y0014878D01*
X0057985Y0016532D01*
X0059251Y0017798D01*
X0060905Y0018483D01*
X0062695Y0018483D01*
X0064349Y0017798D01*
X0065615Y0016532D01*
X0066300Y0014878D01*
X0066300Y0013088D01*
X0065615Y0011434D01*
X0064464Y0010283D01*
X0069136Y0010283D01*
X0067985Y0011434D01*
X0067300Y0013088D01*
X0067300Y0014878D01*
X0067985Y0016532D01*
X0069251Y0017798D01*
X0070905Y0018483D01*
X0072695Y0018483D01*
X0074349Y0017798D01*
X0075615Y0016532D01*
X0076300Y0014878D01*
X0076300Y0013088D01*
X0075615Y0011434D01*
X0074464Y0010283D01*
X0079136Y0010283D01*
X0077985Y0011434D01*
X0077300Y0013088D01*
X0077300Y0014878D01*
X0077985Y0016532D01*
X0079251Y0017798D01*
X0080905Y0018483D01*
X0082695Y0018483D01*
X0084349Y0017798D01*
X0085615Y0016532D01*
X0086300Y0014878D01*
X0086300Y0013088D01*
X0085615Y0011434D01*
X0084464Y0010283D01*
X0089136Y0010283D01*
X0087985Y0011434D01*
X0087300Y0013088D01*
X0087300Y0014878D01*
X0087985Y0016532D01*
X0089251Y0017798D01*
X0090905Y0018483D01*
X0092695Y0018483D01*
X0094349Y0017798D01*
X0095615Y0016532D01*
X0096300Y0014878D01*
X0096300Y0013088D01*
X0095615Y0011434D01*
X0094464Y0010283D01*
X0098570Y0010283D01*
X0098062Y0010791D01*
X0097609Y0011415D01*
X0097259Y0012102D01*
X0097021Y0012836D01*
X0096902Y0013583D01*
X0101400Y0013583D01*
X0101400Y0014383D01*
X0096902Y0014383D01*
X0097021Y0015130D01*
X0097259Y0015864D01*
X0097609Y0016551D01*
X0098062Y0017175D01*
X0098608Y0017721D01*
X0099232Y0018174D01*
X0099919Y0018524D01*
X0100653Y0018762D01*
X0101400Y0018881D01*
X0101400Y0014383D01*
X0102200Y0014383D01*
X0106698Y0014383D01*
X0106579Y0015130D01*
X0106341Y0015864D01*
X0105991Y0016551D01*
X0105537Y0017175D01*
X0104992Y0017721D01*
X0104368Y0018174D01*
X0103681Y0018524D01*
X0102947Y0018762D01*
X0102200Y0018881D01*
X0102200Y0014383D01*
X0102200Y0013583D01*
X0106698Y0013583D01*
X0106579Y0012836D01*
X0106341Y0012102D01*
X0105991Y0011415D01*
X0105537Y0010791D01*
X0105030Y0010283D01*
X0130500Y0010283D01*
X0130500Y0097683D01*
X0104464Y0097683D01*
X0105615Y0096532D01*
X0106300Y0094878D01*
X0106300Y0093088D01*
X0105615Y0091434D01*
X0104564Y0090383D01*
X0121980Y0090383D01*
X0123980Y0088383D01*
X0124687Y0088383D01*
X0125800Y0087270D01*
X0125800Y0085696D01*
X0124687Y0084583D01*
X0123113Y0084583D01*
X0122000Y0085696D01*
X0122000Y0086403D01*
X0120820Y0087583D01*
X0104614Y0087583D01*
X0105615Y0086582D01*
X0106300Y0084928D01*
X0106300Y0083138D01*
X0105615Y0081484D01*
X0104349Y0080218D01*
X0102695Y0079533D01*
X0100905Y0079533D01*
X0099251Y0080218D01*
X0097985Y0081484D01*
X0097300Y0083138D01*
X0097300Y0084928D01*
X0097985Y0086582D01*
X0098986Y0087583D01*
X0094614Y0087583D01*
X0095615Y0086582D01*
X0096300Y0084928D01*
X0096300Y0083138D01*
X0095615Y0081484D01*
X0094349Y0080218D01*
X0092695Y0079533D01*
X0090905Y0079533D01*
X0089251Y0080218D01*
X0087985Y0081484D01*
X0087300Y0083138D01*
X0087300Y0084928D01*
X0087985Y0086582D01*
X0088986Y0087583D01*
X0084614Y0087583D01*
X0085615Y0086582D01*
X0086300Y0084928D01*
X0086300Y0083138D01*
X0085615Y0081484D01*
X0084349Y0080218D01*
X0082695Y0079533D01*
X0080905Y0079533D01*
X0079251Y0080218D01*
X0077985Y0081484D01*
X0077300Y0083138D01*
X0077300Y0084928D01*
X0077985Y0086582D01*
X0078986Y0087583D01*
X0074614Y0087583D01*
X0075615Y0086582D01*
X0076300Y0084928D01*
X0076300Y0083138D01*
X0075615Y0081484D01*
X0074349Y0080218D01*
X0072695Y0079533D01*
X0070905Y0079533D01*
X0069251Y0080218D01*
X0067985Y0081484D01*
X0067300Y0083138D01*
X0067300Y0084928D01*
X0067985Y0086582D01*
X0068986Y0087583D01*
X0064614Y0087583D01*
X0065615Y0086582D01*
X0066300Y0084928D01*
X0066300Y0083138D01*
X0065615Y0081484D01*
X0064349Y0080218D01*
X0062695Y0079533D01*
X0060905Y0079533D01*
X0059251Y0080218D01*
X0057985Y0081484D01*
X0057300Y0083138D01*
X0057300Y0084928D01*
X0057985Y0086582D01*
X0058986Y0087583D01*
X0054614Y0087583D01*
X0055615Y0086582D01*
X0056300Y0084928D01*
X0056300Y0083138D01*
X0055615Y0081484D01*
X0054349Y0080218D01*
X0052695Y0079533D01*
X0050905Y0079533D01*
X0049251Y0080218D01*
X0047985Y0081484D01*
X0047300Y0083138D01*
X0047300Y0084928D01*
X0047985Y0086582D01*
X0048986Y0087583D01*
X0047330Y0087583D01*
X0045824Y0086077D01*
X0046300Y0084928D01*
X0046300Y0083138D01*
X0045615Y0081484D01*
X0044349Y0080218D01*
X0042695Y0079533D01*
X0040905Y0079533D01*
X0039251Y0080218D01*
X0037985Y0081484D01*
X0037300Y0083138D01*
X0037300Y0084928D01*
X0037985Y0086582D01*
X0039251Y0087848D01*
X0040905Y0088533D01*
X0042695Y0088533D01*
X0043844Y0088057D01*
X0046170Y0090383D01*
X0049036Y0090383D01*
X0047985Y0091434D01*
X0047300Y0093088D01*
X0047300Y0094878D01*
X0047985Y0096532D01*
X0049136Y0097683D01*
X0044464Y0097683D01*
X0045615Y0096532D01*
X0046300Y0094878D01*
X0046300Y0093088D01*
X0045615Y0091434D01*
X0044349Y0090168D01*
X0042695Y0089483D01*
X0040905Y0089483D01*
X0039251Y0090168D01*
X0037985Y0091434D01*
X0037300Y0093088D01*
X0037300Y0094878D01*
X0037985Y0096532D01*
X0039136Y0097683D01*
X0034464Y0097683D01*
X0035615Y0096532D01*
X0036300Y0094878D01*
X0036300Y0093088D01*
X0035615Y0091434D01*
X0034349Y0090168D01*
X0032695Y0089483D01*
X0030905Y0089483D01*
X0029251Y0090168D01*
X0027985Y0091434D01*
X0027300Y0093088D01*
X0027300Y0094878D01*
X0027985Y0096532D01*
X0029136Y0097683D01*
X0025030Y0097683D01*
X0025537Y0097175D01*
X0025991Y0096551D01*
X0026341Y0095864D01*
X0026579Y0095130D01*
X0026698Y0094383D01*
X0022200Y0094383D01*
X0022200Y0093583D01*
X0022200Y0089085D01*
X0022947Y0089204D01*
X0023681Y0089442D01*
X0024368Y0089792D01*
X0024992Y0090246D01*
X0025537Y0090791D01*
X0025991Y0091415D01*
X0026341Y0092102D01*
X0026579Y0092836D01*
X0026698Y0093583D01*
X0022200Y0093583D01*
X0021400Y0093583D01*
X0021400Y0089085D01*
X0020653Y0089204D01*
X0019919Y0089442D01*
X0019232Y0089792D01*
X0018608Y0090246D01*
X0018062Y0090791D01*
X0017609Y0091415D01*
X0017259Y0092102D01*
X0017021Y0092836D01*
X0016902Y0093583D01*
X0021400Y0093583D01*
X0021400Y0094383D01*
X0016902Y0094383D01*
X0017021Y0095130D01*
X0017259Y0095864D01*
X0017609Y0096551D01*
X0018062Y0097175D01*
X0018570Y0097683D01*
X0014464Y0097683D01*
X0015615Y0096532D01*
X0016300Y0094878D01*
X0016300Y0093088D01*
X0015615Y0091434D01*
X0014349Y0090168D01*
X0012695Y0089483D01*
X0010905Y0089483D01*
X0009251Y0090168D01*
X0007985Y0091434D01*
X0007700Y0092122D01*
X0007700Y0085894D01*
X0007985Y0086582D01*
X0009251Y0087848D01*
X0010905Y0088533D01*
X0012695Y0088533D01*
X0014349Y0087848D01*
X0015615Y0086582D01*
X0016300Y0084928D01*
X0016300Y0083138D01*
X0015615Y0081484D01*
X0014349Y0080218D01*
X0012695Y0079533D01*
X0010905Y0079533D01*
X0009251Y0080218D01*
X0007985Y0081484D01*
X0007700Y0082172D01*
X0007700Y0071316D01*
X0007816Y0071595D01*
X0009138Y0072918D01*
X0010865Y0073633D01*
X0012735Y0073633D01*
X0014462Y0072918D01*
X0015784Y0071595D01*
X0016500Y0069868D01*
X0016500Y0067998D01*
X0015784Y0066271D01*
X0014462Y0064949D01*
X0012735Y0064233D01*
X0010865Y0064233D01*
X0009138Y0064949D01*
X0007816Y0066271D01*
X0007700Y0066550D01*
X0007700Y0061316D01*
X0007816Y0061595D01*
X0009138Y0062918D01*
X0010865Y0063633D01*
X0012735Y0063633D01*
X0014462Y0062918D01*
X0015784Y0061595D01*
X0016500Y0059868D01*
X0016500Y0057998D01*
X0015784Y0056271D01*
X0014462Y0054949D01*
X0012735Y0054233D01*
X0010865Y0054233D01*
X0009138Y0054949D01*
X0007816Y0056271D01*
X0007700Y0056550D01*
X0007700Y0051316D01*
X0007816Y0051595D01*
X0009138Y0052918D01*
X0010865Y0053633D01*
X0012735Y0053633D01*
X0014462Y0052918D01*
X0015784Y0051595D01*
X0016500Y0049868D01*
X0016500Y0047998D01*
X0015784Y0046271D01*
X0014462Y0044949D01*
X0012735Y0044233D01*
X0010865Y0044233D01*
X0009138Y0044949D01*
X0007816Y0046271D01*
X0007700Y0046550D01*
X0007700Y0041316D01*
X0007816Y0041595D01*
X0009138Y0042918D01*
X0010865Y0043633D01*
X0012735Y0043633D01*
X0014462Y0042918D01*
X0015784Y0041595D01*
X0016500Y0039868D01*
X0016500Y0037998D01*
X0015784Y0036271D01*
X0014462Y0034949D01*
X0012735Y0034233D01*
X0010865Y0034233D01*
X0009138Y0034949D01*
X0007816Y0036271D01*
X0007700Y0036550D01*
X0007700Y0025794D01*
X0007985Y0026482D01*
X0009251Y0027748D01*
X0010905Y0028433D01*
X0012695Y0028433D01*
X0014349Y0027748D01*
X0015615Y0026482D01*
X0016300Y0024828D01*
X0016300Y0023038D01*
X0015615Y0021384D01*
X0014349Y0020118D01*
X0012695Y0019433D01*
X0010905Y0019433D01*
X0009251Y0020118D01*
X0007985Y0021384D01*
X0007700Y0022072D01*
X0007700Y0015844D01*
X0007985Y0016532D01*
X0009251Y0017798D01*
X0010905Y0018483D01*
X0012695Y0018483D01*
X0014349Y0017798D01*
X0015615Y0016532D01*
X0016300Y0014878D01*
X0016300Y0013088D01*
X0015615Y0011434D01*
X0015351Y0011170D02*
X0018249Y0011170D01*
X0017764Y0011968D02*
X0015836Y0011968D01*
X0016167Y0012767D02*
X0017433Y0012767D01*
X0017300Y0013565D02*
X0016300Y0013565D01*
X0016300Y0014364D02*
X0017300Y0014364D01*
X0017418Y0015162D02*
X0016182Y0015162D01*
X0015852Y0015961D02*
X0017748Y0015961D01*
X0018212Y0016759D02*
X0015388Y0016759D01*
X0014589Y0017558D02*
X0019011Y0017558D01*
X0020599Y0018356D02*
X0013001Y0018356D01*
X0013951Y0019953D02*
X0019649Y0019953D01*
X0019251Y0020118D02*
X0020905Y0019433D01*
X0022695Y0019433D01*
X0024349Y0020118D01*
X0025615Y0021384D01*
X0026300Y0023038D01*
X0026300Y0024828D01*
X0025615Y0026482D01*
X0024349Y0027748D01*
X0022695Y0028433D01*
X0020905Y0028433D01*
X0019251Y0027748D01*
X0017985Y0026482D01*
X0017300Y0024828D01*
X0017300Y0023038D01*
X0017985Y0021384D01*
X0019251Y0020118D01*
X0018617Y0020752D02*
X0014983Y0020752D01*
X0015684Y0021550D02*
X0017916Y0021550D01*
X0017585Y0022349D02*
X0016015Y0022349D01*
X0016300Y0023147D02*
X0017300Y0023147D01*
X0017300Y0023946D02*
X0016300Y0023946D01*
X0016300Y0024744D02*
X0017300Y0024744D01*
X0017596Y0025543D02*
X0016004Y0025543D01*
X0015673Y0026341D02*
X0017927Y0026341D01*
X0018643Y0027140D02*
X0014957Y0027140D01*
X0013889Y0027938D02*
X0019711Y0027938D01*
X0023889Y0027938D02*
X0029711Y0027938D01*
X0029251Y0027748D02*
X0027985Y0026482D01*
X0027300Y0024828D01*
X0027300Y0023038D01*
X0027985Y0021384D01*
X0029251Y0020118D01*
X0030905Y0019433D01*
X0032695Y0019433D01*
X0034349Y0020118D01*
X0035615Y0021384D01*
X0036300Y0023038D01*
X0036300Y0024828D01*
X0035615Y0026482D01*
X0034349Y0027748D01*
X0032695Y0028433D01*
X0030905Y0028433D01*
X0029251Y0027748D01*
X0028643Y0027140D02*
X0024957Y0027140D01*
X0025673Y0026341D02*
X0027927Y0026341D01*
X0027596Y0025543D02*
X0026004Y0025543D01*
X0026300Y0024744D02*
X0027300Y0024744D01*
X0027300Y0023946D02*
X0026300Y0023946D01*
X0026300Y0023147D02*
X0027300Y0023147D01*
X0027585Y0022349D02*
X0026015Y0022349D01*
X0025684Y0021550D02*
X0027916Y0021550D01*
X0028617Y0020752D02*
X0024983Y0020752D01*
X0023951Y0019953D02*
X0029649Y0019953D01*
X0030599Y0018356D02*
X0023001Y0018356D01*
X0024589Y0017558D02*
X0029011Y0017558D01*
X0028212Y0016759D02*
X0025388Y0016759D01*
X0025852Y0015961D02*
X0027748Y0015961D01*
X0027418Y0015162D02*
X0026182Y0015162D01*
X0026300Y0014364D02*
X0027300Y0014364D01*
X0027300Y0013565D02*
X0026300Y0013565D01*
X0026167Y0012767D02*
X0027433Y0012767D01*
X0027764Y0011968D02*
X0025836Y0011968D01*
X0025351Y0011170D02*
X0028249Y0011170D01*
X0029048Y0010371D02*
X0024552Y0010371D01*
X0019048Y0010371D02*
X0014552Y0010371D01*
X0007748Y0015961D02*
X0007700Y0015961D01*
X0007700Y0016759D02*
X0008212Y0016759D01*
X0007700Y0017558D02*
X0009011Y0017558D01*
X0007700Y0018356D02*
X0010599Y0018356D01*
X0009649Y0019953D02*
X0007700Y0019953D01*
X0007700Y0019155D02*
X0100649Y0019155D01*
X0100653Y0019154D02*
X0099919Y0019392D01*
X0099232Y0019742D01*
X0098608Y0020196D01*
X0098062Y0020741D01*
X0097609Y0021365D01*
X0097259Y0022052D01*
X0097021Y0022786D01*
X0096902Y0023533D01*
X0101400Y0023533D01*
X0102200Y0023533D01*
X0102200Y0019035D01*
X0102947Y0019154D01*
X0103681Y0019392D01*
X0104368Y0019742D01*
X0104992Y0020196D01*
X0105537Y0020741D01*
X0105991Y0021365D01*
X0106341Y0022052D01*
X0106579Y0022786D01*
X0106698Y0023533D01*
X0102200Y0023533D01*
X0102200Y0024333D01*
X0106698Y0024333D01*
X0106579Y0025080D01*
X0106341Y0025814D01*
X0105991Y0026501D01*
X0105537Y0027125D01*
X0104992Y0027671D01*
X0104368Y0028124D01*
X0103681Y0028474D01*
X0102947Y0028712D01*
X0102200Y0028831D01*
X0102200Y0024333D01*
X0101400Y0024333D01*
X0101400Y0023533D01*
X0101400Y0019035D01*
X0100653Y0019154D01*
X0101400Y0019155D02*
X0102200Y0019155D01*
X0102951Y0019155D02*
X0130500Y0019155D01*
X0130500Y0019953D02*
X0104659Y0019953D01*
X0105545Y0020752D02*
X0130500Y0020752D01*
X0130500Y0021550D02*
X0106085Y0021550D01*
X0106437Y0022349D02*
X0130500Y0022349D01*
X0130500Y0023147D02*
X0106637Y0023147D01*
X0106633Y0024744D02*
X0130500Y0024744D01*
X0130500Y0023946D02*
X0102200Y0023946D01*
X0102200Y0024744D02*
X0101400Y0024744D01*
X0101400Y0024333D02*
X0101400Y0028831D01*
X0100653Y0028712D01*
X0099919Y0028474D01*
X0099232Y0028124D01*
X0098608Y0027671D01*
X0098062Y0027125D01*
X0097609Y0026501D01*
X0097259Y0025814D01*
X0097021Y0025080D01*
X0096902Y0024333D01*
X0101400Y0024333D01*
X0101400Y0023946D02*
X0096300Y0023946D01*
X0096300Y0024744D02*
X0096967Y0024744D01*
X0096300Y0024828D02*
X0095615Y0026482D01*
X0094349Y0027748D01*
X0092695Y0028433D01*
X0090905Y0028433D01*
X0089251Y0027748D01*
X0087985Y0026482D01*
X0087300Y0024828D01*
X0087300Y0023038D01*
X0087985Y0021384D01*
X0089251Y0020118D01*
X0090905Y0019433D01*
X0092695Y0019433D01*
X0094349Y0020118D01*
X0095615Y0021384D01*
X0096300Y0023038D01*
X0096300Y0024828D01*
X0096004Y0025543D02*
X0097171Y0025543D01*
X0097528Y0026341D02*
X0095673Y0026341D01*
X0094957Y0027140D02*
X0098077Y0027140D01*
X0098977Y0027938D02*
X0093889Y0027938D01*
X0089711Y0027938D02*
X0083889Y0027938D01*
X0084349Y0027748D02*
X0082695Y0028433D01*
X0080905Y0028433D01*
X0079251Y0027748D01*
X0077985Y0026482D01*
X0077300Y0024828D01*
X0077300Y0023038D01*
X0077985Y0021384D01*
X0079251Y0020118D01*
X0080905Y0019433D01*
X0082695Y0019433D01*
X0084349Y0020118D01*
X0085615Y0021384D01*
X0086300Y0023038D01*
X0086300Y0024828D01*
X0085615Y0026482D01*
X0084349Y0027748D01*
X0084957Y0027140D02*
X0088643Y0027140D01*
X0087927Y0026341D02*
X0085673Y0026341D01*
X0086004Y0025543D02*
X0087596Y0025543D01*
X0087300Y0024744D02*
X0086300Y0024744D01*
X0086300Y0023946D02*
X0087300Y0023946D01*
X0087300Y0023147D02*
X0086300Y0023147D01*
X0086015Y0022349D02*
X0087585Y0022349D01*
X0087916Y0021550D02*
X0085684Y0021550D01*
X0084983Y0020752D02*
X0088617Y0020752D01*
X0089649Y0019953D02*
X0083951Y0019953D01*
X0083001Y0018356D02*
X0090599Y0018356D01*
X0089011Y0017558D02*
X0084589Y0017558D01*
X0085388Y0016759D02*
X0088212Y0016759D01*
X0087748Y0015961D02*
X0085852Y0015961D01*
X0086182Y0015162D02*
X0087418Y0015162D01*
X0087300Y0014364D02*
X0086300Y0014364D01*
X0086300Y0013565D02*
X0087300Y0013565D01*
X0087433Y0012767D02*
X0086167Y0012767D01*
X0085836Y0011968D02*
X0087764Y0011968D01*
X0088249Y0011170D02*
X0085351Y0011170D01*
X0084552Y0010371D02*
X0089048Y0010371D01*
X0094552Y0010371D02*
X0098482Y0010371D01*
X0097787Y0011170D02*
X0095351Y0011170D01*
X0095836Y0011968D02*
X0097327Y0011968D01*
X0097043Y0012767D02*
X0096167Y0012767D01*
X0096300Y0013565D02*
X0096905Y0013565D01*
X0096300Y0014364D02*
X0101400Y0014364D01*
X0101400Y0015162D02*
X0102200Y0015162D01*
X0102200Y0014364D02*
X0130500Y0014364D01*
X0130500Y0015162D02*
X0106569Y0015162D01*
X0106292Y0015961D02*
X0130500Y0015961D01*
X0130500Y0016759D02*
X0105840Y0016759D01*
X0105155Y0017558D02*
X0130500Y0017558D01*
X0130500Y0018356D02*
X0104010Y0018356D01*
X0102200Y0018356D02*
X0101400Y0018356D01*
X0101400Y0017558D02*
X0102200Y0017558D01*
X0102200Y0016759D02*
X0101400Y0016759D01*
X0101400Y0015961D02*
X0102200Y0015961D01*
X0099590Y0018356D02*
X0093001Y0018356D01*
X0094589Y0017558D02*
X0098445Y0017558D01*
X0097760Y0016759D02*
X0095388Y0016759D01*
X0095852Y0015961D02*
X0097308Y0015961D01*
X0097031Y0015162D02*
X0096182Y0015162D01*
X0093951Y0019953D02*
X0098941Y0019953D01*
X0098055Y0020752D02*
X0094983Y0020752D01*
X0095684Y0021550D02*
X0097515Y0021550D01*
X0097163Y0022349D02*
X0096015Y0022349D01*
X0096300Y0023147D02*
X0096963Y0023147D01*
X0101400Y0023147D02*
X0102200Y0023147D01*
X0102200Y0022349D02*
X0101400Y0022349D01*
X0101400Y0021550D02*
X0102200Y0021550D01*
X0102200Y0020752D02*
X0101400Y0020752D01*
X0101400Y0019953D02*
X0102200Y0019953D01*
X0102200Y0025543D02*
X0101400Y0025543D01*
X0101400Y0026341D02*
X0102200Y0026341D01*
X0102200Y0027140D02*
X0101400Y0027140D01*
X0101400Y0027938D02*
X0102200Y0027938D01*
X0102200Y0028737D02*
X0101400Y0028737D01*
X0100807Y0028737D02*
X0007700Y0028737D01*
X0007700Y0029535D02*
X0130500Y0029535D01*
X0130500Y0028737D02*
X0102793Y0028737D01*
X0104623Y0027938D02*
X0130500Y0027938D01*
X0130500Y0027140D02*
X0105523Y0027140D01*
X0106072Y0026341D02*
X0130500Y0026341D01*
X0130500Y0025543D02*
X0106429Y0025543D01*
X0103758Y0034207D02*
X0104473Y0034571D01*
X0105122Y0035043D01*
X0105690Y0035611D01*
X0106162Y0036260D01*
X0106526Y0036975D01*
X0106774Y0037739D01*
X0106886Y0038444D01*
X0102193Y0038526D01*
X0102111Y0033833D01*
X0102201Y0033833D01*
X0102994Y0033959D01*
X0103758Y0034207D01*
X0103993Y0034327D02*
X0130500Y0034327D01*
X0130500Y0035125D02*
X0105204Y0035125D01*
X0105917Y0035924D02*
X0130500Y0035924D01*
X0130500Y0036722D02*
X0106397Y0036722D01*
X0106703Y0037521D02*
X0130500Y0037521D01*
X0130500Y0038319D02*
X0106866Y0038319D01*
X0106900Y0039244D02*
X0106900Y0039334D01*
X0106774Y0040127D01*
X0106526Y0040891D01*
X0106162Y0041606D01*
X0105690Y0042255D01*
X0105122Y0042823D01*
X0104473Y0043295D01*
X0103758Y0043659D01*
X0102994Y0043907D01*
X0102925Y0043918D01*
X0103169Y0043957D01*
X0103932Y0044205D01*
X0104648Y0044570D01*
X0105297Y0045041D01*
X0105865Y0045609D01*
X0106336Y0046259D01*
X0106701Y0046974D01*
X0106949Y0047737D01*
X0107061Y0048443D01*
X0102368Y0048525D01*
X0102381Y0049324D01*
X0107075Y0049243D01*
X0107075Y0049333D01*
X0106949Y0050126D01*
X0106701Y0050889D01*
X0106336Y0051605D01*
X0105865Y0052254D01*
X0105297Y0052822D01*
X0104648Y0053293D01*
X0103932Y0053658D01*
X0103169Y0053906D01*
X0103099Y0053917D01*
X0103343Y0053956D01*
X0104107Y0054204D01*
X0104822Y0054568D01*
X0105471Y0055040D01*
X0106039Y0055608D01*
X0106511Y0056257D01*
X0106875Y0056972D01*
X0107123Y0057736D01*
X0107235Y0058441D01*
X0102542Y0058523D01*
X0102460Y0053830D01*
X0102460Y0053830D01*
X0102381Y0049325D01*
X0101582Y0049339D01*
X0101663Y0054032D01*
X0101742Y0058537D01*
X0097049Y0058619D01*
X0097049Y0058529D01*
X0097175Y0057736D01*
X0097423Y0056972D01*
X0097787Y0056257D01*
X0098259Y0055608D01*
X0098827Y0055040D01*
X0099476Y0054568D01*
X0100191Y0054204D01*
X0100955Y0053956D01*
X0101024Y0053945D01*
X0100780Y0053906D01*
X0100017Y0053658D01*
X0099302Y0053293D01*
X0098652Y0052822D01*
X0098084Y0052254D01*
X0097613Y0051605D01*
X0097248Y0050889D01*
X0097000Y0050126D01*
X0096888Y0049420D01*
X0101582Y0049338D01*
X0101568Y0048539D01*
X0102367Y0048525D01*
X0102286Y0043832D01*
X0102207Y0039326D01*
X0106900Y0039244D01*
X0106808Y0039916D02*
X0130500Y0039916D01*
X0130500Y0039118D02*
X0102203Y0039118D01*
X0102207Y0039326D02*
X0102193Y0038526D01*
X0101393Y0038540D01*
X0101311Y0033847D01*
X0100606Y0033959D01*
X0099842Y0034207D01*
X0099127Y0034571D01*
X0098478Y0035043D01*
X0097910Y0035611D01*
X0097438Y0036260D01*
X0097074Y0036975D01*
X0096826Y0037739D01*
X0096700Y0038532D01*
X0096700Y0038622D01*
X0101393Y0038540D01*
X0101407Y0039340D01*
X0096714Y0039422D01*
X0096826Y0040127D01*
X0097074Y0040891D01*
X0097438Y0041606D01*
X0097910Y0042255D01*
X0098478Y0042823D01*
X0099127Y0043295D01*
X0099842Y0043659D01*
X0100606Y0043907D01*
X0100850Y0043946D01*
X0100780Y0043957D01*
X0100017Y0044205D01*
X0099302Y0044570D01*
X0098652Y0045041D01*
X0098084Y0045609D01*
X0097613Y0046259D01*
X0097248Y0046974D01*
X0097000Y0047737D01*
X0096875Y0048530D01*
X0096875Y0048621D01*
X0101568Y0048539D01*
X0101489Y0044033D01*
X0101489Y0044033D01*
X0101407Y0039340D01*
X0102207Y0039326D01*
X0102217Y0039916D02*
X0101417Y0039916D01*
X0101403Y0039118D02*
X0086500Y0039118D01*
X0086500Y0039868D02*
X0085784Y0041595D01*
X0084462Y0042918D01*
X0082735Y0043633D01*
X0080865Y0043633D01*
X0079138Y0042918D01*
X0077816Y0041595D01*
X0077100Y0039868D01*
X0077100Y0037998D01*
X0077816Y0036271D01*
X0079138Y0034949D01*
X0080865Y0034233D01*
X0082735Y0034233D01*
X0084462Y0034949D01*
X0085784Y0036271D01*
X0086500Y0037998D01*
X0086500Y0039868D01*
X0086480Y0039916D02*
X0096792Y0039916D01*
X0097016Y0040715D02*
X0086149Y0040715D01*
X0085819Y0041513D02*
X0097391Y0041513D01*
X0097966Y0042312D02*
X0085068Y0042312D01*
X0083997Y0043110D02*
X0098873Y0043110D01*
X0100613Y0043909D02*
X0007700Y0043909D01*
X0007700Y0044707D02*
X0009721Y0044707D01*
X0008581Y0045506D02*
X0007700Y0045506D01*
X0007700Y0046304D02*
X0007802Y0046304D01*
X0007700Y0043110D02*
X0009603Y0043110D01*
X0008532Y0042312D02*
X0007700Y0042312D01*
X0007700Y0041513D02*
X0007781Y0041513D01*
X0013997Y0043110D02*
X0029603Y0043110D01*
X0029138Y0042918D02*
X0027816Y0041595D01*
X0027100Y0039868D01*
X0027100Y0037998D01*
X0027816Y0036271D01*
X0029138Y0034949D01*
X0030865Y0034233D01*
X0032735Y0034233D01*
X0034462Y0034949D01*
X0035784Y0036271D01*
X0036500Y0037998D01*
X0036500Y0039868D01*
X0035784Y0041595D01*
X0034462Y0042918D01*
X0032735Y0043633D01*
X0030865Y0043633D01*
X0029138Y0042918D01*
X0028532Y0042312D02*
X0015068Y0042312D01*
X0015819Y0041513D02*
X0027781Y0041513D01*
X0027451Y0040715D02*
X0016149Y0040715D01*
X0016480Y0039916D02*
X0027120Y0039916D01*
X0027100Y0039118D02*
X0016500Y0039118D01*
X0016500Y0038319D02*
X0027100Y0038319D01*
X0027298Y0037521D02*
X0016302Y0037521D01*
X0015971Y0036722D02*
X0027629Y0036722D01*
X0028163Y0035924D02*
X0015437Y0035924D01*
X0014639Y0035125D02*
X0028961Y0035125D01*
X0030640Y0034327D02*
X0012960Y0034327D01*
X0010640Y0034327D02*
X0007700Y0034327D01*
X0007700Y0035125D02*
X0008961Y0035125D01*
X0008163Y0035924D02*
X0007700Y0035924D01*
X0007700Y0033528D02*
X0130500Y0033528D01*
X0130500Y0032729D02*
X0007700Y0032729D01*
X0007700Y0031931D02*
X0130500Y0031931D01*
X0130500Y0031132D02*
X0007700Y0031132D01*
X0007700Y0030334D02*
X0130500Y0030334D01*
X0130500Y0040715D02*
X0106584Y0040715D01*
X0106209Y0041513D02*
X0130500Y0041513D01*
X0130500Y0042312D02*
X0105634Y0042312D01*
X0104727Y0043110D02*
X0130500Y0043110D01*
X0130500Y0043909D02*
X0102987Y0043909D01*
X0102287Y0043909D02*
X0101487Y0043909D01*
X0101501Y0044707D02*
X0102301Y0044707D01*
X0102315Y0045506D02*
X0101515Y0045506D01*
X0101529Y0046304D02*
X0102329Y0046304D01*
X0102343Y0047103D02*
X0101543Y0047103D01*
X0101556Y0047901D02*
X0102357Y0047901D01*
X0102371Y0048700D02*
X0130500Y0048700D01*
X0130500Y0049498D02*
X0107048Y0049498D01*
X0106893Y0050297D02*
X0130500Y0050297D01*
X0130500Y0051095D02*
X0106596Y0051095D01*
X0106126Y0051894D02*
X0130500Y0051894D01*
X0130500Y0052692D02*
X0105426Y0052692D01*
X0104260Y0053491D02*
X0130500Y0053491D01*
X0130500Y0054289D02*
X0104275Y0054289D01*
X0105519Y0055088D02*
X0130500Y0055088D01*
X0130500Y0055886D02*
X0106242Y0055886D01*
X0106729Y0056685D02*
X0130500Y0056685D01*
X0130500Y0057483D02*
X0107041Y0057483D01*
X0107210Y0058282D02*
X0130500Y0058282D01*
X0130500Y0059080D02*
X0102552Y0059080D01*
X0102556Y0059323D02*
X0107249Y0059241D01*
X0107249Y0059331D01*
X0107123Y0060124D01*
X0106875Y0060888D01*
X0106511Y0061603D01*
X0106039Y0062252D01*
X0105471Y0062820D01*
X0104822Y0063292D01*
X0104107Y0063656D01*
X0103343Y0063904D01*
X0103274Y0063915D01*
X0103518Y0063954D01*
X0104281Y0064202D01*
X0104997Y0064567D01*
X0105646Y0065038D01*
X0106214Y0065606D01*
X0106685Y0066255D01*
X0107050Y0066971D01*
X0107298Y0067734D01*
X0107410Y0068440D01*
X0102717Y0068522D01*
X0102731Y0069321D01*
X0107424Y0069240D01*
X0107424Y0069330D01*
X0107298Y0070123D01*
X0107050Y0070886D01*
X0106685Y0071601D01*
X0106214Y0072251D01*
X0105646Y0072819D01*
X0104997Y0073290D01*
X0104281Y0073655D01*
X0103518Y0073903D01*
X0102812Y0074015D01*
X0102730Y0069321D01*
X0101931Y0069335D01*
X0101917Y0068536D01*
X0097224Y0068617D01*
X0097224Y0068527D01*
X0097349Y0067734D01*
X0097597Y0066971D01*
X0097962Y0066255D01*
X0098434Y0065606D01*
X0099001Y0065038D01*
X0099651Y0064567D01*
X0100366Y0064202D01*
X0101129Y0063954D01*
X0101199Y0063943D01*
X0100955Y0063904D01*
X0100191Y0063656D01*
X0099476Y0063292D01*
X0098827Y0062820D01*
X0098259Y0062252D01*
X0097787Y0061603D01*
X0097423Y0060888D01*
X0097175Y0060124D01*
X0097063Y0059419D01*
X0101756Y0059337D01*
X0101838Y0064030D01*
X0101838Y0064030D01*
X0101917Y0068535D01*
X0102716Y0068522D01*
X0102635Y0063828D01*
X0102556Y0059323D01*
X0102542Y0058523D01*
X0101742Y0058537D01*
X0101756Y0059337D01*
X0102556Y0059323D01*
X0102566Y0059879D02*
X0101766Y0059879D01*
X0101779Y0060677D02*
X0102580Y0060677D01*
X0102594Y0061476D02*
X0101793Y0061476D01*
X0101807Y0062274D02*
X0102607Y0062274D01*
X0102621Y0063073D02*
X0101821Y0063073D01*
X0101835Y0063871D02*
X0102635Y0063871D01*
X0102635Y0063828D02*
X0102635Y0063828D01*
X0103445Y0063871D02*
X0130500Y0063871D01*
X0130500Y0063073D02*
X0105123Y0063073D01*
X0106017Y0062274D02*
X0130500Y0062274D01*
X0130500Y0061476D02*
X0106576Y0061476D01*
X0106944Y0060677D02*
X0130500Y0060677D01*
X0130500Y0059879D02*
X0107162Y0059879D01*
X0102538Y0058282D02*
X0101738Y0058282D01*
X0101752Y0059080D02*
X0086500Y0059080D01*
X0086500Y0059868D02*
X0085784Y0061595D01*
X0084462Y0062918D01*
X0082735Y0063633D01*
X0080865Y0063633D01*
X0079138Y0062918D01*
X0077816Y0061595D01*
X0077100Y0059868D01*
X0077100Y0057998D01*
X0077816Y0056271D01*
X0079138Y0054949D01*
X0080865Y0054233D01*
X0082735Y0054233D01*
X0084462Y0054949D01*
X0085784Y0056271D01*
X0086500Y0057998D01*
X0086500Y0059868D01*
X0086495Y0059879D02*
X0097136Y0059879D01*
X0097354Y0060677D02*
X0086165Y0060677D01*
X0085834Y0061476D02*
X0097722Y0061476D01*
X0098281Y0062274D02*
X0085105Y0062274D01*
X0084087Y0063073D02*
X0099175Y0063073D01*
X0100853Y0063871D02*
X0007700Y0063871D01*
X0007700Y0063073D02*
X0009513Y0063073D01*
X0008495Y0062274D02*
X0007700Y0062274D01*
X0007700Y0061476D02*
X0007766Y0061476D01*
X0007700Y0064670D02*
X0009810Y0064670D01*
X0008618Y0065468D02*
X0007700Y0065468D01*
X0007700Y0066267D02*
X0007819Y0066267D01*
X0013790Y0064670D02*
X0029810Y0064670D01*
X0029138Y0064949D02*
X0030865Y0064233D01*
X0032735Y0064233D01*
X0034462Y0064949D01*
X0035784Y0066271D01*
X0036500Y0067998D01*
X0036500Y0069868D01*
X0035784Y0071595D01*
X0034462Y0072918D01*
X0032735Y0073633D01*
X0030865Y0073633D01*
X0029138Y0072918D01*
X0027816Y0071595D01*
X0027100Y0069868D01*
X0027100Y0067998D01*
X0027816Y0066271D01*
X0029138Y0064949D01*
X0028618Y0065468D02*
X0014982Y0065468D01*
X0015781Y0066267D02*
X0027819Y0066267D01*
X0027486Y0067065D02*
X0016114Y0067065D01*
X0016444Y0067864D02*
X0027156Y0067864D01*
X0027100Y0068662D02*
X0016500Y0068662D01*
X0016500Y0069461D02*
X0027100Y0069461D01*
X0027262Y0070260D02*
X0016338Y0070260D01*
X0016007Y0071058D02*
X0027593Y0071058D01*
X0028077Y0071857D02*
X0015523Y0071857D01*
X0014725Y0072655D02*
X0028875Y0072655D01*
X0030432Y0073454D02*
X0013168Y0073454D01*
X0010432Y0073454D02*
X0007700Y0073454D01*
X0007700Y0074252D02*
X0130500Y0074252D01*
X0130500Y0073454D02*
X0104676Y0073454D01*
X0105809Y0072655D02*
X0130500Y0072655D01*
X0130500Y0071857D02*
X0106500Y0071857D01*
X0106962Y0071058D02*
X0130500Y0071058D01*
X0130500Y0070260D02*
X0107254Y0070260D01*
X0107403Y0069461D02*
X0130500Y0069461D01*
X0130500Y0068662D02*
X0102719Y0068662D01*
X0102705Y0067864D02*
X0101905Y0067864D01*
X0101919Y0068662D02*
X0086500Y0068662D01*
X0086500Y0067998D02*
X0085784Y0066271D01*
X0084462Y0064949D01*
X0082735Y0064233D01*
X0080865Y0064233D01*
X0079138Y0064949D01*
X0077816Y0066271D01*
X0077100Y0067998D01*
X0077100Y0069868D01*
X0077816Y0071595D01*
X0079138Y0072918D01*
X0080865Y0073633D01*
X0082735Y0073633D01*
X0084462Y0072918D01*
X0085784Y0071595D01*
X0086500Y0069868D01*
X0086500Y0067998D01*
X0086444Y0067864D02*
X0097329Y0067864D01*
X0097566Y0067065D02*
X0086114Y0067065D01*
X0085781Y0066267D02*
X0097956Y0066267D01*
X0098571Y0065468D02*
X0084982Y0065468D01*
X0083790Y0064670D02*
X0099508Y0064670D01*
X0101849Y0064670D02*
X0102649Y0064670D01*
X0102663Y0065468D02*
X0101863Y0065468D01*
X0101877Y0066267D02*
X0102677Y0066267D01*
X0102691Y0067065D02*
X0101891Y0067065D01*
X0101931Y0069335D02*
X0097237Y0069417D01*
X0097349Y0070123D01*
X0097597Y0070886D01*
X0097962Y0071601D01*
X0098434Y0072251D01*
X0099001Y0072819D01*
X0099651Y0073290D01*
X0100366Y0073655D01*
X0101129Y0073903D01*
X0101922Y0074028D01*
X0102013Y0074028D01*
X0101931Y0069335D01*
X0101933Y0069461D02*
X0102733Y0069461D01*
X0102747Y0070260D02*
X0101947Y0070260D01*
X0101961Y0071058D02*
X0102761Y0071058D01*
X0102775Y0071857D02*
X0101975Y0071857D01*
X0101989Y0072655D02*
X0102789Y0072655D01*
X0102803Y0073454D02*
X0102002Y0073454D01*
X0099971Y0073454D02*
X0083168Y0073454D01*
X0084725Y0072655D02*
X0098838Y0072655D01*
X0098147Y0071857D02*
X0085523Y0071857D01*
X0086007Y0071058D02*
X0097685Y0071058D01*
X0097394Y0070260D02*
X0086338Y0070260D01*
X0086500Y0069461D02*
X0097244Y0069461D01*
X0105139Y0064670D02*
X0130500Y0064670D01*
X0130500Y0065468D02*
X0106076Y0065468D01*
X0106691Y0066267D02*
X0130500Y0066267D01*
X0130500Y0067065D02*
X0107081Y0067065D01*
X0107319Y0067864D02*
X0130500Y0067864D01*
X0130500Y0075051D02*
X0007700Y0075051D01*
X0007700Y0075849D02*
X0130500Y0075849D01*
X0130500Y0076648D02*
X0007700Y0076648D01*
X0007700Y0077446D02*
X0130500Y0077446D01*
X0130500Y0078245D02*
X0007700Y0078245D01*
X0007700Y0079043D02*
X0130500Y0079043D01*
X0130500Y0079842D02*
X0103440Y0079842D01*
X0104771Y0080640D02*
X0130500Y0080640D01*
X0130500Y0081439D02*
X0105570Y0081439D01*
X0105927Y0082237D02*
X0130500Y0082237D01*
X0130500Y0083036D02*
X0106258Y0083036D01*
X0106300Y0083834D02*
X0130500Y0083834D01*
X0130500Y0084633D02*
X0124737Y0084633D01*
X0125535Y0085431D02*
X0130500Y0085431D01*
X0130500Y0086230D02*
X0125800Y0086230D01*
X0125800Y0087028D02*
X0130500Y0087028D01*
X0130500Y0087827D02*
X0125243Y0087827D01*
X0123738Y0088625D02*
X0130500Y0088625D01*
X0130500Y0089424D02*
X0122939Y0089424D01*
X0122141Y0090222D02*
X0130500Y0090222D01*
X0130500Y0091021D02*
X0105202Y0091021D01*
X0105774Y0091819D02*
X0130500Y0091819D01*
X0130500Y0092618D02*
X0106105Y0092618D01*
X0106300Y0093416D02*
X0130500Y0093416D01*
X0130500Y0094215D02*
X0106300Y0094215D01*
X0106244Y0095013D02*
X0130500Y0095013D01*
X0130500Y0095812D02*
X0105913Y0095812D01*
X0105537Y0096610D02*
X0130500Y0096610D01*
X0130500Y0097409D02*
X0104738Y0097409D01*
X0121400Y0088983D02*
X0046750Y0088983D01*
X0041800Y0084033D01*
X0037673Y0082237D02*
X0035927Y0082237D01*
X0035615Y0081484D02*
X0036300Y0083138D01*
X0036300Y0084928D01*
X0035615Y0086582D01*
X0034349Y0087848D01*
X0032695Y0088533D01*
X0030905Y0088533D01*
X0029251Y0087848D01*
X0027985Y0086582D01*
X0027300Y0084928D01*
X0027300Y0083138D01*
X0027985Y0081484D01*
X0029251Y0080218D01*
X0030905Y0079533D01*
X0032695Y0079533D01*
X0034349Y0080218D01*
X0035615Y0081484D01*
X0035570Y0081439D02*
X0038030Y0081439D01*
X0038829Y0080640D02*
X0034771Y0080640D01*
X0033440Y0079842D02*
X0040160Y0079842D01*
X0043440Y0079842D02*
X0050160Y0079842D01*
X0048829Y0080640D02*
X0044771Y0080640D01*
X0045570Y0081439D02*
X0048030Y0081439D01*
X0047673Y0082237D02*
X0045927Y0082237D01*
X0046258Y0083036D02*
X0047342Y0083036D01*
X0047300Y0083834D02*
X0046300Y0083834D01*
X0046300Y0084633D02*
X0047300Y0084633D01*
X0047508Y0085431D02*
X0046092Y0085431D01*
X0045977Y0086230D02*
X0047839Y0086230D01*
X0048431Y0087028D02*
X0046775Y0087028D01*
X0044412Y0088625D02*
X0023523Y0088625D01*
X0023681Y0088574D02*
X0022947Y0088812D01*
X0022200Y0088931D01*
X0022200Y0084433D01*
X0026698Y0084433D01*
X0026579Y0085180D01*
X0026341Y0085914D01*
X0025991Y0086601D01*
X0025537Y0087225D01*
X0024992Y0087771D01*
X0024368Y0088224D01*
X0023681Y0088574D01*
X0023625Y0089424D02*
X0045211Y0089424D01*
X0046009Y0090222D02*
X0044403Y0090222D01*
X0045202Y0091021D02*
X0048398Y0091021D01*
X0047825Y0091819D02*
X0045774Y0091819D01*
X0046105Y0092618D02*
X0047495Y0092618D01*
X0047300Y0093416D02*
X0046300Y0093416D01*
X0046300Y0094215D02*
X0047300Y0094215D01*
X0047356Y0095013D02*
X0046244Y0095013D01*
X0045913Y0095812D02*
X0047687Y0095812D01*
X0048063Y0096610D02*
X0045537Y0096610D01*
X0044738Y0097409D02*
X0048862Y0097409D01*
X0038862Y0097409D02*
X0034738Y0097409D01*
X0035537Y0096610D02*
X0038063Y0096610D01*
X0037687Y0095812D02*
X0035913Y0095812D01*
X0036244Y0095013D02*
X0037356Y0095013D01*
X0037300Y0094215D02*
X0036300Y0094215D01*
X0036300Y0093416D02*
X0037300Y0093416D01*
X0037495Y0092618D02*
X0036105Y0092618D01*
X0035774Y0091819D02*
X0037825Y0091819D01*
X0038398Y0091021D02*
X0035202Y0091021D01*
X0034403Y0090222D02*
X0039197Y0090222D01*
X0039230Y0087827D02*
X0034370Y0087827D01*
X0035169Y0087028D02*
X0038431Y0087028D01*
X0037839Y0086230D02*
X0035761Y0086230D01*
X0036092Y0085431D02*
X0037508Y0085431D01*
X0037300Y0084633D02*
X0036300Y0084633D01*
X0036300Y0083834D02*
X0037300Y0083834D01*
X0037342Y0083036D02*
X0036258Y0083036D01*
X0030160Y0079842D02*
X0024367Y0079842D01*
X0024368Y0079842D02*
X0024992Y0080296D01*
X0025537Y0080841D01*
X0025991Y0081465D01*
X0026341Y0082152D01*
X0026579Y0082886D01*
X0026698Y0083633D01*
X0022200Y0083633D01*
X0022200Y0079135D01*
X0022947Y0079254D01*
X0023681Y0079492D01*
X0024368Y0079842D01*
X0025337Y0080640D02*
X0028829Y0080640D01*
X0028030Y0081439D02*
X0025972Y0081439D01*
X0026369Y0082237D02*
X0027673Y0082237D01*
X0027342Y0083036D02*
X0026603Y0083036D01*
X0027300Y0083834D02*
X0022200Y0083834D01*
X0022200Y0083633D02*
X0022200Y0084433D01*
X0021400Y0084433D01*
X0021400Y0083633D01*
X0022200Y0083633D01*
X0022200Y0083036D02*
X0021400Y0083036D01*
X0021400Y0083633D02*
X0021400Y0079135D01*
X0020653Y0079254D01*
X0019919Y0079492D01*
X0019232Y0079842D01*
X0018608Y0080296D01*
X0018062Y0080841D01*
X0017609Y0081465D01*
X0017259Y0082152D01*
X0017021Y0082886D01*
X0016902Y0083633D01*
X0021400Y0083633D01*
X0021400Y0083834D02*
X0016300Y0083834D01*
X0016300Y0084633D02*
X0016934Y0084633D01*
X0016902Y0084433D02*
X0021400Y0084433D01*
X0021400Y0088931D01*
X0020653Y0088812D01*
X0019919Y0088574D01*
X0019232Y0088224D01*
X0018608Y0087771D01*
X0018062Y0087225D01*
X0017609Y0086601D01*
X0017259Y0085914D01*
X0017021Y0085180D01*
X0016902Y0084433D01*
X0017102Y0085431D02*
X0016092Y0085431D01*
X0015761Y0086230D02*
X0017420Y0086230D01*
X0017919Y0087028D02*
X0015169Y0087028D01*
X0014370Y0087827D02*
X0018685Y0087827D01*
X0020077Y0088625D02*
X0007700Y0088625D01*
X0007700Y0087827D02*
X0009230Y0087827D01*
X0008431Y0087028D02*
X0007700Y0087028D01*
X0007700Y0086230D02*
X0007839Y0086230D01*
X0007700Y0089424D02*
X0019975Y0089424D01*
X0021400Y0089424D02*
X0022200Y0089424D01*
X0022200Y0090222D02*
X0021400Y0090222D01*
X0021400Y0091021D02*
X0022200Y0091021D01*
X0022200Y0091819D02*
X0021400Y0091819D01*
X0021400Y0092618D02*
X0022200Y0092618D01*
X0022200Y0093416D02*
X0021400Y0093416D01*
X0021400Y0094215D02*
X0016300Y0094215D01*
X0016300Y0093416D02*
X0016929Y0093416D01*
X0017091Y0092618D02*
X0016105Y0092618D01*
X0015774Y0091819D02*
X0017403Y0091819D01*
X0017895Y0091021D02*
X0015202Y0091021D01*
X0014403Y0090222D02*
X0018640Y0090222D01*
X0021400Y0088625D02*
X0022200Y0088625D01*
X0022200Y0087827D02*
X0021400Y0087827D01*
X0021400Y0087028D02*
X0022200Y0087028D01*
X0022200Y0086230D02*
X0021400Y0086230D01*
X0021400Y0085431D02*
X0022200Y0085431D01*
X0022200Y0084633D02*
X0021400Y0084633D01*
X0021400Y0082237D02*
X0022200Y0082237D01*
X0022200Y0081439D02*
X0021400Y0081439D01*
X0021400Y0080640D02*
X0022200Y0080640D01*
X0022200Y0079842D02*
X0021400Y0079842D01*
X0019233Y0079842D02*
X0013440Y0079842D01*
X0014771Y0080640D02*
X0018263Y0080640D01*
X0017628Y0081439D02*
X0015570Y0081439D01*
X0015927Y0082237D02*
X0017231Y0082237D01*
X0016997Y0083036D02*
X0016258Y0083036D01*
X0010160Y0079842D02*
X0007700Y0079842D01*
X0007700Y0080640D02*
X0008829Y0080640D01*
X0008030Y0081439D02*
X0007700Y0081439D01*
X0007700Y0090222D02*
X0009197Y0090222D01*
X0008398Y0091021D02*
X0007700Y0091021D01*
X0007700Y0091819D02*
X0007825Y0091819D01*
X0015537Y0096610D02*
X0017652Y0096610D01*
X0017242Y0095812D02*
X0015913Y0095812D01*
X0016244Y0095013D02*
X0017002Y0095013D01*
X0018296Y0097409D02*
X0014738Y0097409D01*
X0022200Y0094215D02*
X0027300Y0094215D01*
X0027300Y0093416D02*
X0026671Y0093416D01*
X0026509Y0092618D02*
X0027495Y0092618D01*
X0027825Y0091819D02*
X0026197Y0091819D01*
X0025705Y0091021D02*
X0028398Y0091021D01*
X0029197Y0090222D02*
X0024960Y0090222D01*
X0024915Y0087827D02*
X0029230Y0087827D01*
X0028431Y0087028D02*
X0025681Y0087028D01*
X0026180Y0086230D02*
X0027839Y0086230D01*
X0027508Y0085431D02*
X0026498Y0085431D01*
X0026666Y0084633D02*
X0027300Y0084633D01*
X0027356Y0095013D02*
X0026598Y0095013D01*
X0026358Y0095812D02*
X0027687Y0095812D01*
X0028063Y0096610D02*
X0025948Y0096610D01*
X0025304Y0097409D02*
X0028862Y0097409D01*
X0055169Y0087028D02*
X0058431Y0087028D01*
X0057839Y0086230D02*
X0055761Y0086230D01*
X0056092Y0085431D02*
X0057508Y0085431D01*
X0057300Y0084633D02*
X0056300Y0084633D01*
X0056300Y0083834D02*
X0057300Y0083834D01*
X0057342Y0083036D02*
X0056258Y0083036D01*
X0055927Y0082237D02*
X0057673Y0082237D01*
X0058030Y0081439D02*
X0055570Y0081439D01*
X0054771Y0080640D02*
X0058829Y0080640D01*
X0060160Y0079842D02*
X0053440Y0079842D01*
X0063440Y0079842D02*
X0070160Y0079842D01*
X0068829Y0080640D02*
X0064771Y0080640D01*
X0065570Y0081439D02*
X0068030Y0081439D01*
X0067673Y0082237D02*
X0065927Y0082237D01*
X0066258Y0083036D02*
X0067342Y0083036D01*
X0067300Y0083834D02*
X0066300Y0083834D01*
X0066300Y0084633D02*
X0067300Y0084633D01*
X0067508Y0085431D02*
X0066092Y0085431D01*
X0065761Y0086230D02*
X0067839Y0086230D01*
X0068431Y0087028D02*
X0065169Y0087028D01*
X0075169Y0087028D02*
X0078431Y0087028D01*
X0077839Y0086230D02*
X0075761Y0086230D01*
X0076092Y0085431D02*
X0077508Y0085431D01*
X0077300Y0084633D02*
X0076300Y0084633D01*
X0076300Y0083834D02*
X0077300Y0083834D01*
X0077342Y0083036D02*
X0076258Y0083036D01*
X0075927Y0082237D02*
X0077673Y0082237D01*
X0078030Y0081439D02*
X0075570Y0081439D01*
X0074771Y0080640D02*
X0078829Y0080640D01*
X0080160Y0079842D02*
X0073440Y0079842D01*
X0072735Y0073633D02*
X0070865Y0073633D01*
X0069138Y0072918D01*
X0067816Y0071595D01*
X0067100Y0069868D01*
X0067100Y0067998D01*
X0067816Y0066271D01*
X0069138Y0064949D01*
X0070865Y0064233D01*
X0072735Y0064233D01*
X0074462Y0064949D01*
X0075784Y0066271D01*
X0076500Y0067998D01*
X0076500Y0069868D01*
X0075784Y0071595D01*
X0074462Y0072918D01*
X0072735Y0073633D01*
X0073168Y0073454D02*
X0080432Y0073454D01*
X0078875Y0072655D02*
X0074725Y0072655D01*
X0075523Y0071857D02*
X0078077Y0071857D01*
X0077593Y0071058D02*
X0076007Y0071058D01*
X0076338Y0070260D02*
X0077262Y0070260D01*
X0077100Y0069461D02*
X0076500Y0069461D01*
X0076500Y0068662D02*
X0077100Y0068662D01*
X0077156Y0067864D02*
X0076444Y0067864D01*
X0076114Y0067065D02*
X0077486Y0067065D01*
X0077819Y0066267D02*
X0075781Y0066267D01*
X0074982Y0065468D02*
X0078618Y0065468D01*
X0079810Y0064670D02*
X0073790Y0064670D01*
X0072735Y0063633D02*
X0070865Y0063633D01*
X0069138Y0062918D01*
X0067816Y0061595D01*
X0067100Y0059868D01*
X0067100Y0057998D01*
X0067816Y0056271D01*
X0069138Y0054949D01*
X0070865Y0054233D01*
X0072735Y0054233D01*
X0074462Y0054949D01*
X0075784Y0056271D01*
X0076500Y0057998D01*
X0076500Y0059868D01*
X0075784Y0061595D01*
X0074462Y0062918D01*
X0072735Y0063633D01*
X0074087Y0063073D02*
X0079513Y0063073D01*
X0078495Y0062274D02*
X0075105Y0062274D01*
X0075834Y0061476D02*
X0077766Y0061476D01*
X0077435Y0060677D02*
X0076165Y0060677D01*
X0076495Y0059879D02*
X0077105Y0059879D01*
X0077100Y0059080D02*
X0076500Y0059080D01*
X0076500Y0058282D02*
X0077100Y0058282D01*
X0077313Y0057483D02*
X0076287Y0057483D01*
X0075956Y0056685D02*
X0077644Y0056685D01*
X0078200Y0055886D02*
X0075400Y0055886D01*
X0074602Y0055088D02*
X0078998Y0055088D01*
X0080729Y0054289D02*
X0072871Y0054289D01*
X0072735Y0053633D02*
X0070865Y0053633D01*
X0069138Y0052918D01*
X0067816Y0051595D01*
X0067100Y0049868D01*
X0067100Y0047998D01*
X0067816Y0046271D01*
X0069138Y0044949D01*
X0070865Y0044233D01*
X0072735Y0044233D01*
X0074462Y0044949D01*
X0075784Y0046271D01*
X0076500Y0047998D01*
X0076500Y0049868D01*
X0075784Y0051595D01*
X0074462Y0052918D01*
X0072735Y0053633D01*
X0073078Y0053491D02*
X0080522Y0053491D01*
X0080865Y0053633D02*
X0079138Y0052918D01*
X0077816Y0051595D01*
X0077100Y0049868D01*
X0077100Y0047998D01*
X0077816Y0046271D01*
X0079138Y0044949D01*
X0080865Y0044233D01*
X0082735Y0044233D01*
X0084462Y0044949D01*
X0085784Y0046271D01*
X0086500Y0047998D01*
X0086500Y0049868D01*
X0085784Y0051595D01*
X0084462Y0052918D01*
X0082735Y0053633D01*
X0080865Y0053633D01*
X0078912Y0052692D02*
X0074688Y0052692D01*
X0075486Y0051894D02*
X0078114Y0051894D01*
X0077608Y0051095D02*
X0075992Y0051095D01*
X0076322Y0050297D02*
X0077278Y0050297D01*
X0077100Y0049498D02*
X0076500Y0049498D01*
X0076500Y0048700D02*
X0077100Y0048700D01*
X0077140Y0047901D02*
X0076460Y0047901D01*
X0076129Y0047103D02*
X0077471Y0047103D01*
X0077802Y0046304D02*
X0075798Y0046304D01*
X0075019Y0045506D02*
X0078581Y0045506D01*
X0079721Y0044707D02*
X0073879Y0044707D01*
X0072735Y0043633D02*
X0070865Y0043633D01*
X0069138Y0042918D01*
X0067816Y0041595D01*
X0067100Y0039868D01*
X0067100Y0037998D01*
X0067816Y0036271D01*
X0069138Y0034949D01*
X0070865Y0034233D01*
X0072735Y0034233D01*
X0074462Y0034949D01*
X0075784Y0036271D01*
X0076500Y0037998D01*
X0076500Y0039868D01*
X0075784Y0041595D01*
X0074462Y0042918D01*
X0072735Y0043633D01*
X0073997Y0043110D02*
X0079603Y0043110D01*
X0078532Y0042312D02*
X0075068Y0042312D01*
X0075819Y0041513D02*
X0077781Y0041513D01*
X0077451Y0040715D02*
X0076149Y0040715D01*
X0076480Y0039916D02*
X0077120Y0039916D01*
X0077100Y0039118D02*
X0076500Y0039118D01*
X0076500Y0038319D02*
X0077100Y0038319D01*
X0077298Y0037521D02*
X0076302Y0037521D01*
X0075971Y0036722D02*
X0077629Y0036722D01*
X0078163Y0035924D02*
X0075437Y0035924D01*
X0074639Y0035125D02*
X0078961Y0035125D01*
X0080640Y0034327D02*
X0072960Y0034327D01*
X0070640Y0034327D02*
X0062960Y0034327D01*
X0062735Y0034233D02*
X0064462Y0034949D01*
X0065784Y0036271D01*
X0066500Y0037998D01*
X0066500Y0039868D01*
X0065784Y0041595D01*
X0064462Y0042918D01*
X0062735Y0043633D01*
X0060865Y0043633D01*
X0059138Y0042918D01*
X0057816Y0041595D01*
X0057100Y0039868D01*
X0057100Y0037998D01*
X0057816Y0036271D01*
X0059138Y0034949D01*
X0060865Y0034233D01*
X0062735Y0034233D01*
X0060640Y0034327D02*
X0052960Y0034327D01*
X0052735Y0034233D02*
X0054462Y0034949D01*
X0055784Y0036271D01*
X0056500Y0037998D01*
X0056500Y0039868D01*
X0055784Y0041595D01*
X0054462Y0042918D01*
X0052735Y0043633D01*
X0050865Y0043633D01*
X0049138Y0042918D01*
X0047816Y0041595D01*
X0047100Y0039868D01*
X0047100Y0037998D01*
X0047816Y0036271D01*
X0049138Y0034949D01*
X0050865Y0034233D01*
X0052735Y0034233D01*
X0050640Y0034327D02*
X0042960Y0034327D01*
X0042735Y0034233D02*
X0044462Y0034949D01*
X0045784Y0036271D01*
X0046500Y0037998D01*
X0046500Y0039868D01*
X0045784Y0041595D01*
X0044462Y0042918D01*
X0042735Y0043633D01*
X0040865Y0043633D01*
X0039138Y0042918D01*
X0037816Y0041595D01*
X0037100Y0039868D01*
X0037100Y0037998D01*
X0037816Y0036271D01*
X0039138Y0034949D01*
X0040865Y0034233D01*
X0042735Y0034233D01*
X0040640Y0034327D02*
X0032960Y0034327D01*
X0034639Y0035125D02*
X0038961Y0035125D01*
X0038163Y0035924D02*
X0035437Y0035924D01*
X0035971Y0036722D02*
X0037629Y0036722D01*
X0037298Y0037521D02*
X0036302Y0037521D01*
X0036500Y0038319D02*
X0037100Y0038319D01*
X0037100Y0039118D02*
X0036500Y0039118D01*
X0036480Y0039916D02*
X0037120Y0039916D01*
X0037451Y0040715D02*
X0036149Y0040715D01*
X0035819Y0041513D02*
X0037781Y0041513D01*
X0038532Y0042312D02*
X0035068Y0042312D01*
X0033997Y0043110D02*
X0039603Y0043110D01*
X0040865Y0044233D02*
X0042735Y0044233D01*
X0044462Y0044949D01*
X0045784Y0046271D01*
X0046500Y0047998D01*
X0046500Y0049868D01*
X0045784Y0051595D01*
X0044462Y0052918D01*
X0042735Y0053633D01*
X0040865Y0053633D01*
X0039138Y0052918D01*
X0037816Y0051595D01*
X0037100Y0049868D01*
X0037100Y0047998D01*
X0037816Y0046271D01*
X0039138Y0044949D01*
X0040865Y0044233D01*
X0039721Y0044707D02*
X0033879Y0044707D01*
X0034462Y0044949D02*
X0035784Y0046271D01*
X0036500Y0047998D01*
X0036500Y0049868D01*
X0035784Y0051595D01*
X0034462Y0052918D01*
X0032735Y0053633D01*
X0030865Y0053633D01*
X0029138Y0052918D01*
X0027816Y0051595D01*
X0027100Y0049868D01*
X0027100Y0047998D01*
X0027816Y0046271D01*
X0029138Y0044949D01*
X0030865Y0044233D01*
X0032735Y0044233D01*
X0034462Y0044949D01*
X0035019Y0045506D02*
X0038581Y0045506D01*
X0037802Y0046304D02*
X0035798Y0046304D01*
X0036129Y0047103D02*
X0037471Y0047103D01*
X0037140Y0047901D02*
X0036460Y0047901D01*
X0036500Y0048700D02*
X0037100Y0048700D01*
X0037100Y0049498D02*
X0036500Y0049498D01*
X0036322Y0050297D02*
X0037278Y0050297D01*
X0037608Y0051095D02*
X0035992Y0051095D01*
X0035486Y0051894D02*
X0038114Y0051894D01*
X0038912Y0052692D02*
X0034688Y0052692D01*
X0033078Y0053491D02*
X0040522Y0053491D01*
X0040865Y0054233D02*
X0042735Y0054233D01*
X0044462Y0054949D01*
X0045784Y0056271D01*
X0046500Y0057998D01*
X0046500Y0059868D01*
X0045784Y0061595D01*
X0044462Y0062918D01*
X0042735Y0063633D01*
X0040865Y0063633D01*
X0039138Y0062918D01*
X0037816Y0061595D01*
X0037100Y0059868D01*
X0037100Y0057998D01*
X0037816Y0056271D01*
X0039138Y0054949D01*
X0040865Y0054233D01*
X0040729Y0054289D02*
X0032871Y0054289D01*
X0032735Y0054233D02*
X0034462Y0054949D01*
X0035784Y0056271D01*
X0036500Y0057998D01*
X0036500Y0059868D01*
X0035784Y0061595D01*
X0034462Y0062918D01*
X0032735Y0063633D01*
X0030865Y0063633D01*
X0029138Y0062918D01*
X0027816Y0061595D01*
X0027100Y0059868D01*
X0027100Y0057998D01*
X0027816Y0056271D01*
X0029138Y0054949D01*
X0030865Y0054233D01*
X0032735Y0054233D01*
X0030729Y0054289D02*
X0012871Y0054289D01*
X0013078Y0053491D02*
X0030522Y0053491D01*
X0028912Y0052692D02*
X0014688Y0052692D01*
X0015486Y0051894D02*
X0028114Y0051894D01*
X0027608Y0051095D02*
X0015992Y0051095D01*
X0016322Y0050297D02*
X0027278Y0050297D01*
X0027100Y0049498D02*
X0016500Y0049498D01*
X0016500Y0048700D02*
X0027100Y0048700D01*
X0027140Y0047901D02*
X0016460Y0047901D01*
X0016129Y0047103D02*
X0027471Y0047103D01*
X0027802Y0046304D02*
X0015798Y0046304D01*
X0015019Y0045506D02*
X0028581Y0045506D01*
X0029721Y0044707D02*
X0013879Y0044707D01*
X0008114Y0051894D02*
X0007700Y0051894D01*
X0007700Y0052692D02*
X0008912Y0052692D01*
X0007700Y0053491D02*
X0010522Y0053491D01*
X0010729Y0054289D02*
X0007700Y0054289D01*
X0007700Y0055088D02*
X0008998Y0055088D01*
X0008200Y0055886D02*
X0007700Y0055886D01*
X0014602Y0055088D02*
X0028998Y0055088D01*
X0028200Y0055886D02*
X0015400Y0055886D01*
X0015956Y0056685D02*
X0027644Y0056685D01*
X0027313Y0057483D02*
X0016287Y0057483D01*
X0016500Y0058282D02*
X0027100Y0058282D01*
X0027100Y0059080D02*
X0016500Y0059080D01*
X0016495Y0059879D02*
X0027105Y0059879D01*
X0027435Y0060677D02*
X0016165Y0060677D01*
X0015834Y0061476D02*
X0027766Y0061476D01*
X0028495Y0062274D02*
X0015105Y0062274D01*
X0014087Y0063073D02*
X0029513Y0063073D01*
X0033790Y0064670D02*
X0039810Y0064670D01*
X0039138Y0064949D02*
X0040865Y0064233D01*
X0042735Y0064233D01*
X0044462Y0064949D01*
X0045784Y0066271D01*
X0046500Y0067998D01*
X0046500Y0069868D01*
X0045784Y0071595D01*
X0044462Y0072918D01*
X0042735Y0073633D01*
X0040865Y0073633D01*
X0039138Y0072918D01*
X0037816Y0071595D01*
X0037100Y0069868D01*
X0037100Y0067998D01*
X0037816Y0066271D01*
X0039138Y0064949D01*
X0038618Y0065468D02*
X0034982Y0065468D01*
X0035781Y0066267D02*
X0037819Y0066267D01*
X0037486Y0067065D02*
X0036114Y0067065D01*
X0036444Y0067864D02*
X0037156Y0067864D01*
X0037100Y0068662D02*
X0036500Y0068662D01*
X0036500Y0069461D02*
X0037100Y0069461D01*
X0037262Y0070260D02*
X0036338Y0070260D01*
X0036007Y0071058D02*
X0037593Y0071058D01*
X0038077Y0071857D02*
X0035523Y0071857D01*
X0034725Y0072655D02*
X0038875Y0072655D01*
X0040432Y0073454D02*
X0033168Y0073454D01*
X0043168Y0073454D02*
X0050432Y0073454D01*
X0050865Y0073633D02*
X0049138Y0072918D01*
X0047816Y0071595D01*
X0047100Y0069868D01*
X0047100Y0067998D01*
X0047816Y0066271D01*
X0049138Y0064949D01*
X0050865Y0064233D01*
X0052735Y0064233D01*
X0054462Y0064949D01*
X0055784Y0066271D01*
X0056500Y0067998D01*
X0056500Y0069868D01*
X0055784Y0071595D01*
X0054462Y0072918D01*
X0052735Y0073633D01*
X0050865Y0073633D01*
X0048875Y0072655D02*
X0044725Y0072655D01*
X0045523Y0071857D02*
X0048077Y0071857D01*
X0047593Y0071058D02*
X0046007Y0071058D01*
X0046338Y0070260D02*
X0047262Y0070260D01*
X0047100Y0069461D02*
X0046500Y0069461D01*
X0046500Y0068662D02*
X0047100Y0068662D01*
X0047156Y0067864D02*
X0046444Y0067864D01*
X0046114Y0067065D02*
X0047486Y0067065D01*
X0047819Y0066267D02*
X0045781Y0066267D01*
X0044982Y0065468D02*
X0048618Y0065468D01*
X0049810Y0064670D02*
X0043790Y0064670D01*
X0044087Y0063073D02*
X0049513Y0063073D01*
X0049138Y0062918D02*
X0047816Y0061595D01*
X0047100Y0059868D01*
X0047100Y0057998D01*
X0047816Y0056271D01*
X0049138Y0054949D01*
X0050865Y0054233D01*
X0052735Y0054233D01*
X0054462Y0054949D01*
X0055784Y0056271D01*
X0056500Y0057998D01*
X0056500Y0059868D01*
X0055784Y0061595D01*
X0054462Y0062918D01*
X0052735Y0063633D01*
X0050865Y0063633D01*
X0049138Y0062918D01*
X0048495Y0062274D02*
X0045105Y0062274D01*
X0045834Y0061476D02*
X0047766Y0061476D01*
X0047435Y0060677D02*
X0046165Y0060677D01*
X0046495Y0059879D02*
X0047105Y0059879D01*
X0047100Y0059080D02*
X0046500Y0059080D01*
X0046500Y0058282D02*
X0047100Y0058282D01*
X0047313Y0057483D02*
X0046287Y0057483D01*
X0045956Y0056685D02*
X0047644Y0056685D01*
X0048200Y0055886D02*
X0045400Y0055886D01*
X0044602Y0055088D02*
X0048998Y0055088D01*
X0050729Y0054289D02*
X0042871Y0054289D01*
X0043078Y0053491D02*
X0050522Y0053491D01*
X0050865Y0053633D02*
X0049138Y0052918D01*
X0047816Y0051595D01*
X0047100Y0049868D01*
X0047100Y0047998D01*
X0047816Y0046271D01*
X0049138Y0044949D01*
X0050865Y0044233D01*
X0052735Y0044233D01*
X0054462Y0044949D01*
X0055784Y0046271D01*
X0056500Y0047998D01*
X0056500Y0049868D01*
X0055784Y0051595D01*
X0054462Y0052918D01*
X0052735Y0053633D01*
X0050865Y0053633D01*
X0048912Y0052692D02*
X0044688Y0052692D01*
X0045486Y0051894D02*
X0048114Y0051894D01*
X0047608Y0051095D02*
X0045992Y0051095D01*
X0046322Y0050297D02*
X0047278Y0050297D01*
X0047100Y0049498D02*
X0046500Y0049498D01*
X0046500Y0048700D02*
X0047100Y0048700D01*
X0047140Y0047901D02*
X0046460Y0047901D01*
X0046129Y0047103D02*
X0047471Y0047103D01*
X0047802Y0046304D02*
X0045798Y0046304D01*
X0045019Y0045506D02*
X0048581Y0045506D01*
X0049721Y0044707D02*
X0043879Y0044707D01*
X0043997Y0043110D02*
X0049603Y0043110D01*
X0048532Y0042312D02*
X0045068Y0042312D01*
X0045819Y0041513D02*
X0047781Y0041513D01*
X0047451Y0040715D02*
X0046149Y0040715D01*
X0046480Y0039916D02*
X0047120Y0039916D01*
X0047100Y0039118D02*
X0046500Y0039118D01*
X0046500Y0038319D02*
X0047100Y0038319D01*
X0047298Y0037521D02*
X0046302Y0037521D01*
X0045971Y0036722D02*
X0047629Y0036722D01*
X0048163Y0035924D02*
X0045437Y0035924D01*
X0044639Y0035125D02*
X0048961Y0035125D01*
X0054639Y0035125D02*
X0058961Y0035125D01*
X0058163Y0035924D02*
X0055437Y0035924D01*
X0055971Y0036722D02*
X0057629Y0036722D01*
X0057298Y0037521D02*
X0056302Y0037521D01*
X0056500Y0038319D02*
X0057100Y0038319D01*
X0057100Y0039118D02*
X0056500Y0039118D01*
X0056480Y0039916D02*
X0057120Y0039916D01*
X0057451Y0040715D02*
X0056149Y0040715D01*
X0055819Y0041513D02*
X0057781Y0041513D01*
X0058532Y0042312D02*
X0055068Y0042312D01*
X0053997Y0043110D02*
X0059603Y0043110D01*
X0060865Y0044233D02*
X0062735Y0044233D01*
X0064462Y0044949D01*
X0065784Y0046271D01*
X0066500Y0047998D01*
X0066500Y0049868D01*
X0065784Y0051595D01*
X0064462Y0052918D01*
X0062735Y0053633D01*
X0060865Y0053633D01*
X0059138Y0052918D01*
X0057816Y0051595D01*
X0057100Y0049868D01*
X0057100Y0047998D01*
X0057816Y0046271D01*
X0059138Y0044949D01*
X0060865Y0044233D01*
X0059721Y0044707D02*
X0053879Y0044707D01*
X0055019Y0045506D02*
X0058581Y0045506D01*
X0057802Y0046304D02*
X0055798Y0046304D01*
X0056129Y0047103D02*
X0057471Y0047103D01*
X0057140Y0047901D02*
X0056460Y0047901D01*
X0056500Y0048700D02*
X0057100Y0048700D01*
X0057100Y0049498D02*
X0056500Y0049498D01*
X0056322Y0050297D02*
X0057278Y0050297D01*
X0057608Y0051095D02*
X0055992Y0051095D01*
X0055486Y0051894D02*
X0058114Y0051894D01*
X0058912Y0052692D02*
X0054688Y0052692D01*
X0053078Y0053491D02*
X0060522Y0053491D01*
X0060865Y0054233D02*
X0062735Y0054233D01*
X0064462Y0054949D01*
X0065784Y0056271D01*
X0066500Y0057998D01*
X0066500Y0059868D01*
X0065784Y0061595D01*
X0064462Y0062918D01*
X0062735Y0063633D01*
X0060865Y0063633D01*
X0059138Y0062918D01*
X0057816Y0061595D01*
X0057100Y0059868D01*
X0057100Y0057998D01*
X0057816Y0056271D01*
X0059138Y0054949D01*
X0060865Y0054233D01*
X0060729Y0054289D02*
X0052871Y0054289D01*
X0054602Y0055088D02*
X0058998Y0055088D01*
X0058200Y0055886D02*
X0055400Y0055886D01*
X0055956Y0056685D02*
X0057644Y0056685D01*
X0057313Y0057483D02*
X0056287Y0057483D01*
X0056500Y0058282D02*
X0057100Y0058282D01*
X0057100Y0059080D02*
X0056500Y0059080D01*
X0056495Y0059879D02*
X0057105Y0059879D01*
X0057435Y0060677D02*
X0056165Y0060677D01*
X0055834Y0061476D02*
X0057766Y0061476D01*
X0058495Y0062274D02*
X0055105Y0062274D01*
X0054087Y0063073D02*
X0059513Y0063073D01*
X0060865Y0064233D02*
X0062735Y0064233D01*
X0064462Y0064949D01*
X0065784Y0066271D01*
X0066500Y0067998D01*
X0066500Y0069868D01*
X0065784Y0071595D01*
X0064462Y0072918D01*
X0062735Y0073633D01*
X0060865Y0073633D01*
X0059138Y0072918D01*
X0057816Y0071595D01*
X0057100Y0069868D01*
X0057100Y0067998D01*
X0057816Y0066271D01*
X0059138Y0064949D01*
X0060865Y0064233D01*
X0059810Y0064670D02*
X0053790Y0064670D01*
X0054982Y0065468D02*
X0058618Y0065468D01*
X0057819Y0066267D02*
X0055781Y0066267D01*
X0056114Y0067065D02*
X0057486Y0067065D01*
X0057156Y0067864D02*
X0056444Y0067864D01*
X0056500Y0068662D02*
X0057100Y0068662D01*
X0057100Y0069461D02*
X0056500Y0069461D01*
X0056338Y0070260D02*
X0057262Y0070260D01*
X0057593Y0071058D02*
X0056007Y0071058D01*
X0055523Y0071857D02*
X0058077Y0071857D01*
X0058875Y0072655D02*
X0054725Y0072655D01*
X0053168Y0073454D02*
X0060432Y0073454D01*
X0063168Y0073454D02*
X0070432Y0073454D01*
X0068875Y0072655D02*
X0064725Y0072655D01*
X0065523Y0071857D02*
X0068077Y0071857D01*
X0067593Y0071058D02*
X0066007Y0071058D01*
X0066338Y0070260D02*
X0067262Y0070260D01*
X0067100Y0069461D02*
X0066500Y0069461D01*
X0066500Y0068662D02*
X0067100Y0068662D01*
X0067156Y0067864D02*
X0066444Y0067864D01*
X0066114Y0067065D02*
X0067486Y0067065D01*
X0067819Y0066267D02*
X0065781Y0066267D01*
X0064982Y0065468D02*
X0068618Y0065468D01*
X0069810Y0064670D02*
X0063790Y0064670D01*
X0064087Y0063073D02*
X0069513Y0063073D01*
X0068495Y0062274D02*
X0065105Y0062274D01*
X0065834Y0061476D02*
X0067766Y0061476D01*
X0067435Y0060677D02*
X0066165Y0060677D01*
X0066495Y0059879D02*
X0067105Y0059879D01*
X0067100Y0059080D02*
X0066500Y0059080D01*
X0066500Y0058282D02*
X0067100Y0058282D01*
X0067313Y0057483D02*
X0066287Y0057483D01*
X0065956Y0056685D02*
X0067644Y0056685D01*
X0068200Y0055886D02*
X0065400Y0055886D01*
X0064602Y0055088D02*
X0068998Y0055088D01*
X0070729Y0054289D02*
X0062871Y0054289D01*
X0063078Y0053491D02*
X0070522Y0053491D01*
X0068912Y0052692D02*
X0064688Y0052692D01*
X0065486Y0051894D02*
X0068114Y0051894D01*
X0067608Y0051095D02*
X0065992Y0051095D01*
X0066322Y0050297D02*
X0067278Y0050297D01*
X0067100Y0049498D02*
X0066500Y0049498D01*
X0066500Y0048700D02*
X0067100Y0048700D01*
X0067140Y0047901D02*
X0066460Y0047901D01*
X0066129Y0047103D02*
X0067471Y0047103D01*
X0067802Y0046304D02*
X0065798Y0046304D01*
X0065019Y0045506D02*
X0068581Y0045506D01*
X0069721Y0044707D02*
X0063879Y0044707D01*
X0063997Y0043110D02*
X0069603Y0043110D01*
X0068532Y0042312D02*
X0065068Y0042312D01*
X0065819Y0041513D02*
X0067781Y0041513D01*
X0067451Y0040715D02*
X0066149Y0040715D01*
X0066480Y0039916D02*
X0067120Y0039916D01*
X0067100Y0039118D02*
X0066500Y0039118D01*
X0066500Y0038319D02*
X0067100Y0038319D01*
X0067298Y0037521D02*
X0066302Y0037521D01*
X0065971Y0036722D02*
X0067629Y0036722D01*
X0068163Y0035924D02*
X0065437Y0035924D01*
X0064639Y0035125D02*
X0068961Y0035125D01*
X0070905Y0028433D02*
X0069251Y0027748D01*
X0067985Y0026482D01*
X0067300Y0024828D01*
X0067300Y0023038D01*
X0067985Y0021384D01*
X0069251Y0020118D01*
X0070905Y0019433D01*
X0072695Y0019433D01*
X0074349Y0020118D01*
X0075615Y0021384D01*
X0076300Y0023038D01*
X0076300Y0024828D01*
X0075615Y0026482D01*
X0074349Y0027748D01*
X0072695Y0028433D01*
X0070905Y0028433D01*
X0069711Y0027938D02*
X0063889Y0027938D01*
X0064349Y0027748D02*
X0062695Y0028433D01*
X0060905Y0028433D01*
X0059251Y0027748D01*
X0057985Y0026482D01*
X0057300Y0024828D01*
X0057300Y0023038D01*
X0057985Y0021384D01*
X0059251Y0020118D01*
X0060905Y0019433D01*
X0062695Y0019433D01*
X0064349Y0020118D01*
X0065615Y0021384D01*
X0066300Y0023038D01*
X0066300Y0024828D01*
X0065615Y0026482D01*
X0064349Y0027748D01*
X0064957Y0027140D02*
X0068643Y0027140D01*
X0067927Y0026341D02*
X0065673Y0026341D01*
X0066004Y0025543D02*
X0067596Y0025543D01*
X0067300Y0024744D02*
X0066300Y0024744D01*
X0066300Y0023946D02*
X0067300Y0023946D01*
X0067300Y0023147D02*
X0066300Y0023147D01*
X0066015Y0022349D02*
X0067585Y0022349D01*
X0067916Y0021550D02*
X0065684Y0021550D01*
X0064983Y0020752D02*
X0068617Y0020752D01*
X0069649Y0019953D02*
X0063951Y0019953D01*
X0063001Y0018356D02*
X0070599Y0018356D01*
X0069011Y0017558D02*
X0064589Y0017558D01*
X0065388Y0016759D02*
X0068212Y0016759D01*
X0067748Y0015961D02*
X0065852Y0015961D01*
X0066182Y0015162D02*
X0067418Y0015162D01*
X0067300Y0014364D02*
X0066300Y0014364D01*
X0066300Y0013565D02*
X0067300Y0013565D01*
X0067433Y0012767D02*
X0066167Y0012767D01*
X0065836Y0011968D02*
X0067764Y0011968D01*
X0068249Y0011170D02*
X0065351Y0011170D01*
X0064552Y0010371D02*
X0069048Y0010371D01*
X0074552Y0010371D02*
X0079048Y0010371D01*
X0078249Y0011170D02*
X0075351Y0011170D01*
X0075836Y0011968D02*
X0077764Y0011968D01*
X0077433Y0012767D02*
X0076167Y0012767D01*
X0076300Y0013565D02*
X0077300Y0013565D01*
X0077300Y0014364D02*
X0076300Y0014364D01*
X0076182Y0015162D02*
X0077418Y0015162D01*
X0077748Y0015961D02*
X0075852Y0015961D01*
X0075388Y0016759D02*
X0078212Y0016759D01*
X0079011Y0017558D02*
X0074589Y0017558D01*
X0073001Y0018356D02*
X0080599Y0018356D01*
X0079649Y0019953D02*
X0073951Y0019953D01*
X0074983Y0020752D02*
X0078617Y0020752D01*
X0077916Y0021550D02*
X0075684Y0021550D01*
X0076015Y0022349D02*
X0077585Y0022349D01*
X0077300Y0023147D02*
X0076300Y0023147D01*
X0076300Y0023946D02*
X0077300Y0023946D01*
X0077300Y0024744D02*
X0076300Y0024744D01*
X0076004Y0025543D02*
X0077596Y0025543D01*
X0077927Y0026341D02*
X0075673Y0026341D01*
X0074957Y0027140D02*
X0078643Y0027140D01*
X0079711Y0027938D02*
X0073889Y0027938D01*
X0082960Y0034327D02*
X0099607Y0034327D01*
X0098396Y0035125D02*
X0084639Y0035125D01*
X0085437Y0035924D02*
X0097683Y0035924D01*
X0097203Y0036722D02*
X0085971Y0036722D01*
X0086302Y0037521D02*
X0096896Y0037521D01*
X0096734Y0038319D02*
X0086500Y0038319D01*
X0083879Y0044707D02*
X0099112Y0044707D01*
X0098188Y0045506D02*
X0085019Y0045506D01*
X0085798Y0046304D02*
X0097589Y0046304D01*
X0097206Y0047103D02*
X0086129Y0047103D01*
X0086460Y0047901D02*
X0096974Y0047901D01*
X0096901Y0049498D02*
X0086500Y0049498D01*
X0086500Y0048700D02*
X0101570Y0048700D01*
X0101584Y0049498D02*
X0102384Y0049498D01*
X0102398Y0050297D02*
X0101598Y0050297D01*
X0101612Y0051095D02*
X0102412Y0051095D01*
X0102426Y0051894D02*
X0101626Y0051894D01*
X0101640Y0052692D02*
X0102440Y0052692D01*
X0102454Y0053491D02*
X0101654Y0053491D01*
X0101663Y0054032D02*
X0101663Y0054032D01*
X0101668Y0054289D02*
X0102468Y0054289D01*
X0102482Y0055088D02*
X0101682Y0055088D01*
X0101696Y0055886D02*
X0102496Y0055886D01*
X0102510Y0056685D02*
X0101710Y0056685D01*
X0101724Y0057483D02*
X0102524Y0057483D01*
X0098779Y0055088D02*
X0084602Y0055088D01*
X0085400Y0055886D02*
X0098056Y0055886D01*
X0097569Y0056685D02*
X0085956Y0056685D01*
X0086287Y0057483D02*
X0097257Y0057483D01*
X0097088Y0058282D02*
X0086500Y0058282D01*
X0082871Y0054289D02*
X0100023Y0054289D01*
X0099689Y0053491D02*
X0083078Y0053491D01*
X0084688Y0052692D02*
X0098523Y0052692D01*
X0097823Y0051894D02*
X0085486Y0051894D01*
X0085992Y0051095D02*
X0097353Y0051095D01*
X0097056Y0050297D02*
X0086322Y0050297D01*
X0101473Y0043110D02*
X0102273Y0043110D01*
X0102286Y0043832D02*
X0102286Y0043832D01*
X0102259Y0042312D02*
X0101459Y0042312D01*
X0101445Y0041513D02*
X0102245Y0041513D01*
X0102231Y0040715D02*
X0101431Y0040715D01*
X0101389Y0038319D02*
X0102189Y0038319D01*
X0102175Y0037521D02*
X0101375Y0037521D01*
X0101361Y0036722D02*
X0102161Y0036722D01*
X0102148Y0035924D02*
X0101347Y0035924D01*
X0101333Y0035125D02*
X0102134Y0035125D01*
X0102120Y0034327D02*
X0101320Y0034327D01*
X0104837Y0044707D02*
X0130500Y0044707D01*
X0130500Y0045506D02*
X0105761Y0045506D01*
X0106360Y0046304D02*
X0130500Y0046304D01*
X0130500Y0047103D02*
X0106743Y0047103D01*
X0106975Y0047901D02*
X0130500Y0047901D01*
X0100160Y0079842D02*
X0093440Y0079842D01*
X0094771Y0080640D02*
X0098829Y0080640D01*
X0098030Y0081439D02*
X0095570Y0081439D01*
X0095927Y0082237D02*
X0097673Y0082237D01*
X0097342Y0083036D02*
X0096258Y0083036D01*
X0096300Y0083834D02*
X0097300Y0083834D01*
X0097300Y0084633D02*
X0096300Y0084633D01*
X0096092Y0085431D02*
X0097508Y0085431D01*
X0097839Y0086230D02*
X0095761Y0086230D01*
X0095169Y0087028D02*
X0098431Y0087028D01*
X0105169Y0087028D02*
X0121375Y0087028D01*
X0122000Y0086230D02*
X0105761Y0086230D01*
X0106092Y0085431D02*
X0122265Y0085431D01*
X0123063Y0084633D02*
X0106300Y0084633D01*
X0121400Y0088983D02*
X0123900Y0086483D01*
X0090160Y0079842D02*
X0083440Y0079842D01*
X0084771Y0080640D02*
X0088829Y0080640D01*
X0088030Y0081439D02*
X0085570Y0081439D01*
X0085927Y0082237D02*
X0087673Y0082237D01*
X0087342Y0083036D02*
X0086258Y0083036D01*
X0086300Y0083834D02*
X0087300Y0083834D01*
X0087300Y0084633D02*
X0086300Y0084633D01*
X0086092Y0085431D02*
X0087508Y0085431D01*
X0087839Y0086230D02*
X0085761Y0086230D01*
X0085169Y0087028D02*
X0088431Y0087028D01*
X0039513Y0063073D02*
X0034087Y0063073D01*
X0035105Y0062274D02*
X0038495Y0062274D01*
X0037766Y0061476D02*
X0035834Y0061476D01*
X0036165Y0060677D02*
X0037435Y0060677D01*
X0037105Y0059879D02*
X0036495Y0059879D01*
X0036500Y0059080D02*
X0037100Y0059080D01*
X0037100Y0058282D02*
X0036500Y0058282D01*
X0036287Y0057483D02*
X0037313Y0057483D01*
X0037644Y0056685D02*
X0035956Y0056685D01*
X0035400Y0055886D02*
X0038200Y0055886D01*
X0038998Y0055088D02*
X0034602Y0055088D01*
X0008875Y0072655D02*
X0007700Y0072655D01*
X0007700Y0071857D02*
X0008077Y0071857D01*
X0007700Y0027938D02*
X0009711Y0027938D01*
X0008643Y0027140D02*
X0007700Y0027140D01*
X0007700Y0026341D02*
X0007927Y0026341D01*
X0007916Y0021550D02*
X0007700Y0021550D01*
X0007700Y0020752D02*
X0008617Y0020752D01*
X0033001Y0018356D02*
X0040599Y0018356D01*
X0040905Y0019433D02*
X0042695Y0019433D01*
X0044349Y0020118D01*
X0045615Y0021384D01*
X0046300Y0023038D01*
X0046300Y0024828D01*
X0045615Y0026482D01*
X0044349Y0027748D01*
X0042695Y0028433D01*
X0040905Y0028433D01*
X0039251Y0027748D01*
X0037985Y0026482D01*
X0037300Y0024828D01*
X0037300Y0023038D01*
X0037985Y0021384D01*
X0039251Y0020118D01*
X0040905Y0019433D01*
X0039649Y0019953D02*
X0033951Y0019953D01*
X0034983Y0020752D02*
X0038617Y0020752D01*
X0037916Y0021550D02*
X0035684Y0021550D01*
X0036015Y0022349D02*
X0037585Y0022349D01*
X0037300Y0023147D02*
X0036300Y0023147D01*
X0036300Y0023946D02*
X0037300Y0023946D01*
X0037300Y0024744D02*
X0036300Y0024744D01*
X0036004Y0025543D02*
X0037596Y0025543D01*
X0037927Y0026341D02*
X0035673Y0026341D01*
X0034957Y0027140D02*
X0038643Y0027140D01*
X0039711Y0027938D02*
X0033889Y0027938D01*
X0043889Y0027938D02*
X0049711Y0027938D01*
X0049251Y0027748D02*
X0050905Y0028433D01*
X0052695Y0028433D01*
X0054349Y0027748D01*
X0055615Y0026482D01*
X0056300Y0024828D01*
X0056300Y0023038D01*
X0055615Y0021384D01*
X0054349Y0020118D01*
X0052695Y0019433D01*
X0050905Y0019433D01*
X0049251Y0020118D01*
X0047985Y0021384D01*
X0047300Y0023038D01*
X0047300Y0024828D01*
X0047985Y0026482D01*
X0049251Y0027748D01*
X0048643Y0027140D02*
X0044957Y0027140D01*
X0045673Y0026341D02*
X0047927Y0026341D01*
X0047596Y0025543D02*
X0046004Y0025543D01*
X0046300Y0024744D02*
X0047300Y0024744D01*
X0047300Y0023946D02*
X0046300Y0023946D01*
X0046300Y0023147D02*
X0047300Y0023147D01*
X0047585Y0022349D02*
X0046015Y0022349D01*
X0045684Y0021550D02*
X0047916Y0021550D01*
X0048617Y0020752D02*
X0044983Y0020752D01*
X0043951Y0019953D02*
X0049649Y0019953D01*
X0050599Y0018356D02*
X0043001Y0018356D01*
X0044589Y0017558D02*
X0049011Y0017558D01*
X0048212Y0016759D02*
X0045388Y0016759D01*
X0045852Y0015961D02*
X0047748Y0015961D01*
X0047418Y0015162D02*
X0046182Y0015162D01*
X0046300Y0014364D02*
X0047300Y0014364D01*
X0047300Y0013565D02*
X0046300Y0013565D01*
X0046167Y0012767D02*
X0047433Y0012767D01*
X0047764Y0011968D02*
X0045836Y0011968D01*
X0045351Y0011170D02*
X0048249Y0011170D01*
X0049048Y0010371D02*
X0044552Y0010371D01*
X0039048Y0010371D02*
X0034552Y0010371D01*
X0035351Y0011170D02*
X0038249Y0011170D01*
X0037764Y0011968D02*
X0035836Y0011968D01*
X0036167Y0012767D02*
X0037433Y0012767D01*
X0037300Y0013565D02*
X0036300Y0013565D01*
X0036300Y0014364D02*
X0037300Y0014364D01*
X0037418Y0015162D02*
X0036182Y0015162D01*
X0035852Y0015961D02*
X0037748Y0015961D01*
X0038212Y0016759D02*
X0035388Y0016759D01*
X0034589Y0017558D02*
X0039011Y0017558D01*
X0053001Y0018356D02*
X0060599Y0018356D01*
X0059011Y0017558D02*
X0054589Y0017558D01*
X0055388Y0016759D02*
X0058212Y0016759D01*
X0057748Y0015961D02*
X0055852Y0015961D01*
X0056182Y0015162D02*
X0057418Y0015162D01*
X0057300Y0014364D02*
X0056300Y0014364D01*
X0056300Y0013565D02*
X0057300Y0013565D01*
X0057433Y0012767D02*
X0056167Y0012767D01*
X0055836Y0011968D02*
X0057764Y0011968D01*
X0058249Y0011170D02*
X0055351Y0011170D01*
X0054552Y0010371D02*
X0059048Y0010371D01*
X0059649Y0019953D02*
X0053951Y0019953D01*
X0054983Y0020752D02*
X0058617Y0020752D01*
X0057916Y0021550D02*
X0055684Y0021550D01*
X0056015Y0022349D02*
X0057585Y0022349D01*
X0057300Y0023147D02*
X0056300Y0023147D01*
X0056300Y0023946D02*
X0057300Y0023946D01*
X0057300Y0024744D02*
X0056300Y0024744D01*
X0056004Y0025543D02*
X0057596Y0025543D01*
X0057927Y0026341D02*
X0055673Y0026341D01*
X0054957Y0027140D02*
X0058643Y0027140D01*
X0059711Y0027938D02*
X0053889Y0027938D01*
X0105118Y0010371D02*
X0130500Y0010371D01*
X0130500Y0011170D02*
X0105813Y0011170D01*
X0106273Y0011968D02*
X0130500Y0011968D01*
X0130500Y0012767D02*
X0106557Y0012767D01*
X0106695Y0013565D02*
X0130500Y0013565D01*
D13*
X0122000Y0072083D03*
X0123900Y0086483D03*
X0127000Y0094583D03*
M02*
