G75*
%MOIN*%
%OFA0B0*%
%FSLAX25Y25*%
%IPPOS*%
%LPD*%
%AMOC8*
5,1,8,0,0,1.08239X$1,22.5*
%
%ADD10C,0.07000*%
%ADD11C,0.07400*%
%ADD12R,0.03543X0.03543*%
%ADD13R,0.03150X0.03150*%
%ADD14C,0.00600*%
%ADD15C,0.01600*%
%ADD16C,0.01800*%
%ADD17C,0.00800*%
D10*
X0011800Y0013983D03*
X0021800Y0013983D03*
X0031800Y0013983D03*
X0041800Y0013983D03*
X0051800Y0013983D03*
X0061800Y0013983D03*
X0071800Y0013983D03*
X0081800Y0013983D03*
X0091800Y0013983D03*
X0101800Y0013983D03*
X0101800Y0023933D03*
X0091800Y0023933D03*
X0081800Y0023933D03*
X0071800Y0023933D03*
X0061800Y0023933D03*
X0051800Y0023933D03*
X0041800Y0023933D03*
X0031800Y0023933D03*
X0021800Y0023933D03*
X0011800Y0023933D03*
X0011800Y0084033D03*
X0021800Y0084033D03*
X0031800Y0084033D03*
X0041800Y0084033D03*
X0051800Y0084033D03*
X0061800Y0084033D03*
X0071800Y0084033D03*
X0081800Y0084033D03*
X0091800Y0084033D03*
X0101800Y0084033D03*
X0101800Y0093983D03*
X0091800Y0093983D03*
X0081800Y0093983D03*
X0071800Y0093983D03*
X0061800Y0093983D03*
X0051800Y0093983D03*
X0041800Y0093983D03*
X0031800Y0093983D03*
X0021800Y0093983D03*
X0011800Y0093983D03*
D11*
X0011800Y0068933D03*
X0011800Y0058933D03*
X0011800Y0048933D03*
X0011800Y0038933D03*
X0031800Y0038933D03*
X0041800Y0038933D03*
X0051800Y0038933D03*
X0061800Y0038933D03*
X0071800Y0038933D03*
X0081800Y0038933D03*
X0081800Y0048933D03*
X0071800Y0048933D03*
X0061800Y0048933D03*
X0051800Y0048933D03*
X0041800Y0048933D03*
X0031800Y0048933D03*
X0031800Y0058933D03*
X0041800Y0058933D03*
X0051800Y0058933D03*
X0061800Y0058933D03*
X0071800Y0058933D03*
X0081800Y0058933D03*
X0081800Y0068933D03*
X0071800Y0068933D03*
X0061800Y0068933D03*
X0051800Y0068933D03*
X0041800Y0068933D03*
X0031800Y0068933D03*
X0102149Y0058930D03*
X0101975Y0048932D03*
X0101800Y0038933D03*
X0102324Y0068928D03*
D12*
X0110829Y0064633D03*
X0110829Y0058333D03*
X0126971Y0058333D03*
X0126971Y0064633D03*
X0126971Y0083333D03*
X0126971Y0089633D03*
X0110829Y0089633D03*
X0110829Y0083333D03*
X0110829Y0024633D03*
X0110829Y0018333D03*
X0126971Y0018333D03*
X0126971Y0024633D03*
D13*
X0124400Y0051483D03*
X0118400Y0051483D03*
X0118400Y0076483D03*
X0124400Y0076483D03*
D14*
X0016039Y0011151D02*
X0015371Y0010483D01*
X0018229Y0010483D01*
X0017561Y0011151D01*
X0016800Y0012988D01*
X0016800Y0014978D01*
X0016039Y0016815D01*
X0014632Y0018222D01*
X0013700Y0018608D01*
X0013700Y0019308D01*
X0014632Y0019694D01*
X0016039Y0021101D01*
X0016800Y0022938D01*
X0016800Y0024928D01*
X0016039Y0026765D01*
X0014632Y0028172D01*
X0012795Y0028933D01*
X0010805Y0028933D01*
X0008968Y0028172D01*
X0007900Y0027104D01*
X0007900Y0035479D01*
X0008854Y0034525D01*
X0010766Y0033733D01*
X0012834Y0033733D01*
X0014746Y0034525D01*
X0016208Y0035988D01*
X0017000Y0037899D01*
X0017000Y0039967D01*
X0016208Y0041879D01*
X0014746Y0043341D01*
X0014100Y0043609D01*
X0014100Y0044257D01*
X0014746Y0044525D01*
X0016208Y0045987D01*
X0017000Y0047899D01*
X0017000Y0049967D01*
X0016208Y0051879D01*
X0014746Y0053341D01*
X0014100Y0053609D01*
X0014100Y0054257D01*
X0014746Y0054525D01*
X0016208Y0055987D01*
X0017000Y0057899D01*
X0017000Y0059967D01*
X0016208Y0061879D01*
X0014746Y0063341D01*
X0014100Y0063609D01*
X0014100Y0064257D01*
X0014746Y0064525D01*
X0016208Y0065988D01*
X0017000Y0067899D01*
X0017000Y0069967D01*
X0016582Y0070977D01*
X0020358Y0075383D01*
X0036403Y0075383D01*
X0040273Y0079254D01*
X0040805Y0079033D01*
X0042795Y0079033D01*
X0044632Y0079794D01*
X0046039Y0081201D01*
X0046800Y0083038D01*
X0047561Y0081201D01*
X0048968Y0079794D01*
X0050805Y0079033D01*
X0052795Y0079033D01*
X0054632Y0079794D01*
X0056039Y0081201D01*
X0056800Y0083038D01*
X0057561Y0081201D01*
X0058968Y0079794D01*
X0060805Y0079033D01*
X0062795Y0079033D01*
X0063727Y0079419D01*
X0068563Y0074583D01*
X0103113Y0074583D01*
X0104081Y0073615D01*
X0103494Y0073805D01*
X0102717Y0073928D01*
X0102711Y0073928D01*
X0102629Y0069223D01*
X0102029Y0069234D01*
X0102111Y0073928D01*
X0101930Y0073928D01*
X0101153Y0073805D01*
X0100404Y0073562D01*
X0099703Y0073205D01*
X0099066Y0072742D01*
X0098510Y0072186D01*
X0098047Y0071549D01*
X0097690Y0070848D01*
X0097447Y0070099D01*
X0097324Y0069322D01*
X0097324Y0069316D01*
X0102029Y0069234D01*
X0102018Y0068634D01*
X0097324Y0068716D01*
X0097324Y0068535D01*
X0097447Y0067758D01*
X0097690Y0067009D01*
X0098047Y0066308D01*
X0098510Y0065671D01*
X0099066Y0065115D01*
X0099703Y0064652D01*
X0100404Y0064295D01*
X0101153Y0064052D01*
X0101921Y0063930D01*
X0101756Y0063930D01*
X0100978Y0063807D01*
X0100230Y0063564D01*
X0099528Y0063206D01*
X0098892Y0062744D01*
X0098335Y0062187D01*
X0097873Y0061551D01*
X0097515Y0060849D01*
X0097272Y0060101D01*
X0097149Y0059324D01*
X0097149Y0059317D01*
X0101854Y0059235D01*
X0101844Y0058635D01*
X0102444Y0058625D01*
X0102454Y0059225D01*
X0101854Y0059235D01*
X0101936Y0063930D01*
X0102018Y0068634D01*
X0102618Y0068623D01*
X0102536Y0063930D01*
X0102454Y0059225D01*
X0107149Y0059143D01*
X0107149Y0059147D01*
X0107270Y0059026D01*
X0107557Y0058739D01*
X0107557Y0055940D01*
X0108436Y0055062D01*
X0113222Y0055062D01*
X0114101Y0055940D01*
X0114101Y0056433D01*
X0123699Y0056433D01*
X0123699Y0055940D01*
X0124578Y0055062D01*
X0125071Y0055062D01*
X0125071Y0054841D01*
X0124788Y0054558D01*
X0122204Y0054558D01*
X0121325Y0053679D01*
X0121325Y0049287D01*
X0122204Y0048408D01*
X0126596Y0048408D01*
X0127475Y0049287D01*
X0127475Y0051871D01*
X0127758Y0052154D01*
X0128871Y0053267D01*
X0128871Y0055062D01*
X0129364Y0055062D01*
X0130243Y0055940D01*
X0130243Y0060726D01*
X0129486Y0061483D01*
X0130243Y0062240D01*
X0130243Y0067026D01*
X0129364Y0067904D01*
X0128871Y0067904D01*
X0128871Y0073703D01*
X0130300Y0075132D01*
X0130300Y0010483D01*
X0105088Y0010483D01*
X0105461Y0010856D01*
X0105905Y0011467D01*
X0106248Y0012141D01*
X0106482Y0012859D01*
X0106600Y0013605D01*
X0106600Y0013683D01*
X0102100Y0013683D01*
X0102100Y0014283D01*
X0106600Y0014283D01*
X0106600Y0014361D01*
X0106482Y0015107D01*
X0106248Y0015826D01*
X0105905Y0016499D01*
X0105481Y0017083D01*
X0105967Y0017083D01*
X0107080Y0018196D01*
X0107757Y0018874D01*
X0107757Y0018633D01*
X0110529Y0018633D01*
X0110529Y0018033D01*
X0111129Y0018033D01*
X0111129Y0015262D01*
X0112772Y0015262D01*
X0113103Y0015350D01*
X0113399Y0015522D01*
X0113641Y0015764D01*
X0113812Y0016060D01*
X0113901Y0016391D01*
X0113901Y0018033D01*
X0111129Y0018033D01*
X0111129Y0018633D01*
X0113901Y0018633D01*
X0113901Y0020276D01*
X0113812Y0020607D01*
X0113641Y0020903D01*
X0113399Y0021145D01*
X0113103Y0021317D01*
X0112936Y0021361D01*
X0113222Y0021361D01*
X0114101Y0022240D01*
X0114101Y0022733D01*
X0123699Y0022733D01*
X0123699Y0022240D01*
X0124578Y0021361D01*
X0124864Y0021361D01*
X0124697Y0021317D01*
X0124401Y0021145D01*
X0124159Y0020903D01*
X0123988Y0020607D01*
X0123899Y0020276D01*
X0123899Y0018633D01*
X0126671Y0018633D01*
X0126671Y0018033D01*
X0127271Y0018033D01*
X0127271Y0015262D01*
X0128914Y0015262D01*
X0129244Y0015350D01*
X0129541Y0015522D01*
X0129783Y0015764D01*
X0129954Y0016060D01*
X0130043Y0016391D01*
X0130043Y0018033D01*
X0127271Y0018033D01*
X0127271Y0018633D01*
X0130043Y0018633D01*
X0130043Y0020276D01*
X0129954Y0020607D01*
X0129783Y0020903D01*
X0129541Y0021145D01*
X0129244Y0021317D01*
X0129078Y0021361D01*
X0129364Y0021361D01*
X0130243Y0022240D01*
X0130243Y0027026D01*
X0129364Y0027904D01*
X0124578Y0027904D01*
X0123699Y0027026D01*
X0123699Y0026533D01*
X0114101Y0026533D01*
X0114101Y0027026D01*
X0113222Y0027904D01*
X0108436Y0027904D01*
X0107557Y0027026D01*
X0107557Y0024048D01*
X0106513Y0023003D01*
X0106600Y0023555D01*
X0106600Y0023633D01*
X0102100Y0023633D01*
X0102100Y0024233D01*
X0106600Y0024233D01*
X0106600Y0024311D01*
X0106482Y0025057D01*
X0106248Y0025776D01*
X0105905Y0026449D01*
X0105461Y0027060D01*
X0104927Y0027594D01*
X0104316Y0028038D01*
X0103643Y0028381D01*
X0102924Y0028615D01*
X0102178Y0028733D01*
X0102100Y0028733D01*
X0102100Y0024233D01*
X0101500Y0024233D01*
X0101500Y0023633D01*
X0097000Y0023633D01*
X0097000Y0023555D01*
X0097118Y0022809D01*
X0097352Y0022091D01*
X0097695Y0021417D01*
X0098083Y0020883D01*
X0097537Y0020883D01*
X0096414Y0022006D01*
X0096800Y0022938D01*
X0096800Y0024928D01*
X0096039Y0026765D01*
X0094632Y0028172D01*
X0092795Y0028933D01*
X0090805Y0028933D01*
X0088968Y0028172D01*
X0087561Y0026765D01*
X0086800Y0024928D01*
X0086039Y0026765D01*
X0084632Y0028172D01*
X0082795Y0028933D01*
X0080805Y0028933D01*
X0078968Y0028172D01*
X0077561Y0026765D01*
X0076800Y0024928D01*
X0076039Y0026765D01*
X0074632Y0028172D01*
X0072795Y0028933D01*
X0070805Y0028933D01*
X0068968Y0028172D01*
X0067561Y0026765D01*
X0066800Y0024928D01*
X0066039Y0026765D01*
X0064632Y0028172D01*
X0062795Y0028933D01*
X0060805Y0028933D01*
X0058968Y0028172D01*
X0057561Y0026765D01*
X0056800Y0024928D01*
X0056039Y0026765D01*
X0054632Y0028172D01*
X0052795Y0028933D01*
X0050805Y0028933D01*
X0048968Y0028172D01*
X0047561Y0026765D01*
X0046800Y0024928D01*
X0046039Y0026765D01*
X0044632Y0028172D01*
X0042795Y0028933D01*
X0040805Y0028933D01*
X0038968Y0028172D01*
X0037561Y0026765D01*
X0036800Y0024928D01*
X0036039Y0026765D01*
X0034632Y0028172D01*
X0032795Y0028933D01*
X0030805Y0028933D01*
X0028968Y0028172D01*
X0027561Y0026765D01*
X0026800Y0024928D01*
X0026039Y0026765D01*
X0024632Y0028172D01*
X0022795Y0028933D01*
X0020805Y0028933D01*
X0018968Y0028172D01*
X0017561Y0026765D01*
X0016800Y0024928D01*
X0016800Y0022938D01*
X0017561Y0021101D01*
X0018968Y0019694D01*
X0019900Y0019308D01*
X0019900Y0018608D01*
X0018968Y0018222D01*
X0017561Y0016815D01*
X0016800Y0014978D01*
X0016800Y0012988D01*
X0016039Y0011151D01*
X0016045Y0011165D02*
X0017555Y0011165D01*
X0017307Y0011764D02*
X0016293Y0011764D01*
X0016541Y0012362D02*
X0017059Y0012362D01*
X0016811Y0012961D02*
X0016788Y0012961D01*
X0016800Y0013559D02*
X0016800Y0013559D01*
X0016800Y0014158D02*
X0016800Y0014158D01*
X0016800Y0014756D02*
X0016800Y0014756D01*
X0016644Y0015355D02*
X0016956Y0015355D01*
X0017204Y0015953D02*
X0016396Y0015953D01*
X0016148Y0016552D02*
X0017452Y0016552D01*
X0017896Y0017150D02*
X0015704Y0017150D01*
X0015105Y0017749D02*
X0018495Y0017749D01*
X0019271Y0018347D02*
X0014329Y0018347D01*
X0013700Y0018946D02*
X0019900Y0018946D01*
X0019330Y0019544D02*
X0014270Y0019544D01*
X0015081Y0020143D02*
X0018519Y0020143D01*
X0017921Y0020741D02*
X0015679Y0020741D01*
X0016138Y0021340D02*
X0017462Y0021340D01*
X0017214Y0021938D02*
X0016386Y0021938D01*
X0016634Y0022537D02*
X0016966Y0022537D01*
X0016800Y0023135D02*
X0016800Y0023135D01*
X0016800Y0023734D02*
X0016800Y0023734D01*
X0016800Y0024332D02*
X0016800Y0024332D01*
X0016799Y0024931D02*
X0016801Y0024931D01*
X0017049Y0025529D02*
X0016551Y0025529D01*
X0016303Y0026128D02*
X0017297Y0026128D01*
X0017545Y0026727D02*
X0016055Y0026727D01*
X0015479Y0027325D02*
X0018121Y0027325D01*
X0018719Y0027924D02*
X0014881Y0027924D01*
X0013787Y0028522D02*
X0019813Y0028522D01*
X0023787Y0028522D02*
X0029813Y0028522D01*
X0028719Y0027924D02*
X0024881Y0027924D01*
X0025479Y0027325D02*
X0028121Y0027325D01*
X0027545Y0026727D02*
X0026055Y0026727D01*
X0026303Y0026128D02*
X0027297Y0026128D01*
X0027049Y0025529D02*
X0026551Y0025529D01*
X0026799Y0024931D02*
X0026801Y0024931D01*
X0026800Y0024928D02*
X0026800Y0022938D01*
X0026800Y0024928D01*
X0026800Y0024332D02*
X0026800Y0024332D01*
X0026800Y0023734D02*
X0026800Y0023734D01*
X0026800Y0023135D02*
X0026800Y0023135D01*
X0026800Y0022938D02*
X0026039Y0021101D01*
X0024632Y0019694D01*
X0023700Y0019308D01*
X0023700Y0018608D01*
X0024632Y0018222D01*
X0026039Y0016815D01*
X0026800Y0014978D01*
X0026800Y0012988D01*
X0026039Y0011151D01*
X0025371Y0010483D01*
X0028229Y0010483D01*
X0027561Y0011151D01*
X0026800Y0012988D01*
X0026800Y0014978D01*
X0027561Y0016815D01*
X0028968Y0018222D01*
X0029900Y0018608D01*
X0029900Y0019308D01*
X0028968Y0019694D01*
X0027561Y0021101D01*
X0026800Y0022938D01*
X0026634Y0022537D02*
X0026966Y0022537D01*
X0027214Y0021938D02*
X0026386Y0021938D01*
X0026138Y0021340D02*
X0027462Y0021340D01*
X0027921Y0020741D02*
X0025679Y0020741D01*
X0025081Y0020143D02*
X0028519Y0020143D01*
X0029330Y0019544D02*
X0024270Y0019544D01*
X0023700Y0018946D02*
X0029900Y0018946D01*
X0029271Y0018347D02*
X0024329Y0018347D01*
X0025105Y0017749D02*
X0028495Y0017749D01*
X0027896Y0017150D02*
X0025704Y0017150D01*
X0026148Y0016552D02*
X0027452Y0016552D01*
X0027204Y0015953D02*
X0026396Y0015953D01*
X0026644Y0015355D02*
X0026956Y0015355D01*
X0026800Y0014756D02*
X0026800Y0014756D01*
X0026800Y0014158D02*
X0026800Y0014158D01*
X0026800Y0013559D02*
X0026800Y0013559D01*
X0026788Y0012961D02*
X0026811Y0012961D01*
X0027059Y0012362D02*
X0026541Y0012362D01*
X0026293Y0011764D02*
X0027307Y0011764D01*
X0027555Y0011165D02*
X0026045Y0011165D01*
X0025455Y0010567D02*
X0028145Y0010567D01*
X0035371Y0010483D02*
X0036039Y0011151D01*
X0036800Y0012988D01*
X0036800Y0014978D01*
X0036039Y0016815D01*
X0034632Y0018222D01*
X0033700Y0018608D01*
X0033700Y0019308D01*
X0034632Y0019694D01*
X0036039Y0021101D01*
X0036800Y0022938D01*
X0036800Y0024928D01*
X0036800Y0022938D01*
X0037561Y0021101D01*
X0038968Y0019694D01*
X0039900Y0019308D01*
X0039900Y0018608D01*
X0038968Y0018222D01*
X0037561Y0016815D01*
X0036800Y0014978D01*
X0036800Y0012988D01*
X0037561Y0011151D01*
X0038229Y0010483D01*
X0035371Y0010483D01*
X0035455Y0010567D02*
X0038145Y0010567D01*
X0037555Y0011165D02*
X0036045Y0011165D01*
X0036293Y0011764D02*
X0037307Y0011764D01*
X0037059Y0012362D02*
X0036541Y0012362D01*
X0036788Y0012961D02*
X0036811Y0012961D01*
X0036800Y0013559D02*
X0036800Y0013559D01*
X0036800Y0014158D02*
X0036800Y0014158D01*
X0036800Y0014756D02*
X0036800Y0014756D01*
X0036644Y0015355D02*
X0036956Y0015355D01*
X0037204Y0015953D02*
X0036396Y0015953D01*
X0036148Y0016552D02*
X0037452Y0016552D01*
X0037896Y0017150D02*
X0035704Y0017150D01*
X0035105Y0017749D02*
X0038495Y0017749D01*
X0039271Y0018347D02*
X0034329Y0018347D01*
X0033700Y0018946D02*
X0039900Y0018946D01*
X0039330Y0019544D02*
X0034270Y0019544D01*
X0035081Y0020143D02*
X0038519Y0020143D01*
X0037921Y0020741D02*
X0035679Y0020741D01*
X0036138Y0021340D02*
X0037462Y0021340D01*
X0037214Y0021938D02*
X0036386Y0021938D01*
X0036634Y0022537D02*
X0036966Y0022537D01*
X0036800Y0023135D02*
X0036800Y0023135D01*
X0036800Y0023734D02*
X0036800Y0023734D01*
X0036800Y0024332D02*
X0036800Y0024332D01*
X0036799Y0024931D02*
X0036801Y0024931D01*
X0037049Y0025529D02*
X0036551Y0025529D01*
X0036303Y0026128D02*
X0037297Y0026128D01*
X0037545Y0026727D02*
X0036055Y0026727D01*
X0035479Y0027325D02*
X0038121Y0027325D01*
X0038719Y0027924D02*
X0034881Y0027924D01*
X0033787Y0028522D02*
X0039813Y0028522D01*
X0043787Y0028522D02*
X0049813Y0028522D01*
X0048719Y0027924D02*
X0044881Y0027924D01*
X0045479Y0027325D02*
X0048121Y0027325D01*
X0047545Y0026727D02*
X0046055Y0026727D01*
X0046303Y0026128D02*
X0047297Y0026128D01*
X0047049Y0025529D02*
X0046551Y0025529D01*
X0046799Y0024931D02*
X0046801Y0024931D01*
X0046800Y0024928D02*
X0046800Y0022938D01*
X0046800Y0024928D01*
X0046800Y0024332D02*
X0046800Y0024332D01*
X0046800Y0023734D02*
X0046800Y0023734D01*
X0046800Y0023135D02*
X0046800Y0023135D01*
X0046800Y0022938D02*
X0046039Y0021101D01*
X0044632Y0019694D01*
X0043700Y0019308D01*
X0043700Y0018608D01*
X0044632Y0018222D01*
X0046039Y0016815D01*
X0046800Y0014978D01*
X0046800Y0012988D01*
X0046039Y0011151D01*
X0045371Y0010483D01*
X0048229Y0010483D01*
X0047561Y0011151D01*
X0046800Y0012988D01*
X0046800Y0014978D01*
X0047561Y0016815D01*
X0048968Y0018222D01*
X0049900Y0018608D01*
X0049900Y0019308D01*
X0048968Y0019694D01*
X0047561Y0021101D01*
X0046800Y0022938D01*
X0046634Y0022537D02*
X0046966Y0022537D01*
X0047214Y0021938D02*
X0046386Y0021938D01*
X0046138Y0021340D02*
X0047462Y0021340D01*
X0047921Y0020741D02*
X0045679Y0020741D01*
X0045081Y0020143D02*
X0048519Y0020143D01*
X0049330Y0019544D02*
X0044270Y0019544D01*
X0043700Y0018946D02*
X0049900Y0018946D01*
X0049271Y0018347D02*
X0044329Y0018347D01*
X0045105Y0017749D02*
X0048495Y0017749D01*
X0047896Y0017150D02*
X0045704Y0017150D01*
X0046148Y0016552D02*
X0047452Y0016552D01*
X0047204Y0015953D02*
X0046396Y0015953D01*
X0046644Y0015355D02*
X0046956Y0015355D01*
X0046800Y0014756D02*
X0046800Y0014756D01*
X0046800Y0014158D02*
X0046800Y0014158D01*
X0046800Y0013559D02*
X0046800Y0013559D01*
X0046788Y0012961D02*
X0046811Y0012961D01*
X0047059Y0012362D02*
X0046541Y0012362D01*
X0046293Y0011764D02*
X0047307Y0011764D01*
X0047555Y0011165D02*
X0046045Y0011165D01*
X0045455Y0010567D02*
X0048145Y0010567D01*
X0055371Y0010483D02*
X0056039Y0011151D01*
X0056800Y0012988D01*
X0056800Y0014978D01*
X0056039Y0016815D01*
X0054632Y0018222D01*
X0053700Y0018608D01*
X0053700Y0019308D01*
X0054632Y0019694D01*
X0056039Y0021101D01*
X0056800Y0022938D01*
X0056800Y0024928D01*
X0056800Y0022938D01*
X0057561Y0021101D01*
X0058968Y0019694D01*
X0059900Y0019308D01*
X0059900Y0018608D01*
X0058968Y0018222D01*
X0057561Y0016815D01*
X0056800Y0014978D01*
X0056800Y0012988D01*
X0057561Y0011151D01*
X0058229Y0010483D01*
X0055371Y0010483D01*
X0055455Y0010567D02*
X0058145Y0010567D01*
X0057555Y0011165D02*
X0056045Y0011165D01*
X0056293Y0011764D02*
X0057307Y0011764D01*
X0057059Y0012362D02*
X0056541Y0012362D01*
X0056788Y0012961D02*
X0056811Y0012961D01*
X0056800Y0013559D02*
X0056800Y0013559D01*
X0056800Y0014158D02*
X0056800Y0014158D01*
X0056800Y0014756D02*
X0056800Y0014756D01*
X0056644Y0015355D02*
X0056956Y0015355D01*
X0057204Y0015953D02*
X0056396Y0015953D01*
X0056148Y0016552D02*
X0057452Y0016552D01*
X0057896Y0017150D02*
X0055704Y0017150D01*
X0055105Y0017749D02*
X0058495Y0017749D01*
X0059271Y0018347D02*
X0054329Y0018347D01*
X0053700Y0018946D02*
X0059900Y0018946D01*
X0059330Y0019544D02*
X0054270Y0019544D01*
X0055081Y0020143D02*
X0058519Y0020143D01*
X0057921Y0020741D02*
X0055679Y0020741D01*
X0056138Y0021340D02*
X0057462Y0021340D01*
X0057214Y0021938D02*
X0056386Y0021938D01*
X0056634Y0022537D02*
X0056966Y0022537D01*
X0056800Y0023135D02*
X0056800Y0023135D01*
X0056800Y0023734D02*
X0056800Y0023734D01*
X0056800Y0024332D02*
X0056800Y0024332D01*
X0056799Y0024931D02*
X0056801Y0024931D01*
X0057049Y0025529D02*
X0056551Y0025529D01*
X0056303Y0026128D02*
X0057297Y0026128D01*
X0057545Y0026727D02*
X0056055Y0026727D01*
X0055479Y0027325D02*
X0058121Y0027325D01*
X0058719Y0027924D02*
X0054881Y0027924D01*
X0053787Y0028522D02*
X0059813Y0028522D01*
X0063787Y0028522D02*
X0069813Y0028522D01*
X0068719Y0027924D02*
X0064881Y0027924D01*
X0065479Y0027325D02*
X0068121Y0027325D01*
X0067545Y0026727D02*
X0066055Y0026727D01*
X0066303Y0026128D02*
X0067297Y0026128D01*
X0067049Y0025529D02*
X0066551Y0025529D01*
X0066799Y0024931D02*
X0066801Y0024931D01*
X0066800Y0024928D02*
X0066800Y0022938D01*
X0066800Y0024928D01*
X0066800Y0024332D02*
X0066800Y0024332D01*
X0066800Y0023734D02*
X0066800Y0023734D01*
X0066800Y0023135D02*
X0066800Y0023135D01*
X0066800Y0022938D02*
X0066039Y0021101D01*
X0064632Y0019694D01*
X0063700Y0019308D01*
X0063700Y0018608D01*
X0064632Y0018222D01*
X0066039Y0016815D01*
X0066800Y0014978D01*
X0066800Y0012988D01*
X0066039Y0011151D01*
X0065371Y0010483D01*
X0068229Y0010483D01*
X0067561Y0011151D01*
X0066800Y0012988D01*
X0066800Y0014978D01*
X0067561Y0016815D01*
X0068968Y0018222D01*
X0069900Y0018608D01*
X0069900Y0019308D01*
X0068968Y0019694D01*
X0067561Y0021101D01*
X0066800Y0022938D01*
X0066634Y0022537D02*
X0066966Y0022537D01*
X0067214Y0021938D02*
X0066386Y0021938D01*
X0066138Y0021340D02*
X0067462Y0021340D01*
X0067921Y0020741D02*
X0065679Y0020741D01*
X0065081Y0020143D02*
X0068519Y0020143D01*
X0069330Y0019544D02*
X0064270Y0019544D01*
X0063700Y0018946D02*
X0069900Y0018946D01*
X0069271Y0018347D02*
X0064329Y0018347D01*
X0065105Y0017749D02*
X0068495Y0017749D01*
X0067896Y0017150D02*
X0065704Y0017150D01*
X0066148Y0016552D02*
X0067452Y0016552D01*
X0067204Y0015953D02*
X0066396Y0015953D01*
X0066644Y0015355D02*
X0066956Y0015355D01*
X0066800Y0014756D02*
X0066800Y0014756D01*
X0066800Y0014158D02*
X0066800Y0014158D01*
X0066800Y0013559D02*
X0066800Y0013559D01*
X0066788Y0012961D02*
X0066811Y0012961D01*
X0067059Y0012362D02*
X0066541Y0012362D01*
X0066293Y0011764D02*
X0067307Y0011764D01*
X0067555Y0011165D02*
X0066045Y0011165D01*
X0065455Y0010567D02*
X0068145Y0010567D01*
X0075371Y0010483D02*
X0076039Y0011151D01*
X0076800Y0012988D01*
X0076800Y0014978D01*
X0076039Y0016815D01*
X0074632Y0018222D01*
X0073700Y0018608D01*
X0073700Y0019308D01*
X0074632Y0019694D01*
X0076039Y0021101D01*
X0076800Y0022938D01*
X0076800Y0024928D01*
X0076800Y0022938D01*
X0077561Y0021101D01*
X0078968Y0019694D01*
X0079900Y0019308D01*
X0079900Y0018608D01*
X0078968Y0018222D01*
X0077561Y0016815D01*
X0076800Y0014978D01*
X0076800Y0012988D01*
X0077561Y0011151D01*
X0078229Y0010483D01*
X0075371Y0010483D01*
X0075455Y0010567D02*
X0078145Y0010567D01*
X0077555Y0011165D02*
X0076045Y0011165D01*
X0076293Y0011764D02*
X0077307Y0011764D01*
X0077059Y0012362D02*
X0076541Y0012362D01*
X0076788Y0012961D02*
X0076811Y0012961D01*
X0076800Y0013559D02*
X0076800Y0013559D01*
X0076800Y0014158D02*
X0076800Y0014158D01*
X0076800Y0014756D02*
X0076800Y0014756D01*
X0076644Y0015355D02*
X0076956Y0015355D01*
X0077204Y0015953D02*
X0076396Y0015953D01*
X0076148Y0016552D02*
X0077452Y0016552D01*
X0077896Y0017150D02*
X0075704Y0017150D01*
X0075105Y0017749D02*
X0078495Y0017749D01*
X0079271Y0018347D02*
X0074329Y0018347D01*
X0073700Y0018946D02*
X0079900Y0018946D01*
X0079330Y0019544D02*
X0074270Y0019544D01*
X0075081Y0020143D02*
X0078519Y0020143D01*
X0077921Y0020741D02*
X0075679Y0020741D01*
X0076138Y0021340D02*
X0077462Y0021340D01*
X0077214Y0021938D02*
X0076386Y0021938D01*
X0076634Y0022537D02*
X0076966Y0022537D01*
X0076800Y0023135D02*
X0076800Y0023135D01*
X0076800Y0023734D02*
X0076800Y0023734D01*
X0076800Y0024332D02*
X0076800Y0024332D01*
X0076799Y0024931D02*
X0076801Y0024931D01*
X0077049Y0025529D02*
X0076551Y0025529D01*
X0076303Y0026128D02*
X0077297Y0026128D01*
X0077545Y0026727D02*
X0076055Y0026727D01*
X0075479Y0027325D02*
X0078121Y0027325D01*
X0078719Y0027924D02*
X0074881Y0027924D01*
X0073787Y0028522D02*
X0079813Y0028522D01*
X0083787Y0028522D02*
X0089813Y0028522D01*
X0088719Y0027924D02*
X0084881Y0027924D01*
X0085479Y0027325D02*
X0088121Y0027325D01*
X0087545Y0026727D02*
X0086055Y0026727D01*
X0086303Y0026128D02*
X0087297Y0026128D01*
X0087049Y0025529D02*
X0086551Y0025529D01*
X0086799Y0024931D02*
X0086801Y0024931D01*
X0086800Y0024928D02*
X0086800Y0022938D01*
X0086800Y0024928D01*
X0086800Y0024332D02*
X0086800Y0024332D01*
X0086800Y0023734D02*
X0086800Y0023734D01*
X0086800Y0023135D02*
X0086800Y0023135D01*
X0086800Y0022938D02*
X0086039Y0021101D01*
X0084632Y0019694D01*
X0083700Y0019308D01*
X0083700Y0018608D01*
X0084632Y0018222D01*
X0086039Y0016815D01*
X0086800Y0014978D01*
X0086800Y0012988D01*
X0086039Y0011151D01*
X0085371Y0010483D01*
X0088229Y0010483D01*
X0087561Y0011151D01*
X0086800Y0012988D01*
X0086800Y0014978D01*
X0087561Y0016815D01*
X0088968Y0018222D01*
X0089900Y0018608D01*
X0089900Y0019308D01*
X0088968Y0019694D01*
X0087561Y0021101D01*
X0086800Y0022938D01*
X0086634Y0022537D02*
X0086966Y0022537D01*
X0087214Y0021938D02*
X0086386Y0021938D01*
X0086138Y0021340D02*
X0087462Y0021340D01*
X0087921Y0020741D02*
X0085679Y0020741D01*
X0085081Y0020143D02*
X0088519Y0020143D01*
X0089330Y0019544D02*
X0084270Y0019544D01*
X0083700Y0018946D02*
X0089900Y0018946D01*
X0089271Y0018347D02*
X0084329Y0018347D01*
X0085105Y0017749D02*
X0088495Y0017749D01*
X0087896Y0017150D02*
X0085704Y0017150D01*
X0086148Y0016552D02*
X0087452Y0016552D01*
X0087204Y0015953D02*
X0086396Y0015953D01*
X0086644Y0015355D02*
X0086956Y0015355D01*
X0086800Y0014756D02*
X0086800Y0014756D01*
X0086800Y0014158D02*
X0086800Y0014158D01*
X0086800Y0013559D02*
X0086800Y0013559D01*
X0086788Y0012961D02*
X0086811Y0012961D01*
X0087059Y0012362D02*
X0086541Y0012362D01*
X0086293Y0011764D02*
X0087307Y0011764D01*
X0087555Y0011165D02*
X0086045Y0011165D01*
X0085455Y0010567D02*
X0088145Y0010567D01*
X0095371Y0010483D02*
X0096039Y0011151D01*
X0096800Y0012988D01*
X0096800Y0014978D01*
X0096039Y0016815D01*
X0094632Y0018222D01*
X0093700Y0018608D01*
X0093700Y0019308D01*
X0093727Y0019319D01*
X0094850Y0018196D01*
X0095963Y0017083D01*
X0098119Y0017083D01*
X0097695Y0016499D01*
X0097352Y0015826D01*
X0097118Y0015107D01*
X0097000Y0014361D01*
X0097000Y0014283D01*
X0101500Y0014283D01*
X0101500Y0013683D01*
X0097000Y0013683D01*
X0097000Y0013605D01*
X0097118Y0012859D01*
X0097352Y0012141D01*
X0097695Y0011467D01*
X0098139Y0010856D01*
X0098512Y0010483D01*
X0095371Y0010483D01*
X0095455Y0010567D02*
X0098428Y0010567D01*
X0097914Y0011165D02*
X0096045Y0011165D01*
X0096293Y0011764D02*
X0097544Y0011764D01*
X0097280Y0012362D02*
X0096541Y0012362D01*
X0096788Y0012961D02*
X0097102Y0012961D01*
X0097007Y0013559D02*
X0096800Y0013559D01*
X0096800Y0014158D02*
X0101500Y0014158D01*
X0102100Y0014158D02*
X0130300Y0014158D01*
X0130300Y0014756D02*
X0106537Y0014756D01*
X0106401Y0015355D02*
X0108548Y0015355D01*
X0108556Y0015350D02*
X0108886Y0015262D01*
X0110529Y0015262D01*
X0110529Y0018033D01*
X0107757Y0018033D01*
X0107757Y0016391D01*
X0107846Y0016060D01*
X0108017Y0015764D01*
X0108259Y0015522D01*
X0108556Y0015350D01*
X0107908Y0015953D02*
X0106183Y0015953D01*
X0105867Y0016552D02*
X0107757Y0016552D01*
X0107757Y0017150D02*
X0106034Y0017150D01*
X0106632Y0017749D02*
X0107757Y0017749D01*
X0107231Y0018347D02*
X0110529Y0018347D01*
X0110529Y0017749D02*
X0111129Y0017749D01*
X0111129Y0018347D02*
X0126671Y0018347D01*
X0126671Y0018033D02*
X0123899Y0018033D01*
X0123899Y0016391D01*
X0123988Y0016060D01*
X0124159Y0015764D01*
X0124401Y0015522D01*
X0124697Y0015350D01*
X0125028Y0015262D01*
X0126671Y0015262D01*
X0126671Y0018033D01*
X0126671Y0017749D02*
X0127271Y0017749D01*
X0127271Y0018347D02*
X0130300Y0018347D01*
X0130300Y0017749D02*
X0130043Y0017749D01*
X0130043Y0017150D02*
X0130300Y0017150D01*
X0130300Y0016552D02*
X0130043Y0016552D01*
X0129892Y0015953D02*
X0130300Y0015953D01*
X0130300Y0015355D02*
X0129252Y0015355D01*
X0127271Y0015355D02*
X0126671Y0015355D01*
X0126671Y0015953D02*
X0127271Y0015953D01*
X0127271Y0016552D02*
X0126671Y0016552D01*
X0126671Y0017150D02*
X0127271Y0017150D01*
X0130043Y0018946D02*
X0130300Y0018946D01*
X0130300Y0019544D02*
X0130043Y0019544D01*
X0130043Y0020143D02*
X0130300Y0020143D01*
X0130300Y0020741D02*
X0129876Y0020741D01*
X0130300Y0021340D02*
X0129157Y0021340D01*
X0129941Y0021938D02*
X0130300Y0021938D01*
X0130300Y0022537D02*
X0130243Y0022537D01*
X0130243Y0023135D02*
X0130300Y0023135D01*
X0130300Y0023734D02*
X0130243Y0023734D01*
X0130243Y0024332D02*
X0130300Y0024332D01*
X0130300Y0024931D02*
X0130243Y0024931D01*
X0130243Y0025529D02*
X0130300Y0025529D01*
X0130300Y0026128D02*
X0130243Y0026128D01*
X0130243Y0026727D02*
X0130300Y0026727D01*
X0130300Y0027325D02*
X0129943Y0027325D01*
X0130300Y0027924D02*
X0104474Y0027924D01*
X0105196Y0027325D02*
X0107857Y0027325D01*
X0107557Y0026727D02*
X0105704Y0026727D01*
X0106069Y0026128D02*
X0107557Y0026128D01*
X0107557Y0025529D02*
X0106328Y0025529D01*
X0106502Y0024931D02*
X0107557Y0024931D01*
X0107557Y0024332D02*
X0106597Y0024332D01*
X0107243Y0023734D02*
X0102100Y0023734D01*
X0102100Y0024332D02*
X0101500Y0024332D01*
X0101500Y0024233D02*
X0101500Y0028733D01*
X0101422Y0028733D01*
X0100676Y0028615D01*
X0099957Y0028381D01*
X0099284Y0028038D01*
X0098673Y0027594D01*
X0098139Y0027060D01*
X0097695Y0026449D01*
X0097352Y0025776D01*
X0097118Y0025057D01*
X0097000Y0024311D01*
X0097000Y0024233D01*
X0101500Y0024233D01*
X0101500Y0023734D02*
X0096800Y0023734D01*
X0096800Y0024332D02*
X0097003Y0024332D01*
X0097098Y0024931D02*
X0096799Y0024931D01*
X0096551Y0025529D02*
X0097272Y0025529D01*
X0097531Y0026128D02*
X0096303Y0026128D01*
X0096055Y0026727D02*
X0097896Y0026727D01*
X0098404Y0027325D02*
X0095479Y0027325D01*
X0094881Y0027924D02*
X0099126Y0027924D01*
X0100390Y0028522D02*
X0093787Y0028522D01*
X0101500Y0028522D02*
X0102100Y0028522D01*
X0102100Y0027924D02*
X0101500Y0027924D01*
X0101500Y0027325D02*
X0102100Y0027325D01*
X0102100Y0026727D02*
X0101500Y0026727D01*
X0101500Y0026128D02*
X0102100Y0026128D01*
X0102100Y0025529D02*
X0101500Y0025529D01*
X0101500Y0024931D02*
X0102100Y0024931D01*
X0097066Y0023135D02*
X0096800Y0023135D01*
X0096634Y0022537D02*
X0097207Y0022537D01*
X0097429Y0021938D02*
X0096482Y0021938D01*
X0097080Y0021340D02*
X0097751Y0021340D01*
X0094699Y0018347D02*
X0094329Y0018347D01*
X0094100Y0018946D02*
X0093700Y0018946D01*
X0095105Y0017749D02*
X0095297Y0017749D01*
X0095704Y0017150D02*
X0095896Y0017150D01*
X0096148Y0016552D02*
X0097733Y0016552D01*
X0097417Y0015953D02*
X0096396Y0015953D01*
X0096644Y0015355D02*
X0097199Y0015355D01*
X0097063Y0014756D02*
X0096800Y0014756D01*
X0105172Y0010567D02*
X0130300Y0010567D01*
X0130300Y0011165D02*
X0105686Y0011165D01*
X0106056Y0011764D02*
X0130300Y0011764D01*
X0130300Y0012362D02*
X0106320Y0012362D01*
X0106498Y0012961D02*
X0130300Y0012961D01*
X0130300Y0013559D02*
X0106593Y0013559D01*
X0110529Y0015355D02*
X0111129Y0015355D01*
X0111129Y0015953D02*
X0110529Y0015953D01*
X0110529Y0016552D02*
X0111129Y0016552D01*
X0111129Y0017150D02*
X0110529Y0017150D01*
X0113110Y0015355D02*
X0124690Y0015355D01*
X0124049Y0015953D02*
X0113751Y0015953D01*
X0113901Y0016552D02*
X0123899Y0016552D01*
X0123899Y0017150D02*
X0113901Y0017150D01*
X0113901Y0017749D02*
X0123899Y0017749D01*
X0123899Y0018946D02*
X0113901Y0018946D01*
X0113901Y0019544D02*
X0123899Y0019544D01*
X0123899Y0020143D02*
X0113901Y0020143D01*
X0113735Y0020741D02*
X0124065Y0020741D01*
X0124785Y0021340D02*
X0113015Y0021340D01*
X0113799Y0021938D02*
X0124000Y0021938D01*
X0123699Y0022537D02*
X0114101Y0022537D01*
X0114101Y0026727D02*
X0123699Y0026727D01*
X0123999Y0027325D02*
X0113801Y0027325D01*
X0106645Y0023135D02*
X0106533Y0023135D01*
X0103210Y0028522D02*
X0130300Y0028522D01*
X0130300Y0029121D02*
X0007900Y0029121D01*
X0007900Y0029719D02*
X0130300Y0029719D01*
X0130300Y0030318D02*
X0007900Y0030318D01*
X0007900Y0030916D02*
X0130300Y0030916D01*
X0130300Y0031515D02*
X0007900Y0031515D01*
X0007900Y0032113D02*
X0130300Y0032113D01*
X0130300Y0032712D02*
X0007900Y0032712D01*
X0007900Y0033310D02*
X0130300Y0033310D01*
X0130300Y0033909D02*
X0083258Y0033909D01*
X0082834Y0033733D02*
X0084746Y0034525D01*
X0086208Y0035988D01*
X0087000Y0037899D01*
X0087000Y0039967D01*
X0086208Y0041879D01*
X0084746Y0043341D01*
X0083317Y0043933D01*
X0084746Y0044525D01*
X0086208Y0045987D01*
X0087000Y0047899D01*
X0087000Y0049967D01*
X0086208Y0051879D01*
X0084746Y0053341D01*
X0083317Y0053933D01*
X0084746Y0054525D01*
X0086208Y0055987D01*
X0087000Y0057899D01*
X0087000Y0059967D01*
X0086208Y0061879D01*
X0084746Y0063341D01*
X0083317Y0063933D01*
X0084746Y0064525D01*
X0086208Y0065988D01*
X0087000Y0067899D01*
X0087000Y0069967D01*
X0086208Y0071879D01*
X0084746Y0073341D01*
X0082834Y0074133D01*
X0080766Y0074133D01*
X0078854Y0073341D01*
X0077392Y0071879D01*
X0076800Y0070450D01*
X0076208Y0071879D01*
X0074746Y0073341D01*
X0072834Y0074133D01*
X0070766Y0074133D01*
X0068854Y0073341D01*
X0067392Y0071879D01*
X0066800Y0070450D01*
X0066208Y0071879D01*
X0064746Y0073341D01*
X0062834Y0074133D01*
X0060766Y0074133D01*
X0058854Y0073341D01*
X0057392Y0071879D01*
X0056800Y0070450D01*
X0056208Y0071879D01*
X0054746Y0073341D01*
X0052834Y0074133D01*
X0050766Y0074133D01*
X0048854Y0073341D01*
X0047392Y0071879D01*
X0046800Y0070450D01*
X0046208Y0071879D01*
X0044746Y0073341D01*
X0042834Y0074133D01*
X0040766Y0074133D01*
X0038854Y0073341D01*
X0037392Y0071879D01*
X0036800Y0070450D01*
X0036208Y0071879D01*
X0034746Y0073341D01*
X0032834Y0074133D01*
X0030766Y0074133D01*
X0028854Y0073341D01*
X0027392Y0071879D01*
X0026600Y0069967D01*
X0026600Y0067899D01*
X0027392Y0065988D01*
X0028854Y0064525D01*
X0030283Y0063933D01*
X0028854Y0063341D01*
X0027392Y0061879D01*
X0026600Y0059967D01*
X0026600Y0057899D01*
X0027392Y0055987D01*
X0028854Y0054525D01*
X0030283Y0053933D01*
X0028854Y0053341D01*
X0027392Y0051879D01*
X0026600Y0049967D01*
X0026600Y0047899D01*
X0027392Y0045987D01*
X0028854Y0044525D01*
X0030283Y0043933D01*
X0028854Y0043341D01*
X0027392Y0041879D01*
X0026600Y0039967D01*
X0026600Y0037899D01*
X0027392Y0035988D01*
X0028854Y0034525D01*
X0030766Y0033733D01*
X0032834Y0033733D01*
X0034746Y0034525D01*
X0036208Y0035988D01*
X0036800Y0037416D01*
X0037392Y0035988D01*
X0038854Y0034525D01*
X0040766Y0033733D01*
X0042834Y0033733D01*
X0044746Y0034525D01*
X0046208Y0035988D01*
X0046800Y0037416D01*
X0047392Y0035988D01*
X0048854Y0034525D01*
X0050766Y0033733D01*
X0052834Y0033733D01*
X0054746Y0034525D01*
X0056208Y0035988D01*
X0056800Y0037416D01*
X0057392Y0035988D01*
X0058854Y0034525D01*
X0060766Y0033733D01*
X0062834Y0033733D01*
X0064746Y0034525D01*
X0066208Y0035988D01*
X0066800Y0037416D01*
X0067392Y0035988D01*
X0068854Y0034525D01*
X0070766Y0033733D01*
X0072834Y0033733D01*
X0074746Y0034525D01*
X0076208Y0035988D01*
X0076800Y0037416D01*
X0077392Y0035988D01*
X0078854Y0034525D01*
X0080766Y0033733D01*
X0082834Y0033733D01*
X0084703Y0034507D02*
X0099473Y0034507D01*
X0099179Y0034657D02*
X0099881Y0034299D01*
X0100629Y0034056D01*
X0101406Y0033933D01*
X0101413Y0033933D01*
X0101495Y0038638D01*
X0102095Y0038628D01*
X0102105Y0039228D01*
X0101505Y0039238D01*
X0101495Y0038638D01*
X0096800Y0038720D01*
X0096800Y0038540D01*
X0096923Y0037762D01*
X0097166Y0037014D01*
X0097524Y0036312D01*
X0097986Y0035676D01*
X0098543Y0035119D01*
X0099179Y0034657D01*
X0098561Y0035106D02*
X0085327Y0035106D01*
X0085925Y0035704D02*
X0097966Y0035704D01*
X0097531Y0036303D02*
X0086339Y0036303D01*
X0086587Y0036901D02*
X0097224Y0036901D01*
X0097008Y0037500D02*
X0086835Y0037500D01*
X0087000Y0038098D02*
X0096870Y0038098D01*
X0096800Y0038697D02*
X0087000Y0038697D01*
X0087000Y0039295D02*
X0098239Y0039295D01*
X0098151Y0038697D02*
X0101496Y0038697D01*
X0101505Y0039238D02*
X0096800Y0039320D01*
X0096800Y0039327D01*
X0096923Y0040104D01*
X0097166Y0040852D01*
X0097524Y0041554D01*
X0097986Y0042190D01*
X0098543Y0042747D01*
X0099179Y0043209D01*
X0099881Y0043567D01*
X0100629Y0043810D01*
X0101406Y0043933D01*
X0101571Y0043933D01*
X0100804Y0044055D01*
X0100055Y0044298D01*
X0099354Y0044655D01*
X0098717Y0045118D01*
X0098161Y0045674D01*
X0097698Y0046311D01*
X0097341Y0047012D01*
X0097098Y0047761D01*
X0096975Y0048538D01*
X0096975Y0048719D01*
X0101669Y0048637D01*
X0101680Y0049237D01*
X0101762Y0053930D01*
X0101844Y0058635D01*
X0097149Y0058717D01*
X0097149Y0058537D01*
X0097272Y0057759D01*
X0097515Y0057011D01*
X0097873Y0056309D01*
X0098335Y0055673D01*
X0098892Y0055116D01*
X0099528Y0054654D01*
X0100230Y0054296D01*
X0100978Y0054053D01*
X0101746Y0053932D01*
X0101581Y0053932D01*
X0100804Y0053808D01*
X0100055Y0053565D01*
X0099354Y0053208D01*
X0098717Y0052745D01*
X0098161Y0052189D01*
X0097698Y0051552D01*
X0097341Y0050851D01*
X0097098Y0050102D01*
X0096975Y0049325D01*
X0096975Y0049319D01*
X0101680Y0049237D01*
X0102280Y0049226D01*
X0106975Y0049144D01*
X0106975Y0049325D01*
X0106851Y0050102D01*
X0106608Y0050851D01*
X0106251Y0051552D01*
X0105788Y0052189D01*
X0105232Y0052745D01*
X0104595Y0053208D01*
X0103894Y0053565D01*
X0103145Y0053808D01*
X0102378Y0053930D01*
X0102543Y0053930D01*
X0103320Y0054053D01*
X0104068Y0054296D01*
X0104770Y0054654D01*
X0105406Y0055116D01*
X0105963Y0055673D01*
X0106425Y0056309D01*
X0106783Y0057011D01*
X0107026Y0057759D01*
X0107149Y0058537D01*
X0107149Y0058543D01*
X0102444Y0058625D01*
X0102362Y0053932D01*
X0102280Y0049226D01*
X0102269Y0048626D01*
X0102187Y0043933D01*
X0102105Y0039228D01*
X0106800Y0039146D01*
X0106800Y0039327D01*
X0106677Y0040104D01*
X0106434Y0040852D01*
X0106076Y0041554D01*
X0105614Y0042190D01*
X0105057Y0042747D01*
X0104421Y0043209D01*
X0103719Y0043567D01*
X0102971Y0043810D01*
X0102203Y0043932D01*
X0102368Y0043932D01*
X0103145Y0044055D01*
X0103894Y0044298D01*
X0104595Y0044655D01*
X0105232Y0045118D01*
X0105788Y0045674D01*
X0106251Y0046311D01*
X0106608Y0047012D01*
X0106851Y0047761D01*
X0106975Y0048538D01*
X0106975Y0048544D01*
X0102269Y0048626D01*
X0101669Y0048637D01*
X0101587Y0043932D01*
X0101505Y0039238D01*
X0101506Y0039295D02*
X0102106Y0039295D01*
X0102096Y0038697D02*
X0130300Y0038697D01*
X0130300Y0039295D02*
X0106800Y0039295D01*
X0106710Y0039894D02*
X0130300Y0039894D01*
X0130300Y0040492D02*
X0106551Y0040492D01*
X0106312Y0041091D02*
X0130300Y0041091D01*
X0130300Y0041689D02*
X0105978Y0041689D01*
X0105516Y0042288D02*
X0130300Y0042288D01*
X0130300Y0042886D02*
X0104865Y0042886D01*
X0103880Y0043485D02*
X0130300Y0043485D01*
X0130300Y0044083D02*
X0103234Y0044083D01*
X0102190Y0044083D02*
X0101590Y0044083D01*
X0101579Y0043485D02*
X0102179Y0043485D01*
X0102169Y0042886D02*
X0101569Y0042886D01*
X0101559Y0042288D02*
X0102159Y0042288D01*
X0102148Y0041689D02*
X0101548Y0041689D01*
X0101538Y0041091D02*
X0102138Y0041091D01*
X0102127Y0040492D02*
X0101527Y0040492D01*
X0101517Y0039894D02*
X0102117Y0039894D01*
X0102095Y0038628D02*
X0106800Y0038546D01*
X0106800Y0038540D01*
X0106677Y0037762D01*
X0106434Y0037014D01*
X0106076Y0036312D01*
X0105614Y0035676D01*
X0105057Y0035119D01*
X0104421Y0034657D01*
X0103719Y0034299D01*
X0102971Y0034056D01*
X0102194Y0033933D01*
X0102013Y0033933D01*
X0102095Y0038628D01*
X0102085Y0038098D02*
X0101485Y0038098D01*
X0101475Y0037500D02*
X0102075Y0037500D01*
X0102065Y0036901D02*
X0101464Y0036901D01*
X0101454Y0036303D02*
X0102054Y0036303D01*
X0102044Y0035704D02*
X0101444Y0035704D01*
X0101433Y0035106D02*
X0102033Y0035106D01*
X0102023Y0034507D02*
X0101423Y0034507D01*
X0104127Y0034507D02*
X0130300Y0034507D01*
X0130300Y0035106D02*
X0105039Y0035106D01*
X0105634Y0035704D02*
X0130300Y0035704D01*
X0130300Y0036303D02*
X0106069Y0036303D01*
X0106376Y0036901D02*
X0130300Y0036901D01*
X0130300Y0037500D02*
X0106592Y0037500D01*
X0106730Y0038098D02*
X0130300Y0038098D01*
X0130300Y0044682D02*
X0104632Y0044682D01*
X0105394Y0045280D02*
X0130300Y0045280D01*
X0130300Y0045879D02*
X0105937Y0045879D01*
X0106336Y0046477D02*
X0130300Y0046477D01*
X0130300Y0047076D02*
X0106629Y0047076D01*
X0106823Y0047674D02*
X0130300Y0047674D01*
X0130300Y0048273D02*
X0106933Y0048273D01*
X0106952Y0049470D02*
X0115597Y0049470D01*
X0115614Y0049406D02*
X0115785Y0049110D01*
X0116027Y0048868D01*
X0116323Y0048697D01*
X0116654Y0048608D01*
X0118100Y0048608D01*
X0118100Y0051183D01*
X0118700Y0051183D01*
X0118700Y0048608D01*
X0120146Y0048608D01*
X0120477Y0048697D01*
X0120773Y0048868D01*
X0121015Y0049110D01*
X0121186Y0049406D01*
X0121275Y0049737D01*
X0121275Y0051183D01*
X0118700Y0051183D01*
X0118700Y0051783D01*
X0121275Y0051783D01*
X0121275Y0053229D01*
X0121186Y0053560D01*
X0121015Y0053856D01*
X0120773Y0054098D01*
X0120477Y0054269D01*
X0120146Y0054358D01*
X0118700Y0054358D01*
X0118700Y0051783D01*
X0118100Y0051783D01*
X0118100Y0051183D01*
X0115525Y0051183D01*
X0115525Y0049737D01*
X0115614Y0049406D01*
X0115525Y0050068D02*
X0106857Y0050068D01*
X0106668Y0050667D02*
X0115525Y0050667D01*
X0115525Y0051783D02*
X0118100Y0051783D01*
X0118100Y0054358D01*
X0116654Y0054358D01*
X0116323Y0054269D01*
X0116027Y0054098D01*
X0115785Y0053856D01*
X0115614Y0053560D01*
X0115525Y0053229D01*
X0115525Y0051783D01*
X0115525Y0051864D02*
X0106024Y0051864D01*
X0106397Y0051265D02*
X0118100Y0051265D01*
X0118100Y0050667D02*
X0118700Y0050667D01*
X0118700Y0051265D02*
X0121325Y0051265D01*
X0121325Y0050667D02*
X0121275Y0050667D01*
X0121275Y0050068D02*
X0121325Y0050068D01*
X0121325Y0049470D02*
X0121203Y0049470D01*
X0120776Y0048871D02*
X0121741Y0048871D01*
X0118700Y0048871D02*
X0118100Y0048871D01*
X0118100Y0049470D02*
X0118700Y0049470D01*
X0118700Y0050068D02*
X0118100Y0050068D01*
X0118100Y0051864D02*
X0118700Y0051864D01*
X0118700Y0052462D02*
X0118100Y0052462D01*
X0118100Y0053061D02*
X0118700Y0053061D01*
X0118700Y0053660D02*
X0118100Y0053660D01*
X0118100Y0054258D02*
X0118700Y0054258D01*
X0120496Y0054258D02*
X0121904Y0054258D01*
X0121325Y0053660D02*
X0121129Y0053660D01*
X0121275Y0053061D02*
X0121325Y0053061D01*
X0121325Y0052462D02*
X0121275Y0052462D01*
X0121275Y0051864D02*
X0121325Y0051864D01*
X0124185Y0055455D02*
X0113615Y0055455D01*
X0114101Y0056054D02*
X0123699Y0056054D01*
X0125071Y0054857D02*
X0105049Y0054857D01*
X0105745Y0055455D02*
X0108043Y0055455D01*
X0107557Y0056054D02*
X0106240Y0056054D01*
X0106600Y0056652D02*
X0107557Y0056652D01*
X0107557Y0057251D02*
X0106861Y0057251D01*
X0107040Y0057849D02*
X0107557Y0057849D01*
X0107557Y0058448D02*
X0107135Y0058448D01*
X0107250Y0059046D02*
X0102451Y0059046D01*
X0102441Y0058448D02*
X0101841Y0058448D01*
X0101851Y0059046D02*
X0087000Y0059046D01*
X0087000Y0058448D02*
X0097163Y0058448D01*
X0097258Y0057849D02*
X0086979Y0057849D01*
X0086732Y0057251D02*
X0097437Y0057251D01*
X0097698Y0056652D02*
X0086484Y0056652D01*
X0086236Y0056054D02*
X0098059Y0056054D01*
X0098553Y0055455D02*
X0085676Y0055455D01*
X0085077Y0054857D02*
X0099249Y0054857D01*
X0100348Y0054258D02*
X0084102Y0054258D01*
X0083978Y0053660D02*
X0100345Y0053660D01*
X0099152Y0053061D02*
X0085026Y0053061D01*
X0085624Y0052462D02*
X0098434Y0052462D01*
X0097925Y0051864D02*
X0086214Y0051864D01*
X0086462Y0051265D02*
X0097552Y0051265D01*
X0097281Y0050667D02*
X0086710Y0050667D01*
X0086958Y0050068D02*
X0097092Y0050068D01*
X0096997Y0049470D02*
X0087000Y0049470D01*
X0087000Y0048871D02*
X0101673Y0048871D01*
X0101663Y0048273D02*
X0102263Y0048273D01*
X0102274Y0048871D02*
X0116024Y0048871D01*
X0115525Y0052462D02*
X0105515Y0052462D01*
X0104797Y0053061D02*
X0115525Y0053061D01*
X0115671Y0053660D02*
X0103604Y0053660D01*
X0103950Y0054258D02*
X0116304Y0054258D01*
X0127475Y0051864D02*
X0130300Y0051864D01*
X0130300Y0052462D02*
X0128066Y0052462D01*
X0128665Y0053061D02*
X0130300Y0053061D01*
X0130300Y0053660D02*
X0128871Y0053660D01*
X0128871Y0054258D02*
X0130300Y0054258D01*
X0130300Y0054857D02*
X0128871Y0054857D01*
X0129757Y0055455D02*
X0130300Y0055455D01*
X0130300Y0056054D02*
X0130243Y0056054D01*
X0130243Y0056652D02*
X0130300Y0056652D01*
X0130300Y0057251D02*
X0130243Y0057251D01*
X0130243Y0057849D02*
X0130300Y0057849D01*
X0130300Y0058448D02*
X0130243Y0058448D01*
X0130243Y0059046D02*
X0130300Y0059046D01*
X0130300Y0059645D02*
X0130243Y0059645D01*
X0130243Y0060243D02*
X0130300Y0060243D01*
X0130300Y0060842D02*
X0130127Y0060842D01*
X0130300Y0061440D02*
X0129529Y0061440D01*
X0130041Y0062039D02*
X0130300Y0062039D01*
X0130300Y0062637D02*
X0130243Y0062637D01*
X0130243Y0063236D02*
X0130300Y0063236D01*
X0130300Y0063834D02*
X0130243Y0063834D01*
X0130243Y0064433D02*
X0130300Y0064433D01*
X0130300Y0065031D02*
X0130243Y0065031D01*
X0130243Y0065630D02*
X0130300Y0065630D01*
X0130300Y0066228D02*
X0130243Y0066228D01*
X0130243Y0066827D02*
X0130300Y0066827D01*
X0130300Y0067425D02*
X0129843Y0067425D01*
X0130300Y0068024D02*
X0128871Y0068024D01*
X0128871Y0068622D02*
X0130300Y0068622D01*
X0130300Y0069221D02*
X0128871Y0069221D01*
X0128871Y0069819D02*
X0130300Y0069819D01*
X0130300Y0070418D02*
X0128871Y0070418D01*
X0128871Y0071016D02*
X0130300Y0071016D01*
X0130300Y0071615D02*
X0128871Y0071615D01*
X0128871Y0072213D02*
X0130300Y0072213D01*
X0130300Y0072812D02*
X0128871Y0072812D01*
X0128871Y0073410D02*
X0130300Y0073410D01*
X0130300Y0074009D02*
X0129177Y0074009D01*
X0129775Y0074607D02*
X0130300Y0074607D01*
X0125071Y0073408D02*
X0125071Y0067904D01*
X0124578Y0067904D01*
X0123699Y0067026D01*
X0123699Y0066533D01*
X0114101Y0066533D01*
X0114101Y0067026D01*
X0113222Y0067904D01*
X0109957Y0067904D01*
X0109957Y0073113D01*
X0105987Y0077083D01*
X0107266Y0077083D01*
X0108379Y0078196D01*
X0110244Y0080062D01*
X0113222Y0080062D01*
X0114101Y0080940D01*
X0114101Y0081433D01*
X0123699Y0081433D01*
X0123699Y0080940D01*
X0124578Y0080062D01*
X0125071Y0080062D01*
X0125071Y0079841D01*
X0124788Y0079558D01*
X0122204Y0079558D01*
X0121325Y0078679D01*
X0121325Y0074287D01*
X0122204Y0073408D01*
X0125071Y0073408D01*
X0125071Y0072812D02*
X0109957Y0072812D01*
X0109957Y0072213D02*
X0125071Y0072213D01*
X0125071Y0071615D02*
X0109957Y0071615D01*
X0109957Y0071016D02*
X0125071Y0071016D01*
X0125071Y0070418D02*
X0109957Y0070418D01*
X0109957Y0069819D02*
X0125071Y0069819D01*
X0125071Y0069221D02*
X0109957Y0069221D01*
X0109957Y0068622D02*
X0125071Y0068622D01*
X0125071Y0068024D02*
X0109957Y0068024D01*
X0113701Y0067425D02*
X0124099Y0067425D01*
X0123699Y0066827D02*
X0114101Y0066827D01*
X0116323Y0073697D02*
X0116654Y0073608D01*
X0118100Y0073608D01*
X0118100Y0076183D01*
X0118700Y0076183D01*
X0118700Y0073608D01*
X0120146Y0073608D01*
X0120477Y0073697D01*
X0120773Y0073868D01*
X0121015Y0074110D01*
X0121186Y0074406D01*
X0121275Y0074737D01*
X0121275Y0076183D01*
X0118700Y0076183D01*
X0118700Y0076783D01*
X0121275Y0076783D01*
X0121275Y0078229D01*
X0121186Y0078560D01*
X0121015Y0078856D01*
X0120773Y0079098D01*
X0120477Y0079269D01*
X0120146Y0079358D01*
X0118700Y0079358D01*
X0118700Y0076783D01*
X0118100Y0076783D01*
X0118100Y0076183D01*
X0115525Y0076183D01*
X0115525Y0074737D01*
X0115614Y0074406D01*
X0115785Y0074110D01*
X0116027Y0073868D01*
X0116323Y0073697D01*
X0115886Y0074009D02*
X0109061Y0074009D01*
X0108463Y0074607D02*
X0115560Y0074607D01*
X0115525Y0075206D02*
X0107864Y0075206D01*
X0107266Y0075804D02*
X0115525Y0075804D01*
X0115525Y0076783D02*
X0118100Y0076783D01*
X0118100Y0079358D01*
X0116654Y0079358D01*
X0116323Y0079269D01*
X0116027Y0079098D01*
X0115785Y0078856D01*
X0115614Y0078560D01*
X0115525Y0078229D01*
X0115525Y0076783D01*
X0115525Y0077001D02*
X0106069Y0077001D01*
X0106667Y0076403D02*
X0118100Y0076403D01*
X0118100Y0077001D02*
X0118700Y0077001D01*
X0118700Y0076403D02*
X0121325Y0076403D01*
X0121325Y0077001D02*
X0121275Y0077001D01*
X0121275Y0077600D02*
X0121325Y0077600D01*
X0121325Y0078198D02*
X0121275Y0078198D01*
X0121443Y0078797D02*
X0121049Y0078797D01*
X0122041Y0079395D02*
X0109578Y0079395D01*
X0108980Y0078797D02*
X0115751Y0078797D01*
X0115525Y0078198D02*
X0108381Y0078198D01*
X0108379Y0078196D02*
X0108379Y0078196D01*
X0107783Y0077600D02*
X0115525Y0077600D01*
X0118100Y0077600D02*
X0118700Y0077600D01*
X0118700Y0078198D02*
X0118100Y0078198D01*
X0118100Y0078797D02*
X0118700Y0078797D01*
X0118700Y0075804D02*
X0118100Y0075804D01*
X0118100Y0075206D02*
X0118700Y0075206D01*
X0118700Y0074607D02*
X0118100Y0074607D01*
X0118100Y0074009D02*
X0118700Y0074009D01*
X0120914Y0074009D02*
X0121603Y0074009D01*
X0121325Y0074607D02*
X0121240Y0074607D01*
X0121275Y0075206D02*
X0121325Y0075206D01*
X0121325Y0075804D02*
X0121275Y0075804D01*
X0122202Y0073410D02*
X0109660Y0073410D01*
X0103687Y0074009D02*
X0083134Y0074009D01*
X0084579Y0073410D02*
X0100106Y0073410D01*
X0099162Y0072812D02*
X0085275Y0072812D01*
X0085874Y0072213D02*
X0098537Y0072213D01*
X0098095Y0071615D02*
X0086318Y0071615D01*
X0086566Y0071016D02*
X0097776Y0071016D01*
X0097550Y0070418D02*
X0086813Y0070418D01*
X0087000Y0069819D02*
X0097402Y0069819D01*
X0097324Y0068622D02*
X0087000Y0068622D01*
X0087000Y0068024D02*
X0097405Y0068024D01*
X0097555Y0067425D02*
X0086804Y0067425D01*
X0086556Y0066827D02*
X0097783Y0066827D01*
X0098105Y0066228D02*
X0086308Y0066228D01*
X0085851Y0065630D02*
X0098551Y0065630D01*
X0099181Y0065031D02*
X0085252Y0065031D01*
X0084523Y0064433D02*
X0100134Y0064433D01*
X0101151Y0063834D02*
X0083556Y0063834D01*
X0084851Y0063236D02*
X0099586Y0063236D01*
X0098785Y0062637D02*
X0085450Y0062637D01*
X0086048Y0062039D02*
X0098227Y0062039D01*
X0097816Y0061440D02*
X0086390Y0061440D01*
X0086638Y0060842D02*
X0097513Y0060842D01*
X0097318Y0060243D02*
X0086886Y0060243D01*
X0087000Y0059645D02*
X0097200Y0059645D01*
X0101861Y0059645D02*
X0102462Y0059645D01*
X0102472Y0060243D02*
X0101872Y0060243D01*
X0101882Y0060842D02*
X0102482Y0060842D01*
X0102493Y0061440D02*
X0101893Y0061440D01*
X0101903Y0062039D02*
X0102503Y0062039D01*
X0102514Y0062637D02*
X0101914Y0062637D01*
X0101924Y0063236D02*
X0102524Y0063236D01*
X0102535Y0063834D02*
X0101935Y0063834D01*
X0101945Y0064433D02*
X0102545Y0064433D01*
X0102536Y0063930D02*
X0102536Y0063930D01*
X0102556Y0065031D02*
X0101955Y0065031D01*
X0101966Y0065630D02*
X0102566Y0065630D01*
X0102576Y0066228D02*
X0101976Y0066228D01*
X0101987Y0066827D02*
X0102587Y0066827D01*
X0102597Y0067425D02*
X0101997Y0067425D01*
X0102008Y0068024D02*
X0102608Y0068024D01*
X0102618Y0068622D02*
X0102018Y0068622D01*
X0102029Y0069221D02*
X0087000Y0069221D01*
X0080466Y0074009D02*
X0073134Y0074009D01*
X0074579Y0073410D02*
X0079021Y0073410D01*
X0078325Y0072812D02*
X0075275Y0072812D01*
X0075874Y0072213D02*
X0077726Y0072213D01*
X0077282Y0071615D02*
X0076318Y0071615D01*
X0076566Y0071016D02*
X0077034Y0071016D01*
X0070466Y0074009D02*
X0063134Y0074009D01*
X0064579Y0073410D02*
X0069021Y0073410D01*
X0068325Y0072812D02*
X0065275Y0072812D01*
X0065874Y0072213D02*
X0067726Y0072213D01*
X0067282Y0071615D02*
X0066318Y0071615D01*
X0066566Y0071016D02*
X0067034Y0071016D01*
X0068539Y0074607D02*
X0019693Y0074607D01*
X0019180Y0074009D02*
X0030466Y0074009D01*
X0029021Y0073410D02*
X0018667Y0073410D01*
X0018154Y0072812D02*
X0028325Y0072812D01*
X0027726Y0072213D02*
X0017641Y0072213D01*
X0017128Y0071615D02*
X0027282Y0071615D01*
X0027034Y0071016D02*
X0016615Y0071016D01*
X0016813Y0070418D02*
X0026787Y0070418D01*
X0026600Y0069819D02*
X0017000Y0069819D01*
X0017000Y0069221D02*
X0026600Y0069221D01*
X0026600Y0068622D02*
X0017000Y0068622D01*
X0017000Y0068024D02*
X0026600Y0068024D01*
X0026796Y0067425D02*
X0016804Y0067425D01*
X0016556Y0066827D02*
X0027044Y0066827D01*
X0027292Y0066228D02*
X0016308Y0066228D01*
X0015851Y0065630D02*
X0027749Y0065630D01*
X0028348Y0065031D02*
X0015252Y0065031D01*
X0014523Y0064433D02*
X0029077Y0064433D01*
X0030044Y0063834D02*
X0014100Y0063834D01*
X0014851Y0063236D02*
X0028749Y0063236D01*
X0028150Y0062637D02*
X0015450Y0062637D01*
X0016048Y0062039D02*
X0027552Y0062039D01*
X0027210Y0061440D02*
X0016390Y0061440D01*
X0016638Y0060842D02*
X0026962Y0060842D01*
X0026714Y0060243D02*
X0016886Y0060243D01*
X0017000Y0059645D02*
X0026600Y0059645D01*
X0026600Y0059046D02*
X0017000Y0059046D01*
X0017000Y0058448D02*
X0026600Y0058448D01*
X0026621Y0057849D02*
X0016979Y0057849D01*
X0016732Y0057251D02*
X0026868Y0057251D01*
X0027116Y0056652D02*
X0016484Y0056652D01*
X0016236Y0056054D02*
X0027364Y0056054D01*
X0027924Y0055455D02*
X0015676Y0055455D01*
X0015077Y0054857D02*
X0028523Y0054857D01*
X0029498Y0054258D02*
X0014102Y0054258D01*
X0014100Y0053660D02*
X0029622Y0053660D01*
X0028574Y0053061D02*
X0015026Y0053061D01*
X0015624Y0052462D02*
X0027976Y0052462D01*
X0027386Y0051864D02*
X0016214Y0051864D01*
X0016462Y0051265D02*
X0027138Y0051265D01*
X0026890Y0050667D02*
X0016710Y0050667D01*
X0016958Y0050068D02*
X0026642Y0050068D01*
X0026600Y0049470D02*
X0017000Y0049470D01*
X0017000Y0048871D02*
X0026600Y0048871D01*
X0026600Y0048273D02*
X0017000Y0048273D01*
X0016907Y0047674D02*
X0026693Y0047674D01*
X0026941Y0047076D02*
X0016659Y0047076D01*
X0016411Y0046477D02*
X0027189Y0046477D01*
X0027500Y0045879D02*
X0016100Y0045879D01*
X0015501Y0045280D02*
X0028099Y0045280D01*
X0028697Y0044682D02*
X0014903Y0044682D01*
X0014100Y0044083D02*
X0029920Y0044083D01*
X0029201Y0043485D02*
X0014399Y0043485D01*
X0015201Y0042886D02*
X0028399Y0042886D01*
X0027801Y0042288D02*
X0015799Y0042288D01*
X0016287Y0041689D02*
X0027313Y0041689D01*
X0027065Y0041091D02*
X0016535Y0041091D01*
X0016783Y0040492D02*
X0026817Y0040492D01*
X0026600Y0039894D02*
X0017000Y0039894D01*
X0017000Y0039295D02*
X0026600Y0039295D01*
X0026600Y0038697D02*
X0017000Y0038697D01*
X0017000Y0038098D02*
X0026600Y0038098D01*
X0026765Y0037500D02*
X0016835Y0037500D01*
X0016587Y0036901D02*
X0027013Y0036901D01*
X0027261Y0036303D02*
X0016339Y0036303D01*
X0015925Y0035704D02*
X0027675Y0035704D01*
X0028273Y0035106D02*
X0015327Y0035106D01*
X0014703Y0034507D02*
X0028897Y0034507D01*
X0030342Y0033909D02*
X0013258Y0033909D01*
X0010342Y0033909D02*
X0007900Y0033909D01*
X0007900Y0034507D02*
X0008897Y0034507D01*
X0008273Y0035106D02*
X0007900Y0035106D01*
X0007900Y0028522D02*
X0009813Y0028522D01*
X0008719Y0027924D02*
X0007900Y0027924D01*
X0007900Y0027325D02*
X0008121Y0027325D01*
X0033258Y0033909D02*
X0040342Y0033909D01*
X0038897Y0034507D02*
X0034703Y0034507D01*
X0035327Y0035106D02*
X0038273Y0035106D01*
X0037675Y0035704D02*
X0035925Y0035704D01*
X0036339Y0036303D02*
X0037261Y0036303D01*
X0037013Y0036901D02*
X0036587Y0036901D01*
X0043258Y0033909D02*
X0050342Y0033909D01*
X0048897Y0034507D02*
X0044703Y0034507D01*
X0045327Y0035106D02*
X0048273Y0035106D01*
X0047675Y0035704D02*
X0045925Y0035704D01*
X0046339Y0036303D02*
X0047261Y0036303D01*
X0047013Y0036901D02*
X0046587Y0036901D01*
X0053258Y0033909D02*
X0060342Y0033909D01*
X0058897Y0034507D02*
X0054703Y0034507D01*
X0055327Y0035106D02*
X0058273Y0035106D01*
X0057675Y0035704D02*
X0055925Y0035704D01*
X0056339Y0036303D02*
X0057261Y0036303D01*
X0057013Y0036901D02*
X0056587Y0036901D01*
X0063258Y0033909D02*
X0070342Y0033909D01*
X0068897Y0034507D02*
X0064703Y0034507D01*
X0065327Y0035106D02*
X0068273Y0035106D01*
X0067675Y0035704D02*
X0065925Y0035704D01*
X0066339Y0036303D02*
X0067261Y0036303D01*
X0067013Y0036901D02*
X0066587Y0036901D01*
X0073258Y0033909D02*
X0080342Y0033909D01*
X0078897Y0034507D02*
X0074703Y0034507D01*
X0075327Y0035106D02*
X0078273Y0035106D01*
X0077675Y0035704D02*
X0075925Y0035704D01*
X0076339Y0036303D02*
X0077261Y0036303D01*
X0077013Y0036901D02*
X0076587Y0036901D01*
X0085201Y0042886D02*
X0098735Y0042886D01*
X0098084Y0042288D02*
X0085799Y0042288D01*
X0086287Y0041689D02*
X0097622Y0041689D01*
X0097288Y0041091D02*
X0086535Y0041091D01*
X0086783Y0040492D02*
X0097049Y0040492D01*
X0096890Y0039894D02*
X0087000Y0039894D01*
X0084399Y0043485D02*
X0099720Y0043485D01*
X0100715Y0044083D02*
X0083680Y0044083D01*
X0084903Y0044682D02*
X0099317Y0044682D01*
X0098555Y0045280D02*
X0085501Y0045280D01*
X0086100Y0045879D02*
X0098012Y0045879D01*
X0097613Y0046477D02*
X0086411Y0046477D01*
X0086659Y0047076D02*
X0097320Y0047076D01*
X0097126Y0047674D02*
X0086907Y0047674D01*
X0087000Y0048273D02*
X0097017Y0048273D01*
X0101653Y0047674D02*
X0102253Y0047674D01*
X0102242Y0047076D02*
X0101642Y0047076D01*
X0101632Y0046477D02*
X0102232Y0046477D01*
X0102221Y0045879D02*
X0101621Y0045879D01*
X0101611Y0045280D02*
X0102211Y0045280D01*
X0102200Y0044682D02*
X0101600Y0044682D01*
X0101684Y0049470D02*
X0102284Y0049470D01*
X0102294Y0050068D02*
X0101694Y0050068D01*
X0101705Y0050667D02*
X0102305Y0050667D01*
X0102315Y0051265D02*
X0101715Y0051265D01*
X0101726Y0051864D02*
X0102326Y0051864D01*
X0102336Y0052462D02*
X0101736Y0052462D01*
X0101747Y0053061D02*
X0102347Y0053061D01*
X0102357Y0053660D02*
X0101757Y0053660D01*
X0101767Y0054258D02*
X0102368Y0054258D01*
X0102378Y0054857D02*
X0101778Y0054857D01*
X0101788Y0055455D02*
X0102388Y0055455D01*
X0102399Y0056054D02*
X0101799Y0056054D01*
X0101809Y0056652D02*
X0102409Y0056652D01*
X0102420Y0057251D02*
X0101820Y0057251D01*
X0101830Y0057849D02*
X0102430Y0057849D01*
X0102639Y0069819D02*
X0102039Y0069819D01*
X0102050Y0070418D02*
X0102650Y0070418D01*
X0102660Y0071016D02*
X0102060Y0071016D01*
X0102070Y0071615D02*
X0102670Y0071615D01*
X0102681Y0072213D02*
X0102081Y0072213D01*
X0102091Y0072812D02*
X0102691Y0072812D01*
X0102702Y0073410D02*
X0102102Y0073410D01*
X0110177Y0079994D02*
X0125071Y0079994D01*
X0124047Y0080593D02*
X0113753Y0080593D01*
X0114101Y0081191D02*
X0123699Y0081191D01*
X0130243Y0087706D02*
X0130243Y0092026D01*
X0129364Y0092904D01*
X0124578Y0092904D01*
X0123699Y0092026D01*
X0123699Y0091533D01*
X0114101Y0091533D01*
X0114101Y0092026D01*
X0113222Y0092904D01*
X0108436Y0092904D01*
X0107557Y0092026D01*
X0107557Y0087240D01*
X0108314Y0086483D01*
X0107557Y0085726D01*
X0107557Y0082749D01*
X0106059Y0081251D01*
X0106800Y0083038D01*
X0106800Y0085028D01*
X0106039Y0086865D01*
X0104632Y0088272D01*
X0103700Y0088658D01*
X0103700Y0089358D01*
X0104632Y0089744D01*
X0106039Y0091151D01*
X0106800Y0092988D01*
X0106800Y0094978D01*
X0106039Y0096815D01*
X0105371Y0097483D01*
X0130300Y0097483D01*
X0130300Y0087649D01*
X0130243Y0087706D01*
X0130243Y0087775D02*
X0130300Y0087775D01*
X0130300Y0088373D02*
X0130243Y0088373D01*
X0130243Y0088972D02*
X0130300Y0088972D01*
X0130300Y0089570D02*
X0130243Y0089570D01*
X0130243Y0090169D02*
X0130300Y0090169D01*
X0130300Y0090767D02*
X0130243Y0090767D01*
X0130243Y0091366D02*
X0130300Y0091366D01*
X0130300Y0091964D02*
X0130243Y0091964D01*
X0130300Y0092563D02*
X0129705Y0092563D01*
X0130300Y0093161D02*
X0106800Y0093161D01*
X0106800Y0093760D02*
X0130300Y0093760D01*
X0130300Y0094358D02*
X0106800Y0094358D01*
X0106800Y0094957D02*
X0130300Y0094957D01*
X0130300Y0095555D02*
X0106561Y0095555D01*
X0106313Y0096154D02*
X0130300Y0096154D01*
X0130300Y0096752D02*
X0106065Y0096752D01*
X0105503Y0097351D02*
X0130300Y0097351D01*
X0124236Y0092563D02*
X0113564Y0092563D01*
X0114101Y0091964D02*
X0123699Y0091964D01*
X0108095Y0092563D02*
X0106624Y0092563D01*
X0106376Y0091964D02*
X0107557Y0091964D01*
X0107557Y0091366D02*
X0106128Y0091366D01*
X0105655Y0090767D02*
X0107557Y0090767D01*
X0107557Y0090169D02*
X0105057Y0090169D01*
X0104212Y0089570D02*
X0107557Y0089570D01*
X0107557Y0088972D02*
X0103700Y0088972D01*
X0104388Y0088373D02*
X0107557Y0088373D01*
X0107557Y0087775D02*
X0105129Y0087775D01*
X0105728Y0087176D02*
X0107621Y0087176D01*
X0108220Y0086578D02*
X0106158Y0086578D01*
X0106406Y0085979D02*
X0107810Y0085979D01*
X0107557Y0085381D02*
X0106654Y0085381D01*
X0106800Y0084782D02*
X0107557Y0084782D01*
X0107557Y0084184D02*
X0106800Y0084184D01*
X0106800Y0083585D02*
X0107557Y0083585D01*
X0107557Y0082987D02*
X0106778Y0082987D01*
X0106531Y0082388D02*
X0107197Y0082388D01*
X0106598Y0081790D02*
X0106283Y0081790D01*
X0067940Y0075206D02*
X0020206Y0075206D01*
X0016200Y0077600D02*
X0007900Y0077600D01*
X0007900Y0078198D02*
X0016713Y0078198D01*
X0017000Y0078534D02*
X0013125Y0074013D01*
X0012834Y0074133D01*
X0010766Y0074133D01*
X0008854Y0073341D01*
X0007900Y0072387D01*
X0007900Y0080862D01*
X0008968Y0079794D01*
X0010805Y0079033D01*
X0012795Y0079033D01*
X0014632Y0079794D01*
X0016039Y0081201D01*
X0016800Y0083038D01*
X0016800Y0085028D01*
X0016039Y0086865D01*
X0014632Y0088272D01*
X0014100Y0088492D01*
X0014100Y0089524D01*
X0014632Y0089744D01*
X0016039Y0091151D01*
X0016800Y0092988D01*
X0016800Y0094978D01*
X0016039Y0096815D01*
X0015371Y0097483D01*
X0018512Y0097483D01*
X0018139Y0097110D01*
X0017695Y0096499D01*
X0017352Y0095826D01*
X0017118Y0095107D01*
X0017000Y0094361D01*
X0017000Y0094283D01*
X0021500Y0094283D01*
X0021500Y0093683D01*
X0022100Y0093683D01*
X0022100Y0089183D01*
X0022178Y0089183D01*
X0022924Y0089301D01*
X0023643Y0089535D01*
X0024316Y0089878D01*
X0024927Y0090322D01*
X0025461Y0090856D01*
X0025905Y0091467D01*
X0026248Y0092141D01*
X0026482Y0092859D01*
X0026600Y0093605D01*
X0026600Y0093683D01*
X0022100Y0093683D01*
X0022100Y0094283D01*
X0026600Y0094283D01*
X0026600Y0094361D01*
X0026482Y0095107D01*
X0026248Y0095826D01*
X0025905Y0096499D01*
X0025461Y0097110D01*
X0025088Y0097483D01*
X0028229Y0097483D01*
X0027561Y0096815D01*
X0026800Y0094978D01*
X0026800Y0092988D01*
X0027561Y0091151D01*
X0028968Y0089744D01*
X0029500Y0089524D01*
X0029500Y0088492D01*
X0028968Y0088272D01*
X0027561Y0086865D01*
X0026800Y0085028D01*
X0026800Y0083038D01*
X0027561Y0081201D01*
X0028779Y0079983D01*
X0024392Y0079983D01*
X0024927Y0080372D01*
X0025461Y0080906D01*
X0025905Y0081517D01*
X0026248Y0082191D01*
X0026482Y0082909D01*
X0026600Y0083655D01*
X0026600Y0083733D01*
X0022100Y0083733D01*
X0022100Y0084333D01*
X0026600Y0084333D01*
X0026600Y0084411D01*
X0026482Y0085157D01*
X0026248Y0085876D01*
X0025905Y0086549D01*
X0025461Y0087160D01*
X0024927Y0087694D01*
X0024316Y0088138D01*
X0023643Y0088481D01*
X0022924Y0088715D01*
X0022178Y0088833D01*
X0022100Y0088833D01*
X0022100Y0084333D01*
X0021500Y0084333D01*
X0021500Y0083733D01*
X0017000Y0083733D01*
X0017000Y0083655D01*
X0017118Y0082909D01*
X0017352Y0082191D01*
X0017695Y0081517D01*
X0018139Y0080906D01*
X0018673Y0080372D01*
X0019208Y0079983D01*
X0018347Y0079983D01*
X0018275Y0079911D01*
X0018174Y0079903D01*
X0017611Y0079247D01*
X0017000Y0078636D01*
X0017000Y0078534D01*
X0017161Y0078797D02*
X0007900Y0078797D01*
X0007900Y0079395D02*
X0009930Y0079395D01*
X0008768Y0079994D02*
X0007900Y0079994D01*
X0007900Y0080593D02*
X0008169Y0080593D01*
X0007900Y0077001D02*
X0015686Y0077001D01*
X0015173Y0076403D02*
X0007900Y0076403D01*
X0007900Y0075804D02*
X0014660Y0075804D01*
X0014147Y0075206D02*
X0007900Y0075206D01*
X0007900Y0074607D02*
X0013634Y0074607D01*
X0010466Y0074009D02*
X0007900Y0074009D01*
X0007900Y0073410D02*
X0009021Y0073410D01*
X0008325Y0072812D02*
X0007900Y0072812D01*
X0013670Y0079395D02*
X0017739Y0079395D01*
X0018452Y0080593D02*
X0015431Y0080593D01*
X0016029Y0081191D02*
X0017932Y0081191D01*
X0017556Y0081790D02*
X0016283Y0081790D01*
X0016531Y0082388D02*
X0017287Y0082388D01*
X0017106Y0082987D02*
X0016778Y0082987D01*
X0016800Y0083585D02*
X0017011Y0083585D01*
X0016800Y0084184D02*
X0021500Y0084184D01*
X0021500Y0084333D02*
X0017000Y0084333D01*
X0017000Y0084411D01*
X0017118Y0085157D01*
X0017352Y0085876D01*
X0017695Y0086549D01*
X0018139Y0087160D01*
X0018673Y0087694D01*
X0019284Y0088138D01*
X0019957Y0088481D01*
X0020676Y0088715D01*
X0021422Y0088833D01*
X0021500Y0088833D01*
X0021500Y0084333D01*
X0021500Y0084782D02*
X0022100Y0084782D01*
X0022100Y0084184D02*
X0026800Y0084184D01*
X0026800Y0084782D02*
X0026541Y0084782D01*
X0026409Y0085381D02*
X0026946Y0085381D01*
X0027194Y0085979D02*
X0026196Y0085979D01*
X0025884Y0086578D02*
X0027442Y0086578D01*
X0027872Y0087176D02*
X0025445Y0087176D01*
X0024816Y0087775D02*
X0028471Y0087775D01*
X0029212Y0088373D02*
X0023855Y0088373D01*
X0023712Y0089570D02*
X0029388Y0089570D01*
X0029500Y0088972D02*
X0014100Y0088972D01*
X0014212Y0089570D02*
X0019888Y0089570D01*
X0019957Y0089535D02*
X0020676Y0089301D01*
X0021422Y0089183D01*
X0021500Y0089183D01*
X0021500Y0093683D01*
X0017000Y0093683D01*
X0017000Y0093605D01*
X0017118Y0092859D01*
X0017352Y0092141D01*
X0017695Y0091467D01*
X0018139Y0090856D01*
X0018673Y0090322D01*
X0019284Y0089878D01*
X0019957Y0089535D01*
X0019745Y0088373D02*
X0014388Y0088373D01*
X0015129Y0087775D02*
X0018784Y0087775D01*
X0018155Y0087176D02*
X0015728Y0087176D01*
X0016158Y0086578D02*
X0017716Y0086578D01*
X0017404Y0085979D02*
X0016406Y0085979D01*
X0016654Y0085381D02*
X0017191Y0085381D01*
X0017059Y0084782D02*
X0016800Y0084782D01*
X0021500Y0085381D02*
X0022100Y0085381D01*
X0022100Y0085979D02*
X0021500Y0085979D01*
X0021500Y0086578D02*
X0022100Y0086578D01*
X0022100Y0087176D02*
X0021500Y0087176D01*
X0021500Y0087775D02*
X0022100Y0087775D01*
X0022100Y0088373D02*
X0021500Y0088373D01*
X0021500Y0089570D02*
X0022100Y0089570D01*
X0022100Y0090169D02*
X0021500Y0090169D01*
X0021500Y0090767D02*
X0022100Y0090767D01*
X0022100Y0091366D02*
X0021500Y0091366D01*
X0021500Y0091964D02*
X0022100Y0091964D01*
X0022100Y0092563D02*
X0021500Y0092563D01*
X0021500Y0093161D02*
X0022100Y0093161D01*
X0022100Y0093760D02*
X0026800Y0093760D01*
X0026800Y0094358D02*
X0026600Y0094358D01*
X0026506Y0094957D02*
X0026800Y0094957D01*
X0027039Y0095555D02*
X0026336Y0095555D01*
X0026081Y0096154D02*
X0027287Y0096154D01*
X0027535Y0096752D02*
X0025721Y0096752D01*
X0025220Y0097351D02*
X0028097Y0097351D01*
X0026800Y0093161D02*
X0026530Y0093161D01*
X0026386Y0092563D02*
X0026976Y0092563D01*
X0027224Y0091964D02*
X0026159Y0091964D01*
X0025831Y0091366D02*
X0027472Y0091366D01*
X0027945Y0090767D02*
X0025372Y0090767D01*
X0024716Y0090169D02*
X0028543Y0090169D01*
X0021500Y0093760D02*
X0016800Y0093760D01*
X0016800Y0094358D02*
X0017000Y0094358D01*
X0017094Y0094957D02*
X0016800Y0094957D01*
X0016561Y0095555D02*
X0017264Y0095555D01*
X0017519Y0096154D02*
X0016313Y0096154D01*
X0016065Y0096752D02*
X0017879Y0096752D01*
X0018380Y0097351D02*
X0015503Y0097351D01*
X0016800Y0093161D02*
X0017070Y0093161D01*
X0017214Y0092563D02*
X0016624Y0092563D01*
X0016376Y0091964D02*
X0017441Y0091964D01*
X0017768Y0091366D02*
X0016128Y0091366D01*
X0015655Y0090767D02*
X0018228Y0090767D01*
X0018884Y0090169D02*
X0015057Y0090169D01*
X0026589Y0083585D02*
X0026800Y0083585D01*
X0026822Y0082987D02*
X0026494Y0082987D01*
X0026313Y0082388D02*
X0027069Y0082388D01*
X0027317Y0081790D02*
X0026044Y0081790D01*
X0025668Y0081191D02*
X0027571Y0081191D01*
X0028169Y0080593D02*
X0025148Y0080593D01*
X0024407Y0079994D02*
X0028768Y0079994D01*
X0036824Y0075804D02*
X0067342Y0075804D01*
X0066743Y0076403D02*
X0037423Y0076403D01*
X0038021Y0077001D02*
X0066145Y0077001D01*
X0065546Y0077600D02*
X0038620Y0077600D01*
X0039218Y0078198D02*
X0064948Y0078198D01*
X0064349Y0078797D02*
X0039817Y0078797D01*
X0043670Y0079395D02*
X0049930Y0079395D01*
X0048768Y0079994D02*
X0044832Y0079994D01*
X0045431Y0080593D02*
X0048169Y0080593D01*
X0047571Y0081191D02*
X0046029Y0081191D01*
X0046283Y0081790D02*
X0047317Y0081790D01*
X0047069Y0082388D02*
X0046531Y0082388D01*
X0046778Y0082987D02*
X0046822Y0082987D01*
X0046800Y0083038D02*
X0046800Y0085028D01*
X0047561Y0086865D01*
X0048968Y0088272D01*
X0049900Y0088658D01*
X0049900Y0089358D01*
X0048968Y0089744D01*
X0047561Y0091151D01*
X0046800Y0092988D01*
X0046800Y0094978D01*
X0047561Y0096815D01*
X0048229Y0097483D01*
X0045371Y0097483D01*
X0046039Y0096815D01*
X0046800Y0094978D01*
X0046800Y0092988D01*
X0046039Y0091151D01*
X0044632Y0089744D01*
X0044100Y0089524D01*
X0044100Y0088492D01*
X0044632Y0088272D01*
X0046039Y0086865D01*
X0046800Y0085028D01*
X0046800Y0083038D01*
X0046800Y0083585D02*
X0046800Y0083585D01*
X0046800Y0084184D02*
X0046800Y0084184D01*
X0046800Y0084782D02*
X0046800Y0084782D01*
X0046654Y0085381D02*
X0046946Y0085381D01*
X0047194Y0085979D02*
X0046406Y0085979D01*
X0046158Y0086578D02*
X0047442Y0086578D01*
X0047872Y0087176D02*
X0045728Y0087176D01*
X0045129Y0087775D02*
X0048471Y0087775D01*
X0049212Y0088373D02*
X0044388Y0088373D01*
X0044100Y0088972D02*
X0049900Y0088972D01*
X0049388Y0089570D02*
X0044212Y0089570D01*
X0045057Y0090169D02*
X0048543Y0090169D01*
X0047945Y0090767D02*
X0045655Y0090767D01*
X0046128Y0091366D02*
X0047472Y0091366D01*
X0047224Y0091964D02*
X0046376Y0091964D01*
X0046624Y0092563D02*
X0046976Y0092563D01*
X0046800Y0093161D02*
X0046800Y0093161D01*
X0046800Y0093760D02*
X0046800Y0093760D01*
X0046800Y0094358D02*
X0046800Y0094358D01*
X0046800Y0094957D02*
X0046800Y0094957D01*
X0046561Y0095555D02*
X0047039Y0095555D01*
X0047287Y0096154D02*
X0046313Y0096154D01*
X0046065Y0096752D02*
X0047535Y0096752D01*
X0048097Y0097351D02*
X0045503Y0097351D01*
X0055371Y0097483D02*
X0056039Y0096815D01*
X0056800Y0094978D01*
X0056800Y0092988D01*
X0057561Y0091151D01*
X0058968Y0089744D01*
X0059900Y0089358D01*
X0059900Y0088658D01*
X0058968Y0088272D01*
X0057561Y0086865D01*
X0056800Y0085028D01*
X0056800Y0083038D01*
X0056800Y0085028D01*
X0056039Y0086865D01*
X0054632Y0088272D01*
X0053700Y0088658D01*
X0053700Y0089358D01*
X0054632Y0089744D01*
X0056039Y0091151D01*
X0056800Y0092988D01*
X0056800Y0094978D01*
X0057561Y0096815D01*
X0058229Y0097483D01*
X0055371Y0097483D01*
X0055503Y0097351D02*
X0058097Y0097351D01*
X0057535Y0096752D02*
X0056065Y0096752D01*
X0056313Y0096154D02*
X0057287Y0096154D01*
X0057039Y0095555D02*
X0056561Y0095555D01*
X0056800Y0094957D02*
X0056800Y0094957D01*
X0056800Y0094358D02*
X0056800Y0094358D01*
X0056800Y0093760D02*
X0056800Y0093760D01*
X0056800Y0093161D02*
X0056800Y0093161D01*
X0056624Y0092563D02*
X0056976Y0092563D01*
X0057224Y0091964D02*
X0056376Y0091964D01*
X0056128Y0091366D02*
X0057472Y0091366D01*
X0057945Y0090767D02*
X0055655Y0090767D01*
X0055057Y0090169D02*
X0058543Y0090169D01*
X0059388Y0089570D02*
X0054212Y0089570D01*
X0053700Y0088972D02*
X0059900Y0088972D01*
X0059212Y0088373D02*
X0054388Y0088373D01*
X0055129Y0087775D02*
X0058471Y0087775D01*
X0057872Y0087176D02*
X0055728Y0087176D01*
X0056158Y0086578D02*
X0057442Y0086578D01*
X0057194Y0085979D02*
X0056406Y0085979D01*
X0056654Y0085381D02*
X0056946Y0085381D01*
X0056800Y0084782D02*
X0056800Y0084782D01*
X0056800Y0084184D02*
X0056800Y0084184D01*
X0056800Y0083585D02*
X0056800Y0083585D01*
X0056778Y0082987D02*
X0056822Y0082987D01*
X0057069Y0082388D02*
X0056531Y0082388D01*
X0056283Y0081790D02*
X0057317Y0081790D01*
X0057571Y0081191D02*
X0056029Y0081191D01*
X0055431Y0080593D02*
X0058169Y0080593D01*
X0058768Y0079994D02*
X0054832Y0079994D01*
X0053670Y0079395D02*
X0059930Y0079395D01*
X0063670Y0079395D02*
X0063751Y0079395D01*
X0060466Y0074009D02*
X0053134Y0074009D01*
X0054579Y0073410D02*
X0059021Y0073410D01*
X0058325Y0072812D02*
X0055275Y0072812D01*
X0055874Y0072213D02*
X0057726Y0072213D01*
X0057282Y0071615D02*
X0056318Y0071615D01*
X0056566Y0071016D02*
X0057034Y0071016D01*
X0050466Y0074009D02*
X0043134Y0074009D01*
X0044579Y0073410D02*
X0049021Y0073410D01*
X0048325Y0072812D02*
X0045275Y0072812D01*
X0045874Y0072213D02*
X0047726Y0072213D01*
X0047282Y0071615D02*
X0046318Y0071615D01*
X0046566Y0071016D02*
X0047034Y0071016D01*
X0040466Y0074009D02*
X0033134Y0074009D01*
X0034579Y0073410D02*
X0039021Y0073410D01*
X0038325Y0072812D02*
X0035275Y0072812D01*
X0035874Y0072213D02*
X0037726Y0072213D01*
X0037282Y0071615D02*
X0036318Y0071615D01*
X0036566Y0071016D02*
X0037034Y0071016D01*
X0019193Y0079994D02*
X0014832Y0079994D01*
X0127475Y0051265D02*
X0130300Y0051265D01*
X0130300Y0050667D02*
X0127475Y0050667D01*
X0127475Y0050068D02*
X0130300Y0050068D01*
X0130300Y0049470D02*
X0127475Y0049470D01*
X0127059Y0048871D02*
X0130300Y0048871D01*
X0018145Y0010567D02*
X0015455Y0010567D01*
D15*
X0011800Y0038933D02*
X0011800Y0048933D01*
X0011800Y0058933D01*
X0011800Y0068933D01*
X0019300Y0077683D01*
X0035450Y0077683D01*
X0041800Y0084033D01*
X0041800Y0093983D01*
X0031800Y0093983D02*
X0031800Y0084033D01*
X0021800Y0084033D02*
X0021800Y0093983D01*
X0011800Y0093983D02*
X0011800Y0084033D01*
D16*
X0122000Y0072083D03*
X0123900Y0086483D03*
X0127000Y0094583D03*
D17*
X0126971Y0089633D02*
X0126971Y0088291D01*
X0129743Y0085519D01*
X0129743Y0077262D01*
X0126971Y0074490D01*
X0126971Y0064633D01*
X0110829Y0064633D01*
X0108057Y0060926D02*
X0108057Y0072326D01*
X0103900Y0076483D01*
X0069350Y0076483D01*
X0061800Y0084033D01*
X0061800Y0093983D01*
X0071800Y0093983D02*
X0071800Y0084033D01*
X0076850Y0078983D01*
X0106479Y0078983D01*
X0110829Y0083333D01*
X0126971Y0083333D01*
X0126971Y0079054D01*
X0124400Y0076483D01*
X0123900Y0086483D02*
X0123900Y0086562D01*
X0126971Y0089633D01*
X0110829Y0089633D01*
X0101800Y0093983D02*
X0101800Y0084033D01*
X0091800Y0084033D02*
X0091800Y0093983D01*
X0081800Y0093983D02*
X0081800Y0084033D01*
X0051800Y0084033D02*
X0051800Y0093983D01*
X0108057Y0060926D02*
X0110650Y0058333D01*
X0110829Y0058333D01*
X0126971Y0058333D01*
X0126971Y0054054D01*
X0124400Y0051483D01*
X0126971Y0024633D02*
X0110829Y0024633D01*
X0105180Y0018983D01*
X0096750Y0018983D01*
X0091800Y0023933D01*
X0091800Y0013983D01*
X0081800Y0013983D02*
X0081800Y0023933D01*
X0071800Y0023933D02*
X0071800Y0013983D01*
X0061800Y0013983D02*
X0061800Y0023933D01*
X0051800Y0023933D02*
X0051800Y0013983D01*
X0041800Y0013983D02*
X0041800Y0023933D01*
X0031800Y0023933D02*
X0031800Y0013983D01*
X0021800Y0013983D02*
X0021800Y0023933D01*
X0011800Y0023933D02*
X0011800Y0013983D01*
M02*
