G75*
%MOIN*%
%OFA0B0*%
%FSLAX25Y25*%
%IPPOS*%
%LPD*%
%AMOC8*
5,1,8,0,0,1.08239X$1,22.5*
%
%ADD10C,0.00700*%
%ADD11C,0.00300*%
%ADD12R,0.00028X0.27104*%
%ADD13R,0.00028X0.15540*%
%ADD14R,0.00028X0.00868*%
%ADD15R,0.00028X0.27384*%
%ADD16R,0.00028X0.16772*%
%ADD17R,0.00028X0.27496*%
%ADD18R,0.00028X0.16996*%
%ADD19R,0.00028X0.27580*%
%ADD20R,0.00028X0.17164*%
%ADD21R,0.00028X0.27664*%
%ADD22R,0.00028X0.17304*%
%ADD23R,0.00028X0.27720*%
%ADD24R,0.00028X0.17444*%
%ADD25R,0.00028X0.27804*%
%ADD26R,0.00028X0.17556*%
%ADD27R,0.00028X0.27860*%
%ADD28R,0.00028X0.17668*%
%ADD29R,0.00028X0.27916*%
%ADD30R,0.00028X0.17752*%
%ADD31R,0.00028X0.27944*%
%ADD32R,0.00028X0.17836*%
%ADD33R,0.00028X0.28000*%
%ADD34R,0.00028X0.17948*%
%ADD35R,0.00028X0.28028*%
%ADD36R,0.00028X0.18032*%
%ADD37R,0.00028X0.28084*%
%ADD38R,0.00028X0.18060*%
%ADD39R,0.00028X0.28084*%
%ADD40R,0.00028X0.18144*%
%ADD41R,0.00028X0.28140*%
%ADD42R,0.00028X0.18200*%
%ADD43R,0.00028X0.28168*%
%ADD44R,0.00028X0.18284*%
%ADD45R,0.00028X0.28196*%
%ADD46R,0.00028X0.18340*%
%ADD47R,0.00028X0.18396*%
%ADD48R,0.00028X0.28252*%
%ADD49R,0.00028X0.18452*%
%ADD50R,0.00028X0.28280*%
%ADD51R,0.00028X0.18508*%
%ADD52R,0.00028X0.28308*%
%ADD53R,0.00028X0.18564*%
%ADD54R,0.00028X0.28336*%
%ADD55R,0.00028X0.18620*%
%ADD56R,0.00028X0.18648*%
%ADD57R,0.00028X0.28364*%
%ADD58R,0.00028X0.18704*%
%ADD59R,0.00028X0.28364*%
%ADD60R,0.00028X0.18760*%
%ADD61R,0.00028X0.28392*%
%ADD62R,0.00028X0.18788*%
%ADD63R,0.00028X0.18816*%
%ADD64R,0.00028X0.28448*%
%ADD65R,0.00028X0.18872*%
%ADD66R,0.00028X0.28476*%
%ADD67R,0.00028X0.18900*%
%ADD68R,0.00028X0.28448*%
%ADD69R,0.00028X0.18956*%
%ADD70R,0.00028X0.28476*%
%ADD71R,0.00028X0.18984*%
%ADD72R,0.00028X0.28504*%
%ADD73R,0.00028X0.19040*%
%ADD74R,0.00028X0.19068*%
%ADD75R,0.00028X0.28532*%
%ADD76R,0.00028X0.19096*%
%ADD77R,0.00028X0.19152*%
%ADD78R,0.00028X0.28560*%
%ADD79R,0.00028X0.28588*%
%ADD80R,0.00028X0.19208*%
%ADD81R,0.00028X0.28560*%
%ADD82R,0.00028X0.19236*%
%ADD83R,0.00028X0.19264*%
%ADD84R,0.00028X0.19292*%
%ADD85R,0.00028X0.28616*%
%ADD86R,0.00028X0.19320*%
%ADD87R,0.00028X0.19348*%
%ADD88R,0.00028X0.19404*%
%ADD89R,0.00028X0.28644*%
%ADD90R,0.00028X0.19404*%
%ADD91R,0.00028X0.28644*%
%ADD92R,0.00028X0.19432*%
%ADD93R,0.00028X0.19460*%
%ADD94R,0.00028X0.19488*%
%ADD95R,0.00028X0.16352*%
%ADD96R,0.00028X0.06244*%
%ADD97R,0.00028X0.04200*%
%ADD98R,0.00028X0.19516*%
%ADD99R,0.00028X0.16128*%
%ADD100R,0.00028X0.05740*%
%ADD101R,0.00028X0.04004*%
%ADD102R,0.00028X0.19544*%
%ADD103R,0.00028X0.15932*%
%ADD104R,0.00028X0.05348*%
%ADD105R,0.00028X0.03780*%
%ADD106R,0.00028X0.19572*%
%ADD107R,0.00028X0.15764*%
%ADD108R,0.00028X0.05068*%
%ADD109R,0.00028X0.03696*%
%ADD110R,0.00028X0.03556*%
%ADD111R,0.00028X0.03164*%
%ADD112R,0.00028X0.01512*%
%ADD113R,0.00028X0.02576*%
%ADD114R,0.00028X0.02996*%
%ADD115R,0.00028X0.03136*%
%ADD116R,0.00028X0.05432*%
%ADD117R,0.00028X0.04172*%
%ADD118R,0.00028X0.04816*%
%ADD119R,0.00028X0.03556*%
%ADD120R,0.00028X0.03584*%
%ADD121R,0.00028X0.03024*%
%ADD122R,0.00028X0.04032*%
%ADD123R,0.00028X0.04592*%
%ADD124R,0.00028X0.03472*%
%ADD125R,0.00028X0.03108*%
%ADD126R,0.00028X0.03948*%
%ADD127R,0.00028X0.04396*%
%ADD128R,0.00028X0.03388*%
%ADD129R,0.00028X0.03612*%
%ADD130R,0.00028X0.03864*%
%ADD131R,0.00028X0.03332*%
%ADD132R,0.00028X0.03612*%
%ADD133R,0.00028X0.03164*%
%ADD134R,0.00028X0.01512*%
%ADD135R,0.00028X0.02576*%
%ADD136R,0.00028X0.03024*%
%ADD137R,0.00028X0.03080*%
%ADD138R,0.00028X0.05432*%
%ADD139R,0.00028X0.04032*%
%ADD140R,0.00028X0.03248*%
%ADD141R,0.00028X0.03640*%
%ADD142R,0.00028X0.03080*%
%ADD143R,0.00028X0.03192*%
%ADD144R,0.00028X0.03640*%
%ADD145R,0.00028X0.03724*%
%ADD146R,0.00028X0.03668*%
%ADD147R,0.00028X0.03052*%
%ADD148R,0.00028X0.03500*%
%ADD149R,0.00028X0.02968*%
%ADD150R,0.00028X0.03444*%
%ADD151R,0.00028X0.03220*%
%ADD152R,0.00028X0.02940*%
%ADD153R,0.00028X0.03696*%
%ADD154R,0.00028X0.02968*%
%ADD155R,0.00028X0.03332*%
%ADD156R,0.00028X0.03108*%
%ADD157R,0.00028X0.02884*%
%ADD158R,0.00028X0.03276*%
%ADD159R,0.00028X0.02856*%
%ADD160R,0.00028X0.03248*%
%ADD161R,0.00028X0.02800*%
%ADD162R,0.00028X0.02912*%
%ADD163R,0.00028X0.02828*%
%ADD164R,0.00028X0.02744*%
%ADD165R,0.00028X0.03752*%
%ADD166R,0.00028X0.02716*%
%ADD167R,0.00028X0.02884*%
%ADD168R,0.00028X0.02660*%
%ADD169R,0.00028X0.02688*%
%ADD170R,0.00028X0.03752*%
%ADD171R,0.00028X0.02940*%
%ADD172R,0.00028X0.03052*%
%ADD173R,0.00028X0.02660*%
%ADD174R,0.00028X0.02632*%
%ADD175R,0.00028X0.02604*%
%ADD176R,0.00028X0.03780*%
%ADD177R,0.00028X0.02940*%
%ADD178R,0.00028X0.02548*%
%ADD179R,0.00028X0.02548*%
%ADD180R,0.00028X0.02828*%
%ADD181R,0.00028X0.02912*%
%ADD182R,0.00028X0.02492*%
%ADD183R,0.00028X0.02520*%
%ADD184R,0.00028X0.02856*%
%ADD185R,0.00028X0.02464*%
%ADD186R,0.00028X0.03808*%
%ADD187R,0.00028X0.02828*%
%ADD188R,0.00028X0.02828*%
%ADD189R,0.00028X0.02464*%
%ADD190R,0.00028X0.03808*%
%ADD191R,0.00028X0.02408*%
%ADD192R,0.00028X0.02436*%
%ADD193R,0.00028X0.02772*%
%ADD194R,0.00028X0.02380*%
%ADD195R,0.00028X0.02352*%
%ADD196R,0.00028X0.03836*%
%ADD197R,0.00028X0.02324*%
%ADD198R,0.00028X0.02296*%
%ADD199R,0.00028X0.03836*%
%ADD200R,0.00028X0.02744*%
%ADD201R,0.00028X0.02296*%
%ADD202R,0.00028X0.02268*%
%ADD203R,0.00028X0.02212*%
%ADD204R,0.00028X0.02240*%
%ADD205R,0.00028X0.02184*%
%ADD206R,0.00028X0.02212*%
%ADD207R,0.00028X0.02156*%
%ADD208R,0.00028X0.02128*%
%ADD209R,0.00028X0.02128*%
%ADD210R,0.00028X0.03864*%
%ADD211R,0.00028X0.02436*%
%ADD212R,0.00028X0.02100*%
%ADD213R,0.00028X0.02128*%
%ADD214R,0.00028X0.02100*%
%ADD215R,0.00028X0.02632*%
%ADD216R,0.00028X0.02072*%
%ADD217R,0.00028X0.00728*%
%ADD218R,0.00028X0.02044*%
%ADD219R,0.00028X0.00616*%
%ADD220R,0.00028X0.01148*%
%ADD221R,0.00028X0.02016*%
%ADD222R,0.00028X0.01008*%
%ADD223R,0.00028X0.01428*%
%ADD224R,0.00028X0.01288*%
%ADD225R,0.00028X0.02604*%
%ADD226R,0.00028X0.02688*%
%ADD227R,0.00028X0.01680*%
%ADD228R,0.00028X0.01988*%
%ADD229R,0.00028X0.02576*%
%ADD230R,0.00028X0.01876*%
%ADD231R,0.00028X0.01960*%
%ADD232R,0.00028X0.01680*%
%ADD233R,0.00028X0.01848*%
%ADD234R,0.00028X0.01932*%
%ADD235R,0.00028X0.01904*%
%ADD236R,0.00028X0.02184*%
%ADD237R,0.00028X0.02240*%
%ADD238R,0.00028X0.02520*%
%ADD239R,0.00028X0.02184*%
%ADD240R,0.00028X0.01904*%
%ADD241R,0.00028X0.02352*%
%ADD242R,0.00028X0.01848*%
%ADD243R,0.00028X0.02520*%
%ADD244R,0.00028X0.02156*%
%ADD245R,0.00028X0.01848*%
%ADD246R,0.00028X0.01820*%
%ADD247R,0.00028X0.02492*%
%ADD248R,0.00028X0.01792*%
%ADD249R,0.00028X0.01820*%
%ADD250R,0.00028X0.02464*%
%ADD251R,0.00028X0.03192*%
%ADD252R,0.00028X0.01764*%
%ADD253R,0.00028X0.02464*%
%ADD254R,0.00028X0.02576*%
%ADD255R,0.00028X0.02072*%
%ADD256R,0.00028X0.03304*%
%ADD257R,0.00028X0.01820*%
%ADD258R,0.00028X0.02856*%
%ADD259R,0.00028X0.01736*%
%ADD260R,0.00028X0.01792*%
%ADD261R,0.00028X0.01736*%
%ADD262R,0.00028X0.05264*%
%ADD263R,0.00028X0.01708*%
%ADD264R,0.00028X0.05292*%
%ADD265R,0.00028X0.01988*%
%ADD266R,0.00028X0.05320*%
%ADD267R,0.00028X0.05348*%
%ADD268R,0.00028X0.01652*%
%ADD269R,0.00028X0.02380*%
%ADD270R,0.00028X0.00028*%
%ADD271R,0.00028X0.02492*%
%ADD272R,0.00028X0.01960*%
%ADD273R,0.00028X0.05376*%
%ADD274R,0.00028X0.01624*%
%ADD275R,0.00028X0.00084*%
%ADD276R,0.00028X0.05348*%
%ADD277R,0.00028X0.03360*%
%ADD278R,0.00028X0.01624*%
%ADD279R,0.00028X0.05376*%
%ADD280R,0.00028X0.03416*%
%ADD281R,0.00028X0.01596*%
%ADD282R,0.00028X0.00112*%
%ADD283R,0.00028X0.05376*%
%ADD284R,0.00028X0.05404*%
%ADD285R,0.00028X0.01568*%
%ADD286R,0.00028X0.00140*%
%ADD287R,0.00028X0.01876*%
%ADD288R,0.00028X0.03528*%
%ADD289R,0.00028X0.02324*%
%ADD290R,0.00028X0.00168*%
%ADD291R,0.00028X0.01876*%
%ADD292R,0.00028X0.03584*%
%ADD293R,0.00028X0.01540*%
%ADD294R,0.00028X0.00168*%
%ADD295R,0.00028X0.01540*%
%ADD296R,0.00028X0.00196*%
%ADD297R,0.00028X0.01512*%
%ADD298R,0.00028X0.00224*%
%ADD299R,0.00028X0.05460*%
%ADD300R,0.00028X0.01484*%
%ADD301R,0.00028X0.00252*%
%ADD302R,0.00028X0.02240*%
%ADD303R,0.00028X0.00280*%
%ADD304R,0.00028X0.01792*%
%ADD305R,0.00028X0.05460*%
%ADD306R,0.00028X0.01456*%
%ADD307R,0.00028X0.00280*%
%ADD308R,0.00028X0.05488*%
%ADD309R,0.00028X0.01456*%
%ADD310R,0.00028X0.00336*%
%ADD311R,0.00028X0.01764*%
%ADD312R,0.00028X0.03920*%
%ADD313R,0.00028X0.01428*%
%ADD314R,0.00028X0.00364*%
%ADD315R,0.00028X0.03976*%
%ADD316R,0.00028X0.01400*%
%ADD317R,0.00028X0.02184*%
%ADD318R,0.00028X0.00392*%
%ADD319R,0.00028X0.05488*%
%ADD320R,0.00028X0.03976*%
%ADD321R,0.00028X0.01400*%
%ADD322R,0.00028X0.00392*%
%ADD323R,0.00028X0.00420*%
%ADD324R,0.00028X0.05516*%
%ADD325R,0.00028X0.01372*%
%ADD326R,0.00028X0.00448*%
%ADD327R,0.00028X0.04088*%
%ADD328R,0.00028X0.00476*%
%ADD329R,0.00028X0.04144*%
%ADD330R,0.00028X0.01344*%
%ADD331R,0.00028X0.00504*%
%ADD332R,0.00028X0.00532*%
%ADD333R,0.00028X0.02212*%
%ADD334R,0.00028X0.05516*%
%ADD335R,0.00028X0.04172*%
%ADD336R,0.00028X0.01344*%
%ADD337R,0.00028X0.00532*%
%ADD338R,0.00028X0.01316*%
%ADD339R,0.00028X0.05544*%
%ADD340R,0.00028X0.00588*%
%ADD341R,0.00028X0.04256*%
%ADD342R,0.00028X0.02016*%
%ADD343R,0.00028X0.00644*%
%ADD344R,0.00028X0.02156*%
%ADD345R,0.00028X0.05544*%
%ADD346R,0.00028X0.04312*%
%ADD347R,0.00028X0.01288*%
%ADD348R,0.00028X0.00644*%
%ADD349R,0.00028X0.04312*%
%ADD350R,0.00028X0.01260*%
%ADD351R,0.00028X0.00700*%
%ADD352R,0.00028X0.04368*%
%ADD353R,0.00028X0.00756*%
%ADD354R,0.00028X0.01568*%
%ADD355R,0.00028X0.04424*%
%ADD356R,0.00028X0.01232*%
%ADD357R,0.00028X0.00756*%
%ADD358R,0.00028X0.04424*%
%ADD359R,0.00028X0.01232*%
%ADD360R,0.00028X0.00784*%
%ADD361R,0.00028X0.05572*%
%ADD362R,0.00028X0.00812*%
%ADD363R,0.00028X0.04480*%
%ADD364R,0.00028X0.00840*%
%ADD365R,0.00028X0.01540*%
%ADD366R,0.00028X0.01876*%
%ADD367R,0.00028X0.00868*%
%ADD368R,0.00028X0.02044*%
%ADD369R,0.00028X0.01540*%
%ADD370R,0.00028X0.05572*%
%ADD371R,0.00028X0.04480*%
%ADD372R,0.00028X0.01204*%
%ADD373R,0.00028X0.01204*%
%ADD374R,0.00028X0.00896*%
%ADD375R,0.00028X0.04508*%
%ADD376R,0.00028X0.00924*%
%ADD377R,0.00028X0.04536*%
%ADD378R,0.00028X0.00952*%
%ADD379R,0.00028X0.01176*%
%ADD380R,0.00028X0.04228*%
%ADD381R,0.00028X0.00980*%
%ADD382R,0.00028X0.01820*%
%ADD383R,0.00028X0.01008*%
%ADD384R,0.00028X0.03220*%
%ADD385R,0.00028X0.04564*%
%ADD386R,0.00028X0.01176*%
%ADD387R,0.00028X0.04592*%
%ADD388R,0.00028X0.01036*%
%ADD389R,0.00028X0.01064*%
%ADD390R,0.00028X0.01484*%
%ADD391R,0.00028X0.01092*%
%ADD392R,0.00028X0.01120*%
%ADD393R,0.00028X0.01484*%
%ADD394R,0.00028X0.04620*%
%ADD395R,0.00028X0.01148*%
%ADD396R,0.00028X0.01120*%
%ADD397R,0.00028X0.04620*%
%ADD398R,0.00028X0.04648*%
%ADD399R,0.00028X0.02212*%
%ADD400R,0.00028X0.04648*%
%ADD401R,0.00028X0.01456*%
%ADD402R,0.00028X0.04676*%
%ADD403R,0.00028X0.02548*%
%ADD404R,0.00028X0.01596*%
%ADD405R,0.00028X0.01764*%
%ADD406R,0.00028X0.01456*%
%ADD407R,0.00028X0.04704*%
%ADD408R,0.00028X0.04704*%
%ADD409R,0.00028X0.05600*%
%ADD410R,0.00028X0.02520*%
%ADD411R,0.00028X0.01512*%
%ADD412R,0.00028X0.05600*%
%ADD413R,0.00028X0.01372*%
%ADD414R,0.00028X0.01428*%
%ADD415R,0.00028X0.02156*%
%ADD416R,0.00028X0.01260*%
%ADD417R,0.00028X0.02716*%
%ADD418R,0.00028X0.04564*%
%ADD419R,0.00028X0.02772*%
%ADD420R,0.00028X0.04508*%
%ADD421R,0.00028X0.04452*%
%ADD422R,0.00028X0.02492*%
%ADD423R,0.00028X0.00028*%
%ADD424R,0.00028X0.00112*%
%ADD425R,0.00028X0.01148*%
%ADD426R,0.00028X0.04340*%
%ADD427R,0.00028X0.00196*%
%ADD428R,0.00028X0.01092*%
%ADD429R,0.00028X0.01148*%
%ADD430R,0.00028X0.00392*%
%ADD431R,0.00028X0.00420*%
%ADD432R,0.00028X0.01036*%
%ADD433R,0.00028X0.04200*%
%ADD434R,0.00028X0.01316*%
%ADD435R,0.00028X0.04116*%
%ADD436R,0.00028X0.00700*%
%ADD437R,0.00028X0.01428*%
%ADD438R,0.00028X0.00980*%
%ADD439R,0.00028X0.01708*%
%ADD440R,0.00028X0.01120*%
%ADD441R,0.00028X0.00896*%
%ADD442R,0.00028X0.02800*%
%ADD443R,0.00028X0.05404*%
%ADD444R,0.00028X0.08652*%
%ADD445R,0.00028X0.08848*%
%ADD446R,0.00028X0.08764*%
%ADD447R,0.00028X0.08932*%
%ADD448R,0.00028X0.08876*%
%ADD449R,0.00028X0.09072*%
%ADD450R,0.00028X0.03612*%
%ADD451R,0.00028X0.09016*%
%ADD452R,0.00028X0.09212*%
%ADD453R,0.00028X0.09268*%
%ADD454R,0.00028X0.09464*%
%ADD455R,0.00028X0.19124*%
%ADD456R,0.00028X0.05320*%
%ADD457R,0.00028X0.19124*%
%ADD458R,0.00028X0.05320*%
%ADD459R,0.00028X0.03360*%
%ADD460R,0.00028X0.03304*%
%ADD461R,0.00028X0.05292*%
%ADD462R,0.00028X0.03192*%
%ADD463R,0.00028X0.02884*%
%ADD464R,0.00028X0.01904*%
%ADD465R,0.00028X0.16800*%
%ADD466R,0.00028X0.01176*%
%ADD467R,0.00028X0.14532*%
%ADD468R,0.00028X0.00812*%
%ADD469R,0.00028X0.14504*%
%ADD470R,0.00028X0.00840*%
%ADD471R,0.00028X0.14504*%
%ADD472R,0.00028X0.01652*%
%ADD473R,0.00028X0.02128*%
%ADD474R,0.00028X0.01848*%
%ADD475R,0.00028X0.02268*%
%ADD476R,0.00028X0.02548*%
%ADD477R,0.00028X0.03220*%
%ADD478R,0.00028X0.03248*%
%ADD479R,0.00028X0.03612*%
%ADD480R,0.00028X0.03724*%
%ADD481R,0.00028X0.03920*%
%ADD482R,0.00028X0.04060*%
%ADD483R,0.00028X0.04256*%
%ADD484R,0.00028X0.04284*%
%ADD485R,0.00028X0.08512*%
%ADD486R,0.00028X0.09828*%
%ADD487R,0.00028X0.05096*%
%ADD488R,0.00028X0.08512*%
%ADD489R,0.00028X0.27356*%
%ADD490R,0.00028X0.27608*%
%ADD491R,0.00028X0.08540*%
%ADD492R,0.00028X0.06300*%
%ADD493R,0.00028X0.49840*%
%ADD494R,0.00028X0.49812*%
%ADD495R,0.00028X0.49784*%
%ADD496R,0.00028X0.49756*%
%ADD497R,0.00028X0.49728*%
%ADD498R,0.00028X0.49700*%
%ADD499R,0.00028X0.49672*%
%ADD500R,0.00028X0.49644*%
%ADD501R,0.00028X0.49616*%
%ADD502R,0.00028X0.49588*%
%ADD503R,0.00028X0.49560*%
%ADD504R,0.00028X0.49532*%
%ADD505R,0.00028X0.49504*%
%ADD506R,0.00028X0.49448*%
%ADD507R,0.00028X0.49420*%
%ADD508R,0.00028X0.49392*%
%ADD509R,0.00028X0.49364*%
%ADD510R,0.00028X0.49336*%
%ADD511R,0.00028X0.49308*%
%ADD512R,0.00028X0.49252*%
%ADD513R,0.00028X0.49224*%
%ADD514R,0.00028X0.49196*%
%ADD515R,0.00028X0.49140*%
%ADD516R,0.00028X0.49112*%
%ADD517R,0.00028X0.49056*%
%ADD518R,0.00028X0.49000*%
%ADD519R,0.00028X0.48972*%
%ADD520R,0.00028X0.48916*%
%ADD521R,0.00028X0.48860*%
%ADD522R,0.00028X0.48804*%
%ADD523R,0.00028X0.48748*%
%ADD524R,0.00028X0.48692*%
%ADD525R,0.00028X0.48608*%
%ADD526R,0.00028X0.48524*%
%ADD527R,0.00028X0.48468*%
%ADD528R,0.00028X0.48356*%
%ADD529R,0.00028X0.48244*%
%ADD530R,0.00028X0.48104*%
%ADD531R,0.00028X0.47908*%
%ADD532C,0.00591*%
%ADD533C,0.00800*%
D10*
X0071500Y0033081D02*
X0071500Y0033365D01*
X0071500Y0033081D02*
X0071502Y0033025D01*
X0071507Y0032970D01*
X0071516Y0032915D01*
X0071529Y0032861D01*
X0071545Y0032808D01*
X0071565Y0032756D01*
X0071588Y0032705D01*
X0071614Y0032656D01*
X0071643Y0032609D01*
X0071676Y0032564D01*
X0071711Y0032521D01*
X0071749Y0032480D01*
X0071790Y0032442D01*
X0071833Y0032407D01*
X0071878Y0032374D01*
X0071925Y0032345D01*
X0071974Y0032319D01*
X0072025Y0032296D01*
X0072077Y0032276D01*
X0072130Y0032260D01*
X0072184Y0032247D01*
X0072239Y0032238D01*
X0072294Y0032233D01*
X0072350Y0032231D01*
X0076600Y0032231D01*
X0074900Y0031665D02*
X0074900Y0033365D01*
X0076317Y0035210D02*
X0076317Y0035493D01*
X0076600Y0035493D01*
X0076600Y0035210D01*
X0076317Y0035210D01*
X0074900Y0035352D02*
X0071500Y0035352D01*
X0071500Y0037698D02*
X0074900Y0037698D01*
X0074900Y0039115D01*
X0074898Y0039171D01*
X0074893Y0039226D01*
X0074884Y0039281D01*
X0074871Y0039335D01*
X0074855Y0039388D01*
X0074835Y0039440D01*
X0074812Y0039491D01*
X0074786Y0039540D01*
X0074757Y0039587D01*
X0074724Y0039632D01*
X0074689Y0039675D01*
X0074651Y0039716D01*
X0074610Y0039754D01*
X0074567Y0039789D01*
X0074522Y0039822D01*
X0074475Y0039851D01*
X0074426Y0039877D01*
X0074375Y0039900D01*
X0074323Y0039920D01*
X0074270Y0039936D01*
X0074216Y0039949D01*
X0074161Y0039958D01*
X0074106Y0039963D01*
X0074050Y0039965D01*
X0071500Y0039965D01*
X0069800Y0042222D02*
X0069800Y0042789D01*
X0074900Y0044489D01*
X0074900Y0042222D02*
X0071500Y0043356D01*
X0071500Y0046780D02*
X0071500Y0048197D01*
X0071502Y0048253D01*
X0071507Y0048308D01*
X0071516Y0048363D01*
X0071529Y0048417D01*
X0071545Y0048470D01*
X0071565Y0048522D01*
X0071588Y0048573D01*
X0071614Y0048622D01*
X0071643Y0048669D01*
X0071676Y0048714D01*
X0071711Y0048757D01*
X0071749Y0048798D01*
X0071790Y0048836D01*
X0071833Y0048871D01*
X0071878Y0048904D01*
X0071925Y0048933D01*
X0071974Y0048959D01*
X0072025Y0048982D01*
X0072077Y0049002D01*
X0072130Y0049018D01*
X0072184Y0049031D01*
X0072239Y0049040D01*
X0072294Y0049045D01*
X0072350Y0049047D01*
X0074050Y0049047D01*
X0074106Y0049045D01*
X0074161Y0049040D01*
X0074216Y0049031D01*
X0074270Y0049018D01*
X0074323Y0049002D01*
X0074375Y0048982D01*
X0074426Y0048959D01*
X0074475Y0048933D01*
X0074522Y0048904D01*
X0074567Y0048871D01*
X0074610Y0048836D01*
X0074651Y0048798D01*
X0074689Y0048757D01*
X0074724Y0048714D01*
X0074757Y0048669D01*
X0074786Y0048622D01*
X0074812Y0048573D01*
X0074835Y0048522D01*
X0074855Y0048470D01*
X0074871Y0048417D01*
X0074884Y0048363D01*
X0074893Y0048308D01*
X0074898Y0048253D01*
X0074900Y0048197D01*
X0074900Y0046780D01*
X0069800Y0046780D01*
X0076317Y0051044D02*
X0076317Y0051327D01*
X0076600Y0051327D01*
X0076600Y0051044D01*
X0076317Y0051044D01*
X0074900Y0051186D02*
X0071500Y0051186D01*
X0072350Y0053366D02*
X0074050Y0053366D01*
X0074106Y0053368D01*
X0074161Y0053373D01*
X0074216Y0053382D01*
X0074270Y0053395D01*
X0074323Y0053411D01*
X0074375Y0053431D01*
X0074426Y0053454D01*
X0074475Y0053480D01*
X0074522Y0053509D01*
X0074567Y0053542D01*
X0074610Y0053577D01*
X0074651Y0053615D01*
X0074689Y0053656D01*
X0074724Y0053699D01*
X0074757Y0053744D01*
X0074786Y0053791D01*
X0074812Y0053840D01*
X0074835Y0053891D01*
X0074855Y0053943D01*
X0074871Y0053996D01*
X0074884Y0054050D01*
X0074893Y0054105D01*
X0074898Y0054160D01*
X0074900Y0054216D01*
X0074900Y0055349D01*
X0072350Y0053366D02*
X0072294Y0053368D01*
X0072239Y0053373D01*
X0072184Y0053382D01*
X0072130Y0053395D01*
X0072077Y0053411D01*
X0072025Y0053431D01*
X0071974Y0053454D01*
X0071925Y0053480D01*
X0071878Y0053509D01*
X0071833Y0053542D01*
X0071790Y0053577D01*
X0071749Y0053615D01*
X0071711Y0053656D01*
X0071676Y0053699D01*
X0071643Y0053744D01*
X0071614Y0053791D01*
X0071588Y0053840D01*
X0071565Y0053891D01*
X0071545Y0053943D01*
X0071529Y0053996D01*
X0071516Y0054050D01*
X0071507Y0054105D01*
X0071502Y0054160D01*
X0071500Y0054216D01*
X0071500Y0055349D01*
X0072633Y0057360D02*
X0073767Y0057360D01*
X0073833Y0057362D01*
X0073899Y0057368D01*
X0073964Y0057377D01*
X0074028Y0057391D01*
X0074092Y0057408D01*
X0074155Y0057428D01*
X0074216Y0057453D01*
X0074275Y0057481D01*
X0074334Y0057512D01*
X0074390Y0057546D01*
X0074444Y0057584D01*
X0074495Y0057625D01*
X0074545Y0057669D01*
X0074591Y0057715D01*
X0074635Y0057765D01*
X0074676Y0057816D01*
X0074714Y0057870D01*
X0074748Y0057927D01*
X0074779Y0057985D01*
X0074807Y0058044D01*
X0074832Y0058105D01*
X0074852Y0058168D01*
X0074869Y0058232D01*
X0074883Y0058296D01*
X0074892Y0058361D01*
X0074898Y0058427D01*
X0074900Y0058493D01*
X0074898Y0058559D01*
X0074892Y0058625D01*
X0074883Y0058690D01*
X0074869Y0058754D01*
X0074852Y0058818D01*
X0074832Y0058881D01*
X0074807Y0058942D01*
X0074779Y0059001D01*
X0074748Y0059060D01*
X0074714Y0059116D01*
X0074676Y0059170D01*
X0074635Y0059221D01*
X0074591Y0059271D01*
X0074545Y0059317D01*
X0074495Y0059361D01*
X0074444Y0059402D01*
X0074390Y0059440D01*
X0074333Y0059474D01*
X0074275Y0059505D01*
X0074216Y0059533D01*
X0074155Y0059558D01*
X0074092Y0059578D01*
X0074028Y0059595D01*
X0073964Y0059609D01*
X0073899Y0059618D01*
X0073833Y0059624D01*
X0073767Y0059626D01*
X0073767Y0059627D02*
X0072633Y0059627D01*
X0072633Y0059626D02*
X0072567Y0059624D01*
X0072501Y0059618D01*
X0072436Y0059609D01*
X0072372Y0059595D01*
X0072308Y0059578D01*
X0072245Y0059558D01*
X0072184Y0059533D01*
X0072125Y0059505D01*
X0072067Y0059474D01*
X0072010Y0059440D01*
X0071956Y0059402D01*
X0071905Y0059361D01*
X0071855Y0059317D01*
X0071809Y0059271D01*
X0071765Y0059221D01*
X0071724Y0059170D01*
X0071686Y0059116D01*
X0071652Y0059060D01*
X0071621Y0059001D01*
X0071593Y0058942D01*
X0071568Y0058881D01*
X0071548Y0058818D01*
X0071531Y0058754D01*
X0071517Y0058690D01*
X0071508Y0058625D01*
X0071502Y0058559D01*
X0071500Y0058493D01*
X0071502Y0058427D01*
X0071508Y0058361D01*
X0071517Y0058296D01*
X0071531Y0058232D01*
X0071548Y0058168D01*
X0071568Y0058105D01*
X0071593Y0058044D01*
X0071621Y0057985D01*
X0071652Y0057927D01*
X0071686Y0057870D01*
X0071724Y0057816D01*
X0071765Y0057765D01*
X0071809Y0057715D01*
X0071855Y0057669D01*
X0071905Y0057625D01*
X0071956Y0057584D01*
X0072010Y0057546D01*
X0072067Y0057512D01*
X0072125Y0057481D01*
X0072184Y0057453D01*
X0072245Y0057428D01*
X0072308Y0057408D01*
X0072372Y0057391D01*
X0072436Y0057377D01*
X0072501Y0057368D01*
X0072567Y0057362D01*
X0072633Y0057360D01*
X0071783Y0061658D02*
X0071783Y0061941D01*
X0071500Y0061941D01*
X0071500Y0061658D01*
X0071783Y0061658D01*
X0072350Y0063980D02*
X0074050Y0063980D01*
X0074106Y0063982D01*
X0074161Y0063987D01*
X0074216Y0063996D01*
X0074270Y0064009D01*
X0074323Y0064025D01*
X0074375Y0064045D01*
X0074426Y0064068D01*
X0074475Y0064094D01*
X0074522Y0064123D01*
X0074567Y0064156D01*
X0074610Y0064191D01*
X0074651Y0064229D01*
X0074689Y0064270D01*
X0074724Y0064313D01*
X0074757Y0064358D01*
X0074786Y0064405D01*
X0074812Y0064454D01*
X0074835Y0064505D01*
X0074855Y0064557D01*
X0074871Y0064610D01*
X0074884Y0064664D01*
X0074893Y0064719D01*
X0074898Y0064774D01*
X0074900Y0064830D01*
X0074900Y0065963D01*
X0073767Y0067974D02*
X0072633Y0067974D01*
X0072567Y0067976D01*
X0072501Y0067982D01*
X0072436Y0067991D01*
X0072372Y0068005D01*
X0072308Y0068022D01*
X0072245Y0068042D01*
X0072184Y0068067D01*
X0072125Y0068095D01*
X0072067Y0068126D01*
X0072010Y0068160D01*
X0071956Y0068198D01*
X0071905Y0068239D01*
X0071855Y0068283D01*
X0071809Y0068329D01*
X0071765Y0068379D01*
X0071724Y0068430D01*
X0071686Y0068484D01*
X0071652Y0068541D01*
X0071621Y0068599D01*
X0071593Y0068658D01*
X0071568Y0068719D01*
X0071548Y0068782D01*
X0071531Y0068846D01*
X0071517Y0068910D01*
X0071508Y0068975D01*
X0071502Y0069041D01*
X0071500Y0069107D01*
X0071502Y0069173D01*
X0071508Y0069239D01*
X0071517Y0069304D01*
X0071531Y0069368D01*
X0071548Y0069432D01*
X0071568Y0069495D01*
X0071593Y0069556D01*
X0071621Y0069615D01*
X0071652Y0069674D01*
X0071686Y0069730D01*
X0071724Y0069784D01*
X0071765Y0069835D01*
X0071809Y0069885D01*
X0071855Y0069931D01*
X0071905Y0069975D01*
X0071956Y0070016D01*
X0072010Y0070054D01*
X0072067Y0070088D01*
X0072125Y0070119D01*
X0072184Y0070147D01*
X0072245Y0070172D01*
X0072308Y0070192D01*
X0072372Y0070209D01*
X0072436Y0070223D01*
X0072501Y0070232D01*
X0072567Y0070238D01*
X0072633Y0070240D01*
X0072633Y0070241D02*
X0073767Y0070241D01*
X0073767Y0070240D02*
X0073833Y0070238D01*
X0073899Y0070232D01*
X0073964Y0070223D01*
X0074028Y0070209D01*
X0074092Y0070192D01*
X0074155Y0070172D01*
X0074216Y0070147D01*
X0074275Y0070119D01*
X0074333Y0070088D01*
X0074390Y0070054D01*
X0074444Y0070016D01*
X0074495Y0069975D01*
X0074545Y0069931D01*
X0074591Y0069885D01*
X0074635Y0069835D01*
X0074676Y0069784D01*
X0074714Y0069730D01*
X0074748Y0069674D01*
X0074779Y0069615D01*
X0074807Y0069556D01*
X0074832Y0069495D01*
X0074852Y0069432D01*
X0074869Y0069368D01*
X0074883Y0069304D01*
X0074892Y0069239D01*
X0074898Y0069173D01*
X0074900Y0069107D01*
X0074898Y0069041D01*
X0074892Y0068975D01*
X0074883Y0068910D01*
X0074869Y0068846D01*
X0074852Y0068782D01*
X0074832Y0068719D01*
X0074807Y0068658D01*
X0074779Y0068599D01*
X0074748Y0068541D01*
X0074714Y0068484D01*
X0074676Y0068430D01*
X0074635Y0068379D01*
X0074591Y0068329D01*
X0074545Y0068283D01*
X0074495Y0068239D01*
X0074444Y0068198D01*
X0074390Y0068160D01*
X0074334Y0068126D01*
X0074275Y0068095D01*
X0074216Y0068067D01*
X0074155Y0068042D01*
X0074092Y0068022D01*
X0074028Y0068005D01*
X0073964Y0067991D01*
X0073899Y0067982D01*
X0073833Y0067976D01*
X0073767Y0067974D01*
X0071500Y0065963D02*
X0071500Y0064830D01*
X0071502Y0064774D01*
X0071507Y0064719D01*
X0071516Y0064664D01*
X0071529Y0064610D01*
X0071545Y0064557D01*
X0071565Y0064505D01*
X0071588Y0064454D01*
X0071614Y0064405D01*
X0071643Y0064358D01*
X0071676Y0064313D01*
X0071711Y0064270D01*
X0071749Y0064229D01*
X0071790Y0064191D01*
X0071833Y0064156D01*
X0071878Y0064123D01*
X0071925Y0064094D01*
X0071974Y0064068D01*
X0072025Y0064045D01*
X0072077Y0064025D01*
X0072130Y0064009D01*
X0072184Y0063996D01*
X0072239Y0063987D01*
X0072294Y0063982D01*
X0072350Y0063980D01*
X0071500Y0072801D02*
X0074900Y0072801D01*
X0074900Y0075351D01*
X0074900Y0074501D02*
X0071500Y0074501D01*
X0071500Y0076201D02*
X0074050Y0076201D01*
X0074106Y0076199D01*
X0074161Y0076194D01*
X0074216Y0076185D01*
X0074270Y0076172D01*
X0074323Y0076156D01*
X0074375Y0076136D01*
X0074426Y0076113D01*
X0074475Y0076087D01*
X0074522Y0076058D01*
X0074567Y0076025D01*
X0074610Y0075990D01*
X0074651Y0075952D01*
X0074689Y0075911D01*
X0074724Y0075868D01*
X0074757Y0075823D01*
X0074786Y0075776D01*
X0074812Y0075727D01*
X0074835Y0075676D01*
X0074855Y0075624D01*
X0074871Y0075571D01*
X0074884Y0075517D01*
X0074893Y0075462D01*
X0074898Y0075407D01*
X0074900Y0075351D01*
X0093100Y0073748D02*
X0093100Y0072331D01*
X0098200Y0072331D01*
X0098200Y0073748D01*
X0098198Y0073822D01*
X0098192Y0073896D01*
X0098183Y0073970D01*
X0098169Y0074043D01*
X0098152Y0074115D01*
X0098131Y0074186D01*
X0098106Y0074256D01*
X0098077Y0074324D01*
X0098046Y0074391D01*
X0098010Y0074457D01*
X0097971Y0074520D01*
X0097929Y0074581D01*
X0097884Y0074640D01*
X0097836Y0074696D01*
X0097785Y0074750D01*
X0097731Y0074801D01*
X0097675Y0074849D01*
X0097616Y0074894D01*
X0097555Y0074936D01*
X0097492Y0074975D01*
X0097426Y0075011D01*
X0097359Y0075042D01*
X0097291Y0075071D01*
X0097221Y0075096D01*
X0097150Y0075117D01*
X0097078Y0075134D01*
X0097005Y0075148D01*
X0096931Y0075157D01*
X0096857Y0075163D01*
X0096783Y0075165D01*
X0094517Y0075165D01*
X0094443Y0075163D01*
X0094369Y0075157D01*
X0094295Y0075148D01*
X0094222Y0075134D01*
X0094150Y0075117D01*
X0094079Y0075096D01*
X0094009Y0075071D01*
X0093941Y0075042D01*
X0093874Y0075011D01*
X0093809Y0074975D01*
X0093745Y0074936D01*
X0093684Y0074894D01*
X0093625Y0074849D01*
X0093569Y0074801D01*
X0093515Y0074750D01*
X0093464Y0074696D01*
X0093416Y0074640D01*
X0093371Y0074581D01*
X0093329Y0074520D01*
X0093290Y0074457D01*
X0093254Y0074391D01*
X0093223Y0074324D01*
X0093194Y0074256D01*
X0093169Y0074186D01*
X0093148Y0074115D01*
X0093131Y0074043D01*
X0093117Y0073970D01*
X0093108Y0073896D01*
X0093102Y0073822D01*
X0093100Y0073748D01*
X0093100Y0070087D02*
X0093100Y0067820D01*
X0098200Y0067820D01*
X0098200Y0065563D02*
X0098200Y0063296D01*
X0093100Y0063296D01*
X0093100Y0065563D01*
X0095933Y0064996D02*
X0095933Y0063296D01*
X0098200Y0060917D02*
X0098200Y0059783D01*
X0098200Y0060350D02*
X0093100Y0060350D01*
X0093100Y0059783D02*
X0093100Y0060917D01*
X0093100Y0057417D02*
X0098200Y0057417D01*
X0095933Y0057417D02*
X0095933Y0054583D01*
X0098200Y0054583D02*
X0093100Y0054583D01*
X0095225Y0051630D02*
X0096075Y0050072D01*
X0098200Y0050638D02*
X0098198Y0050729D01*
X0098192Y0050820D01*
X0098182Y0050911D01*
X0098169Y0051001D01*
X0098151Y0051090D01*
X0098130Y0051179D01*
X0098105Y0051267D01*
X0098076Y0051353D01*
X0098044Y0051438D01*
X0098007Y0051522D01*
X0097968Y0051604D01*
X0097925Y0051684D01*
X0097878Y0051763D01*
X0097828Y0051839D01*
X0097775Y0051913D01*
X0096075Y0050072D02*
X0096111Y0050015D01*
X0096149Y0049961D01*
X0096191Y0049910D01*
X0096235Y0049860D01*
X0096283Y0049814D01*
X0096332Y0049770D01*
X0096385Y0049729D01*
X0096439Y0049691D01*
X0096496Y0049657D01*
X0096555Y0049625D01*
X0096615Y0049598D01*
X0096677Y0049573D01*
X0096740Y0049553D01*
X0096804Y0049536D01*
X0096869Y0049522D01*
X0096935Y0049513D01*
X0097001Y0049507D01*
X0097067Y0049505D01*
X0097133Y0049507D01*
X0097199Y0049513D01*
X0097264Y0049522D01*
X0097328Y0049536D01*
X0097392Y0049553D01*
X0097455Y0049573D01*
X0097516Y0049598D01*
X0097575Y0049626D01*
X0097634Y0049657D01*
X0097690Y0049691D01*
X0097744Y0049729D01*
X0097795Y0049770D01*
X0097845Y0049814D01*
X0097891Y0049860D01*
X0097935Y0049910D01*
X0097976Y0049961D01*
X0098014Y0050015D01*
X0098048Y0050072D01*
X0098079Y0050130D01*
X0098107Y0050189D01*
X0098132Y0050250D01*
X0098152Y0050313D01*
X0098169Y0050377D01*
X0098183Y0050441D01*
X0098192Y0050506D01*
X0098198Y0050572D01*
X0098200Y0050638D01*
X0093808Y0049363D02*
X0093743Y0049431D01*
X0093679Y0049501D01*
X0093619Y0049574D01*
X0093562Y0049649D01*
X0093508Y0049727D01*
X0093456Y0049806D01*
X0093408Y0049888D01*
X0093364Y0049971D01*
X0093322Y0050056D01*
X0093284Y0050142D01*
X0093250Y0050230D01*
X0093218Y0050319D01*
X0093191Y0050410D01*
X0093167Y0050501D01*
X0093146Y0050594D01*
X0093130Y0050687D01*
X0093117Y0050780D01*
X0093107Y0050874D01*
X0093102Y0050969D01*
X0093100Y0051063D01*
X0093102Y0051129D01*
X0093108Y0051195D01*
X0093117Y0051260D01*
X0093131Y0051324D01*
X0093148Y0051388D01*
X0093168Y0051451D01*
X0093193Y0051512D01*
X0093221Y0051571D01*
X0093252Y0051630D01*
X0093286Y0051686D01*
X0093324Y0051740D01*
X0093365Y0051791D01*
X0093409Y0051841D01*
X0093455Y0051887D01*
X0093505Y0051931D01*
X0093556Y0051972D01*
X0093610Y0052010D01*
X0093667Y0052044D01*
X0093725Y0052075D01*
X0093784Y0052103D01*
X0093845Y0052128D01*
X0093908Y0052148D01*
X0093972Y0052165D01*
X0094036Y0052179D01*
X0094101Y0052188D01*
X0094167Y0052194D01*
X0094233Y0052196D01*
X0094233Y0052197D02*
X0094299Y0052195D01*
X0094365Y0052189D01*
X0094431Y0052180D01*
X0094496Y0052166D01*
X0094560Y0052149D01*
X0094623Y0052129D01*
X0094685Y0052104D01*
X0094745Y0052077D01*
X0094804Y0052045D01*
X0094861Y0052011D01*
X0094915Y0051973D01*
X0094968Y0051932D01*
X0095017Y0051888D01*
X0095065Y0051842D01*
X0095109Y0051792D01*
X0095151Y0051741D01*
X0095189Y0051687D01*
X0095225Y0051630D01*
X0093100Y0044651D02*
X0093100Y0043518D01*
X0093102Y0043452D01*
X0093108Y0043386D01*
X0093117Y0043321D01*
X0093131Y0043257D01*
X0093148Y0043193D01*
X0093168Y0043130D01*
X0093193Y0043069D01*
X0093221Y0043010D01*
X0093252Y0042952D01*
X0093286Y0042895D01*
X0093324Y0042841D01*
X0093365Y0042790D01*
X0093409Y0042740D01*
X0093455Y0042694D01*
X0093505Y0042650D01*
X0093556Y0042609D01*
X0093610Y0042571D01*
X0093667Y0042537D01*
X0093725Y0042506D01*
X0093784Y0042478D01*
X0093845Y0042453D01*
X0093908Y0042433D01*
X0093972Y0042416D01*
X0094036Y0042402D01*
X0094101Y0042393D01*
X0094167Y0042387D01*
X0094233Y0042385D01*
X0094233Y0042384D02*
X0097067Y0042384D01*
X0097067Y0042385D02*
X0097133Y0042387D01*
X0097199Y0042393D01*
X0097264Y0042402D01*
X0097328Y0042416D01*
X0097392Y0042433D01*
X0097455Y0042453D01*
X0097516Y0042478D01*
X0097575Y0042506D01*
X0097633Y0042537D01*
X0097690Y0042571D01*
X0097744Y0042609D01*
X0097795Y0042650D01*
X0097845Y0042694D01*
X0097891Y0042740D01*
X0097935Y0042790D01*
X0097976Y0042841D01*
X0098014Y0042895D01*
X0098048Y0042951D01*
X0098079Y0043010D01*
X0098107Y0043069D01*
X0098132Y0043130D01*
X0098152Y0043193D01*
X0098169Y0043257D01*
X0098183Y0043321D01*
X0098192Y0043386D01*
X0098198Y0043452D01*
X0098200Y0043518D01*
X0098200Y0044651D01*
X0098200Y0040365D02*
X0098200Y0037531D01*
X0098200Y0038948D02*
X0093100Y0038948D01*
X0093100Y0035535D02*
X0095367Y0034402D01*
X0095367Y0034118D02*
X0095367Y0032702D01*
X0095366Y0034118D02*
X0095368Y0034192D01*
X0095374Y0034266D01*
X0095383Y0034340D01*
X0095397Y0034413D01*
X0095414Y0034485D01*
X0095435Y0034556D01*
X0095460Y0034626D01*
X0095489Y0034694D01*
X0095520Y0034761D01*
X0095556Y0034827D01*
X0095595Y0034890D01*
X0095637Y0034951D01*
X0095682Y0035010D01*
X0095730Y0035066D01*
X0095781Y0035120D01*
X0095835Y0035171D01*
X0095891Y0035219D01*
X0095950Y0035264D01*
X0096011Y0035306D01*
X0096075Y0035345D01*
X0096140Y0035381D01*
X0096207Y0035412D01*
X0096275Y0035441D01*
X0096345Y0035466D01*
X0096416Y0035487D01*
X0096488Y0035504D01*
X0096561Y0035518D01*
X0096635Y0035527D01*
X0096709Y0035533D01*
X0096783Y0035535D01*
X0096857Y0035533D01*
X0096931Y0035527D01*
X0097005Y0035518D01*
X0097078Y0035504D01*
X0097150Y0035487D01*
X0097221Y0035466D01*
X0097291Y0035441D01*
X0097359Y0035412D01*
X0097426Y0035381D01*
X0097492Y0035345D01*
X0097555Y0035306D01*
X0097616Y0035264D01*
X0097675Y0035219D01*
X0097731Y0035171D01*
X0097785Y0035120D01*
X0097836Y0035066D01*
X0097884Y0035010D01*
X0097929Y0034951D01*
X0097971Y0034890D01*
X0098010Y0034827D01*
X0098046Y0034761D01*
X0098077Y0034694D01*
X0098106Y0034626D01*
X0098131Y0034556D01*
X0098152Y0034485D01*
X0098169Y0034413D01*
X0098183Y0034340D01*
X0098192Y0034266D01*
X0098198Y0034192D01*
X0098200Y0034118D01*
X0098200Y0032702D01*
X0093100Y0032702D01*
D11*
X0013704Y0028333D02*
X0012538Y0028333D01*
X0013704Y0028333D02*
X0013760Y0028335D01*
X0013815Y0028341D01*
X0013869Y0028351D01*
X0013923Y0028365D01*
X0013976Y0028382D01*
X0014027Y0028403D01*
X0014077Y0028428D01*
X0014125Y0028457D01*
X0014170Y0028488D01*
X0014213Y0028523D01*
X0014254Y0028561D01*
X0014292Y0028602D01*
X0014327Y0028645D01*
X0014358Y0028690D01*
X0014387Y0028738D01*
X0014412Y0028788D01*
X0014433Y0028839D01*
X0014450Y0028892D01*
X0014464Y0028946D01*
X0014474Y0029000D01*
X0014480Y0029055D01*
X0014482Y0029111D01*
X0014480Y0029167D01*
X0014474Y0029222D01*
X0014464Y0029276D01*
X0014450Y0029330D01*
X0014433Y0029383D01*
X0014412Y0029434D01*
X0014387Y0029484D01*
X0014358Y0029532D01*
X0014327Y0029577D01*
X0014292Y0029620D01*
X0014254Y0029661D01*
X0014213Y0029699D01*
X0014170Y0029734D01*
X0014125Y0029765D01*
X0014077Y0029794D01*
X0014027Y0029819D01*
X0013976Y0029840D01*
X0013923Y0029857D01*
X0013869Y0029871D01*
X0013815Y0029881D01*
X0013760Y0029887D01*
X0013704Y0029889D01*
X0012927Y0029889D01*
X0013510Y0029889D02*
X0013571Y0029891D01*
X0013632Y0029897D01*
X0013692Y0029906D01*
X0013752Y0029920D01*
X0013810Y0029937D01*
X0013868Y0029957D01*
X0013924Y0029982D01*
X0013978Y0030009D01*
X0014031Y0030040D01*
X0014081Y0030075D01*
X0014130Y0030112D01*
X0014175Y0030152D01*
X0014219Y0030196D01*
X0014259Y0030241D01*
X0014296Y0030290D01*
X0014331Y0030340D01*
X0014362Y0030393D01*
X0014389Y0030447D01*
X0014414Y0030503D01*
X0014434Y0030561D01*
X0014451Y0030619D01*
X0014465Y0030679D01*
X0014474Y0030739D01*
X0014480Y0030800D01*
X0014482Y0030861D01*
X0014480Y0030922D01*
X0014474Y0030983D01*
X0014465Y0031043D01*
X0014451Y0031103D01*
X0014434Y0031161D01*
X0014414Y0031219D01*
X0014389Y0031275D01*
X0014362Y0031329D01*
X0014331Y0031382D01*
X0014296Y0031432D01*
X0014259Y0031481D01*
X0014219Y0031526D01*
X0014175Y0031570D01*
X0014130Y0031610D01*
X0014081Y0031647D01*
X0014031Y0031682D01*
X0013978Y0031713D01*
X0013924Y0031740D01*
X0013868Y0031765D01*
X0013810Y0031785D01*
X0013752Y0031802D01*
X0013692Y0031816D01*
X0013632Y0031825D01*
X0013571Y0031831D01*
X0013510Y0031833D01*
X0012538Y0031833D01*
X0011062Y0031833D02*
X0009118Y0031833D01*
X0010771Y0029889D01*
X0010187Y0028333D02*
X0010123Y0028335D01*
X0010059Y0028340D01*
X0009995Y0028349D01*
X0009932Y0028362D01*
X0009870Y0028379D01*
X0009809Y0028398D01*
X0009749Y0028422D01*
X0009691Y0028448D01*
X0009634Y0028478D01*
X0009579Y0028512D01*
X0009526Y0028548D01*
X0009475Y0028587D01*
X0009427Y0028629D01*
X0009380Y0028674D01*
X0009337Y0028721D01*
X0009296Y0028771D01*
X0009259Y0028823D01*
X0009224Y0028877D01*
X0009192Y0028933D01*
X0009164Y0028991D01*
X0009139Y0029050D01*
X0009118Y0029111D01*
X0010770Y0029889D02*
X0010811Y0029847D01*
X0010850Y0029803D01*
X0010885Y0029756D01*
X0010918Y0029708D01*
X0010948Y0029657D01*
X0010974Y0029605D01*
X0010997Y0029551D01*
X0011017Y0029496D01*
X0011033Y0029440D01*
X0011046Y0029383D01*
X0011055Y0029325D01*
X0011060Y0029267D01*
X0011062Y0029208D01*
X0011060Y0029151D01*
X0011055Y0029094D01*
X0011045Y0029037D01*
X0011032Y0028982D01*
X0011016Y0028927D01*
X0010995Y0028873D01*
X0010972Y0028821D01*
X0010945Y0028771D01*
X0010915Y0028722D01*
X0010881Y0028675D01*
X0010845Y0028631D01*
X0010806Y0028589D01*
X0010764Y0028550D01*
X0010720Y0028514D01*
X0010673Y0028480D01*
X0010625Y0028450D01*
X0010574Y0028423D01*
X0010522Y0028400D01*
X0010468Y0028379D01*
X0010413Y0028363D01*
X0010358Y0028350D01*
X0010301Y0028340D01*
X0010244Y0028335D01*
X0010187Y0028333D01*
X0019118Y0029111D02*
X0020090Y0028333D01*
X0020090Y0031833D01*
X0019118Y0031833D02*
X0021062Y0031833D01*
X0022927Y0031834D02*
X0023003Y0031832D01*
X0023080Y0031827D01*
X0023155Y0031817D01*
X0023231Y0031804D01*
X0023305Y0031787D01*
X0023379Y0031767D01*
X0023451Y0031743D01*
X0023522Y0031716D01*
X0023592Y0031685D01*
X0023660Y0031650D01*
X0023727Y0031613D01*
X0023791Y0031572D01*
X0023854Y0031528D01*
X0023914Y0031481D01*
X0023972Y0031431D01*
X0024027Y0031378D01*
X0024080Y0031323D01*
X0024130Y0031265D01*
X0024177Y0031205D01*
X0024221Y0031142D01*
X0024262Y0031078D01*
X0024299Y0031011D01*
X0024334Y0030943D01*
X0024365Y0030873D01*
X0024392Y0030802D01*
X0024416Y0030730D01*
X0024436Y0030656D01*
X0024453Y0030582D01*
X0024466Y0030506D01*
X0024476Y0030431D01*
X0024481Y0030354D01*
X0024483Y0030278D01*
X0024482Y0030278D02*
X0024482Y0029305D01*
X0024480Y0029244D01*
X0024474Y0029183D01*
X0024465Y0029123D01*
X0024451Y0029063D01*
X0024434Y0029005D01*
X0024414Y0028947D01*
X0024389Y0028891D01*
X0024362Y0028837D01*
X0024331Y0028784D01*
X0024296Y0028734D01*
X0024259Y0028685D01*
X0024219Y0028640D01*
X0024175Y0028596D01*
X0024130Y0028556D01*
X0024081Y0028519D01*
X0024031Y0028484D01*
X0023978Y0028453D01*
X0023924Y0028426D01*
X0023868Y0028401D01*
X0023810Y0028381D01*
X0023752Y0028364D01*
X0023692Y0028350D01*
X0023632Y0028341D01*
X0023571Y0028335D01*
X0023510Y0028333D01*
X0023449Y0028335D01*
X0023388Y0028341D01*
X0023328Y0028350D01*
X0023268Y0028364D01*
X0023210Y0028381D01*
X0023152Y0028401D01*
X0023096Y0028426D01*
X0023042Y0028453D01*
X0022989Y0028484D01*
X0022939Y0028519D01*
X0022890Y0028556D01*
X0022845Y0028596D01*
X0022801Y0028640D01*
X0022761Y0028685D01*
X0022724Y0028734D01*
X0022689Y0028784D01*
X0022658Y0028837D01*
X0022631Y0028891D01*
X0022606Y0028947D01*
X0022586Y0029005D01*
X0022569Y0029063D01*
X0022555Y0029123D01*
X0022546Y0029183D01*
X0022540Y0029244D01*
X0022538Y0029305D01*
X0022538Y0029500D01*
X0022540Y0029556D01*
X0022546Y0029611D01*
X0022556Y0029665D01*
X0022570Y0029719D01*
X0022587Y0029772D01*
X0022608Y0029823D01*
X0022633Y0029873D01*
X0022662Y0029921D01*
X0022693Y0029966D01*
X0022728Y0030009D01*
X0022766Y0030050D01*
X0022807Y0030088D01*
X0022850Y0030123D01*
X0022895Y0030154D01*
X0022943Y0030183D01*
X0022993Y0030208D01*
X0023044Y0030229D01*
X0023097Y0030246D01*
X0023151Y0030260D01*
X0023205Y0030270D01*
X0023260Y0030276D01*
X0023316Y0030278D01*
X0024482Y0030278D01*
X0029118Y0029111D02*
X0030090Y0028333D01*
X0030090Y0031833D01*
X0029118Y0031833D02*
X0031062Y0031833D01*
X0032538Y0030861D02*
X0032540Y0030922D01*
X0032546Y0030983D01*
X0032555Y0031043D01*
X0032569Y0031103D01*
X0032586Y0031161D01*
X0032606Y0031219D01*
X0032631Y0031275D01*
X0032658Y0031329D01*
X0032689Y0031382D01*
X0032724Y0031432D01*
X0032761Y0031481D01*
X0032801Y0031526D01*
X0032845Y0031570D01*
X0032890Y0031610D01*
X0032939Y0031647D01*
X0032989Y0031682D01*
X0033042Y0031713D01*
X0033096Y0031740D01*
X0033152Y0031765D01*
X0033210Y0031785D01*
X0033268Y0031802D01*
X0033328Y0031816D01*
X0033388Y0031825D01*
X0033449Y0031831D01*
X0033510Y0031833D01*
X0033571Y0031831D01*
X0033632Y0031825D01*
X0033692Y0031816D01*
X0033752Y0031802D01*
X0033810Y0031785D01*
X0033868Y0031765D01*
X0033924Y0031740D01*
X0033978Y0031713D01*
X0034031Y0031682D01*
X0034081Y0031647D01*
X0034130Y0031610D01*
X0034175Y0031570D01*
X0034219Y0031526D01*
X0034259Y0031481D01*
X0034296Y0031432D01*
X0034331Y0031382D01*
X0034362Y0031329D01*
X0034389Y0031275D01*
X0034414Y0031219D01*
X0034434Y0031161D01*
X0034451Y0031103D01*
X0034465Y0031043D01*
X0034474Y0030983D01*
X0034480Y0030922D01*
X0034482Y0030861D01*
X0034480Y0030800D01*
X0034474Y0030739D01*
X0034465Y0030679D01*
X0034451Y0030619D01*
X0034434Y0030561D01*
X0034414Y0030503D01*
X0034389Y0030447D01*
X0034362Y0030393D01*
X0034331Y0030340D01*
X0034296Y0030290D01*
X0034259Y0030241D01*
X0034219Y0030196D01*
X0034175Y0030152D01*
X0034130Y0030112D01*
X0034081Y0030075D01*
X0034031Y0030040D01*
X0033978Y0030009D01*
X0033924Y0029982D01*
X0033868Y0029957D01*
X0033810Y0029937D01*
X0033752Y0029920D01*
X0033692Y0029906D01*
X0033632Y0029897D01*
X0033571Y0029891D01*
X0033510Y0029889D01*
X0033449Y0029891D01*
X0033388Y0029897D01*
X0033328Y0029906D01*
X0033268Y0029920D01*
X0033210Y0029937D01*
X0033152Y0029957D01*
X0033096Y0029982D01*
X0033042Y0030009D01*
X0032989Y0030040D01*
X0032939Y0030075D01*
X0032890Y0030112D01*
X0032845Y0030152D01*
X0032801Y0030196D01*
X0032761Y0030241D01*
X0032724Y0030290D01*
X0032689Y0030340D01*
X0032658Y0030393D01*
X0032631Y0030447D01*
X0032606Y0030503D01*
X0032586Y0030561D01*
X0032569Y0030619D01*
X0032555Y0030679D01*
X0032546Y0030739D01*
X0032540Y0030800D01*
X0032538Y0030861D01*
X0032732Y0029111D02*
X0032734Y0029167D01*
X0032740Y0029222D01*
X0032750Y0029276D01*
X0032764Y0029330D01*
X0032781Y0029383D01*
X0032802Y0029434D01*
X0032827Y0029484D01*
X0032856Y0029532D01*
X0032887Y0029577D01*
X0032922Y0029620D01*
X0032960Y0029661D01*
X0033001Y0029699D01*
X0033044Y0029734D01*
X0033089Y0029765D01*
X0033137Y0029794D01*
X0033187Y0029819D01*
X0033238Y0029840D01*
X0033291Y0029857D01*
X0033345Y0029871D01*
X0033399Y0029881D01*
X0033454Y0029887D01*
X0033510Y0029889D01*
X0033566Y0029887D01*
X0033621Y0029881D01*
X0033675Y0029871D01*
X0033729Y0029857D01*
X0033782Y0029840D01*
X0033833Y0029819D01*
X0033883Y0029794D01*
X0033931Y0029765D01*
X0033976Y0029734D01*
X0034019Y0029699D01*
X0034060Y0029661D01*
X0034098Y0029620D01*
X0034133Y0029577D01*
X0034164Y0029532D01*
X0034193Y0029484D01*
X0034218Y0029434D01*
X0034239Y0029383D01*
X0034256Y0029330D01*
X0034270Y0029276D01*
X0034280Y0029222D01*
X0034286Y0029167D01*
X0034288Y0029111D01*
X0034286Y0029055D01*
X0034280Y0029000D01*
X0034270Y0028946D01*
X0034256Y0028892D01*
X0034239Y0028839D01*
X0034218Y0028788D01*
X0034193Y0028738D01*
X0034164Y0028690D01*
X0034133Y0028645D01*
X0034098Y0028602D01*
X0034060Y0028561D01*
X0034019Y0028523D01*
X0033976Y0028488D01*
X0033931Y0028457D01*
X0033883Y0028428D01*
X0033833Y0028403D01*
X0033782Y0028382D01*
X0033729Y0028365D01*
X0033675Y0028351D01*
X0033621Y0028341D01*
X0033566Y0028335D01*
X0033510Y0028333D01*
X0033454Y0028335D01*
X0033399Y0028341D01*
X0033345Y0028351D01*
X0033291Y0028365D01*
X0033238Y0028382D01*
X0033187Y0028403D01*
X0033137Y0028428D01*
X0033089Y0028457D01*
X0033044Y0028488D01*
X0033001Y0028523D01*
X0032960Y0028561D01*
X0032922Y0028602D01*
X0032887Y0028645D01*
X0032856Y0028690D01*
X0032827Y0028738D01*
X0032802Y0028788D01*
X0032781Y0028839D01*
X0032764Y0028892D01*
X0032750Y0028946D01*
X0032740Y0029000D01*
X0032734Y0029055D01*
X0032732Y0029111D01*
X0040828Y0029889D02*
X0040828Y0028333D01*
X0042772Y0028333D01*
X0041994Y0029889D02*
X0040828Y0029889D01*
X0041994Y0029888D02*
X0042050Y0029890D01*
X0042105Y0029896D01*
X0042159Y0029906D01*
X0042213Y0029920D01*
X0042266Y0029937D01*
X0042317Y0029958D01*
X0042367Y0029983D01*
X0042415Y0030012D01*
X0042460Y0030043D01*
X0042503Y0030078D01*
X0042544Y0030116D01*
X0042582Y0030157D01*
X0042617Y0030200D01*
X0042648Y0030245D01*
X0042677Y0030293D01*
X0042702Y0030343D01*
X0042723Y0030394D01*
X0042740Y0030447D01*
X0042754Y0030501D01*
X0042764Y0030555D01*
X0042770Y0030610D01*
X0042772Y0030666D01*
X0042772Y0031055D01*
X0042770Y0031111D01*
X0042764Y0031166D01*
X0042754Y0031220D01*
X0042740Y0031274D01*
X0042723Y0031327D01*
X0042702Y0031378D01*
X0042677Y0031428D01*
X0042648Y0031476D01*
X0042617Y0031521D01*
X0042582Y0031564D01*
X0042544Y0031605D01*
X0042503Y0031643D01*
X0042460Y0031678D01*
X0042415Y0031710D01*
X0042367Y0031738D01*
X0042317Y0031763D01*
X0042266Y0031784D01*
X0042213Y0031801D01*
X0042159Y0031815D01*
X0042105Y0031825D01*
X0042050Y0031831D01*
X0041994Y0031833D01*
X0040828Y0031833D01*
X0049118Y0031833D02*
X0051062Y0031833D01*
X0052538Y0031833D02*
X0054482Y0031833D01*
X0052538Y0031833D02*
X0054191Y0029889D01*
X0053607Y0028333D02*
X0053543Y0028335D01*
X0053479Y0028340D01*
X0053415Y0028349D01*
X0053352Y0028362D01*
X0053290Y0028379D01*
X0053229Y0028398D01*
X0053169Y0028422D01*
X0053111Y0028448D01*
X0053054Y0028478D01*
X0052999Y0028512D01*
X0052946Y0028548D01*
X0052895Y0028587D01*
X0052847Y0028629D01*
X0052800Y0028674D01*
X0052757Y0028721D01*
X0052716Y0028771D01*
X0052679Y0028823D01*
X0052644Y0028877D01*
X0052612Y0028933D01*
X0052584Y0028991D01*
X0052559Y0029050D01*
X0052538Y0029111D01*
X0054190Y0029889D02*
X0054231Y0029847D01*
X0054270Y0029803D01*
X0054305Y0029756D01*
X0054338Y0029708D01*
X0054368Y0029657D01*
X0054394Y0029605D01*
X0054417Y0029551D01*
X0054437Y0029496D01*
X0054453Y0029440D01*
X0054466Y0029383D01*
X0054475Y0029325D01*
X0054480Y0029267D01*
X0054482Y0029208D01*
X0054480Y0029151D01*
X0054475Y0029094D01*
X0054465Y0029037D01*
X0054452Y0028982D01*
X0054436Y0028927D01*
X0054415Y0028873D01*
X0054392Y0028821D01*
X0054365Y0028771D01*
X0054335Y0028722D01*
X0054301Y0028675D01*
X0054265Y0028631D01*
X0054226Y0028589D01*
X0054184Y0028550D01*
X0054140Y0028514D01*
X0054093Y0028480D01*
X0054045Y0028450D01*
X0053994Y0028423D01*
X0053942Y0028400D01*
X0053888Y0028379D01*
X0053833Y0028363D01*
X0053778Y0028350D01*
X0053721Y0028340D01*
X0053664Y0028335D01*
X0053607Y0028333D01*
X0050771Y0029889D02*
X0049118Y0031833D01*
X0049118Y0029111D02*
X0049139Y0029050D01*
X0049164Y0028991D01*
X0049192Y0028933D01*
X0049224Y0028877D01*
X0049259Y0028823D01*
X0049296Y0028771D01*
X0049337Y0028721D01*
X0049380Y0028674D01*
X0049427Y0028629D01*
X0049475Y0028587D01*
X0049526Y0028548D01*
X0049579Y0028512D01*
X0049634Y0028478D01*
X0049691Y0028448D01*
X0049749Y0028422D01*
X0049809Y0028398D01*
X0049870Y0028379D01*
X0049932Y0028362D01*
X0049995Y0028349D01*
X0050059Y0028340D01*
X0050123Y0028335D01*
X0050187Y0028333D01*
X0050244Y0028335D01*
X0050301Y0028340D01*
X0050358Y0028350D01*
X0050413Y0028363D01*
X0050468Y0028379D01*
X0050522Y0028400D01*
X0050574Y0028423D01*
X0050625Y0028450D01*
X0050673Y0028480D01*
X0050720Y0028514D01*
X0050764Y0028550D01*
X0050806Y0028589D01*
X0050845Y0028631D01*
X0050881Y0028675D01*
X0050915Y0028722D01*
X0050945Y0028771D01*
X0050972Y0028821D01*
X0050995Y0028873D01*
X0051016Y0028927D01*
X0051032Y0028982D01*
X0051045Y0029037D01*
X0051055Y0029094D01*
X0051060Y0029151D01*
X0051062Y0029208D01*
X0051060Y0029267D01*
X0051055Y0029325D01*
X0051046Y0029383D01*
X0051033Y0029440D01*
X0051017Y0029496D01*
X0050997Y0029551D01*
X0050974Y0029605D01*
X0050948Y0029657D01*
X0050918Y0029708D01*
X0050885Y0029756D01*
X0050850Y0029803D01*
X0050811Y0029847D01*
X0050770Y0029889D01*
X0059118Y0031833D02*
X0061062Y0031833D01*
X0062538Y0031833D02*
X0064482Y0031833D01*
X0063510Y0031833D02*
X0063510Y0028333D01*
X0062538Y0029111D01*
X0060771Y0029889D02*
X0059118Y0031833D01*
X0059118Y0029111D02*
X0059139Y0029050D01*
X0059164Y0028991D01*
X0059192Y0028933D01*
X0059224Y0028877D01*
X0059259Y0028823D01*
X0059296Y0028771D01*
X0059337Y0028721D01*
X0059380Y0028674D01*
X0059427Y0028629D01*
X0059475Y0028587D01*
X0059526Y0028548D01*
X0059579Y0028512D01*
X0059634Y0028478D01*
X0059691Y0028448D01*
X0059749Y0028422D01*
X0059809Y0028398D01*
X0059870Y0028379D01*
X0059932Y0028362D01*
X0059995Y0028349D01*
X0060059Y0028340D01*
X0060123Y0028335D01*
X0060187Y0028333D01*
X0060244Y0028335D01*
X0060301Y0028340D01*
X0060358Y0028350D01*
X0060413Y0028363D01*
X0060468Y0028379D01*
X0060522Y0028400D01*
X0060574Y0028423D01*
X0060625Y0028450D01*
X0060673Y0028480D01*
X0060720Y0028514D01*
X0060764Y0028550D01*
X0060806Y0028589D01*
X0060845Y0028631D01*
X0060881Y0028675D01*
X0060915Y0028722D01*
X0060945Y0028771D01*
X0060972Y0028821D01*
X0060995Y0028873D01*
X0061016Y0028927D01*
X0061032Y0028982D01*
X0061045Y0029037D01*
X0061055Y0029094D01*
X0061060Y0029151D01*
X0061062Y0029208D01*
X0061060Y0029267D01*
X0061055Y0029325D01*
X0061046Y0029383D01*
X0061033Y0029440D01*
X0061017Y0029496D01*
X0060997Y0029551D01*
X0060974Y0029605D01*
X0060948Y0029657D01*
X0060918Y0029708D01*
X0060885Y0029756D01*
X0060850Y0029803D01*
X0060811Y0029847D01*
X0060770Y0029889D01*
X0036050Y0038996D02*
X0036050Y0039968D01*
X0036048Y0040029D01*
X0036042Y0040090D01*
X0036033Y0040150D01*
X0036019Y0040210D01*
X0036002Y0040268D01*
X0035982Y0040326D01*
X0035957Y0040382D01*
X0035930Y0040436D01*
X0035899Y0040489D01*
X0035864Y0040539D01*
X0035827Y0040588D01*
X0035787Y0040633D01*
X0035743Y0040677D01*
X0035698Y0040717D01*
X0035649Y0040754D01*
X0035599Y0040789D01*
X0035546Y0040820D01*
X0035492Y0040847D01*
X0035436Y0040872D01*
X0035378Y0040892D01*
X0035320Y0040909D01*
X0035260Y0040923D01*
X0035200Y0040932D01*
X0035139Y0040938D01*
X0035078Y0040940D01*
X0033522Y0040940D01*
X0033461Y0040938D01*
X0033400Y0040932D01*
X0033340Y0040923D01*
X0033280Y0040909D01*
X0033222Y0040892D01*
X0033164Y0040872D01*
X0033108Y0040847D01*
X0033054Y0040820D01*
X0033001Y0040789D01*
X0032951Y0040754D01*
X0032902Y0040717D01*
X0032857Y0040677D01*
X0032813Y0040633D01*
X0032773Y0040588D01*
X0032736Y0040539D01*
X0032701Y0040489D01*
X0032670Y0040436D01*
X0032643Y0040382D01*
X0032618Y0040326D01*
X0032598Y0040268D01*
X0032581Y0040210D01*
X0032567Y0040150D01*
X0032558Y0040090D01*
X0032552Y0040029D01*
X0032550Y0039968D01*
X0032550Y0038996D01*
X0036050Y0038996D01*
X0030350Y0036791D02*
X0030350Y0036013D01*
X0030350Y0036402D02*
X0026850Y0036402D01*
X0026850Y0036013D02*
X0026850Y0036791D01*
X0027822Y0038166D02*
X0029378Y0038166D01*
X0029439Y0038168D01*
X0029500Y0038174D01*
X0029560Y0038183D01*
X0029620Y0038197D01*
X0029678Y0038214D01*
X0029736Y0038234D01*
X0029792Y0038259D01*
X0029846Y0038286D01*
X0029899Y0038317D01*
X0029949Y0038352D01*
X0029998Y0038389D01*
X0030043Y0038429D01*
X0030087Y0038473D01*
X0030127Y0038518D01*
X0030164Y0038567D01*
X0030199Y0038617D01*
X0030230Y0038670D01*
X0030257Y0038724D01*
X0030282Y0038780D01*
X0030302Y0038838D01*
X0030319Y0038896D01*
X0030333Y0038956D01*
X0030342Y0039016D01*
X0030348Y0039077D01*
X0030350Y0039138D01*
X0030348Y0039199D01*
X0030342Y0039260D01*
X0030333Y0039320D01*
X0030319Y0039380D01*
X0030302Y0039438D01*
X0030282Y0039496D01*
X0030257Y0039552D01*
X0030230Y0039606D01*
X0030199Y0039659D01*
X0030164Y0039709D01*
X0030127Y0039758D01*
X0030087Y0039803D01*
X0030043Y0039847D01*
X0029998Y0039887D01*
X0029949Y0039924D01*
X0029899Y0039959D01*
X0029846Y0039990D01*
X0029792Y0040017D01*
X0029736Y0040042D01*
X0029678Y0040062D01*
X0029620Y0040079D01*
X0029560Y0040093D01*
X0029500Y0040102D01*
X0029439Y0040108D01*
X0029378Y0040110D01*
X0029378Y0040111D02*
X0027822Y0040111D01*
X0027822Y0040110D02*
X0027761Y0040108D01*
X0027700Y0040102D01*
X0027640Y0040093D01*
X0027580Y0040079D01*
X0027522Y0040062D01*
X0027464Y0040042D01*
X0027408Y0040017D01*
X0027354Y0039990D01*
X0027301Y0039959D01*
X0027251Y0039924D01*
X0027202Y0039887D01*
X0027157Y0039847D01*
X0027113Y0039803D01*
X0027073Y0039758D01*
X0027036Y0039709D01*
X0027001Y0039659D01*
X0026970Y0039606D01*
X0026943Y0039552D01*
X0026918Y0039496D01*
X0026898Y0039438D01*
X0026881Y0039380D01*
X0026867Y0039320D01*
X0026858Y0039260D01*
X0026852Y0039199D01*
X0026850Y0039138D01*
X0026852Y0039077D01*
X0026858Y0039016D01*
X0026867Y0038956D01*
X0026881Y0038896D01*
X0026898Y0038838D01*
X0026918Y0038780D01*
X0026943Y0038724D01*
X0026970Y0038670D01*
X0027001Y0038617D01*
X0027036Y0038567D01*
X0027073Y0038518D01*
X0027113Y0038473D01*
X0027157Y0038429D01*
X0027202Y0038389D01*
X0027251Y0038352D01*
X0027301Y0038317D01*
X0027354Y0038286D01*
X0027408Y0038259D01*
X0027464Y0038234D01*
X0027522Y0038214D01*
X0027580Y0038197D01*
X0027640Y0038183D01*
X0027700Y0038174D01*
X0027761Y0038168D01*
X0027822Y0038166D01*
X0027628Y0041586D02*
X0027628Y0043530D01*
X0028406Y0042947D02*
X0026850Y0042947D01*
X0027628Y0041586D02*
X0030350Y0042364D01*
X0032550Y0042429D02*
X0032550Y0043207D01*
X0032550Y0042818D02*
X0036050Y0042818D01*
X0036050Y0042429D02*
X0036050Y0043207D01*
X0035272Y0044565D02*
X0035328Y0044567D01*
X0035383Y0044573D01*
X0035437Y0044583D01*
X0035491Y0044597D01*
X0035544Y0044614D01*
X0035595Y0044635D01*
X0035645Y0044660D01*
X0035693Y0044689D01*
X0035738Y0044720D01*
X0035781Y0044755D01*
X0035822Y0044793D01*
X0035860Y0044834D01*
X0035895Y0044877D01*
X0035926Y0044922D01*
X0035955Y0044970D01*
X0035980Y0045020D01*
X0036001Y0045071D01*
X0036018Y0045124D01*
X0036032Y0045178D01*
X0036042Y0045232D01*
X0036048Y0045287D01*
X0036050Y0045343D01*
X0035272Y0044565D02*
X0035217Y0044567D01*
X0035163Y0044573D01*
X0035109Y0044582D01*
X0035056Y0044595D01*
X0035004Y0044612D01*
X0034953Y0044632D01*
X0034904Y0044656D01*
X0034857Y0044683D01*
X0034811Y0044713D01*
X0034768Y0044747D01*
X0034727Y0044783D01*
X0034689Y0044822D01*
X0034653Y0044864D01*
X0034621Y0044908D01*
X0034591Y0044954D01*
X0034592Y0044954D02*
X0034008Y0046023D01*
X0032550Y0045635D02*
X0032552Y0045559D01*
X0032557Y0045483D01*
X0032566Y0045407D01*
X0032578Y0045332D01*
X0032594Y0045257D01*
X0032613Y0045183D01*
X0032636Y0045110D01*
X0032662Y0045038D01*
X0032691Y0044968D01*
X0032724Y0044899D01*
X0032760Y0044832D01*
X0032799Y0044766D01*
X0032841Y0044702D01*
X0032885Y0044640D01*
X0032933Y0044581D01*
X0032983Y0044523D01*
X0033036Y0044468D01*
X0036050Y0045343D02*
X0036048Y0045415D01*
X0036043Y0045487D01*
X0036034Y0045559D01*
X0036022Y0045630D01*
X0036006Y0045700D01*
X0035986Y0045770D01*
X0035963Y0045838D01*
X0035937Y0045905D01*
X0035908Y0045971D01*
X0035875Y0046036D01*
X0035839Y0046098D01*
X0035800Y0046159D01*
X0035758Y0046218D01*
X0038250Y0046609D02*
X0038250Y0047387D01*
X0038250Y0046609D02*
X0038252Y0046553D01*
X0038258Y0046498D01*
X0038268Y0046444D01*
X0038282Y0046390D01*
X0038299Y0046337D01*
X0038320Y0046286D01*
X0038345Y0046236D01*
X0038374Y0046188D01*
X0038405Y0046143D01*
X0038440Y0046100D01*
X0038478Y0046059D01*
X0038519Y0046021D01*
X0038562Y0045986D01*
X0038607Y0045955D01*
X0038655Y0045926D01*
X0038705Y0045901D01*
X0038756Y0045880D01*
X0038809Y0045863D01*
X0038863Y0045849D01*
X0038917Y0045839D01*
X0038972Y0045833D01*
X0039028Y0045831D01*
X0040972Y0045831D01*
X0041028Y0045833D01*
X0041083Y0045839D01*
X0041137Y0045849D01*
X0041191Y0045863D01*
X0041244Y0045880D01*
X0041295Y0045901D01*
X0041345Y0045926D01*
X0041393Y0045955D01*
X0041438Y0045986D01*
X0041481Y0046021D01*
X0041522Y0046059D01*
X0041560Y0046100D01*
X0041595Y0046143D01*
X0041626Y0046188D01*
X0041655Y0046236D01*
X0041680Y0046286D01*
X0041701Y0046337D01*
X0041718Y0046390D01*
X0041732Y0046444D01*
X0041742Y0046498D01*
X0041748Y0046553D01*
X0041750Y0046609D01*
X0041750Y0047387D01*
X0041750Y0048805D02*
X0039222Y0048805D01*
X0039161Y0048807D01*
X0039100Y0048813D01*
X0039040Y0048822D01*
X0038980Y0048836D01*
X0038922Y0048853D01*
X0038864Y0048873D01*
X0038808Y0048898D01*
X0038754Y0048925D01*
X0038701Y0048956D01*
X0038651Y0048991D01*
X0038602Y0049028D01*
X0038557Y0049068D01*
X0038513Y0049112D01*
X0038473Y0049157D01*
X0038436Y0049206D01*
X0038401Y0049256D01*
X0038370Y0049309D01*
X0038343Y0049363D01*
X0038318Y0049419D01*
X0038298Y0049477D01*
X0038281Y0049535D01*
X0038267Y0049595D01*
X0038258Y0049655D01*
X0038252Y0049716D01*
X0038250Y0049777D01*
X0038252Y0049838D01*
X0038258Y0049899D01*
X0038267Y0049959D01*
X0038281Y0050019D01*
X0038298Y0050077D01*
X0038318Y0050135D01*
X0038343Y0050191D01*
X0038370Y0050245D01*
X0038401Y0050298D01*
X0038436Y0050348D01*
X0038473Y0050397D01*
X0038513Y0050442D01*
X0038557Y0050486D01*
X0038602Y0050526D01*
X0038651Y0050563D01*
X0038701Y0050598D01*
X0038754Y0050629D01*
X0038808Y0050656D01*
X0038864Y0050681D01*
X0038922Y0050701D01*
X0038980Y0050718D01*
X0039040Y0050732D01*
X0039100Y0050741D01*
X0039161Y0050747D01*
X0039222Y0050749D01*
X0041750Y0050749D01*
X0041750Y0052111D02*
X0041750Y0054055D01*
X0041750Y0053083D02*
X0038250Y0053083D01*
X0036050Y0054158D02*
X0032550Y0056102D01*
X0036050Y0056102D01*
X0036050Y0057806D02*
X0032550Y0057806D01*
X0030350Y0056896D02*
X0028406Y0058062D01*
X0030350Y0059229D01*
X0026850Y0059229D01*
X0026850Y0056896D02*
X0030350Y0056896D01*
X0029378Y0055272D02*
X0027822Y0055272D01*
X0027761Y0055270D01*
X0027700Y0055264D01*
X0027640Y0055255D01*
X0027580Y0055241D01*
X0027522Y0055224D01*
X0027464Y0055204D01*
X0027408Y0055179D01*
X0027354Y0055152D01*
X0027301Y0055121D01*
X0027251Y0055086D01*
X0027202Y0055049D01*
X0027157Y0055009D01*
X0027113Y0054965D01*
X0027073Y0054920D01*
X0027036Y0054871D01*
X0027001Y0054821D01*
X0026970Y0054768D01*
X0026943Y0054714D01*
X0026918Y0054658D01*
X0026898Y0054600D01*
X0026881Y0054542D01*
X0026867Y0054482D01*
X0026858Y0054422D01*
X0026852Y0054361D01*
X0026850Y0054300D01*
X0026852Y0054239D01*
X0026858Y0054178D01*
X0026867Y0054118D01*
X0026881Y0054058D01*
X0026898Y0054000D01*
X0026918Y0053942D01*
X0026943Y0053886D01*
X0026970Y0053832D01*
X0027001Y0053779D01*
X0027036Y0053729D01*
X0027073Y0053680D01*
X0027113Y0053635D01*
X0027157Y0053591D01*
X0027202Y0053551D01*
X0027251Y0053514D01*
X0027301Y0053479D01*
X0027354Y0053448D01*
X0027408Y0053421D01*
X0027464Y0053396D01*
X0027522Y0053376D01*
X0027580Y0053359D01*
X0027640Y0053345D01*
X0027700Y0053336D01*
X0027761Y0053330D01*
X0027822Y0053328D01*
X0029378Y0053328D01*
X0029439Y0053330D01*
X0029500Y0053336D01*
X0029560Y0053345D01*
X0029620Y0053359D01*
X0029678Y0053376D01*
X0029736Y0053396D01*
X0029792Y0053421D01*
X0029846Y0053448D01*
X0029899Y0053479D01*
X0029949Y0053514D01*
X0029998Y0053551D01*
X0030043Y0053591D01*
X0030087Y0053635D01*
X0030127Y0053680D01*
X0030164Y0053729D01*
X0030199Y0053779D01*
X0030230Y0053832D01*
X0030257Y0053886D01*
X0030282Y0053942D01*
X0030302Y0054000D01*
X0030319Y0054058D01*
X0030333Y0054118D01*
X0030342Y0054178D01*
X0030348Y0054239D01*
X0030350Y0054300D01*
X0030348Y0054361D01*
X0030342Y0054422D01*
X0030333Y0054482D01*
X0030319Y0054542D01*
X0030302Y0054600D01*
X0030282Y0054658D01*
X0030257Y0054714D01*
X0030230Y0054768D01*
X0030199Y0054821D01*
X0030164Y0054871D01*
X0030127Y0054920D01*
X0030087Y0054965D01*
X0030043Y0055009D01*
X0029998Y0055049D01*
X0029949Y0055086D01*
X0029899Y0055121D01*
X0029846Y0055152D01*
X0029792Y0055179D01*
X0029736Y0055204D01*
X0029678Y0055224D01*
X0029620Y0055241D01*
X0029560Y0055255D01*
X0029500Y0055264D01*
X0029439Y0055270D01*
X0029378Y0055272D01*
X0032550Y0054158D02*
X0036050Y0054158D01*
X0035078Y0052568D02*
X0033522Y0052568D01*
X0033461Y0052566D01*
X0033400Y0052560D01*
X0033340Y0052551D01*
X0033280Y0052537D01*
X0033222Y0052520D01*
X0033164Y0052500D01*
X0033108Y0052475D01*
X0033054Y0052448D01*
X0033001Y0052417D01*
X0032951Y0052382D01*
X0032902Y0052345D01*
X0032857Y0052305D01*
X0032813Y0052261D01*
X0032773Y0052216D01*
X0032736Y0052167D01*
X0032701Y0052117D01*
X0032670Y0052064D01*
X0032643Y0052010D01*
X0032618Y0051954D01*
X0032598Y0051896D01*
X0032581Y0051838D01*
X0032567Y0051778D01*
X0032558Y0051718D01*
X0032552Y0051657D01*
X0032550Y0051596D01*
X0032552Y0051535D01*
X0032558Y0051474D01*
X0032567Y0051414D01*
X0032581Y0051354D01*
X0032598Y0051296D01*
X0032618Y0051238D01*
X0032643Y0051182D01*
X0032670Y0051128D01*
X0032701Y0051075D01*
X0032736Y0051025D01*
X0032773Y0050976D01*
X0032813Y0050931D01*
X0032857Y0050887D01*
X0032902Y0050847D01*
X0032951Y0050810D01*
X0033001Y0050775D01*
X0033054Y0050744D01*
X0033108Y0050717D01*
X0033164Y0050692D01*
X0033222Y0050672D01*
X0033280Y0050655D01*
X0033340Y0050641D01*
X0033400Y0050632D01*
X0033461Y0050626D01*
X0033522Y0050624D01*
X0035078Y0050624D01*
X0035139Y0050626D01*
X0035200Y0050632D01*
X0035260Y0050641D01*
X0035320Y0050655D01*
X0035378Y0050672D01*
X0035436Y0050692D01*
X0035492Y0050717D01*
X0035546Y0050744D01*
X0035599Y0050775D01*
X0035649Y0050810D01*
X0035698Y0050847D01*
X0035743Y0050887D01*
X0035787Y0050931D01*
X0035827Y0050976D01*
X0035864Y0051025D01*
X0035899Y0051075D01*
X0035930Y0051128D01*
X0035957Y0051182D01*
X0035982Y0051238D01*
X0036002Y0051296D01*
X0036019Y0051354D01*
X0036033Y0051414D01*
X0036042Y0051474D01*
X0036048Y0051535D01*
X0036050Y0051596D01*
X0036048Y0051657D01*
X0036042Y0051718D01*
X0036033Y0051778D01*
X0036019Y0051838D01*
X0036002Y0051896D01*
X0035982Y0051954D01*
X0035957Y0052010D01*
X0035930Y0052064D01*
X0035899Y0052117D01*
X0035864Y0052167D01*
X0035827Y0052216D01*
X0035787Y0052261D01*
X0035743Y0052305D01*
X0035698Y0052345D01*
X0035649Y0052382D01*
X0035599Y0052417D01*
X0035546Y0052448D01*
X0035492Y0052475D01*
X0035436Y0052500D01*
X0035378Y0052520D01*
X0035320Y0052537D01*
X0035260Y0052551D01*
X0035200Y0052560D01*
X0035139Y0052566D01*
X0035078Y0052568D01*
X0030350Y0050902D02*
X0030350Y0049930D01*
X0026850Y0049930D01*
X0028406Y0049930D02*
X0028406Y0050902D01*
X0028406Y0051097D02*
X0026850Y0051874D01*
X0028406Y0050902D02*
X0028408Y0050963D01*
X0028414Y0051024D01*
X0028423Y0051084D01*
X0028437Y0051144D01*
X0028454Y0051202D01*
X0028474Y0051260D01*
X0028499Y0051316D01*
X0028526Y0051370D01*
X0028557Y0051423D01*
X0028592Y0051473D01*
X0028629Y0051522D01*
X0028669Y0051567D01*
X0028713Y0051611D01*
X0028758Y0051651D01*
X0028807Y0051688D01*
X0028857Y0051723D01*
X0028910Y0051754D01*
X0028964Y0051781D01*
X0029020Y0051806D01*
X0029078Y0051826D01*
X0029136Y0051843D01*
X0029196Y0051857D01*
X0029256Y0051866D01*
X0029317Y0051872D01*
X0029378Y0051874D01*
X0029439Y0051872D01*
X0029500Y0051866D01*
X0029560Y0051857D01*
X0029620Y0051843D01*
X0029678Y0051826D01*
X0029736Y0051806D01*
X0029792Y0051781D01*
X0029846Y0051754D01*
X0029899Y0051723D01*
X0029949Y0051688D01*
X0029998Y0051651D01*
X0030043Y0051611D01*
X0030087Y0051567D01*
X0030127Y0051522D01*
X0030164Y0051473D01*
X0030199Y0051423D01*
X0030230Y0051370D01*
X0030257Y0051316D01*
X0030282Y0051260D01*
X0030302Y0051202D01*
X0030319Y0051144D01*
X0030333Y0051084D01*
X0030342Y0051024D01*
X0030348Y0050963D01*
X0030350Y0050902D01*
X0032550Y0049320D02*
X0032550Y0048542D01*
X0032552Y0048486D01*
X0032558Y0048431D01*
X0032568Y0048377D01*
X0032582Y0048323D01*
X0032599Y0048270D01*
X0032620Y0048219D01*
X0032645Y0048169D01*
X0032674Y0048121D01*
X0032705Y0048076D01*
X0032740Y0048033D01*
X0032778Y0047992D01*
X0032819Y0047954D01*
X0032862Y0047919D01*
X0032907Y0047888D01*
X0032955Y0047859D01*
X0033005Y0047834D01*
X0033056Y0047813D01*
X0033109Y0047796D01*
X0033163Y0047782D01*
X0033217Y0047772D01*
X0033272Y0047766D01*
X0033328Y0047764D01*
X0035272Y0047764D01*
X0035328Y0047766D01*
X0035383Y0047772D01*
X0035437Y0047782D01*
X0035491Y0047796D01*
X0035544Y0047813D01*
X0035595Y0047834D01*
X0035645Y0047859D01*
X0035693Y0047888D01*
X0035738Y0047919D01*
X0035781Y0047954D01*
X0035822Y0047992D01*
X0035860Y0048033D01*
X0035895Y0048076D01*
X0035926Y0048121D01*
X0035955Y0048169D01*
X0035980Y0048219D01*
X0036001Y0048270D01*
X0036018Y0048323D01*
X0036032Y0048377D01*
X0036042Y0048431D01*
X0036048Y0048486D01*
X0036050Y0048542D01*
X0036050Y0049320D01*
X0030350Y0048506D02*
X0030350Y0046951D01*
X0026850Y0046951D01*
X0028794Y0046951D02*
X0028794Y0048506D01*
X0032550Y0045635D02*
X0032552Y0045691D01*
X0032558Y0045746D01*
X0032568Y0045800D01*
X0032582Y0045854D01*
X0032599Y0045907D01*
X0032620Y0045958D01*
X0032645Y0046008D01*
X0032674Y0046056D01*
X0032705Y0046101D01*
X0032740Y0046144D01*
X0032778Y0046185D01*
X0032819Y0046223D01*
X0032862Y0046258D01*
X0032907Y0046289D01*
X0032955Y0046318D01*
X0033005Y0046343D01*
X0033056Y0046364D01*
X0033109Y0046381D01*
X0033163Y0046395D01*
X0033217Y0046405D01*
X0033272Y0046411D01*
X0033328Y0046413D01*
X0033328Y0046412D02*
X0033383Y0046410D01*
X0033437Y0046404D01*
X0033491Y0046395D01*
X0033544Y0046382D01*
X0033596Y0046365D01*
X0033647Y0046345D01*
X0033696Y0046321D01*
X0033743Y0046294D01*
X0033789Y0046264D01*
X0033832Y0046230D01*
X0033873Y0046194D01*
X0033911Y0046155D01*
X0033947Y0046113D01*
X0033979Y0046069D01*
X0034009Y0046023D01*
X0041750Y0056899D02*
X0041750Y0058843D01*
X0041750Y0057871D02*
X0038250Y0057871D01*
X0036050Y0057806D02*
X0032550Y0059750D01*
X0036050Y0059750D01*
X0036050Y0061461D02*
X0032550Y0061461D01*
X0032550Y0063016D01*
X0034494Y0062627D02*
X0034494Y0061461D01*
X0036050Y0061461D02*
X0036050Y0063016D01*
X0035272Y0064294D02*
X0033328Y0064294D01*
X0033272Y0064296D01*
X0033217Y0064302D01*
X0033163Y0064312D01*
X0033109Y0064326D01*
X0033056Y0064343D01*
X0033005Y0064364D01*
X0032955Y0064389D01*
X0032907Y0064418D01*
X0032862Y0064449D01*
X0032819Y0064484D01*
X0032778Y0064522D01*
X0032740Y0064563D01*
X0032705Y0064606D01*
X0032674Y0064651D01*
X0032645Y0064699D01*
X0032620Y0064749D01*
X0032599Y0064800D01*
X0032582Y0064853D01*
X0032568Y0064907D01*
X0032558Y0064961D01*
X0032552Y0065016D01*
X0032550Y0065072D01*
X0032550Y0065849D01*
X0030350Y0065157D02*
X0026850Y0065157D01*
X0026850Y0066901D02*
X0030350Y0066901D01*
X0030350Y0068456D01*
X0028794Y0068456D02*
X0028794Y0066901D01*
X0030350Y0065157D02*
X0028406Y0063990D01*
X0030350Y0062824D01*
X0026850Y0062824D01*
X0035272Y0064294D02*
X0035328Y0064296D01*
X0035383Y0064302D01*
X0035437Y0064312D01*
X0035491Y0064326D01*
X0035544Y0064343D01*
X0035595Y0064364D01*
X0035645Y0064389D01*
X0035693Y0064418D01*
X0035738Y0064449D01*
X0035781Y0064484D01*
X0035822Y0064522D01*
X0035860Y0064563D01*
X0035895Y0064606D01*
X0035926Y0064651D01*
X0035955Y0064699D01*
X0035980Y0064749D01*
X0036001Y0064800D01*
X0036018Y0064853D01*
X0036032Y0064907D01*
X0036042Y0064961D01*
X0036048Y0065016D01*
X0036050Y0065072D01*
X0036050Y0065849D01*
X0036050Y0066926D02*
X0036050Y0068870D01*
X0036050Y0067898D02*
X0032550Y0067898D01*
X0030350Y0069908D02*
X0030350Y0070880D01*
X0030350Y0069908D02*
X0026850Y0069908D01*
X0028406Y0069908D02*
X0028406Y0070880D01*
X0028408Y0070941D01*
X0028414Y0071002D01*
X0028423Y0071062D01*
X0028437Y0071122D01*
X0028454Y0071180D01*
X0028474Y0071238D01*
X0028499Y0071294D01*
X0028526Y0071348D01*
X0028557Y0071401D01*
X0028592Y0071451D01*
X0028629Y0071500D01*
X0028669Y0071545D01*
X0028713Y0071589D01*
X0028758Y0071629D01*
X0028807Y0071666D01*
X0028857Y0071701D01*
X0028910Y0071732D01*
X0028964Y0071759D01*
X0029020Y0071784D01*
X0029078Y0071804D01*
X0029136Y0071821D01*
X0029196Y0071835D01*
X0029256Y0071844D01*
X0029317Y0071850D01*
X0029378Y0071852D01*
X0029439Y0071850D01*
X0029500Y0071844D01*
X0029560Y0071835D01*
X0029620Y0071821D01*
X0029678Y0071804D01*
X0029736Y0071784D01*
X0029792Y0071759D01*
X0029846Y0071732D01*
X0029899Y0071701D01*
X0029949Y0071666D01*
X0029998Y0071629D01*
X0030043Y0071589D01*
X0030087Y0071545D01*
X0030127Y0071500D01*
X0030164Y0071451D01*
X0030199Y0071401D01*
X0030230Y0071348D01*
X0030257Y0071294D01*
X0030282Y0071238D01*
X0030302Y0071180D01*
X0030319Y0071122D01*
X0030333Y0071062D01*
X0030342Y0071002D01*
X0030348Y0070941D01*
X0030350Y0070880D01*
X0029972Y0076333D02*
X0028872Y0079633D01*
X0031072Y0079633D02*
X0029972Y0076333D01*
X0032295Y0077066D02*
X0032295Y0077433D01*
X0032297Y0077485D01*
X0032302Y0077537D01*
X0032312Y0077589D01*
X0032325Y0077640D01*
X0032341Y0077689D01*
X0032361Y0077738D01*
X0032385Y0077784D01*
X0032411Y0077829D01*
X0032441Y0077872D01*
X0032474Y0077913D01*
X0032510Y0077951D01*
X0032548Y0077987D01*
X0032589Y0078020D01*
X0032632Y0078050D01*
X0032677Y0078076D01*
X0032724Y0078100D01*
X0032772Y0078120D01*
X0032821Y0078136D01*
X0032872Y0078149D01*
X0032924Y0078159D01*
X0032976Y0078164D01*
X0033028Y0078166D01*
X0034128Y0078166D01*
X0034128Y0079633D01*
X0032295Y0079633D01*
X0032295Y0077066D02*
X0032297Y0077014D01*
X0032302Y0076962D01*
X0032312Y0076910D01*
X0032325Y0076859D01*
X0032341Y0076810D01*
X0032361Y0076762D01*
X0032385Y0076715D01*
X0032411Y0076670D01*
X0032441Y0076627D01*
X0032474Y0076586D01*
X0032510Y0076548D01*
X0032548Y0076512D01*
X0032589Y0076479D01*
X0032632Y0076449D01*
X0032677Y0076423D01*
X0032724Y0076399D01*
X0032772Y0076379D01*
X0032821Y0076363D01*
X0032872Y0076350D01*
X0032924Y0076340D01*
X0032976Y0076335D01*
X0033028Y0076333D01*
X0034128Y0076333D01*
X0038360Y0076333D02*
X0039277Y0076333D01*
X0038360Y0076333D02*
X0038301Y0076335D01*
X0038243Y0076341D01*
X0038185Y0076350D01*
X0038127Y0076363D01*
X0038071Y0076380D01*
X0038016Y0076400D01*
X0037962Y0076424D01*
X0037910Y0076451D01*
X0037860Y0076481D01*
X0037812Y0076515D01*
X0037766Y0076552D01*
X0037722Y0076591D01*
X0037681Y0076634D01*
X0037643Y0076678D01*
X0037608Y0076725D01*
X0037576Y0076775D01*
X0037547Y0076826D01*
X0037521Y0076879D01*
X0037499Y0076933D01*
X0037481Y0076989D01*
X0037466Y0077046D01*
X0037455Y0077104D01*
X0037447Y0077162D01*
X0037443Y0077221D01*
X0037443Y0077279D01*
X0037447Y0077338D01*
X0037455Y0077396D01*
X0037466Y0077454D01*
X0037481Y0077511D01*
X0037499Y0077567D01*
X0037521Y0077621D01*
X0037547Y0077674D01*
X0037576Y0077725D01*
X0037608Y0077775D01*
X0037643Y0077822D01*
X0037681Y0077866D01*
X0037722Y0077909D01*
X0037766Y0077948D01*
X0037812Y0077985D01*
X0037860Y0078019D01*
X0037910Y0078049D01*
X0037962Y0078076D01*
X0038016Y0078100D01*
X0038071Y0078120D01*
X0038127Y0078137D01*
X0038185Y0078150D01*
X0038243Y0078159D01*
X0038301Y0078165D01*
X0038360Y0078167D01*
X0038177Y0078166D02*
X0038910Y0078166D01*
X0038177Y0078167D02*
X0038125Y0078169D01*
X0038073Y0078174D01*
X0038021Y0078184D01*
X0037970Y0078197D01*
X0037921Y0078213D01*
X0037873Y0078233D01*
X0037826Y0078257D01*
X0037781Y0078283D01*
X0037738Y0078313D01*
X0037697Y0078346D01*
X0037659Y0078382D01*
X0037623Y0078420D01*
X0037590Y0078461D01*
X0037560Y0078504D01*
X0037534Y0078549D01*
X0037510Y0078596D01*
X0037490Y0078644D01*
X0037474Y0078693D01*
X0037461Y0078744D01*
X0037451Y0078796D01*
X0037446Y0078848D01*
X0037444Y0078900D01*
X0037446Y0078952D01*
X0037451Y0079004D01*
X0037461Y0079056D01*
X0037474Y0079107D01*
X0037490Y0079156D01*
X0037510Y0079204D01*
X0037534Y0079251D01*
X0037560Y0079296D01*
X0037590Y0079339D01*
X0037623Y0079380D01*
X0037659Y0079418D01*
X0037697Y0079454D01*
X0037738Y0079487D01*
X0037781Y0079517D01*
X0037826Y0079543D01*
X0037873Y0079567D01*
X0037921Y0079587D01*
X0037970Y0079603D01*
X0038021Y0079616D01*
X0038073Y0079626D01*
X0038125Y0079631D01*
X0038177Y0079633D01*
X0039277Y0079633D01*
X0040500Y0079633D02*
X0041600Y0076333D01*
X0042700Y0079633D01*
X0044657Y0079633D02*
X0045757Y0079633D01*
X0044657Y0079633D02*
X0044605Y0079631D01*
X0044553Y0079626D01*
X0044501Y0079616D01*
X0044450Y0079603D01*
X0044401Y0079587D01*
X0044353Y0079567D01*
X0044306Y0079543D01*
X0044261Y0079517D01*
X0044218Y0079487D01*
X0044177Y0079454D01*
X0044139Y0079418D01*
X0044103Y0079380D01*
X0044070Y0079339D01*
X0044040Y0079296D01*
X0044014Y0079251D01*
X0043990Y0079204D01*
X0043970Y0079156D01*
X0043954Y0079107D01*
X0043941Y0079056D01*
X0043931Y0079004D01*
X0043926Y0078952D01*
X0043924Y0078900D01*
X0043926Y0078848D01*
X0043931Y0078796D01*
X0043941Y0078744D01*
X0043954Y0078693D01*
X0043970Y0078644D01*
X0043990Y0078596D01*
X0044014Y0078549D01*
X0044040Y0078504D01*
X0044070Y0078461D01*
X0044103Y0078420D01*
X0044139Y0078382D01*
X0044177Y0078346D01*
X0044218Y0078313D01*
X0044261Y0078283D01*
X0044306Y0078257D01*
X0044353Y0078233D01*
X0044401Y0078213D01*
X0044450Y0078197D01*
X0044501Y0078184D01*
X0044553Y0078174D01*
X0044605Y0078169D01*
X0044657Y0078167D01*
X0044657Y0078166D02*
X0045390Y0078166D01*
X0044840Y0078167D02*
X0044781Y0078165D01*
X0044723Y0078159D01*
X0044665Y0078150D01*
X0044607Y0078137D01*
X0044551Y0078120D01*
X0044496Y0078100D01*
X0044442Y0078076D01*
X0044390Y0078049D01*
X0044340Y0078019D01*
X0044292Y0077985D01*
X0044246Y0077948D01*
X0044202Y0077909D01*
X0044161Y0077866D01*
X0044123Y0077822D01*
X0044088Y0077775D01*
X0044056Y0077725D01*
X0044027Y0077674D01*
X0044001Y0077621D01*
X0043979Y0077567D01*
X0043961Y0077511D01*
X0043946Y0077454D01*
X0043935Y0077396D01*
X0043927Y0077338D01*
X0043923Y0077279D01*
X0043923Y0077221D01*
X0043927Y0077162D01*
X0043935Y0077104D01*
X0043946Y0077046D01*
X0043961Y0076989D01*
X0043979Y0076933D01*
X0044001Y0076879D01*
X0044027Y0076826D01*
X0044056Y0076775D01*
X0044088Y0076725D01*
X0044123Y0076678D01*
X0044161Y0076634D01*
X0044202Y0076591D01*
X0044246Y0076552D01*
X0044292Y0076515D01*
X0044340Y0076481D01*
X0044390Y0076451D01*
X0044442Y0076424D01*
X0044496Y0076400D01*
X0044551Y0076380D01*
X0044607Y0076363D01*
X0044665Y0076350D01*
X0044723Y0076341D01*
X0044781Y0076335D01*
X0044840Y0076333D01*
X0045757Y0076333D01*
X0048358Y0073783D02*
X0049330Y0073783D01*
X0049330Y0070283D01*
X0049330Y0071839D02*
X0048358Y0071839D01*
X0048297Y0071841D01*
X0048236Y0071847D01*
X0048176Y0071856D01*
X0048116Y0071870D01*
X0048058Y0071887D01*
X0048000Y0071907D01*
X0047944Y0071932D01*
X0047890Y0071959D01*
X0047837Y0071990D01*
X0047787Y0072025D01*
X0047738Y0072062D01*
X0047693Y0072102D01*
X0047649Y0072146D01*
X0047609Y0072191D01*
X0047572Y0072240D01*
X0047537Y0072290D01*
X0047506Y0072343D01*
X0047479Y0072397D01*
X0047454Y0072453D01*
X0047434Y0072511D01*
X0047417Y0072569D01*
X0047403Y0072629D01*
X0047394Y0072689D01*
X0047388Y0072750D01*
X0047386Y0072811D01*
X0047388Y0072872D01*
X0047394Y0072933D01*
X0047403Y0072993D01*
X0047417Y0073053D01*
X0047434Y0073111D01*
X0047454Y0073169D01*
X0047479Y0073225D01*
X0047506Y0073279D01*
X0047537Y0073332D01*
X0047572Y0073382D01*
X0047609Y0073431D01*
X0047649Y0073476D01*
X0047693Y0073520D01*
X0047738Y0073560D01*
X0047787Y0073597D01*
X0047837Y0073632D01*
X0047890Y0073663D01*
X0047944Y0073690D01*
X0048000Y0073715D01*
X0048058Y0073735D01*
X0048116Y0073752D01*
X0048176Y0073766D01*
X0048236Y0073775D01*
X0048297Y0073781D01*
X0048358Y0073783D01*
X0050782Y0073783D02*
X0052337Y0073783D01*
X0052337Y0070283D01*
X0054081Y0070283D02*
X0054081Y0073783D01*
X0055248Y0071839D01*
X0056415Y0073783D01*
X0056415Y0070283D01*
X0052337Y0072228D02*
X0050782Y0072228D01*
X0051511Y0075983D02*
X0051511Y0077539D01*
X0050928Y0076761D02*
X0052872Y0076761D01*
X0052094Y0079483D01*
X0059118Y0076811D02*
X0061062Y0076811D01*
X0060284Y0079533D01*
X0059701Y0077589D02*
X0059701Y0076033D01*
X0062538Y0076033D02*
X0064482Y0076033D01*
X0063510Y0076033D02*
X0063510Y0079533D01*
X0064482Y0078755D01*
X0040778Y0062035D02*
X0039222Y0062035D01*
X0039161Y0062033D01*
X0039100Y0062027D01*
X0039040Y0062018D01*
X0038980Y0062004D01*
X0038922Y0061987D01*
X0038864Y0061967D01*
X0038808Y0061942D01*
X0038754Y0061915D01*
X0038701Y0061884D01*
X0038651Y0061849D01*
X0038602Y0061812D01*
X0038557Y0061772D01*
X0038513Y0061728D01*
X0038473Y0061683D01*
X0038436Y0061634D01*
X0038401Y0061584D01*
X0038370Y0061531D01*
X0038343Y0061477D01*
X0038318Y0061421D01*
X0038298Y0061363D01*
X0038281Y0061305D01*
X0038267Y0061245D01*
X0038258Y0061185D01*
X0038252Y0061124D01*
X0038250Y0061063D01*
X0038252Y0061002D01*
X0038258Y0060941D01*
X0038267Y0060881D01*
X0038281Y0060821D01*
X0038298Y0060763D01*
X0038318Y0060705D01*
X0038343Y0060649D01*
X0038370Y0060595D01*
X0038401Y0060542D01*
X0038436Y0060492D01*
X0038473Y0060443D01*
X0038513Y0060398D01*
X0038557Y0060354D01*
X0038602Y0060314D01*
X0038651Y0060277D01*
X0038701Y0060242D01*
X0038754Y0060211D01*
X0038808Y0060184D01*
X0038864Y0060159D01*
X0038922Y0060139D01*
X0038980Y0060122D01*
X0039040Y0060108D01*
X0039100Y0060099D01*
X0039161Y0060093D01*
X0039222Y0060091D01*
X0040778Y0060091D01*
X0040839Y0060093D01*
X0040900Y0060099D01*
X0040960Y0060108D01*
X0041020Y0060122D01*
X0041078Y0060139D01*
X0041136Y0060159D01*
X0041192Y0060184D01*
X0041246Y0060211D01*
X0041299Y0060242D01*
X0041349Y0060277D01*
X0041398Y0060314D01*
X0041443Y0060354D01*
X0041487Y0060398D01*
X0041527Y0060443D01*
X0041564Y0060492D01*
X0041599Y0060542D01*
X0041630Y0060595D01*
X0041657Y0060649D01*
X0041682Y0060705D01*
X0041702Y0060763D01*
X0041719Y0060821D01*
X0041733Y0060881D01*
X0041742Y0060941D01*
X0041748Y0061002D01*
X0041750Y0061063D01*
X0041748Y0061124D01*
X0041742Y0061185D01*
X0041733Y0061245D01*
X0041719Y0061305D01*
X0041702Y0061363D01*
X0041682Y0061421D01*
X0041657Y0061477D01*
X0041630Y0061531D01*
X0041599Y0061584D01*
X0041564Y0061634D01*
X0041527Y0061683D01*
X0041487Y0061728D01*
X0041443Y0061772D01*
X0041398Y0061812D01*
X0041349Y0061849D01*
X0041299Y0061884D01*
X0041246Y0061915D01*
X0041192Y0061942D01*
X0041136Y0061967D01*
X0041078Y0061987D01*
X0041020Y0062004D01*
X0040960Y0062018D01*
X0040900Y0062027D01*
X0040839Y0062033D01*
X0040778Y0062035D01*
X0025539Y0076433D02*
X0024439Y0076433D01*
X0024439Y0078266D01*
X0024989Y0078266D01*
X0026272Y0079000D02*
X0026270Y0079052D01*
X0026265Y0079104D01*
X0026255Y0079156D01*
X0026242Y0079207D01*
X0026226Y0079256D01*
X0026206Y0079304D01*
X0026182Y0079351D01*
X0026156Y0079396D01*
X0026126Y0079439D01*
X0026093Y0079480D01*
X0026057Y0079518D01*
X0026019Y0079554D01*
X0025978Y0079587D01*
X0025935Y0079617D01*
X0025890Y0079643D01*
X0025844Y0079667D01*
X0025795Y0079687D01*
X0025746Y0079703D01*
X0025695Y0079716D01*
X0025643Y0079726D01*
X0025591Y0079731D01*
X0025539Y0079733D01*
X0024439Y0079733D01*
X0022817Y0079733D02*
X0020983Y0076433D01*
X0020983Y0079733D01*
X0019361Y0079733D02*
X0018444Y0079733D01*
X0018384Y0079731D01*
X0018324Y0079725D01*
X0018265Y0079715D01*
X0018207Y0079702D01*
X0018149Y0079684D01*
X0018093Y0079663D01*
X0018038Y0079638D01*
X0017986Y0079610D01*
X0017935Y0079578D01*
X0017886Y0079544D01*
X0017839Y0079505D01*
X0017796Y0079464D01*
X0017755Y0079421D01*
X0017716Y0079374D01*
X0017682Y0079325D01*
X0017650Y0079275D01*
X0017622Y0079222D01*
X0017597Y0079167D01*
X0017576Y0079111D01*
X0017558Y0079053D01*
X0017545Y0078995D01*
X0017535Y0078936D01*
X0017529Y0078876D01*
X0017527Y0078816D01*
X0017527Y0077350D01*
X0017529Y0077292D01*
X0017534Y0077235D01*
X0017543Y0077178D01*
X0017556Y0077122D01*
X0017572Y0077067D01*
X0017591Y0077012D01*
X0017614Y0076960D01*
X0017640Y0076908D01*
X0017670Y0076859D01*
X0017702Y0076811D01*
X0017737Y0076765D01*
X0017776Y0076722D01*
X0017816Y0076682D01*
X0017859Y0076643D01*
X0017905Y0076608D01*
X0017953Y0076576D01*
X0018002Y0076546D01*
X0018054Y0076520D01*
X0018106Y0076497D01*
X0018161Y0076478D01*
X0018216Y0076462D01*
X0018272Y0076449D01*
X0018329Y0076440D01*
X0018386Y0076435D01*
X0018444Y0076433D01*
X0019361Y0076433D01*
X0019361Y0079733D01*
X0022817Y0079733D02*
X0022817Y0076433D01*
X0025539Y0076433D02*
X0025591Y0076435D01*
X0025643Y0076440D01*
X0025695Y0076450D01*
X0025746Y0076463D01*
X0025795Y0076479D01*
X0025844Y0076499D01*
X0025890Y0076523D01*
X0025935Y0076549D01*
X0025978Y0076579D01*
X0026019Y0076612D01*
X0026057Y0076648D01*
X0026093Y0076686D01*
X0026126Y0076727D01*
X0026156Y0076770D01*
X0026182Y0076815D01*
X0026206Y0076862D01*
X0026226Y0076910D01*
X0026242Y0076959D01*
X0026255Y0077010D01*
X0026265Y0077062D01*
X0026270Y0077114D01*
X0026272Y0077166D01*
X0026273Y0077166D02*
X0026273Y0079000D01*
X0015670Y0079733D02*
X0015670Y0076433D01*
X0014753Y0076433D01*
X0014694Y0076435D01*
X0014636Y0076441D01*
X0014578Y0076450D01*
X0014520Y0076463D01*
X0014464Y0076480D01*
X0014409Y0076500D01*
X0014355Y0076524D01*
X0014303Y0076551D01*
X0014253Y0076581D01*
X0014205Y0076615D01*
X0014159Y0076652D01*
X0014115Y0076691D01*
X0014074Y0076734D01*
X0014036Y0076778D01*
X0014001Y0076825D01*
X0013969Y0076875D01*
X0013940Y0076926D01*
X0013914Y0076979D01*
X0013892Y0077033D01*
X0013874Y0077089D01*
X0013859Y0077146D01*
X0013848Y0077204D01*
X0013840Y0077262D01*
X0013836Y0077321D01*
X0013836Y0077379D01*
X0013840Y0077438D01*
X0013848Y0077496D01*
X0013859Y0077554D01*
X0013874Y0077611D01*
X0013892Y0077667D01*
X0013914Y0077721D01*
X0013940Y0077774D01*
X0013969Y0077825D01*
X0014001Y0077875D01*
X0014036Y0077922D01*
X0014074Y0077966D01*
X0014115Y0078009D01*
X0014159Y0078048D01*
X0014205Y0078085D01*
X0014253Y0078119D01*
X0014303Y0078149D01*
X0014355Y0078176D01*
X0014409Y0078200D01*
X0014464Y0078220D01*
X0014520Y0078237D01*
X0014578Y0078250D01*
X0014636Y0078259D01*
X0014694Y0078265D01*
X0014753Y0078267D01*
X0014753Y0078266D02*
X0015670Y0078266D01*
X0014753Y0078267D02*
X0014701Y0078269D01*
X0014649Y0078274D01*
X0014597Y0078284D01*
X0014546Y0078297D01*
X0014497Y0078313D01*
X0014449Y0078333D01*
X0014402Y0078357D01*
X0014357Y0078383D01*
X0014314Y0078413D01*
X0014273Y0078446D01*
X0014235Y0078482D01*
X0014199Y0078520D01*
X0014166Y0078561D01*
X0014136Y0078604D01*
X0014110Y0078649D01*
X0014086Y0078696D01*
X0014066Y0078744D01*
X0014050Y0078793D01*
X0014037Y0078844D01*
X0014027Y0078896D01*
X0014022Y0078948D01*
X0014020Y0079000D01*
X0014022Y0079052D01*
X0014027Y0079104D01*
X0014037Y0079156D01*
X0014050Y0079207D01*
X0014066Y0079256D01*
X0014086Y0079304D01*
X0014110Y0079351D01*
X0014136Y0079396D01*
X0014166Y0079439D01*
X0014199Y0079480D01*
X0014235Y0079518D01*
X0014273Y0079554D01*
X0014314Y0079587D01*
X0014357Y0079617D01*
X0014402Y0079643D01*
X0014449Y0079667D01*
X0014497Y0079687D01*
X0014546Y0079703D01*
X0014597Y0079716D01*
X0014649Y0079726D01*
X0014701Y0079731D01*
X0014753Y0079733D01*
X0015670Y0079733D01*
X0011670Y0079733D02*
X0010570Y0076433D01*
X0010845Y0077258D02*
X0012495Y0077258D01*
X0012770Y0076433D02*
X0011670Y0079733D01*
X0009563Y0079733D02*
X0007730Y0079733D01*
X0008647Y0079733D02*
X0008647Y0076433D01*
D12*
X0078758Y0056217D03*
D13*
X0078786Y0031955D03*
D14*
X0085982Y0035007D03*
X0078786Y0040215D03*
X0083126Y0042539D03*
X0086150Y0045983D03*
D15*
X0078786Y0056357D03*
D16*
X0078814Y0032403D03*
D17*
X0078814Y0056441D03*
D18*
X0078842Y0032403D03*
D19*
X0078842Y0056511D03*
D20*
X0078870Y0032403D03*
D21*
X0078870Y0056553D03*
D22*
X0078898Y0032389D03*
D23*
X0078898Y0056609D03*
D24*
X0078926Y0032375D03*
D25*
X0078926Y0056651D03*
D26*
X0078954Y0032375D03*
D27*
X0088278Y0045787D03*
X0078954Y0056707D03*
D28*
X0078982Y0032347D03*
D29*
X0078982Y0056735D03*
D30*
X0079010Y0032333D03*
D31*
X0079010Y0056777D03*
D32*
X0079038Y0032319D03*
D33*
X0079038Y0056805D03*
D34*
X0079066Y0032319D03*
D35*
X0079066Y0056847D03*
D36*
X0079094Y0032305D03*
D37*
X0079094Y0056875D03*
D38*
X0079122Y0032291D03*
D39*
X0079122Y0056903D03*
D40*
X0079150Y0032277D03*
D41*
X0079150Y0056931D03*
D42*
X0079178Y0032277D03*
D43*
X0079178Y0056973D03*
D44*
X0079206Y0032263D03*
D45*
X0079206Y0056987D03*
X0079234Y0057015D03*
D46*
X0079234Y0032263D03*
D47*
X0079262Y0032235D03*
D48*
X0079262Y0057043D03*
D49*
X0079290Y0032235D03*
D50*
X0079290Y0057057D03*
D51*
X0079318Y0032235D03*
D52*
X0079318Y0057099D03*
D53*
X0079346Y0032207D03*
D54*
X0079346Y0057113D03*
X0079374Y0057141D03*
D55*
X0079374Y0032207D03*
D56*
X0079402Y0032193D03*
D57*
X0079402Y0057155D03*
D58*
X0079430Y0032193D03*
D59*
X0079430Y0057183D03*
D60*
X0079458Y0032193D03*
D61*
X0079458Y0057197D03*
X0079486Y0057225D03*
D62*
X0079486Y0032179D03*
D63*
X0079514Y0032165D03*
D64*
X0079514Y0057253D03*
D65*
X0079542Y0032165D03*
D66*
X0079542Y0057267D03*
D67*
X0079570Y0032151D03*
D68*
X0079570Y0057281D03*
D69*
X0079598Y0032151D03*
D70*
X0079598Y0057295D03*
D71*
X0079626Y0032137D03*
D72*
X0079626Y0057309D03*
X0079654Y0057337D03*
D73*
X0079654Y0032137D03*
D74*
X0079682Y0032123D03*
D75*
X0079682Y0057351D03*
X0079710Y0057379D03*
D76*
X0086990Y0036869D03*
X0079710Y0032109D03*
D77*
X0079738Y0032109D03*
X0079766Y0032109D03*
D78*
X0079738Y0057393D03*
D79*
X0079766Y0057407D03*
X0079822Y0057435D03*
X0079850Y0057463D03*
D80*
X0079794Y0032109D03*
D81*
X0079794Y0057421D03*
D82*
X0079822Y0032095D03*
D83*
X0079850Y0032081D03*
D84*
X0079878Y0032095D03*
D85*
X0079878Y0057477D03*
X0079906Y0057477D03*
X0079934Y0057505D03*
D86*
X0079906Y0032081D03*
D87*
X0079934Y0032067D03*
D88*
X0079962Y0032067D03*
D89*
X0079962Y0057519D03*
D90*
X0079990Y0032067D03*
D91*
X0079990Y0057519D03*
X0080018Y0057547D03*
X0080046Y0057547D03*
D92*
X0080018Y0032053D03*
D93*
X0080046Y0032067D03*
D94*
X0080074Y0032053D03*
D95*
X0080074Y0051429D03*
D96*
X0080074Y0063651D03*
D97*
X0080270Y0063693D03*
X0082622Y0067249D03*
X0082650Y0067249D03*
X0085702Y0067249D03*
X0080074Y0069797D03*
D98*
X0080102Y0032039D03*
D99*
X0080102Y0051317D03*
D100*
X0080102Y0063679D03*
X0088250Y0063707D03*
D101*
X0080102Y0069923D03*
D102*
X0080130Y0032053D03*
D103*
X0080130Y0051219D03*
D104*
X0080130Y0063679D03*
D105*
X0080130Y0070035D03*
X0080298Y0056679D03*
D106*
X0080158Y0032039D03*
D107*
X0080158Y0051163D03*
D108*
X0080158Y0063679D03*
D109*
X0082146Y0067249D03*
X0086206Y0067249D03*
X0080158Y0070105D03*
X0080326Y0056637D03*
X0080466Y0023961D03*
X0080522Y0023961D03*
D110*
X0080186Y0024031D03*
D111*
X0080186Y0028875D03*
X0080214Y0028875D03*
X0080242Y0028875D03*
X0080270Y0028875D03*
X0080326Y0028875D03*
X0080354Y0028875D03*
X0080382Y0028875D03*
X0080410Y0028875D03*
X0080438Y0028875D03*
X0080466Y0028875D03*
X0080522Y0028875D03*
X0080550Y0028875D03*
X0080578Y0028875D03*
X0080606Y0028875D03*
X0080634Y0028875D03*
X0080690Y0028875D03*
X0080718Y0028875D03*
X0080746Y0028875D03*
X0080774Y0028875D03*
X0080802Y0028875D03*
X0080858Y0028875D03*
X0080886Y0028875D03*
X0080914Y0028875D03*
X0080942Y0028875D03*
X0080970Y0028875D03*
X0081026Y0028875D03*
X0081054Y0028875D03*
X0081082Y0028875D03*
X0081110Y0028875D03*
X0081138Y0028875D03*
X0081166Y0028875D03*
X0081222Y0028875D03*
X0081250Y0028875D03*
X0081278Y0028875D03*
X0081306Y0028875D03*
X0081334Y0028875D03*
X0081390Y0028875D03*
X0081418Y0028875D03*
X0081446Y0028875D03*
X0081474Y0028875D03*
X0081502Y0028875D03*
X0081558Y0028875D03*
X0081586Y0028875D03*
X0081614Y0028875D03*
X0081642Y0028875D03*
X0081670Y0028875D03*
X0081726Y0028875D03*
X0081754Y0028875D03*
X0081782Y0028875D03*
X0081810Y0028875D03*
X0081838Y0028875D03*
X0081866Y0028875D03*
X0081922Y0028875D03*
X0081950Y0028875D03*
X0081978Y0028875D03*
X0082006Y0028875D03*
X0082034Y0028875D03*
X0082090Y0028875D03*
X0082118Y0028875D03*
X0082146Y0028875D03*
X0082174Y0028875D03*
X0082202Y0028875D03*
X0082258Y0028875D03*
X0082286Y0028875D03*
X0082314Y0028875D03*
X0082342Y0028875D03*
X0082370Y0028875D03*
X0082426Y0028875D03*
X0082454Y0028875D03*
X0082482Y0028875D03*
X0082510Y0028875D03*
X0082538Y0028875D03*
X0082566Y0028875D03*
X0082622Y0028875D03*
X0082650Y0028875D03*
X0082678Y0028875D03*
X0082706Y0028875D03*
X0082734Y0028875D03*
X0082790Y0028875D03*
X0082818Y0028875D03*
X0082846Y0028875D03*
X0082874Y0028875D03*
X0082902Y0028875D03*
X0082958Y0028875D03*
X0082986Y0028875D03*
X0083014Y0028875D03*
X0083042Y0028875D03*
X0083070Y0028875D03*
X0083126Y0028875D03*
X0083154Y0028875D03*
X0083182Y0028875D03*
X0083210Y0028875D03*
X0083238Y0028875D03*
X0083266Y0028875D03*
X0083322Y0028875D03*
X0083350Y0028875D03*
X0083378Y0028875D03*
X0083406Y0028875D03*
X0083434Y0028875D03*
X0083490Y0028875D03*
X0083518Y0028875D03*
X0083546Y0028875D03*
X0083574Y0028875D03*
X0083602Y0028875D03*
X0083658Y0028875D03*
X0083686Y0028875D03*
X0083714Y0028875D03*
X0083742Y0028875D03*
X0083770Y0028875D03*
X0083826Y0028875D03*
X0083854Y0028875D03*
X0083882Y0028875D03*
X0083910Y0028875D03*
X0083938Y0028875D03*
X0083966Y0028875D03*
X0084022Y0028875D03*
X0084050Y0028875D03*
X0084078Y0028875D03*
X0084106Y0028875D03*
X0084134Y0028875D03*
X0084190Y0028875D03*
X0084218Y0028875D03*
X0084246Y0028875D03*
X0084274Y0028875D03*
X0084302Y0028875D03*
X0084358Y0028875D03*
X0084386Y0028875D03*
X0084414Y0028875D03*
X0084442Y0028875D03*
X0084470Y0028875D03*
X0084526Y0028875D03*
X0084554Y0028875D03*
X0084582Y0028875D03*
X0084610Y0028875D03*
X0084638Y0028875D03*
X0084666Y0028875D03*
X0084722Y0028875D03*
X0084750Y0028875D03*
X0084778Y0028875D03*
X0084806Y0028875D03*
X0084834Y0028875D03*
X0084890Y0028875D03*
X0084918Y0028875D03*
X0084946Y0028875D03*
X0084974Y0028875D03*
X0085002Y0028875D03*
X0085058Y0028875D03*
X0085086Y0028875D03*
X0085114Y0028875D03*
X0085142Y0028875D03*
X0085170Y0028875D03*
X0085226Y0028875D03*
X0085254Y0028875D03*
X0085282Y0028875D03*
X0085310Y0028875D03*
X0085338Y0028875D03*
X0085366Y0028875D03*
X0085422Y0028875D03*
X0085450Y0028875D03*
X0085478Y0028875D03*
X0085506Y0028875D03*
X0085534Y0028875D03*
X0085590Y0028875D03*
X0085618Y0028875D03*
X0085646Y0028875D03*
X0085674Y0028875D03*
X0085702Y0028875D03*
X0085758Y0028875D03*
X0085786Y0028875D03*
X0085814Y0028875D03*
X0085842Y0028875D03*
X0085870Y0028875D03*
X0085926Y0028875D03*
X0085954Y0028875D03*
X0085982Y0028875D03*
X0086010Y0028875D03*
X0086038Y0028875D03*
X0086066Y0028875D03*
X0086122Y0028875D03*
X0086150Y0028875D03*
D112*
X0086150Y0032641D03*
X0086122Y0032641D03*
X0086066Y0032641D03*
X0086038Y0032641D03*
X0086010Y0032641D03*
X0085982Y0032641D03*
X0085954Y0032641D03*
X0085926Y0032641D03*
X0085870Y0032641D03*
X0085842Y0032641D03*
X0085814Y0032641D03*
X0085786Y0032641D03*
X0085758Y0032641D03*
X0085702Y0032641D03*
X0085674Y0032641D03*
X0085646Y0032641D03*
X0085618Y0032641D03*
X0085590Y0032641D03*
X0085534Y0032641D03*
X0085506Y0032641D03*
X0085478Y0032641D03*
X0085450Y0032641D03*
X0085422Y0032641D03*
X0085366Y0032641D03*
X0085338Y0032641D03*
X0085310Y0032641D03*
X0085282Y0032641D03*
X0085254Y0032641D03*
X0085226Y0032641D03*
X0085170Y0032641D03*
X0085142Y0032641D03*
X0085114Y0032641D03*
X0085086Y0032641D03*
X0085058Y0032641D03*
X0085002Y0032641D03*
X0084974Y0032641D03*
X0084946Y0032641D03*
X0084918Y0032641D03*
X0084890Y0032641D03*
X0084834Y0032641D03*
X0084806Y0032641D03*
X0084778Y0032641D03*
X0084750Y0032641D03*
X0084722Y0032641D03*
X0084666Y0032641D03*
X0084638Y0032641D03*
X0084610Y0032641D03*
X0084582Y0032641D03*
X0084554Y0032641D03*
X0084526Y0032641D03*
X0084470Y0032641D03*
X0084442Y0032641D03*
X0084414Y0032641D03*
X0084386Y0032641D03*
X0084358Y0032641D03*
X0084302Y0032641D03*
X0084274Y0032641D03*
X0084246Y0032641D03*
X0084218Y0032641D03*
X0084190Y0032641D03*
X0084134Y0032641D03*
X0084106Y0032641D03*
X0084078Y0032641D03*
X0084050Y0032641D03*
X0084022Y0032641D03*
X0083966Y0032641D03*
X0083938Y0032641D03*
X0083910Y0032641D03*
X0083882Y0032641D03*
X0083854Y0032641D03*
X0083826Y0032641D03*
X0083770Y0032641D03*
X0083742Y0032641D03*
X0083714Y0032641D03*
X0083686Y0032641D03*
X0083658Y0032641D03*
X0083602Y0032641D03*
X0083574Y0032641D03*
X0083546Y0032641D03*
X0083518Y0032641D03*
X0083490Y0032641D03*
X0083434Y0032641D03*
X0083406Y0032641D03*
X0083378Y0032641D03*
X0083350Y0032641D03*
X0083322Y0032641D03*
X0083266Y0032641D03*
X0083238Y0032641D03*
X0083210Y0032641D03*
X0083182Y0032641D03*
X0083154Y0032641D03*
X0083126Y0032641D03*
X0083070Y0032641D03*
X0083042Y0032641D03*
X0083014Y0032641D03*
X0082986Y0032641D03*
X0082958Y0032641D03*
X0082902Y0032641D03*
X0082874Y0032641D03*
X0082846Y0032641D03*
X0082818Y0032641D03*
X0082790Y0032641D03*
X0082734Y0032641D03*
X0082706Y0032641D03*
X0082678Y0032641D03*
X0082650Y0032641D03*
X0082622Y0032641D03*
X0082566Y0032641D03*
X0082538Y0032641D03*
X0082510Y0032641D03*
X0082482Y0032641D03*
X0082454Y0032641D03*
X0082426Y0032641D03*
X0082370Y0032641D03*
X0082342Y0032641D03*
X0082314Y0032641D03*
X0082286Y0032641D03*
X0082258Y0032641D03*
X0082202Y0032641D03*
X0082174Y0032641D03*
X0082146Y0032641D03*
X0082118Y0032641D03*
X0082090Y0032641D03*
X0082034Y0032641D03*
X0082006Y0032641D03*
X0081978Y0032641D03*
X0081950Y0032641D03*
X0081922Y0032641D03*
X0081866Y0032641D03*
X0081838Y0032641D03*
X0081810Y0032641D03*
X0081782Y0032641D03*
X0081754Y0032641D03*
X0081726Y0032641D03*
X0081670Y0032641D03*
X0081642Y0032641D03*
X0081614Y0032641D03*
X0081586Y0032641D03*
X0081558Y0032641D03*
X0081502Y0032641D03*
X0081474Y0032641D03*
X0081446Y0032641D03*
X0081418Y0032641D03*
X0081390Y0032641D03*
X0081334Y0032641D03*
X0081306Y0032641D03*
X0081278Y0032641D03*
X0081250Y0032641D03*
X0081222Y0032641D03*
X0081166Y0032641D03*
X0081138Y0032641D03*
X0081110Y0032641D03*
X0081082Y0032641D03*
X0081054Y0032641D03*
X0081026Y0032641D03*
X0080970Y0032641D03*
X0080942Y0032641D03*
X0080914Y0032641D03*
X0080886Y0032641D03*
X0080858Y0032641D03*
X0080802Y0032641D03*
X0080774Y0032641D03*
X0080746Y0032641D03*
X0080718Y0032641D03*
X0080690Y0032641D03*
X0080634Y0032641D03*
X0080606Y0032641D03*
X0080578Y0032641D03*
X0080550Y0032641D03*
X0080522Y0032641D03*
X0080466Y0032641D03*
X0080438Y0032641D03*
X0080410Y0032641D03*
X0080382Y0032641D03*
X0080354Y0032641D03*
X0080326Y0032641D03*
X0080270Y0032641D03*
X0080242Y0032641D03*
X0080214Y0032641D03*
X0080186Y0032641D03*
X0085982Y0038773D03*
X0085142Y0055545D03*
X0085114Y0055545D03*
X0085086Y0055545D03*
X0085058Y0055545D03*
X0085002Y0055545D03*
X0083378Y0055545D03*
X0083350Y0055545D03*
X0083322Y0055545D03*
X0083266Y0055545D03*
X0083238Y0055545D03*
X0083210Y0055545D03*
D113*
X0081054Y0056077D03*
X0087242Y0056077D03*
X0080718Y0063609D03*
X0086766Y0067249D03*
X0083742Y0036113D03*
X0083714Y0036113D03*
X0083686Y0036113D03*
X0083658Y0036113D03*
X0083602Y0036113D03*
X0083574Y0036113D03*
X0083546Y0036113D03*
X0083518Y0036113D03*
X0083490Y0036113D03*
X0083434Y0036113D03*
X0083406Y0036113D03*
X0083378Y0036113D03*
X0083350Y0036113D03*
X0083322Y0036113D03*
X0083266Y0036113D03*
X0083238Y0036113D03*
X0083210Y0036113D03*
X0083182Y0036113D03*
X0083154Y0036113D03*
X0083126Y0036113D03*
X0083070Y0036113D03*
X0083042Y0036113D03*
X0083014Y0036113D03*
X0082986Y0036113D03*
X0082958Y0036113D03*
X0082902Y0036113D03*
X0082874Y0036113D03*
X0082846Y0036113D03*
X0082818Y0036113D03*
X0082790Y0036113D03*
X0082734Y0036113D03*
X0082706Y0036113D03*
X0082678Y0036113D03*
X0082650Y0036113D03*
X0082622Y0036113D03*
X0082566Y0036113D03*
X0082538Y0036113D03*
X0082510Y0036113D03*
X0082482Y0036113D03*
X0082454Y0036113D03*
X0082426Y0036113D03*
X0082370Y0036113D03*
X0082342Y0036113D03*
X0082314Y0036113D03*
X0082286Y0036113D03*
X0082258Y0036113D03*
X0082202Y0036113D03*
X0082174Y0036113D03*
X0082146Y0036113D03*
X0082118Y0036113D03*
X0082090Y0036113D03*
X0082034Y0036113D03*
X0082006Y0036113D03*
X0081978Y0036113D03*
X0081950Y0036113D03*
X0081922Y0036113D03*
X0081866Y0036113D03*
X0081838Y0036113D03*
X0081810Y0036113D03*
X0081782Y0036113D03*
X0081754Y0036113D03*
X0081726Y0036113D03*
X0081670Y0036113D03*
X0081642Y0036113D03*
X0081614Y0036113D03*
X0081586Y0036113D03*
X0081558Y0036113D03*
X0081502Y0036113D03*
X0081474Y0036113D03*
X0081446Y0036113D03*
X0081418Y0036113D03*
X0081390Y0036113D03*
X0081334Y0036113D03*
X0081306Y0036113D03*
X0081278Y0036113D03*
X0081250Y0036113D03*
X0081222Y0036113D03*
X0081166Y0036113D03*
X0081138Y0036113D03*
X0081110Y0036113D03*
X0081082Y0036113D03*
X0081054Y0036113D03*
X0081026Y0036113D03*
X0080970Y0036113D03*
X0080942Y0036113D03*
X0080914Y0036113D03*
X0080886Y0036113D03*
X0080858Y0036113D03*
X0080802Y0036113D03*
X0080774Y0036113D03*
X0080746Y0036113D03*
X0080718Y0036113D03*
X0080690Y0036113D03*
X0080634Y0036113D03*
X0080606Y0036113D03*
X0080578Y0036113D03*
X0080550Y0036113D03*
X0080522Y0036113D03*
X0080466Y0036113D03*
X0080438Y0036113D03*
X0080410Y0036113D03*
X0080382Y0036113D03*
X0080354Y0036113D03*
X0080326Y0036113D03*
X0080270Y0036113D03*
X0080242Y0036113D03*
X0080214Y0036113D03*
X0080186Y0036113D03*
D114*
X0080186Y0040327D03*
X0080382Y0040327D03*
X0080410Y0040327D03*
X0086122Y0042511D03*
X0080578Y0044919D03*
X0080550Y0044919D03*
X0080522Y0044919D03*
X0081614Y0060347D03*
X0080522Y0063707D03*
X0087970Y0070483D03*
D115*
X0086542Y0067249D03*
X0081810Y0067249D03*
X0087858Y0063693D03*
X0087690Y0056357D03*
X0080606Y0056357D03*
X0080214Y0044849D03*
X0080186Y0044849D03*
D116*
X0080186Y0050589D03*
X0080214Y0050589D03*
X0080242Y0050589D03*
X0080270Y0050589D03*
X0080326Y0050589D03*
X0080354Y0050589D03*
X0080382Y0050589D03*
X0080410Y0050589D03*
X0080438Y0050589D03*
X0080466Y0050589D03*
X0080522Y0050589D03*
X0080550Y0050589D03*
X0080578Y0050589D03*
X0080606Y0050589D03*
X0080634Y0050589D03*
X0080690Y0050589D03*
X0080718Y0050589D03*
X0080746Y0050589D03*
X0080774Y0050589D03*
X0080802Y0050589D03*
X0080858Y0050589D03*
X0080886Y0050589D03*
X0080914Y0050589D03*
X0080942Y0050589D03*
X0080970Y0050589D03*
X0081026Y0050589D03*
X0081054Y0050589D03*
X0081082Y0050589D03*
X0081110Y0050589D03*
X0081138Y0050589D03*
X0081166Y0050589D03*
X0081222Y0050589D03*
X0081250Y0050589D03*
X0081278Y0050589D03*
X0081306Y0050589D03*
X0081334Y0050589D03*
X0081390Y0050589D03*
X0081418Y0050589D03*
X0081446Y0050589D03*
X0081474Y0050589D03*
X0081502Y0050589D03*
X0081558Y0050589D03*
X0081586Y0050589D03*
X0081614Y0050589D03*
X0081642Y0050589D03*
X0081670Y0050589D03*
X0081726Y0050589D03*
X0081754Y0050589D03*
X0081782Y0050589D03*
X0081810Y0050589D03*
X0081838Y0050589D03*
X0081866Y0050589D03*
X0081922Y0050589D03*
X0081950Y0050589D03*
X0081978Y0050589D03*
X0082006Y0050589D03*
X0082034Y0050589D03*
X0082090Y0050589D03*
X0082118Y0050589D03*
X0082146Y0050589D03*
X0082174Y0050589D03*
X0082202Y0050589D03*
X0082258Y0050589D03*
X0082286Y0050589D03*
X0082314Y0050589D03*
X0082342Y0050589D03*
X0082370Y0050589D03*
X0082426Y0050589D03*
X0082454Y0050589D03*
X0082482Y0050589D03*
X0082510Y0050589D03*
X0082538Y0050589D03*
X0082566Y0050589D03*
X0082622Y0050589D03*
X0082650Y0050589D03*
X0082678Y0050589D03*
X0082706Y0050589D03*
X0082734Y0050589D03*
X0082790Y0050589D03*
X0082818Y0050589D03*
X0082846Y0050589D03*
X0082874Y0050589D03*
X0082902Y0050589D03*
X0082958Y0050589D03*
X0082986Y0050589D03*
X0083014Y0050589D03*
X0083042Y0050589D03*
X0083070Y0050589D03*
X0083126Y0050589D03*
X0083154Y0050589D03*
X0083182Y0050589D03*
X0082202Y0060977D03*
X0082146Y0061005D03*
X0082118Y0061033D03*
X0085954Y0060893D03*
X0086010Y0060921D03*
X0086038Y0060949D03*
X0086066Y0060949D03*
D117*
X0080186Y0056847D03*
D118*
X0080186Y0063693D03*
X0088166Y0063693D03*
D119*
X0080186Y0070175D03*
D120*
X0086290Y0067249D03*
X0080382Y0056581D03*
X0088166Y0051513D03*
X0080242Y0024017D03*
X0080214Y0024017D03*
D121*
X0080214Y0040341D03*
X0080242Y0040341D03*
X0080270Y0040341D03*
X0080326Y0040341D03*
X0080354Y0040341D03*
X0086150Y0042497D03*
X0080466Y0044905D03*
X0080690Y0056301D03*
X0087606Y0056301D03*
X0081754Y0067249D03*
X0080410Y0070553D03*
D122*
X0082426Y0067249D03*
X0082454Y0067249D03*
X0085926Y0067249D03*
X0088110Y0056805D03*
X0080214Y0056805D03*
D123*
X0080214Y0063693D03*
X0088138Y0063693D03*
D124*
X0086346Y0067249D03*
X0082006Y0067249D03*
X0080214Y0070245D03*
X0087886Y0056525D03*
D125*
X0086626Y0060291D03*
X0081642Y0060347D03*
X0080634Y0056343D03*
X0080270Y0044863D03*
X0080242Y0044863D03*
X0086178Y0042511D03*
X0088026Y0070399D03*
X0080354Y0070483D03*
D126*
X0080242Y0056763D03*
X0088082Y0056763D03*
D127*
X0080242Y0063707D03*
X0085422Y0067235D03*
D128*
X0088138Y0070203D03*
X0080242Y0070287D03*
X0081726Y0060375D03*
X0086542Y0060319D03*
X0080466Y0056483D03*
X0083266Y0051611D03*
D129*
X0080382Y0063707D03*
X0082090Y0067235D03*
X0080270Y0024003D03*
D130*
X0081138Y0023877D03*
X0081166Y0023877D03*
X0081222Y0023877D03*
X0081250Y0023877D03*
X0081278Y0023877D03*
X0081306Y0023877D03*
X0081334Y0023877D03*
X0081390Y0023877D03*
X0081418Y0023877D03*
X0081446Y0023877D03*
X0081474Y0023877D03*
X0081502Y0023877D03*
X0081558Y0023877D03*
X0081586Y0023877D03*
X0081614Y0023877D03*
X0081642Y0023877D03*
X0081670Y0023877D03*
X0081726Y0023877D03*
X0081754Y0023877D03*
X0081782Y0023877D03*
X0081810Y0023877D03*
X0081838Y0023877D03*
X0081866Y0023877D03*
X0081922Y0023877D03*
X0081950Y0023877D03*
X0081978Y0023877D03*
X0082006Y0023877D03*
X0082034Y0023877D03*
X0082090Y0023877D03*
X0082118Y0023877D03*
X0082146Y0023877D03*
X0082174Y0023877D03*
X0082202Y0023877D03*
X0082258Y0023877D03*
X0082286Y0023877D03*
X0082314Y0023877D03*
X0082342Y0023877D03*
X0082370Y0023877D03*
X0082426Y0023877D03*
X0082454Y0023877D03*
X0082482Y0023877D03*
X0082510Y0023877D03*
X0082538Y0023877D03*
X0082566Y0023877D03*
X0082622Y0023877D03*
X0082650Y0023877D03*
X0082678Y0023877D03*
X0082706Y0023877D03*
X0082734Y0023877D03*
X0082790Y0023877D03*
X0082818Y0023877D03*
X0082846Y0023877D03*
X0082874Y0023877D03*
X0082902Y0023877D03*
X0082958Y0023877D03*
X0082986Y0023877D03*
X0083014Y0023877D03*
X0083042Y0023877D03*
X0083070Y0023877D03*
X0083126Y0023877D03*
X0083154Y0023877D03*
X0083182Y0023877D03*
X0083210Y0023877D03*
X0083238Y0023877D03*
X0083266Y0023877D03*
X0083322Y0023877D03*
X0083350Y0023877D03*
X0083378Y0023877D03*
X0083406Y0023877D03*
X0083434Y0023877D03*
X0083490Y0023877D03*
X0083518Y0023877D03*
X0083546Y0023877D03*
X0083574Y0023877D03*
X0083602Y0023877D03*
X0083658Y0023877D03*
X0083686Y0023877D03*
X0083714Y0023877D03*
X0083742Y0023877D03*
X0083770Y0023877D03*
X0083826Y0023877D03*
X0083854Y0023877D03*
X0083882Y0023877D03*
X0083910Y0023877D03*
X0083938Y0023877D03*
X0083966Y0023877D03*
X0084022Y0023877D03*
X0084050Y0023877D03*
X0084078Y0023877D03*
X0084106Y0023877D03*
X0084134Y0023877D03*
X0084190Y0023877D03*
X0084218Y0023877D03*
X0084246Y0023877D03*
X0084274Y0023877D03*
X0084302Y0023877D03*
X0084358Y0023877D03*
X0084386Y0023877D03*
X0084414Y0023877D03*
X0084442Y0023877D03*
X0084470Y0023877D03*
X0084526Y0023877D03*
X0084554Y0023877D03*
X0084582Y0023877D03*
X0084610Y0023877D03*
X0084638Y0023877D03*
X0084666Y0023877D03*
X0084722Y0023877D03*
X0084750Y0023877D03*
X0084778Y0023877D03*
X0084806Y0023877D03*
X0084834Y0023877D03*
X0084890Y0023877D03*
X0084918Y0023877D03*
X0084946Y0023877D03*
X0084974Y0023877D03*
X0085002Y0023877D03*
X0085058Y0023877D03*
X0085086Y0023877D03*
X0085114Y0023877D03*
X0085142Y0023877D03*
X0085170Y0023877D03*
X0085226Y0023877D03*
X0085254Y0023877D03*
X0085282Y0023877D03*
X0085310Y0023877D03*
X0085338Y0023877D03*
X0085366Y0023877D03*
X0085422Y0023877D03*
X0085450Y0023877D03*
X0085478Y0023877D03*
X0085506Y0023877D03*
X0085534Y0023877D03*
X0085590Y0023877D03*
X0085618Y0023877D03*
X0085646Y0023877D03*
X0085674Y0023877D03*
X0085702Y0023877D03*
X0085758Y0023877D03*
X0085786Y0023877D03*
X0085814Y0023877D03*
X0085842Y0023877D03*
X0085870Y0023877D03*
X0085926Y0023877D03*
X0085954Y0023877D03*
X0085982Y0023877D03*
X0086010Y0023877D03*
X0086038Y0023877D03*
X0086066Y0023877D03*
X0086122Y0023877D03*
X0086150Y0023877D03*
X0086178Y0023877D03*
X0086206Y0023877D03*
X0086234Y0023877D03*
X0086290Y0023877D03*
X0086318Y0023877D03*
X0086346Y0023877D03*
X0086374Y0023877D03*
X0086402Y0023877D03*
X0086458Y0023877D03*
X0086486Y0023877D03*
X0086514Y0023877D03*
X0086542Y0023877D03*
X0086570Y0023877D03*
X0086626Y0023877D03*
X0086654Y0023877D03*
X0086682Y0023877D03*
X0086710Y0023877D03*
X0086738Y0023877D03*
X0086766Y0023877D03*
X0086822Y0023877D03*
X0086850Y0023877D03*
X0086878Y0023877D03*
X0086906Y0023877D03*
X0086934Y0023877D03*
X0088054Y0056721D03*
X0080270Y0056721D03*
X0080326Y0063693D03*
X0082286Y0067249D03*
X0086066Y0067249D03*
D131*
X0088110Y0070259D03*
X0080270Y0070343D03*
X0080438Y0063707D03*
X0087802Y0056455D03*
X0088138Y0051639D03*
D132*
X0080298Y0024003D03*
D133*
X0080298Y0028875D03*
X0080494Y0028875D03*
X0080662Y0028875D03*
X0080830Y0028875D03*
X0080998Y0028875D03*
X0081194Y0028875D03*
X0081362Y0028875D03*
X0081530Y0028875D03*
X0081698Y0028875D03*
X0081894Y0028875D03*
X0082062Y0028875D03*
X0082230Y0028875D03*
X0082398Y0028875D03*
X0082594Y0028875D03*
X0082762Y0028875D03*
X0082930Y0028875D03*
X0083098Y0028875D03*
X0083294Y0028875D03*
X0083462Y0028875D03*
X0083630Y0028875D03*
X0083798Y0028875D03*
X0083994Y0028875D03*
X0084162Y0028875D03*
X0084330Y0028875D03*
X0084498Y0028875D03*
X0084694Y0028875D03*
X0084862Y0028875D03*
X0085030Y0028875D03*
X0085198Y0028875D03*
X0085394Y0028875D03*
X0085562Y0028875D03*
X0085730Y0028875D03*
X0085898Y0028875D03*
X0086094Y0028875D03*
D134*
X0086094Y0032641D03*
X0085898Y0032641D03*
X0085730Y0032641D03*
X0085562Y0032641D03*
X0085394Y0032641D03*
X0085198Y0032641D03*
X0085030Y0032641D03*
X0084862Y0032641D03*
X0084694Y0032641D03*
X0084498Y0032641D03*
X0084330Y0032641D03*
X0084162Y0032641D03*
X0083994Y0032641D03*
X0083798Y0032641D03*
X0083630Y0032641D03*
X0083462Y0032641D03*
X0083294Y0032641D03*
X0083098Y0032641D03*
X0082930Y0032641D03*
X0082762Y0032641D03*
X0082594Y0032641D03*
X0082398Y0032641D03*
X0082230Y0032641D03*
X0082062Y0032641D03*
X0081894Y0032641D03*
X0081698Y0032641D03*
X0081530Y0032641D03*
X0081362Y0032641D03*
X0081194Y0032641D03*
X0080998Y0032641D03*
X0080830Y0032641D03*
X0080662Y0032641D03*
X0080494Y0032641D03*
X0080298Y0032641D03*
X0085030Y0036281D03*
X0084330Y0052549D03*
X0087130Y0052549D03*
X0085030Y0055545D03*
X0083294Y0055545D03*
X0081362Y0067249D03*
D135*
X0081362Y0036113D03*
X0081530Y0036113D03*
X0081698Y0036113D03*
X0081894Y0036113D03*
X0082062Y0036113D03*
X0082230Y0036113D03*
X0082398Y0036113D03*
X0082594Y0036113D03*
X0082762Y0036113D03*
X0082930Y0036113D03*
X0083098Y0036113D03*
X0083294Y0036113D03*
X0083462Y0036113D03*
X0083630Y0036113D03*
X0081194Y0036113D03*
X0080998Y0036113D03*
X0080830Y0036113D03*
X0080662Y0036113D03*
X0080494Y0036113D03*
X0080298Y0036113D03*
D136*
X0080298Y0040341D03*
X0080494Y0044905D03*
X0087830Y0063693D03*
X0086598Y0067249D03*
D137*
X0087662Y0056329D03*
X0080298Y0044877D03*
D138*
X0080298Y0050589D03*
X0080494Y0050589D03*
X0080662Y0050589D03*
X0080830Y0050589D03*
X0080998Y0050589D03*
X0081194Y0050589D03*
X0081362Y0050589D03*
X0081530Y0050589D03*
X0081698Y0050589D03*
X0081894Y0050589D03*
X0082062Y0050589D03*
X0082230Y0050589D03*
X0082398Y0050589D03*
X0082594Y0050589D03*
X0082762Y0050589D03*
X0082930Y0050589D03*
X0083098Y0050589D03*
X0082062Y0061061D03*
D139*
X0080298Y0063693D03*
X0085898Y0067249D03*
D140*
X0080298Y0070385D03*
D141*
X0082118Y0067249D03*
X0086234Y0067249D03*
X0087970Y0063693D03*
X0083238Y0051485D03*
X0080354Y0023989D03*
X0080326Y0023989D03*
D142*
X0080326Y0044877D03*
X0080354Y0044877D03*
X0081782Y0067249D03*
X0080382Y0070525D03*
X0086570Y0067249D03*
D143*
X0086514Y0067249D03*
X0088054Y0070357D03*
X0081838Y0067249D03*
X0080326Y0070441D03*
X0080578Y0056385D03*
X0087718Y0056385D03*
X0088110Y0051709D03*
X0086178Y0028889D03*
D144*
X0080354Y0056609D03*
D145*
X0080354Y0063707D03*
X0088222Y0069979D03*
X0080578Y0023947D03*
X0080550Y0023947D03*
D146*
X0080438Y0023975D03*
X0080410Y0023975D03*
X0080382Y0023975D03*
X0087970Y0056623D03*
D147*
X0087634Y0056315D03*
X0086654Y0060291D03*
X0088082Y0051779D03*
X0083322Y0051779D03*
X0080438Y0044891D03*
X0080410Y0044891D03*
X0080382Y0044891D03*
D148*
X0080410Y0056539D03*
X0080410Y0063707D03*
X0087942Y0063707D03*
X0088166Y0070147D03*
D149*
X0087942Y0070525D03*
X0080438Y0070581D03*
X0086682Y0060277D03*
X0087578Y0056273D03*
X0080718Y0056273D03*
X0080634Y0044933D03*
X0080606Y0044933D03*
X0080466Y0040313D03*
X0080438Y0040313D03*
D150*
X0080438Y0056511D03*
D151*
X0080466Y0063707D03*
D152*
X0080550Y0063707D03*
X0087802Y0063707D03*
X0080466Y0070623D03*
X0083350Y0051835D03*
X0080718Y0044947D03*
X0080690Y0044947D03*
X0086038Y0042511D03*
X0086066Y0042511D03*
X0080550Y0040299D03*
X0080522Y0040299D03*
D153*
X0080494Y0023961D03*
D154*
X0080494Y0040313D03*
X0086094Y0042497D03*
D155*
X0080494Y0056455D03*
D156*
X0080494Y0063707D03*
D157*
X0080494Y0070651D03*
X0080830Y0044975D03*
X0080662Y0040271D03*
D158*
X0080522Y0056427D03*
X0087774Y0056427D03*
D159*
X0085926Y0042497D03*
X0080746Y0040257D03*
X0080718Y0040257D03*
X0080522Y0070693D03*
D160*
X0081866Y0067249D03*
X0086486Y0067249D03*
X0080550Y0056413D03*
D161*
X0080858Y0056189D03*
X0087438Y0056189D03*
X0086206Y0049273D03*
X0086178Y0049273D03*
X0086150Y0049273D03*
X0086122Y0049273D03*
X0085310Y0049273D03*
X0085282Y0049273D03*
X0085254Y0049273D03*
X0081082Y0045017D03*
X0081054Y0045017D03*
X0085842Y0042497D03*
X0080886Y0040229D03*
X0080858Y0040229D03*
X0081670Y0067249D03*
X0086682Y0067249D03*
X0087858Y0070637D03*
X0080550Y0070721D03*
D162*
X0080746Y0044961D03*
X0080774Y0044961D03*
X0080802Y0044961D03*
X0086010Y0042497D03*
X0080606Y0040285D03*
X0080578Y0040285D03*
D163*
X0080970Y0045003D03*
X0081026Y0045003D03*
X0085338Y0049287D03*
X0085366Y0049287D03*
X0085422Y0049287D03*
X0085450Y0049287D03*
X0085478Y0049287D03*
X0085506Y0049287D03*
X0085534Y0049287D03*
X0085926Y0049287D03*
X0085954Y0049287D03*
X0085982Y0049287D03*
X0086010Y0049287D03*
X0086038Y0049287D03*
X0086066Y0049287D03*
X0088026Y0051891D03*
X0087466Y0056203D03*
X0087774Y0063707D03*
X0080578Y0063707D03*
D164*
X0086710Y0067249D03*
X0087802Y0070693D03*
X0080606Y0070777D03*
X0080578Y0070749D03*
X0087746Y0063693D03*
X0087382Y0056161D03*
X0083406Y0051933D03*
X0085086Y0049245D03*
X0085114Y0049245D03*
X0086290Y0049245D03*
X0086318Y0049245D03*
X0086346Y0049245D03*
X0081250Y0045045D03*
X0081222Y0045045D03*
X0085758Y0042497D03*
X0081026Y0040201D03*
D165*
X0080690Y0023933D03*
X0080634Y0023933D03*
X0080606Y0023933D03*
X0082174Y0067249D03*
X0082202Y0067249D03*
X0086150Y0067249D03*
X0086178Y0067249D03*
D166*
X0080606Y0063707D03*
X0080914Y0056147D03*
X0087354Y0056147D03*
X0086402Y0049231D03*
X0086374Y0049231D03*
X0085058Y0049231D03*
X0081306Y0045059D03*
X0081278Y0045059D03*
X0085702Y0042511D03*
X0081110Y0040187D03*
X0081082Y0040187D03*
X0081054Y0040187D03*
D167*
X0080690Y0040271D03*
X0080634Y0040271D03*
X0085954Y0042511D03*
X0085982Y0042511D03*
X0080858Y0044975D03*
X0081586Y0060319D03*
D168*
X0086766Y0060263D03*
X0080634Y0063679D03*
X0080970Y0056119D03*
X0083434Y0051975D03*
X0084918Y0049203D03*
X0084946Y0049203D03*
X0086486Y0049203D03*
X0081474Y0045087D03*
X0081446Y0045087D03*
X0081418Y0045087D03*
X0085646Y0042511D03*
X0085674Y0042511D03*
X0081222Y0040159D03*
X0087746Y0070763D03*
D169*
X0087774Y0070721D03*
X0081642Y0067249D03*
X0080634Y0070805D03*
X0080942Y0056133D03*
X0087326Y0056133D03*
X0086458Y0049217D03*
X0085002Y0049217D03*
X0084974Y0049217D03*
X0081390Y0045073D03*
X0081334Y0045073D03*
X0081166Y0040173D03*
X0081138Y0040173D03*
D170*
X0080662Y0023933D03*
X0087998Y0063693D03*
D171*
X0080662Y0044947D03*
D172*
X0080662Y0056315D03*
X0087998Y0070455D03*
D173*
X0080662Y0063651D03*
X0081530Y0060291D03*
X0087298Y0056119D03*
X0081194Y0040159D03*
D174*
X0081530Y0045101D03*
X0080998Y0056105D03*
X0080662Y0070833D03*
D175*
X0080690Y0070847D03*
X0080718Y0070875D03*
X0087690Y0070819D03*
X0080690Y0063623D03*
X0081026Y0056091D03*
X0087270Y0056091D03*
X0086570Y0049175D03*
X0084834Y0049175D03*
X0081614Y0045115D03*
X0081586Y0045115D03*
X0081558Y0045115D03*
X0085590Y0042511D03*
X0081334Y0040131D03*
D176*
X0080802Y0023919D03*
X0080774Y0023919D03*
X0080746Y0023919D03*
X0080718Y0023919D03*
X0088026Y0056679D03*
D177*
X0087550Y0056259D03*
X0080746Y0056259D03*
X0086626Y0067263D03*
D178*
X0080746Y0063595D03*
X0081082Y0056063D03*
X0087214Y0056063D03*
X0083938Y0036127D03*
X0083910Y0036127D03*
X0083882Y0036127D03*
X0083854Y0036127D03*
X0083826Y0036127D03*
X0083770Y0036127D03*
D179*
X0081502Y0040103D03*
X0081474Y0040103D03*
X0085478Y0042511D03*
X0085506Y0042511D03*
X0081754Y0045143D03*
X0081726Y0045143D03*
X0084750Y0049147D03*
X0084778Y0049147D03*
X0086626Y0049147D03*
X0087690Y0063707D03*
X0080746Y0070903D03*
D180*
X0085870Y0042511D03*
X0080802Y0040243D03*
X0080774Y0040243D03*
D181*
X0088054Y0051849D03*
X0087522Y0056245D03*
X0080774Y0056245D03*
X0081726Y0067249D03*
D182*
X0080774Y0063567D03*
X0081138Y0056035D03*
X0087158Y0056035D03*
X0087914Y0052059D03*
X0086682Y0049119D03*
X0081866Y0045171D03*
X0084078Y0036127D03*
X0084106Y0036127D03*
X0084134Y0036127D03*
X0084190Y0036127D03*
X0084218Y0036127D03*
X0084246Y0036127D03*
D183*
X0084050Y0036113D03*
X0084022Y0036113D03*
X0083966Y0036113D03*
X0083490Y0052045D03*
X0081110Y0056049D03*
X0087186Y0056049D03*
X0081502Y0060277D03*
X0081586Y0067249D03*
X0080774Y0070917D03*
X0080802Y0070945D03*
D184*
X0087886Y0070609D03*
X0086710Y0060277D03*
X0080802Y0056217D03*
X0083378Y0051877D03*
X0085590Y0049301D03*
X0085618Y0049301D03*
X0085646Y0049301D03*
X0085674Y0049301D03*
X0085702Y0049301D03*
X0085758Y0049301D03*
X0085786Y0049301D03*
X0085814Y0049301D03*
X0085842Y0049301D03*
X0085870Y0049301D03*
X0080942Y0044989D03*
X0080914Y0044989D03*
X0080886Y0044989D03*
D185*
X0081922Y0045185D03*
X0081950Y0045185D03*
X0081978Y0045185D03*
X0086710Y0049105D03*
X0087102Y0056021D03*
X0081166Y0056021D03*
X0080802Y0063553D03*
X0081558Y0067249D03*
X0087578Y0070917D03*
D186*
X0086094Y0067249D03*
X0082230Y0067249D03*
X0080830Y0023905D03*
D187*
X0080830Y0040243D03*
X0085898Y0042511D03*
D188*
X0080998Y0045003D03*
X0085394Y0049287D03*
X0085562Y0049287D03*
X0080830Y0056203D03*
D189*
X0087130Y0056021D03*
X0084694Y0049105D03*
X0087662Y0063693D03*
X0086794Y0067249D03*
X0080830Y0063525D03*
X0080830Y0070973D03*
D190*
X0086122Y0067249D03*
X0080914Y0023905D03*
X0080886Y0023905D03*
X0080858Y0023905D03*
D191*
X0084414Y0036141D03*
X0081838Y0040033D03*
X0081810Y0040033D03*
X0082090Y0045213D03*
X0082118Y0045213D03*
X0084638Y0049077D03*
X0086766Y0049077D03*
X0087046Y0055993D03*
X0081250Y0055993D03*
X0081222Y0055993D03*
X0080858Y0063497D03*
X0087634Y0063693D03*
X0080886Y0071001D03*
D192*
X0080858Y0070987D03*
X0087522Y0070959D03*
X0087550Y0070931D03*
X0086822Y0060235D03*
X0087074Y0056007D03*
X0087886Y0052087D03*
X0083518Y0052087D03*
X0084666Y0049091D03*
X0086738Y0049091D03*
X0082034Y0045199D03*
X0082006Y0045199D03*
X0085310Y0042511D03*
X0085338Y0042511D03*
X0085366Y0042511D03*
X0081782Y0040047D03*
X0081754Y0040047D03*
X0081726Y0040047D03*
X0084274Y0036127D03*
X0084302Y0036127D03*
X0084358Y0036127D03*
X0084386Y0036127D03*
D193*
X0080970Y0040215D03*
X0080942Y0040215D03*
X0080914Y0040215D03*
X0085786Y0042511D03*
X0085814Y0042511D03*
X0081166Y0045031D03*
X0081138Y0045031D03*
X0081110Y0045031D03*
X0085142Y0049259D03*
X0085170Y0049259D03*
X0085226Y0049259D03*
X0086234Y0049259D03*
X0087410Y0056175D03*
X0086738Y0060263D03*
X0081558Y0060319D03*
X0080886Y0056175D03*
D194*
X0081278Y0055979D03*
X0087018Y0055979D03*
X0087858Y0052115D03*
X0083546Y0052115D03*
X0084610Y0049063D03*
X0082202Y0045227D03*
X0082174Y0045227D03*
X0082146Y0045227D03*
X0085226Y0042511D03*
X0085254Y0042511D03*
X0085282Y0042511D03*
X0081922Y0040019D03*
X0081866Y0040019D03*
X0084442Y0036127D03*
X0081474Y0060263D03*
X0080886Y0063483D03*
X0087606Y0063679D03*
X0086822Y0067263D03*
D195*
X0087578Y0063637D03*
X0080914Y0063469D03*
X0081306Y0055965D03*
X0086990Y0055965D03*
X0084582Y0049049D03*
X0082286Y0045241D03*
X0082258Y0045241D03*
X0081978Y0040005D03*
X0081950Y0040005D03*
X0084470Y0036141D03*
X0087466Y0071001D03*
X0080942Y0071057D03*
X0080914Y0071029D03*
D196*
X0082258Y0067235D03*
X0081110Y0023891D03*
X0081082Y0023891D03*
X0081054Y0023891D03*
X0081026Y0023891D03*
X0080970Y0023891D03*
X0080942Y0023891D03*
X0086990Y0023863D03*
D197*
X0084526Y0036155D03*
X0082034Y0039991D03*
X0082006Y0039991D03*
X0085142Y0042511D03*
X0085170Y0042511D03*
X0082342Y0045255D03*
X0082314Y0045255D03*
X0086822Y0049035D03*
X0083574Y0052143D03*
X0081334Y0055951D03*
X0086850Y0060235D03*
X0087522Y0063595D03*
X0087550Y0063623D03*
X0080942Y0063455D03*
X0080970Y0071071D03*
X0087410Y0071043D03*
X0087438Y0071015D03*
D198*
X0087382Y0071057D03*
X0080970Y0063441D03*
X0086906Y0055937D03*
X0086934Y0055937D03*
X0086850Y0049021D03*
X0084554Y0049021D03*
X0082426Y0045269D03*
X0082370Y0045269D03*
X0082118Y0039977D03*
X0082090Y0039977D03*
D199*
X0080998Y0023891D03*
D200*
X0080998Y0040201D03*
X0081194Y0045045D03*
X0087998Y0051933D03*
D201*
X0081362Y0055937D03*
X0080998Y0063413D03*
X0080998Y0071085D03*
X0082398Y0045269D03*
D202*
X0082454Y0045283D03*
X0082482Y0045283D03*
X0082510Y0045283D03*
X0085086Y0042511D03*
X0085114Y0042511D03*
X0082202Y0039963D03*
X0082174Y0039963D03*
X0082146Y0039963D03*
X0084554Y0036155D03*
X0084582Y0036155D03*
X0084526Y0049007D03*
X0083602Y0052171D03*
X0087802Y0052171D03*
X0086878Y0055923D03*
X0081418Y0055923D03*
X0081390Y0055923D03*
X0081026Y0063399D03*
X0086850Y0067263D03*
X0087354Y0071071D03*
X0081026Y0071099D03*
D203*
X0081110Y0071155D03*
X0081054Y0063371D03*
X0087382Y0063483D03*
X0087410Y0063511D03*
X0082650Y0045311D03*
X0082622Y0045311D03*
X0085002Y0042511D03*
X0082314Y0039935D03*
X0082286Y0039935D03*
D204*
X0081446Y0055909D03*
X0086850Y0055909D03*
X0081054Y0071113D03*
D205*
X0081138Y0071169D03*
X0081082Y0063357D03*
X0087354Y0063469D03*
X0086878Y0060221D03*
X0086906Y0048965D03*
X0082706Y0045325D03*
X0082678Y0045325D03*
X0084974Y0042525D03*
X0082370Y0039921D03*
X0082342Y0039921D03*
X0084638Y0036169D03*
D206*
X0087774Y0052199D03*
X0086822Y0055895D03*
X0081474Y0055895D03*
X0081446Y0060263D03*
X0081082Y0071127D03*
X0087270Y0071127D03*
D207*
X0081166Y0071183D03*
X0081110Y0063343D03*
X0084918Y0042511D03*
X0084946Y0042511D03*
X0082454Y0039907D03*
X0082426Y0039907D03*
X0084666Y0036183D03*
D208*
X0082538Y0039893D03*
X0082510Y0039893D03*
X0082482Y0039893D03*
X0081138Y0063329D03*
D209*
X0081166Y0063301D03*
X0087326Y0063441D03*
X0081474Y0067249D03*
X0087186Y0071169D03*
X0087214Y0071169D03*
X0086682Y0055853D03*
X0081614Y0055853D03*
X0081586Y0055853D03*
X0083686Y0052241D03*
X0087718Y0052241D03*
X0084470Y0048937D03*
X0082874Y0045353D03*
X0082846Y0045353D03*
X0082818Y0045353D03*
D210*
X0082762Y0023877D03*
X0082594Y0023877D03*
X0082398Y0023877D03*
X0082230Y0023877D03*
X0082062Y0023877D03*
X0081894Y0023877D03*
X0081698Y0023877D03*
X0081530Y0023877D03*
X0081362Y0023877D03*
X0081194Y0023877D03*
X0082930Y0023877D03*
X0083098Y0023877D03*
X0083294Y0023877D03*
X0083462Y0023877D03*
X0083630Y0023877D03*
X0083798Y0023877D03*
X0083994Y0023877D03*
X0084162Y0023877D03*
X0084330Y0023877D03*
X0084498Y0023877D03*
X0084694Y0023877D03*
X0084862Y0023877D03*
X0085030Y0023877D03*
X0085198Y0023877D03*
X0085394Y0023877D03*
X0085562Y0023877D03*
X0085730Y0023877D03*
X0085898Y0023877D03*
X0086094Y0023877D03*
X0086262Y0023877D03*
X0086430Y0023877D03*
X0086598Y0023877D03*
X0086794Y0023877D03*
X0086962Y0023877D03*
D211*
X0084330Y0036127D03*
X0082062Y0045199D03*
X0081194Y0056007D03*
D212*
X0081194Y0063287D03*
X0082930Y0045367D03*
X0084862Y0042511D03*
X0082594Y0039879D03*
D213*
X0081194Y0071197D03*
D214*
X0081222Y0071211D03*
X0087158Y0071183D03*
X0087270Y0063399D03*
X0087242Y0063371D03*
X0081222Y0063287D03*
X0081642Y0055839D03*
X0086654Y0055839D03*
X0083714Y0052255D03*
X0086934Y0048923D03*
X0082902Y0045367D03*
X0084834Y0042511D03*
X0084890Y0042511D03*
X0082566Y0039879D03*
X0084722Y0036183D03*
D215*
X0081306Y0040145D03*
X0081278Y0040145D03*
X0081250Y0040145D03*
X0085618Y0042497D03*
X0081502Y0045101D03*
X0084890Y0049189D03*
X0086514Y0049189D03*
X0086542Y0049189D03*
X0087970Y0051989D03*
X0087718Y0063693D03*
X0086738Y0067249D03*
X0081614Y0067249D03*
X0087718Y0070777D03*
D216*
X0087102Y0071225D03*
X0081250Y0071225D03*
X0086906Y0067249D03*
X0087214Y0063357D03*
X0081250Y0063273D03*
X0081418Y0060249D03*
X0081670Y0055825D03*
X0086626Y0055825D03*
X0087690Y0052269D03*
X0084442Y0048909D03*
X0083014Y0045381D03*
X0082986Y0045381D03*
X0082958Y0045381D03*
X0082678Y0039865D03*
X0082650Y0039865D03*
X0082622Y0039865D03*
X0084750Y0036197D03*
D217*
X0085926Y0034965D03*
X0082902Y0042525D03*
X0081278Y0060165D03*
X0087074Y0060165D03*
D218*
X0086906Y0060207D03*
X0087102Y0063287D03*
X0087158Y0063315D03*
X0087186Y0063343D03*
X0081278Y0063259D03*
X0081726Y0055811D03*
X0086542Y0055811D03*
X0086570Y0055811D03*
X0083742Y0052283D03*
X0083070Y0045395D03*
X0083042Y0045395D03*
X0084778Y0042511D03*
X0084806Y0042511D03*
X0082734Y0039851D03*
X0082706Y0039851D03*
X0081306Y0071239D03*
X0081278Y0071239D03*
X0087074Y0071239D03*
D219*
X0081278Y0067249D03*
X0085842Y0034909D03*
D220*
X0085450Y0045843D03*
X0085422Y0045843D03*
X0081306Y0060179D03*
X0083434Y0071687D03*
X0083490Y0071687D03*
X0083518Y0071687D03*
X0083546Y0071687D03*
X0083574Y0071687D03*
X0083602Y0071687D03*
X0083658Y0071687D03*
X0084722Y0071687D03*
X0084750Y0071687D03*
X0084778Y0071687D03*
X0084806Y0071687D03*
X0084834Y0071687D03*
X0084890Y0071687D03*
X0084918Y0071687D03*
D221*
X0087046Y0071253D03*
X0081334Y0071253D03*
X0081446Y0067249D03*
X0081306Y0063245D03*
X0081334Y0063217D03*
X0087046Y0063245D03*
X0087074Y0063273D03*
X0086514Y0055797D03*
X0081782Y0055797D03*
X0081754Y0055797D03*
X0083770Y0052297D03*
X0083154Y0045409D03*
X0083126Y0045409D03*
X0084750Y0042525D03*
X0082818Y0039837D03*
X0082790Y0039837D03*
X0084778Y0036197D03*
D222*
X0083322Y0042525D03*
X0085786Y0045913D03*
X0085814Y0045913D03*
X0081306Y0067249D03*
D223*
X0081334Y0060207D03*
X0084470Y0052591D03*
X0086990Y0052591D03*
X0084722Y0045703D03*
X0084666Y0045703D03*
X0085870Y0038871D03*
X0085058Y0036295D03*
D224*
X0085646Y0039025D03*
X0085590Y0039053D03*
X0085534Y0039081D03*
X0084778Y0039389D03*
X0084722Y0039417D03*
X0084666Y0039417D03*
X0083742Y0042525D03*
X0083714Y0042525D03*
X0083686Y0042525D03*
X0085058Y0045773D03*
X0085086Y0045773D03*
X0084834Y0052661D03*
X0084806Y0052661D03*
X0084778Y0052661D03*
X0086654Y0052661D03*
X0086682Y0052661D03*
X0086710Y0052661D03*
X0081334Y0067249D03*
X0082734Y0071617D03*
X0082790Y0071617D03*
X0085590Y0071617D03*
X0085618Y0071617D03*
X0085646Y0071617D03*
D225*
X0083462Y0052003D03*
X0084862Y0049175D03*
X0085562Y0042511D03*
X0081362Y0040131D03*
D226*
X0081362Y0045073D03*
X0086430Y0049217D03*
D227*
X0083994Y0045577D03*
X0083630Y0039669D03*
X0086094Y0038661D03*
X0085730Y0055629D03*
X0082594Y0055629D03*
X0081362Y0060221D03*
D228*
X0081362Y0063203D03*
X0081362Y0071267D03*
X0084694Y0042511D03*
D229*
X0085534Y0042497D03*
X0081446Y0040117D03*
X0081418Y0040117D03*
X0081390Y0040117D03*
X0081642Y0045129D03*
X0081670Y0045129D03*
X0084806Y0049161D03*
X0087942Y0052017D03*
D230*
X0087522Y0052367D03*
X0083882Y0052367D03*
X0087018Y0048811D03*
X0083546Y0045479D03*
X0083518Y0045479D03*
X0083490Y0045479D03*
X0084526Y0042511D03*
X0084554Y0042511D03*
X0083154Y0039767D03*
X0083126Y0039767D03*
X0081390Y0060235D03*
X0081558Y0063119D03*
X0086570Y0062979D03*
X0086626Y0063007D03*
X0086654Y0063035D03*
X0086682Y0063035D03*
X0086934Y0060207D03*
X0086878Y0071323D03*
X0086850Y0071323D03*
X0081502Y0071323D03*
D231*
X0081390Y0071281D03*
X0081390Y0063189D03*
X0081418Y0063189D03*
X0086906Y0063161D03*
X0086990Y0063217D03*
X0086402Y0055769D03*
X0081866Y0055769D03*
X0087606Y0052325D03*
X0086990Y0048853D03*
X0083322Y0045437D03*
X0083266Y0045437D03*
X0084666Y0042525D03*
X0082902Y0039809D03*
D232*
X0083574Y0039669D03*
X0083602Y0039669D03*
X0084246Y0042525D03*
X0084274Y0042525D03*
X0084050Y0045577D03*
X0084022Y0045577D03*
X0084078Y0052465D03*
X0084106Y0052465D03*
X0087326Y0052465D03*
X0085814Y0055629D03*
X0085786Y0055629D03*
X0085758Y0055629D03*
X0082566Y0055629D03*
X0082538Y0055629D03*
X0082510Y0055629D03*
X0081390Y0067249D03*
X0081782Y0071421D03*
X0081810Y0071421D03*
X0086542Y0071421D03*
X0086570Y0071421D03*
D233*
X0081418Y0067249D03*
X0081586Y0063105D03*
X0081614Y0063105D03*
X0082090Y0055713D03*
X0082118Y0055713D03*
X0086178Y0055713D03*
X0086206Y0055713D03*
X0083910Y0052381D03*
X0086178Y0038577D03*
D234*
X0083014Y0039795D03*
X0082986Y0039795D03*
X0082958Y0039795D03*
X0084610Y0042511D03*
X0084638Y0042511D03*
X0083378Y0045451D03*
X0083350Y0045451D03*
X0083826Y0052339D03*
X0087578Y0052339D03*
X0086374Y0055755D03*
X0086346Y0055755D03*
X0081950Y0055755D03*
X0081922Y0055755D03*
X0086822Y0063119D03*
X0086878Y0063147D03*
X0086934Y0063175D03*
X0081446Y0063175D03*
X0081418Y0071295D03*
X0086934Y0071295D03*
X0084834Y0036211D03*
D235*
X0083070Y0039781D03*
X0083042Y0039781D03*
X0084582Y0042525D03*
X0083434Y0045465D03*
X0083406Y0045465D03*
X0084386Y0048825D03*
X0083854Y0052353D03*
X0087550Y0052353D03*
X0086318Y0055741D03*
X0086290Y0055741D03*
X0082006Y0055741D03*
X0081978Y0055741D03*
X0081502Y0063133D03*
X0081474Y0063161D03*
X0086710Y0063049D03*
X0086850Y0063133D03*
X0086934Y0067249D03*
X0086906Y0071309D03*
X0081474Y0071309D03*
X0081446Y0071309D03*
D236*
X0086878Y0067249D03*
X0086766Y0055881D03*
X0081502Y0055881D03*
X0083658Y0052213D03*
X0087746Y0052213D03*
D237*
X0086878Y0048993D03*
X0082566Y0045297D03*
X0082538Y0045297D03*
X0085058Y0042525D03*
X0082258Y0039949D03*
X0084610Y0036169D03*
X0087438Y0063525D03*
X0087466Y0063553D03*
X0081502Y0067249D03*
X0087326Y0071085D03*
D238*
X0081530Y0040089D03*
D239*
X0081530Y0055881D03*
D240*
X0081530Y0063133D03*
X0086794Y0063105D03*
X0083462Y0045465D03*
X0084862Y0036225D03*
D241*
X0084498Y0036141D03*
X0082230Y0045241D03*
X0081530Y0067249D03*
D242*
X0081530Y0071337D03*
X0086598Y0062993D03*
X0084498Y0042525D03*
D243*
X0085450Y0042497D03*
X0081586Y0040089D03*
X0081558Y0040089D03*
X0081782Y0045157D03*
X0081810Y0045157D03*
X0081838Y0045157D03*
X0084722Y0049133D03*
X0086654Y0049133D03*
X0087634Y0070861D03*
X0087606Y0070889D03*
D244*
X0087242Y0071155D03*
X0086738Y0055867D03*
X0086710Y0055867D03*
X0081558Y0055867D03*
X0082734Y0045339D03*
X0082790Y0045339D03*
D245*
X0083574Y0045493D03*
X0083602Y0045493D03*
X0083210Y0039753D03*
X0083182Y0039753D03*
X0086542Y0062965D03*
X0086822Y0071337D03*
X0081558Y0071337D03*
D246*
X0081586Y0071351D03*
X0086766Y0071351D03*
X0083686Y0045507D03*
X0083658Y0045507D03*
X0084470Y0042511D03*
X0083266Y0039739D03*
X0083238Y0039739D03*
X0084890Y0036239D03*
D247*
X0081642Y0040075D03*
X0081614Y0040075D03*
X0085422Y0042511D03*
D248*
X0084442Y0042525D03*
X0084414Y0042525D03*
X0083350Y0039725D03*
X0083322Y0039725D03*
X0081642Y0071365D03*
X0081614Y0071365D03*
X0086738Y0071365D03*
D249*
X0081642Y0063091D03*
X0081670Y0063063D03*
X0082146Y0055699D03*
X0082174Y0055699D03*
X0082202Y0055699D03*
X0086122Y0055699D03*
X0086150Y0055699D03*
X0083938Y0052395D03*
D250*
X0081670Y0040061D03*
D251*
X0081670Y0060361D03*
D252*
X0081670Y0071379D03*
X0086682Y0071379D03*
X0086710Y0071379D03*
X0084386Y0042511D03*
X0083434Y0039711D03*
X0083406Y0039711D03*
X0083378Y0039711D03*
D253*
X0081698Y0040061D03*
D254*
X0081698Y0045129D03*
X0086598Y0049161D03*
D255*
X0086598Y0055825D03*
X0081698Y0055825D03*
X0087130Y0071197D03*
D256*
X0081894Y0067249D03*
X0081698Y0060361D03*
D257*
X0081698Y0063063D03*
D258*
X0081698Y0067249D03*
X0087494Y0056217D03*
X0085898Y0049301D03*
X0085730Y0049301D03*
D259*
X0082398Y0055657D03*
X0086962Y0060193D03*
X0081698Y0071393D03*
X0084330Y0042525D03*
X0083462Y0039697D03*
D260*
X0083714Y0045521D03*
X0083742Y0045521D03*
X0084358Y0048769D03*
X0083966Y0052409D03*
X0087466Y0052409D03*
X0086066Y0055685D03*
X0086038Y0055685D03*
X0082258Y0055685D03*
X0081726Y0063049D03*
D261*
X0082370Y0055657D03*
X0085926Y0055657D03*
X0085954Y0055657D03*
X0087410Y0052437D03*
X0084022Y0052437D03*
X0087046Y0048741D03*
X0083910Y0045549D03*
X0083882Y0045549D03*
X0083854Y0045549D03*
X0084358Y0042525D03*
X0083490Y0039697D03*
X0084946Y0036253D03*
X0086654Y0071393D03*
X0081726Y0071393D03*
D262*
X0081754Y0061285D03*
D263*
X0082426Y0055643D03*
X0082454Y0055643D03*
X0082482Y0055643D03*
X0085842Y0055643D03*
X0085870Y0055643D03*
X0087354Y0052451D03*
X0087382Y0052451D03*
X0084050Y0052451D03*
X0083966Y0045563D03*
X0083938Y0045563D03*
X0084302Y0042511D03*
X0083546Y0039683D03*
X0083518Y0039683D03*
X0086122Y0038619D03*
X0086626Y0071407D03*
X0081754Y0071407D03*
D264*
X0081782Y0061271D03*
D265*
X0087018Y0063231D03*
X0086486Y0055783D03*
X0086458Y0055783D03*
X0081838Y0055783D03*
X0081810Y0055783D03*
X0087634Y0052311D03*
X0084414Y0048867D03*
X0083238Y0045423D03*
X0083210Y0045423D03*
X0083182Y0045423D03*
X0084722Y0042511D03*
X0082874Y0039823D03*
X0082846Y0039823D03*
X0084806Y0036211D03*
X0086990Y0071267D03*
X0087018Y0071267D03*
D266*
X0086458Y0061201D03*
X0081810Y0061229D03*
D267*
X0081838Y0061215D03*
X0081866Y0061187D03*
X0086290Y0061075D03*
X0086318Y0061103D03*
D268*
X0085702Y0055615D03*
X0085674Y0055615D03*
X0085646Y0055615D03*
X0082678Y0055615D03*
X0082650Y0055615D03*
X0082622Y0055615D03*
X0084134Y0052479D03*
X0084134Y0045591D03*
X0084106Y0045591D03*
X0084078Y0045591D03*
X0084218Y0042511D03*
X0083686Y0039655D03*
X0083658Y0039655D03*
X0084974Y0036267D03*
X0086514Y0071435D03*
X0081866Y0071435D03*
X0081838Y0071435D03*
D269*
X0087494Y0070987D03*
X0086794Y0049063D03*
X0081894Y0040019D03*
D270*
X0081894Y0042567D03*
D271*
X0081894Y0045171D03*
X0084162Y0036127D03*
D272*
X0082930Y0039809D03*
X0083294Y0045437D03*
X0083798Y0052325D03*
X0081894Y0055769D03*
X0086430Y0055769D03*
X0086962Y0063189D03*
X0086962Y0071281D03*
D273*
X0086262Y0061061D03*
X0081894Y0061173D03*
D274*
X0082762Y0055601D03*
X0085562Y0055601D03*
X0084162Y0052493D03*
X0084330Y0048685D03*
X0084162Y0045605D03*
X0084162Y0042525D03*
X0081894Y0071449D03*
D275*
X0081922Y0042567D03*
X0081950Y0042567D03*
X0085478Y0034727D03*
D276*
X0086374Y0061131D03*
X0086402Y0061159D03*
X0081922Y0061159D03*
D277*
X0087914Y0063693D03*
X0081922Y0067249D03*
D278*
X0081922Y0071449D03*
X0086458Y0071449D03*
X0086486Y0071449D03*
X0085618Y0055601D03*
X0085590Y0055601D03*
X0082790Y0055601D03*
X0082734Y0055601D03*
X0082706Y0055601D03*
X0087270Y0052493D03*
X0084190Y0045605D03*
X0084190Y0042525D03*
X0083770Y0039641D03*
X0083742Y0039641D03*
X0083714Y0039641D03*
X0086066Y0038689D03*
D279*
X0081950Y0061145D03*
D280*
X0087858Y0056497D03*
X0086402Y0067249D03*
X0086374Y0067249D03*
X0081978Y0067249D03*
X0081950Y0067249D03*
D281*
X0086990Y0067263D03*
X0086402Y0071463D03*
X0081978Y0071463D03*
X0081950Y0071463D03*
X0082818Y0055587D03*
X0082846Y0055587D03*
X0082874Y0055587D03*
X0085450Y0055587D03*
X0085478Y0055587D03*
X0085506Y0055587D03*
X0085534Y0055587D03*
X0084218Y0052507D03*
X0084190Y0052507D03*
X0087242Y0052507D03*
X0087074Y0048671D03*
X0084274Y0045619D03*
X0084246Y0045619D03*
X0084218Y0045619D03*
X0083826Y0039627D03*
X0085002Y0036267D03*
D282*
X0082006Y0042553D03*
X0081978Y0042553D03*
D283*
X0081978Y0061117D03*
X0086206Y0061033D03*
X0086234Y0061033D03*
X0088222Y0063693D03*
D284*
X0086178Y0061019D03*
X0086150Y0060991D03*
X0086122Y0060991D03*
X0082090Y0061047D03*
X0082034Y0061075D03*
X0082006Y0061103D03*
D285*
X0082902Y0055573D03*
X0082958Y0055573D03*
X0082986Y0055573D03*
X0083014Y0055573D03*
X0083042Y0055573D03*
X0085310Y0055573D03*
X0085338Y0055573D03*
X0085366Y0055573D03*
X0085422Y0055573D03*
X0084246Y0052521D03*
X0087186Y0052521D03*
X0087214Y0052521D03*
X0084358Y0045633D03*
X0084302Y0045633D03*
X0084134Y0042525D03*
X0084106Y0042525D03*
X0084078Y0042525D03*
X0083910Y0039613D03*
X0083882Y0039613D03*
X0083854Y0039613D03*
X0086038Y0038717D03*
X0086178Y0032641D03*
X0086346Y0071477D03*
X0086374Y0071477D03*
X0082034Y0071477D03*
X0082006Y0071477D03*
D286*
X0082034Y0042567D03*
X0085534Y0034755D03*
D287*
X0086234Y0055727D03*
X0082034Y0055727D03*
D288*
X0087914Y0056553D03*
X0086318Y0067249D03*
X0082034Y0067249D03*
D289*
X0086962Y0055951D03*
X0087830Y0052143D03*
X0085198Y0042511D03*
X0082062Y0039991D03*
D290*
X0082062Y0042553D03*
D291*
X0082062Y0055727D03*
X0086262Y0055727D03*
D292*
X0082062Y0067249D03*
D293*
X0082062Y0071491D03*
X0087130Y0022715D03*
X0087298Y0022715D03*
X0087494Y0022715D03*
X0087662Y0022715D03*
X0087830Y0022715D03*
X0087998Y0022715D03*
D294*
X0082090Y0042553D03*
D295*
X0083938Y0039599D03*
X0083966Y0039599D03*
X0084386Y0045647D03*
X0084414Y0045647D03*
X0084302Y0052535D03*
X0084274Y0052535D03*
X0087158Y0052535D03*
X0086990Y0060179D03*
X0086318Y0071491D03*
X0086290Y0071491D03*
X0082090Y0071491D03*
X0087018Y0022715D03*
X0087046Y0022715D03*
X0087074Y0022715D03*
X0087102Y0022715D03*
X0087158Y0022715D03*
X0087186Y0022715D03*
X0087214Y0022715D03*
X0087242Y0022715D03*
X0087270Y0022715D03*
X0087326Y0022715D03*
X0087354Y0022715D03*
X0087382Y0022715D03*
X0087410Y0022715D03*
X0087438Y0022715D03*
X0087466Y0022715D03*
X0087522Y0022715D03*
X0087550Y0022715D03*
X0087578Y0022715D03*
X0087606Y0022715D03*
X0087634Y0022715D03*
X0087690Y0022715D03*
X0087718Y0022715D03*
X0087746Y0022715D03*
X0087774Y0022715D03*
X0087802Y0022715D03*
X0087858Y0022715D03*
X0087886Y0022715D03*
X0087914Y0022715D03*
X0087942Y0022715D03*
X0087970Y0022715D03*
X0088026Y0022715D03*
X0088054Y0022715D03*
X0088082Y0022715D03*
X0088110Y0022715D03*
X0088138Y0022715D03*
X0088166Y0022715D03*
D296*
X0082118Y0042567D03*
D297*
X0084022Y0042525D03*
X0084050Y0042525D03*
X0084022Y0039585D03*
X0085954Y0038801D03*
X0084470Y0045661D03*
X0084442Y0045661D03*
X0086234Y0071505D03*
X0082146Y0071505D03*
X0082118Y0071505D03*
D298*
X0082146Y0042553D03*
X0082174Y0042553D03*
X0085590Y0034769D03*
D299*
X0085786Y0060823D03*
X0085842Y0060851D03*
X0085870Y0060851D03*
X0085926Y0060879D03*
X0085982Y0060907D03*
X0082342Y0060907D03*
X0082286Y0060935D03*
X0082174Y0060991D03*
D300*
X0082174Y0071519D03*
X0082202Y0071519D03*
X0086150Y0071519D03*
X0086178Y0071519D03*
X0086206Y0071519D03*
X0084582Y0045675D03*
X0084554Y0045675D03*
X0084526Y0045675D03*
X0084106Y0039571D03*
X0084078Y0039571D03*
X0084050Y0039571D03*
D301*
X0082202Y0042567D03*
X0083238Y0047999D03*
X0085618Y0034783D03*
D302*
X0082230Y0039949D03*
D303*
X0082230Y0042553D03*
D304*
X0082230Y0055685D03*
X0086094Y0055685D03*
D305*
X0085898Y0060879D03*
X0082230Y0060963D03*
D306*
X0082230Y0071533D03*
X0086094Y0071533D03*
X0084162Y0039557D03*
D307*
X0082258Y0042553D03*
X0085646Y0034797D03*
D308*
X0085590Y0060753D03*
X0085674Y0060781D03*
X0085758Y0060809D03*
X0085814Y0060837D03*
X0082510Y0060837D03*
X0082482Y0060837D03*
X0082426Y0060865D03*
X0082370Y0060893D03*
X0082314Y0060921D03*
X0082258Y0060949D03*
D309*
X0082258Y0071533D03*
X0082286Y0071533D03*
X0086122Y0071533D03*
X0083966Y0042525D03*
X0083938Y0042525D03*
X0083910Y0042525D03*
X0084134Y0039557D03*
X0085926Y0038829D03*
D310*
X0085674Y0034825D03*
X0082342Y0042553D03*
X0082314Y0042553D03*
X0082286Y0042553D03*
D311*
X0083770Y0045535D03*
X0083826Y0045535D03*
X0087438Y0052423D03*
X0086010Y0055671D03*
X0085982Y0055671D03*
X0082342Y0055671D03*
X0082314Y0055671D03*
X0082286Y0055671D03*
X0086150Y0038591D03*
X0084918Y0036239D03*
D312*
X0086010Y0067249D03*
X0086038Y0067249D03*
X0082342Y0067249D03*
X0082314Y0067249D03*
X0088250Y0069881D03*
D313*
X0086066Y0071547D03*
X0086038Y0071547D03*
X0086010Y0071547D03*
X0082342Y0071547D03*
X0082314Y0071547D03*
X0084190Y0039543D03*
X0084218Y0039543D03*
X0084246Y0039543D03*
D314*
X0082370Y0042539D03*
D315*
X0082370Y0067249D03*
X0085954Y0067249D03*
X0085982Y0067249D03*
D316*
X0087018Y0067249D03*
X0085982Y0071561D03*
X0085954Y0071561D03*
X0082426Y0071561D03*
X0082370Y0071561D03*
X0084526Y0052605D03*
X0084554Y0052605D03*
X0086934Y0052605D03*
X0084778Y0045717D03*
X0084750Y0045717D03*
X0083882Y0042525D03*
X0083854Y0042525D03*
X0084274Y0039529D03*
X0084302Y0039529D03*
X0084358Y0039501D03*
X0084386Y0039501D03*
X0085814Y0038913D03*
X0085842Y0038885D03*
D317*
X0082398Y0039921D03*
D318*
X0082398Y0042553D03*
D319*
X0082398Y0060893D03*
X0085730Y0060809D03*
D320*
X0082398Y0067249D03*
D321*
X0082398Y0071561D03*
D322*
X0082426Y0042553D03*
D323*
X0082454Y0042539D03*
D324*
X0082874Y0060711D03*
X0082790Y0060739D03*
X0082706Y0060767D03*
X0082678Y0060767D03*
X0082622Y0060795D03*
X0082566Y0060823D03*
X0082538Y0060823D03*
X0082454Y0060851D03*
X0085338Y0060683D03*
X0085422Y0060711D03*
X0085450Y0060711D03*
X0085478Y0060711D03*
X0085506Y0060739D03*
X0085534Y0060739D03*
X0085618Y0060767D03*
X0085646Y0060767D03*
X0085702Y0060795D03*
D325*
X0084610Y0052619D03*
X0084582Y0052619D03*
X0086850Y0052619D03*
X0086878Y0052619D03*
X0086906Y0052619D03*
X0084834Y0045731D03*
X0084806Y0045731D03*
X0083826Y0042539D03*
X0084414Y0039487D03*
X0084442Y0039487D03*
X0085758Y0038955D03*
X0085786Y0038927D03*
X0085842Y0071575D03*
X0085870Y0071575D03*
X0085926Y0071575D03*
X0082510Y0071575D03*
X0082482Y0071575D03*
X0082454Y0071575D03*
D326*
X0082482Y0042553D03*
X0082510Y0042553D03*
D327*
X0082510Y0067249D03*
X0082482Y0067249D03*
X0085842Y0067249D03*
X0085870Y0067249D03*
D328*
X0082538Y0042539D03*
X0085226Y0036323D03*
X0085758Y0034867D03*
D329*
X0085786Y0067249D03*
X0085758Y0067249D03*
X0082566Y0067249D03*
X0082538Y0067249D03*
D330*
X0082538Y0071589D03*
X0082566Y0071589D03*
X0085758Y0071589D03*
X0085786Y0071589D03*
X0085814Y0071589D03*
X0087018Y0060193D03*
X0086822Y0052633D03*
X0084666Y0052633D03*
X0084638Y0052633D03*
X0084890Y0045745D03*
X0084918Y0045745D03*
X0084946Y0045745D03*
X0083770Y0042525D03*
X0084470Y0039473D03*
X0084526Y0039473D03*
X0086178Y0035189D03*
D331*
X0085786Y0034881D03*
X0082566Y0042553D03*
D332*
X0082594Y0042539D03*
D333*
X0085030Y0042511D03*
X0082594Y0045311D03*
X0084498Y0048979D03*
D334*
X0085562Y0060739D03*
X0082594Y0060795D03*
D335*
X0082594Y0067235D03*
D336*
X0082594Y0071589D03*
X0084694Y0052633D03*
X0086794Y0052633D03*
X0083798Y0042525D03*
X0084498Y0039473D03*
X0085730Y0038969D03*
D337*
X0085814Y0034895D03*
X0082650Y0042539D03*
X0082622Y0042539D03*
D338*
X0084554Y0039459D03*
X0084582Y0039459D03*
X0084610Y0039431D03*
X0084638Y0039431D03*
X0085618Y0039039D03*
X0085674Y0039011D03*
X0085702Y0038983D03*
X0085086Y0036295D03*
X0085002Y0045759D03*
X0084974Y0045759D03*
X0084750Y0052647D03*
X0084722Y0052647D03*
X0086738Y0052647D03*
X0086766Y0052647D03*
X0085702Y0071603D03*
X0085674Y0071603D03*
X0082706Y0071603D03*
X0082678Y0071603D03*
X0082650Y0071603D03*
X0082622Y0071603D03*
D339*
X0082650Y0060781D03*
X0082734Y0060753D03*
X0082818Y0060725D03*
X0082846Y0060725D03*
X0082902Y0060697D03*
X0082958Y0060697D03*
X0083014Y0060669D03*
X0083042Y0060669D03*
X0083070Y0060669D03*
X0083154Y0060641D03*
X0083182Y0060641D03*
X0083322Y0060613D03*
X0083350Y0060613D03*
X0084778Y0060585D03*
X0084946Y0060613D03*
X0084974Y0060613D03*
X0085002Y0060613D03*
X0085114Y0060641D03*
X0085142Y0060641D03*
X0085170Y0060641D03*
X0085226Y0060669D03*
X0085254Y0060669D03*
X0085282Y0060669D03*
X0085310Y0060669D03*
X0085366Y0060697D03*
D340*
X0082734Y0042539D03*
X0082706Y0042539D03*
X0082678Y0042539D03*
D341*
X0082678Y0067249D03*
X0082706Y0067249D03*
X0082734Y0067249D03*
X0085618Y0067249D03*
X0085646Y0067249D03*
X0085674Y0067249D03*
D342*
X0087130Y0063301D03*
X0082762Y0039837D03*
D343*
X0082762Y0042539D03*
D344*
X0082762Y0045339D03*
D345*
X0082930Y0060697D03*
X0082762Y0060753D03*
X0085030Y0060613D03*
X0085198Y0060641D03*
X0085394Y0060697D03*
D346*
X0085562Y0067249D03*
X0082762Y0067249D03*
D347*
X0082762Y0071617D03*
X0085562Y0071617D03*
X0085030Y0045773D03*
X0084694Y0039417D03*
D348*
X0082818Y0042539D03*
X0082790Y0042539D03*
X0085870Y0034923D03*
D349*
X0085590Y0067249D03*
X0085534Y0067249D03*
X0082818Y0067249D03*
X0082790Y0067249D03*
D350*
X0082818Y0071631D03*
X0082846Y0071631D03*
X0082874Y0071631D03*
X0082902Y0071631D03*
X0085450Y0071631D03*
X0085478Y0071631D03*
X0085506Y0071631D03*
X0085534Y0071631D03*
X0084946Y0052675D03*
X0084918Y0052675D03*
X0084890Y0052675D03*
X0086542Y0052675D03*
X0086570Y0052675D03*
X0086626Y0052675D03*
X0085170Y0045787D03*
X0085142Y0045787D03*
X0085114Y0045787D03*
X0084750Y0039403D03*
X0084806Y0039375D03*
X0084834Y0039375D03*
X0084890Y0039347D03*
X0084918Y0039347D03*
X0085002Y0039319D03*
X0085142Y0039263D03*
X0085338Y0039179D03*
X0085450Y0039123D03*
X0085478Y0039123D03*
X0085506Y0039095D03*
X0086150Y0035175D03*
D351*
X0082874Y0042539D03*
X0082846Y0042539D03*
D352*
X0082846Y0067249D03*
X0082874Y0067249D03*
X0082902Y0067249D03*
X0085450Y0067249D03*
X0085478Y0067249D03*
D353*
X0082930Y0042539D03*
X0085198Y0036323D03*
D354*
X0084330Y0045633D03*
X0085394Y0055573D03*
X0082930Y0055573D03*
D355*
X0082930Y0067249D03*
X0085394Y0067249D03*
D356*
X0085394Y0071645D03*
X0082930Y0071645D03*
X0085030Y0052689D03*
X0086430Y0052689D03*
X0085198Y0045801D03*
X0083630Y0042525D03*
X0085030Y0039305D03*
X0085198Y0039249D03*
D357*
X0082958Y0042539D03*
D358*
X0088110Y0063693D03*
X0085366Y0067249D03*
X0085338Y0067249D03*
X0083014Y0067249D03*
X0082986Y0067249D03*
X0082958Y0067249D03*
D359*
X0082958Y0071645D03*
X0082986Y0071645D03*
X0083014Y0071645D03*
X0083042Y0071645D03*
X0083070Y0071645D03*
X0085310Y0071645D03*
X0085338Y0071645D03*
X0085366Y0071645D03*
X0085422Y0071645D03*
X0085086Y0052689D03*
X0085058Y0052689D03*
X0085002Y0052689D03*
X0084974Y0052689D03*
X0086458Y0052689D03*
X0086486Y0052689D03*
X0086514Y0052689D03*
X0085226Y0045801D03*
X0083658Y0042525D03*
X0083602Y0042525D03*
X0084946Y0039333D03*
X0084974Y0039333D03*
X0085058Y0039305D03*
X0085086Y0039277D03*
X0085114Y0039277D03*
X0085170Y0039249D03*
X0085226Y0039221D03*
X0085254Y0039221D03*
X0085282Y0039193D03*
X0085310Y0039193D03*
X0085366Y0039165D03*
X0085422Y0039137D03*
X0085114Y0036309D03*
D360*
X0085954Y0034993D03*
X0082986Y0042525D03*
D361*
X0084078Y0060543D03*
X0084106Y0060543D03*
X0084134Y0060543D03*
X0084190Y0060543D03*
X0084218Y0060543D03*
X0084246Y0060543D03*
X0084274Y0060543D03*
X0084442Y0060571D03*
X0084470Y0060571D03*
X0084526Y0060571D03*
X0084554Y0060571D03*
X0084582Y0060571D03*
X0084610Y0060571D03*
X0084638Y0060571D03*
X0084666Y0060571D03*
X0084722Y0060571D03*
X0084750Y0060571D03*
X0084806Y0060599D03*
X0084834Y0060599D03*
X0084890Y0060599D03*
X0084918Y0060599D03*
X0085058Y0060627D03*
X0085086Y0060627D03*
X0083882Y0060571D03*
X0083854Y0060571D03*
X0083826Y0060571D03*
X0083770Y0060571D03*
X0083742Y0060571D03*
X0083714Y0060571D03*
X0083686Y0060571D03*
X0083658Y0060571D03*
X0083602Y0060571D03*
X0083574Y0060571D03*
X0083546Y0060599D03*
X0083518Y0060599D03*
X0083490Y0060599D03*
X0083434Y0060599D03*
X0083406Y0060599D03*
X0083378Y0060599D03*
X0083266Y0060627D03*
X0083238Y0060627D03*
X0083210Y0060627D03*
X0083126Y0060655D03*
X0082986Y0060683D03*
D362*
X0083014Y0042539D03*
X0083042Y0042539D03*
D363*
X0083042Y0067249D03*
X0083070Y0067249D03*
X0083126Y0067249D03*
X0085226Y0067249D03*
X0085254Y0067249D03*
X0085282Y0067249D03*
D364*
X0083070Y0042525D03*
X0087074Y0030037D03*
X0087102Y0030037D03*
X0087158Y0030037D03*
X0087186Y0030037D03*
X0087214Y0030037D03*
X0087242Y0030037D03*
X0087270Y0030037D03*
X0087326Y0030037D03*
X0087354Y0030037D03*
X0087382Y0030037D03*
X0087410Y0030037D03*
X0087438Y0030037D03*
X0087466Y0030037D03*
X0087522Y0030037D03*
X0087550Y0030037D03*
X0087578Y0030037D03*
X0087606Y0030037D03*
X0087634Y0030037D03*
X0087690Y0030037D03*
X0087718Y0030037D03*
X0087746Y0030037D03*
X0087774Y0030037D03*
X0087802Y0030037D03*
X0087858Y0030037D03*
X0087886Y0030037D03*
X0087914Y0030037D03*
X0087942Y0030037D03*
X0087970Y0030037D03*
X0088026Y0030037D03*
X0088054Y0030037D03*
X0088082Y0030037D03*
X0088110Y0030037D03*
X0088138Y0030037D03*
X0088166Y0030037D03*
D365*
X0086010Y0038759D03*
X0085282Y0055559D03*
X0085254Y0055559D03*
X0085226Y0055559D03*
X0085170Y0055559D03*
X0083182Y0055559D03*
X0083154Y0055559D03*
X0083126Y0055559D03*
X0083070Y0055559D03*
D366*
X0083098Y0039767D03*
D367*
X0083098Y0042539D03*
D368*
X0083098Y0045395D03*
X0086962Y0048895D03*
X0087662Y0052283D03*
D369*
X0085198Y0055559D03*
X0083098Y0055559D03*
D370*
X0083630Y0060571D03*
X0083798Y0060571D03*
X0083462Y0060599D03*
X0083294Y0060627D03*
X0083098Y0060655D03*
X0084162Y0060543D03*
X0084498Y0060571D03*
X0084694Y0060571D03*
X0084862Y0060599D03*
D371*
X0083098Y0067249D03*
D372*
X0083098Y0071659D03*
X0085198Y0071659D03*
X0085198Y0052703D03*
D373*
X0085170Y0052703D03*
X0085142Y0052703D03*
X0085114Y0052703D03*
X0085226Y0052703D03*
X0086290Y0052703D03*
X0086318Y0052703D03*
X0086346Y0052703D03*
X0086374Y0052703D03*
X0086402Y0052703D03*
X0085310Y0045815D03*
X0085282Y0045815D03*
X0085254Y0045815D03*
X0085254Y0071659D03*
X0085282Y0071659D03*
X0085226Y0071659D03*
X0085170Y0071659D03*
X0083210Y0071659D03*
X0083182Y0071659D03*
X0083154Y0071659D03*
X0083126Y0071659D03*
D374*
X0086066Y0045969D03*
X0086122Y0045969D03*
X0086178Y0045969D03*
X0083154Y0042525D03*
D375*
X0083154Y0067235D03*
D376*
X0086010Y0045955D03*
X0086038Y0045955D03*
X0083182Y0042539D03*
X0085170Y0036323D03*
X0086010Y0035035D03*
D377*
X0085170Y0067249D03*
X0085142Y0067249D03*
X0085114Y0067249D03*
X0085086Y0067249D03*
X0083266Y0067249D03*
X0083238Y0067249D03*
X0083210Y0067249D03*
X0083182Y0067249D03*
D378*
X0085926Y0045941D03*
X0085954Y0045941D03*
X0085982Y0045941D03*
X0083238Y0042525D03*
X0083210Y0042525D03*
D379*
X0083518Y0042525D03*
X0083546Y0042525D03*
X0083574Y0042525D03*
X0085338Y0045829D03*
X0085366Y0045829D03*
X0083210Y0048461D03*
X0085254Y0052717D03*
X0085282Y0052717D03*
X0085310Y0052717D03*
X0085338Y0052717D03*
X0085366Y0052717D03*
X0085422Y0052717D03*
X0085450Y0052717D03*
X0085478Y0052717D03*
X0086010Y0052717D03*
X0086038Y0052717D03*
X0086066Y0052717D03*
X0086122Y0052717D03*
X0086150Y0052717D03*
X0086178Y0052717D03*
X0086206Y0052717D03*
X0086234Y0052717D03*
X0086122Y0035133D03*
X0085142Y0071673D03*
X0085114Y0071673D03*
X0085086Y0071673D03*
X0085058Y0071673D03*
X0085002Y0071673D03*
X0084974Y0071673D03*
X0084946Y0071673D03*
X0083406Y0071673D03*
X0083378Y0071673D03*
X0083350Y0071673D03*
X0083322Y0071673D03*
X0083266Y0071673D03*
X0083238Y0071673D03*
D380*
X0083210Y0051191D03*
D381*
X0085842Y0045927D03*
X0085870Y0045927D03*
X0083266Y0042539D03*
X0086038Y0035063D03*
D382*
X0083294Y0039739D03*
X0083630Y0045507D03*
X0086794Y0071351D03*
D383*
X0083294Y0042525D03*
D384*
X0083294Y0051695D03*
D385*
X0083294Y0067235D03*
X0085030Y0067235D03*
D386*
X0085030Y0071673D03*
X0083294Y0071673D03*
X0085394Y0052717D03*
X0086094Y0052717D03*
X0086262Y0052717D03*
X0085394Y0045829D03*
D387*
X0085002Y0067249D03*
X0084974Y0067249D03*
X0084946Y0067249D03*
X0084918Y0067249D03*
X0084890Y0067249D03*
X0083434Y0067249D03*
X0083406Y0067249D03*
X0083378Y0067249D03*
X0083350Y0067249D03*
X0083322Y0067249D03*
D388*
X0085702Y0045899D03*
X0085758Y0045899D03*
X0083350Y0042539D03*
X0086066Y0035091D03*
D389*
X0083406Y0042525D03*
X0083378Y0042525D03*
X0085646Y0045885D03*
X0085674Y0045885D03*
X0087046Y0060165D03*
D390*
X0084974Y0055531D03*
X0084946Y0055531D03*
X0084918Y0055531D03*
X0084890Y0055531D03*
X0084834Y0055531D03*
X0084806Y0055531D03*
X0084778Y0055531D03*
X0084750Y0055531D03*
X0083602Y0055531D03*
X0083574Y0055531D03*
X0083546Y0055531D03*
X0083518Y0055531D03*
X0083490Y0055531D03*
X0083434Y0055531D03*
X0083406Y0055531D03*
X0084358Y0052563D03*
X0084386Y0052563D03*
X0087074Y0052563D03*
X0087102Y0052563D03*
D391*
X0085618Y0045871D03*
X0085590Y0045871D03*
X0083434Y0042539D03*
X0085142Y0036323D03*
D392*
X0083462Y0042525D03*
X0083798Y0071701D03*
X0083994Y0071701D03*
X0084162Y0071701D03*
X0084330Y0071701D03*
X0084498Y0071701D03*
D393*
X0084862Y0055531D03*
X0083630Y0055531D03*
X0083462Y0055531D03*
D394*
X0083462Y0067235D03*
X0084862Y0067235D03*
D395*
X0084862Y0071687D03*
X0084694Y0071687D03*
X0083630Y0071687D03*
X0083462Y0071687D03*
D396*
X0083686Y0071701D03*
X0083714Y0071701D03*
X0083742Y0071701D03*
X0083770Y0071701D03*
X0083826Y0071701D03*
X0083854Y0071701D03*
X0083882Y0071701D03*
X0083910Y0071701D03*
X0083938Y0071701D03*
X0083966Y0071701D03*
X0084022Y0071701D03*
X0084050Y0071701D03*
X0084078Y0071701D03*
X0084106Y0071701D03*
X0084134Y0071701D03*
X0084190Y0071701D03*
X0084218Y0071701D03*
X0084246Y0071701D03*
X0084274Y0071701D03*
X0084302Y0071701D03*
X0084358Y0071701D03*
X0084386Y0071701D03*
X0084414Y0071701D03*
X0084442Y0071701D03*
X0084470Y0071701D03*
X0084526Y0071701D03*
X0084554Y0071701D03*
X0084582Y0071701D03*
X0084610Y0071701D03*
X0084638Y0071701D03*
X0084666Y0071701D03*
X0085478Y0045857D03*
X0085506Y0045857D03*
X0085534Y0045857D03*
X0083490Y0042525D03*
D397*
X0083490Y0067235D03*
D398*
X0083518Y0067249D03*
X0083546Y0067249D03*
X0083574Y0067249D03*
X0083602Y0067249D03*
X0083658Y0067249D03*
X0083686Y0067249D03*
X0083714Y0067249D03*
X0084610Y0067249D03*
X0084638Y0067249D03*
X0084666Y0067249D03*
X0084722Y0067249D03*
X0084750Y0067249D03*
X0084778Y0067249D03*
X0084806Y0067249D03*
X0084834Y0067249D03*
D399*
X0087298Y0071099D03*
X0086794Y0055895D03*
X0083630Y0052199D03*
D400*
X0083630Y0067249D03*
X0084694Y0067249D03*
D401*
X0084722Y0055517D03*
X0084666Y0055517D03*
X0084638Y0055517D03*
X0084610Y0055517D03*
X0084582Y0055517D03*
X0084554Y0055517D03*
X0084526Y0055517D03*
X0084470Y0055517D03*
X0084442Y0055517D03*
X0084414Y0055517D03*
X0084386Y0055517D03*
X0084358Y0055517D03*
X0084302Y0055517D03*
X0084274Y0055517D03*
X0084246Y0055517D03*
X0084218Y0055517D03*
X0084190Y0055517D03*
X0084134Y0055517D03*
X0084106Y0055517D03*
X0084078Y0055517D03*
X0084050Y0055517D03*
X0084022Y0055517D03*
X0083966Y0055517D03*
X0083938Y0055517D03*
X0083910Y0055517D03*
X0083882Y0055517D03*
X0083854Y0055517D03*
X0083826Y0055517D03*
X0083770Y0055517D03*
X0083742Y0055517D03*
X0083714Y0055517D03*
X0083686Y0055517D03*
X0083658Y0055517D03*
X0084414Y0052577D03*
X0084442Y0052577D03*
X0087018Y0052577D03*
X0087046Y0052577D03*
X0084302Y0048601D03*
X0084610Y0045689D03*
X0084638Y0045689D03*
D402*
X0084582Y0067235D03*
X0084554Y0067235D03*
X0083770Y0067235D03*
X0083742Y0067235D03*
D403*
X0086794Y0060235D03*
X0083798Y0036127D03*
D404*
X0083798Y0039627D03*
X0086430Y0071463D03*
D405*
X0086962Y0067263D03*
X0083994Y0052423D03*
X0083798Y0045535D03*
D406*
X0083798Y0055517D03*
X0083994Y0055517D03*
X0084162Y0055517D03*
X0084330Y0055517D03*
X0084498Y0055517D03*
X0084694Y0055517D03*
D407*
X0084498Y0067249D03*
X0084330Y0067249D03*
X0084162Y0067249D03*
X0083994Y0067249D03*
X0083798Y0067249D03*
D408*
X0083826Y0067249D03*
X0083854Y0067249D03*
X0083882Y0067249D03*
X0083910Y0067249D03*
X0083938Y0067249D03*
X0083966Y0067249D03*
X0084022Y0067249D03*
X0084050Y0067249D03*
X0084078Y0067249D03*
X0084106Y0067249D03*
X0084134Y0067249D03*
X0084190Y0067249D03*
X0084218Y0067249D03*
X0084246Y0067249D03*
X0084274Y0067249D03*
X0084302Y0067249D03*
X0084358Y0067249D03*
X0084386Y0067249D03*
X0084414Y0067249D03*
X0084442Y0067249D03*
X0084470Y0067249D03*
X0084526Y0067249D03*
D409*
X0084414Y0060557D03*
X0084386Y0060557D03*
X0084358Y0060557D03*
X0084302Y0060557D03*
X0084050Y0060557D03*
X0084022Y0060557D03*
X0083966Y0060557D03*
X0083938Y0060557D03*
X0083910Y0060557D03*
D410*
X0083994Y0036113D03*
D411*
X0083994Y0039585D03*
X0083994Y0042525D03*
X0084498Y0045661D03*
X0086262Y0071505D03*
D412*
X0084330Y0060557D03*
X0083994Y0060557D03*
D413*
X0085898Y0071575D03*
X0084862Y0045731D03*
X0084330Y0039515D03*
D414*
X0084694Y0045703D03*
X0084498Y0052591D03*
X0086962Y0052591D03*
D415*
X0084694Y0036183D03*
D416*
X0085562Y0039067D03*
X0085394Y0039151D03*
X0084862Y0039375D03*
X0084862Y0052675D03*
X0086598Y0052675D03*
D417*
X0085030Y0049231D03*
X0085730Y0042511D03*
D418*
X0085058Y0067235D03*
D419*
X0087830Y0070679D03*
X0086262Y0049259D03*
X0085198Y0049259D03*
D420*
X0085198Y0067235D03*
D421*
X0085310Y0067235D03*
D422*
X0085394Y0042511D03*
D423*
X0085450Y0034727D03*
X0087102Y0067263D03*
D424*
X0085506Y0034741D03*
D425*
X0085506Y0052731D03*
X0085534Y0052731D03*
X0085590Y0052731D03*
X0085618Y0052731D03*
X0085646Y0052731D03*
X0085674Y0052731D03*
X0085702Y0052731D03*
X0085758Y0052731D03*
X0085786Y0052731D03*
X0085814Y0052731D03*
X0085842Y0052731D03*
X0085870Y0052731D03*
X0085926Y0052731D03*
X0085954Y0052731D03*
X0085982Y0052731D03*
D426*
X0085506Y0067235D03*
D427*
X0085562Y0034755D03*
D428*
X0085562Y0045871D03*
D429*
X0085562Y0052731D03*
X0085730Y0052731D03*
X0085898Y0052731D03*
D430*
X0085702Y0034825D03*
D431*
X0085730Y0034839D03*
D432*
X0085730Y0045899D03*
D433*
X0085730Y0067249D03*
D434*
X0085730Y0071603D03*
D435*
X0088278Y0069755D03*
X0085814Y0067235D03*
X0088138Y0056847D03*
D436*
X0085898Y0034951D03*
D437*
X0085898Y0038843D03*
D438*
X0085898Y0045927D03*
D439*
X0085898Y0055643D03*
X0086598Y0071407D03*
D440*
X0086094Y0035105D03*
D441*
X0086094Y0045969D03*
D442*
X0086094Y0049273D03*
D443*
X0086094Y0060963D03*
D444*
X0086206Y0031619D03*
D445*
X0086206Y0041993D03*
D446*
X0086234Y0031675D03*
D447*
X0086234Y0041951D03*
D448*
X0086262Y0031731D03*
D449*
X0086262Y0041881D03*
D450*
X0086262Y0067263D03*
X0088194Y0070063D03*
D451*
X0086290Y0031801D03*
D452*
X0086290Y0041811D03*
D453*
X0086318Y0031927D03*
D454*
X0086318Y0041685D03*
D455*
X0086346Y0036855D03*
X0086374Y0036855D03*
X0086402Y0036855D03*
X0086458Y0036855D03*
X0086486Y0036855D03*
X0086514Y0036855D03*
X0086542Y0036855D03*
X0086570Y0036855D03*
X0086626Y0036855D03*
X0086654Y0036855D03*
X0086682Y0036855D03*
X0086710Y0036855D03*
X0086738Y0036855D03*
X0086766Y0036855D03*
X0086822Y0036855D03*
X0086850Y0036855D03*
X0086878Y0036855D03*
X0086906Y0036855D03*
X0086934Y0036855D03*
D456*
X0086346Y0061117D03*
D457*
X0086430Y0036855D03*
X0086598Y0036855D03*
X0086794Y0036855D03*
X0086962Y0036855D03*
D458*
X0086430Y0061173D03*
D459*
X0087830Y0056469D03*
X0086430Y0067249D03*
D460*
X0086458Y0067249D03*
X0086570Y0060305D03*
D461*
X0086486Y0061215D03*
X0086514Y0061243D03*
D462*
X0086598Y0060305D03*
D463*
X0086654Y0067263D03*
X0087914Y0070567D03*
D464*
X0086766Y0063077D03*
X0086738Y0063077D03*
D465*
X0087018Y0038017D03*
X0087046Y0038017D03*
D466*
X0087046Y0067249D03*
D467*
X0087074Y0039151D03*
D468*
X0087074Y0067263D03*
D469*
X0087102Y0039165D03*
X0087158Y0039165D03*
X0087186Y0039165D03*
X0087214Y0039165D03*
X0087242Y0039165D03*
X0087270Y0039165D03*
X0087326Y0039165D03*
X0087354Y0039165D03*
X0087382Y0039165D03*
X0087410Y0039165D03*
X0087438Y0039165D03*
X0087466Y0039165D03*
X0087522Y0039165D03*
X0087550Y0039165D03*
X0087578Y0039165D03*
X0087606Y0039165D03*
X0087634Y0039165D03*
X0087690Y0039165D03*
X0087718Y0039165D03*
X0087746Y0039165D03*
X0087774Y0039165D03*
X0087802Y0039165D03*
X0087858Y0039165D03*
X0087886Y0039165D03*
X0087914Y0039165D03*
X0087942Y0039165D03*
X0087970Y0039165D03*
X0088026Y0039165D03*
X0088054Y0039165D03*
X0088082Y0039165D03*
X0088110Y0039165D03*
X0088138Y0039165D03*
X0088166Y0039165D03*
D470*
X0087998Y0030037D03*
X0087830Y0030037D03*
X0087662Y0030037D03*
X0087494Y0030037D03*
X0087298Y0030037D03*
X0087130Y0030037D03*
D471*
X0087130Y0039165D03*
X0087298Y0039165D03*
X0087494Y0039165D03*
X0087662Y0039165D03*
X0087830Y0039165D03*
X0087998Y0039165D03*
X0088194Y0039165D03*
D472*
X0087298Y0052479D03*
D473*
X0087298Y0063413D03*
D474*
X0087494Y0052381D03*
D475*
X0087494Y0063567D03*
D476*
X0087662Y0070847D03*
D477*
X0087746Y0056399D03*
D478*
X0087886Y0063693D03*
X0088082Y0070301D03*
D479*
X0087942Y0056595D03*
D480*
X0087998Y0056651D03*
D481*
X0088026Y0063693D03*
D482*
X0088054Y0063707D03*
D483*
X0088082Y0063693D03*
D484*
X0088166Y0056903D03*
D485*
X0088194Y0026201D03*
D486*
X0088194Y0054243D03*
D487*
X0088194Y0063693D03*
D488*
X0088222Y0026201D03*
X0088250Y0026201D03*
D489*
X0088222Y0045591D03*
D490*
X0088250Y0045689D03*
D491*
X0088278Y0026215D03*
D492*
X0088278Y0063679D03*
D493*
X0088306Y0046865D03*
X0088334Y0046865D03*
D494*
X0088362Y0046851D03*
D495*
X0088390Y0046837D03*
D496*
X0088418Y0046823D03*
X0088446Y0046823D03*
D497*
X0088474Y0046809D03*
D498*
X0088502Y0046795D03*
D499*
X0088530Y0046781D03*
D500*
X0088558Y0046767D03*
D501*
X0088586Y0046753D03*
D502*
X0088614Y0046739D03*
X0088642Y0046739D03*
D503*
X0088670Y0046725D03*
D504*
X0088698Y0046711D03*
D505*
X0088726Y0046697D03*
D506*
X0088754Y0046669D03*
D507*
X0088782Y0046655D03*
D508*
X0088810Y0046641D03*
D509*
X0088838Y0046627D03*
D510*
X0088866Y0046613D03*
D511*
X0088894Y0046599D03*
D512*
X0088922Y0046571D03*
D513*
X0088950Y0046557D03*
D514*
X0088978Y0046543D03*
D515*
X0089006Y0046515D03*
D516*
X0089034Y0046501D03*
D517*
X0089062Y0046473D03*
D518*
X0089090Y0046445D03*
D519*
X0089118Y0046431D03*
D520*
X0089146Y0046403D03*
D521*
X0089174Y0046375D03*
D522*
X0089202Y0046347D03*
D523*
X0089230Y0046319D03*
D524*
X0089258Y0046291D03*
D525*
X0089286Y0046249D03*
D526*
X0089314Y0046207D03*
D527*
X0089342Y0046179D03*
D528*
X0089370Y0046123D03*
D529*
X0089398Y0046067D03*
D530*
X0089426Y0045997D03*
D531*
X0089454Y0045899D03*
D532*
X0084542Y0074396D02*
X0083102Y0074396D01*
X0082909Y0076301D01*
X0082268Y0076506D01*
X0081670Y0076814D01*
X0080186Y0075604D01*
X0079168Y0076621D01*
X0080379Y0078105D01*
X0080071Y0078703D01*
X0082117Y0079551D01*
X0082329Y0079172D01*
X0082623Y0078854D01*
X0082984Y0078613D01*
X0083391Y0078462D01*
X0083822Y0078411D01*
X0084261Y0078464D01*
X0084674Y0078620D01*
X0085039Y0078870D01*
X0085333Y0079198D01*
X0085542Y0079588D01*
X0085651Y0080016D01*
X0085656Y0080458D01*
X0085556Y0080888D01*
X0085356Y0081282D01*
X0085068Y0081617D01*
X0084709Y0081875D01*
X0084299Y0082039D01*
X0083862Y0082102D01*
X0083422Y0082058D01*
X0083006Y0081912D01*
X0082636Y0081671D01*
X0082334Y0081348D01*
X0082117Y0080963D01*
X0080071Y0081811D01*
X0080379Y0082409D01*
X0079168Y0083893D01*
X0080186Y0084911D01*
X0081670Y0083700D01*
X0082268Y0084008D01*
X0082909Y0084213D01*
X0083102Y0086118D01*
X0084542Y0086118D01*
X0084735Y0084213D01*
X0085376Y0084008D01*
X0085974Y0083700D01*
X0087458Y0084911D01*
X0088476Y0083893D01*
X0087265Y0082409D01*
X0087573Y0081811D01*
X0087778Y0081170D01*
X0089683Y0080977D01*
X0089683Y0079537D01*
X0087778Y0079344D01*
X0087573Y0078703D01*
X0087265Y0078105D01*
X0088476Y0076621D01*
X0087458Y0075604D01*
X0085974Y0076814D01*
X0085376Y0076506D01*
X0084735Y0076301D01*
X0084542Y0074396D01*
X0084597Y0074944D02*
X0083047Y0074944D01*
X0082987Y0075533D02*
X0084657Y0075533D01*
X0084717Y0076122D02*
X0082927Y0076122D01*
X0081870Y0076711D02*
X0085774Y0076711D01*
X0086099Y0076711D02*
X0088402Y0076711D01*
X0087976Y0076122D02*
X0086822Y0076122D01*
X0087922Y0077300D02*
X0079722Y0077300D01*
X0079242Y0076711D02*
X0081545Y0076711D01*
X0080822Y0076122D02*
X0079668Y0076122D01*
X0080202Y0077889D02*
X0087442Y0077889D01*
X0087457Y0078478D02*
X0084298Y0078478D01*
X0083348Y0078478D02*
X0080187Y0078478D01*
X0080950Y0079067D02*
X0082426Y0079067D01*
X0082404Y0081424D02*
X0081006Y0081424D01*
X0080175Y0082013D02*
X0083292Y0082013D01*
X0084365Y0082013D02*
X0087469Y0082013D01*
X0087423Y0082602D02*
X0080221Y0082602D01*
X0079741Y0083191D02*
X0087903Y0083191D01*
X0088383Y0083780D02*
X0086071Y0083780D01*
X0085819Y0083780D02*
X0081825Y0083780D01*
X0081573Y0083780D02*
X0079261Y0083780D01*
X0079645Y0084369D02*
X0080850Y0084369D01*
X0082924Y0084369D02*
X0084720Y0084369D01*
X0084660Y0084958D02*
X0082984Y0084958D01*
X0083044Y0085547D02*
X0084600Y0085547D01*
X0086794Y0084369D02*
X0087999Y0084369D01*
X0087697Y0081424D02*
X0085234Y0081424D01*
X0085568Y0080835D02*
X0089683Y0080835D01*
X0089683Y0080246D02*
X0085654Y0080246D01*
X0085559Y0079657D02*
X0089683Y0079657D01*
X0087690Y0079067D02*
X0085216Y0079067D01*
D533*
X0049550Y0058433D02*
X0045050Y0058433D01*
X0044990Y0058431D01*
X0044929Y0058426D01*
X0044870Y0058417D01*
X0044811Y0058404D01*
X0044752Y0058388D01*
X0044695Y0058368D01*
X0044640Y0058345D01*
X0044585Y0058318D01*
X0044533Y0058289D01*
X0044482Y0058256D01*
X0044433Y0058220D01*
X0044387Y0058182D01*
X0044343Y0058140D01*
X0044301Y0058096D01*
X0044263Y0058050D01*
X0044227Y0058001D01*
X0044194Y0057950D01*
X0044165Y0057898D01*
X0044138Y0057843D01*
X0044115Y0057788D01*
X0044095Y0057731D01*
X0044079Y0057672D01*
X0044066Y0057613D01*
X0044057Y0057554D01*
X0044052Y0057493D01*
X0044050Y0057433D01*
X0049550Y0058433D02*
X0049610Y0058431D01*
X0049671Y0058426D01*
X0049730Y0058417D01*
X0049789Y0058404D01*
X0049848Y0058388D01*
X0049905Y0058368D01*
X0049960Y0058345D01*
X0050015Y0058318D01*
X0050067Y0058289D01*
X0050118Y0058256D01*
X0050167Y0058220D01*
X0050213Y0058182D01*
X0050257Y0058140D01*
X0050299Y0058096D01*
X0050337Y0058050D01*
X0050373Y0058001D01*
X0050406Y0057950D01*
X0050435Y0057898D01*
X0050462Y0057843D01*
X0050485Y0057788D01*
X0050505Y0057731D01*
X0050521Y0057672D01*
X0050534Y0057613D01*
X0050543Y0057554D01*
X0050548Y0057493D01*
X0050550Y0057433D01*
X0050550Y0050433D02*
X0050548Y0050373D01*
X0050543Y0050312D01*
X0050534Y0050253D01*
X0050521Y0050194D01*
X0050505Y0050135D01*
X0050485Y0050078D01*
X0050462Y0050023D01*
X0050435Y0049968D01*
X0050406Y0049916D01*
X0050373Y0049865D01*
X0050337Y0049816D01*
X0050299Y0049770D01*
X0050257Y0049726D01*
X0050213Y0049684D01*
X0050167Y0049646D01*
X0050118Y0049610D01*
X0050067Y0049577D01*
X0050015Y0049548D01*
X0049960Y0049521D01*
X0049905Y0049498D01*
X0049848Y0049478D01*
X0049789Y0049462D01*
X0049730Y0049449D01*
X0049671Y0049440D01*
X0049610Y0049435D01*
X0049550Y0049433D01*
X0045050Y0049433D01*
X0044990Y0049435D01*
X0044929Y0049440D01*
X0044870Y0049449D01*
X0044811Y0049462D01*
X0044752Y0049478D01*
X0044695Y0049498D01*
X0044640Y0049521D01*
X0044585Y0049548D01*
X0044533Y0049577D01*
X0044482Y0049610D01*
X0044433Y0049646D01*
X0044387Y0049684D01*
X0044343Y0049726D01*
X0044301Y0049770D01*
X0044263Y0049816D01*
X0044227Y0049865D01*
X0044194Y0049916D01*
X0044165Y0049968D01*
X0044138Y0050023D01*
X0044115Y0050078D01*
X0044095Y0050135D01*
X0044079Y0050194D01*
X0044066Y0050253D01*
X0044057Y0050312D01*
X0044052Y0050373D01*
X0044050Y0050433D01*
M02*
