G75*
%MOIN*%
%OFA0B0*%
%FSLAX25Y25*%
%IPPOS*%
%LPD*%
%AMOC8*
5,1,8,0,0,1.08239X$1,22.5*
%
%ADD10C,0.00300*%
%ADD11C,0.00500*%
%ADD12C,0.00600*%
%ADD13C,0.00800*%
D10*
X0009263Y0028533D02*
X0011097Y0028533D01*
X0012503Y0028533D02*
X0013420Y0028533D01*
X0013479Y0028535D01*
X0013537Y0028541D01*
X0013595Y0028550D01*
X0013653Y0028563D01*
X0013709Y0028580D01*
X0013764Y0028600D01*
X0013818Y0028624D01*
X0013870Y0028651D01*
X0013920Y0028681D01*
X0013968Y0028715D01*
X0014014Y0028752D01*
X0014058Y0028791D01*
X0014099Y0028834D01*
X0014137Y0028878D01*
X0014172Y0028925D01*
X0014204Y0028975D01*
X0014233Y0029026D01*
X0014259Y0029079D01*
X0014281Y0029133D01*
X0014299Y0029189D01*
X0014314Y0029246D01*
X0014325Y0029304D01*
X0014333Y0029362D01*
X0014337Y0029421D01*
X0014337Y0029479D01*
X0014333Y0029538D01*
X0014325Y0029596D01*
X0014314Y0029654D01*
X0014299Y0029711D01*
X0014281Y0029767D01*
X0014259Y0029821D01*
X0014233Y0029874D01*
X0014204Y0029925D01*
X0014172Y0029975D01*
X0014137Y0030022D01*
X0014099Y0030066D01*
X0014058Y0030109D01*
X0014014Y0030148D01*
X0013968Y0030185D01*
X0013920Y0030219D01*
X0013870Y0030249D01*
X0013818Y0030276D01*
X0013764Y0030300D01*
X0013709Y0030320D01*
X0013653Y0030337D01*
X0013595Y0030350D01*
X0013537Y0030359D01*
X0013479Y0030365D01*
X0013420Y0030367D01*
X0013603Y0030366D02*
X0012870Y0030366D01*
X0013603Y0030367D02*
X0013655Y0030369D01*
X0013707Y0030374D01*
X0013759Y0030384D01*
X0013810Y0030397D01*
X0013859Y0030413D01*
X0013907Y0030433D01*
X0013954Y0030457D01*
X0013999Y0030483D01*
X0014042Y0030513D01*
X0014083Y0030546D01*
X0014121Y0030582D01*
X0014157Y0030620D01*
X0014190Y0030661D01*
X0014220Y0030704D01*
X0014246Y0030749D01*
X0014270Y0030796D01*
X0014290Y0030844D01*
X0014306Y0030893D01*
X0014319Y0030944D01*
X0014329Y0030996D01*
X0014334Y0031048D01*
X0014336Y0031100D01*
X0014334Y0031152D01*
X0014329Y0031204D01*
X0014319Y0031256D01*
X0014306Y0031307D01*
X0014290Y0031356D01*
X0014270Y0031404D01*
X0014246Y0031451D01*
X0014220Y0031496D01*
X0014190Y0031539D01*
X0014157Y0031580D01*
X0014121Y0031618D01*
X0014083Y0031654D01*
X0014042Y0031687D01*
X0013999Y0031717D01*
X0013954Y0031743D01*
X0013907Y0031767D01*
X0013859Y0031787D01*
X0013810Y0031803D01*
X0013759Y0031816D01*
X0013707Y0031826D01*
X0013655Y0031831D01*
X0013603Y0031833D01*
X0012503Y0031833D01*
X0010822Y0030366D02*
X0009263Y0028533D01*
X0009264Y0031100D02*
X0009285Y0031159D01*
X0009310Y0031218D01*
X0009338Y0031275D01*
X0009370Y0031330D01*
X0009405Y0031383D01*
X0009443Y0031433D01*
X0009484Y0031482D01*
X0009528Y0031528D01*
X0009574Y0031571D01*
X0009623Y0031611D01*
X0009674Y0031649D01*
X0009728Y0031683D01*
X0009783Y0031714D01*
X0009841Y0031741D01*
X0009899Y0031765D01*
X0009959Y0031786D01*
X0010021Y0031803D01*
X0010083Y0031816D01*
X0010145Y0031825D01*
X0010209Y0031831D01*
X0010272Y0031833D01*
X0010328Y0031831D01*
X0010384Y0031825D01*
X0010440Y0031816D01*
X0010495Y0031802D01*
X0010548Y0031785D01*
X0010601Y0031765D01*
X0010652Y0031741D01*
X0010701Y0031713D01*
X0010748Y0031682D01*
X0010793Y0031648D01*
X0010835Y0031611D01*
X0010875Y0031571D01*
X0010912Y0031529D01*
X0010946Y0031484D01*
X0010977Y0031437D01*
X0011005Y0031388D01*
X0011029Y0031337D01*
X0011049Y0031284D01*
X0011066Y0031231D01*
X0011080Y0031176D01*
X0011089Y0031120D01*
X0011095Y0031064D01*
X0011097Y0031008D01*
X0011095Y0030953D01*
X0011090Y0030898D01*
X0011082Y0030843D01*
X0011070Y0030790D01*
X0011054Y0030736D01*
X0011036Y0030685D01*
X0011014Y0030634D01*
X0010989Y0030585D01*
X0010961Y0030537D01*
X0010931Y0030491D01*
X0010897Y0030447D01*
X0010861Y0030406D01*
X0010822Y0030366D01*
X0019263Y0031100D02*
X0020180Y0031833D01*
X0020180Y0028533D01*
X0019263Y0028533D02*
X0021097Y0028533D01*
X0022870Y0028533D02*
X0022944Y0028535D01*
X0023018Y0028541D01*
X0023092Y0028550D01*
X0023165Y0028563D01*
X0023238Y0028580D01*
X0023309Y0028600D01*
X0023379Y0028624D01*
X0023449Y0028652D01*
X0023516Y0028683D01*
X0023582Y0028717D01*
X0023646Y0028755D01*
X0023708Y0028796D01*
X0023768Y0028840D01*
X0023826Y0028887D01*
X0023881Y0028937D01*
X0023933Y0028989D01*
X0023983Y0029044D01*
X0024030Y0029102D01*
X0024074Y0029162D01*
X0024115Y0029224D01*
X0024153Y0029288D01*
X0024187Y0029354D01*
X0024218Y0029421D01*
X0024246Y0029491D01*
X0024270Y0029561D01*
X0024290Y0029632D01*
X0024307Y0029705D01*
X0024320Y0029778D01*
X0024329Y0029852D01*
X0024335Y0029926D01*
X0024337Y0030000D01*
X0024337Y0030916D01*
X0024337Y0030000D02*
X0023237Y0030000D01*
X0023185Y0030002D01*
X0023133Y0030007D01*
X0023081Y0030017D01*
X0023030Y0030030D01*
X0022981Y0030046D01*
X0022933Y0030066D01*
X0022886Y0030090D01*
X0022841Y0030116D01*
X0022798Y0030146D01*
X0022757Y0030179D01*
X0022719Y0030215D01*
X0022683Y0030253D01*
X0022650Y0030294D01*
X0022620Y0030337D01*
X0022594Y0030382D01*
X0022570Y0030429D01*
X0022550Y0030477D01*
X0022534Y0030526D01*
X0022521Y0030577D01*
X0022511Y0030629D01*
X0022506Y0030681D01*
X0022504Y0030733D01*
X0022503Y0030733D02*
X0022503Y0030916D01*
X0022505Y0030975D01*
X0022511Y0031033D01*
X0022520Y0031091D01*
X0022533Y0031149D01*
X0022550Y0031205D01*
X0022570Y0031260D01*
X0022594Y0031314D01*
X0022621Y0031366D01*
X0022651Y0031416D01*
X0022685Y0031464D01*
X0022722Y0031510D01*
X0022761Y0031554D01*
X0022804Y0031595D01*
X0022848Y0031633D01*
X0022895Y0031668D01*
X0022945Y0031700D01*
X0022996Y0031729D01*
X0023049Y0031755D01*
X0023103Y0031777D01*
X0023159Y0031795D01*
X0023216Y0031810D01*
X0023274Y0031821D01*
X0023332Y0031829D01*
X0023391Y0031833D01*
X0023449Y0031833D01*
X0023508Y0031829D01*
X0023566Y0031821D01*
X0023624Y0031810D01*
X0023681Y0031795D01*
X0023737Y0031777D01*
X0023791Y0031755D01*
X0023844Y0031729D01*
X0023895Y0031700D01*
X0023945Y0031668D01*
X0023992Y0031633D01*
X0024036Y0031595D01*
X0024079Y0031554D01*
X0024118Y0031510D01*
X0024155Y0031464D01*
X0024189Y0031416D01*
X0024219Y0031366D01*
X0024246Y0031314D01*
X0024270Y0031260D01*
X0024290Y0031205D01*
X0024307Y0031149D01*
X0024320Y0031091D01*
X0024329Y0031033D01*
X0024335Y0030975D01*
X0024337Y0030916D01*
X0029263Y0031100D02*
X0030180Y0031833D01*
X0030180Y0028533D01*
X0029263Y0028533D02*
X0031097Y0028533D01*
X0032503Y0029450D02*
X0032505Y0029391D01*
X0032511Y0029333D01*
X0032520Y0029275D01*
X0032533Y0029217D01*
X0032550Y0029161D01*
X0032570Y0029106D01*
X0032594Y0029052D01*
X0032621Y0029000D01*
X0032651Y0028950D01*
X0032685Y0028902D01*
X0032722Y0028856D01*
X0032761Y0028812D01*
X0032804Y0028771D01*
X0032848Y0028733D01*
X0032895Y0028698D01*
X0032945Y0028666D01*
X0032996Y0028637D01*
X0033049Y0028611D01*
X0033103Y0028589D01*
X0033159Y0028571D01*
X0033216Y0028556D01*
X0033274Y0028545D01*
X0033332Y0028537D01*
X0033391Y0028533D01*
X0033449Y0028533D01*
X0033508Y0028537D01*
X0033566Y0028545D01*
X0033624Y0028556D01*
X0033681Y0028571D01*
X0033737Y0028589D01*
X0033791Y0028611D01*
X0033844Y0028637D01*
X0033895Y0028666D01*
X0033945Y0028698D01*
X0033992Y0028733D01*
X0034036Y0028771D01*
X0034079Y0028812D01*
X0034118Y0028856D01*
X0034155Y0028902D01*
X0034189Y0028950D01*
X0034219Y0029000D01*
X0034246Y0029052D01*
X0034270Y0029106D01*
X0034290Y0029161D01*
X0034307Y0029217D01*
X0034320Y0029275D01*
X0034329Y0029333D01*
X0034335Y0029391D01*
X0034337Y0029450D01*
X0034335Y0029509D01*
X0034329Y0029567D01*
X0034320Y0029625D01*
X0034307Y0029683D01*
X0034290Y0029739D01*
X0034270Y0029794D01*
X0034246Y0029848D01*
X0034219Y0029900D01*
X0034189Y0029950D01*
X0034155Y0029998D01*
X0034118Y0030044D01*
X0034079Y0030088D01*
X0034036Y0030129D01*
X0033992Y0030167D01*
X0033945Y0030202D01*
X0033895Y0030234D01*
X0033844Y0030263D01*
X0033791Y0030289D01*
X0033737Y0030311D01*
X0033681Y0030329D01*
X0033624Y0030344D01*
X0033566Y0030355D01*
X0033508Y0030363D01*
X0033449Y0030367D01*
X0033391Y0030367D01*
X0033332Y0030363D01*
X0033274Y0030355D01*
X0033216Y0030344D01*
X0033159Y0030329D01*
X0033103Y0030311D01*
X0033049Y0030289D01*
X0032996Y0030263D01*
X0032945Y0030234D01*
X0032895Y0030202D01*
X0032848Y0030167D01*
X0032804Y0030129D01*
X0032761Y0030088D01*
X0032722Y0030044D01*
X0032685Y0029998D01*
X0032651Y0029950D01*
X0032621Y0029900D01*
X0032594Y0029848D01*
X0032570Y0029794D01*
X0032550Y0029739D01*
X0032533Y0029683D01*
X0032520Y0029625D01*
X0032511Y0029567D01*
X0032505Y0029509D01*
X0032503Y0029450D01*
X0032687Y0031100D02*
X0032689Y0031048D01*
X0032694Y0030996D01*
X0032704Y0030944D01*
X0032717Y0030893D01*
X0032733Y0030844D01*
X0032753Y0030796D01*
X0032777Y0030749D01*
X0032803Y0030704D01*
X0032833Y0030661D01*
X0032866Y0030620D01*
X0032902Y0030582D01*
X0032940Y0030546D01*
X0032981Y0030513D01*
X0033024Y0030483D01*
X0033069Y0030457D01*
X0033116Y0030433D01*
X0033164Y0030413D01*
X0033213Y0030397D01*
X0033264Y0030384D01*
X0033316Y0030374D01*
X0033368Y0030369D01*
X0033420Y0030367D01*
X0033472Y0030369D01*
X0033524Y0030374D01*
X0033576Y0030384D01*
X0033627Y0030397D01*
X0033676Y0030413D01*
X0033724Y0030433D01*
X0033771Y0030457D01*
X0033816Y0030483D01*
X0033859Y0030513D01*
X0033900Y0030546D01*
X0033938Y0030582D01*
X0033974Y0030620D01*
X0034007Y0030661D01*
X0034037Y0030704D01*
X0034063Y0030749D01*
X0034087Y0030796D01*
X0034107Y0030844D01*
X0034123Y0030893D01*
X0034136Y0030944D01*
X0034146Y0030996D01*
X0034151Y0031048D01*
X0034153Y0031100D01*
X0034151Y0031152D01*
X0034146Y0031204D01*
X0034136Y0031256D01*
X0034123Y0031307D01*
X0034107Y0031356D01*
X0034087Y0031404D01*
X0034063Y0031451D01*
X0034037Y0031496D01*
X0034007Y0031539D01*
X0033974Y0031580D01*
X0033938Y0031618D01*
X0033900Y0031654D01*
X0033859Y0031687D01*
X0033816Y0031717D01*
X0033771Y0031743D01*
X0033724Y0031767D01*
X0033676Y0031787D01*
X0033627Y0031803D01*
X0033576Y0031816D01*
X0033524Y0031826D01*
X0033472Y0031831D01*
X0033420Y0031833D01*
X0033368Y0031831D01*
X0033316Y0031826D01*
X0033264Y0031816D01*
X0033213Y0031803D01*
X0033164Y0031787D01*
X0033116Y0031767D01*
X0033069Y0031743D01*
X0033024Y0031717D01*
X0032981Y0031687D01*
X0032940Y0031654D01*
X0032902Y0031618D01*
X0032866Y0031580D01*
X0032833Y0031539D01*
X0032803Y0031496D01*
X0032777Y0031451D01*
X0032753Y0031404D01*
X0032733Y0031356D01*
X0032717Y0031307D01*
X0032704Y0031256D01*
X0032694Y0031204D01*
X0032689Y0031152D01*
X0032687Y0031100D01*
X0040883Y0030366D02*
X0040883Y0031833D01*
X0042717Y0031833D01*
X0041983Y0030366D02*
X0040883Y0030366D01*
X0041983Y0030366D02*
X0042035Y0030364D01*
X0042087Y0030359D01*
X0042139Y0030349D01*
X0042190Y0030336D01*
X0042239Y0030320D01*
X0042287Y0030300D01*
X0042334Y0030276D01*
X0042379Y0030250D01*
X0042422Y0030220D01*
X0042463Y0030187D01*
X0042501Y0030151D01*
X0042537Y0030113D01*
X0042570Y0030072D01*
X0042600Y0030029D01*
X0042626Y0029984D01*
X0042650Y0029937D01*
X0042670Y0029889D01*
X0042686Y0029840D01*
X0042699Y0029789D01*
X0042709Y0029737D01*
X0042714Y0029685D01*
X0042716Y0029633D01*
X0042717Y0029633D02*
X0042717Y0029266D01*
X0042716Y0029266D02*
X0042714Y0029214D01*
X0042709Y0029162D01*
X0042699Y0029110D01*
X0042686Y0029059D01*
X0042670Y0029010D01*
X0042650Y0028962D01*
X0042626Y0028915D01*
X0042600Y0028870D01*
X0042570Y0028827D01*
X0042537Y0028786D01*
X0042501Y0028748D01*
X0042463Y0028712D01*
X0042422Y0028679D01*
X0042379Y0028649D01*
X0042334Y0028623D01*
X0042288Y0028599D01*
X0042239Y0028579D01*
X0042190Y0028563D01*
X0042139Y0028550D01*
X0042087Y0028540D01*
X0042035Y0028535D01*
X0041983Y0028533D01*
X0040883Y0028533D01*
X0049263Y0028533D02*
X0051097Y0028533D01*
X0052503Y0028533D02*
X0054337Y0028533D01*
X0052503Y0028533D02*
X0054062Y0030366D01*
X0053512Y0031833D02*
X0053449Y0031831D01*
X0053385Y0031825D01*
X0053323Y0031816D01*
X0053261Y0031803D01*
X0053199Y0031786D01*
X0053139Y0031765D01*
X0053081Y0031741D01*
X0053023Y0031714D01*
X0052968Y0031683D01*
X0052914Y0031649D01*
X0052863Y0031611D01*
X0052814Y0031571D01*
X0052768Y0031528D01*
X0052724Y0031482D01*
X0052683Y0031433D01*
X0052645Y0031383D01*
X0052610Y0031330D01*
X0052578Y0031275D01*
X0052550Y0031218D01*
X0052525Y0031159D01*
X0052504Y0031100D01*
X0054062Y0030366D02*
X0054101Y0030406D01*
X0054137Y0030447D01*
X0054171Y0030491D01*
X0054201Y0030537D01*
X0054229Y0030585D01*
X0054254Y0030634D01*
X0054276Y0030685D01*
X0054294Y0030736D01*
X0054310Y0030790D01*
X0054322Y0030843D01*
X0054330Y0030898D01*
X0054335Y0030953D01*
X0054337Y0031008D01*
X0054335Y0031064D01*
X0054329Y0031120D01*
X0054320Y0031176D01*
X0054306Y0031231D01*
X0054289Y0031284D01*
X0054269Y0031337D01*
X0054245Y0031388D01*
X0054217Y0031437D01*
X0054186Y0031484D01*
X0054152Y0031529D01*
X0054115Y0031571D01*
X0054075Y0031611D01*
X0054033Y0031648D01*
X0053988Y0031682D01*
X0053941Y0031713D01*
X0053892Y0031741D01*
X0053841Y0031765D01*
X0053788Y0031785D01*
X0053735Y0031802D01*
X0053680Y0031816D01*
X0053624Y0031825D01*
X0053568Y0031831D01*
X0053512Y0031833D01*
X0050822Y0030366D02*
X0049263Y0028533D01*
X0049264Y0031100D02*
X0049285Y0031159D01*
X0049310Y0031218D01*
X0049338Y0031275D01*
X0049370Y0031330D01*
X0049405Y0031383D01*
X0049443Y0031433D01*
X0049484Y0031482D01*
X0049528Y0031528D01*
X0049574Y0031571D01*
X0049623Y0031611D01*
X0049674Y0031649D01*
X0049728Y0031683D01*
X0049783Y0031714D01*
X0049841Y0031741D01*
X0049899Y0031765D01*
X0049959Y0031786D01*
X0050021Y0031803D01*
X0050083Y0031816D01*
X0050145Y0031825D01*
X0050209Y0031831D01*
X0050272Y0031833D01*
X0050328Y0031831D01*
X0050384Y0031825D01*
X0050440Y0031816D01*
X0050495Y0031802D01*
X0050548Y0031785D01*
X0050601Y0031765D01*
X0050652Y0031741D01*
X0050701Y0031713D01*
X0050748Y0031682D01*
X0050793Y0031648D01*
X0050835Y0031611D01*
X0050875Y0031571D01*
X0050912Y0031529D01*
X0050946Y0031484D01*
X0050977Y0031437D01*
X0051005Y0031388D01*
X0051029Y0031337D01*
X0051049Y0031284D01*
X0051066Y0031231D01*
X0051080Y0031176D01*
X0051089Y0031120D01*
X0051095Y0031064D01*
X0051097Y0031008D01*
X0051095Y0030953D01*
X0051090Y0030898D01*
X0051082Y0030843D01*
X0051070Y0030790D01*
X0051054Y0030736D01*
X0051036Y0030685D01*
X0051014Y0030634D01*
X0050989Y0030585D01*
X0050961Y0030537D01*
X0050931Y0030491D01*
X0050897Y0030447D01*
X0050861Y0030406D01*
X0050822Y0030366D01*
X0059263Y0028533D02*
X0061097Y0028533D01*
X0062503Y0028533D02*
X0064337Y0028533D01*
X0063420Y0028533D02*
X0063420Y0031833D01*
X0062503Y0031100D01*
X0060822Y0030366D02*
X0059263Y0028533D01*
X0059264Y0031100D02*
X0059285Y0031159D01*
X0059310Y0031218D01*
X0059338Y0031275D01*
X0059370Y0031330D01*
X0059405Y0031383D01*
X0059443Y0031433D01*
X0059484Y0031482D01*
X0059528Y0031528D01*
X0059574Y0031571D01*
X0059623Y0031611D01*
X0059674Y0031649D01*
X0059728Y0031683D01*
X0059783Y0031714D01*
X0059841Y0031741D01*
X0059899Y0031765D01*
X0059959Y0031786D01*
X0060021Y0031803D01*
X0060083Y0031816D01*
X0060145Y0031825D01*
X0060209Y0031831D01*
X0060272Y0031833D01*
X0060328Y0031831D01*
X0060384Y0031825D01*
X0060440Y0031816D01*
X0060495Y0031802D01*
X0060548Y0031785D01*
X0060601Y0031765D01*
X0060652Y0031741D01*
X0060701Y0031713D01*
X0060748Y0031682D01*
X0060793Y0031648D01*
X0060835Y0031611D01*
X0060875Y0031571D01*
X0060912Y0031529D01*
X0060946Y0031484D01*
X0060977Y0031437D01*
X0061005Y0031388D01*
X0061029Y0031337D01*
X0061049Y0031284D01*
X0061066Y0031231D01*
X0061080Y0031176D01*
X0061089Y0031120D01*
X0061095Y0031064D01*
X0061097Y0031008D01*
X0061095Y0030953D01*
X0061090Y0030898D01*
X0061082Y0030843D01*
X0061070Y0030790D01*
X0061054Y0030736D01*
X0061036Y0030685D01*
X0061014Y0030634D01*
X0060989Y0030585D01*
X0060961Y0030537D01*
X0060931Y0030491D01*
X0060897Y0030447D01*
X0060861Y0030406D01*
X0060822Y0030366D01*
X0069263Y0031833D02*
X0070363Y0031833D01*
X0070415Y0031831D01*
X0070467Y0031826D01*
X0070519Y0031816D01*
X0070570Y0031803D01*
X0070619Y0031787D01*
X0070667Y0031767D01*
X0070714Y0031743D01*
X0070759Y0031717D01*
X0070802Y0031687D01*
X0070843Y0031654D01*
X0070881Y0031618D01*
X0070917Y0031580D01*
X0070950Y0031539D01*
X0070980Y0031496D01*
X0071006Y0031451D01*
X0071030Y0031404D01*
X0071050Y0031356D01*
X0071066Y0031307D01*
X0071079Y0031256D01*
X0071089Y0031204D01*
X0071094Y0031152D01*
X0071096Y0031100D01*
X0071094Y0031048D01*
X0071089Y0030996D01*
X0071079Y0030944D01*
X0071066Y0030893D01*
X0071050Y0030844D01*
X0071030Y0030796D01*
X0071006Y0030749D01*
X0070980Y0030704D01*
X0070950Y0030661D01*
X0070917Y0030620D01*
X0070881Y0030582D01*
X0070843Y0030546D01*
X0070802Y0030513D01*
X0070759Y0030483D01*
X0070714Y0030457D01*
X0070667Y0030433D01*
X0070619Y0030413D01*
X0070570Y0030397D01*
X0070519Y0030384D01*
X0070467Y0030374D01*
X0070415Y0030369D01*
X0070363Y0030367D01*
X0070363Y0030366D02*
X0069630Y0030366D01*
X0070180Y0030367D02*
X0070239Y0030365D01*
X0070297Y0030359D01*
X0070355Y0030350D01*
X0070413Y0030337D01*
X0070469Y0030320D01*
X0070524Y0030300D01*
X0070578Y0030276D01*
X0070630Y0030249D01*
X0070680Y0030219D01*
X0070728Y0030185D01*
X0070774Y0030148D01*
X0070818Y0030109D01*
X0070859Y0030066D01*
X0070897Y0030022D01*
X0070932Y0029975D01*
X0070964Y0029925D01*
X0070993Y0029874D01*
X0071019Y0029821D01*
X0071041Y0029767D01*
X0071059Y0029711D01*
X0071074Y0029654D01*
X0071085Y0029596D01*
X0071093Y0029538D01*
X0071097Y0029479D01*
X0071097Y0029421D01*
X0071093Y0029362D01*
X0071085Y0029304D01*
X0071074Y0029246D01*
X0071059Y0029189D01*
X0071041Y0029133D01*
X0071019Y0029079D01*
X0070993Y0029026D01*
X0070964Y0028975D01*
X0070932Y0028925D01*
X0070897Y0028878D01*
X0070859Y0028834D01*
X0070818Y0028791D01*
X0070774Y0028752D01*
X0070728Y0028715D01*
X0070680Y0028681D01*
X0070630Y0028651D01*
X0070578Y0028624D01*
X0070524Y0028600D01*
X0070469Y0028580D01*
X0070413Y0028563D01*
X0070355Y0028550D01*
X0070297Y0028541D01*
X0070239Y0028535D01*
X0070180Y0028533D01*
X0069263Y0028533D01*
X0072503Y0028533D02*
X0074337Y0028533D01*
X0072503Y0028533D02*
X0074062Y0030366D01*
X0073512Y0031833D02*
X0073449Y0031831D01*
X0073385Y0031825D01*
X0073323Y0031816D01*
X0073261Y0031803D01*
X0073199Y0031786D01*
X0073139Y0031765D01*
X0073081Y0031741D01*
X0073023Y0031714D01*
X0072968Y0031683D01*
X0072914Y0031649D01*
X0072863Y0031611D01*
X0072814Y0031571D01*
X0072768Y0031528D01*
X0072724Y0031482D01*
X0072683Y0031433D01*
X0072645Y0031383D01*
X0072610Y0031330D01*
X0072578Y0031275D01*
X0072550Y0031218D01*
X0072525Y0031159D01*
X0072504Y0031100D01*
X0074062Y0030366D02*
X0074101Y0030406D01*
X0074137Y0030447D01*
X0074171Y0030491D01*
X0074201Y0030537D01*
X0074229Y0030585D01*
X0074254Y0030634D01*
X0074276Y0030685D01*
X0074294Y0030736D01*
X0074310Y0030790D01*
X0074322Y0030843D01*
X0074330Y0030898D01*
X0074335Y0030953D01*
X0074337Y0031008D01*
X0074335Y0031064D01*
X0074329Y0031120D01*
X0074320Y0031176D01*
X0074306Y0031231D01*
X0074289Y0031284D01*
X0074269Y0031337D01*
X0074245Y0031388D01*
X0074217Y0031437D01*
X0074186Y0031484D01*
X0074152Y0031529D01*
X0074115Y0031571D01*
X0074075Y0031611D01*
X0074033Y0031648D01*
X0073988Y0031682D01*
X0073941Y0031713D01*
X0073892Y0031741D01*
X0073841Y0031765D01*
X0073788Y0031785D01*
X0073735Y0031802D01*
X0073680Y0031816D01*
X0073624Y0031825D01*
X0073568Y0031831D01*
X0073512Y0031833D01*
X0079263Y0031833D02*
X0080363Y0031833D01*
X0080415Y0031831D01*
X0080467Y0031826D01*
X0080519Y0031816D01*
X0080570Y0031803D01*
X0080619Y0031787D01*
X0080667Y0031767D01*
X0080714Y0031743D01*
X0080759Y0031717D01*
X0080802Y0031687D01*
X0080843Y0031654D01*
X0080881Y0031618D01*
X0080917Y0031580D01*
X0080950Y0031539D01*
X0080980Y0031496D01*
X0081006Y0031451D01*
X0081030Y0031404D01*
X0081050Y0031356D01*
X0081066Y0031307D01*
X0081079Y0031256D01*
X0081089Y0031204D01*
X0081094Y0031152D01*
X0081096Y0031100D01*
X0081094Y0031048D01*
X0081089Y0030996D01*
X0081079Y0030944D01*
X0081066Y0030893D01*
X0081050Y0030844D01*
X0081030Y0030796D01*
X0081006Y0030749D01*
X0080980Y0030704D01*
X0080950Y0030661D01*
X0080917Y0030620D01*
X0080881Y0030582D01*
X0080843Y0030546D01*
X0080802Y0030513D01*
X0080759Y0030483D01*
X0080714Y0030457D01*
X0080667Y0030433D01*
X0080619Y0030413D01*
X0080570Y0030397D01*
X0080519Y0030384D01*
X0080467Y0030374D01*
X0080415Y0030369D01*
X0080363Y0030367D01*
X0080363Y0030366D02*
X0079630Y0030366D01*
X0080180Y0030367D02*
X0080239Y0030365D01*
X0080297Y0030359D01*
X0080355Y0030350D01*
X0080413Y0030337D01*
X0080469Y0030320D01*
X0080524Y0030300D01*
X0080578Y0030276D01*
X0080630Y0030249D01*
X0080680Y0030219D01*
X0080728Y0030185D01*
X0080774Y0030148D01*
X0080818Y0030109D01*
X0080859Y0030066D01*
X0080897Y0030022D01*
X0080932Y0029975D01*
X0080964Y0029925D01*
X0080993Y0029874D01*
X0081019Y0029821D01*
X0081041Y0029767D01*
X0081059Y0029711D01*
X0081074Y0029654D01*
X0081085Y0029596D01*
X0081093Y0029538D01*
X0081097Y0029479D01*
X0081097Y0029421D01*
X0081093Y0029362D01*
X0081085Y0029304D01*
X0081074Y0029246D01*
X0081059Y0029189D01*
X0081041Y0029133D01*
X0081019Y0029079D01*
X0080993Y0029026D01*
X0080964Y0028975D01*
X0080932Y0028925D01*
X0080897Y0028878D01*
X0080859Y0028834D01*
X0080818Y0028791D01*
X0080774Y0028752D01*
X0080728Y0028715D01*
X0080680Y0028681D01*
X0080630Y0028651D01*
X0080578Y0028624D01*
X0080524Y0028600D01*
X0080469Y0028580D01*
X0080413Y0028563D01*
X0080355Y0028550D01*
X0080297Y0028541D01*
X0080239Y0028535D01*
X0080180Y0028533D01*
X0079263Y0028533D01*
X0082503Y0028533D02*
X0083420Y0028533D01*
X0083479Y0028535D01*
X0083537Y0028541D01*
X0083595Y0028550D01*
X0083653Y0028563D01*
X0083709Y0028580D01*
X0083764Y0028600D01*
X0083818Y0028624D01*
X0083870Y0028651D01*
X0083920Y0028681D01*
X0083968Y0028715D01*
X0084014Y0028752D01*
X0084058Y0028791D01*
X0084099Y0028834D01*
X0084137Y0028878D01*
X0084172Y0028925D01*
X0084204Y0028975D01*
X0084233Y0029026D01*
X0084259Y0029079D01*
X0084281Y0029133D01*
X0084299Y0029189D01*
X0084314Y0029246D01*
X0084325Y0029304D01*
X0084333Y0029362D01*
X0084337Y0029421D01*
X0084337Y0029479D01*
X0084333Y0029538D01*
X0084325Y0029596D01*
X0084314Y0029654D01*
X0084299Y0029711D01*
X0084281Y0029767D01*
X0084259Y0029821D01*
X0084233Y0029874D01*
X0084204Y0029925D01*
X0084172Y0029975D01*
X0084137Y0030022D01*
X0084099Y0030066D01*
X0084058Y0030109D01*
X0084014Y0030148D01*
X0083968Y0030185D01*
X0083920Y0030219D01*
X0083870Y0030249D01*
X0083818Y0030276D01*
X0083764Y0030300D01*
X0083709Y0030320D01*
X0083653Y0030337D01*
X0083595Y0030350D01*
X0083537Y0030359D01*
X0083479Y0030365D01*
X0083420Y0030367D01*
X0083603Y0030366D02*
X0082870Y0030366D01*
X0083603Y0030367D02*
X0083655Y0030369D01*
X0083707Y0030374D01*
X0083759Y0030384D01*
X0083810Y0030397D01*
X0083859Y0030413D01*
X0083907Y0030433D01*
X0083954Y0030457D01*
X0083999Y0030483D01*
X0084042Y0030513D01*
X0084083Y0030546D01*
X0084121Y0030582D01*
X0084157Y0030620D01*
X0084190Y0030661D01*
X0084220Y0030704D01*
X0084246Y0030749D01*
X0084270Y0030796D01*
X0084290Y0030844D01*
X0084306Y0030893D01*
X0084319Y0030944D01*
X0084329Y0030996D01*
X0084334Y0031048D01*
X0084336Y0031100D01*
X0084334Y0031152D01*
X0084329Y0031204D01*
X0084319Y0031256D01*
X0084306Y0031307D01*
X0084290Y0031356D01*
X0084270Y0031404D01*
X0084246Y0031451D01*
X0084220Y0031496D01*
X0084190Y0031539D01*
X0084157Y0031580D01*
X0084121Y0031618D01*
X0084083Y0031654D01*
X0084042Y0031687D01*
X0083999Y0031717D01*
X0083954Y0031743D01*
X0083907Y0031767D01*
X0083859Y0031787D01*
X0083810Y0031803D01*
X0083759Y0031816D01*
X0083707Y0031826D01*
X0083655Y0031831D01*
X0083603Y0031833D01*
X0082503Y0031833D01*
X0087970Y0031833D02*
X0088887Y0031833D01*
X0088946Y0031831D01*
X0089004Y0031825D01*
X0089062Y0031816D01*
X0089120Y0031803D01*
X0089176Y0031786D01*
X0089231Y0031766D01*
X0089285Y0031742D01*
X0089337Y0031715D01*
X0089387Y0031685D01*
X0089435Y0031651D01*
X0089481Y0031614D01*
X0089525Y0031575D01*
X0089566Y0031532D01*
X0089604Y0031488D01*
X0089639Y0031441D01*
X0089671Y0031391D01*
X0089700Y0031340D01*
X0089726Y0031287D01*
X0089748Y0031233D01*
X0089766Y0031177D01*
X0089781Y0031120D01*
X0089792Y0031062D01*
X0089800Y0031004D01*
X0089804Y0030945D01*
X0089804Y0030887D01*
X0089800Y0030828D01*
X0089792Y0030770D01*
X0089781Y0030712D01*
X0089766Y0030655D01*
X0089748Y0030599D01*
X0089726Y0030545D01*
X0089700Y0030492D01*
X0089671Y0030441D01*
X0089639Y0030391D01*
X0089604Y0030344D01*
X0089566Y0030300D01*
X0089525Y0030257D01*
X0089481Y0030218D01*
X0089435Y0030181D01*
X0089387Y0030147D01*
X0089337Y0030117D01*
X0089285Y0030090D01*
X0089231Y0030066D01*
X0089176Y0030046D01*
X0089120Y0030029D01*
X0089062Y0030016D01*
X0089004Y0030007D01*
X0088946Y0030001D01*
X0088887Y0029999D01*
X0088887Y0030000D02*
X0087970Y0030000D01*
X0089070Y0030000D02*
X0089803Y0028533D01*
X0087970Y0028533D02*
X0087970Y0031833D01*
X0091539Y0030458D02*
X0092547Y0029908D01*
X0092181Y0028533D02*
X0092105Y0028535D01*
X0092028Y0028541D01*
X0091953Y0028550D01*
X0091877Y0028563D01*
X0091803Y0028580D01*
X0091729Y0028600D01*
X0091656Y0028625D01*
X0091585Y0028652D01*
X0091515Y0028683D01*
X0091447Y0028718D01*
X0091381Y0028756D01*
X0091316Y0028797D01*
X0091254Y0028841D01*
X0091194Y0028888D01*
X0091136Y0028938D01*
X0091081Y0028991D01*
X0092547Y0029908D02*
X0092591Y0029880D01*
X0092632Y0029850D01*
X0092671Y0029816D01*
X0092708Y0029780D01*
X0092743Y0029741D01*
X0092774Y0029701D01*
X0092803Y0029658D01*
X0092828Y0029613D01*
X0092851Y0029567D01*
X0092870Y0029519D01*
X0092886Y0029470D01*
X0092898Y0029420D01*
X0092907Y0029369D01*
X0092912Y0029318D01*
X0092914Y0029266D01*
X0092912Y0029214D01*
X0092907Y0029162D01*
X0092897Y0029110D01*
X0092884Y0029059D01*
X0092868Y0029010D01*
X0092848Y0028962D01*
X0092824Y0028915D01*
X0092798Y0028870D01*
X0092768Y0028827D01*
X0092735Y0028786D01*
X0092699Y0028748D01*
X0092661Y0028712D01*
X0092620Y0028679D01*
X0092577Y0028649D01*
X0092532Y0028623D01*
X0092486Y0028599D01*
X0092437Y0028579D01*
X0092388Y0028563D01*
X0092337Y0028550D01*
X0092285Y0028540D01*
X0092233Y0028535D01*
X0092181Y0028533D01*
X0094913Y0028533D02*
X0094913Y0031833D01*
X0093997Y0031833D02*
X0095830Y0031833D01*
X0097627Y0031136D02*
X0097627Y0029302D01*
X0097628Y0029302D02*
X0097630Y0029250D01*
X0097635Y0029198D01*
X0097645Y0029146D01*
X0097658Y0029095D01*
X0097674Y0029046D01*
X0097694Y0028998D01*
X0097718Y0028951D01*
X0097744Y0028906D01*
X0097774Y0028863D01*
X0097807Y0028822D01*
X0097843Y0028784D01*
X0097881Y0028748D01*
X0097922Y0028715D01*
X0097965Y0028685D01*
X0098010Y0028659D01*
X0098057Y0028635D01*
X0098105Y0028615D01*
X0098154Y0028599D01*
X0098205Y0028586D01*
X0098257Y0028576D01*
X0098309Y0028571D01*
X0098361Y0028569D01*
X0099461Y0028569D01*
X0099461Y0030402D01*
X0098911Y0030402D01*
X0097628Y0031136D02*
X0097630Y0031188D01*
X0097635Y0031240D01*
X0097645Y0031292D01*
X0097658Y0031343D01*
X0097674Y0031392D01*
X0097694Y0031440D01*
X0097718Y0031487D01*
X0097744Y0031532D01*
X0097774Y0031575D01*
X0097807Y0031616D01*
X0097843Y0031654D01*
X0097881Y0031690D01*
X0097922Y0031723D01*
X0097965Y0031753D01*
X0098010Y0031779D01*
X0098056Y0031803D01*
X0098105Y0031823D01*
X0098154Y0031839D01*
X0098205Y0031852D01*
X0098257Y0031862D01*
X0098309Y0031867D01*
X0098361Y0031869D01*
X0099461Y0031869D01*
X0101083Y0031869D02*
X0102917Y0028569D01*
X0102917Y0031869D01*
X0104539Y0031869D02*
X0105456Y0031869D01*
X0105514Y0031867D01*
X0105571Y0031862D01*
X0105628Y0031853D01*
X0105684Y0031840D01*
X0105739Y0031824D01*
X0105794Y0031805D01*
X0105846Y0031782D01*
X0105898Y0031756D01*
X0105947Y0031726D01*
X0105995Y0031694D01*
X0106041Y0031659D01*
X0106084Y0031620D01*
X0106124Y0031580D01*
X0106163Y0031537D01*
X0106198Y0031491D01*
X0106230Y0031443D01*
X0106260Y0031394D01*
X0106286Y0031342D01*
X0106309Y0031290D01*
X0106328Y0031235D01*
X0106344Y0031180D01*
X0106357Y0031124D01*
X0106366Y0031067D01*
X0106371Y0031010D01*
X0106373Y0030952D01*
X0106373Y0029486D01*
X0106371Y0029428D01*
X0106366Y0029371D01*
X0106357Y0029314D01*
X0106344Y0029258D01*
X0106328Y0029203D01*
X0106309Y0029148D01*
X0106286Y0029096D01*
X0106260Y0029044D01*
X0106230Y0028995D01*
X0106198Y0028947D01*
X0106163Y0028901D01*
X0106124Y0028858D01*
X0106084Y0028818D01*
X0106041Y0028779D01*
X0105995Y0028744D01*
X0105947Y0028712D01*
X0105898Y0028682D01*
X0105846Y0028656D01*
X0105794Y0028633D01*
X0105739Y0028614D01*
X0105684Y0028598D01*
X0105628Y0028585D01*
X0105571Y0028576D01*
X0105514Y0028571D01*
X0105456Y0028569D01*
X0104539Y0028569D01*
X0104539Y0031869D01*
X0101083Y0031869D02*
X0101083Y0028569D01*
X0092731Y0031558D02*
X0092671Y0031601D01*
X0092609Y0031640D01*
X0092544Y0031676D01*
X0092478Y0031708D01*
X0092410Y0031737D01*
X0092341Y0031762D01*
X0092270Y0031784D01*
X0092199Y0031801D01*
X0092126Y0031815D01*
X0092053Y0031825D01*
X0091980Y0031831D01*
X0091906Y0031833D01*
X0091854Y0031831D01*
X0091802Y0031826D01*
X0091750Y0031816D01*
X0091699Y0031803D01*
X0091650Y0031787D01*
X0091602Y0031767D01*
X0091555Y0031743D01*
X0091510Y0031717D01*
X0091467Y0031687D01*
X0091426Y0031654D01*
X0091388Y0031618D01*
X0091352Y0031580D01*
X0091319Y0031539D01*
X0091289Y0031496D01*
X0091263Y0031451D01*
X0091239Y0031404D01*
X0091219Y0031356D01*
X0091203Y0031307D01*
X0091190Y0031256D01*
X0091180Y0031204D01*
X0091175Y0031152D01*
X0091173Y0031100D01*
X0091172Y0031100D02*
X0091174Y0031048D01*
X0091179Y0030997D01*
X0091188Y0030946D01*
X0091200Y0030896D01*
X0091216Y0030847D01*
X0091235Y0030799D01*
X0091258Y0030753D01*
X0091283Y0030708D01*
X0091312Y0030665D01*
X0091343Y0030625D01*
X0091378Y0030586D01*
X0091415Y0030550D01*
X0091454Y0030516D01*
X0091495Y0030486D01*
X0091539Y0030458D01*
X0044350Y0038787D02*
X0041050Y0038787D01*
X0041050Y0040254D01*
X0041050Y0041297D02*
X0044350Y0043497D01*
X0044350Y0045421D02*
X0041050Y0045421D01*
X0041050Y0044505D02*
X0041050Y0046338D01*
X0041050Y0043497D02*
X0044350Y0041297D01*
X0044350Y0040254D02*
X0044350Y0038787D01*
X0042517Y0038787D02*
X0042517Y0039887D01*
X0030050Y0041425D02*
X0030050Y0042159D01*
X0030050Y0041792D02*
X0026750Y0041792D01*
X0026750Y0041425D02*
X0026750Y0042159D01*
X0026750Y0043575D02*
X0030050Y0045409D01*
X0026750Y0045409D01*
X0026750Y0046707D02*
X0026750Y0048541D01*
X0026750Y0047624D02*
X0030050Y0047624D01*
X0030050Y0043575D02*
X0026750Y0043575D01*
X0041050Y0049973D02*
X0041052Y0049921D01*
X0041057Y0049869D01*
X0041067Y0049817D01*
X0041080Y0049766D01*
X0041096Y0049717D01*
X0041116Y0049669D01*
X0041140Y0049622D01*
X0041166Y0049577D01*
X0041196Y0049534D01*
X0041229Y0049493D01*
X0041265Y0049455D01*
X0041303Y0049419D01*
X0041344Y0049386D01*
X0041387Y0049356D01*
X0041432Y0049330D01*
X0041479Y0049306D01*
X0041527Y0049286D01*
X0041576Y0049270D01*
X0041627Y0049257D01*
X0041679Y0049247D01*
X0041731Y0049242D01*
X0041783Y0049240D01*
X0042425Y0049607D02*
X0042975Y0050615D01*
X0044350Y0050248D02*
X0044348Y0050172D01*
X0044342Y0050095D01*
X0044333Y0050020D01*
X0044320Y0049944D01*
X0044303Y0049870D01*
X0044283Y0049796D01*
X0044258Y0049723D01*
X0044231Y0049652D01*
X0044200Y0049582D01*
X0044165Y0049514D01*
X0044127Y0049448D01*
X0044086Y0049383D01*
X0044042Y0049321D01*
X0043995Y0049261D01*
X0043945Y0049203D01*
X0043892Y0049148D01*
X0041050Y0049973D02*
X0041052Y0050047D01*
X0041058Y0050120D01*
X0041068Y0050193D01*
X0041082Y0050266D01*
X0041099Y0050337D01*
X0041121Y0050408D01*
X0041146Y0050477D01*
X0041175Y0050545D01*
X0041207Y0050611D01*
X0041243Y0050676D01*
X0041282Y0050738D01*
X0041325Y0050798D01*
X0042425Y0049607D02*
X0042397Y0049563D01*
X0042367Y0049522D01*
X0042333Y0049483D01*
X0042297Y0049446D01*
X0042258Y0049411D01*
X0042218Y0049380D01*
X0042175Y0049351D01*
X0042130Y0049326D01*
X0042084Y0049303D01*
X0042036Y0049284D01*
X0041987Y0049268D01*
X0041937Y0049256D01*
X0041886Y0049247D01*
X0041835Y0049242D01*
X0041783Y0049240D01*
X0042975Y0050615D02*
X0043003Y0050659D01*
X0043033Y0050700D01*
X0043067Y0050739D01*
X0043103Y0050776D01*
X0043142Y0050811D01*
X0043182Y0050842D01*
X0043225Y0050871D01*
X0043270Y0050896D01*
X0043316Y0050919D01*
X0043364Y0050938D01*
X0043413Y0050954D01*
X0043463Y0050966D01*
X0043514Y0050975D01*
X0043565Y0050980D01*
X0043617Y0050982D01*
X0043617Y0050981D02*
X0043669Y0050979D01*
X0043721Y0050974D01*
X0043773Y0050964D01*
X0043824Y0050951D01*
X0043873Y0050935D01*
X0043921Y0050915D01*
X0043968Y0050891D01*
X0044013Y0050865D01*
X0044056Y0050835D01*
X0044097Y0050802D01*
X0044135Y0050766D01*
X0044171Y0050728D01*
X0044204Y0050687D01*
X0044234Y0050644D01*
X0044260Y0050599D01*
X0044284Y0050552D01*
X0044304Y0050504D01*
X0044320Y0050455D01*
X0044333Y0050404D01*
X0044343Y0050352D01*
X0044348Y0050300D01*
X0044350Y0050248D01*
X0044350Y0052437D02*
X0041050Y0052437D01*
X0041050Y0053354D01*
X0041052Y0053413D01*
X0041058Y0053471D01*
X0041067Y0053529D01*
X0041080Y0053587D01*
X0041097Y0053643D01*
X0041117Y0053698D01*
X0041141Y0053752D01*
X0041168Y0053804D01*
X0041198Y0053854D01*
X0041232Y0053902D01*
X0041269Y0053948D01*
X0041308Y0053992D01*
X0041351Y0054033D01*
X0041395Y0054071D01*
X0041442Y0054106D01*
X0041492Y0054138D01*
X0041543Y0054167D01*
X0041596Y0054193D01*
X0041650Y0054215D01*
X0041706Y0054233D01*
X0041763Y0054248D01*
X0041821Y0054259D01*
X0041879Y0054267D01*
X0041938Y0054271D01*
X0041996Y0054271D01*
X0042055Y0054267D01*
X0042113Y0054259D01*
X0042171Y0054248D01*
X0042228Y0054233D01*
X0042284Y0054215D01*
X0042338Y0054193D01*
X0042391Y0054167D01*
X0042442Y0054138D01*
X0042492Y0054106D01*
X0042539Y0054071D01*
X0042583Y0054033D01*
X0042626Y0053992D01*
X0042665Y0053948D01*
X0042702Y0053902D01*
X0042736Y0053854D01*
X0042766Y0053804D01*
X0042793Y0053752D01*
X0042817Y0053698D01*
X0042837Y0053643D01*
X0042854Y0053587D01*
X0042867Y0053529D01*
X0042876Y0053471D01*
X0042882Y0053413D01*
X0042884Y0053354D01*
X0042883Y0053354D02*
X0042883Y0052437D01*
X0042517Y0055635D02*
X0042517Y0056735D01*
X0041050Y0057102D02*
X0041050Y0055635D01*
X0044350Y0055635D01*
X0044350Y0057102D01*
X0044350Y0058145D02*
X0041050Y0059245D01*
X0044350Y0060345D01*
X0043525Y0060070D02*
X0043525Y0058420D01*
X0043067Y0061725D02*
X0041050Y0063559D01*
X0041050Y0064923D02*
X0041050Y0066390D01*
X0041050Y0067746D02*
X0041050Y0068662D01*
X0041050Y0067746D02*
X0044350Y0067746D01*
X0044350Y0066390D02*
X0044350Y0064923D01*
X0041050Y0064923D01*
X0042517Y0064923D02*
X0042517Y0066023D01*
X0042883Y0067746D02*
X0042883Y0068662D01*
X0042883Y0068846D02*
X0044350Y0069579D01*
X0042884Y0068662D02*
X0042882Y0068721D01*
X0042876Y0068779D01*
X0042867Y0068837D01*
X0042854Y0068895D01*
X0042837Y0068951D01*
X0042817Y0069006D01*
X0042793Y0069060D01*
X0042766Y0069112D01*
X0042736Y0069162D01*
X0042702Y0069210D01*
X0042665Y0069256D01*
X0042626Y0069300D01*
X0042583Y0069341D01*
X0042539Y0069379D01*
X0042492Y0069414D01*
X0042442Y0069446D01*
X0042391Y0069475D01*
X0042338Y0069501D01*
X0042284Y0069523D01*
X0042228Y0069541D01*
X0042171Y0069556D01*
X0042113Y0069567D01*
X0042055Y0069575D01*
X0041996Y0069579D01*
X0041938Y0069579D01*
X0041879Y0069575D01*
X0041821Y0069567D01*
X0041763Y0069556D01*
X0041706Y0069541D01*
X0041650Y0069523D01*
X0041596Y0069501D01*
X0041543Y0069475D01*
X0041492Y0069446D01*
X0041442Y0069414D01*
X0041395Y0069379D01*
X0041351Y0069341D01*
X0041308Y0069300D01*
X0041269Y0069256D01*
X0041232Y0069210D01*
X0041198Y0069162D01*
X0041168Y0069112D01*
X0041141Y0069060D01*
X0041117Y0069006D01*
X0041097Y0068951D01*
X0041080Y0068895D01*
X0041067Y0068837D01*
X0041058Y0068779D01*
X0041052Y0068721D01*
X0041050Y0068662D01*
X0044350Y0063559D02*
X0042333Y0062459D01*
X0041050Y0061725D02*
X0044350Y0061725D01*
X0030050Y0061618D02*
X0026750Y0063818D01*
X0026750Y0064825D02*
X0026750Y0066658D01*
X0026750Y0065742D02*
X0030050Y0065742D01*
X0030050Y0063818D02*
X0026750Y0061618D01*
X0026750Y0060574D02*
X0026750Y0059108D01*
X0030050Y0059108D01*
X0030050Y0060574D01*
X0028217Y0060208D02*
X0028217Y0059108D01*
X0029172Y0076033D02*
X0030272Y0076033D01*
X0030324Y0076035D01*
X0030376Y0076040D01*
X0030428Y0076050D01*
X0030479Y0076063D01*
X0030528Y0076079D01*
X0030577Y0076099D01*
X0030623Y0076123D01*
X0030668Y0076149D01*
X0030711Y0076179D01*
X0030752Y0076212D01*
X0030790Y0076248D01*
X0030826Y0076286D01*
X0030859Y0076327D01*
X0030889Y0076370D01*
X0030915Y0076415D01*
X0030939Y0076462D01*
X0030959Y0076510D01*
X0030975Y0076559D01*
X0030988Y0076610D01*
X0030998Y0076662D01*
X0031003Y0076714D01*
X0031005Y0076766D01*
X0031005Y0077133D01*
X0031003Y0077185D01*
X0030998Y0077237D01*
X0030988Y0077289D01*
X0030975Y0077340D01*
X0030959Y0077389D01*
X0030939Y0077437D01*
X0030915Y0077484D01*
X0030889Y0077529D01*
X0030859Y0077572D01*
X0030826Y0077613D01*
X0030790Y0077651D01*
X0030752Y0077687D01*
X0030711Y0077720D01*
X0030668Y0077750D01*
X0030623Y0077776D01*
X0030576Y0077800D01*
X0030528Y0077820D01*
X0030479Y0077836D01*
X0030428Y0077849D01*
X0030376Y0077859D01*
X0030324Y0077864D01*
X0030272Y0077866D01*
X0029172Y0077866D01*
X0029172Y0079333D01*
X0031005Y0079333D01*
X0032228Y0079333D02*
X0033328Y0076033D01*
X0034428Y0079333D01*
X0037643Y0079333D02*
X0038743Y0079333D01*
X0038795Y0079331D01*
X0038847Y0079326D01*
X0038899Y0079316D01*
X0038950Y0079303D01*
X0038999Y0079287D01*
X0039047Y0079267D01*
X0039094Y0079243D01*
X0039139Y0079217D01*
X0039182Y0079187D01*
X0039223Y0079154D01*
X0039261Y0079118D01*
X0039297Y0079080D01*
X0039330Y0079039D01*
X0039360Y0078996D01*
X0039386Y0078951D01*
X0039410Y0078904D01*
X0039430Y0078856D01*
X0039446Y0078807D01*
X0039459Y0078756D01*
X0039469Y0078704D01*
X0039474Y0078652D01*
X0039476Y0078600D01*
X0039474Y0078548D01*
X0039469Y0078496D01*
X0039459Y0078444D01*
X0039446Y0078393D01*
X0039430Y0078344D01*
X0039410Y0078296D01*
X0039386Y0078249D01*
X0039360Y0078204D01*
X0039330Y0078161D01*
X0039297Y0078120D01*
X0039261Y0078082D01*
X0039223Y0078046D01*
X0039182Y0078013D01*
X0039139Y0077983D01*
X0039094Y0077957D01*
X0039047Y0077933D01*
X0038999Y0077913D01*
X0038950Y0077897D01*
X0038899Y0077884D01*
X0038847Y0077874D01*
X0038795Y0077869D01*
X0038743Y0077867D01*
X0038743Y0077866D02*
X0038010Y0077866D01*
X0038560Y0077867D02*
X0038619Y0077865D01*
X0038677Y0077859D01*
X0038735Y0077850D01*
X0038793Y0077837D01*
X0038849Y0077820D01*
X0038904Y0077800D01*
X0038958Y0077776D01*
X0039010Y0077749D01*
X0039060Y0077719D01*
X0039108Y0077685D01*
X0039154Y0077648D01*
X0039198Y0077609D01*
X0039239Y0077566D01*
X0039277Y0077522D01*
X0039312Y0077475D01*
X0039344Y0077425D01*
X0039373Y0077374D01*
X0039399Y0077321D01*
X0039421Y0077267D01*
X0039439Y0077211D01*
X0039454Y0077154D01*
X0039465Y0077096D01*
X0039473Y0077038D01*
X0039477Y0076979D01*
X0039477Y0076921D01*
X0039473Y0076862D01*
X0039465Y0076804D01*
X0039454Y0076746D01*
X0039439Y0076689D01*
X0039421Y0076633D01*
X0039399Y0076579D01*
X0039373Y0076526D01*
X0039344Y0076475D01*
X0039312Y0076425D01*
X0039277Y0076378D01*
X0039239Y0076334D01*
X0039198Y0076291D01*
X0039154Y0076252D01*
X0039108Y0076215D01*
X0039060Y0076181D01*
X0039010Y0076151D01*
X0038958Y0076124D01*
X0038904Y0076100D01*
X0038849Y0076080D01*
X0038793Y0076063D01*
X0038735Y0076050D01*
X0038677Y0076041D01*
X0038619Y0076035D01*
X0038560Y0076033D01*
X0037643Y0076033D01*
X0041800Y0076033D02*
X0042900Y0079333D01*
X0044123Y0079333D02*
X0045223Y0079333D01*
X0045275Y0079331D01*
X0045327Y0079326D01*
X0045379Y0079316D01*
X0045430Y0079303D01*
X0045479Y0079287D01*
X0045527Y0079267D01*
X0045574Y0079243D01*
X0045619Y0079217D01*
X0045662Y0079187D01*
X0045703Y0079154D01*
X0045741Y0079118D01*
X0045777Y0079080D01*
X0045810Y0079039D01*
X0045840Y0078996D01*
X0045866Y0078951D01*
X0045890Y0078904D01*
X0045910Y0078856D01*
X0045926Y0078807D01*
X0045939Y0078756D01*
X0045949Y0078704D01*
X0045954Y0078652D01*
X0045956Y0078600D01*
X0045954Y0078548D01*
X0045949Y0078496D01*
X0045939Y0078444D01*
X0045926Y0078393D01*
X0045910Y0078344D01*
X0045890Y0078296D01*
X0045866Y0078249D01*
X0045840Y0078204D01*
X0045810Y0078161D01*
X0045777Y0078120D01*
X0045741Y0078082D01*
X0045703Y0078046D01*
X0045662Y0078013D01*
X0045619Y0077983D01*
X0045574Y0077957D01*
X0045527Y0077933D01*
X0045479Y0077913D01*
X0045430Y0077897D01*
X0045379Y0077884D01*
X0045327Y0077874D01*
X0045275Y0077869D01*
X0045223Y0077867D01*
X0045223Y0077866D02*
X0044490Y0077866D01*
X0045040Y0077867D02*
X0045099Y0077865D01*
X0045157Y0077859D01*
X0045215Y0077850D01*
X0045273Y0077837D01*
X0045329Y0077820D01*
X0045384Y0077800D01*
X0045438Y0077776D01*
X0045490Y0077749D01*
X0045540Y0077719D01*
X0045588Y0077685D01*
X0045634Y0077648D01*
X0045678Y0077609D01*
X0045719Y0077566D01*
X0045757Y0077522D01*
X0045792Y0077475D01*
X0045824Y0077425D01*
X0045853Y0077374D01*
X0045879Y0077321D01*
X0045901Y0077267D01*
X0045919Y0077211D01*
X0045934Y0077154D01*
X0045945Y0077096D01*
X0045953Y0077038D01*
X0045957Y0076979D01*
X0045957Y0076921D01*
X0045953Y0076862D01*
X0045945Y0076804D01*
X0045934Y0076746D01*
X0045919Y0076689D01*
X0045901Y0076633D01*
X0045879Y0076579D01*
X0045853Y0076526D01*
X0045824Y0076475D01*
X0045792Y0076425D01*
X0045757Y0076378D01*
X0045719Y0076334D01*
X0045678Y0076291D01*
X0045634Y0076252D01*
X0045588Y0076215D01*
X0045540Y0076181D01*
X0045490Y0076151D01*
X0045438Y0076124D01*
X0045384Y0076100D01*
X0045329Y0076080D01*
X0045273Y0076063D01*
X0045215Y0076050D01*
X0045157Y0076041D01*
X0045099Y0076035D01*
X0045040Y0076033D01*
X0044123Y0076033D01*
X0041800Y0076033D02*
X0040700Y0079333D01*
X0050883Y0076766D02*
X0052717Y0076766D01*
X0052167Y0076033D02*
X0052167Y0077500D01*
X0050883Y0076766D02*
X0051617Y0079333D01*
X0059263Y0078600D02*
X0060180Y0079333D01*
X0060180Y0076033D01*
X0059263Y0076033D02*
X0061097Y0076033D01*
X0062503Y0076766D02*
X0064337Y0076766D01*
X0063787Y0076033D02*
X0063787Y0077500D01*
X0062503Y0076766D02*
X0063237Y0079333D01*
X0069263Y0078600D02*
X0070180Y0079333D01*
X0070180Y0076033D01*
X0069263Y0076033D02*
X0071097Y0076033D01*
X0072503Y0076033D02*
X0073603Y0076033D01*
X0073655Y0076035D01*
X0073707Y0076040D01*
X0073759Y0076050D01*
X0073810Y0076063D01*
X0073859Y0076079D01*
X0073908Y0076099D01*
X0073954Y0076123D01*
X0073999Y0076149D01*
X0074042Y0076179D01*
X0074083Y0076212D01*
X0074121Y0076248D01*
X0074157Y0076286D01*
X0074190Y0076327D01*
X0074220Y0076370D01*
X0074246Y0076415D01*
X0074270Y0076462D01*
X0074290Y0076510D01*
X0074306Y0076559D01*
X0074319Y0076610D01*
X0074329Y0076662D01*
X0074334Y0076714D01*
X0074336Y0076766D01*
X0074337Y0076766D02*
X0074337Y0077133D01*
X0074336Y0077133D02*
X0074334Y0077185D01*
X0074329Y0077237D01*
X0074319Y0077289D01*
X0074306Y0077340D01*
X0074290Y0077389D01*
X0074270Y0077437D01*
X0074246Y0077484D01*
X0074220Y0077529D01*
X0074190Y0077572D01*
X0074157Y0077613D01*
X0074121Y0077651D01*
X0074083Y0077687D01*
X0074042Y0077720D01*
X0073999Y0077750D01*
X0073954Y0077776D01*
X0073907Y0077800D01*
X0073859Y0077820D01*
X0073810Y0077836D01*
X0073759Y0077849D01*
X0073707Y0077859D01*
X0073655Y0077864D01*
X0073603Y0077866D01*
X0072503Y0077866D01*
X0072503Y0079333D01*
X0074337Y0079333D01*
X0079263Y0076033D02*
X0080822Y0077866D01*
X0080272Y0079333D02*
X0080209Y0079331D01*
X0080145Y0079325D01*
X0080083Y0079316D01*
X0080021Y0079303D01*
X0079959Y0079286D01*
X0079899Y0079265D01*
X0079841Y0079241D01*
X0079783Y0079214D01*
X0079728Y0079183D01*
X0079674Y0079149D01*
X0079623Y0079111D01*
X0079574Y0079071D01*
X0079528Y0079028D01*
X0079484Y0078982D01*
X0079443Y0078933D01*
X0079405Y0078883D01*
X0079370Y0078830D01*
X0079338Y0078775D01*
X0079310Y0078718D01*
X0079285Y0078659D01*
X0079264Y0078600D01*
X0080822Y0077866D02*
X0080861Y0077906D01*
X0080897Y0077947D01*
X0080931Y0077991D01*
X0080961Y0078037D01*
X0080989Y0078085D01*
X0081014Y0078134D01*
X0081036Y0078185D01*
X0081054Y0078236D01*
X0081070Y0078290D01*
X0081082Y0078343D01*
X0081090Y0078398D01*
X0081095Y0078453D01*
X0081097Y0078508D01*
X0081095Y0078564D01*
X0081089Y0078620D01*
X0081080Y0078676D01*
X0081066Y0078731D01*
X0081049Y0078784D01*
X0081029Y0078837D01*
X0081005Y0078888D01*
X0080977Y0078937D01*
X0080946Y0078984D01*
X0080912Y0079029D01*
X0080875Y0079071D01*
X0080835Y0079111D01*
X0080793Y0079148D01*
X0080748Y0079182D01*
X0080701Y0079213D01*
X0080652Y0079241D01*
X0080601Y0079265D01*
X0080548Y0079285D01*
X0080495Y0079302D01*
X0080440Y0079316D01*
X0080384Y0079325D01*
X0080328Y0079331D01*
X0080272Y0079333D01*
X0082503Y0079333D02*
X0084337Y0079333D01*
X0083420Y0076033D01*
X0081097Y0076033D02*
X0079263Y0076033D01*
X0082503Y0078966D02*
X0082503Y0079333D01*
X0089263Y0076033D02*
X0091097Y0076033D01*
X0092503Y0076950D02*
X0092503Y0077866D01*
X0093603Y0077866D01*
X0092503Y0077866D02*
X0092505Y0077940D01*
X0092511Y0078014D01*
X0092520Y0078088D01*
X0092533Y0078161D01*
X0092550Y0078234D01*
X0092570Y0078305D01*
X0092594Y0078375D01*
X0092622Y0078445D01*
X0092653Y0078512D01*
X0092687Y0078578D01*
X0092725Y0078642D01*
X0092766Y0078704D01*
X0092810Y0078764D01*
X0092857Y0078822D01*
X0092907Y0078877D01*
X0092959Y0078929D01*
X0093014Y0078979D01*
X0093072Y0079026D01*
X0093132Y0079070D01*
X0093194Y0079111D01*
X0093258Y0079149D01*
X0093324Y0079183D01*
X0093391Y0079214D01*
X0093460Y0079242D01*
X0093531Y0079266D01*
X0093602Y0079286D01*
X0093675Y0079303D01*
X0093748Y0079316D01*
X0093822Y0079325D01*
X0093896Y0079331D01*
X0093970Y0079333D01*
X0093603Y0077866D02*
X0093655Y0077864D01*
X0093707Y0077859D01*
X0093759Y0077849D01*
X0093810Y0077836D01*
X0093859Y0077820D01*
X0093907Y0077800D01*
X0093954Y0077776D01*
X0093999Y0077750D01*
X0094042Y0077720D01*
X0094083Y0077687D01*
X0094121Y0077651D01*
X0094157Y0077613D01*
X0094190Y0077572D01*
X0094220Y0077529D01*
X0094246Y0077484D01*
X0094270Y0077437D01*
X0094290Y0077389D01*
X0094306Y0077340D01*
X0094319Y0077289D01*
X0094329Y0077237D01*
X0094334Y0077185D01*
X0094336Y0077133D01*
X0094337Y0077133D02*
X0094337Y0076950D01*
X0094335Y0076891D01*
X0094329Y0076833D01*
X0094320Y0076775D01*
X0094307Y0076717D01*
X0094290Y0076661D01*
X0094270Y0076606D01*
X0094246Y0076552D01*
X0094219Y0076500D01*
X0094189Y0076450D01*
X0094155Y0076402D01*
X0094118Y0076356D01*
X0094079Y0076312D01*
X0094036Y0076271D01*
X0093992Y0076233D01*
X0093945Y0076198D01*
X0093895Y0076166D01*
X0093844Y0076137D01*
X0093791Y0076111D01*
X0093737Y0076089D01*
X0093681Y0076071D01*
X0093624Y0076056D01*
X0093566Y0076045D01*
X0093508Y0076037D01*
X0093449Y0076033D01*
X0093391Y0076033D01*
X0093332Y0076037D01*
X0093274Y0076045D01*
X0093216Y0076056D01*
X0093159Y0076071D01*
X0093103Y0076089D01*
X0093049Y0076111D01*
X0092996Y0076137D01*
X0092945Y0076166D01*
X0092895Y0076198D01*
X0092848Y0076233D01*
X0092804Y0076271D01*
X0092761Y0076312D01*
X0092722Y0076356D01*
X0092685Y0076402D01*
X0092651Y0076450D01*
X0092621Y0076500D01*
X0092594Y0076552D01*
X0092570Y0076606D01*
X0092550Y0076661D01*
X0092533Y0076717D01*
X0092520Y0076775D01*
X0092511Y0076833D01*
X0092505Y0076891D01*
X0092503Y0076950D01*
X0090822Y0077866D02*
X0089263Y0076033D01*
X0089264Y0078600D02*
X0089285Y0078659D01*
X0089310Y0078718D01*
X0089338Y0078775D01*
X0089370Y0078830D01*
X0089405Y0078883D01*
X0089443Y0078933D01*
X0089484Y0078982D01*
X0089528Y0079028D01*
X0089574Y0079071D01*
X0089623Y0079111D01*
X0089674Y0079149D01*
X0089728Y0079183D01*
X0089783Y0079214D01*
X0089841Y0079241D01*
X0089899Y0079265D01*
X0089959Y0079286D01*
X0090021Y0079303D01*
X0090083Y0079316D01*
X0090145Y0079325D01*
X0090209Y0079331D01*
X0090272Y0079333D01*
X0090328Y0079331D01*
X0090384Y0079325D01*
X0090440Y0079316D01*
X0090495Y0079302D01*
X0090548Y0079285D01*
X0090601Y0079265D01*
X0090652Y0079241D01*
X0090701Y0079213D01*
X0090748Y0079182D01*
X0090793Y0079148D01*
X0090835Y0079111D01*
X0090875Y0079071D01*
X0090912Y0079029D01*
X0090946Y0078984D01*
X0090977Y0078937D01*
X0091005Y0078888D01*
X0091029Y0078837D01*
X0091049Y0078784D01*
X0091066Y0078731D01*
X0091080Y0078676D01*
X0091089Y0078620D01*
X0091095Y0078564D01*
X0091097Y0078508D01*
X0091095Y0078453D01*
X0091090Y0078398D01*
X0091082Y0078343D01*
X0091070Y0078290D01*
X0091054Y0078236D01*
X0091036Y0078185D01*
X0091014Y0078134D01*
X0090989Y0078085D01*
X0090961Y0078037D01*
X0090931Y0077991D01*
X0090897Y0077947D01*
X0090861Y0077906D01*
X0090822Y0077866D01*
X0099263Y0076033D02*
X0101097Y0076033D01*
X0102503Y0076033D02*
X0103603Y0076033D01*
X0103655Y0076035D01*
X0103707Y0076040D01*
X0103759Y0076050D01*
X0103810Y0076063D01*
X0103859Y0076079D01*
X0103908Y0076099D01*
X0103954Y0076123D01*
X0103999Y0076149D01*
X0104042Y0076179D01*
X0104083Y0076212D01*
X0104121Y0076248D01*
X0104157Y0076286D01*
X0104190Y0076327D01*
X0104220Y0076370D01*
X0104246Y0076415D01*
X0104270Y0076462D01*
X0104290Y0076510D01*
X0104306Y0076559D01*
X0104319Y0076610D01*
X0104329Y0076662D01*
X0104334Y0076714D01*
X0104336Y0076766D01*
X0104337Y0076766D02*
X0104337Y0077133D01*
X0104336Y0077133D02*
X0104334Y0077185D01*
X0104329Y0077237D01*
X0104319Y0077289D01*
X0104306Y0077340D01*
X0104290Y0077389D01*
X0104270Y0077437D01*
X0104246Y0077484D01*
X0104220Y0077529D01*
X0104190Y0077572D01*
X0104157Y0077613D01*
X0104121Y0077651D01*
X0104083Y0077687D01*
X0104042Y0077720D01*
X0103999Y0077750D01*
X0103954Y0077776D01*
X0103907Y0077800D01*
X0103859Y0077820D01*
X0103810Y0077836D01*
X0103759Y0077849D01*
X0103707Y0077859D01*
X0103655Y0077864D01*
X0103603Y0077866D01*
X0102503Y0077866D01*
X0102503Y0079333D01*
X0104337Y0079333D01*
X0100822Y0077866D02*
X0099263Y0076033D01*
X0099264Y0078600D02*
X0099285Y0078659D01*
X0099310Y0078718D01*
X0099338Y0078775D01*
X0099370Y0078830D01*
X0099405Y0078883D01*
X0099443Y0078933D01*
X0099484Y0078982D01*
X0099528Y0079028D01*
X0099574Y0079071D01*
X0099623Y0079111D01*
X0099674Y0079149D01*
X0099728Y0079183D01*
X0099783Y0079214D01*
X0099841Y0079241D01*
X0099899Y0079265D01*
X0099959Y0079286D01*
X0100021Y0079303D01*
X0100083Y0079316D01*
X0100145Y0079325D01*
X0100209Y0079331D01*
X0100272Y0079333D01*
X0100328Y0079331D01*
X0100384Y0079325D01*
X0100440Y0079316D01*
X0100495Y0079302D01*
X0100548Y0079285D01*
X0100601Y0079265D01*
X0100652Y0079241D01*
X0100701Y0079213D01*
X0100748Y0079182D01*
X0100793Y0079148D01*
X0100835Y0079111D01*
X0100875Y0079071D01*
X0100912Y0079029D01*
X0100946Y0078984D01*
X0100977Y0078937D01*
X0101005Y0078888D01*
X0101029Y0078837D01*
X0101049Y0078784D01*
X0101066Y0078731D01*
X0101080Y0078676D01*
X0101089Y0078620D01*
X0101095Y0078564D01*
X0101097Y0078508D01*
X0101095Y0078453D01*
X0101090Y0078398D01*
X0101082Y0078343D01*
X0101070Y0078290D01*
X0101054Y0078236D01*
X0101036Y0078185D01*
X0101014Y0078134D01*
X0100989Y0078085D01*
X0100961Y0078037D01*
X0100931Y0077991D01*
X0100897Y0077947D01*
X0100861Y0077906D01*
X0100822Y0077866D01*
X0026073Y0078416D02*
X0026073Y0076950D01*
X0026071Y0076892D01*
X0026066Y0076835D01*
X0026057Y0076778D01*
X0026044Y0076722D01*
X0026028Y0076667D01*
X0026009Y0076612D01*
X0025986Y0076560D01*
X0025960Y0076508D01*
X0025930Y0076459D01*
X0025898Y0076411D01*
X0025863Y0076365D01*
X0025824Y0076322D01*
X0025784Y0076282D01*
X0025741Y0076243D01*
X0025695Y0076208D01*
X0025647Y0076176D01*
X0025598Y0076146D01*
X0025546Y0076120D01*
X0025494Y0076097D01*
X0025439Y0076078D01*
X0025384Y0076062D01*
X0025328Y0076049D01*
X0025271Y0076040D01*
X0025214Y0076035D01*
X0025156Y0076033D01*
X0024239Y0076033D01*
X0024239Y0079333D01*
X0025156Y0079333D01*
X0025214Y0079331D01*
X0025271Y0079326D01*
X0025328Y0079317D01*
X0025384Y0079304D01*
X0025439Y0079288D01*
X0025494Y0079269D01*
X0025546Y0079246D01*
X0025598Y0079220D01*
X0025647Y0079190D01*
X0025695Y0079158D01*
X0025741Y0079123D01*
X0025784Y0079084D01*
X0025824Y0079044D01*
X0025863Y0079001D01*
X0025898Y0078955D01*
X0025930Y0078907D01*
X0025960Y0078858D01*
X0025986Y0078806D01*
X0026009Y0078754D01*
X0026028Y0078699D01*
X0026044Y0078644D01*
X0026057Y0078588D01*
X0026066Y0078531D01*
X0026071Y0078474D01*
X0026073Y0078416D01*
X0022617Y0079333D02*
X0022617Y0076033D01*
X0020783Y0079333D01*
X0020783Y0076033D01*
X0019161Y0076033D02*
X0018061Y0076033D01*
X0018009Y0076035D01*
X0017957Y0076040D01*
X0017905Y0076050D01*
X0017854Y0076063D01*
X0017805Y0076079D01*
X0017757Y0076099D01*
X0017710Y0076123D01*
X0017665Y0076149D01*
X0017622Y0076179D01*
X0017581Y0076212D01*
X0017543Y0076248D01*
X0017507Y0076286D01*
X0017474Y0076327D01*
X0017444Y0076370D01*
X0017418Y0076415D01*
X0017394Y0076462D01*
X0017374Y0076510D01*
X0017358Y0076559D01*
X0017345Y0076610D01*
X0017335Y0076662D01*
X0017330Y0076714D01*
X0017328Y0076766D01*
X0017327Y0076766D02*
X0017327Y0078600D01*
X0017328Y0078600D02*
X0017330Y0078652D01*
X0017335Y0078704D01*
X0017345Y0078756D01*
X0017358Y0078807D01*
X0017374Y0078856D01*
X0017394Y0078904D01*
X0017418Y0078951D01*
X0017444Y0078996D01*
X0017474Y0079039D01*
X0017507Y0079080D01*
X0017543Y0079118D01*
X0017581Y0079154D01*
X0017622Y0079187D01*
X0017665Y0079217D01*
X0017710Y0079243D01*
X0017756Y0079267D01*
X0017805Y0079287D01*
X0017854Y0079303D01*
X0017905Y0079316D01*
X0017957Y0079326D01*
X0018009Y0079331D01*
X0018061Y0079333D01*
X0019161Y0079333D01*
X0019161Y0077866D02*
X0019161Y0076033D01*
X0019161Y0077866D02*
X0018611Y0077866D01*
X0015570Y0079333D02*
X0013737Y0079333D01*
X0014653Y0079333D02*
X0014653Y0076033D01*
X0012730Y0076033D02*
X0011630Y0079333D01*
X0010530Y0076033D01*
X0010805Y0076858D02*
X0012455Y0076858D01*
X0008547Y0076033D02*
X0008606Y0076035D01*
X0008664Y0076041D01*
X0008722Y0076050D01*
X0008780Y0076063D01*
X0008836Y0076080D01*
X0008891Y0076100D01*
X0008945Y0076124D01*
X0008997Y0076151D01*
X0009047Y0076181D01*
X0009095Y0076215D01*
X0009141Y0076252D01*
X0009185Y0076291D01*
X0009226Y0076334D01*
X0009264Y0076378D01*
X0009299Y0076425D01*
X0009331Y0076475D01*
X0009360Y0076526D01*
X0009386Y0076579D01*
X0009408Y0076633D01*
X0009426Y0076689D01*
X0009441Y0076746D01*
X0009452Y0076804D01*
X0009460Y0076862D01*
X0009464Y0076921D01*
X0009464Y0076979D01*
X0009460Y0077038D01*
X0009452Y0077096D01*
X0009441Y0077154D01*
X0009426Y0077211D01*
X0009408Y0077267D01*
X0009386Y0077321D01*
X0009360Y0077374D01*
X0009331Y0077425D01*
X0009299Y0077475D01*
X0009264Y0077522D01*
X0009226Y0077566D01*
X0009185Y0077609D01*
X0009141Y0077648D01*
X0009095Y0077685D01*
X0009047Y0077719D01*
X0008997Y0077749D01*
X0008945Y0077776D01*
X0008891Y0077800D01*
X0008836Y0077820D01*
X0008780Y0077837D01*
X0008722Y0077850D01*
X0008664Y0077859D01*
X0008606Y0077865D01*
X0008547Y0077867D01*
X0008547Y0077866D02*
X0007630Y0077866D01*
X0008547Y0077867D02*
X0008599Y0077869D01*
X0008651Y0077874D01*
X0008703Y0077884D01*
X0008754Y0077897D01*
X0008803Y0077913D01*
X0008851Y0077933D01*
X0008898Y0077957D01*
X0008943Y0077983D01*
X0008986Y0078013D01*
X0009027Y0078046D01*
X0009065Y0078082D01*
X0009101Y0078120D01*
X0009134Y0078161D01*
X0009164Y0078204D01*
X0009190Y0078249D01*
X0009214Y0078296D01*
X0009234Y0078344D01*
X0009250Y0078393D01*
X0009263Y0078444D01*
X0009273Y0078496D01*
X0009278Y0078548D01*
X0009280Y0078600D01*
X0009278Y0078652D01*
X0009273Y0078704D01*
X0009263Y0078756D01*
X0009250Y0078807D01*
X0009234Y0078856D01*
X0009214Y0078904D01*
X0009190Y0078951D01*
X0009164Y0078996D01*
X0009134Y0079039D01*
X0009101Y0079080D01*
X0009065Y0079118D01*
X0009027Y0079154D01*
X0008986Y0079187D01*
X0008943Y0079217D01*
X0008898Y0079243D01*
X0008851Y0079267D01*
X0008803Y0079287D01*
X0008754Y0079303D01*
X0008703Y0079316D01*
X0008651Y0079326D01*
X0008599Y0079331D01*
X0008547Y0079333D01*
X0007630Y0079333D01*
X0007630Y0076033D01*
X0008547Y0076033D01*
D11*
X0034300Y0066933D02*
X0038500Y0066933D01*
X0036400Y0064833D02*
X0036400Y0069033D01*
X0049136Y0061857D02*
X0049136Y0047684D01*
X0058388Y0050046D02*
X0061538Y0050046D01*
X0057179Y0050046D02*
X0057181Y0050151D01*
X0057187Y0050257D01*
X0057197Y0050361D01*
X0057211Y0050466D01*
X0057229Y0050570D01*
X0057250Y0050673D01*
X0057276Y0050775D01*
X0057306Y0050876D01*
X0057339Y0050976D01*
X0057376Y0051075D01*
X0057417Y0051172D01*
X0057461Y0051267D01*
X0057509Y0051361D01*
X0057561Y0051453D01*
X0057616Y0051543D01*
X0057674Y0051631D01*
X0057736Y0051716D01*
X0057801Y0051799D01*
X0057868Y0051880D01*
X0057939Y0051958D01*
X0058013Y0052033D01*
X0058090Y0052105D01*
X0058169Y0052175D01*
X0058251Y0052241D01*
X0058335Y0052304D01*
X0058422Y0052364D01*
X0058511Y0052421D01*
X0058602Y0052474D01*
X0058694Y0052524D01*
X0058789Y0052570D01*
X0058885Y0052613D01*
X0058983Y0052652D01*
X0059083Y0052687D01*
X0059183Y0052719D01*
X0059285Y0052746D01*
X0059388Y0052770D01*
X0059491Y0052790D01*
X0059595Y0052806D01*
X0059700Y0052818D01*
X0059805Y0052826D01*
X0059910Y0052830D01*
X0060016Y0052830D01*
X0060121Y0052826D01*
X0060226Y0052818D01*
X0060331Y0052806D01*
X0060435Y0052790D01*
X0060538Y0052770D01*
X0060641Y0052746D01*
X0060743Y0052719D01*
X0060843Y0052687D01*
X0060943Y0052652D01*
X0061041Y0052613D01*
X0061137Y0052570D01*
X0061232Y0052524D01*
X0061324Y0052474D01*
X0061415Y0052421D01*
X0061504Y0052364D01*
X0061591Y0052304D01*
X0061675Y0052241D01*
X0061757Y0052175D01*
X0061836Y0052105D01*
X0061913Y0052033D01*
X0061987Y0051958D01*
X0062058Y0051880D01*
X0062125Y0051799D01*
X0062190Y0051716D01*
X0062252Y0051631D01*
X0062310Y0051543D01*
X0062365Y0051453D01*
X0062417Y0051361D01*
X0062465Y0051267D01*
X0062509Y0051172D01*
X0062550Y0051075D01*
X0062587Y0050976D01*
X0062620Y0050876D01*
X0062650Y0050775D01*
X0062676Y0050673D01*
X0062697Y0050570D01*
X0062715Y0050466D01*
X0062729Y0050361D01*
X0062739Y0050257D01*
X0062745Y0050151D01*
X0062747Y0050046D01*
X0062745Y0049941D01*
X0062739Y0049835D01*
X0062729Y0049731D01*
X0062715Y0049626D01*
X0062697Y0049522D01*
X0062676Y0049419D01*
X0062650Y0049317D01*
X0062620Y0049216D01*
X0062587Y0049116D01*
X0062550Y0049017D01*
X0062509Y0048920D01*
X0062465Y0048825D01*
X0062417Y0048731D01*
X0062365Y0048639D01*
X0062310Y0048549D01*
X0062252Y0048461D01*
X0062190Y0048376D01*
X0062125Y0048293D01*
X0062058Y0048212D01*
X0061987Y0048134D01*
X0061913Y0048059D01*
X0061836Y0047987D01*
X0061757Y0047917D01*
X0061675Y0047851D01*
X0061591Y0047788D01*
X0061504Y0047728D01*
X0061415Y0047671D01*
X0061324Y0047618D01*
X0061232Y0047568D01*
X0061137Y0047522D01*
X0061041Y0047479D01*
X0060943Y0047440D01*
X0060843Y0047405D01*
X0060743Y0047373D01*
X0060641Y0047346D01*
X0060538Y0047322D01*
X0060435Y0047302D01*
X0060331Y0047286D01*
X0060226Y0047274D01*
X0060121Y0047266D01*
X0060016Y0047262D01*
X0059910Y0047262D01*
X0059805Y0047266D01*
X0059700Y0047274D01*
X0059595Y0047286D01*
X0059491Y0047302D01*
X0059388Y0047322D01*
X0059285Y0047346D01*
X0059183Y0047373D01*
X0059083Y0047405D01*
X0058983Y0047440D01*
X0058885Y0047479D01*
X0058789Y0047522D01*
X0058694Y0047568D01*
X0058602Y0047618D01*
X0058511Y0047671D01*
X0058422Y0047728D01*
X0058335Y0047788D01*
X0058251Y0047851D01*
X0058169Y0047917D01*
X0058090Y0047987D01*
X0058013Y0048059D01*
X0057939Y0048134D01*
X0057868Y0048212D01*
X0057801Y0048293D01*
X0057736Y0048376D01*
X0057674Y0048461D01*
X0057616Y0048549D01*
X0057561Y0048639D01*
X0057509Y0048731D01*
X0057461Y0048825D01*
X0057417Y0048920D01*
X0057376Y0049017D01*
X0057339Y0049116D01*
X0057306Y0049216D01*
X0057276Y0049317D01*
X0057250Y0049419D01*
X0057229Y0049522D01*
X0057211Y0049626D01*
X0057197Y0049731D01*
X0057187Y0049835D01*
X0057181Y0049941D01*
X0057179Y0050046D01*
X0059963Y0051621D02*
X0059963Y0048471D01*
X0067837Y0048471D02*
X0067837Y0051621D01*
X0065053Y0050046D02*
X0065055Y0050151D01*
X0065061Y0050257D01*
X0065071Y0050361D01*
X0065085Y0050466D01*
X0065103Y0050570D01*
X0065124Y0050673D01*
X0065150Y0050775D01*
X0065180Y0050876D01*
X0065213Y0050976D01*
X0065250Y0051075D01*
X0065291Y0051172D01*
X0065335Y0051267D01*
X0065383Y0051361D01*
X0065435Y0051453D01*
X0065490Y0051543D01*
X0065548Y0051631D01*
X0065610Y0051716D01*
X0065675Y0051799D01*
X0065742Y0051880D01*
X0065813Y0051958D01*
X0065887Y0052033D01*
X0065964Y0052105D01*
X0066043Y0052175D01*
X0066125Y0052241D01*
X0066209Y0052304D01*
X0066296Y0052364D01*
X0066385Y0052421D01*
X0066476Y0052474D01*
X0066568Y0052524D01*
X0066663Y0052570D01*
X0066759Y0052613D01*
X0066857Y0052652D01*
X0066957Y0052687D01*
X0067057Y0052719D01*
X0067159Y0052746D01*
X0067262Y0052770D01*
X0067365Y0052790D01*
X0067469Y0052806D01*
X0067574Y0052818D01*
X0067679Y0052826D01*
X0067784Y0052830D01*
X0067890Y0052830D01*
X0067995Y0052826D01*
X0068100Y0052818D01*
X0068205Y0052806D01*
X0068309Y0052790D01*
X0068412Y0052770D01*
X0068515Y0052746D01*
X0068617Y0052719D01*
X0068717Y0052687D01*
X0068817Y0052652D01*
X0068915Y0052613D01*
X0069011Y0052570D01*
X0069106Y0052524D01*
X0069198Y0052474D01*
X0069289Y0052421D01*
X0069378Y0052364D01*
X0069465Y0052304D01*
X0069549Y0052241D01*
X0069631Y0052175D01*
X0069710Y0052105D01*
X0069787Y0052033D01*
X0069861Y0051958D01*
X0069932Y0051880D01*
X0069999Y0051799D01*
X0070064Y0051716D01*
X0070126Y0051631D01*
X0070184Y0051543D01*
X0070239Y0051453D01*
X0070291Y0051361D01*
X0070339Y0051267D01*
X0070383Y0051172D01*
X0070424Y0051075D01*
X0070461Y0050976D01*
X0070494Y0050876D01*
X0070524Y0050775D01*
X0070550Y0050673D01*
X0070571Y0050570D01*
X0070589Y0050466D01*
X0070603Y0050361D01*
X0070613Y0050257D01*
X0070619Y0050151D01*
X0070621Y0050046D01*
X0070619Y0049941D01*
X0070613Y0049835D01*
X0070603Y0049731D01*
X0070589Y0049626D01*
X0070571Y0049522D01*
X0070550Y0049419D01*
X0070524Y0049317D01*
X0070494Y0049216D01*
X0070461Y0049116D01*
X0070424Y0049017D01*
X0070383Y0048920D01*
X0070339Y0048825D01*
X0070291Y0048731D01*
X0070239Y0048639D01*
X0070184Y0048549D01*
X0070126Y0048461D01*
X0070064Y0048376D01*
X0069999Y0048293D01*
X0069932Y0048212D01*
X0069861Y0048134D01*
X0069787Y0048059D01*
X0069710Y0047987D01*
X0069631Y0047917D01*
X0069549Y0047851D01*
X0069465Y0047788D01*
X0069378Y0047728D01*
X0069289Y0047671D01*
X0069198Y0047618D01*
X0069106Y0047568D01*
X0069011Y0047522D01*
X0068915Y0047479D01*
X0068817Y0047440D01*
X0068717Y0047405D01*
X0068617Y0047373D01*
X0068515Y0047346D01*
X0068412Y0047322D01*
X0068309Y0047302D01*
X0068205Y0047286D01*
X0068100Y0047274D01*
X0067995Y0047266D01*
X0067890Y0047262D01*
X0067784Y0047262D01*
X0067679Y0047266D01*
X0067574Y0047274D01*
X0067469Y0047286D01*
X0067365Y0047302D01*
X0067262Y0047322D01*
X0067159Y0047346D01*
X0067057Y0047373D01*
X0066957Y0047405D01*
X0066857Y0047440D01*
X0066759Y0047479D01*
X0066663Y0047522D01*
X0066568Y0047568D01*
X0066476Y0047618D01*
X0066385Y0047671D01*
X0066296Y0047728D01*
X0066209Y0047788D01*
X0066125Y0047851D01*
X0066043Y0047917D01*
X0065964Y0047987D01*
X0065887Y0048059D01*
X0065813Y0048134D01*
X0065742Y0048212D01*
X0065675Y0048293D01*
X0065610Y0048376D01*
X0065548Y0048461D01*
X0065490Y0048549D01*
X0065435Y0048639D01*
X0065383Y0048731D01*
X0065335Y0048825D01*
X0065291Y0048920D01*
X0065250Y0049017D01*
X0065213Y0049116D01*
X0065180Y0049216D01*
X0065150Y0049317D01*
X0065124Y0049419D01*
X0065103Y0049522D01*
X0065085Y0049626D01*
X0065071Y0049731D01*
X0065061Y0049835D01*
X0065055Y0049941D01*
X0065053Y0050046D01*
X0078664Y0047684D02*
X0078664Y0060282D01*
X0070396Y0068747D02*
X0056026Y0068747D01*
X0036400Y0042933D02*
X0036400Y0038733D01*
X0057601Y0039219D02*
X0070199Y0039219D01*
D12*
X0029650Y0051283D02*
X0028400Y0050033D01*
X0027150Y0051283D01*
X0028400Y0052533D02*
X0028400Y0055033D01*
X0027150Y0056283D02*
X0028400Y0057533D01*
X0029650Y0056283D01*
D13*
X0021018Y0053483D02*
X0021018Y0060389D01*
X0009782Y0064613D02*
X0009782Y0043353D01*
X0013719Y0040294D02*
X0017081Y0040294D01*
X0017081Y0067672D02*
X0013719Y0067672D01*
X0082591Y0048233D02*
X0082591Y0041933D01*
X0084166Y0043705D02*
X0084168Y0043744D01*
X0084174Y0043783D01*
X0084184Y0043821D01*
X0084197Y0043858D01*
X0084214Y0043893D01*
X0084234Y0043927D01*
X0084258Y0043958D01*
X0084285Y0043987D01*
X0084314Y0044013D01*
X0084346Y0044036D01*
X0084380Y0044056D01*
X0084416Y0044072D01*
X0084453Y0044084D01*
X0084492Y0044093D01*
X0084531Y0044098D01*
X0084570Y0044099D01*
X0084609Y0044096D01*
X0084648Y0044089D01*
X0084685Y0044078D01*
X0084722Y0044064D01*
X0084757Y0044046D01*
X0084790Y0044025D01*
X0084821Y0044000D01*
X0084849Y0043973D01*
X0084874Y0043943D01*
X0084896Y0043910D01*
X0084915Y0043876D01*
X0084930Y0043840D01*
X0084942Y0043802D01*
X0084950Y0043764D01*
X0084954Y0043725D01*
X0084954Y0043685D01*
X0084950Y0043646D01*
X0084942Y0043608D01*
X0084930Y0043570D01*
X0084915Y0043534D01*
X0084896Y0043500D01*
X0084874Y0043467D01*
X0084849Y0043437D01*
X0084821Y0043410D01*
X0084790Y0043385D01*
X0084757Y0043364D01*
X0084722Y0043346D01*
X0084685Y0043332D01*
X0084648Y0043321D01*
X0084609Y0043314D01*
X0084570Y0043311D01*
X0084531Y0043312D01*
X0084492Y0043317D01*
X0084453Y0043326D01*
X0084416Y0043338D01*
X0084380Y0043354D01*
X0084346Y0043374D01*
X0084314Y0043397D01*
X0084285Y0043423D01*
X0084258Y0043452D01*
X0084234Y0043483D01*
X0084214Y0043517D01*
X0084197Y0043552D01*
X0084184Y0043589D01*
X0084174Y0043627D01*
X0084168Y0043666D01*
X0084166Y0043705D01*
X0094009Y0041933D02*
X0094009Y0048233D01*
X0102946Y0048471D02*
X0102946Y0043747D01*
X0108458Y0043747D01*
X0100900Y0040233D02*
X0100900Y0038233D01*
X0120663Y0043747D02*
X0123419Y0043747D01*
X0123419Y0045739D01*
X0102946Y0059531D02*
X0102946Y0064219D01*
X0108458Y0064219D01*
X0100900Y0067683D02*
X0100900Y0069683D01*
X0088600Y0069783D02*
X0088600Y0067783D01*
X0088500Y0063883D02*
X0088500Y0061883D01*
X0088500Y0058083D02*
X0088500Y0056083D01*
X0120663Y0064219D02*
X0123419Y0064219D01*
X0123419Y0062251D01*
M02*
