G75*
%MOIN*%
%OFA0B0*%
%FSLAX25Y25*%
%IPPOS*%
%LPD*%
%AMOC8*
5,1,8,0,0,1.08239X$1,22.5*
%
%ADD10C,0.00000*%
D10*
X0006400Y0018983D02*
X0006400Y0088983D01*
X0131800Y0088983D01*
X0131800Y0018983D01*
X0006400Y0018983D01*
X0013628Y0048078D02*
X0013630Y0048162D01*
X0013636Y0048245D01*
X0013646Y0048328D01*
X0013660Y0048411D01*
X0013677Y0048493D01*
X0013699Y0048574D01*
X0013724Y0048653D01*
X0013753Y0048732D01*
X0013786Y0048809D01*
X0013822Y0048884D01*
X0013862Y0048958D01*
X0013905Y0049030D01*
X0013952Y0049099D01*
X0014002Y0049166D01*
X0014055Y0049231D01*
X0014111Y0049293D01*
X0014169Y0049353D01*
X0014231Y0049410D01*
X0014295Y0049463D01*
X0014362Y0049514D01*
X0014431Y0049561D01*
X0014502Y0049606D01*
X0014575Y0049646D01*
X0014650Y0049683D01*
X0014727Y0049717D01*
X0014805Y0049747D01*
X0014884Y0049773D01*
X0014965Y0049796D01*
X0015047Y0049814D01*
X0015129Y0049829D01*
X0015212Y0049840D01*
X0015295Y0049847D01*
X0015379Y0049850D01*
X0015463Y0049849D01*
X0015546Y0049844D01*
X0015630Y0049835D01*
X0015712Y0049822D01*
X0015794Y0049806D01*
X0015875Y0049785D01*
X0015956Y0049761D01*
X0016034Y0049733D01*
X0016112Y0049701D01*
X0016188Y0049665D01*
X0016262Y0049626D01*
X0016334Y0049584D01*
X0016404Y0049538D01*
X0016472Y0049489D01*
X0016537Y0049437D01*
X0016600Y0049382D01*
X0016660Y0049324D01*
X0016718Y0049263D01*
X0016772Y0049199D01*
X0016824Y0049133D01*
X0016872Y0049065D01*
X0016917Y0048994D01*
X0016958Y0048921D01*
X0016997Y0048847D01*
X0017031Y0048771D01*
X0017062Y0048693D01*
X0017089Y0048614D01*
X0017113Y0048533D01*
X0017132Y0048452D01*
X0017148Y0048370D01*
X0017160Y0048287D01*
X0017168Y0048203D01*
X0017172Y0048120D01*
X0017172Y0048036D01*
X0017168Y0047953D01*
X0017160Y0047869D01*
X0017148Y0047786D01*
X0017132Y0047704D01*
X0017113Y0047623D01*
X0017089Y0047542D01*
X0017062Y0047463D01*
X0017031Y0047385D01*
X0016997Y0047309D01*
X0016958Y0047235D01*
X0016917Y0047162D01*
X0016872Y0047091D01*
X0016824Y0047023D01*
X0016772Y0046957D01*
X0016718Y0046893D01*
X0016660Y0046832D01*
X0016600Y0046774D01*
X0016537Y0046719D01*
X0016472Y0046667D01*
X0016404Y0046618D01*
X0016334Y0046572D01*
X0016262Y0046530D01*
X0016188Y0046491D01*
X0016112Y0046455D01*
X0016034Y0046423D01*
X0015956Y0046395D01*
X0015875Y0046371D01*
X0015794Y0046350D01*
X0015712Y0046334D01*
X0015630Y0046321D01*
X0015546Y0046312D01*
X0015463Y0046307D01*
X0015379Y0046306D01*
X0015295Y0046309D01*
X0015212Y0046316D01*
X0015129Y0046327D01*
X0015047Y0046342D01*
X0014965Y0046360D01*
X0014884Y0046383D01*
X0014805Y0046409D01*
X0014727Y0046439D01*
X0014650Y0046473D01*
X0014575Y0046510D01*
X0014502Y0046550D01*
X0014431Y0046595D01*
X0014362Y0046642D01*
X0014295Y0046693D01*
X0014231Y0046746D01*
X0014169Y0046803D01*
X0014111Y0046863D01*
X0014055Y0046925D01*
X0014002Y0046990D01*
X0013952Y0047057D01*
X0013905Y0047126D01*
X0013862Y0047198D01*
X0013822Y0047272D01*
X0013786Y0047347D01*
X0013753Y0047424D01*
X0013724Y0047503D01*
X0013699Y0047582D01*
X0013677Y0047663D01*
X0013660Y0047745D01*
X0013646Y0047828D01*
X0013636Y0047911D01*
X0013630Y0047994D01*
X0013628Y0048078D01*
X0013628Y0059889D02*
X0013630Y0059973D01*
X0013636Y0060056D01*
X0013646Y0060139D01*
X0013660Y0060222D01*
X0013677Y0060304D01*
X0013699Y0060385D01*
X0013724Y0060464D01*
X0013753Y0060543D01*
X0013786Y0060620D01*
X0013822Y0060695D01*
X0013862Y0060769D01*
X0013905Y0060841D01*
X0013952Y0060910D01*
X0014002Y0060977D01*
X0014055Y0061042D01*
X0014111Y0061104D01*
X0014169Y0061164D01*
X0014231Y0061221D01*
X0014295Y0061274D01*
X0014362Y0061325D01*
X0014431Y0061372D01*
X0014502Y0061417D01*
X0014575Y0061457D01*
X0014650Y0061494D01*
X0014727Y0061528D01*
X0014805Y0061558D01*
X0014884Y0061584D01*
X0014965Y0061607D01*
X0015047Y0061625D01*
X0015129Y0061640D01*
X0015212Y0061651D01*
X0015295Y0061658D01*
X0015379Y0061661D01*
X0015463Y0061660D01*
X0015546Y0061655D01*
X0015630Y0061646D01*
X0015712Y0061633D01*
X0015794Y0061617D01*
X0015875Y0061596D01*
X0015956Y0061572D01*
X0016034Y0061544D01*
X0016112Y0061512D01*
X0016188Y0061476D01*
X0016262Y0061437D01*
X0016334Y0061395D01*
X0016404Y0061349D01*
X0016472Y0061300D01*
X0016537Y0061248D01*
X0016600Y0061193D01*
X0016660Y0061135D01*
X0016718Y0061074D01*
X0016772Y0061010D01*
X0016824Y0060944D01*
X0016872Y0060876D01*
X0016917Y0060805D01*
X0016958Y0060732D01*
X0016997Y0060658D01*
X0017031Y0060582D01*
X0017062Y0060504D01*
X0017089Y0060425D01*
X0017113Y0060344D01*
X0017132Y0060263D01*
X0017148Y0060181D01*
X0017160Y0060098D01*
X0017168Y0060014D01*
X0017172Y0059931D01*
X0017172Y0059847D01*
X0017168Y0059764D01*
X0017160Y0059680D01*
X0017148Y0059597D01*
X0017132Y0059515D01*
X0017113Y0059434D01*
X0017089Y0059353D01*
X0017062Y0059274D01*
X0017031Y0059196D01*
X0016997Y0059120D01*
X0016958Y0059046D01*
X0016917Y0058973D01*
X0016872Y0058902D01*
X0016824Y0058834D01*
X0016772Y0058768D01*
X0016718Y0058704D01*
X0016660Y0058643D01*
X0016600Y0058585D01*
X0016537Y0058530D01*
X0016472Y0058478D01*
X0016404Y0058429D01*
X0016334Y0058383D01*
X0016262Y0058341D01*
X0016188Y0058302D01*
X0016112Y0058266D01*
X0016034Y0058234D01*
X0015956Y0058206D01*
X0015875Y0058182D01*
X0015794Y0058161D01*
X0015712Y0058145D01*
X0015630Y0058132D01*
X0015546Y0058123D01*
X0015463Y0058118D01*
X0015379Y0058117D01*
X0015295Y0058120D01*
X0015212Y0058127D01*
X0015129Y0058138D01*
X0015047Y0058153D01*
X0014965Y0058171D01*
X0014884Y0058194D01*
X0014805Y0058220D01*
X0014727Y0058250D01*
X0014650Y0058284D01*
X0014575Y0058321D01*
X0014502Y0058361D01*
X0014431Y0058406D01*
X0014362Y0058453D01*
X0014295Y0058504D01*
X0014231Y0058557D01*
X0014169Y0058614D01*
X0014111Y0058674D01*
X0014055Y0058736D01*
X0014002Y0058801D01*
X0013952Y0058868D01*
X0013905Y0058937D01*
X0013862Y0059009D01*
X0013822Y0059083D01*
X0013786Y0059158D01*
X0013753Y0059235D01*
X0013724Y0059314D01*
X0013699Y0059393D01*
X0013677Y0059474D01*
X0013660Y0059556D01*
X0013646Y0059639D01*
X0013636Y0059722D01*
X0013630Y0059805D01*
X0013628Y0059889D01*
M02*
