%
M48
M72
T01C0.01000
T02C0.03543
T03C0.04000
%
T01
X88500Y59983
T02
X15400Y59889
X15400Y48078
T03
X11800Y23933
X21800Y23933
X31800Y23933
X41800Y23933
X51800Y23933
X61800Y23933
X71800Y23933
X81800Y23933
X91800Y23933
X101800Y23933
X36400Y48983
X36400Y58983
X31800Y84033
X41800Y84033
X51800Y84033
X61800Y84033
X71800Y84033
X81800Y84033
X91800Y84033
X101800Y84033
X21800Y84033
X11800Y84033
M30
