G75*
%MOIN*%
%OFA0B0*%
%FSLAX25Y25*%
%IPPOS*%
%LPD*%
%AMOC8*
5,1,8,0,0,1.08239X$1,22.5*
%
%ADD10C,0.07000*%
%ADD11R,0.07874X0.07874*%
%ADD12R,0.07874X0.03937*%
%ADD13R,0.03150X0.03150*%
%ADD14R,0.02165X0.04724*%
%ADD15R,0.05118X0.05118*%
%ADD16R,0.07874X0.05518*%
%ADD17R,0.05906X0.02756*%
%ADD18R,0.02362X0.03937*%
%ADD19R,0.03150X0.03937*%
%ADD20C,0.07400*%
%ADD21C,0.00600*%
%ADD22C,0.01800*%
%ADD23C,0.01200*%
%ADD24C,0.01000*%
%ADD25C,0.00800*%
D10*
X0011800Y0023933D03*
X0021800Y0023933D03*
X0031800Y0023933D03*
X0041800Y0023933D03*
X0051800Y0023933D03*
X0061800Y0023933D03*
X0071800Y0023933D03*
X0081800Y0023933D03*
X0091800Y0023933D03*
X0101800Y0023933D03*
X0101800Y0084033D03*
X0091800Y0084033D03*
X0081800Y0084033D03*
X0071800Y0084033D03*
X0061800Y0084033D03*
X0051800Y0084033D03*
X0041800Y0084033D03*
X0031800Y0084033D03*
X0021800Y0084033D03*
X0011800Y0084033D03*
D11*
X0074924Y0065007D03*
X0074924Y0042959D03*
X0052876Y0042959D03*
D12*
G36*
X0056264Y0067186D02*
X0050697Y0061619D01*
X0047914Y0064402D01*
X0053481Y0069969D01*
X0056264Y0067186D01*
G37*
D13*
X0085600Y0068783D03*
X0091600Y0068783D03*
X0097900Y0068683D03*
X0103900Y0068683D03*
X0091500Y0062883D03*
X0085500Y0062883D03*
X0085500Y0057083D03*
X0091500Y0057083D03*
X0097900Y0039233D03*
X0103900Y0039233D03*
D14*
X0092040Y0039965D03*
X0088300Y0039965D03*
X0084560Y0039965D03*
X0084560Y0050201D03*
X0088300Y0050201D03*
X0092040Y0050201D03*
D15*
X0124600Y0049456D03*
X0124600Y0058511D03*
D16*
X0101850Y0053983D03*
D17*
X0022290Y0051030D03*
X0022290Y0045125D03*
X0022290Y0062841D03*
D18*
X0011463Y0068353D03*
X0011463Y0039613D03*
D19*
X0019731Y0039613D03*
X0019731Y0068353D03*
D20*
X0036400Y0058983D03*
X0036400Y0048983D03*
D21*
X0016039Y0021101D02*
X0015421Y0020483D01*
X0018179Y0020483D01*
X0017561Y0021101D01*
X0016800Y0022938D01*
X0016800Y0024928D01*
X0016039Y0026765D01*
X0014632Y0028172D01*
X0012795Y0028933D01*
X0010805Y0028933D01*
X0008968Y0028172D01*
X0007900Y0027104D01*
X0007900Y0080862D01*
X0008968Y0079794D01*
X0010805Y0079033D01*
X0012795Y0079033D01*
X0014632Y0079794D01*
X0016039Y0081201D01*
X0016800Y0083038D01*
X0016800Y0085028D01*
X0016039Y0086865D01*
X0015421Y0087483D01*
X0018462Y0087483D01*
X0018139Y0087160D01*
X0017695Y0086549D01*
X0017352Y0085876D01*
X0017118Y0085157D01*
X0017000Y0084411D01*
X0017000Y0084333D01*
X0021500Y0084333D01*
X0021500Y0083733D01*
X0022100Y0083733D01*
X0022100Y0079233D01*
X0022178Y0079233D01*
X0022924Y0079351D01*
X0023643Y0079585D01*
X0024316Y0079928D01*
X0024927Y0080372D01*
X0025461Y0080906D01*
X0025905Y0081517D01*
X0026248Y0082191D01*
X0026482Y0082909D01*
X0026600Y0083655D01*
X0026600Y0083733D01*
X0022100Y0083733D01*
X0022100Y0084333D01*
X0026600Y0084333D01*
X0026600Y0084411D01*
X0026482Y0085157D01*
X0026248Y0085876D01*
X0025905Y0086549D01*
X0025461Y0087160D01*
X0025138Y0087483D01*
X0028179Y0087483D01*
X0027561Y0086865D01*
X0026800Y0085028D01*
X0026800Y0083038D01*
X0027561Y0081201D01*
X0028968Y0079794D01*
X0030805Y0079033D01*
X0032795Y0079033D01*
X0034632Y0079794D01*
X0036039Y0081201D01*
X0036800Y0083038D01*
X0037561Y0081201D01*
X0038968Y0079794D01*
X0040805Y0079033D01*
X0042795Y0079033D01*
X0043627Y0079378D01*
X0049850Y0073155D01*
X0051022Y0071983D01*
X0079572Y0071983D01*
X0082525Y0069029D01*
X0082525Y0066587D01*
X0083229Y0065883D01*
X0082425Y0065079D01*
X0082425Y0060687D01*
X0083129Y0059983D01*
X0082425Y0059279D01*
X0082425Y0055023D01*
X0081565Y0055883D01*
X0040654Y0055883D01*
X0040808Y0056037D01*
X0041600Y0057949D01*
X0041600Y0060017D01*
X0040808Y0061929D01*
X0039346Y0063391D01*
X0037434Y0064183D01*
X0035366Y0064183D01*
X0034320Y0063750D01*
X0033329Y0064741D01*
X0026743Y0064741D01*
X0026743Y0064841D01*
X0025864Y0065719D01*
X0022761Y0065719D01*
X0022805Y0065763D01*
X0022805Y0070943D01*
X0021927Y0071822D01*
X0017535Y0071822D01*
X0016656Y0070943D01*
X0016656Y0065763D01*
X0017535Y0064885D01*
X0017881Y0064885D01*
X0017837Y0064841D01*
X0017837Y0062078D01*
X0017253Y0062662D01*
X0016051Y0063160D01*
X0014749Y0063160D01*
X0013547Y0062662D01*
X0012626Y0061742D01*
X0012128Y0060539D01*
X0012128Y0059238D01*
X0012626Y0058035D01*
X0013547Y0057115D01*
X0014749Y0056617D01*
X0016051Y0056617D01*
X0017253Y0057115D01*
X0018174Y0058035D01*
X0018672Y0059238D01*
X0018672Y0060007D01*
X0018716Y0059963D01*
X0025864Y0059963D01*
X0026743Y0060842D01*
X0026743Y0060941D01*
X0031583Y0060941D01*
X0031200Y0060017D01*
X0031200Y0057949D01*
X0031992Y0056037D01*
X0032501Y0055528D01*
X0031743Y0054770D01*
X0029903Y0052930D01*
X0026743Y0052930D01*
X0026743Y0053030D01*
X0025864Y0053908D01*
X0018716Y0053908D01*
X0017837Y0053030D01*
X0017837Y0050267D01*
X0017253Y0050851D01*
X0016051Y0051349D01*
X0014749Y0051349D01*
X0013547Y0050851D01*
X0012626Y0049931D01*
X0012128Y0048728D01*
X0012128Y0047427D01*
X0012626Y0046224D01*
X0013547Y0045304D01*
X0014749Y0044806D01*
X0016051Y0044806D01*
X0017253Y0045304D01*
X0017837Y0045888D01*
X0017837Y0043126D01*
X0017881Y0043081D01*
X0017535Y0043081D01*
X0016656Y0042203D01*
X0016656Y0037023D01*
X0017535Y0036144D01*
X0021927Y0036144D01*
X0022805Y0037023D01*
X0022805Y0042203D01*
X0022761Y0042247D01*
X0025864Y0042247D01*
X0026743Y0043126D01*
X0026743Y0043225D01*
X0031003Y0043225D01*
X0032055Y0042172D01*
X0033168Y0041059D01*
X0047439Y0041059D01*
X0047439Y0038401D01*
X0048318Y0037522D01*
X0057435Y0037522D01*
X0058313Y0038401D01*
X0058313Y0047083D01*
X0068113Y0047083D01*
X0069487Y0045709D01*
X0069487Y0038401D01*
X0070365Y0037522D01*
X0079482Y0037522D01*
X0080361Y0038401D01*
X0080361Y0041059D01*
X0080778Y0041059D01*
X0081977Y0039861D01*
X0081977Y0036981D01*
X0082856Y0036103D01*
X0086264Y0036103D01*
X0086612Y0036451D01*
X0086716Y0036391D01*
X0087046Y0036303D01*
X0088059Y0036303D01*
X0088059Y0039724D01*
X0088541Y0039724D01*
X0088541Y0036303D01*
X0089554Y0036303D01*
X0089884Y0036391D01*
X0089988Y0036451D01*
X0090336Y0036103D01*
X0093744Y0036103D01*
X0094623Y0036981D01*
X0094623Y0038065D01*
X0094825Y0038065D01*
X0094825Y0037037D01*
X0095704Y0036158D01*
X0100096Y0036158D01*
X0100975Y0037037D01*
X0100975Y0041429D01*
X0100096Y0042308D01*
X0099800Y0042308D01*
X0099800Y0048442D01*
X0101082Y0049724D01*
X0106408Y0049724D01*
X0107287Y0050603D01*
X0107287Y0052053D01*
X0119293Y0051987D01*
X0120541Y0050767D01*
X0120541Y0046275D01*
X0121420Y0045396D01*
X0127780Y0045396D01*
X0128659Y0046275D01*
X0128659Y0052636D01*
X0127780Y0053515D01*
X0123228Y0053515D01*
X0122291Y0054452D01*
X0127780Y0054452D01*
X0128659Y0055330D01*
X0128659Y0061691D01*
X0127780Y0062570D01*
X0121420Y0062570D01*
X0120541Y0061691D01*
X0120541Y0060411D01*
X0114859Y0060411D01*
X0106975Y0068295D01*
X0106975Y0070879D01*
X0106096Y0071758D01*
X0101704Y0071758D01*
X0100900Y0070954D01*
X0100096Y0071758D01*
X0099800Y0071758D01*
X0099800Y0079346D01*
X0099873Y0079419D01*
X0100805Y0079033D01*
X0102795Y0079033D01*
X0104632Y0079794D01*
X0106039Y0081201D01*
X0106800Y0083038D01*
X0106800Y0085028D01*
X0106039Y0086865D01*
X0105421Y0087483D01*
X0130300Y0087483D01*
X0130300Y0020483D01*
X0105138Y0020483D01*
X0105461Y0020806D01*
X0105905Y0021417D01*
X0106248Y0022091D01*
X0106482Y0022809D01*
X0106600Y0023555D01*
X0106600Y0023633D01*
X0102100Y0023633D01*
X0102100Y0024233D01*
X0106600Y0024233D01*
X0106600Y0024311D01*
X0106482Y0025057D01*
X0106248Y0025776D01*
X0105905Y0026449D01*
X0105461Y0027060D01*
X0104927Y0027594D01*
X0104316Y0028038D01*
X0103643Y0028381D01*
X0102924Y0028615D01*
X0102178Y0028733D01*
X0102100Y0028733D01*
X0102100Y0024233D01*
X0101500Y0024233D01*
X0101500Y0023633D01*
X0097000Y0023633D01*
X0097000Y0023555D01*
X0097118Y0022809D01*
X0097352Y0022091D01*
X0097695Y0021417D01*
X0098139Y0020806D01*
X0098462Y0020483D01*
X0095421Y0020483D01*
X0096039Y0021101D01*
X0096800Y0022938D01*
X0096800Y0024928D01*
X0096039Y0026765D01*
X0094632Y0028172D01*
X0092795Y0028933D01*
X0090805Y0028933D01*
X0088968Y0028172D01*
X0087561Y0026765D01*
X0086800Y0024928D01*
X0086039Y0026765D01*
X0084632Y0028172D01*
X0082795Y0028933D01*
X0080805Y0028933D01*
X0078968Y0028172D01*
X0077561Y0026765D01*
X0076800Y0024928D01*
X0076039Y0026765D01*
X0074632Y0028172D01*
X0072795Y0028933D01*
X0070805Y0028933D01*
X0068968Y0028172D01*
X0067561Y0026765D01*
X0066800Y0024928D01*
X0066039Y0026765D01*
X0064632Y0028172D01*
X0062795Y0028933D01*
X0060805Y0028933D01*
X0058968Y0028172D01*
X0057561Y0026765D01*
X0056800Y0024928D01*
X0056039Y0026765D01*
X0054632Y0028172D01*
X0052795Y0028933D01*
X0050805Y0028933D01*
X0048968Y0028172D01*
X0047561Y0026765D01*
X0046800Y0024928D01*
X0046039Y0026765D01*
X0044632Y0028172D01*
X0042795Y0028933D01*
X0040805Y0028933D01*
X0038968Y0028172D01*
X0037561Y0026765D01*
X0036800Y0024928D01*
X0036039Y0026765D01*
X0034632Y0028172D01*
X0032795Y0028933D01*
X0030805Y0028933D01*
X0028968Y0028172D01*
X0027561Y0026765D01*
X0026800Y0024928D01*
X0026039Y0026765D01*
X0024632Y0028172D01*
X0022795Y0028933D01*
X0020805Y0028933D01*
X0018968Y0028172D01*
X0017561Y0026765D01*
X0016800Y0024928D01*
X0016800Y0022938D01*
X0016039Y0021101D01*
X0016153Y0021377D02*
X0017447Y0021377D01*
X0017199Y0021976D02*
X0016401Y0021976D01*
X0016649Y0022574D02*
X0016951Y0022574D01*
X0016800Y0023173D02*
X0016800Y0023173D01*
X0016800Y0023771D02*
X0016800Y0023771D01*
X0016800Y0024370D02*
X0016800Y0024370D01*
X0016783Y0024968D02*
X0016817Y0024968D01*
X0017065Y0025567D02*
X0016535Y0025567D01*
X0016287Y0026165D02*
X0017313Y0026165D01*
X0017561Y0026764D02*
X0016039Y0026764D01*
X0015442Y0027362D02*
X0018158Y0027362D01*
X0018757Y0027961D02*
X0014843Y0027961D01*
X0013697Y0028559D02*
X0019903Y0028559D01*
X0023697Y0028559D02*
X0029903Y0028559D01*
X0028757Y0027961D02*
X0024843Y0027961D01*
X0025442Y0027362D02*
X0028158Y0027362D01*
X0027561Y0026764D02*
X0026039Y0026764D01*
X0026287Y0026165D02*
X0027313Y0026165D01*
X0027065Y0025567D02*
X0026535Y0025567D01*
X0026783Y0024968D02*
X0026817Y0024968D01*
X0026800Y0024928D02*
X0026800Y0022938D01*
X0026039Y0021101D01*
X0025421Y0020483D01*
X0028179Y0020483D01*
X0027561Y0021101D01*
X0026800Y0022938D01*
X0026800Y0024928D01*
X0026800Y0024370D02*
X0026800Y0024370D01*
X0026800Y0023771D02*
X0026800Y0023771D01*
X0026800Y0023173D02*
X0026800Y0023173D01*
X0026649Y0022574D02*
X0026951Y0022574D01*
X0027199Y0021976D02*
X0026401Y0021976D01*
X0026153Y0021377D02*
X0027447Y0021377D01*
X0027883Y0020779D02*
X0025717Y0020779D01*
X0017883Y0020779D02*
X0015717Y0020779D01*
X0008158Y0027362D02*
X0007900Y0027362D01*
X0007900Y0027961D02*
X0008757Y0027961D01*
X0007900Y0028559D02*
X0009903Y0028559D01*
X0007900Y0029158D02*
X0130300Y0029158D01*
X0130300Y0029756D02*
X0007900Y0029756D01*
X0007900Y0030355D02*
X0130300Y0030355D01*
X0130300Y0030953D02*
X0007900Y0030953D01*
X0007900Y0031552D02*
X0130300Y0031552D01*
X0130300Y0032150D02*
X0007900Y0032150D01*
X0007900Y0032749D02*
X0130300Y0032749D01*
X0130300Y0033347D02*
X0007900Y0033347D01*
X0007900Y0033946D02*
X0130300Y0033946D01*
X0130300Y0034544D02*
X0007900Y0034544D01*
X0007900Y0035143D02*
X0130300Y0035143D01*
X0130300Y0035741D02*
X0007900Y0035741D01*
X0007900Y0036340D02*
X0009465Y0036340D01*
X0009661Y0036144D02*
X0013265Y0036144D01*
X0014144Y0037023D01*
X0014144Y0042203D01*
X0013265Y0043081D01*
X0009661Y0043081D01*
X0008782Y0042203D01*
X0008782Y0037023D01*
X0009661Y0036144D01*
X0008867Y0036938D02*
X0007900Y0036938D01*
X0007900Y0037537D02*
X0008782Y0037537D01*
X0008782Y0038135D02*
X0007900Y0038135D01*
X0007900Y0038734D02*
X0008782Y0038734D01*
X0008782Y0039332D02*
X0007900Y0039332D01*
X0007900Y0039931D02*
X0008782Y0039931D01*
X0008782Y0040529D02*
X0007900Y0040529D01*
X0007900Y0041128D02*
X0008782Y0041128D01*
X0008782Y0041727D02*
X0007900Y0041727D01*
X0007900Y0042325D02*
X0008904Y0042325D01*
X0009503Y0042924D02*
X0007900Y0042924D01*
X0007900Y0043522D02*
X0017837Y0043522D01*
X0017837Y0044121D02*
X0007900Y0044121D01*
X0007900Y0044719D02*
X0017837Y0044719D01*
X0017837Y0045318D02*
X0017267Y0045318D01*
X0017377Y0042924D02*
X0013423Y0042924D01*
X0014022Y0042325D02*
X0016778Y0042325D01*
X0016656Y0041727D02*
X0014144Y0041727D01*
X0014144Y0041128D02*
X0016656Y0041128D01*
X0016656Y0040529D02*
X0014144Y0040529D01*
X0014144Y0039931D02*
X0016656Y0039931D01*
X0016656Y0039332D02*
X0014144Y0039332D01*
X0014144Y0038734D02*
X0016656Y0038734D01*
X0016656Y0038135D02*
X0014144Y0038135D01*
X0014144Y0037537D02*
X0016656Y0037537D01*
X0016741Y0036938D02*
X0014059Y0036938D01*
X0013461Y0036340D02*
X0017339Y0036340D01*
X0022122Y0036340D02*
X0082619Y0036340D01*
X0082020Y0036938D02*
X0022721Y0036938D01*
X0022805Y0037537D02*
X0048304Y0037537D01*
X0047705Y0038135D02*
X0022805Y0038135D01*
X0022805Y0038734D02*
X0047439Y0038734D01*
X0047439Y0039332D02*
X0022805Y0039332D01*
X0022805Y0039931D02*
X0047439Y0039931D01*
X0047439Y0040529D02*
X0022805Y0040529D01*
X0022805Y0041128D02*
X0033100Y0041128D01*
X0032501Y0041727D02*
X0022805Y0041727D01*
X0025942Y0042325D02*
X0031903Y0042325D01*
X0031304Y0042924D02*
X0026541Y0042924D01*
X0017837Y0050704D02*
X0017400Y0050704D01*
X0017837Y0051303D02*
X0016163Y0051303D01*
X0014637Y0051303D02*
X0007900Y0051303D01*
X0007900Y0051901D02*
X0017837Y0051901D01*
X0017837Y0052500D02*
X0007900Y0052500D01*
X0007900Y0053098D02*
X0017906Y0053098D01*
X0018504Y0053697D02*
X0007900Y0053697D01*
X0007900Y0054295D02*
X0031268Y0054295D01*
X0031866Y0054894D02*
X0007900Y0054894D01*
X0007900Y0055492D02*
X0032465Y0055492D01*
X0031970Y0056091D02*
X0007900Y0056091D01*
X0007900Y0056689D02*
X0014575Y0056689D01*
X0013374Y0057288D02*
X0007900Y0057288D01*
X0007900Y0057886D02*
X0012775Y0057886D01*
X0012440Y0058485D02*
X0007900Y0058485D01*
X0007900Y0059083D02*
X0012192Y0059083D01*
X0012128Y0059682D02*
X0007900Y0059682D01*
X0007900Y0060280D02*
X0012128Y0060280D01*
X0012269Y0060879D02*
X0007900Y0060879D01*
X0007900Y0061477D02*
X0012517Y0061477D01*
X0012960Y0062076D02*
X0007900Y0062076D01*
X0007900Y0062674D02*
X0013576Y0062674D01*
X0013265Y0064885D02*
X0009661Y0064885D01*
X0008782Y0065763D01*
X0008782Y0070943D01*
X0009661Y0071822D01*
X0013265Y0071822D01*
X0014144Y0070943D01*
X0014144Y0065763D01*
X0013265Y0064885D01*
X0013449Y0065068D02*
X0017351Y0065068D01*
X0017837Y0064470D02*
X0007900Y0064470D01*
X0007900Y0065068D02*
X0009477Y0065068D01*
X0008878Y0065667D02*
X0007900Y0065667D01*
X0007900Y0066265D02*
X0008782Y0066265D01*
X0008782Y0066864D02*
X0007900Y0066864D01*
X0007900Y0067462D02*
X0008782Y0067462D01*
X0008782Y0068061D02*
X0007900Y0068061D01*
X0007900Y0068660D02*
X0008782Y0068660D01*
X0008782Y0069258D02*
X0007900Y0069258D01*
X0007900Y0069857D02*
X0008782Y0069857D01*
X0008782Y0070455D02*
X0007900Y0070455D01*
X0007900Y0071054D02*
X0008892Y0071054D01*
X0009491Y0071652D02*
X0007900Y0071652D01*
X0007900Y0072251D02*
X0050754Y0072251D01*
X0050156Y0072849D02*
X0007900Y0072849D01*
X0007900Y0073448D02*
X0049557Y0073448D01*
X0048959Y0074046D02*
X0007900Y0074046D01*
X0007900Y0074645D02*
X0048360Y0074645D01*
X0047762Y0075243D02*
X0007900Y0075243D01*
X0007900Y0075842D02*
X0047163Y0075842D01*
X0046564Y0076440D02*
X0007900Y0076440D01*
X0007900Y0077039D02*
X0045966Y0077039D01*
X0045367Y0077637D02*
X0007900Y0077637D01*
X0007900Y0078236D02*
X0044769Y0078236D01*
X0044170Y0078834D02*
X0007900Y0078834D01*
X0007900Y0079433D02*
X0009841Y0079433D01*
X0008731Y0080031D02*
X0007900Y0080031D01*
X0007900Y0080630D02*
X0008132Y0080630D01*
X0013759Y0079433D02*
X0020425Y0079433D01*
X0020676Y0079351D02*
X0021422Y0079233D01*
X0021500Y0079233D01*
X0021500Y0083733D01*
X0017000Y0083733D01*
X0017000Y0083655D01*
X0017118Y0082909D01*
X0017352Y0082191D01*
X0017695Y0081517D01*
X0018139Y0080906D01*
X0018673Y0080372D01*
X0019284Y0079928D01*
X0019957Y0079585D01*
X0020676Y0079351D01*
X0021500Y0079433D02*
X0022100Y0079433D01*
X0022100Y0080031D02*
X0021500Y0080031D01*
X0021500Y0080630D02*
X0022100Y0080630D01*
X0022100Y0081228D02*
X0021500Y0081228D01*
X0021500Y0081827D02*
X0022100Y0081827D01*
X0022100Y0082425D02*
X0021500Y0082425D01*
X0021500Y0083024D02*
X0022100Y0083024D01*
X0022100Y0083622D02*
X0021500Y0083622D01*
X0021500Y0084221D02*
X0016800Y0084221D01*
X0016800Y0084819D02*
X0017065Y0084819D01*
X0017203Y0085418D02*
X0016638Y0085418D01*
X0016390Y0086016D02*
X0017423Y0086016D01*
X0017743Y0086615D02*
X0016143Y0086615D01*
X0015691Y0087213D02*
X0018192Y0087213D01*
X0017005Y0083622D02*
X0016800Y0083622D01*
X0016794Y0083024D02*
X0017100Y0083024D01*
X0017275Y0082425D02*
X0016546Y0082425D01*
X0016298Y0081827D02*
X0017537Y0081827D01*
X0017905Y0081228D02*
X0016050Y0081228D01*
X0015468Y0080630D02*
X0018415Y0080630D01*
X0019142Y0080031D02*
X0014869Y0080031D01*
X0022100Y0084221D02*
X0026800Y0084221D01*
X0026800Y0084819D02*
X0026535Y0084819D01*
X0026397Y0085418D02*
X0026962Y0085418D01*
X0027210Y0086016D02*
X0026177Y0086016D01*
X0025857Y0086615D02*
X0027457Y0086615D01*
X0027909Y0087213D02*
X0025408Y0087213D01*
X0026595Y0083622D02*
X0026800Y0083622D01*
X0026806Y0083024D02*
X0026500Y0083024D01*
X0026325Y0082425D02*
X0027054Y0082425D01*
X0027302Y0081827D02*
X0026063Y0081827D01*
X0025695Y0081228D02*
X0027550Y0081228D01*
X0028132Y0080630D02*
X0025185Y0080630D01*
X0024458Y0080031D02*
X0028731Y0080031D01*
X0029841Y0079433D02*
X0023175Y0079433D01*
X0033759Y0079433D02*
X0039841Y0079433D01*
X0038731Y0080031D02*
X0034869Y0080031D01*
X0035468Y0080630D02*
X0038132Y0080630D01*
X0037550Y0081228D02*
X0036050Y0081228D01*
X0036298Y0081827D02*
X0037302Y0081827D01*
X0037054Y0082425D02*
X0036546Y0082425D01*
X0036794Y0083024D02*
X0036806Y0083024D01*
X0036800Y0083038D02*
X0036800Y0085028D01*
X0037561Y0086865D01*
X0038179Y0087483D01*
X0035421Y0087483D01*
X0036039Y0086865D01*
X0036800Y0085028D01*
X0036800Y0083038D01*
X0036800Y0083622D02*
X0036800Y0083622D01*
X0036800Y0084221D02*
X0036800Y0084221D01*
X0036800Y0084819D02*
X0036800Y0084819D01*
X0036638Y0085418D02*
X0036962Y0085418D01*
X0037210Y0086016D02*
X0036390Y0086016D01*
X0036143Y0086615D02*
X0037457Y0086615D01*
X0037909Y0087213D02*
X0035691Y0087213D01*
X0022096Y0071652D02*
X0079903Y0071652D01*
X0080501Y0071054D02*
X0054519Y0071054D01*
X0054102Y0071470D02*
X0052860Y0071470D01*
X0046413Y0065023D01*
X0046413Y0063781D01*
X0050076Y0060118D01*
X0051318Y0060118D01*
X0057765Y0066565D01*
X0057765Y0067807D01*
X0054102Y0071470D01*
X0055117Y0070455D02*
X0081100Y0070455D01*
X0081698Y0069857D02*
X0080069Y0069857D01*
X0080361Y0069565D02*
X0079482Y0070444D01*
X0070365Y0070444D01*
X0069487Y0069565D01*
X0069487Y0060448D01*
X0070365Y0059570D01*
X0079482Y0059570D01*
X0080361Y0060448D01*
X0080361Y0069565D01*
X0080361Y0069258D02*
X0082297Y0069258D01*
X0082525Y0068660D02*
X0080361Y0068660D01*
X0080361Y0068061D02*
X0082525Y0068061D01*
X0082525Y0067462D02*
X0080361Y0067462D01*
X0080361Y0066864D02*
X0082525Y0066864D01*
X0082847Y0066265D02*
X0080361Y0066265D01*
X0080361Y0065667D02*
X0083013Y0065667D01*
X0082425Y0065068D02*
X0080361Y0065068D01*
X0080361Y0064470D02*
X0082425Y0064470D01*
X0082425Y0063871D02*
X0080361Y0063871D01*
X0080361Y0063273D02*
X0082425Y0063273D01*
X0082425Y0062674D02*
X0080361Y0062674D01*
X0080361Y0062076D02*
X0082425Y0062076D01*
X0082425Y0061477D02*
X0080361Y0061477D01*
X0080361Y0060879D02*
X0082425Y0060879D01*
X0082832Y0060280D02*
X0080193Y0060280D01*
X0079594Y0059682D02*
X0082828Y0059682D01*
X0082425Y0059083D02*
X0041600Y0059083D01*
X0041600Y0058485D02*
X0082425Y0058485D01*
X0082425Y0057886D02*
X0041574Y0057886D01*
X0041326Y0057288D02*
X0082425Y0057288D01*
X0082425Y0056689D02*
X0041078Y0056689D01*
X0040830Y0056091D02*
X0082425Y0056091D01*
X0082425Y0055492D02*
X0081956Y0055492D01*
X0079991Y0052083D02*
X0081977Y0050097D01*
X0081977Y0047218D01*
X0082856Y0046339D01*
X0086264Y0046339D01*
X0086430Y0046505D01*
X0086596Y0046339D01*
X0090004Y0046339D01*
X0090170Y0046505D01*
X0090336Y0046339D01*
X0093744Y0046339D01*
X0094623Y0047218D01*
X0094623Y0050097D01*
X0095187Y0050661D01*
X0096300Y0051774D01*
X0096300Y0065470D01*
X0096162Y0065608D01*
X0100096Y0065608D01*
X0100900Y0066412D01*
X0101704Y0065608D01*
X0104288Y0065608D01*
X0112172Y0057724D01*
X0113285Y0056611D01*
X0120541Y0056611D01*
X0120541Y0055883D01*
X0107287Y0055883D01*
X0107287Y0057363D01*
X0106408Y0058242D01*
X0097292Y0058242D01*
X0096413Y0057363D01*
X0096413Y0050603D01*
X0096500Y0050516D01*
X0096000Y0050016D01*
X0096000Y0042308D01*
X0095704Y0042308D01*
X0095261Y0041865D01*
X0094623Y0041865D01*
X0094623Y0042948D01*
X0093744Y0043827D01*
X0090336Y0043827D01*
X0089988Y0043479D01*
X0089884Y0043539D01*
X0089554Y0043627D01*
X0088541Y0043627D01*
X0088541Y0040206D01*
X0088059Y0040206D01*
X0088059Y0043627D01*
X0087046Y0043627D01*
X0086716Y0043539D01*
X0086612Y0043479D01*
X0086264Y0043827D01*
X0083385Y0043827D01*
X0082352Y0044859D01*
X0080361Y0044859D01*
X0080361Y0047518D01*
X0079482Y0048396D01*
X0072174Y0048396D01*
X0069687Y0050883D01*
X0041241Y0050883D01*
X0040808Y0051929D01*
X0040654Y0052083D01*
X0079991Y0052083D01*
X0080173Y0051901D02*
X0040820Y0051901D01*
X0041068Y0051303D02*
X0080771Y0051303D01*
X0081370Y0050704D02*
X0069866Y0050704D01*
X0070464Y0050106D02*
X0081968Y0050106D01*
X0081977Y0049507D02*
X0071063Y0049507D01*
X0071661Y0048909D02*
X0081977Y0048909D01*
X0081977Y0048310D02*
X0079568Y0048310D01*
X0080167Y0047712D02*
X0081977Y0047712D01*
X0082082Y0047113D02*
X0080361Y0047113D01*
X0080361Y0046515D02*
X0082680Y0046515D01*
X0080361Y0045916D02*
X0096000Y0045916D01*
X0096000Y0045318D02*
X0080361Y0045318D01*
X0082493Y0044719D02*
X0096000Y0044719D01*
X0096000Y0044121D02*
X0083091Y0044121D01*
X0086569Y0043522D02*
X0086687Y0043522D01*
X0088059Y0043522D02*
X0088541Y0043522D01*
X0088541Y0042924D02*
X0088059Y0042924D01*
X0088059Y0042325D02*
X0088541Y0042325D01*
X0088541Y0041727D02*
X0088059Y0041727D01*
X0088059Y0041128D02*
X0088541Y0041128D01*
X0088541Y0040529D02*
X0088059Y0040529D01*
X0088059Y0039332D02*
X0088541Y0039332D01*
X0088541Y0038734D02*
X0088059Y0038734D01*
X0088059Y0038135D02*
X0088541Y0038135D01*
X0088541Y0037537D02*
X0088059Y0037537D01*
X0088059Y0036938D02*
X0088541Y0036938D01*
X0088541Y0036340D02*
X0088059Y0036340D01*
X0086908Y0036340D02*
X0086501Y0036340D01*
X0089692Y0036340D02*
X0090099Y0036340D01*
X0093981Y0036340D02*
X0095522Y0036340D01*
X0094924Y0036938D02*
X0094580Y0036938D01*
X0094623Y0037537D02*
X0094825Y0037537D01*
X0100278Y0036340D02*
X0130300Y0036340D01*
X0130300Y0036938D02*
X0106560Y0036938D01*
X0106515Y0036860D02*
X0106686Y0037156D01*
X0106775Y0037487D01*
X0106775Y0038933D01*
X0104200Y0038933D01*
X0104200Y0036358D01*
X0105646Y0036358D01*
X0105977Y0036447D01*
X0106273Y0036618D01*
X0106515Y0036860D01*
X0106775Y0037537D02*
X0130300Y0037537D01*
X0130300Y0038135D02*
X0106775Y0038135D01*
X0106775Y0038734D02*
X0130300Y0038734D01*
X0130300Y0039332D02*
X0104200Y0039332D01*
X0104200Y0039533D02*
X0106775Y0039533D01*
X0106775Y0040979D01*
X0106686Y0041310D01*
X0106515Y0041606D01*
X0106273Y0041848D01*
X0105977Y0042019D01*
X0105646Y0042108D01*
X0104200Y0042108D01*
X0104200Y0039533D01*
X0104200Y0038933D01*
X0103600Y0038933D01*
X0103600Y0036358D01*
X0102154Y0036358D01*
X0101823Y0036447D01*
X0101527Y0036618D01*
X0101285Y0036860D01*
X0101114Y0037156D01*
X0101025Y0037487D01*
X0101025Y0038933D01*
X0103600Y0038933D01*
X0103600Y0039533D01*
X0101025Y0039533D01*
X0101025Y0040979D01*
X0101114Y0041310D01*
X0101285Y0041606D01*
X0101527Y0041848D01*
X0101823Y0042019D01*
X0102154Y0042108D01*
X0103600Y0042108D01*
X0103600Y0039533D01*
X0104200Y0039533D01*
X0104200Y0039931D02*
X0103600Y0039931D01*
X0103600Y0040529D02*
X0104200Y0040529D01*
X0104200Y0041128D02*
X0103600Y0041128D01*
X0103600Y0041727D02*
X0104200Y0041727D01*
X0106395Y0041727D02*
X0130300Y0041727D01*
X0130300Y0042325D02*
X0099800Y0042325D01*
X0099800Y0042924D02*
X0130300Y0042924D01*
X0130300Y0043522D02*
X0099800Y0043522D01*
X0099800Y0044121D02*
X0130300Y0044121D01*
X0130300Y0044719D02*
X0099800Y0044719D01*
X0099800Y0045318D02*
X0130300Y0045318D01*
X0130300Y0045916D02*
X0128300Y0045916D01*
X0128659Y0046515D02*
X0130300Y0046515D01*
X0130300Y0047113D02*
X0128659Y0047113D01*
X0128659Y0047712D02*
X0130300Y0047712D01*
X0130300Y0048310D02*
X0128659Y0048310D01*
X0128659Y0048909D02*
X0130300Y0048909D01*
X0130300Y0049507D02*
X0128659Y0049507D01*
X0128659Y0050106D02*
X0130300Y0050106D01*
X0130300Y0050704D02*
X0128659Y0050704D01*
X0128659Y0051303D02*
X0130300Y0051303D01*
X0130300Y0051901D02*
X0128659Y0051901D01*
X0128659Y0052500D02*
X0130300Y0052500D01*
X0130300Y0053098D02*
X0128197Y0053098D01*
X0130300Y0053697D02*
X0123046Y0053697D01*
X0122447Y0054295D02*
X0130300Y0054295D01*
X0130300Y0054894D02*
X0128223Y0054894D01*
X0128659Y0055492D02*
X0130300Y0055492D01*
X0130300Y0056091D02*
X0128659Y0056091D01*
X0128659Y0056689D02*
X0130300Y0056689D01*
X0130300Y0057288D02*
X0128659Y0057288D01*
X0128659Y0057886D02*
X0130300Y0057886D01*
X0130300Y0058485D02*
X0128659Y0058485D01*
X0128659Y0059083D02*
X0130300Y0059083D01*
X0130300Y0059682D02*
X0128659Y0059682D01*
X0128659Y0060280D02*
X0130300Y0060280D01*
X0130300Y0060879D02*
X0128659Y0060879D01*
X0128659Y0061477D02*
X0130300Y0061477D01*
X0130300Y0062076D02*
X0128274Y0062076D01*
X0130300Y0062674D02*
X0112596Y0062674D01*
X0113194Y0062076D02*
X0120926Y0062076D01*
X0120541Y0061477D02*
X0113793Y0061477D01*
X0114391Y0060879D02*
X0120541Y0060879D01*
X0113207Y0056689D02*
X0107287Y0056689D01*
X0107287Y0056091D02*
X0120541Y0056091D01*
X0119382Y0051901D02*
X0107287Y0051901D01*
X0107287Y0051303D02*
X0119994Y0051303D01*
X0120541Y0050704D02*
X0107287Y0050704D01*
X0106790Y0050106D02*
X0120541Y0050106D01*
X0120541Y0049507D02*
X0100865Y0049507D01*
X0100267Y0048909D02*
X0120541Y0048909D01*
X0120541Y0048310D02*
X0099800Y0048310D01*
X0099800Y0047712D02*
X0120541Y0047712D01*
X0120541Y0047113D02*
X0099800Y0047113D01*
X0099800Y0046515D02*
X0120541Y0046515D01*
X0120900Y0045916D02*
X0099800Y0045916D01*
X0096000Y0046515D02*
X0093920Y0046515D01*
X0094518Y0047113D02*
X0096000Y0047113D01*
X0096000Y0047712D02*
X0094623Y0047712D01*
X0094623Y0048310D02*
X0096000Y0048310D01*
X0096000Y0048909D02*
X0094623Y0048909D01*
X0094623Y0049507D02*
X0096000Y0049507D01*
X0096090Y0050106D02*
X0094632Y0050106D01*
X0095230Y0050704D02*
X0096413Y0050704D01*
X0096413Y0051303D02*
X0095829Y0051303D01*
X0096300Y0051901D02*
X0096413Y0051901D01*
X0096413Y0052500D02*
X0096300Y0052500D01*
X0096300Y0053098D02*
X0096413Y0053098D01*
X0096413Y0053697D02*
X0096300Y0053697D01*
X0096300Y0054295D02*
X0096413Y0054295D01*
X0096413Y0054894D02*
X0096300Y0054894D01*
X0096300Y0055492D02*
X0096413Y0055492D01*
X0096413Y0056091D02*
X0096300Y0056091D01*
X0096300Y0056689D02*
X0096413Y0056689D01*
X0096413Y0057288D02*
X0096300Y0057288D01*
X0096300Y0057886D02*
X0096936Y0057886D01*
X0096300Y0058485D02*
X0111411Y0058485D01*
X0110813Y0059083D02*
X0096300Y0059083D01*
X0096300Y0059682D02*
X0110214Y0059682D01*
X0109616Y0060280D02*
X0096300Y0060280D01*
X0096300Y0060879D02*
X0109017Y0060879D01*
X0108419Y0061477D02*
X0096300Y0061477D01*
X0096300Y0062076D02*
X0107820Y0062076D01*
X0107222Y0062674D02*
X0096300Y0062674D01*
X0096300Y0063273D02*
X0106623Y0063273D01*
X0106025Y0063871D02*
X0096300Y0063871D01*
X0096300Y0064470D02*
X0105426Y0064470D01*
X0104828Y0065068D02*
X0096300Y0065068D01*
X0100155Y0065667D02*
X0101645Y0065667D01*
X0101047Y0066265D02*
X0100753Y0066265D01*
X0106975Y0068660D02*
X0130300Y0068660D01*
X0130300Y0069258D02*
X0106975Y0069258D01*
X0106975Y0069857D02*
X0130300Y0069857D01*
X0130300Y0070455D02*
X0106975Y0070455D01*
X0106800Y0071054D02*
X0130300Y0071054D01*
X0130300Y0071652D02*
X0106202Y0071652D01*
X0101598Y0071652D02*
X0100202Y0071652D01*
X0099800Y0072251D02*
X0130300Y0072251D01*
X0130300Y0072849D02*
X0099800Y0072849D01*
X0099800Y0073448D02*
X0130300Y0073448D01*
X0130300Y0074046D02*
X0099800Y0074046D01*
X0099800Y0074645D02*
X0130300Y0074645D01*
X0130300Y0075243D02*
X0099800Y0075243D01*
X0099800Y0075842D02*
X0130300Y0075842D01*
X0130300Y0076440D02*
X0099800Y0076440D01*
X0099800Y0077039D02*
X0130300Y0077039D01*
X0130300Y0077637D02*
X0099800Y0077637D01*
X0099800Y0078236D02*
X0130300Y0078236D01*
X0130300Y0078834D02*
X0099800Y0078834D01*
X0103759Y0079433D02*
X0130300Y0079433D01*
X0130300Y0080031D02*
X0104869Y0080031D01*
X0105468Y0080630D02*
X0130300Y0080630D01*
X0130300Y0081228D02*
X0106050Y0081228D01*
X0106298Y0081827D02*
X0130300Y0081827D01*
X0130300Y0082425D02*
X0106546Y0082425D01*
X0106794Y0083024D02*
X0130300Y0083024D01*
X0130300Y0083622D02*
X0106800Y0083622D01*
X0106800Y0084221D02*
X0130300Y0084221D01*
X0130300Y0084819D02*
X0106800Y0084819D01*
X0106638Y0085418D02*
X0130300Y0085418D01*
X0130300Y0086016D02*
X0106390Y0086016D01*
X0106143Y0086615D02*
X0130300Y0086615D01*
X0130300Y0087213D02*
X0105691Y0087213D01*
X0101000Y0071054D02*
X0100800Y0071054D01*
X0107209Y0068061D02*
X0130300Y0068061D01*
X0130300Y0067462D02*
X0107808Y0067462D01*
X0108406Y0066864D02*
X0130300Y0066864D01*
X0130300Y0066265D02*
X0109005Y0066265D01*
X0109603Y0065667D02*
X0130300Y0065667D01*
X0130300Y0065068D02*
X0110202Y0065068D01*
X0110800Y0064470D02*
X0130300Y0064470D01*
X0130300Y0063871D02*
X0111399Y0063871D01*
X0111997Y0063273D02*
X0130300Y0063273D01*
X0112608Y0057288D02*
X0107287Y0057288D01*
X0106764Y0057886D02*
X0112010Y0057886D01*
X0092500Y0059958D02*
X0091800Y0059958D01*
X0091800Y0057383D01*
X0091200Y0057383D01*
X0091200Y0056783D01*
X0091800Y0056783D01*
X0091800Y0054208D01*
X0092500Y0054208D01*
X0092500Y0054063D01*
X0090336Y0054063D01*
X0090313Y0054040D01*
X0090145Y0054208D01*
X0091200Y0054208D01*
X0091200Y0056783D01*
X0088625Y0056783D01*
X0088625Y0055728D01*
X0088575Y0055778D01*
X0088575Y0059279D01*
X0087871Y0059983D01*
X0088575Y0060687D01*
X0088575Y0065079D01*
X0087871Y0065783D01*
X0088600Y0066512D01*
X0089404Y0065708D01*
X0089569Y0065708D01*
X0089423Y0065669D01*
X0089127Y0065498D01*
X0088885Y0065256D01*
X0088714Y0064960D01*
X0088625Y0064629D01*
X0088625Y0063183D01*
X0091200Y0063183D01*
X0091200Y0062583D01*
X0091800Y0062583D01*
X0091800Y0060008D01*
X0092500Y0060008D01*
X0092500Y0059958D01*
X0091800Y0059682D02*
X0091200Y0059682D01*
X0091200Y0059958D02*
X0089754Y0059958D01*
X0089423Y0059869D01*
X0089127Y0059698D01*
X0088885Y0059456D01*
X0088714Y0059160D01*
X0088625Y0058829D01*
X0088625Y0057383D01*
X0091200Y0057383D01*
X0091200Y0059958D01*
X0091200Y0060008D02*
X0091200Y0062583D01*
X0088625Y0062583D01*
X0088625Y0061137D01*
X0088714Y0060806D01*
X0088885Y0060510D01*
X0089127Y0060268D01*
X0089423Y0060097D01*
X0089754Y0060008D01*
X0091200Y0060008D01*
X0091200Y0060280D02*
X0091800Y0060280D01*
X0091800Y0060879D02*
X0091200Y0060879D01*
X0091200Y0061477D02*
X0091800Y0061477D01*
X0091800Y0062076D02*
X0091200Y0062076D01*
X0091200Y0062674D02*
X0088575Y0062674D01*
X0088575Y0062076D02*
X0088625Y0062076D01*
X0088625Y0061477D02*
X0088575Y0061477D01*
X0088575Y0060879D02*
X0088694Y0060879D01*
X0089115Y0060280D02*
X0088168Y0060280D01*
X0088172Y0059682D02*
X0089111Y0059682D01*
X0088693Y0059083D02*
X0088575Y0059083D01*
X0088575Y0058485D02*
X0088625Y0058485D01*
X0088625Y0057886D02*
X0088575Y0057886D01*
X0088575Y0057288D02*
X0091200Y0057288D01*
X0091200Y0057886D02*
X0091800Y0057886D01*
X0091800Y0058485D02*
X0091200Y0058485D01*
X0091200Y0059083D02*
X0091800Y0059083D01*
X0091800Y0056689D02*
X0091200Y0056689D01*
X0091200Y0056091D02*
X0091800Y0056091D01*
X0091800Y0055492D02*
X0091200Y0055492D01*
X0091200Y0054894D02*
X0091800Y0054894D01*
X0091800Y0054295D02*
X0091200Y0054295D01*
X0088625Y0056091D02*
X0088575Y0056091D01*
X0088575Y0056689D02*
X0088625Y0056689D01*
X0088575Y0063273D02*
X0088625Y0063273D01*
X0088625Y0063871D02*
X0088575Y0063871D01*
X0088575Y0064470D02*
X0088625Y0064470D01*
X0088575Y0065068D02*
X0088777Y0065068D01*
X0089419Y0065667D02*
X0087987Y0065667D01*
X0088353Y0066265D02*
X0088847Y0066265D01*
X0069487Y0066265D02*
X0057466Y0066265D01*
X0057765Y0066864D02*
X0069487Y0066864D01*
X0069487Y0067462D02*
X0057765Y0067462D01*
X0057511Y0068061D02*
X0069487Y0068061D01*
X0069487Y0068660D02*
X0056913Y0068660D01*
X0056314Y0069258D02*
X0069487Y0069258D01*
X0069778Y0069857D02*
X0055716Y0069857D01*
X0052443Y0071054D02*
X0022695Y0071054D01*
X0022805Y0070455D02*
X0051845Y0070455D01*
X0051246Y0069857D02*
X0022805Y0069857D01*
X0022805Y0069258D02*
X0050648Y0069258D01*
X0050049Y0068660D02*
X0022805Y0068660D01*
X0022805Y0068061D02*
X0049451Y0068061D01*
X0048852Y0067462D02*
X0022805Y0067462D01*
X0022805Y0066864D02*
X0048254Y0066864D01*
X0047655Y0066265D02*
X0022805Y0066265D01*
X0025916Y0065667D02*
X0047057Y0065667D01*
X0046458Y0065068D02*
X0026515Y0065068D01*
X0033600Y0064470D02*
X0046413Y0064470D01*
X0046413Y0063871D02*
X0038187Y0063871D01*
X0039464Y0063273D02*
X0046921Y0063273D01*
X0047520Y0062674D02*
X0040063Y0062674D01*
X0040661Y0062076D02*
X0048118Y0062076D01*
X0048717Y0061477D02*
X0040995Y0061477D01*
X0041243Y0060879D02*
X0049315Y0060879D01*
X0049914Y0060280D02*
X0041491Y0060280D01*
X0041600Y0059682D02*
X0070253Y0059682D01*
X0069655Y0060280D02*
X0051480Y0060280D01*
X0052079Y0060879D02*
X0069487Y0060879D01*
X0069487Y0061477D02*
X0052677Y0061477D01*
X0053276Y0062076D02*
X0069487Y0062076D01*
X0069487Y0062674D02*
X0053874Y0062674D01*
X0054473Y0063273D02*
X0069487Y0063273D01*
X0069487Y0063871D02*
X0055072Y0063871D01*
X0055670Y0064470D02*
X0069487Y0064470D01*
X0069487Y0065068D02*
X0056269Y0065068D01*
X0056867Y0065667D02*
X0069487Y0065667D01*
X0068681Y0046515D02*
X0058313Y0046515D01*
X0058313Y0045916D02*
X0069280Y0045916D01*
X0069487Y0045318D02*
X0058313Y0045318D01*
X0058313Y0044719D02*
X0069487Y0044719D01*
X0069487Y0044121D02*
X0058313Y0044121D01*
X0058313Y0043522D02*
X0069487Y0043522D01*
X0069487Y0042924D02*
X0058313Y0042924D01*
X0058313Y0042325D02*
X0069487Y0042325D01*
X0069487Y0041727D02*
X0058313Y0041727D01*
X0058313Y0041128D02*
X0069487Y0041128D01*
X0069487Y0040529D02*
X0058313Y0040529D01*
X0058313Y0039931D02*
X0069487Y0039931D01*
X0069487Y0039332D02*
X0058313Y0039332D01*
X0058313Y0038734D02*
X0069487Y0038734D01*
X0069752Y0038135D02*
X0058048Y0038135D01*
X0057449Y0037537D02*
X0070351Y0037537D01*
X0079496Y0037537D02*
X0081977Y0037537D01*
X0081977Y0038135D02*
X0080095Y0038135D01*
X0080361Y0038734D02*
X0081977Y0038734D01*
X0081977Y0039332D02*
X0080361Y0039332D01*
X0080361Y0039931D02*
X0081907Y0039931D01*
X0081308Y0040529D02*
X0080361Y0040529D01*
X0089913Y0043522D02*
X0090031Y0043522D01*
X0094049Y0043522D02*
X0096000Y0043522D01*
X0096000Y0042924D02*
X0094623Y0042924D01*
X0094623Y0042325D02*
X0096000Y0042325D01*
X0100677Y0041727D02*
X0101405Y0041727D01*
X0101065Y0041128D02*
X0100975Y0041128D01*
X0100975Y0040529D02*
X0101025Y0040529D01*
X0101025Y0039931D02*
X0100975Y0039931D01*
X0100975Y0039332D02*
X0103600Y0039332D01*
X0103600Y0038734D02*
X0104200Y0038734D01*
X0104200Y0038135D02*
X0103600Y0038135D01*
X0103600Y0037537D02*
X0104200Y0037537D01*
X0104200Y0036938D02*
X0103600Y0036938D01*
X0101240Y0036938D02*
X0100876Y0036938D01*
X0100975Y0037537D02*
X0101025Y0037537D01*
X0101025Y0038135D02*
X0100975Y0038135D01*
X0100975Y0038734D02*
X0101025Y0038734D01*
X0106775Y0039931D02*
X0130300Y0039931D01*
X0130300Y0040529D02*
X0106775Y0040529D01*
X0106735Y0041128D02*
X0130300Y0041128D01*
X0130300Y0028559D02*
X0103095Y0028559D01*
X0102100Y0028559D02*
X0101500Y0028559D01*
X0101500Y0028733D02*
X0101422Y0028733D01*
X0100676Y0028615D01*
X0099957Y0028381D01*
X0099284Y0028038D01*
X0098673Y0027594D01*
X0098139Y0027060D01*
X0097695Y0026449D01*
X0097352Y0025776D01*
X0097118Y0025057D01*
X0097000Y0024311D01*
X0097000Y0024233D01*
X0101500Y0024233D01*
X0101500Y0028733D01*
X0101500Y0027961D02*
X0102100Y0027961D01*
X0102100Y0027362D02*
X0101500Y0027362D01*
X0101500Y0026764D02*
X0102100Y0026764D01*
X0102100Y0026165D02*
X0101500Y0026165D01*
X0101500Y0025567D02*
X0102100Y0025567D01*
X0102100Y0024968D02*
X0101500Y0024968D01*
X0101500Y0024370D02*
X0102100Y0024370D01*
X0102100Y0023771D02*
X0130300Y0023771D01*
X0130300Y0023173D02*
X0106539Y0023173D01*
X0106405Y0022574D02*
X0130300Y0022574D01*
X0130300Y0021976D02*
X0106190Y0021976D01*
X0105876Y0021377D02*
X0130300Y0021377D01*
X0130300Y0020779D02*
X0105434Y0020779D01*
X0101500Y0023771D02*
X0096800Y0023771D01*
X0096800Y0023173D02*
X0097061Y0023173D01*
X0097195Y0022574D02*
X0096649Y0022574D01*
X0096401Y0021976D02*
X0097410Y0021976D01*
X0097724Y0021377D02*
X0096153Y0021377D01*
X0095717Y0020779D02*
X0098166Y0020779D01*
X0097009Y0024370D02*
X0096800Y0024370D01*
X0096783Y0024968D02*
X0097104Y0024968D01*
X0097284Y0025567D02*
X0096535Y0025567D01*
X0096287Y0026165D02*
X0097550Y0026165D01*
X0097923Y0026764D02*
X0096039Y0026764D01*
X0095442Y0027362D02*
X0098441Y0027362D01*
X0099177Y0027961D02*
X0094843Y0027961D01*
X0093697Y0028559D02*
X0100505Y0028559D01*
X0104423Y0027961D02*
X0130300Y0027961D01*
X0130300Y0027362D02*
X0105159Y0027362D01*
X0105677Y0026764D02*
X0130300Y0026764D01*
X0130300Y0026165D02*
X0106050Y0026165D01*
X0106316Y0025567D02*
X0130300Y0025567D01*
X0130300Y0024968D02*
X0106496Y0024968D01*
X0106591Y0024370D02*
X0130300Y0024370D01*
X0089903Y0028559D02*
X0083697Y0028559D01*
X0084843Y0027961D02*
X0088757Y0027961D01*
X0088158Y0027362D02*
X0085442Y0027362D01*
X0086039Y0026764D02*
X0087561Y0026764D01*
X0087313Y0026165D02*
X0086287Y0026165D01*
X0086535Y0025567D02*
X0087065Y0025567D01*
X0086817Y0024968D02*
X0086783Y0024968D01*
X0086800Y0024928D02*
X0086800Y0022938D01*
X0086039Y0021101D01*
X0085421Y0020483D01*
X0088179Y0020483D01*
X0087561Y0021101D01*
X0086800Y0022938D01*
X0086800Y0024928D01*
X0086800Y0024370D02*
X0086800Y0024370D01*
X0086800Y0023771D02*
X0086800Y0023771D01*
X0086800Y0023173D02*
X0086800Y0023173D01*
X0086649Y0022574D02*
X0086951Y0022574D01*
X0087199Y0021976D02*
X0086401Y0021976D01*
X0086153Y0021377D02*
X0087447Y0021377D01*
X0087883Y0020779D02*
X0085717Y0020779D01*
X0078179Y0020483D02*
X0075421Y0020483D01*
X0076039Y0021101D01*
X0076800Y0022938D01*
X0076800Y0024928D01*
X0076800Y0022938D01*
X0077561Y0021101D01*
X0078179Y0020483D01*
X0077883Y0020779D02*
X0075717Y0020779D01*
X0076153Y0021377D02*
X0077447Y0021377D01*
X0077199Y0021976D02*
X0076401Y0021976D01*
X0076649Y0022574D02*
X0076951Y0022574D01*
X0076800Y0023173D02*
X0076800Y0023173D01*
X0076800Y0023771D02*
X0076800Y0023771D01*
X0076800Y0024370D02*
X0076800Y0024370D01*
X0076783Y0024968D02*
X0076817Y0024968D01*
X0077065Y0025567D02*
X0076535Y0025567D01*
X0076287Y0026165D02*
X0077313Y0026165D01*
X0077561Y0026764D02*
X0076039Y0026764D01*
X0075442Y0027362D02*
X0078158Y0027362D01*
X0078757Y0027961D02*
X0074843Y0027961D01*
X0073697Y0028559D02*
X0079903Y0028559D01*
X0069903Y0028559D02*
X0063697Y0028559D01*
X0064843Y0027961D02*
X0068757Y0027961D01*
X0068158Y0027362D02*
X0065442Y0027362D01*
X0066039Y0026764D02*
X0067561Y0026764D01*
X0067313Y0026165D02*
X0066287Y0026165D01*
X0066535Y0025567D02*
X0067065Y0025567D01*
X0066817Y0024968D02*
X0066783Y0024968D01*
X0066800Y0024928D02*
X0066800Y0022938D01*
X0066039Y0021101D01*
X0065421Y0020483D01*
X0068179Y0020483D01*
X0067561Y0021101D01*
X0066800Y0022938D01*
X0066800Y0024928D01*
X0066800Y0024370D02*
X0066800Y0024370D01*
X0066800Y0023771D02*
X0066800Y0023771D01*
X0066800Y0023173D02*
X0066800Y0023173D01*
X0066649Y0022574D02*
X0066951Y0022574D01*
X0067199Y0021976D02*
X0066401Y0021976D01*
X0066153Y0021377D02*
X0067447Y0021377D01*
X0067883Y0020779D02*
X0065717Y0020779D01*
X0058179Y0020483D02*
X0055421Y0020483D01*
X0056039Y0021101D01*
X0056800Y0022938D01*
X0056800Y0024928D01*
X0056800Y0022938D01*
X0057561Y0021101D01*
X0058179Y0020483D01*
X0057883Y0020779D02*
X0055717Y0020779D01*
X0056153Y0021377D02*
X0057447Y0021377D01*
X0057199Y0021976D02*
X0056401Y0021976D01*
X0056649Y0022574D02*
X0056951Y0022574D01*
X0056800Y0023173D02*
X0056800Y0023173D01*
X0056800Y0023771D02*
X0056800Y0023771D01*
X0056800Y0024370D02*
X0056800Y0024370D01*
X0056783Y0024968D02*
X0056817Y0024968D01*
X0057065Y0025567D02*
X0056535Y0025567D01*
X0056287Y0026165D02*
X0057313Y0026165D01*
X0057561Y0026764D02*
X0056039Y0026764D01*
X0055442Y0027362D02*
X0058158Y0027362D01*
X0058757Y0027961D02*
X0054843Y0027961D01*
X0053697Y0028559D02*
X0059903Y0028559D01*
X0049903Y0028559D02*
X0043697Y0028559D01*
X0044843Y0027961D02*
X0048757Y0027961D01*
X0048158Y0027362D02*
X0045442Y0027362D01*
X0046039Y0026764D02*
X0047561Y0026764D01*
X0047313Y0026165D02*
X0046287Y0026165D01*
X0046535Y0025567D02*
X0047065Y0025567D01*
X0046817Y0024968D02*
X0046783Y0024968D01*
X0046800Y0024928D02*
X0046800Y0022938D01*
X0046039Y0021101D01*
X0045421Y0020483D01*
X0048179Y0020483D01*
X0047561Y0021101D01*
X0046800Y0022938D01*
X0046800Y0024928D01*
X0046800Y0024370D02*
X0046800Y0024370D01*
X0046800Y0023771D02*
X0046800Y0023771D01*
X0046800Y0023173D02*
X0046800Y0023173D01*
X0046649Y0022574D02*
X0046951Y0022574D01*
X0047199Y0021976D02*
X0046401Y0021976D01*
X0046153Y0021377D02*
X0047447Y0021377D01*
X0047883Y0020779D02*
X0045717Y0020779D01*
X0038179Y0020483D02*
X0035421Y0020483D01*
X0036039Y0021101D01*
X0036800Y0022938D01*
X0036800Y0024928D01*
X0036800Y0022938D01*
X0037561Y0021101D01*
X0038179Y0020483D01*
X0037883Y0020779D02*
X0035717Y0020779D01*
X0036153Y0021377D02*
X0037447Y0021377D01*
X0037199Y0021976D02*
X0036401Y0021976D01*
X0036649Y0022574D02*
X0036951Y0022574D01*
X0036800Y0023173D02*
X0036800Y0023173D01*
X0036800Y0023771D02*
X0036800Y0023771D01*
X0036800Y0024370D02*
X0036800Y0024370D01*
X0036783Y0024968D02*
X0036817Y0024968D01*
X0037065Y0025567D02*
X0036535Y0025567D01*
X0036287Y0026165D02*
X0037313Y0026165D01*
X0037561Y0026764D02*
X0036039Y0026764D01*
X0035442Y0027362D02*
X0038158Y0027362D01*
X0038757Y0027961D02*
X0034843Y0027961D01*
X0033697Y0028559D02*
X0039903Y0028559D01*
X0013533Y0045318D02*
X0007900Y0045318D01*
X0007900Y0045916D02*
X0012935Y0045916D01*
X0012506Y0046515D02*
X0007900Y0046515D01*
X0007900Y0047113D02*
X0012258Y0047113D01*
X0012128Y0047712D02*
X0007900Y0047712D01*
X0007900Y0048310D02*
X0012128Y0048310D01*
X0012203Y0048909D02*
X0007900Y0048909D01*
X0007900Y0049507D02*
X0012451Y0049507D01*
X0012801Y0050106D02*
X0007900Y0050106D01*
X0007900Y0050704D02*
X0013400Y0050704D01*
X0016225Y0056689D02*
X0031722Y0056689D01*
X0031474Y0057288D02*
X0017426Y0057288D01*
X0018025Y0057886D02*
X0031226Y0057886D01*
X0031200Y0058485D02*
X0018360Y0058485D01*
X0018608Y0059083D02*
X0031200Y0059083D01*
X0031200Y0059682D02*
X0018672Y0059682D01*
X0017837Y0062674D02*
X0017224Y0062674D01*
X0017837Y0063273D02*
X0007900Y0063273D01*
X0007900Y0063871D02*
X0017837Y0063871D01*
X0016752Y0065667D02*
X0014048Y0065667D01*
X0014144Y0066265D02*
X0016656Y0066265D01*
X0016656Y0066864D02*
X0014144Y0066864D01*
X0014144Y0067462D02*
X0016656Y0067462D01*
X0016656Y0068061D02*
X0014144Y0068061D01*
X0014144Y0068660D02*
X0016656Y0068660D01*
X0016656Y0069258D02*
X0014144Y0069258D01*
X0014144Y0069857D02*
X0016656Y0069857D01*
X0016656Y0070455D02*
X0014144Y0070455D01*
X0014034Y0071054D02*
X0016766Y0071054D01*
X0017365Y0071652D02*
X0013435Y0071652D01*
X0026743Y0060879D02*
X0031557Y0060879D01*
X0031309Y0060280D02*
X0026181Y0060280D01*
X0034199Y0063871D02*
X0034613Y0063871D01*
X0030669Y0053697D02*
X0026075Y0053697D01*
X0026674Y0053098D02*
X0030071Y0053098D01*
D22*
X0088500Y0059983D03*
D23*
X0085500Y0057083D02*
X0085400Y0055983D01*
X0088300Y0053083D01*
X0088300Y0050201D01*
D24*
X0085400Y0055983D02*
X0085500Y0056083D01*
X0085500Y0062883D01*
X0085600Y0062983D01*
X0085600Y0068783D01*
X0080400Y0073983D01*
X0051850Y0073983D01*
X0041800Y0084033D01*
D25*
X0051800Y0084033D02*
X0059350Y0076483D01*
X0083900Y0076483D01*
X0091600Y0068783D01*
X0091456Y0067628D01*
X0094400Y0064683D01*
X0094400Y0052561D01*
X0092040Y0050201D01*
X0097900Y0049229D02*
X0102650Y0053979D01*
X0120072Y0053883D01*
X0124600Y0049456D01*
X0120072Y0053983D01*
X0101850Y0053983D01*
X0102650Y0053979D01*
X0097900Y0049229D02*
X0097900Y0039233D01*
X0097168Y0039965D01*
X0092040Y0039965D01*
X0084560Y0039965D02*
X0081565Y0042959D01*
X0074924Y0042959D01*
X0068900Y0048983D01*
X0036400Y0048983D01*
X0033643Y0053983D02*
X0030690Y0051030D01*
X0022290Y0051030D01*
X0022290Y0045125D02*
X0031790Y0045125D01*
X0033955Y0042959D01*
X0052876Y0042959D01*
X0033643Y0053983D02*
X0080778Y0053983D01*
X0084560Y0050201D01*
X0103900Y0068683D02*
X0114072Y0058511D01*
X0124600Y0058511D01*
X0097900Y0068683D02*
X0097900Y0080133D01*
X0101800Y0084033D01*
X0036400Y0058983D02*
X0032542Y0062841D01*
X0022290Y0062841D01*
M02*
