G75*
%MOIN*%
%OFA0B0*%
%FSLAX25Y25*%
%IPPOS*%
%LPD*%
%AMOC8*
5,1,8,0,0,1.08239X$1,22.5*
%
%ADD10C,0.07000*%
%ADD11R,0.05000X0.05000*%
%ADD12C,0.05000*%
%ADD13C,0.07400*%
%ADD14R,0.03150X0.03150*%
%ADD15C,0.00800*%
%ADD16R,0.04000X0.02500*%
%ADD17C,0.00600*%
%ADD18C,0.01800*%
%ADD19C,0.01600*%
D10*
X0011800Y0023933D03*
X0021800Y0023933D03*
X0031800Y0023933D03*
X0041800Y0023933D03*
X0051800Y0023933D03*
X0061800Y0023933D03*
X0071800Y0023933D03*
X0081800Y0023933D03*
X0091800Y0023933D03*
X0101800Y0023933D03*
X0101800Y0084033D03*
X0091800Y0084033D03*
X0081800Y0084033D03*
X0071800Y0084033D03*
X0061800Y0084033D03*
X0051800Y0084033D03*
X0041800Y0084033D03*
X0031800Y0084033D03*
X0021800Y0084033D03*
X0011800Y0084033D03*
D11*
X0021400Y0042172D03*
X0051400Y0042172D03*
X0081400Y0042172D03*
D12*
X0081400Y0050046D03*
X0081400Y0057920D03*
X0081400Y0065794D03*
X0051400Y0065794D03*
X0051400Y0057920D03*
X0051400Y0050046D03*
X0021400Y0050046D03*
X0021400Y0057920D03*
X0021400Y0065794D03*
D13*
X0104400Y0068983D03*
X0104400Y0058983D03*
X0104400Y0048983D03*
X0104400Y0038983D03*
D14*
X0113900Y0031983D03*
X0113900Y0025983D03*
X0113900Y0075983D03*
X0113900Y0081983D03*
D15*
X0120400Y0081983D01*
X0120500Y0081883D01*
X0121400Y0081883D01*
X0121400Y0080983D01*
X0121400Y0080483D02*
X0121400Y0077483D01*
X0121400Y0076983D02*
X0121400Y0070983D01*
X0109400Y0058983D01*
X0104400Y0058983D01*
X0109400Y0058983D02*
X0121400Y0046983D01*
X0121400Y0030983D01*
X0121400Y0030483D02*
X0121400Y0027483D01*
X0121400Y0026983D02*
X0121400Y0026083D01*
X0120500Y0026083D01*
X0120400Y0025983D01*
X0113900Y0025983D01*
X0113900Y0031983D02*
X0111400Y0031983D01*
X0104400Y0038983D01*
X0101211Y0042172D01*
X0081400Y0042172D01*
X0051400Y0042172D01*
X0021400Y0042172D01*
X0021400Y0050046D02*
X0051400Y0050046D01*
X0081400Y0050046D01*
X0103337Y0050046D01*
X0104400Y0048983D01*
X0113900Y0072883D02*
X0113900Y0075983D01*
D16*
X0121400Y0076983D03*
X0121400Y0080983D03*
X0121400Y0030983D03*
X0121400Y0026983D03*
D17*
X0016039Y0021101D02*
X0015421Y0020483D01*
X0018179Y0020483D01*
X0017561Y0021101D01*
X0016800Y0022938D01*
X0016800Y0024928D01*
X0016039Y0026765D01*
X0014632Y0028172D01*
X0012795Y0028933D01*
X0010805Y0028933D01*
X0008968Y0028172D01*
X0007900Y0027104D01*
X0007900Y0080862D01*
X0008968Y0079794D01*
X0010805Y0079033D01*
X0012795Y0079033D01*
X0014632Y0079794D01*
X0016039Y0081201D01*
X0016800Y0083038D01*
X0016800Y0085028D01*
X0016039Y0086865D01*
X0015421Y0087483D01*
X0018462Y0087483D01*
X0018139Y0087160D01*
X0017695Y0086549D01*
X0017352Y0085876D01*
X0017118Y0085157D01*
X0017000Y0084411D01*
X0017000Y0084333D01*
X0021500Y0084333D01*
X0021500Y0083733D01*
X0022100Y0083733D01*
X0022100Y0079233D01*
X0022178Y0079233D01*
X0022924Y0079351D01*
X0023643Y0079585D01*
X0024316Y0079928D01*
X0024927Y0080372D01*
X0025461Y0080906D01*
X0025905Y0081517D01*
X0026248Y0082191D01*
X0026482Y0082909D01*
X0026600Y0083655D01*
X0026600Y0083733D01*
X0022100Y0083733D01*
X0022100Y0084333D01*
X0026600Y0084333D01*
X0026600Y0084411D01*
X0026482Y0085157D01*
X0026248Y0085876D01*
X0025905Y0086549D01*
X0025461Y0087160D01*
X0025138Y0087483D01*
X0028179Y0087483D01*
X0027561Y0086865D01*
X0026800Y0085028D01*
X0026800Y0083038D01*
X0027561Y0081201D01*
X0028968Y0079794D01*
X0030805Y0079033D01*
X0032795Y0079033D01*
X0034632Y0079794D01*
X0036039Y0081201D01*
X0036800Y0083038D01*
X0037561Y0081201D01*
X0038968Y0079794D01*
X0039500Y0079574D01*
X0039500Y0079273D01*
X0025089Y0064862D01*
X0025200Y0065420D01*
X0025200Y0065494D01*
X0021700Y0065494D01*
X0021700Y0061994D01*
X0021774Y0061994D01*
X0022332Y0062105D01*
X0022147Y0061920D01*
X0020604Y0061920D01*
X0019134Y0061311D01*
X0018009Y0060186D01*
X0017400Y0058716D01*
X0017400Y0057124D01*
X0018009Y0055654D01*
X0019134Y0054529D01*
X0020452Y0053983D01*
X0019134Y0053437D01*
X0018009Y0052312D01*
X0017400Y0050842D01*
X0017400Y0049250D01*
X0018009Y0047780D01*
X0019134Y0046655D01*
X0020300Y0046172D01*
X0018279Y0046172D01*
X0017400Y0045293D01*
X0017400Y0039051D01*
X0018279Y0038172D01*
X0024521Y0038172D01*
X0025400Y0039051D01*
X0025400Y0040272D01*
X0047400Y0040272D01*
X0047400Y0039051D01*
X0048279Y0038172D01*
X0054521Y0038172D01*
X0055400Y0039051D01*
X0055400Y0040272D01*
X0077400Y0040272D01*
X0077400Y0039051D01*
X0078279Y0038172D01*
X0084521Y0038172D01*
X0085400Y0039051D01*
X0085400Y0040272D01*
X0099305Y0040272D01*
X0099200Y0040017D01*
X0099200Y0037949D01*
X0099992Y0036038D01*
X0101454Y0034575D01*
X0103366Y0033783D01*
X0105434Y0033783D01*
X0106480Y0034216D01*
X0109500Y0031196D01*
X0110613Y0030083D01*
X0110825Y0030083D01*
X0110825Y0029787D01*
X0111629Y0028983D01*
X0110825Y0028179D01*
X0110825Y0023787D01*
X0111704Y0022908D01*
X0116096Y0022908D01*
X0116975Y0023787D01*
X0116975Y0024083D01*
X0121187Y0024083D01*
X0121287Y0024183D01*
X0122187Y0024183D01*
X0122237Y0024233D01*
X0124021Y0024233D01*
X0124900Y0025112D01*
X0124900Y0028854D01*
X0124771Y0028983D01*
X0124900Y0029112D01*
X0124900Y0032854D01*
X0124021Y0033733D01*
X0123300Y0033733D01*
X0123300Y0047770D01*
X0122187Y0048883D01*
X0112087Y0058983D01*
X0123300Y0070196D01*
X0123300Y0074233D01*
X0124021Y0074233D01*
X0124900Y0075112D01*
X0124900Y0078854D01*
X0124771Y0078983D01*
X0124900Y0079112D01*
X0124900Y0082854D01*
X0124021Y0083733D01*
X0122237Y0083733D01*
X0122187Y0083783D01*
X0121287Y0083783D01*
X0121187Y0083883D01*
X0116975Y0083883D01*
X0116975Y0084179D01*
X0116096Y0085058D01*
X0111704Y0085058D01*
X0110825Y0084179D01*
X0110825Y0079787D01*
X0111629Y0078983D01*
X0110825Y0078179D01*
X0110825Y0073787D01*
X0111500Y0073112D01*
X0111500Y0072406D01*
X0111865Y0071524D01*
X0112541Y0070848D01*
X0113423Y0070483D01*
X0114377Y0070483D01*
X0115259Y0070848D01*
X0115935Y0071524D01*
X0116300Y0072406D01*
X0116300Y0073112D01*
X0116975Y0073787D01*
X0116975Y0078179D01*
X0116171Y0078983D01*
X0116975Y0079787D01*
X0116975Y0080083D01*
X0117900Y0080083D01*
X0117900Y0079112D01*
X0118029Y0078983D01*
X0117900Y0078854D01*
X0117900Y0075112D01*
X0118779Y0074233D01*
X0119500Y0074233D01*
X0119500Y0071770D01*
X0109057Y0061327D01*
X0108808Y0061929D01*
X0107346Y0063391D01*
X0105598Y0064115D01*
X0106319Y0064349D01*
X0107021Y0064707D01*
X0107657Y0065169D01*
X0108214Y0065726D01*
X0108676Y0066362D01*
X0109034Y0067064D01*
X0109277Y0067812D01*
X0109400Y0068590D01*
X0109400Y0068683D01*
X0104700Y0068683D01*
X0104700Y0069283D01*
X0109400Y0069283D01*
X0109400Y0069377D01*
X0109277Y0070154D01*
X0109034Y0070902D01*
X0108676Y0071604D01*
X0108214Y0072240D01*
X0107657Y0072797D01*
X0107021Y0073259D01*
X0106319Y0073617D01*
X0105571Y0073860D01*
X0104794Y0073983D01*
X0104700Y0073983D01*
X0104700Y0069283D01*
X0104100Y0069283D01*
X0104100Y0068683D01*
X0099400Y0068683D01*
X0099400Y0068590D01*
X0099523Y0067812D01*
X0099766Y0067064D01*
X0100124Y0066362D01*
X0100586Y0065726D01*
X0101143Y0065169D01*
X0101779Y0064707D01*
X0102481Y0064349D01*
X0103202Y0064115D01*
X0101454Y0063391D01*
X0099992Y0061929D01*
X0099724Y0061283D01*
X0093247Y0061283D01*
X0092184Y0060220D01*
X0084757Y0060220D01*
X0083666Y0061311D01*
X0082196Y0061920D01*
X0080604Y0061920D01*
X0079134Y0061311D01*
X0078043Y0060220D01*
X0054757Y0060220D01*
X0053666Y0061311D01*
X0052196Y0061920D01*
X0050604Y0061920D01*
X0049134Y0061311D01*
X0048043Y0060220D01*
X0026953Y0060220D01*
X0044100Y0077367D01*
X0044100Y0079574D01*
X0044632Y0079794D01*
X0046039Y0081201D01*
X0046800Y0083038D01*
X0047561Y0081201D01*
X0048968Y0079794D01*
X0050805Y0079033D01*
X0052795Y0079033D01*
X0054632Y0079794D01*
X0056039Y0081201D01*
X0056800Y0083038D01*
X0057561Y0081201D01*
X0058968Y0079794D01*
X0060805Y0079033D01*
X0062795Y0079033D01*
X0064632Y0079794D01*
X0066039Y0081201D01*
X0066800Y0083038D01*
X0067561Y0081201D01*
X0068968Y0079794D01*
X0070805Y0079033D01*
X0072795Y0079033D01*
X0074632Y0079794D01*
X0076039Y0081201D01*
X0076800Y0083038D01*
X0077561Y0081201D01*
X0078968Y0079794D01*
X0080805Y0079033D01*
X0082795Y0079033D01*
X0084632Y0079794D01*
X0086039Y0081201D01*
X0086800Y0083038D01*
X0087561Y0081201D01*
X0088968Y0079794D01*
X0090805Y0079033D01*
X0092795Y0079033D01*
X0094632Y0079794D01*
X0096039Y0081201D01*
X0096800Y0083038D01*
X0097561Y0081201D01*
X0098968Y0079794D01*
X0100805Y0079033D01*
X0102795Y0079033D01*
X0104632Y0079794D01*
X0106039Y0081201D01*
X0106800Y0083038D01*
X0106800Y0085028D01*
X0106039Y0086865D01*
X0105421Y0087483D01*
X0130300Y0087483D01*
X0130300Y0020483D01*
X0105138Y0020483D01*
X0105461Y0020806D01*
X0105905Y0021417D01*
X0106248Y0022091D01*
X0106482Y0022809D01*
X0106600Y0023555D01*
X0106600Y0023633D01*
X0102100Y0023633D01*
X0102100Y0024233D01*
X0106600Y0024233D01*
X0106600Y0024311D01*
X0106482Y0025057D01*
X0106248Y0025776D01*
X0105905Y0026449D01*
X0105461Y0027060D01*
X0104927Y0027594D01*
X0104316Y0028038D01*
X0103643Y0028381D01*
X0102924Y0028615D01*
X0102178Y0028733D01*
X0102100Y0028733D01*
X0102100Y0024233D01*
X0101500Y0024233D01*
X0101500Y0023633D01*
X0097000Y0023633D01*
X0097000Y0023555D01*
X0097118Y0022809D01*
X0097352Y0022091D01*
X0097695Y0021417D01*
X0098139Y0020806D01*
X0098462Y0020483D01*
X0095421Y0020483D01*
X0096039Y0021101D01*
X0096800Y0022938D01*
X0096800Y0024928D01*
X0096039Y0026765D01*
X0094632Y0028172D01*
X0092795Y0028933D01*
X0090805Y0028933D01*
X0088968Y0028172D01*
X0087561Y0026765D01*
X0086800Y0024928D01*
X0086039Y0026765D01*
X0084632Y0028172D01*
X0082795Y0028933D01*
X0080805Y0028933D01*
X0078968Y0028172D01*
X0077561Y0026765D01*
X0076800Y0024928D01*
X0076039Y0026765D01*
X0074632Y0028172D01*
X0072795Y0028933D01*
X0070805Y0028933D01*
X0068968Y0028172D01*
X0067561Y0026765D01*
X0066800Y0024928D01*
X0066039Y0026765D01*
X0064632Y0028172D01*
X0062795Y0028933D01*
X0060805Y0028933D01*
X0058968Y0028172D01*
X0057561Y0026765D01*
X0056800Y0024928D01*
X0056039Y0026765D01*
X0054632Y0028172D01*
X0052795Y0028933D01*
X0050805Y0028933D01*
X0048968Y0028172D01*
X0047561Y0026765D01*
X0046800Y0024928D01*
X0046039Y0026765D01*
X0044632Y0028172D01*
X0042795Y0028933D01*
X0040805Y0028933D01*
X0038968Y0028172D01*
X0037561Y0026765D01*
X0036800Y0024928D01*
X0036039Y0026765D01*
X0034632Y0028172D01*
X0032795Y0028933D01*
X0030805Y0028933D01*
X0028968Y0028172D01*
X0027561Y0026765D01*
X0026800Y0024928D01*
X0026039Y0026765D01*
X0024632Y0028172D01*
X0022795Y0028933D01*
X0020805Y0028933D01*
X0018968Y0028172D01*
X0017561Y0026765D01*
X0016800Y0024928D01*
X0016800Y0022938D01*
X0016039Y0021101D01*
X0016153Y0021377D02*
X0017447Y0021377D01*
X0017199Y0021976D02*
X0016401Y0021976D01*
X0016649Y0022574D02*
X0016951Y0022574D01*
X0016800Y0023173D02*
X0016800Y0023173D01*
X0016800Y0023771D02*
X0016800Y0023771D01*
X0016800Y0024370D02*
X0016800Y0024370D01*
X0016783Y0024968D02*
X0016817Y0024968D01*
X0017065Y0025567D02*
X0016535Y0025567D01*
X0016287Y0026165D02*
X0017313Y0026165D01*
X0017561Y0026764D02*
X0016039Y0026764D01*
X0015442Y0027362D02*
X0018158Y0027362D01*
X0018757Y0027961D02*
X0014843Y0027961D01*
X0013697Y0028559D02*
X0019903Y0028559D01*
X0023697Y0028559D02*
X0029903Y0028559D01*
X0028757Y0027961D02*
X0024843Y0027961D01*
X0025442Y0027362D02*
X0028158Y0027362D01*
X0027561Y0026764D02*
X0026039Y0026764D01*
X0026287Y0026165D02*
X0027313Y0026165D01*
X0027065Y0025567D02*
X0026535Y0025567D01*
X0026783Y0024968D02*
X0026817Y0024968D01*
X0026800Y0024928D02*
X0026800Y0022938D01*
X0026039Y0021101D01*
X0025421Y0020483D01*
X0028179Y0020483D01*
X0027561Y0021101D01*
X0026800Y0022938D01*
X0026800Y0024928D01*
X0026800Y0024370D02*
X0026800Y0024370D01*
X0026800Y0023771D02*
X0026800Y0023771D01*
X0026800Y0023173D02*
X0026800Y0023173D01*
X0026649Y0022574D02*
X0026951Y0022574D01*
X0027199Y0021976D02*
X0026401Y0021976D01*
X0026153Y0021377D02*
X0027447Y0021377D01*
X0027883Y0020779D02*
X0025717Y0020779D01*
X0017883Y0020779D02*
X0015717Y0020779D01*
X0008158Y0027362D02*
X0007900Y0027362D01*
X0007900Y0027961D02*
X0008757Y0027961D01*
X0007900Y0028559D02*
X0009903Y0028559D01*
X0007900Y0029158D02*
X0111454Y0029158D01*
X0111205Y0028559D02*
X0103095Y0028559D01*
X0102100Y0028559D02*
X0101500Y0028559D01*
X0101500Y0028733D02*
X0101422Y0028733D01*
X0100676Y0028615D01*
X0099957Y0028381D01*
X0099284Y0028038D01*
X0098673Y0027594D01*
X0098139Y0027060D01*
X0097695Y0026449D01*
X0097352Y0025776D01*
X0097118Y0025057D01*
X0097000Y0024311D01*
X0097000Y0024233D01*
X0101500Y0024233D01*
X0101500Y0028733D01*
X0101500Y0027961D02*
X0102100Y0027961D01*
X0102100Y0027362D02*
X0101500Y0027362D01*
X0101500Y0026764D02*
X0102100Y0026764D01*
X0102100Y0026165D02*
X0101500Y0026165D01*
X0101500Y0025567D02*
X0102100Y0025567D01*
X0102100Y0024968D02*
X0101500Y0024968D01*
X0101500Y0024370D02*
X0102100Y0024370D01*
X0102100Y0023771D02*
X0110841Y0023771D01*
X0110825Y0024370D02*
X0106591Y0024370D01*
X0106496Y0024968D02*
X0110825Y0024968D01*
X0110825Y0025567D02*
X0106316Y0025567D01*
X0106050Y0026165D02*
X0110825Y0026165D01*
X0110825Y0026764D02*
X0105677Y0026764D01*
X0105159Y0027362D02*
X0110825Y0027362D01*
X0110825Y0027961D02*
X0104423Y0027961D01*
X0100505Y0028559D02*
X0093697Y0028559D01*
X0094843Y0027961D02*
X0099177Y0027961D01*
X0098441Y0027362D02*
X0095442Y0027362D01*
X0096039Y0026764D02*
X0097923Y0026764D01*
X0097550Y0026165D02*
X0096287Y0026165D01*
X0096535Y0025567D02*
X0097284Y0025567D01*
X0097104Y0024968D02*
X0096783Y0024968D01*
X0096800Y0024370D02*
X0097009Y0024370D01*
X0096800Y0023771D02*
X0101500Y0023771D01*
X0097410Y0021976D02*
X0096401Y0021976D01*
X0096649Y0022574D02*
X0097195Y0022574D01*
X0097061Y0023173D02*
X0096800Y0023173D01*
X0096153Y0021377D02*
X0097724Y0021377D01*
X0098166Y0020779D02*
X0095717Y0020779D01*
X0088179Y0020483D02*
X0085421Y0020483D01*
X0086039Y0021101D01*
X0086800Y0022938D01*
X0086800Y0024928D01*
X0086800Y0022938D01*
X0087561Y0021101D01*
X0088179Y0020483D01*
X0087883Y0020779D02*
X0085717Y0020779D01*
X0086153Y0021377D02*
X0087447Y0021377D01*
X0087199Y0021976D02*
X0086401Y0021976D01*
X0086649Y0022574D02*
X0086951Y0022574D01*
X0086800Y0023173D02*
X0086800Y0023173D01*
X0086800Y0023771D02*
X0086800Y0023771D01*
X0086800Y0024370D02*
X0086800Y0024370D01*
X0086783Y0024968D02*
X0086817Y0024968D01*
X0087065Y0025567D02*
X0086535Y0025567D01*
X0086287Y0026165D02*
X0087313Y0026165D01*
X0087561Y0026764D02*
X0086039Y0026764D01*
X0085442Y0027362D02*
X0088158Y0027362D01*
X0088757Y0027961D02*
X0084843Y0027961D01*
X0083697Y0028559D02*
X0089903Y0028559D01*
X0079903Y0028559D02*
X0073697Y0028559D01*
X0074843Y0027961D02*
X0078757Y0027961D01*
X0078158Y0027362D02*
X0075442Y0027362D01*
X0076039Y0026764D02*
X0077561Y0026764D01*
X0077313Y0026165D02*
X0076287Y0026165D01*
X0076535Y0025567D02*
X0077065Y0025567D01*
X0076817Y0024968D02*
X0076783Y0024968D01*
X0076800Y0024928D02*
X0076800Y0022938D01*
X0076039Y0021101D01*
X0075421Y0020483D01*
X0078179Y0020483D01*
X0077561Y0021101D01*
X0076800Y0022938D01*
X0076800Y0024928D01*
X0076800Y0024370D02*
X0076800Y0024370D01*
X0076800Y0023771D02*
X0076800Y0023771D01*
X0076800Y0023173D02*
X0076800Y0023173D01*
X0076649Y0022574D02*
X0076951Y0022574D01*
X0077199Y0021976D02*
X0076401Y0021976D01*
X0076153Y0021377D02*
X0077447Y0021377D01*
X0077883Y0020779D02*
X0075717Y0020779D01*
X0068179Y0020483D02*
X0065421Y0020483D01*
X0066039Y0021101D01*
X0066800Y0022938D01*
X0066800Y0024928D01*
X0066800Y0022938D01*
X0067561Y0021101D01*
X0068179Y0020483D01*
X0067883Y0020779D02*
X0065717Y0020779D01*
X0066153Y0021377D02*
X0067447Y0021377D01*
X0067199Y0021976D02*
X0066401Y0021976D01*
X0066649Y0022574D02*
X0066951Y0022574D01*
X0066800Y0023173D02*
X0066800Y0023173D01*
X0066800Y0023771D02*
X0066800Y0023771D01*
X0066800Y0024370D02*
X0066800Y0024370D01*
X0066783Y0024968D02*
X0066817Y0024968D01*
X0067065Y0025567D02*
X0066535Y0025567D01*
X0066287Y0026165D02*
X0067313Y0026165D01*
X0067561Y0026764D02*
X0066039Y0026764D01*
X0065442Y0027362D02*
X0068158Y0027362D01*
X0068757Y0027961D02*
X0064843Y0027961D01*
X0063697Y0028559D02*
X0069903Y0028559D01*
X0059903Y0028559D02*
X0053697Y0028559D01*
X0054843Y0027961D02*
X0058757Y0027961D01*
X0058158Y0027362D02*
X0055442Y0027362D01*
X0056039Y0026764D02*
X0057561Y0026764D01*
X0057313Y0026165D02*
X0056287Y0026165D01*
X0056535Y0025567D02*
X0057065Y0025567D01*
X0056817Y0024968D02*
X0056783Y0024968D01*
X0056800Y0024928D02*
X0056800Y0022938D01*
X0056039Y0021101D01*
X0055421Y0020483D01*
X0058179Y0020483D01*
X0057561Y0021101D01*
X0056800Y0022938D01*
X0056800Y0024928D01*
X0056800Y0024370D02*
X0056800Y0024370D01*
X0056800Y0023771D02*
X0056800Y0023771D01*
X0056800Y0023173D02*
X0056800Y0023173D01*
X0056649Y0022574D02*
X0056951Y0022574D01*
X0057199Y0021976D02*
X0056401Y0021976D01*
X0056153Y0021377D02*
X0057447Y0021377D01*
X0057883Y0020779D02*
X0055717Y0020779D01*
X0048179Y0020483D02*
X0045421Y0020483D01*
X0046039Y0021101D01*
X0046800Y0022938D01*
X0046800Y0024928D01*
X0046800Y0022938D01*
X0047561Y0021101D01*
X0048179Y0020483D01*
X0047883Y0020779D02*
X0045717Y0020779D01*
X0046153Y0021377D02*
X0047447Y0021377D01*
X0047199Y0021976D02*
X0046401Y0021976D01*
X0046649Y0022574D02*
X0046951Y0022574D01*
X0046800Y0023173D02*
X0046800Y0023173D01*
X0046800Y0023771D02*
X0046800Y0023771D01*
X0046800Y0024370D02*
X0046800Y0024370D01*
X0046783Y0024968D02*
X0046817Y0024968D01*
X0047065Y0025567D02*
X0046535Y0025567D01*
X0046287Y0026165D02*
X0047313Y0026165D01*
X0047561Y0026764D02*
X0046039Y0026764D01*
X0045442Y0027362D02*
X0048158Y0027362D01*
X0048757Y0027961D02*
X0044843Y0027961D01*
X0043697Y0028559D02*
X0049903Y0028559D01*
X0039903Y0028559D02*
X0033697Y0028559D01*
X0034843Y0027961D02*
X0038757Y0027961D01*
X0038158Y0027362D02*
X0035442Y0027362D01*
X0036039Y0026764D02*
X0037561Y0026764D01*
X0037313Y0026165D02*
X0036287Y0026165D01*
X0036535Y0025567D02*
X0037065Y0025567D01*
X0036817Y0024968D02*
X0036783Y0024968D01*
X0036800Y0024928D02*
X0036800Y0022938D01*
X0036039Y0021101D01*
X0035421Y0020483D01*
X0038179Y0020483D01*
X0037561Y0021101D01*
X0036800Y0022938D01*
X0036800Y0024928D01*
X0036800Y0024370D02*
X0036800Y0024370D01*
X0036800Y0023771D02*
X0036800Y0023771D01*
X0036800Y0023173D02*
X0036800Y0023173D01*
X0036649Y0022574D02*
X0036951Y0022574D01*
X0037199Y0021976D02*
X0036401Y0021976D01*
X0036153Y0021377D02*
X0037447Y0021377D01*
X0037883Y0020779D02*
X0035717Y0020779D01*
X0007900Y0029756D02*
X0110856Y0029756D01*
X0110341Y0030355D02*
X0007900Y0030355D01*
X0007900Y0030953D02*
X0109743Y0030953D01*
X0109144Y0031552D02*
X0007900Y0031552D01*
X0007900Y0032150D02*
X0108546Y0032150D01*
X0107947Y0032749D02*
X0007900Y0032749D01*
X0007900Y0033347D02*
X0107349Y0033347D01*
X0106750Y0033946D02*
X0105827Y0033946D01*
X0102973Y0033946D02*
X0007900Y0033946D01*
X0007900Y0034544D02*
X0101528Y0034544D01*
X0100886Y0035143D02*
X0007900Y0035143D01*
X0007900Y0035741D02*
X0100288Y0035741D01*
X0099866Y0036340D02*
X0007900Y0036340D01*
X0007900Y0036938D02*
X0099618Y0036938D01*
X0099371Y0037537D02*
X0007900Y0037537D01*
X0007900Y0038135D02*
X0099200Y0038135D01*
X0099200Y0038734D02*
X0085083Y0038734D01*
X0085400Y0039332D02*
X0099200Y0039332D01*
X0099200Y0039931D02*
X0085400Y0039931D01*
X0077717Y0038734D02*
X0055083Y0038734D01*
X0055400Y0039332D02*
X0077400Y0039332D01*
X0077400Y0039931D02*
X0055400Y0039931D01*
X0047717Y0038734D02*
X0025083Y0038734D01*
X0025400Y0039332D02*
X0047400Y0039332D01*
X0047400Y0039931D02*
X0025400Y0039931D01*
X0017717Y0038734D02*
X0007900Y0038734D01*
X0007900Y0039332D02*
X0017400Y0039332D01*
X0017400Y0039931D02*
X0007900Y0039931D01*
X0007900Y0040529D02*
X0017400Y0040529D01*
X0017400Y0041128D02*
X0007900Y0041128D01*
X0007900Y0041727D02*
X0017400Y0041727D01*
X0017400Y0042325D02*
X0007900Y0042325D01*
X0007900Y0042924D02*
X0017400Y0042924D01*
X0017400Y0043522D02*
X0007900Y0043522D01*
X0007900Y0044121D02*
X0017400Y0044121D01*
X0017400Y0044719D02*
X0007900Y0044719D01*
X0007900Y0045318D02*
X0017424Y0045318D01*
X0018023Y0045916D02*
X0007900Y0045916D01*
X0007900Y0046515D02*
X0019473Y0046515D01*
X0018676Y0047113D02*
X0007900Y0047113D01*
X0007900Y0047712D02*
X0018078Y0047712D01*
X0017789Y0048310D02*
X0007900Y0048310D01*
X0007900Y0048909D02*
X0017542Y0048909D01*
X0017400Y0049507D02*
X0007900Y0049507D01*
X0007900Y0050106D02*
X0017400Y0050106D01*
X0017400Y0050704D02*
X0007900Y0050704D01*
X0007900Y0051303D02*
X0017591Y0051303D01*
X0017839Y0051901D02*
X0007900Y0051901D01*
X0007900Y0052500D02*
X0018197Y0052500D01*
X0018795Y0053098D02*
X0007900Y0053098D01*
X0007900Y0053697D02*
X0019761Y0053697D01*
X0019699Y0054295D02*
X0007900Y0054295D01*
X0007900Y0054894D02*
X0018769Y0054894D01*
X0018171Y0055492D02*
X0007900Y0055492D01*
X0007900Y0056091D02*
X0017828Y0056091D01*
X0017580Y0056689D02*
X0007900Y0056689D01*
X0007900Y0057288D02*
X0017400Y0057288D01*
X0017400Y0057886D02*
X0007900Y0057886D01*
X0007900Y0058485D02*
X0017400Y0058485D01*
X0017552Y0059083D02*
X0007900Y0059083D01*
X0007900Y0059682D02*
X0017800Y0059682D01*
X0018103Y0060280D02*
X0007900Y0060280D01*
X0007900Y0060879D02*
X0018702Y0060879D01*
X0019536Y0061477D02*
X0007900Y0061477D01*
X0007900Y0062076D02*
X0020615Y0062076D01*
X0020292Y0062140D02*
X0021026Y0061994D01*
X0021100Y0061994D01*
X0021100Y0065494D01*
X0021700Y0065494D01*
X0021700Y0066094D01*
X0025200Y0066094D01*
X0025200Y0066168D01*
X0025054Y0066903D01*
X0024768Y0067594D01*
X0024352Y0068216D01*
X0023822Y0068746D01*
X0023200Y0069162D01*
X0022508Y0069448D01*
X0021774Y0069594D01*
X0021700Y0069594D01*
X0021700Y0066094D01*
X0021100Y0066094D01*
X0021100Y0065494D01*
X0017600Y0065494D01*
X0017600Y0065420D01*
X0017746Y0064686D01*
X0018032Y0063994D01*
X0018448Y0063372D01*
X0018978Y0062842D01*
X0019600Y0062427D01*
X0020292Y0062140D01*
X0021100Y0062076D02*
X0021700Y0062076D01*
X0022185Y0062076D02*
X0022303Y0062076D01*
X0021700Y0062674D02*
X0021100Y0062674D01*
X0021100Y0063273D02*
X0021700Y0063273D01*
X0021700Y0063871D02*
X0021100Y0063871D01*
X0021100Y0064470D02*
X0021700Y0064470D01*
X0021700Y0065068D02*
X0021100Y0065068D01*
X0021100Y0065667D02*
X0007900Y0065667D01*
X0007900Y0066265D02*
X0017619Y0066265D01*
X0017600Y0066168D02*
X0017600Y0066094D01*
X0021100Y0066094D01*
X0021100Y0069594D01*
X0021026Y0069594D01*
X0020292Y0069448D01*
X0019600Y0069162D01*
X0018978Y0068746D01*
X0018448Y0068216D01*
X0018032Y0067594D01*
X0017746Y0066903D01*
X0017600Y0066168D01*
X0017738Y0066864D02*
X0007900Y0066864D01*
X0007900Y0067462D02*
X0017978Y0067462D01*
X0018344Y0068061D02*
X0007900Y0068061D01*
X0007900Y0068660D02*
X0018891Y0068660D01*
X0019833Y0069258D02*
X0007900Y0069258D01*
X0007900Y0069857D02*
X0030084Y0069857D01*
X0030682Y0070455D02*
X0007900Y0070455D01*
X0007900Y0071054D02*
X0031281Y0071054D01*
X0031879Y0071652D02*
X0007900Y0071652D01*
X0007900Y0072251D02*
X0032478Y0072251D01*
X0033076Y0072849D02*
X0007900Y0072849D01*
X0007900Y0073448D02*
X0033675Y0073448D01*
X0034273Y0074046D02*
X0007900Y0074046D01*
X0007900Y0074645D02*
X0034872Y0074645D01*
X0035470Y0075243D02*
X0007900Y0075243D01*
X0007900Y0075842D02*
X0036069Y0075842D01*
X0036667Y0076440D02*
X0007900Y0076440D01*
X0007900Y0077039D02*
X0037266Y0077039D01*
X0037864Y0077637D02*
X0007900Y0077637D01*
X0007900Y0078236D02*
X0038463Y0078236D01*
X0039061Y0078834D02*
X0007900Y0078834D01*
X0007900Y0079433D02*
X0009841Y0079433D01*
X0008731Y0080031D02*
X0007900Y0080031D01*
X0007900Y0080630D02*
X0008132Y0080630D01*
X0013759Y0079433D02*
X0020425Y0079433D01*
X0020676Y0079351D02*
X0021422Y0079233D01*
X0021500Y0079233D01*
X0021500Y0083733D01*
X0017000Y0083733D01*
X0017000Y0083655D01*
X0017118Y0082909D01*
X0017352Y0082191D01*
X0017695Y0081517D01*
X0018139Y0080906D01*
X0018673Y0080372D01*
X0019284Y0079928D01*
X0019957Y0079585D01*
X0020676Y0079351D01*
X0021500Y0079433D02*
X0022100Y0079433D01*
X0022100Y0080031D02*
X0021500Y0080031D01*
X0021500Y0080630D02*
X0022100Y0080630D01*
X0022100Y0081228D02*
X0021500Y0081228D01*
X0021500Y0081827D02*
X0022100Y0081827D01*
X0022100Y0082425D02*
X0021500Y0082425D01*
X0021500Y0083024D02*
X0022100Y0083024D01*
X0022100Y0083622D02*
X0021500Y0083622D01*
X0021500Y0084221D02*
X0016800Y0084221D01*
X0016800Y0084819D02*
X0017065Y0084819D01*
X0017203Y0085418D02*
X0016638Y0085418D01*
X0016390Y0086016D02*
X0017423Y0086016D01*
X0017743Y0086615D02*
X0016143Y0086615D01*
X0015691Y0087213D02*
X0018192Y0087213D01*
X0017005Y0083622D02*
X0016800Y0083622D01*
X0016794Y0083024D02*
X0017100Y0083024D01*
X0017275Y0082425D02*
X0016546Y0082425D01*
X0016298Y0081827D02*
X0017537Y0081827D01*
X0017905Y0081228D02*
X0016050Y0081228D01*
X0015468Y0080630D02*
X0018415Y0080630D01*
X0019142Y0080031D02*
X0014869Y0080031D01*
X0022100Y0084221D02*
X0026800Y0084221D01*
X0026800Y0084819D02*
X0026535Y0084819D01*
X0026397Y0085418D02*
X0026962Y0085418D01*
X0027210Y0086016D02*
X0026177Y0086016D01*
X0025857Y0086615D02*
X0027457Y0086615D01*
X0027909Y0087213D02*
X0025408Y0087213D01*
X0026595Y0083622D02*
X0026800Y0083622D01*
X0026806Y0083024D02*
X0026500Y0083024D01*
X0026325Y0082425D02*
X0027054Y0082425D01*
X0027302Y0081827D02*
X0026063Y0081827D01*
X0025695Y0081228D02*
X0027550Y0081228D01*
X0028132Y0080630D02*
X0025185Y0080630D01*
X0024458Y0080031D02*
X0028731Y0080031D01*
X0029841Y0079433D02*
X0023175Y0079433D01*
X0033759Y0079433D02*
X0039500Y0079433D01*
X0038731Y0080031D02*
X0034869Y0080031D01*
X0035468Y0080630D02*
X0038132Y0080630D01*
X0037550Y0081228D02*
X0036050Y0081228D01*
X0036298Y0081827D02*
X0037302Y0081827D01*
X0037054Y0082425D02*
X0036546Y0082425D01*
X0036794Y0083024D02*
X0036806Y0083024D01*
X0036800Y0083038D02*
X0036800Y0085028D01*
X0037561Y0086865D01*
X0038179Y0087483D01*
X0035421Y0087483D01*
X0036039Y0086865D01*
X0036800Y0085028D01*
X0036800Y0083038D01*
X0036800Y0083622D02*
X0036800Y0083622D01*
X0036800Y0084221D02*
X0036800Y0084221D01*
X0036800Y0084819D02*
X0036800Y0084819D01*
X0036638Y0085418D02*
X0036962Y0085418D01*
X0037210Y0086016D02*
X0036390Y0086016D01*
X0036143Y0086615D02*
X0037457Y0086615D01*
X0037909Y0087213D02*
X0035691Y0087213D01*
X0045421Y0087483D02*
X0048179Y0087483D01*
X0047561Y0086865D01*
X0046800Y0085028D01*
X0046800Y0083038D01*
X0046800Y0085028D01*
X0046039Y0086865D01*
X0045421Y0087483D01*
X0045691Y0087213D02*
X0047909Y0087213D01*
X0047457Y0086615D02*
X0046143Y0086615D01*
X0046390Y0086016D02*
X0047210Y0086016D01*
X0046962Y0085418D02*
X0046638Y0085418D01*
X0046800Y0084819D02*
X0046800Y0084819D01*
X0046800Y0084221D02*
X0046800Y0084221D01*
X0046800Y0083622D02*
X0046800Y0083622D01*
X0046794Y0083024D02*
X0046806Y0083024D01*
X0047054Y0082425D02*
X0046546Y0082425D01*
X0046298Y0081827D02*
X0047302Y0081827D01*
X0047550Y0081228D02*
X0046050Y0081228D01*
X0045468Y0080630D02*
X0048132Y0080630D01*
X0048731Y0080031D02*
X0044869Y0080031D01*
X0044100Y0079433D02*
X0049841Y0079433D01*
X0053759Y0079433D02*
X0059841Y0079433D01*
X0058731Y0080031D02*
X0054869Y0080031D01*
X0055468Y0080630D02*
X0058132Y0080630D01*
X0057550Y0081228D02*
X0056050Y0081228D01*
X0056298Y0081827D02*
X0057302Y0081827D01*
X0057054Y0082425D02*
X0056546Y0082425D01*
X0056794Y0083024D02*
X0056806Y0083024D01*
X0056800Y0083038D02*
X0056800Y0085028D01*
X0057561Y0086865D01*
X0058179Y0087483D01*
X0055421Y0087483D01*
X0056039Y0086865D01*
X0056800Y0085028D01*
X0056800Y0083038D01*
X0056800Y0083622D02*
X0056800Y0083622D01*
X0056800Y0084221D02*
X0056800Y0084221D01*
X0056800Y0084819D02*
X0056800Y0084819D01*
X0056638Y0085418D02*
X0056962Y0085418D01*
X0057210Y0086016D02*
X0056390Y0086016D01*
X0056143Y0086615D02*
X0057457Y0086615D01*
X0057909Y0087213D02*
X0055691Y0087213D01*
X0065421Y0087483D02*
X0066039Y0086865D01*
X0066800Y0085028D01*
X0066800Y0083038D01*
X0066800Y0085028D01*
X0067561Y0086865D01*
X0068179Y0087483D01*
X0065421Y0087483D01*
X0065691Y0087213D02*
X0067909Y0087213D01*
X0067457Y0086615D02*
X0066143Y0086615D01*
X0066390Y0086016D02*
X0067210Y0086016D01*
X0066962Y0085418D02*
X0066638Y0085418D01*
X0066800Y0084819D02*
X0066800Y0084819D01*
X0066800Y0084221D02*
X0066800Y0084221D01*
X0066800Y0083622D02*
X0066800Y0083622D01*
X0066794Y0083024D02*
X0066806Y0083024D01*
X0067054Y0082425D02*
X0066546Y0082425D01*
X0066298Y0081827D02*
X0067302Y0081827D01*
X0067550Y0081228D02*
X0066050Y0081228D01*
X0065468Y0080630D02*
X0068132Y0080630D01*
X0068731Y0080031D02*
X0064869Y0080031D01*
X0063759Y0079433D02*
X0069841Y0079433D01*
X0073759Y0079433D02*
X0079841Y0079433D01*
X0078731Y0080031D02*
X0074869Y0080031D01*
X0075468Y0080630D02*
X0078132Y0080630D01*
X0077550Y0081228D02*
X0076050Y0081228D01*
X0076298Y0081827D02*
X0077302Y0081827D01*
X0077054Y0082425D02*
X0076546Y0082425D01*
X0076794Y0083024D02*
X0076806Y0083024D01*
X0076800Y0083038D02*
X0076800Y0085028D01*
X0077561Y0086865D01*
X0078179Y0087483D01*
X0075421Y0087483D01*
X0076039Y0086865D01*
X0076800Y0085028D01*
X0076800Y0083038D01*
X0076800Y0083622D02*
X0076800Y0083622D01*
X0076800Y0084221D02*
X0076800Y0084221D01*
X0076800Y0084819D02*
X0076800Y0084819D01*
X0076638Y0085418D02*
X0076962Y0085418D01*
X0077210Y0086016D02*
X0076390Y0086016D01*
X0076143Y0086615D02*
X0077457Y0086615D01*
X0077909Y0087213D02*
X0075691Y0087213D01*
X0085421Y0087483D02*
X0086039Y0086865D01*
X0086800Y0085028D01*
X0086800Y0083038D01*
X0086800Y0085028D01*
X0087561Y0086865D01*
X0088179Y0087483D01*
X0085421Y0087483D01*
X0085691Y0087213D02*
X0087909Y0087213D01*
X0087457Y0086615D02*
X0086143Y0086615D01*
X0086390Y0086016D02*
X0087210Y0086016D01*
X0086962Y0085418D02*
X0086638Y0085418D01*
X0086800Y0084819D02*
X0086800Y0084819D01*
X0086800Y0084221D02*
X0086800Y0084221D01*
X0086800Y0083622D02*
X0086800Y0083622D01*
X0086794Y0083024D02*
X0086806Y0083024D01*
X0087054Y0082425D02*
X0086546Y0082425D01*
X0086298Y0081827D02*
X0087302Y0081827D01*
X0087550Y0081228D02*
X0086050Y0081228D01*
X0085468Y0080630D02*
X0088132Y0080630D01*
X0088731Y0080031D02*
X0084869Y0080031D01*
X0083759Y0079433D02*
X0089841Y0079433D01*
X0093759Y0079433D02*
X0099841Y0079433D01*
X0098731Y0080031D02*
X0094869Y0080031D01*
X0095468Y0080630D02*
X0098132Y0080630D01*
X0097550Y0081228D02*
X0096050Y0081228D01*
X0096298Y0081827D02*
X0097302Y0081827D01*
X0097054Y0082425D02*
X0096546Y0082425D01*
X0096794Y0083024D02*
X0096806Y0083024D01*
X0096800Y0083038D02*
X0096800Y0085028D01*
X0097561Y0086865D01*
X0098179Y0087483D01*
X0095421Y0087483D01*
X0096039Y0086865D01*
X0096800Y0085028D01*
X0096800Y0083038D01*
X0096800Y0083622D02*
X0096800Y0083622D01*
X0096800Y0084221D02*
X0096800Y0084221D01*
X0096800Y0084819D02*
X0096800Y0084819D01*
X0096638Y0085418D02*
X0096962Y0085418D01*
X0097210Y0086016D02*
X0096390Y0086016D01*
X0096143Y0086615D02*
X0097457Y0086615D01*
X0097909Y0087213D02*
X0095691Y0087213D01*
X0105691Y0087213D02*
X0130300Y0087213D01*
X0130300Y0086615D02*
X0106143Y0086615D01*
X0106390Y0086016D02*
X0130300Y0086016D01*
X0130300Y0085418D02*
X0106638Y0085418D01*
X0106800Y0084819D02*
X0111465Y0084819D01*
X0110867Y0084221D02*
X0106800Y0084221D01*
X0106800Y0083622D02*
X0110825Y0083622D01*
X0110825Y0083024D02*
X0106794Y0083024D01*
X0106546Y0082425D02*
X0110825Y0082425D01*
X0110825Y0081827D02*
X0106298Y0081827D01*
X0106050Y0081228D02*
X0110825Y0081228D01*
X0110825Y0080630D02*
X0105468Y0080630D01*
X0104869Y0080031D02*
X0110825Y0080031D01*
X0111179Y0079433D02*
X0103759Y0079433D01*
X0110882Y0078236D02*
X0044100Y0078236D01*
X0044100Y0078834D02*
X0111480Y0078834D01*
X0110825Y0077637D02*
X0044100Y0077637D01*
X0043771Y0077039D02*
X0110825Y0077039D01*
X0110825Y0076440D02*
X0043173Y0076440D01*
X0042574Y0075842D02*
X0110825Y0075842D01*
X0110825Y0075243D02*
X0041976Y0075243D01*
X0041377Y0074645D02*
X0110825Y0074645D01*
X0110825Y0074046D02*
X0040779Y0074046D01*
X0040180Y0073448D02*
X0102149Y0073448D01*
X0102481Y0073617D02*
X0101779Y0073259D01*
X0101143Y0072797D01*
X0100586Y0072240D01*
X0100124Y0071604D01*
X0099766Y0070902D01*
X0099523Y0070154D01*
X0099400Y0069377D01*
X0099400Y0069283D01*
X0104100Y0069283D01*
X0104100Y0073983D01*
X0104006Y0073983D01*
X0103229Y0073860D01*
X0102481Y0073617D01*
X0101215Y0072849D02*
X0039582Y0072849D01*
X0038983Y0072251D02*
X0100596Y0072251D01*
X0100159Y0071652D02*
X0038385Y0071652D01*
X0037786Y0071054D02*
X0099843Y0071054D01*
X0099621Y0070455D02*
X0037188Y0070455D01*
X0036589Y0069857D02*
X0099476Y0069857D01*
X0099400Y0068660D02*
X0083909Y0068660D01*
X0083822Y0068746D02*
X0084352Y0068216D01*
X0084768Y0067594D01*
X0085054Y0066903D01*
X0085200Y0066168D01*
X0085200Y0066094D01*
X0081700Y0066094D01*
X0081700Y0065494D01*
X0081700Y0061994D01*
X0081774Y0061994D01*
X0082508Y0062140D01*
X0083200Y0062427D01*
X0083822Y0062842D01*
X0084352Y0063372D01*
X0084768Y0063994D01*
X0085054Y0064686D01*
X0085200Y0065420D01*
X0085200Y0065494D01*
X0081700Y0065494D01*
X0081100Y0065494D01*
X0081100Y0061994D01*
X0081026Y0061994D01*
X0080292Y0062140D01*
X0079600Y0062427D01*
X0078978Y0062842D01*
X0078448Y0063372D01*
X0078032Y0063994D01*
X0077746Y0064686D01*
X0077600Y0065420D01*
X0077600Y0065494D01*
X0081100Y0065494D01*
X0081100Y0066094D01*
X0077600Y0066094D01*
X0077600Y0066168D01*
X0077746Y0066903D01*
X0078032Y0067594D01*
X0078448Y0068216D01*
X0078978Y0068746D01*
X0079600Y0069162D01*
X0080292Y0069448D01*
X0081026Y0069594D01*
X0081100Y0069594D01*
X0081100Y0066094D01*
X0081700Y0066094D01*
X0081700Y0069594D01*
X0081774Y0069594D01*
X0082508Y0069448D01*
X0083200Y0069162D01*
X0083822Y0068746D01*
X0084456Y0068061D02*
X0099484Y0068061D01*
X0099637Y0067462D02*
X0084822Y0067462D01*
X0085062Y0066864D02*
X0099868Y0066864D01*
X0100194Y0066265D02*
X0085181Y0066265D01*
X0085130Y0065068D02*
X0101281Y0065068D01*
X0100645Y0065667D02*
X0081700Y0065667D01*
X0081700Y0066265D02*
X0081100Y0066265D01*
X0081100Y0065667D02*
X0051700Y0065667D01*
X0051700Y0065494D02*
X0051700Y0066094D01*
X0055200Y0066094D01*
X0055200Y0066168D01*
X0055054Y0066903D01*
X0054768Y0067594D01*
X0054352Y0068216D01*
X0053822Y0068746D01*
X0053200Y0069162D01*
X0052508Y0069448D01*
X0051774Y0069594D01*
X0051700Y0069594D01*
X0051700Y0066094D01*
X0051100Y0066094D01*
X0051100Y0065494D01*
X0051700Y0065494D01*
X0051700Y0061994D01*
X0051774Y0061994D01*
X0052508Y0062140D01*
X0053200Y0062427D01*
X0053822Y0062842D01*
X0054352Y0063372D01*
X0054768Y0063994D01*
X0055054Y0064686D01*
X0055200Y0065420D01*
X0055200Y0065494D01*
X0051700Y0065494D01*
X0051700Y0065068D02*
X0051100Y0065068D01*
X0051100Y0065494D02*
X0051100Y0061994D01*
X0051026Y0061994D01*
X0050292Y0062140D01*
X0049600Y0062427D01*
X0048978Y0062842D01*
X0048448Y0063372D01*
X0048032Y0063994D01*
X0047746Y0064686D01*
X0047600Y0065420D01*
X0047600Y0065494D01*
X0051100Y0065494D01*
X0051100Y0065667D02*
X0032400Y0065667D01*
X0032998Y0066265D02*
X0047619Y0066265D01*
X0047600Y0066168D02*
X0047600Y0066094D01*
X0051100Y0066094D01*
X0051100Y0069594D01*
X0051026Y0069594D01*
X0050292Y0069448D01*
X0049600Y0069162D01*
X0048978Y0068746D01*
X0048448Y0068216D01*
X0048032Y0067594D01*
X0047746Y0066903D01*
X0047600Y0066168D01*
X0047738Y0066864D02*
X0033597Y0066864D01*
X0034195Y0067462D02*
X0047978Y0067462D01*
X0048344Y0068061D02*
X0034794Y0068061D01*
X0035392Y0068660D02*
X0048891Y0068660D01*
X0049833Y0069258D02*
X0035991Y0069258D01*
X0031801Y0065068D02*
X0047670Y0065068D01*
X0047835Y0064470D02*
X0031203Y0064470D01*
X0030604Y0063871D02*
X0048114Y0063871D01*
X0048547Y0063273D02*
X0030005Y0063273D01*
X0029407Y0062674D02*
X0049229Y0062674D01*
X0049536Y0061477D02*
X0028210Y0061477D01*
X0027611Y0060879D02*
X0048702Y0060879D01*
X0048103Y0060280D02*
X0027013Y0060280D01*
X0028808Y0062076D02*
X0050615Y0062076D01*
X0051100Y0062076D02*
X0051700Y0062076D01*
X0052185Y0062076D02*
X0080615Y0062076D01*
X0081100Y0062076D02*
X0081700Y0062076D01*
X0082185Y0062076D02*
X0100139Y0062076D01*
X0099805Y0061477D02*
X0083264Y0061477D01*
X0084098Y0060879D02*
X0092843Y0060879D01*
X0092245Y0060280D02*
X0084697Y0060280D01*
X0083571Y0062674D02*
X0100737Y0062674D01*
X0101336Y0063273D02*
X0084253Y0063273D01*
X0084686Y0063871D02*
X0102613Y0063871D01*
X0102244Y0064470D02*
X0084965Y0064470D01*
X0081700Y0064470D02*
X0081100Y0064470D01*
X0081100Y0065068D02*
X0081700Y0065068D01*
X0081700Y0066864D02*
X0081100Y0066864D01*
X0081100Y0067462D02*
X0081700Y0067462D01*
X0081700Y0068061D02*
X0081100Y0068061D01*
X0081100Y0068660D02*
X0081700Y0068660D01*
X0081700Y0069258D02*
X0081100Y0069258D01*
X0079833Y0069258D02*
X0052967Y0069258D01*
X0053909Y0068660D02*
X0078891Y0068660D01*
X0078344Y0068061D02*
X0054456Y0068061D01*
X0054822Y0067462D02*
X0077978Y0067462D01*
X0077738Y0066864D02*
X0055062Y0066864D01*
X0055181Y0066265D02*
X0077619Y0066265D01*
X0077670Y0065068D02*
X0055130Y0065068D01*
X0054965Y0064470D02*
X0077835Y0064470D01*
X0078114Y0063871D02*
X0054686Y0063871D01*
X0054253Y0063273D02*
X0078547Y0063273D01*
X0079229Y0062674D02*
X0053571Y0062674D01*
X0053264Y0061477D02*
X0079536Y0061477D01*
X0078702Y0060879D02*
X0054098Y0060879D01*
X0054697Y0060280D02*
X0078103Y0060280D01*
X0081100Y0062674D02*
X0081700Y0062674D01*
X0081700Y0063273D02*
X0081100Y0063273D01*
X0081100Y0063871D02*
X0081700Y0063871D01*
X0082967Y0069258D02*
X0104100Y0069258D01*
X0104100Y0069857D02*
X0104700Y0069857D01*
X0104700Y0070455D02*
X0104100Y0070455D01*
X0104100Y0071054D02*
X0104700Y0071054D01*
X0104700Y0071652D02*
X0104100Y0071652D01*
X0104100Y0072251D02*
X0104700Y0072251D01*
X0104700Y0072849D02*
X0104100Y0072849D01*
X0104100Y0073448D02*
X0104700Y0073448D01*
X0106651Y0073448D02*
X0111165Y0073448D01*
X0111500Y0072849D02*
X0107585Y0072849D01*
X0108204Y0072251D02*
X0111564Y0072251D01*
X0111812Y0071652D02*
X0108641Y0071652D01*
X0108957Y0071054D02*
X0112335Y0071054D01*
X0109324Y0069857D02*
X0117586Y0069857D01*
X0116988Y0069258D02*
X0104700Y0069258D01*
X0109179Y0070455D02*
X0118185Y0070455D01*
X0118783Y0071054D02*
X0115465Y0071054D01*
X0115988Y0071652D02*
X0119382Y0071652D01*
X0119500Y0072251D02*
X0116236Y0072251D01*
X0116300Y0072849D02*
X0119500Y0072849D01*
X0119500Y0073448D02*
X0116635Y0073448D01*
X0116975Y0074046D02*
X0119500Y0074046D01*
X0118367Y0074645D02*
X0116975Y0074645D01*
X0116975Y0075243D02*
X0117900Y0075243D01*
X0117900Y0075842D02*
X0116975Y0075842D01*
X0116975Y0076440D02*
X0117900Y0076440D01*
X0117900Y0077039D02*
X0116975Y0077039D01*
X0116975Y0077637D02*
X0117900Y0077637D01*
X0117900Y0078236D02*
X0116918Y0078236D01*
X0116320Y0078834D02*
X0117900Y0078834D01*
X0117900Y0079433D02*
X0116621Y0079433D01*
X0116975Y0080031D02*
X0117900Y0080031D01*
X0116933Y0084221D02*
X0130300Y0084221D01*
X0130300Y0084819D02*
X0116335Y0084819D01*
X0124132Y0083622D02*
X0130300Y0083622D01*
X0130300Y0083024D02*
X0124731Y0083024D01*
X0124900Y0082425D02*
X0130300Y0082425D01*
X0130300Y0081827D02*
X0124900Y0081827D01*
X0124900Y0081228D02*
X0130300Y0081228D01*
X0130300Y0080630D02*
X0124900Y0080630D01*
X0124900Y0080031D02*
X0130300Y0080031D01*
X0130300Y0079433D02*
X0124900Y0079433D01*
X0124900Y0078834D02*
X0130300Y0078834D01*
X0130300Y0078236D02*
X0124900Y0078236D01*
X0124900Y0077637D02*
X0130300Y0077637D01*
X0130300Y0077039D02*
X0124900Y0077039D01*
X0124900Y0076440D02*
X0130300Y0076440D01*
X0130300Y0075842D02*
X0124900Y0075842D01*
X0124900Y0075243D02*
X0130300Y0075243D01*
X0130300Y0074645D02*
X0124433Y0074645D01*
X0123300Y0074046D02*
X0130300Y0074046D01*
X0130300Y0073448D02*
X0123300Y0073448D01*
X0123300Y0072849D02*
X0130300Y0072849D01*
X0130300Y0072251D02*
X0123300Y0072251D01*
X0123300Y0071652D02*
X0130300Y0071652D01*
X0130300Y0071054D02*
X0123300Y0071054D01*
X0123300Y0070455D02*
X0130300Y0070455D01*
X0130300Y0069857D02*
X0122960Y0069857D01*
X0122362Y0069258D02*
X0130300Y0069258D01*
X0130300Y0068660D02*
X0121763Y0068660D01*
X0121165Y0068061D02*
X0130300Y0068061D01*
X0130300Y0067462D02*
X0120566Y0067462D01*
X0119968Y0066864D02*
X0130300Y0066864D01*
X0130300Y0066265D02*
X0119369Y0066265D01*
X0118771Y0065667D02*
X0130300Y0065667D01*
X0130300Y0065068D02*
X0118172Y0065068D01*
X0117574Y0064470D02*
X0130300Y0064470D01*
X0130300Y0063871D02*
X0116975Y0063871D01*
X0116377Y0063273D02*
X0130300Y0063273D01*
X0130300Y0062674D02*
X0115778Y0062674D01*
X0115180Y0062076D02*
X0130300Y0062076D01*
X0130300Y0061477D02*
X0114581Y0061477D01*
X0113983Y0060879D02*
X0130300Y0060879D01*
X0130300Y0060280D02*
X0113384Y0060280D01*
X0112786Y0059682D02*
X0130300Y0059682D01*
X0130300Y0059083D02*
X0112187Y0059083D01*
X0112585Y0058485D02*
X0130300Y0058485D01*
X0130300Y0057886D02*
X0113184Y0057886D01*
X0113782Y0057288D02*
X0130300Y0057288D01*
X0130300Y0056689D02*
X0114381Y0056689D01*
X0114979Y0056091D02*
X0130300Y0056091D01*
X0130300Y0055492D02*
X0115578Y0055492D01*
X0116176Y0054894D02*
X0130300Y0054894D01*
X0130300Y0054295D02*
X0116775Y0054295D01*
X0117373Y0053697D02*
X0130300Y0053697D01*
X0130300Y0053098D02*
X0117972Y0053098D01*
X0118570Y0052500D02*
X0130300Y0052500D01*
X0130300Y0051901D02*
X0119169Y0051901D01*
X0119767Y0051303D02*
X0130300Y0051303D01*
X0130300Y0050704D02*
X0120366Y0050704D01*
X0120964Y0050106D02*
X0130300Y0050106D01*
X0130300Y0049507D02*
X0121563Y0049507D01*
X0122161Y0048909D02*
X0130300Y0048909D01*
X0130300Y0048310D02*
X0122760Y0048310D01*
X0123300Y0047712D02*
X0130300Y0047712D01*
X0130300Y0047113D02*
X0123300Y0047113D01*
X0123300Y0046515D02*
X0130300Y0046515D01*
X0130300Y0045916D02*
X0123300Y0045916D01*
X0123300Y0045318D02*
X0130300Y0045318D01*
X0130300Y0044719D02*
X0123300Y0044719D01*
X0123300Y0044121D02*
X0130300Y0044121D01*
X0130300Y0043522D02*
X0123300Y0043522D01*
X0123300Y0042924D02*
X0130300Y0042924D01*
X0130300Y0042325D02*
X0123300Y0042325D01*
X0123300Y0041727D02*
X0130300Y0041727D01*
X0130300Y0041128D02*
X0123300Y0041128D01*
X0123300Y0040529D02*
X0130300Y0040529D01*
X0130300Y0039931D02*
X0123300Y0039931D01*
X0123300Y0039332D02*
X0130300Y0039332D01*
X0130300Y0038734D02*
X0123300Y0038734D01*
X0123300Y0038135D02*
X0130300Y0038135D01*
X0130300Y0037537D02*
X0123300Y0037537D01*
X0123300Y0036938D02*
X0130300Y0036938D01*
X0130300Y0036340D02*
X0123300Y0036340D01*
X0123300Y0035741D02*
X0130300Y0035741D01*
X0130300Y0035143D02*
X0123300Y0035143D01*
X0123300Y0034544D02*
X0130300Y0034544D01*
X0130300Y0033946D02*
X0123300Y0033946D01*
X0124407Y0033347D02*
X0130300Y0033347D01*
X0130300Y0032749D02*
X0124900Y0032749D01*
X0124900Y0032150D02*
X0130300Y0032150D01*
X0130300Y0031552D02*
X0124900Y0031552D01*
X0124900Y0030953D02*
X0130300Y0030953D01*
X0130300Y0030355D02*
X0124900Y0030355D01*
X0124900Y0029756D02*
X0130300Y0029756D01*
X0130300Y0029158D02*
X0124900Y0029158D01*
X0124900Y0028559D02*
X0130300Y0028559D01*
X0130300Y0027961D02*
X0124900Y0027961D01*
X0124900Y0027362D02*
X0130300Y0027362D01*
X0130300Y0026764D02*
X0124900Y0026764D01*
X0124900Y0026165D02*
X0130300Y0026165D01*
X0130300Y0025567D02*
X0124900Y0025567D01*
X0124756Y0024968D02*
X0130300Y0024968D01*
X0130300Y0024370D02*
X0124158Y0024370D01*
X0130300Y0023771D02*
X0116959Y0023771D01*
X0116361Y0023173D02*
X0130300Y0023173D01*
X0130300Y0022574D02*
X0106405Y0022574D01*
X0106539Y0023173D02*
X0111439Y0023173D01*
X0106190Y0021976D02*
X0130300Y0021976D01*
X0130300Y0021377D02*
X0105876Y0021377D01*
X0105434Y0020779D02*
X0130300Y0020779D01*
X0117900Y0027883D02*
X0116975Y0027883D01*
X0116975Y0028179D01*
X0116171Y0028983D01*
X0116975Y0029787D01*
X0116975Y0034179D01*
X0116096Y0035058D01*
X0111704Y0035058D01*
X0111358Y0034712D01*
X0109167Y0036903D01*
X0109600Y0037949D01*
X0109600Y0040017D01*
X0108808Y0041929D01*
X0107346Y0043391D01*
X0105917Y0043983D01*
X0107346Y0044575D01*
X0108808Y0046037D01*
X0109600Y0047949D01*
X0109600Y0050017D01*
X0108808Y0051929D01*
X0107346Y0053391D01*
X0105917Y0053983D01*
X0107346Y0054575D01*
X0108808Y0056037D01*
X0109057Y0056639D01*
X0119500Y0046196D01*
X0119500Y0033733D01*
X0118779Y0033733D01*
X0117900Y0032854D01*
X0117900Y0029112D01*
X0118029Y0028983D01*
X0117900Y0028854D01*
X0117900Y0027883D01*
X0117900Y0027961D02*
X0116975Y0027961D01*
X0116595Y0028559D02*
X0117900Y0028559D01*
X0117900Y0029158D02*
X0116346Y0029158D01*
X0116944Y0029756D02*
X0117900Y0029756D01*
X0117900Y0030355D02*
X0116975Y0030355D01*
X0116975Y0030953D02*
X0117900Y0030953D01*
X0117900Y0031552D02*
X0116975Y0031552D01*
X0116975Y0032150D02*
X0117900Y0032150D01*
X0117900Y0032749D02*
X0116975Y0032749D01*
X0116975Y0033347D02*
X0118393Y0033347D01*
X0119500Y0033946D02*
X0116975Y0033946D01*
X0116610Y0034544D02*
X0119500Y0034544D01*
X0119500Y0035143D02*
X0110927Y0035143D01*
X0110329Y0035741D02*
X0119500Y0035741D01*
X0119500Y0036340D02*
X0109730Y0036340D01*
X0109181Y0036938D02*
X0119500Y0036938D01*
X0119500Y0037537D02*
X0109429Y0037537D01*
X0109600Y0038135D02*
X0119500Y0038135D01*
X0119500Y0038734D02*
X0109600Y0038734D01*
X0109600Y0039332D02*
X0119500Y0039332D01*
X0119500Y0039931D02*
X0109600Y0039931D01*
X0109388Y0040529D02*
X0119500Y0040529D01*
X0119500Y0041128D02*
X0109140Y0041128D01*
X0108892Y0041727D02*
X0119500Y0041727D01*
X0119500Y0042325D02*
X0108412Y0042325D01*
X0107813Y0042924D02*
X0119500Y0042924D01*
X0119500Y0043522D02*
X0107030Y0043522D01*
X0106249Y0044121D02*
X0119500Y0044121D01*
X0119500Y0044719D02*
X0107490Y0044719D01*
X0108088Y0045318D02*
X0119500Y0045318D01*
X0119500Y0045916D02*
X0108687Y0045916D01*
X0109006Y0046515D02*
X0119181Y0046515D01*
X0118583Y0047113D02*
X0109254Y0047113D01*
X0109502Y0047712D02*
X0117984Y0047712D01*
X0117386Y0048310D02*
X0109600Y0048310D01*
X0109600Y0048909D02*
X0116787Y0048909D01*
X0116189Y0049507D02*
X0109600Y0049507D01*
X0109563Y0050106D02*
X0115590Y0050106D01*
X0114992Y0050704D02*
X0109316Y0050704D01*
X0109068Y0051303D02*
X0114393Y0051303D01*
X0113795Y0051901D02*
X0108820Y0051901D01*
X0108237Y0052500D02*
X0113196Y0052500D01*
X0112598Y0053098D02*
X0107639Y0053098D01*
X0106608Y0053697D02*
X0111999Y0053697D01*
X0111401Y0054295D02*
X0106671Y0054295D01*
X0107665Y0054894D02*
X0110802Y0054894D01*
X0110204Y0055492D02*
X0108263Y0055492D01*
X0108830Y0056091D02*
X0109605Y0056091D01*
X0102883Y0053983D02*
X0101454Y0053391D01*
X0100009Y0051946D01*
X0084943Y0051946D01*
X0084791Y0052312D01*
X0083666Y0053437D01*
X0082348Y0053983D01*
X0083666Y0054529D01*
X0084757Y0055620D01*
X0094090Y0055620D01*
X0095153Y0056683D01*
X0099724Y0056683D01*
X0099992Y0056037D01*
X0101454Y0054575D01*
X0102883Y0053983D01*
X0102192Y0053697D02*
X0083039Y0053697D01*
X0083101Y0054295D02*
X0102129Y0054295D01*
X0101135Y0054894D02*
X0084031Y0054894D01*
X0084629Y0055492D02*
X0100537Y0055492D01*
X0099970Y0056091D02*
X0094560Y0056091D01*
X0100563Y0052500D02*
X0084603Y0052500D01*
X0084005Y0053098D02*
X0101161Y0053098D01*
X0099200Y0048146D02*
X0099200Y0047949D01*
X0099992Y0046037D01*
X0101454Y0044575D01*
X0102883Y0043983D01*
X0102320Y0043750D01*
X0101998Y0044072D01*
X0085400Y0044072D01*
X0085400Y0045293D01*
X0084521Y0046172D01*
X0082500Y0046172D01*
X0083666Y0046655D01*
X0084791Y0047780D01*
X0084943Y0048146D01*
X0099200Y0048146D01*
X0099298Y0047712D02*
X0084722Y0047712D01*
X0084124Y0047113D02*
X0099546Y0047113D01*
X0099794Y0046515D02*
X0083327Y0046515D01*
X0084777Y0045916D02*
X0100113Y0045916D01*
X0100712Y0045318D02*
X0085376Y0045318D01*
X0085400Y0044719D02*
X0101310Y0044719D01*
X0102551Y0044121D02*
X0085400Y0044121D01*
X0080300Y0046172D02*
X0078279Y0046172D01*
X0077400Y0045293D01*
X0077400Y0044072D01*
X0055400Y0044072D01*
X0055400Y0045293D01*
X0054521Y0046172D01*
X0052500Y0046172D01*
X0053666Y0046655D01*
X0054791Y0047780D01*
X0054943Y0048146D01*
X0077857Y0048146D01*
X0078009Y0047780D01*
X0079134Y0046655D01*
X0080300Y0046172D01*
X0079473Y0046515D02*
X0053327Y0046515D01*
X0054124Y0047113D02*
X0078676Y0047113D01*
X0078078Y0047712D02*
X0054722Y0047712D01*
X0054777Y0045916D02*
X0078023Y0045916D01*
X0077424Y0045318D02*
X0055376Y0045318D01*
X0055400Y0044719D02*
X0077400Y0044719D01*
X0077400Y0044121D02*
X0055400Y0044121D01*
X0050300Y0046172D02*
X0048279Y0046172D01*
X0047400Y0045293D01*
X0047400Y0044072D01*
X0025400Y0044072D01*
X0025400Y0045293D01*
X0024521Y0046172D01*
X0022500Y0046172D01*
X0023666Y0046655D01*
X0024791Y0047780D01*
X0024943Y0048146D01*
X0047857Y0048146D01*
X0048009Y0047780D01*
X0049134Y0046655D01*
X0050300Y0046172D01*
X0049473Y0046515D02*
X0023327Y0046515D01*
X0024124Y0047113D02*
X0048676Y0047113D01*
X0048078Y0047712D02*
X0024722Y0047712D01*
X0024777Y0045916D02*
X0048023Y0045916D01*
X0047424Y0045318D02*
X0025376Y0045318D01*
X0025400Y0044719D02*
X0047400Y0044719D01*
X0047400Y0044121D02*
X0025400Y0044121D01*
X0024943Y0051946D02*
X0024791Y0052312D01*
X0023666Y0053437D01*
X0022348Y0053983D01*
X0023666Y0054529D01*
X0024757Y0055620D01*
X0048043Y0055620D01*
X0049134Y0054529D01*
X0050452Y0053983D01*
X0049134Y0053437D01*
X0048009Y0052312D01*
X0047857Y0051946D01*
X0024943Y0051946D01*
X0024603Y0052500D02*
X0048197Y0052500D01*
X0048795Y0053098D02*
X0024005Y0053098D01*
X0023039Y0053697D02*
X0049761Y0053697D01*
X0049699Y0054295D02*
X0023101Y0054295D01*
X0024031Y0054894D02*
X0048769Y0054894D01*
X0048171Y0055492D02*
X0024629Y0055492D01*
X0019229Y0062674D02*
X0007900Y0062674D01*
X0007900Y0063273D02*
X0018547Y0063273D01*
X0018114Y0063871D02*
X0007900Y0063871D01*
X0007900Y0064470D02*
X0017835Y0064470D01*
X0017670Y0065068D02*
X0007900Y0065068D01*
X0021100Y0066265D02*
X0021700Y0066265D01*
X0021700Y0065667D02*
X0025894Y0065667D01*
X0025296Y0065068D02*
X0025130Y0065068D01*
X0025181Y0066265D02*
X0026493Y0066265D01*
X0027091Y0066864D02*
X0025062Y0066864D01*
X0024822Y0067462D02*
X0027690Y0067462D01*
X0028288Y0068061D02*
X0024456Y0068061D01*
X0023909Y0068660D02*
X0028887Y0068660D01*
X0029485Y0069258D02*
X0022967Y0069258D01*
X0021700Y0069258D02*
X0021100Y0069258D01*
X0021100Y0068660D02*
X0021700Y0068660D01*
X0021700Y0068061D02*
X0021100Y0068061D01*
X0021100Y0067462D02*
X0021700Y0067462D01*
X0021700Y0066864D02*
X0021100Y0066864D01*
X0051100Y0066864D02*
X0051700Y0066864D01*
X0051700Y0067462D02*
X0051100Y0067462D01*
X0051100Y0068061D02*
X0051700Y0068061D01*
X0051700Y0068660D02*
X0051100Y0068660D01*
X0051100Y0069258D02*
X0051700Y0069258D01*
X0051700Y0066265D02*
X0051100Y0066265D01*
X0051100Y0064470D02*
X0051700Y0064470D01*
X0051700Y0063871D02*
X0051100Y0063871D01*
X0051100Y0063273D02*
X0051700Y0063273D01*
X0051700Y0062674D02*
X0051100Y0062674D01*
X0054757Y0055620D02*
X0078043Y0055620D01*
X0079134Y0054529D01*
X0080452Y0053983D01*
X0079134Y0053437D01*
X0078009Y0052312D01*
X0077857Y0051946D01*
X0054943Y0051946D01*
X0054791Y0052312D01*
X0053666Y0053437D01*
X0052348Y0053983D01*
X0053666Y0054529D01*
X0054757Y0055620D01*
X0054629Y0055492D02*
X0078171Y0055492D01*
X0078769Y0054894D02*
X0054031Y0054894D01*
X0053101Y0054295D02*
X0079699Y0054295D01*
X0079761Y0053697D02*
X0053039Y0053697D01*
X0054005Y0053098D02*
X0078795Y0053098D01*
X0078197Y0052500D02*
X0054603Y0052500D01*
X0106187Y0063871D02*
X0111601Y0063871D01*
X0111003Y0063273D02*
X0107464Y0063273D01*
X0108063Y0062674D02*
X0110404Y0062674D01*
X0109806Y0062076D02*
X0108661Y0062076D01*
X0108995Y0061477D02*
X0109207Y0061477D01*
X0106556Y0064470D02*
X0112200Y0064470D01*
X0112798Y0065068D02*
X0107518Y0065068D01*
X0108155Y0065667D02*
X0113397Y0065667D01*
X0113995Y0066265D02*
X0108606Y0066265D01*
X0108932Y0066864D02*
X0114594Y0066864D01*
X0115192Y0067462D02*
X0109163Y0067462D01*
X0109316Y0068061D02*
X0115791Y0068061D01*
X0116389Y0068660D02*
X0109400Y0068660D01*
X0122187Y0048883D02*
X0122187Y0048883D01*
D18*
X0107800Y0044383D03*
X0092800Y0044383D03*
X0092800Y0054383D03*
X0067800Y0044383D03*
X0062800Y0054383D03*
X0037800Y0044383D03*
X0035300Y0036883D03*
X0015300Y0036883D03*
X0015300Y0044383D03*
X0015300Y0054383D03*
X0032800Y0054383D03*
X0113900Y0072883D03*
D19*
X0104400Y0058983D02*
X0094200Y0058983D01*
X0093137Y0057920D01*
X0081400Y0057920D01*
X0051400Y0057920D01*
X0021400Y0057920D01*
X0041800Y0078320D01*
X0041800Y0084033D01*
M02*
