%
M48
M72
T01C0.01000
T02C0.03150
T03C0.04000
%
T01
X15300Y36883
X15300Y44383
X15300Y54383
X32800Y54383
X37800Y44383
X35300Y36883
X67800Y44383
X62800Y54383
X92800Y54383
X92800Y44383
X107800Y44383
X113900Y72883
T02
X81400Y65794
X81400Y57920
X81400Y50046
X81400Y42172
X51400Y42172
X51400Y50046
X51400Y57920
X51400Y65794
X21400Y65794
X21400Y57920
X21400Y50046
X21400Y42172
T03
X11800Y23933
X21800Y23933
X31800Y23933
X41800Y23933
X51800Y23933
X61800Y23933
X71800Y23933
X81800Y23933
X91800Y23933
X101800Y23933
X104400Y38983
X104400Y48983
X104400Y58983
X104400Y68983
X101800Y84033
X91800Y84033
X81800Y84033
X71800Y84033
X61800Y84033
X51800Y84033
X41800Y84033
X31800Y84033
X21800Y84033
X11800Y84033
M30
