G75*
%MOIN*%
%OFA0B0*%
%FSLAX25Y25*%
%IPPOS*%
%LPD*%
%AMOC8*
5,1,8,0,0,1.08239X$1,22.5*
%
%ADD10C,0.07000*%
%ADD11R,0.05000X0.05000*%
%ADD12C,0.05000*%
%ADD13C,0.07400*%
%ADD14C,0.00800*%
%ADD15C,0.01800*%
D10*
X0011800Y0023933D03*
X0021800Y0023933D03*
X0031800Y0023933D03*
X0041800Y0023933D03*
X0051800Y0023933D03*
X0061800Y0023933D03*
X0071800Y0023933D03*
X0081800Y0023933D03*
X0091800Y0023933D03*
X0101800Y0023933D03*
X0101800Y0084033D03*
X0091800Y0084033D03*
X0081800Y0084033D03*
X0071800Y0084033D03*
X0061800Y0084033D03*
X0051800Y0084033D03*
X0041800Y0084033D03*
X0031800Y0084033D03*
X0021800Y0084033D03*
X0011800Y0084033D03*
D11*
X0021400Y0042172D03*
X0051400Y0042172D03*
X0081400Y0042172D03*
D12*
X0081400Y0050046D03*
X0081400Y0057920D03*
X0081400Y0065794D03*
X0051400Y0065794D03*
X0051400Y0057920D03*
X0051400Y0050046D03*
X0021400Y0050046D03*
X0021400Y0057920D03*
X0021400Y0065794D03*
D13*
X0104400Y0068983D03*
X0104400Y0058983D03*
X0104400Y0048983D03*
X0104400Y0038983D03*
D14*
X0015615Y0021384D02*
X0014514Y0020283D01*
X0019086Y0020283D01*
X0017985Y0021384D01*
X0017300Y0023038D01*
X0017300Y0024828D01*
X0017985Y0026482D01*
X0019251Y0027748D01*
X0020905Y0028433D01*
X0022695Y0028433D01*
X0024349Y0027748D01*
X0025615Y0026482D01*
X0026300Y0024828D01*
X0026300Y0023038D01*
X0025615Y0021384D01*
X0024514Y0020283D01*
X0029086Y0020283D01*
X0027985Y0021384D01*
X0027300Y0023038D01*
X0027300Y0024828D01*
X0027985Y0026482D01*
X0029251Y0027748D01*
X0030905Y0028433D01*
X0032695Y0028433D01*
X0034349Y0027748D01*
X0035615Y0026482D01*
X0036300Y0024828D01*
X0036300Y0023038D01*
X0035615Y0021384D01*
X0034514Y0020283D01*
X0039086Y0020283D01*
X0037985Y0021384D01*
X0037300Y0023038D01*
X0037300Y0024828D01*
X0037985Y0026482D01*
X0039251Y0027748D01*
X0040905Y0028433D01*
X0042695Y0028433D01*
X0044349Y0027748D01*
X0045615Y0026482D01*
X0046300Y0024828D01*
X0046300Y0023038D01*
X0045615Y0021384D01*
X0044514Y0020283D01*
X0049086Y0020283D01*
X0047985Y0021384D01*
X0047300Y0023038D01*
X0047300Y0024828D01*
X0047985Y0026482D01*
X0049251Y0027748D01*
X0050400Y0028224D01*
X0050400Y0038672D01*
X0048486Y0038672D01*
X0047900Y0039258D01*
X0047900Y0045086D01*
X0048486Y0045672D01*
X0053794Y0045672D01*
X0052679Y0046787D01*
X0052096Y0046546D01*
X0050704Y0046546D01*
X0049417Y0047079D01*
X0048433Y0048063D01*
X0047900Y0049350D01*
X0047900Y0050742D01*
X0048433Y0052029D01*
X0049417Y0053013D01*
X0050704Y0053546D01*
X0052096Y0053546D01*
X0053383Y0053013D01*
X0054367Y0052029D01*
X0054900Y0050742D01*
X0054900Y0049350D01*
X0054659Y0048767D01*
X0063200Y0040226D01*
X0063200Y0028224D01*
X0064349Y0027748D01*
X0065615Y0026482D01*
X0066300Y0024828D01*
X0066300Y0023038D01*
X0065615Y0021384D01*
X0064514Y0020283D01*
X0069086Y0020283D01*
X0067985Y0021384D01*
X0067300Y0023038D01*
X0067300Y0024828D01*
X0067985Y0026482D01*
X0069251Y0027748D01*
X0070905Y0028433D01*
X0072695Y0028433D01*
X0074349Y0027748D01*
X0075615Y0026482D01*
X0076300Y0024828D01*
X0076300Y0023038D01*
X0075615Y0021384D01*
X0074514Y0020283D01*
X0079086Y0020283D01*
X0077985Y0021384D01*
X0077300Y0023038D01*
X0077300Y0024828D01*
X0077985Y0026482D01*
X0079251Y0027748D01*
X0080905Y0028433D01*
X0082695Y0028433D01*
X0084349Y0027748D01*
X0085615Y0026482D01*
X0086300Y0024828D01*
X0086300Y0023038D01*
X0085615Y0021384D01*
X0084514Y0020283D01*
X0089086Y0020283D01*
X0087985Y0021384D01*
X0087300Y0023038D01*
X0087300Y0024828D01*
X0087985Y0026482D01*
X0089251Y0027748D01*
X0090905Y0028433D01*
X0092695Y0028433D01*
X0094349Y0027748D01*
X0095615Y0026482D01*
X0096300Y0024828D01*
X0096300Y0023038D01*
X0095615Y0021384D01*
X0094514Y0020283D01*
X0098520Y0020283D01*
X0098062Y0020741D01*
X0097609Y0021365D01*
X0097259Y0022052D01*
X0097021Y0022786D01*
X0096902Y0023533D01*
X0101400Y0023533D01*
X0101400Y0024333D01*
X0096902Y0024333D01*
X0097021Y0025080D01*
X0097259Y0025814D01*
X0097609Y0026501D01*
X0098062Y0027125D01*
X0098608Y0027671D01*
X0099232Y0028124D01*
X0099919Y0028474D01*
X0100653Y0028712D01*
X0101400Y0028831D01*
X0101400Y0024333D01*
X0102200Y0024333D01*
X0106698Y0024333D01*
X0106579Y0025080D01*
X0106341Y0025814D01*
X0105991Y0026501D01*
X0105537Y0027125D01*
X0104992Y0027671D01*
X0104368Y0028124D01*
X0103681Y0028474D01*
X0102947Y0028712D01*
X0102200Y0028831D01*
X0102200Y0024333D01*
X0102200Y0023533D01*
X0106698Y0023533D01*
X0106579Y0022786D01*
X0106341Y0022052D01*
X0105991Y0021365D01*
X0105537Y0020741D01*
X0105080Y0020283D01*
X0130500Y0020283D01*
X0130500Y0087683D01*
X0104514Y0087683D01*
X0105615Y0086582D01*
X0106300Y0084928D01*
X0106300Y0083138D01*
X0105615Y0081484D01*
X0104349Y0080218D01*
X0102695Y0079533D01*
X0100905Y0079533D01*
X0099251Y0080218D01*
X0097985Y0081484D01*
X0097300Y0083138D01*
X0097300Y0084928D01*
X0097985Y0086582D01*
X0099086Y0087683D01*
X0094514Y0087683D01*
X0095615Y0086582D01*
X0096300Y0084928D01*
X0096300Y0083138D01*
X0095615Y0081484D01*
X0094349Y0080218D01*
X0092695Y0079533D01*
X0090905Y0079533D01*
X0089251Y0080218D01*
X0087985Y0081484D01*
X0087300Y0083138D01*
X0087300Y0084928D01*
X0087985Y0086582D01*
X0089086Y0087683D01*
X0084514Y0087683D01*
X0085615Y0086582D01*
X0086300Y0084928D01*
X0086300Y0083138D01*
X0085615Y0081484D01*
X0084349Y0080218D01*
X0082695Y0079533D01*
X0080905Y0079533D01*
X0079251Y0080218D01*
X0077985Y0081484D01*
X0077300Y0083138D01*
X0077300Y0084928D01*
X0077985Y0086582D01*
X0079086Y0087683D01*
X0074514Y0087683D01*
X0075615Y0086582D01*
X0076300Y0084928D01*
X0076300Y0083138D01*
X0075615Y0081484D01*
X0074349Y0080218D01*
X0072695Y0079533D01*
X0070905Y0079533D01*
X0069251Y0080218D01*
X0067985Y0081484D01*
X0067300Y0083138D01*
X0067300Y0084928D01*
X0067985Y0086582D01*
X0069086Y0087683D01*
X0064514Y0087683D01*
X0065615Y0086582D01*
X0066300Y0084928D01*
X0066300Y0083138D01*
X0065615Y0081484D01*
X0064349Y0080218D01*
X0062695Y0079533D01*
X0060905Y0079533D01*
X0059251Y0080218D01*
X0057985Y0081484D01*
X0057300Y0083138D01*
X0057300Y0084928D01*
X0057985Y0086582D01*
X0059086Y0087683D01*
X0054514Y0087683D01*
X0055615Y0086582D01*
X0056300Y0084928D01*
X0056300Y0083138D01*
X0055615Y0081484D01*
X0054349Y0080218D01*
X0052695Y0079533D01*
X0050905Y0079533D01*
X0049251Y0080218D01*
X0047985Y0081484D01*
X0047300Y0083138D01*
X0047300Y0084928D01*
X0047985Y0086582D01*
X0049086Y0087683D01*
X0044514Y0087683D01*
X0045615Y0086582D01*
X0046300Y0084928D01*
X0046300Y0083138D01*
X0045615Y0081484D01*
X0044349Y0080218D01*
X0042695Y0079533D01*
X0040905Y0079533D01*
X0039251Y0080218D01*
X0037985Y0081484D01*
X0037300Y0083138D01*
X0037300Y0084928D01*
X0037985Y0086582D01*
X0039086Y0087683D01*
X0034514Y0087683D01*
X0035615Y0086582D01*
X0036300Y0084928D01*
X0036300Y0083138D01*
X0035615Y0081484D01*
X0034349Y0080218D01*
X0032695Y0079533D01*
X0030905Y0079533D01*
X0029251Y0080218D01*
X0027985Y0081484D01*
X0027300Y0083138D01*
X0027300Y0084928D01*
X0027985Y0086582D01*
X0029086Y0087683D01*
X0025080Y0087683D01*
X0025537Y0087225D01*
X0025991Y0086601D01*
X0026341Y0085914D01*
X0026579Y0085180D01*
X0026698Y0084433D01*
X0022200Y0084433D01*
X0022200Y0083633D01*
X0022200Y0079135D01*
X0022947Y0079254D01*
X0023681Y0079492D01*
X0024368Y0079842D01*
X0024992Y0080296D01*
X0025537Y0080841D01*
X0025991Y0081465D01*
X0026341Y0082152D01*
X0026579Y0082886D01*
X0026698Y0083633D01*
X0022200Y0083633D01*
X0021400Y0083633D01*
X0021400Y0079135D01*
X0020653Y0079254D01*
X0019919Y0079492D01*
X0019232Y0079842D01*
X0018608Y0080296D01*
X0018062Y0080841D01*
X0017609Y0081465D01*
X0017259Y0082152D01*
X0017021Y0082886D01*
X0016902Y0083633D01*
X0021400Y0083633D01*
X0021400Y0084433D01*
X0016902Y0084433D01*
X0017021Y0085180D01*
X0017259Y0085914D01*
X0017609Y0086601D01*
X0018062Y0087225D01*
X0018520Y0087683D01*
X0014514Y0087683D01*
X0015615Y0086582D01*
X0016300Y0084928D01*
X0016300Y0083138D01*
X0015615Y0081484D01*
X0014349Y0080218D01*
X0012695Y0079533D01*
X0010905Y0079533D01*
X0009251Y0080218D01*
X0007985Y0081484D01*
X0007700Y0082172D01*
X0007700Y0025794D01*
X0007985Y0026482D01*
X0009251Y0027748D01*
X0010905Y0028433D01*
X0012695Y0028433D01*
X0014349Y0027748D01*
X0015615Y0026482D01*
X0016300Y0024828D01*
X0016300Y0023038D01*
X0015615Y0021384D01*
X0015609Y0021379D02*
X0017990Y0021379D01*
X0017657Y0022177D02*
X0015943Y0022177D01*
X0016274Y0022976D02*
X0017326Y0022976D01*
X0017300Y0023774D02*
X0016300Y0023774D01*
X0016300Y0024573D02*
X0017300Y0024573D01*
X0017525Y0025371D02*
X0016075Y0025371D01*
X0015744Y0026170D02*
X0017856Y0026170D01*
X0018471Y0026968D02*
X0015129Y0026968D01*
X0014304Y0027767D02*
X0019296Y0027767D01*
X0024304Y0027767D02*
X0029296Y0027767D01*
X0028471Y0026968D02*
X0025129Y0026968D01*
X0025744Y0026170D02*
X0027856Y0026170D01*
X0027525Y0025371D02*
X0026075Y0025371D01*
X0026300Y0024573D02*
X0027300Y0024573D01*
X0027300Y0023774D02*
X0026300Y0023774D01*
X0026274Y0022976D02*
X0027326Y0022976D01*
X0027657Y0022177D02*
X0025943Y0022177D01*
X0025609Y0021379D02*
X0027990Y0021379D01*
X0028789Y0020580D02*
X0024811Y0020580D01*
X0018789Y0020580D02*
X0014811Y0020580D01*
X0007856Y0026170D02*
X0007700Y0026170D01*
X0007700Y0026968D02*
X0008471Y0026968D01*
X0007700Y0027767D02*
X0009296Y0027767D01*
X0007700Y0028565D02*
X0050400Y0028565D01*
X0050400Y0029364D02*
X0007700Y0029364D01*
X0007700Y0030162D02*
X0050400Y0030162D01*
X0050400Y0030961D02*
X0007700Y0030961D01*
X0007700Y0031759D02*
X0050400Y0031759D01*
X0050400Y0032558D02*
X0007700Y0032558D01*
X0007700Y0033356D02*
X0050400Y0033356D01*
X0050400Y0034155D02*
X0007700Y0034155D01*
X0007700Y0034953D02*
X0050400Y0034953D01*
X0050400Y0035752D02*
X0007700Y0035752D01*
X0007700Y0036550D02*
X0050400Y0036550D01*
X0050400Y0037349D02*
X0007700Y0037349D01*
X0007700Y0038147D02*
X0050400Y0038147D01*
X0048212Y0038946D02*
X0024588Y0038946D01*
X0024314Y0038672D02*
X0024900Y0039258D01*
X0024900Y0045086D01*
X0024314Y0045672D01*
X0018486Y0045672D01*
X0017900Y0045086D01*
X0017900Y0039258D01*
X0018486Y0038672D01*
X0024314Y0038672D01*
X0024900Y0039744D02*
X0047900Y0039744D01*
X0047900Y0040543D02*
X0024900Y0040543D01*
X0024900Y0041341D02*
X0047900Y0041341D01*
X0047900Y0042140D02*
X0024900Y0042140D01*
X0024900Y0042938D02*
X0047900Y0042938D01*
X0047900Y0043737D02*
X0024900Y0043737D01*
X0024900Y0044535D02*
X0047900Y0044535D01*
X0048148Y0045334D02*
X0024652Y0045334D01*
X0023383Y0047079D02*
X0022096Y0046546D01*
X0020704Y0046546D01*
X0019417Y0047079D01*
X0018433Y0048063D01*
X0017900Y0049350D01*
X0017900Y0050742D01*
X0018433Y0052029D01*
X0019417Y0053013D01*
X0020704Y0053546D01*
X0022096Y0053546D01*
X0023383Y0053013D01*
X0024367Y0052029D01*
X0024900Y0050742D01*
X0024900Y0049350D01*
X0024367Y0048063D01*
X0023383Y0047079D01*
X0023025Y0046931D02*
X0049775Y0046931D01*
X0048767Y0047729D02*
X0024033Y0047729D01*
X0024560Y0048528D02*
X0048240Y0048528D01*
X0047910Y0049327D02*
X0024890Y0049327D01*
X0024900Y0050125D02*
X0047900Y0050125D01*
X0047975Y0050924D02*
X0024825Y0050924D01*
X0024494Y0051722D02*
X0048306Y0051722D01*
X0048925Y0052521D02*
X0023875Y0052521D01*
X0022644Y0053319D02*
X0050156Y0053319D01*
X0050704Y0054420D02*
X0052096Y0054420D01*
X0053383Y0054953D01*
X0054367Y0055937D01*
X0054900Y0057224D01*
X0054900Y0058616D01*
X0054367Y0059903D01*
X0053383Y0060887D01*
X0052096Y0061420D01*
X0050704Y0061420D01*
X0049417Y0060887D01*
X0048433Y0059903D01*
X0047900Y0058616D01*
X0047900Y0057224D01*
X0048433Y0055937D01*
X0049417Y0054953D01*
X0050704Y0054420D01*
X0049506Y0054916D02*
X0023294Y0054916D01*
X0023383Y0054953D02*
X0024367Y0055937D01*
X0024900Y0057224D01*
X0024900Y0058616D01*
X0024367Y0059903D01*
X0023383Y0060887D01*
X0022096Y0061420D01*
X0020704Y0061420D01*
X0019417Y0060887D01*
X0018433Y0059903D01*
X0017900Y0058616D01*
X0017900Y0057224D01*
X0018433Y0055937D01*
X0019417Y0054953D01*
X0020704Y0054420D01*
X0022096Y0054420D01*
X0023383Y0054953D01*
X0024144Y0055715D02*
X0048656Y0055715D01*
X0048194Y0056513D02*
X0024606Y0056513D01*
X0024900Y0057312D02*
X0047900Y0057312D01*
X0047900Y0058110D02*
X0024900Y0058110D01*
X0024779Y0058909D02*
X0048021Y0058909D01*
X0048352Y0059707D02*
X0024448Y0059707D01*
X0023764Y0060506D02*
X0049036Y0060506D01*
X0050424Y0061304D02*
X0022376Y0061304D01*
X0022538Y0062044D02*
X0023247Y0062338D01*
X0023886Y0062765D01*
X0024429Y0063308D01*
X0024856Y0063947D01*
X0025150Y0064656D01*
X0025299Y0065407D01*
X0021787Y0065407D01*
X0021787Y0061895D01*
X0022538Y0062044D01*
X0022679Y0062103D02*
X0050121Y0062103D01*
X0050262Y0062044D02*
X0049553Y0062338D01*
X0048914Y0062765D01*
X0048371Y0063308D01*
X0047944Y0063947D01*
X0047650Y0064656D01*
X0047501Y0065407D01*
X0051013Y0065407D01*
X0051787Y0065407D01*
X0051787Y0061895D01*
X0052538Y0062044D01*
X0053247Y0062338D01*
X0053886Y0062765D01*
X0054429Y0063308D01*
X0054856Y0063947D01*
X0055150Y0064656D01*
X0055299Y0065407D01*
X0051787Y0065407D01*
X0051787Y0066181D01*
X0055299Y0066181D01*
X0055150Y0066932D01*
X0054856Y0067641D01*
X0054429Y0068280D01*
X0053886Y0068823D01*
X0053247Y0069250D01*
X0052538Y0069544D01*
X0051787Y0069693D01*
X0051787Y0066182D01*
X0051013Y0066182D01*
X0051013Y0069693D01*
X0050262Y0069544D01*
X0049553Y0069250D01*
X0048914Y0068823D01*
X0048371Y0068280D01*
X0047944Y0067641D01*
X0047650Y0066932D01*
X0047501Y0066181D01*
X0051013Y0066181D01*
X0051013Y0065407D01*
X0051013Y0061895D01*
X0050262Y0062044D01*
X0051013Y0062103D02*
X0051787Y0062103D01*
X0051787Y0062901D02*
X0051013Y0062901D01*
X0051013Y0063700D02*
X0051787Y0063700D01*
X0051787Y0064498D02*
X0051013Y0064498D01*
X0051013Y0065297D02*
X0051787Y0065297D01*
X0051787Y0066095D02*
X0081013Y0066095D01*
X0081013Y0066181D02*
X0081013Y0065407D01*
X0081787Y0065407D01*
X0081787Y0061895D01*
X0082538Y0062044D01*
X0083247Y0062338D01*
X0083886Y0062765D01*
X0084429Y0063308D01*
X0084856Y0063947D01*
X0085150Y0064656D01*
X0085299Y0065407D01*
X0081787Y0065407D01*
X0081787Y0066181D01*
X0085299Y0066181D01*
X0085150Y0066932D01*
X0084856Y0067641D01*
X0084429Y0068280D01*
X0083886Y0068823D01*
X0083247Y0069250D01*
X0082538Y0069544D01*
X0081787Y0069693D01*
X0081787Y0066182D01*
X0081013Y0066182D01*
X0081013Y0069693D01*
X0080262Y0069544D01*
X0079553Y0069250D01*
X0078914Y0068823D01*
X0078371Y0068280D01*
X0077944Y0067641D01*
X0077650Y0066932D01*
X0077501Y0066181D01*
X0081013Y0066181D01*
X0081013Y0066894D02*
X0081787Y0066894D01*
X0081787Y0067692D02*
X0081013Y0067692D01*
X0081013Y0068491D02*
X0081787Y0068491D01*
X0081787Y0069289D02*
X0081013Y0069289D01*
X0079647Y0069289D02*
X0053153Y0069289D01*
X0054219Y0068491D02*
X0078581Y0068491D01*
X0077978Y0067692D02*
X0054822Y0067692D01*
X0055158Y0066894D02*
X0077642Y0066894D01*
X0077501Y0065407D02*
X0077650Y0064656D01*
X0077944Y0063947D01*
X0078371Y0063308D01*
X0078914Y0062765D01*
X0079553Y0062338D01*
X0080262Y0062044D01*
X0081013Y0061895D01*
X0081013Y0065407D01*
X0077501Y0065407D01*
X0077523Y0065297D02*
X0055277Y0065297D01*
X0055085Y0064498D02*
X0077715Y0064498D01*
X0078109Y0063700D02*
X0054691Y0063700D01*
X0054023Y0062901D02*
X0078777Y0062901D01*
X0080121Y0062103D02*
X0052679Y0062103D01*
X0052376Y0061304D02*
X0080424Y0061304D01*
X0080704Y0061420D02*
X0079417Y0060887D01*
X0078433Y0059903D01*
X0077900Y0058616D01*
X0077900Y0057224D01*
X0078433Y0055937D01*
X0079417Y0054953D01*
X0080704Y0054420D01*
X0082096Y0054420D01*
X0083383Y0054953D01*
X0084367Y0055937D01*
X0084900Y0057224D01*
X0084900Y0058616D01*
X0084367Y0059903D01*
X0083383Y0060887D01*
X0082096Y0061420D01*
X0080704Y0061420D01*
X0081013Y0062103D02*
X0081787Y0062103D01*
X0081787Y0062901D02*
X0081013Y0062901D01*
X0081013Y0063700D02*
X0081787Y0063700D01*
X0081787Y0064498D02*
X0081013Y0064498D01*
X0081013Y0065297D02*
X0081787Y0065297D01*
X0081787Y0066095D02*
X0100194Y0066095D01*
X0100038Y0066310D02*
X0100510Y0065661D01*
X0101078Y0065093D01*
X0101727Y0064621D01*
X0102442Y0064257D01*
X0103206Y0064009D01*
X0103999Y0063883D01*
X0104000Y0063883D01*
X0104000Y0068583D01*
X0104800Y0068583D01*
X0104800Y0063883D01*
X0104801Y0063883D01*
X0105594Y0064009D01*
X0106358Y0064257D01*
X0107073Y0064621D01*
X0107722Y0065093D01*
X0108290Y0065661D01*
X0108762Y0066310D01*
X0109126Y0067025D01*
X0109374Y0067789D01*
X0109500Y0068582D01*
X0109500Y0068583D01*
X0104800Y0068583D01*
X0104800Y0069383D01*
X0109500Y0069383D01*
X0109500Y0069384D01*
X0109374Y0070177D01*
X0109126Y0070941D01*
X0108762Y0071656D01*
X0108290Y0072305D01*
X0107722Y0072873D01*
X0107073Y0073345D01*
X0106358Y0073709D01*
X0105594Y0073957D01*
X0104801Y0074083D01*
X0104800Y0074083D01*
X0104800Y0069383D01*
X0104000Y0069383D01*
X0104000Y0068583D01*
X0099300Y0068583D01*
X0099300Y0068582D01*
X0099426Y0067789D01*
X0099674Y0067025D01*
X0100038Y0066310D01*
X0099741Y0066894D02*
X0085158Y0066894D01*
X0084822Y0067692D02*
X0099457Y0067692D01*
X0099314Y0068491D02*
X0084219Y0068491D01*
X0083153Y0069289D02*
X0104000Y0069289D01*
X0104000Y0069383D02*
X0099300Y0069383D01*
X0099300Y0069384D01*
X0099426Y0070177D01*
X0099674Y0070941D01*
X0100038Y0071656D01*
X0100510Y0072305D01*
X0101078Y0072873D01*
X0101727Y0073345D01*
X0102442Y0073709D01*
X0103206Y0073957D01*
X0103999Y0074083D01*
X0104000Y0074083D01*
X0104000Y0069383D01*
X0104000Y0070088D02*
X0104800Y0070088D01*
X0104800Y0070886D02*
X0104000Y0070886D01*
X0104000Y0071685D02*
X0104800Y0071685D01*
X0104800Y0072483D02*
X0104000Y0072483D01*
X0104000Y0073282D02*
X0104800Y0073282D01*
X0104800Y0074080D02*
X0104000Y0074080D01*
X0103982Y0074080D02*
X0007700Y0074080D01*
X0007700Y0073282D02*
X0101640Y0073282D01*
X0100688Y0072483D02*
X0007700Y0072483D01*
X0007700Y0071685D02*
X0100059Y0071685D01*
X0099656Y0070886D02*
X0007700Y0070886D01*
X0007700Y0070088D02*
X0099411Y0070088D01*
X0104000Y0068491D02*
X0104800Y0068491D01*
X0104800Y0069289D02*
X0112500Y0069289D01*
X0112500Y0068491D02*
X0109486Y0068491D01*
X0109343Y0067692D02*
X0112500Y0067692D01*
X0112500Y0066894D02*
X0109059Y0066894D01*
X0108606Y0066095D02*
X0112500Y0066095D01*
X0112500Y0065297D02*
X0107926Y0065297D01*
X0106832Y0064498D02*
X0112500Y0064498D01*
X0112500Y0063700D02*
X0084691Y0063700D01*
X0085085Y0064498D02*
X0101968Y0064498D01*
X0100874Y0065297D02*
X0085277Y0065297D01*
X0084023Y0062901D02*
X0101671Y0062901D01*
X0101738Y0062968D02*
X0100416Y0061645D01*
X0099700Y0059918D01*
X0099700Y0058048D01*
X0100416Y0056321D01*
X0101738Y0054999D01*
X0103465Y0054283D01*
X0105335Y0054283D01*
X0107062Y0054999D01*
X0108384Y0056321D01*
X0109100Y0058048D01*
X0109100Y0059918D01*
X0108384Y0061645D01*
X0107062Y0062968D01*
X0105335Y0063683D01*
X0103465Y0063683D01*
X0101738Y0062968D01*
X0100873Y0062103D02*
X0082679Y0062103D01*
X0082376Y0061304D02*
X0100274Y0061304D01*
X0099943Y0060506D02*
X0083764Y0060506D01*
X0084448Y0059707D02*
X0099700Y0059707D01*
X0099700Y0058909D02*
X0084779Y0058909D01*
X0084900Y0058110D02*
X0099700Y0058110D01*
X0100005Y0057312D02*
X0084900Y0057312D01*
X0084606Y0056513D02*
X0100336Y0056513D01*
X0101022Y0055715D02*
X0084144Y0055715D01*
X0083294Y0054916D02*
X0101937Y0054916D01*
X0102586Y0053319D02*
X0082644Y0053319D01*
X0082096Y0053546D02*
X0080704Y0053546D01*
X0079417Y0053013D01*
X0078433Y0052029D01*
X0077900Y0050742D01*
X0077900Y0049350D01*
X0078433Y0048063D01*
X0079417Y0047079D01*
X0080704Y0046546D01*
X0082096Y0046546D01*
X0083383Y0047079D01*
X0084367Y0048063D01*
X0084900Y0049350D01*
X0084900Y0050742D01*
X0084367Y0052029D01*
X0083383Y0053013D01*
X0082096Y0053546D01*
X0080156Y0053319D02*
X0052644Y0053319D01*
X0053875Y0052521D02*
X0078925Y0052521D01*
X0078306Y0051722D02*
X0054494Y0051722D01*
X0054825Y0050924D02*
X0077975Y0050924D01*
X0077900Y0050125D02*
X0054900Y0050125D01*
X0054890Y0049327D02*
X0077910Y0049327D01*
X0078240Y0048528D02*
X0054898Y0048528D01*
X0055696Y0047729D02*
X0078767Y0047729D01*
X0079775Y0046931D02*
X0056495Y0046931D01*
X0057293Y0046132D02*
X0100604Y0046132D01*
X0100416Y0046321D02*
X0101738Y0044999D01*
X0103465Y0044283D01*
X0105335Y0044283D01*
X0107062Y0044999D01*
X0108384Y0046321D01*
X0109100Y0048048D01*
X0109100Y0049918D01*
X0108577Y0051180D01*
X0114480Y0057083D01*
X0115300Y0057903D01*
X0115300Y0071596D01*
X0115800Y0072096D01*
X0115800Y0073670D01*
X0114687Y0074783D01*
X0113113Y0074783D01*
X0112000Y0073670D01*
X0112000Y0072096D01*
X0112500Y0071596D01*
X0112500Y0059063D01*
X0106597Y0053160D01*
X0105335Y0053683D01*
X0103465Y0053683D01*
X0101738Y0052968D01*
X0100416Y0051645D01*
X0099700Y0049918D01*
X0099700Y0048048D01*
X0100416Y0046321D01*
X0100163Y0046931D02*
X0083025Y0046931D01*
X0084033Y0047729D02*
X0099832Y0047729D01*
X0099700Y0048528D02*
X0084560Y0048528D01*
X0084890Y0049327D02*
X0099700Y0049327D01*
X0099786Y0050125D02*
X0084900Y0050125D01*
X0084825Y0050924D02*
X0100117Y0050924D01*
X0100492Y0051722D02*
X0084494Y0051722D01*
X0083875Y0052521D02*
X0101291Y0052521D01*
X0106214Y0053319D02*
X0106756Y0053319D01*
X0107555Y0054118D02*
X0007700Y0054118D01*
X0007700Y0054916D02*
X0019506Y0054916D01*
X0018656Y0055715D02*
X0007700Y0055715D01*
X0007700Y0056513D02*
X0018194Y0056513D01*
X0017900Y0057312D02*
X0007700Y0057312D01*
X0007700Y0058110D02*
X0017900Y0058110D01*
X0018021Y0058909D02*
X0007700Y0058909D01*
X0007700Y0059707D02*
X0018352Y0059707D01*
X0019036Y0060506D02*
X0007700Y0060506D01*
X0007700Y0061304D02*
X0020424Y0061304D01*
X0020262Y0062044D02*
X0019553Y0062338D01*
X0018914Y0062765D01*
X0018371Y0063308D01*
X0017944Y0063947D01*
X0017650Y0064656D01*
X0017501Y0065407D01*
X0021013Y0065407D01*
X0021787Y0065407D01*
X0021787Y0066181D01*
X0025299Y0066181D01*
X0025150Y0066932D01*
X0024856Y0067641D01*
X0024429Y0068280D01*
X0023886Y0068823D01*
X0023247Y0069250D01*
X0022538Y0069544D01*
X0021787Y0069693D01*
X0021787Y0066182D01*
X0021013Y0066182D01*
X0021013Y0069693D01*
X0020262Y0069544D01*
X0019553Y0069250D01*
X0018914Y0068823D01*
X0018371Y0068280D01*
X0017944Y0067641D01*
X0017650Y0066932D01*
X0017501Y0066181D01*
X0021013Y0066181D01*
X0021013Y0065407D01*
X0021013Y0061895D01*
X0020262Y0062044D01*
X0020121Y0062103D02*
X0007700Y0062103D01*
X0007700Y0062901D02*
X0018777Y0062901D01*
X0018109Y0063700D02*
X0007700Y0063700D01*
X0007700Y0064498D02*
X0017715Y0064498D01*
X0017523Y0065297D02*
X0007700Y0065297D01*
X0007700Y0066095D02*
X0021013Y0066095D01*
X0021787Y0066095D02*
X0051013Y0066095D01*
X0051013Y0066894D02*
X0051787Y0066894D01*
X0051787Y0067692D02*
X0051013Y0067692D01*
X0051013Y0068491D02*
X0051787Y0068491D01*
X0051787Y0069289D02*
X0051013Y0069289D01*
X0049647Y0069289D02*
X0023153Y0069289D01*
X0024219Y0068491D02*
X0048581Y0068491D01*
X0047978Y0067692D02*
X0024822Y0067692D01*
X0025158Y0066894D02*
X0047642Y0066894D01*
X0047523Y0065297D02*
X0025277Y0065297D01*
X0025085Y0064498D02*
X0047715Y0064498D01*
X0048109Y0063700D02*
X0024691Y0063700D01*
X0024023Y0062901D02*
X0048777Y0062901D01*
X0053764Y0060506D02*
X0079036Y0060506D01*
X0078352Y0059707D02*
X0054448Y0059707D01*
X0054779Y0058909D02*
X0078021Y0058909D01*
X0077900Y0058110D02*
X0054900Y0058110D01*
X0054900Y0057312D02*
X0077900Y0057312D01*
X0078194Y0056513D02*
X0054606Y0056513D01*
X0054144Y0055715D02*
X0078656Y0055715D01*
X0079506Y0054916D02*
X0053294Y0054916D01*
X0051400Y0050046D02*
X0061800Y0039646D01*
X0061800Y0023933D01*
X0065943Y0022177D02*
X0067657Y0022177D01*
X0067326Y0022976D02*
X0066274Y0022976D01*
X0066300Y0023774D02*
X0067300Y0023774D01*
X0067300Y0024573D02*
X0066300Y0024573D01*
X0066075Y0025371D02*
X0067525Y0025371D01*
X0067856Y0026170D02*
X0065744Y0026170D01*
X0065129Y0026968D02*
X0068471Y0026968D01*
X0069296Y0027767D02*
X0064304Y0027767D01*
X0063200Y0028565D02*
X0100200Y0028565D01*
X0101400Y0028565D02*
X0102200Y0028565D01*
X0102200Y0027767D02*
X0101400Y0027767D01*
X0101400Y0026968D02*
X0102200Y0026968D01*
X0102200Y0026170D02*
X0101400Y0026170D01*
X0101400Y0025371D02*
X0102200Y0025371D01*
X0102200Y0024573D02*
X0101400Y0024573D01*
X0101400Y0023774D02*
X0096300Y0023774D01*
X0096300Y0024573D02*
X0096940Y0024573D01*
X0097115Y0025371D02*
X0096075Y0025371D01*
X0095744Y0026170D02*
X0097440Y0026170D01*
X0097948Y0026968D02*
X0095129Y0026968D01*
X0094304Y0027767D02*
X0098740Y0027767D01*
X0103400Y0028565D02*
X0130500Y0028565D01*
X0130500Y0027767D02*
X0104860Y0027767D01*
X0105652Y0026968D02*
X0130500Y0026968D01*
X0130500Y0026170D02*
X0106160Y0026170D01*
X0106485Y0025371D02*
X0130500Y0025371D01*
X0130500Y0024573D02*
X0106660Y0024573D01*
X0106609Y0022976D02*
X0130500Y0022976D01*
X0130500Y0023774D02*
X0102200Y0023774D01*
X0097602Y0021379D02*
X0095609Y0021379D01*
X0095943Y0022177D02*
X0097218Y0022177D01*
X0096991Y0022976D02*
X0096274Y0022976D01*
X0094811Y0020580D02*
X0098223Y0020580D01*
X0105377Y0020580D02*
X0130500Y0020580D01*
X0130500Y0021379D02*
X0105998Y0021379D01*
X0106382Y0022177D02*
X0130500Y0022177D01*
X0130500Y0029364D02*
X0063200Y0029364D01*
X0063200Y0030162D02*
X0130500Y0030162D01*
X0130500Y0030961D02*
X0063200Y0030961D01*
X0063200Y0031759D02*
X0130500Y0031759D01*
X0130500Y0032558D02*
X0063200Y0032558D01*
X0063200Y0033356D02*
X0130500Y0033356D01*
X0130500Y0034155D02*
X0063200Y0034155D01*
X0063200Y0034953D02*
X0101847Y0034953D01*
X0101738Y0034999D02*
X0103465Y0034283D01*
X0105335Y0034283D01*
X0107062Y0034999D01*
X0108384Y0036321D01*
X0109100Y0038048D01*
X0109100Y0039918D01*
X0108384Y0041645D01*
X0107062Y0042968D01*
X0105335Y0043683D01*
X0103465Y0043683D01*
X0101738Y0042968D01*
X0100416Y0041645D01*
X0099700Y0039918D01*
X0099700Y0038048D01*
X0100416Y0036321D01*
X0101738Y0034999D01*
X0100984Y0035752D02*
X0063200Y0035752D01*
X0063200Y0036550D02*
X0100320Y0036550D01*
X0099990Y0037349D02*
X0063200Y0037349D01*
X0063200Y0038147D02*
X0099700Y0038147D01*
X0099700Y0038946D02*
X0084588Y0038946D01*
X0084314Y0038672D02*
X0084900Y0039258D01*
X0084900Y0045086D01*
X0084314Y0045672D01*
X0078486Y0045672D01*
X0077900Y0045086D01*
X0077900Y0039258D01*
X0078486Y0038672D01*
X0084314Y0038672D01*
X0084900Y0039744D02*
X0099700Y0039744D01*
X0099959Y0040543D02*
X0084900Y0040543D01*
X0084900Y0041341D02*
X0100290Y0041341D01*
X0100910Y0042140D02*
X0084900Y0042140D01*
X0084900Y0042938D02*
X0101709Y0042938D01*
X0102856Y0044535D02*
X0084900Y0044535D01*
X0084900Y0043737D02*
X0130500Y0043737D01*
X0130500Y0044535D02*
X0105944Y0044535D01*
X0107398Y0045334D02*
X0130500Y0045334D01*
X0130500Y0046132D02*
X0108196Y0046132D01*
X0108637Y0046931D02*
X0130500Y0046931D01*
X0130500Y0047729D02*
X0108968Y0047729D01*
X0109100Y0048528D02*
X0130500Y0048528D01*
X0130500Y0049327D02*
X0109100Y0049327D01*
X0109014Y0050125D02*
X0130500Y0050125D01*
X0130500Y0050924D02*
X0108683Y0050924D01*
X0109119Y0051722D02*
X0130500Y0051722D01*
X0130500Y0052521D02*
X0109917Y0052521D01*
X0110716Y0053319D02*
X0130500Y0053319D01*
X0130500Y0054118D02*
X0111514Y0054118D01*
X0112313Y0054916D02*
X0130500Y0054916D01*
X0130500Y0055715D02*
X0113111Y0055715D01*
X0113910Y0056513D02*
X0130500Y0056513D01*
X0130500Y0057312D02*
X0114708Y0057312D01*
X0115300Y0058110D02*
X0130500Y0058110D01*
X0130500Y0058909D02*
X0115300Y0058909D01*
X0115300Y0059707D02*
X0130500Y0059707D01*
X0130500Y0060506D02*
X0115300Y0060506D01*
X0115300Y0061304D02*
X0130500Y0061304D01*
X0130500Y0062103D02*
X0115300Y0062103D01*
X0115300Y0062901D02*
X0130500Y0062901D01*
X0130500Y0063700D02*
X0115300Y0063700D01*
X0115300Y0064498D02*
X0130500Y0064498D01*
X0130500Y0065297D02*
X0115300Y0065297D01*
X0115300Y0066095D02*
X0130500Y0066095D01*
X0130500Y0066894D02*
X0115300Y0066894D01*
X0115300Y0067692D02*
X0130500Y0067692D01*
X0130500Y0068491D02*
X0115300Y0068491D01*
X0115300Y0069289D02*
X0130500Y0069289D01*
X0130500Y0070088D02*
X0115300Y0070088D01*
X0115300Y0070886D02*
X0130500Y0070886D01*
X0130500Y0071685D02*
X0115389Y0071685D01*
X0115800Y0072483D02*
X0130500Y0072483D01*
X0130500Y0073282D02*
X0115800Y0073282D01*
X0115390Y0074080D02*
X0130500Y0074080D01*
X0130500Y0074879D02*
X0007700Y0074879D01*
X0007700Y0075677D02*
X0130500Y0075677D01*
X0130500Y0076476D02*
X0007700Y0076476D01*
X0007700Y0077274D02*
X0130500Y0077274D01*
X0130500Y0078073D02*
X0007700Y0078073D01*
X0007700Y0078871D02*
X0130500Y0078871D01*
X0130500Y0079670D02*
X0103026Y0079670D01*
X0104599Y0080468D02*
X0130500Y0080468D01*
X0130500Y0081267D02*
X0105398Y0081267D01*
X0105856Y0082065D02*
X0130500Y0082065D01*
X0130500Y0082864D02*
X0106186Y0082864D01*
X0106300Y0083662D02*
X0130500Y0083662D01*
X0130500Y0084461D02*
X0106300Y0084461D01*
X0106163Y0085260D02*
X0130500Y0085260D01*
X0130500Y0086058D02*
X0105832Y0086058D01*
X0105340Y0086857D02*
X0130500Y0086857D01*
X0130500Y0087655D02*
X0104542Y0087655D01*
X0099058Y0087655D02*
X0094542Y0087655D01*
X0095340Y0086857D02*
X0098260Y0086857D01*
X0097768Y0086058D02*
X0095832Y0086058D01*
X0096163Y0085260D02*
X0097437Y0085260D01*
X0097300Y0084461D02*
X0096300Y0084461D01*
X0096300Y0083662D02*
X0097300Y0083662D01*
X0097413Y0082864D02*
X0096186Y0082864D01*
X0095856Y0082065D02*
X0097744Y0082065D01*
X0098202Y0081267D02*
X0095398Y0081267D01*
X0094599Y0080468D02*
X0099001Y0080468D01*
X0100574Y0079670D02*
X0093026Y0079670D01*
X0090574Y0079670D02*
X0083026Y0079670D01*
X0084599Y0080468D02*
X0089001Y0080468D01*
X0088202Y0081267D02*
X0085398Y0081267D01*
X0085856Y0082065D02*
X0087744Y0082065D01*
X0087413Y0082864D02*
X0086186Y0082864D01*
X0086300Y0083662D02*
X0087300Y0083662D01*
X0087300Y0084461D02*
X0086300Y0084461D01*
X0086163Y0085260D02*
X0087437Y0085260D01*
X0087768Y0086058D02*
X0085832Y0086058D01*
X0085340Y0086857D02*
X0088260Y0086857D01*
X0089058Y0087655D02*
X0084542Y0087655D01*
X0079058Y0087655D02*
X0074542Y0087655D01*
X0075340Y0086857D02*
X0078260Y0086857D01*
X0077768Y0086058D02*
X0075832Y0086058D01*
X0076163Y0085260D02*
X0077437Y0085260D01*
X0077300Y0084461D02*
X0076300Y0084461D01*
X0076300Y0083662D02*
X0077300Y0083662D01*
X0077413Y0082864D02*
X0076186Y0082864D01*
X0075856Y0082065D02*
X0077744Y0082065D01*
X0078202Y0081267D02*
X0075398Y0081267D01*
X0074599Y0080468D02*
X0079001Y0080468D01*
X0080574Y0079670D02*
X0073026Y0079670D01*
X0070574Y0079670D02*
X0063026Y0079670D01*
X0064599Y0080468D02*
X0069001Y0080468D01*
X0068202Y0081267D02*
X0065398Y0081267D01*
X0065856Y0082065D02*
X0067744Y0082065D01*
X0067413Y0082864D02*
X0066186Y0082864D01*
X0066300Y0083662D02*
X0067300Y0083662D01*
X0067300Y0084461D02*
X0066300Y0084461D01*
X0066163Y0085260D02*
X0067437Y0085260D01*
X0067768Y0086058D02*
X0065832Y0086058D01*
X0065340Y0086857D02*
X0068260Y0086857D01*
X0069058Y0087655D02*
X0064542Y0087655D01*
X0059058Y0087655D02*
X0054542Y0087655D01*
X0055340Y0086857D02*
X0058260Y0086857D01*
X0057768Y0086058D02*
X0055832Y0086058D01*
X0056163Y0085260D02*
X0057437Y0085260D01*
X0057300Y0084461D02*
X0056300Y0084461D01*
X0056300Y0083662D02*
X0057300Y0083662D01*
X0057413Y0082864D02*
X0056186Y0082864D01*
X0055856Y0082065D02*
X0057744Y0082065D01*
X0058202Y0081267D02*
X0055398Y0081267D01*
X0054599Y0080468D02*
X0059001Y0080468D01*
X0060574Y0079670D02*
X0053026Y0079670D01*
X0050574Y0079670D02*
X0043026Y0079670D01*
X0044599Y0080468D02*
X0049001Y0080468D01*
X0048202Y0081267D02*
X0045398Y0081267D01*
X0045856Y0082065D02*
X0047744Y0082065D01*
X0047413Y0082864D02*
X0046186Y0082864D01*
X0046300Y0083662D02*
X0047300Y0083662D01*
X0047300Y0084461D02*
X0046300Y0084461D01*
X0046163Y0085260D02*
X0047437Y0085260D01*
X0047768Y0086058D02*
X0045832Y0086058D01*
X0045340Y0086857D02*
X0048260Y0086857D01*
X0049058Y0087655D02*
X0044542Y0087655D01*
X0039058Y0087655D02*
X0034542Y0087655D01*
X0035340Y0086857D02*
X0038260Y0086857D01*
X0037768Y0086058D02*
X0035832Y0086058D01*
X0036163Y0085260D02*
X0037437Y0085260D01*
X0037300Y0084461D02*
X0036300Y0084461D01*
X0036300Y0083662D02*
X0037300Y0083662D01*
X0037413Y0082864D02*
X0036186Y0082864D01*
X0035856Y0082065D02*
X0037744Y0082065D01*
X0038202Y0081267D02*
X0035398Y0081267D01*
X0034599Y0080468D02*
X0039001Y0080468D01*
X0040574Y0079670D02*
X0033026Y0079670D01*
X0030574Y0079670D02*
X0024030Y0079670D01*
X0025165Y0080468D02*
X0029001Y0080468D01*
X0028202Y0081267D02*
X0025847Y0081267D01*
X0026297Y0082065D02*
X0027744Y0082065D01*
X0027413Y0082864D02*
X0026572Y0082864D01*
X0027300Y0083662D02*
X0022200Y0083662D01*
X0022200Y0082864D02*
X0021400Y0082864D01*
X0021400Y0083662D02*
X0016300Y0083662D01*
X0016300Y0084461D02*
X0016907Y0084461D01*
X0017046Y0085260D02*
X0016163Y0085260D01*
X0015832Y0086058D02*
X0017332Y0086058D01*
X0017795Y0086857D02*
X0015340Y0086857D01*
X0014542Y0087655D02*
X0018492Y0087655D01*
X0025108Y0087655D02*
X0029058Y0087655D01*
X0028260Y0086857D02*
X0025805Y0086857D01*
X0026268Y0086058D02*
X0027768Y0086058D01*
X0027437Y0085260D02*
X0026554Y0085260D01*
X0026693Y0084461D02*
X0027300Y0084461D01*
X0022200Y0082065D02*
X0021400Y0082065D01*
X0021400Y0081267D02*
X0022200Y0081267D01*
X0022200Y0080468D02*
X0021400Y0080468D01*
X0021400Y0079670D02*
X0022200Y0079670D01*
X0019570Y0079670D02*
X0013026Y0079670D01*
X0014599Y0080468D02*
X0018435Y0080468D01*
X0017753Y0081267D02*
X0015398Y0081267D01*
X0015856Y0082065D02*
X0017303Y0082065D01*
X0017028Y0082864D02*
X0016186Y0082864D01*
X0010574Y0079670D02*
X0007700Y0079670D01*
X0007700Y0080468D02*
X0009001Y0080468D01*
X0008202Y0081267D02*
X0007700Y0081267D01*
X0007700Y0082065D02*
X0007744Y0082065D01*
X0007700Y0069289D02*
X0019647Y0069289D01*
X0018581Y0068491D02*
X0007700Y0068491D01*
X0007700Y0067692D02*
X0017978Y0067692D01*
X0017642Y0066894D02*
X0007700Y0066894D01*
X0021013Y0066894D02*
X0021787Y0066894D01*
X0021787Y0067692D02*
X0021013Y0067692D01*
X0021013Y0068491D02*
X0021787Y0068491D01*
X0021787Y0069289D02*
X0021013Y0069289D01*
X0021013Y0065297D02*
X0021787Y0065297D01*
X0021787Y0064498D02*
X0021013Y0064498D01*
X0021013Y0063700D02*
X0021787Y0063700D01*
X0021787Y0062901D02*
X0021013Y0062901D01*
X0021013Y0062103D02*
X0021787Y0062103D01*
X0020156Y0053319D02*
X0007700Y0053319D01*
X0007700Y0052521D02*
X0018925Y0052521D01*
X0018306Y0051722D02*
X0007700Y0051722D01*
X0007700Y0050924D02*
X0017975Y0050924D01*
X0017900Y0050125D02*
X0007700Y0050125D01*
X0007700Y0049327D02*
X0017910Y0049327D01*
X0018240Y0048528D02*
X0007700Y0048528D01*
X0007700Y0047729D02*
X0018767Y0047729D01*
X0019775Y0046931D02*
X0007700Y0046931D01*
X0007700Y0046132D02*
X0053334Y0046132D01*
X0058092Y0045334D02*
X0078148Y0045334D01*
X0077900Y0044535D02*
X0058891Y0044535D01*
X0059689Y0043737D02*
X0077900Y0043737D01*
X0077900Y0042938D02*
X0060488Y0042938D01*
X0061286Y0042140D02*
X0077900Y0042140D01*
X0077900Y0041341D02*
X0062085Y0041341D01*
X0062883Y0040543D02*
X0077900Y0040543D01*
X0077900Y0039744D02*
X0063200Y0039744D01*
X0063200Y0038946D02*
X0078212Y0038946D01*
X0084652Y0045334D02*
X0101402Y0045334D01*
X0107091Y0042938D02*
X0130500Y0042938D01*
X0130500Y0042140D02*
X0107890Y0042140D01*
X0108510Y0041341D02*
X0130500Y0041341D01*
X0130500Y0040543D02*
X0108841Y0040543D01*
X0109100Y0039744D02*
X0130500Y0039744D01*
X0130500Y0038946D02*
X0109100Y0038946D01*
X0109100Y0038147D02*
X0130500Y0038147D01*
X0130500Y0037349D02*
X0108810Y0037349D01*
X0108480Y0036550D02*
X0130500Y0036550D01*
X0130500Y0035752D02*
X0107816Y0035752D01*
X0106953Y0034953D02*
X0130500Y0034953D01*
X0113900Y0058483D02*
X0104400Y0048983D01*
X0106863Y0054916D02*
X0108353Y0054916D01*
X0107778Y0055715D02*
X0109152Y0055715D01*
X0108464Y0056513D02*
X0109950Y0056513D01*
X0110749Y0057312D02*
X0108795Y0057312D01*
X0109100Y0058110D02*
X0111547Y0058110D01*
X0112346Y0058909D02*
X0109100Y0058909D01*
X0109100Y0059707D02*
X0112500Y0059707D01*
X0112500Y0060506D02*
X0108857Y0060506D01*
X0108526Y0061304D02*
X0112500Y0061304D01*
X0112500Y0062103D02*
X0107927Y0062103D01*
X0107129Y0062901D02*
X0112500Y0062901D01*
X0104800Y0064498D02*
X0104000Y0064498D01*
X0104000Y0065297D02*
X0104800Y0065297D01*
X0104800Y0066095D02*
X0104000Y0066095D01*
X0104000Y0066894D02*
X0104800Y0066894D01*
X0104800Y0067692D02*
X0104000Y0067692D01*
X0109389Y0070088D02*
X0112500Y0070088D01*
X0112500Y0070886D02*
X0109144Y0070886D01*
X0108741Y0071685D02*
X0112411Y0071685D01*
X0112000Y0072483D02*
X0108112Y0072483D01*
X0107160Y0073282D02*
X0112000Y0073282D01*
X0112410Y0074080D02*
X0104818Y0074080D01*
X0113900Y0072883D02*
X0113900Y0058483D01*
X0089296Y0027767D02*
X0084304Y0027767D01*
X0085129Y0026968D02*
X0088471Y0026968D01*
X0087856Y0026170D02*
X0085744Y0026170D01*
X0086075Y0025371D02*
X0087525Y0025371D01*
X0087300Y0024573D02*
X0086300Y0024573D01*
X0086300Y0023774D02*
X0087300Y0023774D01*
X0087326Y0022976D02*
X0086274Y0022976D01*
X0085943Y0022177D02*
X0087657Y0022177D01*
X0087990Y0021379D02*
X0085609Y0021379D01*
X0084811Y0020580D02*
X0088789Y0020580D01*
X0078789Y0020580D02*
X0074811Y0020580D01*
X0075609Y0021379D02*
X0077990Y0021379D01*
X0077657Y0022177D02*
X0075943Y0022177D01*
X0076274Y0022976D02*
X0077326Y0022976D01*
X0077300Y0023774D02*
X0076300Y0023774D01*
X0076300Y0024573D02*
X0077300Y0024573D01*
X0077525Y0025371D02*
X0076075Y0025371D01*
X0075744Y0026170D02*
X0077856Y0026170D01*
X0078471Y0026968D02*
X0075129Y0026968D01*
X0074304Y0027767D02*
X0079296Y0027767D01*
X0067990Y0021379D02*
X0065609Y0021379D01*
X0064811Y0020580D02*
X0068789Y0020580D01*
X0051800Y0023933D02*
X0051800Y0041772D01*
X0051400Y0042172D01*
X0049296Y0027767D02*
X0044304Y0027767D01*
X0045129Y0026968D02*
X0048471Y0026968D01*
X0047856Y0026170D02*
X0045744Y0026170D01*
X0046075Y0025371D02*
X0047525Y0025371D01*
X0047300Y0024573D02*
X0046300Y0024573D01*
X0046300Y0023774D02*
X0047300Y0023774D01*
X0047326Y0022976D02*
X0046274Y0022976D01*
X0045943Y0022177D02*
X0047657Y0022177D01*
X0047990Y0021379D02*
X0045609Y0021379D01*
X0044811Y0020580D02*
X0048789Y0020580D01*
X0038789Y0020580D02*
X0034811Y0020580D01*
X0035609Y0021379D02*
X0037990Y0021379D01*
X0037657Y0022177D02*
X0035943Y0022177D01*
X0036274Y0022976D02*
X0037326Y0022976D01*
X0037300Y0023774D02*
X0036300Y0023774D01*
X0036300Y0024573D02*
X0037300Y0024573D01*
X0037525Y0025371D02*
X0036075Y0025371D01*
X0035744Y0026170D02*
X0037856Y0026170D01*
X0038471Y0026968D02*
X0035129Y0026968D01*
X0034304Y0027767D02*
X0039296Y0027767D01*
X0018212Y0038946D02*
X0007700Y0038946D01*
X0007700Y0039744D02*
X0017900Y0039744D01*
X0017900Y0040543D02*
X0007700Y0040543D01*
X0007700Y0041341D02*
X0017900Y0041341D01*
X0017900Y0042140D02*
X0007700Y0042140D01*
X0007700Y0042938D02*
X0017900Y0042938D01*
X0017900Y0043737D02*
X0007700Y0043737D01*
X0007700Y0044535D02*
X0017900Y0044535D01*
X0018148Y0045334D02*
X0007700Y0045334D01*
D15*
X0015300Y0044383D03*
X0015300Y0036883D03*
X0035300Y0036883D03*
X0037800Y0044383D03*
X0032800Y0054383D03*
X0015300Y0054383D03*
X0062800Y0054383D03*
X0067800Y0044383D03*
X0092800Y0044383D03*
X0107800Y0044383D03*
X0092800Y0054383D03*
X0113900Y0072883D03*
M02*
