G75*
%MOIN*%
%OFA0B0*%
%FSLAX25Y25*%
%IPPOS*%
%LPD*%
%AMOC8*
5,1,8,0,0,1.08239X$1,22.5*
%
%ADD10C,0.07800*%
%ADD11R,0.05800X0.05800*%
%ADD12C,0.05800*%
%ADD13C,0.08200*%
%ADD14R,0.03950X0.03950*%
%ADD15R,0.04800X0.03300*%
%ADD16R,0.01400X0.01000*%
D10*
X0011800Y0023933D03*
X0021800Y0023933D03*
X0031800Y0023933D03*
X0041800Y0023933D03*
X0051800Y0023933D03*
X0061800Y0023933D03*
X0071800Y0023933D03*
X0081800Y0023933D03*
X0091800Y0023933D03*
X0101800Y0023933D03*
X0101800Y0084033D03*
X0091800Y0084033D03*
X0081800Y0084033D03*
X0071800Y0084033D03*
X0061800Y0084033D03*
X0051800Y0084033D03*
X0041800Y0084033D03*
X0031800Y0084033D03*
X0021800Y0084033D03*
X0011800Y0084033D03*
D11*
X0021400Y0042172D03*
X0051400Y0042172D03*
X0081400Y0042172D03*
D12*
X0081400Y0050046D03*
X0081400Y0057920D03*
X0081400Y0065794D03*
X0051400Y0065794D03*
X0051400Y0057920D03*
X0051400Y0050046D03*
X0021400Y0050046D03*
X0021400Y0057920D03*
X0021400Y0065794D03*
D13*
X0104400Y0068983D03*
X0104400Y0058983D03*
X0104400Y0048983D03*
X0104400Y0038983D03*
D14*
X0113900Y0031983D03*
X0113900Y0025983D03*
X0113900Y0075983D03*
X0113900Y0081983D03*
D15*
X0121400Y0080983D03*
X0121400Y0076983D03*
X0121400Y0030983D03*
X0121400Y0026983D03*
D16*
X0121400Y0028983D03*
X0121400Y0078983D03*
M02*
