%
M48
M72
T01C0.04000
T02C0.10000
%
T01
X16800Y483502
X26800Y483502
X36800Y483502
X46800Y483502
X56800Y483502
X66800Y483502
X76800Y483502
X86800Y483502
X96800Y483502
X106800Y483502
X106800Y543502
X106800Y568502
X96800Y568502
X96800Y543502
X86800Y543502
X86800Y568502
X76800Y568502
X76800Y543502
X66800Y543502
X66800Y568502
X56800Y568502
X56800Y543502
X46800Y543502
X46800Y568502
X36800Y568502
X36800Y543502
X26800Y543502
X26800Y568502
X16800Y568502
X16800Y543502
X16800Y628502
X26800Y628502
X36800Y628502
X46800Y628502
X56800Y628502
X66800Y628502
X76800Y628502
X86800Y628502
X96800Y628502
X106800Y628502
X106800Y653502
X96800Y653502
X86800Y653502
X76800Y653502
X66800Y653502
X56800Y653502
X46800Y653502
X36800Y653502
X26800Y653502
X16800Y653502
X16800Y713502
X26800Y713502
X36800Y713502
X46800Y713502
X56800Y713502
X66800Y713502
X76800Y713502
X86800Y713502
X96800Y713502
X106800Y713502
T02
X16400Y466002
X16400Y731002
X126400Y731002
X126400Y466002
M30
