G75*
%MOIN*%
%OFA0B0*%
%FSLAX25Y25*%
%IPPOS*%
%LPD*%
%AMOC8*
5,1,8,0,0,1.08239X$1,22.5*
%
%ADD10C,0.00300*%
D10*
X0017538Y0475352D02*
X0018704Y0475352D01*
X0018760Y0475354D01*
X0018815Y0475360D01*
X0018869Y0475370D01*
X0018923Y0475384D01*
X0018976Y0475401D01*
X0019027Y0475422D01*
X0019077Y0475447D01*
X0019125Y0475476D01*
X0019170Y0475507D01*
X0019213Y0475542D01*
X0019254Y0475580D01*
X0019292Y0475621D01*
X0019327Y0475664D01*
X0019358Y0475709D01*
X0019387Y0475757D01*
X0019412Y0475807D01*
X0019433Y0475858D01*
X0019450Y0475911D01*
X0019464Y0475965D01*
X0019474Y0476019D01*
X0019480Y0476074D01*
X0019482Y0476130D01*
X0019480Y0476186D01*
X0019474Y0476241D01*
X0019464Y0476295D01*
X0019450Y0476349D01*
X0019433Y0476402D01*
X0019412Y0476453D01*
X0019387Y0476503D01*
X0019358Y0476551D01*
X0019327Y0476596D01*
X0019292Y0476639D01*
X0019254Y0476680D01*
X0019213Y0476718D01*
X0019170Y0476753D01*
X0019125Y0476784D01*
X0019077Y0476813D01*
X0019027Y0476838D01*
X0018976Y0476859D01*
X0018923Y0476876D01*
X0018869Y0476890D01*
X0018815Y0476900D01*
X0018760Y0476906D01*
X0018704Y0476908D01*
X0017927Y0476908D01*
X0018510Y0476908D02*
X0018571Y0476910D01*
X0018632Y0476916D01*
X0018692Y0476925D01*
X0018752Y0476939D01*
X0018810Y0476956D01*
X0018868Y0476976D01*
X0018924Y0477001D01*
X0018978Y0477028D01*
X0019031Y0477059D01*
X0019081Y0477094D01*
X0019130Y0477131D01*
X0019175Y0477171D01*
X0019219Y0477215D01*
X0019259Y0477260D01*
X0019296Y0477309D01*
X0019331Y0477359D01*
X0019362Y0477412D01*
X0019389Y0477466D01*
X0019414Y0477522D01*
X0019434Y0477580D01*
X0019451Y0477638D01*
X0019465Y0477698D01*
X0019474Y0477758D01*
X0019480Y0477819D01*
X0019482Y0477880D01*
X0019480Y0477941D01*
X0019474Y0478002D01*
X0019465Y0478062D01*
X0019451Y0478122D01*
X0019434Y0478180D01*
X0019414Y0478238D01*
X0019389Y0478294D01*
X0019362Y0478348D01*
X0019331Y0478401D01*
X0019296Y0478451D01*
X0019259Y0478500D01*
X0019219Y0478545D01*
X0019175Y0478589D01*
X0019130Y0478629D01*
X0019081Y0478666D01*
X0019031Y0478701D01*
X0018978Y0478732D01*
X0018924Y0478759D01*
X0018868Y0478784D01*
X0018810Y0478804D01*
X0018752Y0478821D01*
X0018692Y0478835D01*
X0018632Y0478844D01*
X0018571Y0478850D01*
X0018510Y0478852D01*
X0017538Y0478852D01*
X0016062Y0478852D02*
X0014118Y0478852D01*
X0015771Y0476908D01*
X0015187Y0475352D02*
X0015123Y0475354D01*
X0015059Y0475359D01*
X0014995Y0475368D01*
X0014932Y0475381D01*
X0014870Y0475398D01*
X0014809Y0475417D01*
X0014749Y0475441D01*
X0014691Y0475467D01*
X0014634Y0475497D01*
X0014579Y0475531D01*
X0014526Y0475567D01*
X0014475Y0475606D01*
X0014427Y0475648D01*
X0014380Y0475693D01*
X0014337Y0475740D01*
X0014296Y0475790D01*
X0014259Y0475842D01*
X0014224Y0475896D01*
X0014192Y0475952D01*
X0014164Y0476010D01*
X0014139Y0476069D01*
X0014118Y0476130D01*
X0015770Y0476908D02*
X0015811Y0476866D01*
X0015850Y0476822D01*
X0015885Y0476775D01*
X0015918Y0476727D01*
X0015948Y0476676D01*
X0015974Y0476624D01*
X0015997Y0476570D01*
X0016017Y0476515D01*
X0016033Y0476459D01*
X0016046Y0476402D01*
X0016055Y0476344D01*
X0016060Y0476286D01*
X0016062Y0476227D01*
X0016060Y0476170D01*
X0016055Y0476113D01*
X0016045Y0476056D01*
X0016032Y0476001D01*
X0016016Y0475946D01*
X0015995Y0475892D01*
X0015972Y0475840D01*
X0015945Y0475790D01*
X0015915Y0475741D01*
X0015881Y0475694D01*
X0015845Y0475650D01*
X0015806Y0475608D01*
X0015764Y0475569D01*
X0015720Y0475533D01*
X0015673Y0475499D01*
X0015625Y0475469D01*
X0015574Y0475442D01*
X0015522Y0475419D01*
X0015468Y0475398D01*
X0015413Y0475382D01*
X0015358Y0475369D01*
X0015301Y0475359D01*
X0015244Y0475354D01*
X0015187Y0475352D01*
X0024118Y0476130D02*
X0025090Y0475352D01*
X0025090Y0478852D01*
X0024118Y0478852D02*
X0026062Y0478852D01*
X0027927Y0478852D02*
X0028003Y0478850D01*
X0028080Y0478845D01*
X0028155Y0478835D01*
X0028231Y0478822D01*
X0028305Y0478805D01*
X0028379Y0478785D01*
X0028451Y0478761D01*
X0028522Y0478734D01*
X0028592Y0478703D01*
X0028660Y0478668D01*
X0028727Y0478631D01*
X0028791Y0478590D01*
X0028854Y0478546D01*
X0028914Y0478499D01*
X0028972Y0478449D01*
X0029027Y0478396D01*
X0029080Y0478341D01*
X0029130Y0478283D01*
X0029177Y0478223D01*
X0029221Y0478160D01*
X0029262Y0478096D01*
X0029299Y0478029D01*
X0029334Y0477961D01*
X0029365Y0477891D01*
X0029392Y0477820D01*
X0029416Y0477748D01*
X0029436Y0477674D01*
X0029453Y0477600D01*
X0029466Y0477524D01*
X0029476Y0477449D01*
X0029481Y0477372D01*
X0029483Y0477296D01*
X0029482Y0477296D02*
X0029482Y0476324D01*
X0029480Y0476263D01*
X0029474Y0476202D01*
X0029465Y0476142D01*
X0029451Y0476082D01*
X0029434Y0476024D01*
X0029414Y0475966D01*
X0029389Y0475910D01*
X0029362Y0475856D01*
X0029331Y0475803D01*
X0029296Y0475753D01*
X0029259Y0475704D01*
X0029219Y0475659D01*
X0029175Y0475615D01*
X0029130Y0475575D01*
X0029081Y0475538D01*
X0029031Y0475503D01*
X0028978Y0475472D01*
X0028924Y0475445D01*
X0028868Y0475420D01*
X0028810Y0475400D01*
X0028752Y0475383D01*
X0028692Y0475369D01*
X0028632Y0475360D01*
X0028571Y0475354D01*
X0028510Y0475352D01*
X0028449Y0475354D01*
X0028388Y0475360D01*
X0028328Y0475369D01*
X0028268Y0475383D01*
X0028210Y0475400D01*
X0028152Y0475420D01*
X0028096Y0475445D01*
X0028042Y0475472D01*
X0027989Y0475503D01*
X0027939Y0475538D01*
X0027890Y0475575D01*
X0027845Y0475615D01*
X0027801Y0475659D01*
X0027761Y0475704D01*
X0027724Y0475753D01*
X0027689Y0475803D01*
X0027658Y0475856D01*
X0027631Y0475910D01*
X0027606Y0475966D01*
X0027586Y0476024D01*
X0027569Y0476082D01*
X0027555Y0476142D01*
X0027546Y0476202D01*
X0027540Y0476263D01*
X0027538Y0476324D01*
X0027538Y0476519D01*
X0027540Y0476575D01*
X0027546Y0476630D01*
X0027556Y0476684D01*
X0027570Y0476738D01*
X0027587Y0476791D01*
X0027608Y0476842D01*
X0027633Y0476892D01*
X0027662Y0476940D01*
X0027693Y0476985D01*
X0027728Y0477028D01*
X0027766Y0477069D01*
X0027807Y0477107D01*
X0027850Y0477142D01*
X0027895Y0477173D01*
X0027943Y0477202D01*
X0027993Y0477227D01*
X0028044Y0477248D01*
X0028097Y0477265D01*
X0028151Y0477279D01*
X0028205Y0477289D01*
X0028260Y0477295D01*
X0028316Y0477297D01*
X0028316Y0477296D02*
X0029482Y0477296D01*
X0034118Y0476130D02*
X0035090Y0475352D01*
X0035090Y0478852D01*
X0034118Y0478852D02*
X0036062Y0478852D01*
X0037538Y0477880D02*
X0037540Y0477941D01*
X0037546Y0478002D01*
X0037555Y0478062D01*
X0037569Y0478122D01*
X0037586Y0478180D01*
X0037606Y0478238D01*
X0037631Y0478294D01*
X0037658Y0478348D01*
X0037689Y0478401D01*
X0037724Y0478451D01*
X0037761Y0478500D01*
X0037801Y0478545D01*
X0037845Y0478589D01*
X0037890Y0478629D01*
X0037939Y0478666D01*
X0037989Y0478701D01*
X0038042Y0478732D01*
X0038096Y0478759D01*
X0038152Y0478784D01*
X0038210Y0478804D01*
X0038268Y0478821D01*
X0038328Y0478835D01*
X0038388Y0478844D01*
X0038449Y0478850D01*
X0038510Y0478852D01*
X0038571Y0478850D01*
X0038632Y0478844D01*
X0038692Y0478835D01*
X0038752Y0478821D01*
X0038810Y0478804D01*
X0038868Y0478784D01*
X0038924Y0478759D01*
X0038978Y0478732D01*
X0039031Y0478701D01*
X0039081Y0478666D01*
X0039130Y0478629D01*
X0039175Y0478589D01*
X0039219Y0478545D01*
X0039259Y0478500D01*
X0039296Y0478451D01*
X0039331Y0478401D01*
X0039362Y0478348D01*
X0039389Y0478294D01*
X0039414Y0478238D01*
X0039434Y0478180D01*
X0039451Y0478122D01*
X0039465Y0478062D01*
X0039474Y0478002D01*
X0039480Y0477941D01*
X0039482Y0477880D01*
X0039480Y0477819D01*
X0039474Y0477758D01*
X0039465Y0477698D01*
X0039451Y0477638D01*
X0039434Y0477580D01*
X0039414Y0477522D01*
X0039389Y0477466D01*
X0039362Y0477412D01*
X0039331Y0477359D01*
X0039296Y0477309D01*
X0039259Y0477260D01*
X0039219Y0477215D01*
X0039175Y0477171D01*
X0039130Y0477131D01*
X0039081Y0477094D01*
X0039031Y0477059D01*
X0038978Y0477028D01*
X0038924Y0477001D01*
X0038868Y0476976D01*
X0038810Y0476956D01*
X0038752Y0476939D01*
X0038692Y0476925D01*
X0038632Y0476916D01*
X0038571Y0476910D01*
X0038510Y0476908D01*
X0038449Y0476910D01*
X0038388Y0476916D01*
X0038328Y0476925D01*
X0038268Y0476939D01*
X0038210Y0476956D01*
X0038152Y0476976D01*
X0038096Y0477001D01*
X0038042Y0477028D01*
X0037989Y0477059D01*
X0037939Y0477094D01*
X0037890Y0477131D01*
X0037845Y0477171D01*
X0037801Y0477215D01*
X0037761Y0477260D01*
X0037724Y0477309D01*
X0037689Y0477359D01*
X0037658Y0477412D01*
X0037631Y0477466D01*
X0037606Y0477522D01*
X0037586Y0477580D01*
X0037569Y0477638D01*
X0037555Y0477698D01*
X0037546Y0477758D01*
X0037540Y0477819D01*
X0037538Y0477880D01*
X0037732Y0476130D02*
X0037734Y0476186D01*
X0037740Y0476241D01*
X0037750Y0476295D01*
X0037764Y0476349D01*
X0037781Y0476402D01*
X0037802Y0476453D01*
X0037827Y0476503D01*
X0037856Y0476551D01*
X0037887Y0476596D01*
X0037922Y0476639D01*
X0037960Y0476680D01*
X0038001Y0476718D01*
X0038044Y0476753D01*
X0038089Y0476784D01*
X0038137Y0476813D01*
X0038187Y0476838D01*
X0038238Y0476859D01*
X0038291Y0476876D01*
X0038345Y0476890D01*
X0038399Y0476900D01*
X0038454Y0476906D01*
X0038510Y0476908D01*
X0038566Y0476906D01*
X0038621Y0476900D01*
X0038675Y0476890D01*
X0038729Y0476876D01*
X0038782Y0476859D01*
X0038833Y0476838D01*
X0038883Y0476813D01*
X0038931Y0476784D01*
X0038976Y0476753D01*
X0039019Y0476718D01*
X0039060Y0476680D01*
X0039098Y0476639D01*
X0039133Y0476596D01*
X0039164Y0476551D01*
X0039193Y0476503D01*
X0039218Y0476453D01*
X0039239Y0476402D01*
X0039256Y0476349D01*
X0039270Y0476295D01*
X0039280Y0476241D01*
X0039286Y0476186D01*
X0039288Y0476130D01*
X0039286Y0476074D01*
X0039280Y0476019D01*
X0039270Y0475965D01*
X0039256Y0475911D01*
X0039239Y0475858D01*
X0039218Y0475807D01*
X0039193Y0475757D01*
X0039164Y0475709D01*
X0039133Y0475664D01*
X0039098Y0475621D01*
X0039060Y0475580D01*
X0039019Y0475542D01*
X0038976Y0475507D01*
X0038931Y0475476D01*
X0038883Y0475447D01*
X0038833Y0475422D01*
X0038782Y0475401D01*
X0038729Y0475384D01*
X0038675Y0475370D01*
X0038621Y0475360D01*
X0038566Y0475354D01*
X0038510Y0475352D01*
X0038454Y0475354D01*
X0038399Y0475360D01*
X0038345Y0475370D01*
X0038291Y0475384D01*
X0038238Y0475401D01*
X0038187Y0475422D01*
X0038137Y0475447D01*
X0038089Y0475476D01*
X0038044Y0475507D01*
X0038001Y0475542D01*
X0037960Y0475580D01*
X0037922Y0475621D01*
X0037887Y0475664D01*
X0037856Y0475709D01*
X0037827Y0475757D01*
X0037802Y0475807D01*
X0037781Y0475858D01*
X0037764Y0475911D01*
X0037750Y0475965D01*
X0037740Y0476019D01*
X0037734Y0476074D01*
X0037732Y0476130D01*
X0045828Y0476908D02*
X0045828Y0475352D01*
X0047772Y0475352D01*
X0046994Y0476908D02*
X0045828Y0476908D01*
X0046994Y0476907D02*
X0047050Y0476909D01*
X0047105Y0476915D01*
X0047159Y0476925D01*
X0047213Y0476939D01*
X0047266Y0476956D01*
X0047317Y0476977D01*
X0047367Y0477002D01*
X0047415Y0477031D01*
X0047460Y0477062D01*
X0047503Y0477097D01*
X0047544Y0477135D01*
X0047582Y0477176D01*
X0047617Y0477219D01*
X0047648Y0477264D01*
X0047677Y0477312D01*
X0047702Y0477362D01*
X0047723Y0477413D01*
X0047740Y0477466D01*
X0047754Y0477520D01*
X0047764Y0477574D01*
X0047770Y0477629D01*
X0047772Y0477685D01*
X0047772Y0478074D01*
X0047770Y0478130D01*
X0047764Y0478185D01*
X0047754Y0478239D01*
X0047740Y0478293D01*
X0047723Y0478346D01*
X0047702Y0478397D01*
X0047677Y0478447D01*
X0047648Y0478495D01*
X0047617Y0478540D01*
X0047582Y0478583D01*
X0047544Y0478624D01*
X0047503Y0478662D01*
X0047460Y0478697D01*
X0047415Y0478729D01*
X0047367Y0478757D01*
X0047317Y0478782D01*
X0047266Y0478803D01*
X0047213Y0478820D01*
X0047159Y0478834D01*
X0047105Y0478844D01*
X0047050Y0478850D01*
X0046994Y0478852D01*
X0045828Y0478852D01*
X0054118Y0478852D02*
X0056062Y0478852D01*
X0057538Y0478852D02*
X0059482Y0478852D01*
X0057538Y0478852D02*
X0059191Y0476908D01*
X0058607Y0475352D02*
X0058543Y0475354D01*
X0058479Y0475359D01*
X0058415Y0475368D01*
X0058352Y0475381D01*
X0058290Y0475398D01*
X0058229Y0475417D01*
X0058169Y0475441D01*
X0058111Y0475467D01*
X0058054Y0475497D01*
X0057999Y0475531D01*
X0057946Y0475567D01*
X0057895Y0475606D01*
X0057847Y0475648D01*
X0057800Y0475693D01*
X0057757Y0475740D01*
X0057716Y0475790D01*
X0057679Y0475842D01*
X0057644Y0475896D01*
X0057612Y0475952D01*
X0057584Y0476010D01*
X0057559Y0476069D01*
X0057538Y0476130D01*
X0059190Y0476908D02*
X0059231Y0476866D01*
X0059270Y0476822D01*
X0059305Y0476775D01*
X0059338Y0476727D01*
X0059368Y0476676D01*
X0059394Y0476624D01*
X0059417Y0476570D01*
X0059437Y0476515D01*
X0059453Y0476459D01*
X0059466Y0476402D01*
X0059475Y0476344D01*
X0059480Y0476286D01*
X0059482Y0476227D01*
X0059480Y0476170D01*
X0059475Y0476113D01*
X0059465Y0476056D01*
X0059452Y0476001D01*
X0059436Y0475946D01*
X0059415Y0475892D01*
X0059392Y0475840D01*
X0059365Y0475790D01*
X0059335Y0475741D01*
X0059301Y0475694D01*
X0059265Y0475650D01*
X0059226Y0475608D01*
X0059184Y0475569D01*
X0059140Y0475533D01*
X0059093Y0475499D01*
X0059045Y0475469D01*
X0058994Y0475442D01*
X0058942Y0475419D01*
X0058888Y0475398D01*
X0058833Y0475382D01*
X0058778Y0475369D01*
X0058721Y0475359D01*
X0058664Y0475354D01*
X0058607Y0475352D01*
X0055771Y0476908D02*
X0054118Y0478852D01*
X0054118Y0476130D02*
X0054139Y0476069D01*
X0054164Y0476010D01*
X0054192Y0475952D01*
X0054224Y0475896D01*
X0054259Y0475842D01*
X0054296Y0475790D01*
X0054337Y0475740D01*
X0054380Y0475693D01*
X0054427Y0475648D01*
X0054475Y0475606D01*
X0054526Y0475567D01*
X0054579Y0475531D01*
X0054634Y0475497D01*
X0054691Y0475467D01*
X0054749Y0475441D01*
X0054809Y0475417D01*
X0054870Y0475398D01*
X0054932Y0475381D01*
X0054995Y0475368D01*
X0055059Y0475359D01*
X0055123Y0475354D01*
X0055187Y0475352D01*
X0055244Y0475354D01*
X0055301Y0475359D01*
X0055358Y0475369D01*
X0055413Y0475382D01*
X0055468Y0475398D01*
X0055522Y0475419D01*
X0055574Y0475442D01*
X0055625Y0475469D01*
X0055673Y0475499D01*
X0055720Y0475533D01*
X0055764Y0475569D01*
X0055806Y0475608D01*
X0055845Y0475650D01*
X0055881Y0475694D01*
X0055915Y0475741D01*
X0055945Y0475790D01*
X0055972Y0475840D01*
X0055995Y0475892D01*
X0056016Y0475946D01*
X0056032Y0476001D01*
X0056045Y0476056D01*
X0056055Y0476113D01*
X0056060Y0476170D01*
X0056062Y0476227D01*
X0056060Y0476286D01*
X0056055Y0476344D01*
X0056046Y0476402D01*
X0056033Y0476459D01*
X0056017Y0476515D01*
X0055997Y0476570D01*
X0055974Y0476624D01*
X0055948Y0476676D01*
X0055918Y0476727D01*
X0055885Y0476775D01*
X0055850Y0476822D01*
X0055811Y0476866D01*
X0055770Y0476908D01*
X0064118Y0478852D02*
X0066062Y0478852D01*
X0067538Y0478852D02*
X0069482Y0478852D01*
X0068510Y0478852D02*
X0068510Y0475352D01*
X0067538Y0476130D01*
X0065771Y0476908D02*
X0064118Y0478852D01*
X0064118Y0476130D02*
X0064139Y0476069D01*
X0064164Y0476010D01*
X0064192Y0475952D01*
X0064224Y0475896D01*
X0064259Y0475842D01*
X0064296Y0475790D01*
X0064337Y0475740D01*
X0064380Y0475693D01*
X0064427Y0475648D01*
X0064475Y0475606D01*
X0064526Y0475567D01*
X0064579Y0475531D01*
X0064634Y0475497D01*
X0064691Y0475467D01*
X0064749Y0475441D01*
X0064809Y0475417D01*
X0064870Y0475398D01*
X0064932Y0475381D01*
X0064995Y0475368D01*
X0065059Y0475359D01*
X0065123Y0475354D01*
X0065187Y0475352D01*
X0065244Y0475354D01*
X0065301Y0475359D01*
X0065358Y0475369D01*
X0065413Y0475382D01*
X0065468Y0475398D01*
X0065522Y0475419D01*
X0065574Y0475442D01*
X0065625Y0475469D01*
X0065673Y0475499D01*
X0065720Y0475533D01*
X0065764Y0475569D01*
X0065806Y0475608D01*
X0065845Y0475650D01*
X0065881Y0475694D01*
X0065915Y0475741D01*
X0065945Y0475790D01*
X0065972Y0475840D01*
X0065995Y0475892D01*
X0066016Y0475946D01*
X0066032Y0476001D01*
X0066045Y0476056D01*
X0066055Y0476113D01*
X0066060Y0476170D01*
X0066062Y0476227D01*
X0066060Y0476286D01*
X0066055Y0476344D01*
X0066046Y0476402D01*
X0066033Y0476459D01*
X0066017Y0476515D01*
X0065997Y0476570D01*
X0065974Y0476624D01*
X0065948Y0476676D01*
X0065918Y0476727D01*
X0065885Y0476775D01*
X0065850Y0476822D01*
X0065811Y0476866D01*
X0065770Y0476908D01*
X0074118Y0475352D02*
X0075284Y0475352D01*
X0075340Y0475354D01*
X0075395Y0475360D01*
X0075449Y0475370D01*
X0075503Y0475384D01*
X0075556Y0475401D01*
X0075607Y0475422D01*
X0075657Y0475447D01*
X0075705Y0475476D01*
X0075750Y0475507D01*
X0075793Y0475542D01*
X0075834Y0475580D01*
X0075872Y0475621D01*
X0075907Y0475664D01*
X0075938Y0475709D01*
X0075967Y0475757D01*
X0075992Y0475807D01*
X0076013Y0475858D01*
X0076030Y0475911D01*
X0076044Y0475965D01*
X0076054Y0476019D01*
X0076060Y0476074D01*
X0076062Y0476130D01*
X0076060Y0476186D01*
X0076054Y0476241D01*
X0076044Y0476295D01*
X0076030Y0476349D01*
X0076013Y0476402D01*
X0075992Y0476453D01*
X0075967Y0476503D01*
X0075938Y0476551D01*
X0075907Y0476596D01*
X0075872Y0476639D01*
X0075834Y0476680D01*
X0075793Y0476718D01*
X0075750Y0476753D01*
X0075705Y0476784D01*
X0075657Y0476813D01*
X0075607Y0476838D01*
X0075556Y0476859D01*
X0075503Y0476876D01*
X0075449Y0476890D01*
X0075395Y0476900D01*
X0075340Y0476906D01*
X0075284Y0476908D01*
X0074507Y0476908D01*
X0075090Y0476908D02*
X0075151Y0476910D01*
X0075212Y0476916D01*
X0075272Y0476925D01*
X0075332Y0476939D01*
X0075390Y0476956D01*
X0075448Y0476976D01*
X0075504Y0477001D01*
X0075558Y0477028D01*
X0075611Y0477059D01*
X0075661Y0477094D01*
X0075710Y0477131D01*
X0075755Y0477171D01*
X0075799Y0477215D01*
X0075839Y0477260D01*
X0075876Y0477309D01*
X0075911Y0477359D01*
X0075942Y0477412D01*
X0075969Y0477466D01*
X0075994Y0477522D01*
X0076014Y0477580D01*
X0076031Y0477638D01*
X0076045Y0477698D01*
X0076054Y0477758D01*
X0076060Y0477819D01*
X0076062Y0477880D01*
X0076060Y0477941D01*
X0076054Y0478002D01*
X0076045Y0478062D01*
X0076031Y0478122D01*
X0076014Y0478180D01*
X0075994Y0478238D01*
X0075969Y0478294D01*
X0075942Y0478348D01*
X0075911Y0478401D01*
X0075876Y0478451D01*
X0075839Y0478500D01*
X0075799Y0478545D01*
X0075755Y0478589D01*
X0075710Y0478629D01*
X0075661Y0478666D01*
X0075611Y0478701D01*
X0075558Y0478732D01*
X0075504Y0478759D01*
X0075448Y0478784D01*
X0075390Y0478804D01*
X0075332Y0478821D01*
X0075272Y0478835D01*
X0075212Y0478844D01*
X0075151Y0478850D01*
X0075090Y0478852D01*
X0074118Y0478852D01*
X0077538Y0478852D02*
X0079482Y0478852D01*
X0077538Y0478852D02*
X0079191Y0476908D01*
X0078607Y0475352D02*
X0078543Y0475354D01*
X0078479Y0475359D01*
X0078415Y0475368D01*
X0078352Y0475381D01*
X0078290Y0475398D01*
X0078229Y0475417D01*
X0078169Y0475441D01*
X0078111Y0475467D01*
X0078054Y0475497D01*
X0077999Y0475531D01*
X0077946Y0475567D01*
X0077895Y0475606D01*
X0077847Y0475648D01*
X0077800Y0475693D01*
X0077757Y0475740D01*
X0077716Y0475790D01*
X0077679Y0475842D01*
X0077644Y0475896D01*
X0077612Y0475952D01*
X0077584Y0476010D01*
X0077559Y0476069D01*
X0077538Y0476130D01*
X0079190Y0476908D02*
X0079231Y0476866D01*
X0079270Y0476822D01*
X0079305Y0476775D01*
X0079338Y0476727D01*
X0079368Y0476676D01*
X0079394Y0476624D01*
X0079417Y0476570D01*
X0079437Y0476515D01*
X0079453Y0476459D01*
X0079466Y0476402D01*
X0079475Y0476344D01*
X0079480Y0476286D01*
X0079482Y0476227D01*
X0079480Y0476170D01*
X0079475Y0476113D01*
X0079465Y0476056D01*
X0079452Y0476001D01*
X0079436Y0475946D01*
X0079415Y0475892D01*
X0079392Y0475840D01*
X0079365Y0475790D01*
X0079335Y0475741D01*
X0079301Y0475694D01*
X0079265Y0475650D01*
X0079226Y0475608D01*
X0079184Y0475569D01*
X0079140Y0475533D01*
X0079093Y0475499D01*
X0079045Y0475469D01*
X0078994Y0475442D01*
X0078942Y0475419D01*
X0078888Y0475398D01*
X0078833Y0475382D01*
X0078778Y0475369D01*
X0078721Y0475359D01*
X0078664Y0475354D01*
X0078607Y0475352D01*
X0084118Y0475352D02*
X0085284Y0475352D01*
X0085340Y0475354D01*
X0085395Y0475360D01*
X0085449Y0475370D01*
X0085503Y0475384D01*
X0085556Y0475401D01*
X0085607Y0475422D01*
X0085657Y0475447D01*
X0085705Y0475476D01*
X0085750Y0475507D01*
X0085793Y0475542D01*
X0085834Y0475580D01*
X0085872Y0475621D01*
X0085907Y0475664D01*
X0085938Y0475709D01*
X0085967Y0475757D01*
X0085992Y0475807D01*
X0086013Y0475858D01*
X0086030Y0475911D01*
X0086044Y0475965D01*
X0086054Y0476019D01*
X0086060Y0476074D01*
X0086062Y0476130D01*
X0086060Y0476186D01*
X0086054Y0476241D01*
X0086044Y0476295D01*
X0086030Y0476349D01*
X0086013Y0476402D01*
X0085992Y0476453D01*
X0085967Y0476503D01*
X0085938Y0476551D01*
X0085907Y0476596D01*
X0085872Y0476639D01*
X0085834Y0476680D01*
X0085793Y0476718D01*
X0085750Y0476753D01*
X0085705Y0476784D01*
X0085657Y0476813D01*
X0085607Y0476838D01*
X0085556Y0476859D01*
X0085503Y0476876D01*
X0085449Y0476890D01*
X0085395Y0476900D01*
X0085340Y0476906D01*
X0085284Y0476908D01*
X0084507Y0476908D01*
X0085090Y0476908D02*
X0085151Y0476910D01*
X0085212Y0476916D01*
X0085272Y0476925D01*
X0085332Y0476939D01*
X0085390Y0476956D01*
X0085448Y0476976D01*
X0085504Y0477001D01*
X0085558Y0477028D01*
X0085611Y0477059D01*
X0085661Y0477094D01*
X0085710Y0477131D01*
X0085755Y0477171D01*
X0085799Y0477215D01*
X0085839Y0477260D01*
X0085876Y0477309D01*
X0085911Y0477359D01*
X0085942Y0477412D01*
X0085969Y0477466D01*
X0085994Y0477522D01*
X0086014Y0477580D01*
X0086031Y0477638D01*
X0086045Y0477698D01*
X0086054Y0477758D01*
X0086060Y0477819D01*
X0086062Y0477880D01*
X0086060Y0477941D01*
X0086054Y0478002D01*
X0086045Y0478062D01*
X0086031Y0478122D01*
X0086014Y0478180D01*
X0085994Y0478238D01*
X0085969Y0478294D01*
X0085942Y0478348D01*
X0085911Y0478401D01*
X0085876Y0478451D01*
X0085839Y0478500D01*
X0085799Y0478545D01*
X0085755Y0478589D01*
X0085710Y0478629D01*
X0085661Y0478666D01*
X0085611Y0478701D01*
X0085558Y0478732D01*
X0085504Y0478759D01*
X0085448Y0478784D01*
X0085390Y0478804D01*
X0085332Y0478821D01*
X0085272Y0478835D01*
X0085212Y0478844D01*
X0085151Y0478850D01*
X0085090Y0478852D01*
X0084118Y0478852D01*
X0087538Y0478852D02*
X0088510Y0478852D01*
X0088571Y0478850D01*
X0088632Y0478844D01*
X0088692Y0478835D01*
X0088752Y0478821D01*
X0088810Y0478804D01*
X0088868Y0478784D01*
X0088924Y0478759D01*
X0088978Y0478732D01*
X0089031Y0478701D01*
X0089081Y0478666D01*
X0089130Y0478629D01*
X0089175Y0478589D01*
X0089219Y0478545D01*
X0089259Y0478500D01*
X0089296Y0478451D01*
X0089331Y0478401D01*
X0089362Y0478348D01*
X0089389Y0478294D01*
X0089414Y0478238D01*
X0089434Y0478180D01*
X0089451Y0478122D01*
X0089465Y0478062D01*
X0089474Y0478002D01*
X0089480Y0477941D01*
X0089482Y0477880D01*
X0089480Y0477819D01*
X0089474Y0477758D01*
X0089465Y0477698D01*
X0089451Y0477638D01*
X0089434Y0477580D01*
X0089414Y0477522D01*
X0089389Y0477466D01*
X0089362Y0477412D01*
X0089331Y0477359D01*
X0089296Y0477309D01*
X0089259Y0477260D01*
X0089219Y0477215D01*
X0089175Y0477171D01*
X0089130Y0477131D01*
X0089081Y0477094D01*
X0089031Y0477059D01*
X0088978Y0477028D01*
X0088924Y0477001D01*
X0088868Y0476976D01*
X0088810Y0476956D01*
X0088752Y0476939D01*
X0088692Y0476925D01*
X0088632Y0476916D01*
X0088571Y0476910D01*
X0088510Y0476908D01*
X0088704Y0476908D02*
X0087927Y0476908D01*
X0088704Y0476908D02*
X0088760Y0476906D01*
X0088815Y0476900D01*
X0088869Y0476890D01*
X0088923Y0476876D01*
X0088976Y0476859D01*
X0089027Y0476838D01*
X0089077Y0476813D01*
X0089125Y0476784D01*
X0089170Y0476753D01*
X0089213Y0476718D01*
X0089254Y0476680D01*
X0089292Y0476639D01*
X0089327Y0476596D01*
X0089358Y0476551D01*
X0089387Y0476503D01*
X0089412Y0476453D01*
X0089433Y0476402D01*
X0089450Y0476349D01*
X0089464Y0476295D01*
X0089474Y0476241D01*
X0089480Y0476186D01*
X0089482Y0476130D01*
X0089480Y0476074D01*
X0089474Y0476019D01*
X0089464Y0475965D01*
X0089450Y0475911D01*
X0089433Y0475858D01*
X0089412Y0475807D01*
X0089387Y0475757D01*
X0089358Y0475709D01*
X0089327Y0475664D01*
X0089292Y0475621D01*
X0089254Y0475580D01*
X0089213Y0475542D01*
X0089170Y0475507D01*
X0089125Y0475476D01*
X0089077Y0475447D01*
X0089027Y0475422D01*
X0088976Y0475401D01*
X0088923Y0475384D01*
X0088869Y0475370D01*
X0088815Y0475360D01*
X0088760Y0475354D01*
X0088704Y0475352D01*
X0087538Y0475352D01*
X0092770Y0475452D02*
X0093687Y0475452D01*
X0093746Y0475454D01*
X0093804Y0475460D01*
X0093862Y0475469D01*
X0093920Y0475482D01*
X0093976Y0475499D01*
X0094031Y0475519D01*
X0094085Y0475543D01*
X0094137Y0475570D01*
X0094187Y0475600D01*
X0094235Y0475634D01*
X0094281Y0475671D01*
X0094325Y0475710D01*
X0094366Y0475753D01*
X0094404Y0475797D01*
X0094439Y0475844D01*
X0094471Y0475894D01*
X0094500Y0475945D01*
X0094526Y0475998D01*
X0094548Y0476052D01*
X0094566Y0476108D01*
X0094581Y0476165D01*
X0094592Y0476223D01*
X0094600Y0476281D01*
X0094604Y0476340D01*
X0094604Y0476398D01*
X0094600Y0476457D01*
X0094592Y0476515D01*
X0094581Y0476573D01*
X0094566Y0476630D01*
X0094548Y0476686D01*
X0094526Y0476740D01*
X0094500Y0476793D01*
X0094471Y0476844D01*
X0094439Y0476894D01*
X0094404Y0476941D01*
X0094366Y0476985D01*
X0094325Y0477028D01*
X0094281Y0477067D01*
X0094235Y0477104D01*
X0094187Y0477138D01*
X0094137Y0477168D01*
X0094085Y0477195D01*
X0094031Y0477219D01*
X0093976Y0477239D01*
X0093920Y0477256D01*
X0093862Y0477269D01*
X0093804Y0477278D01*
X0093746Y0477284D01*
X0093687Y0477286D01*
X0093687Y0477285D02*
X0092770Y0477285D01*
X0093870Y0477285D02*
X0094603Y0478752D01*
X0092770Y0478752D02*
X0092770Y0475452D01*
X0096339Y0476827D02*
X0097347Y0477377D01*
X0096981Y0478752D02*
X0096905Y0478750D01*
X0096828Y0478744D01*
X0096753Y0478735D01*
X0096677Y0478722D01*
X0096603Y0478705D01*
X0096529Y0478685D01*
X0096456Y0478660D01*
X0096385Y0478633D01*
X0096315Y0478602D01*
X0096247Y0478567D01*
X0096181Y0478529D01*
X0096116Y0478488D01*
X0096054Y0478444D01*
X0095994Y0478397D01*
X0095936Y0478347D01*
X0095881Y0478294D01*
X0097347Y0477377D02*
X0097391Y0477405D01*
X0097432Y0477435D01*
X0097471Y0477469D01*
X0097508Y0477505D01*
X0097543Y0477544D01*
X0097574Y0477584D01*
X0097603Y0477627D01*
X0097628Y0477672D01*
X0097651Y0477718D01*
X0097670Y0477766D01*
X0097686Y0477815D01*
X0097698Y0477865D01*
X0097707Y0477916D01*
X0097712Y0477967D01*
X0097714Y0478019D01*
X0097712Y0478071D01*
X0097707Y0478123D01*
X0097697Y0478175D01*
X0097684Y0478226D01*
X0097668Y0478275D01*
X0097648Y0478323D01*
X0097624Y0478370D01*
X0097598Y0478415D01*
X0097568Y0478458D01*
X0097535Y0478499D01*
X0097499Y0478537D01*
X0097461Y0478573D01*
X0097420Y0478606D01*
X0097377Y0478636D01*
X0097332Y0478662D01*
X0097285Y0478686D01*
X0097237Y0478706D01*
X0097188Y0478722D01*
X0097137Y0478735D01*
X0097085Y0478745D01*
X0097033Y0478750D01*
X0096981Y0478752D01*
X0097531Y0475727D02*
X0097471Y0475684D01*
X0097409Y0475645D01*
X0097344Y0475609D01*
X0097278Y0475577D01*
X0097210Y0475548D01*
X0097141Y0475523D01*
X0097070Y0475501D01*
X0096999Y0475484D01*
X0096926Y0475470D01*
X0096853Y0475460D01*
X0096780Y0475454D01*
X0096706Y0475452D01*
X0096654Y0475454D01*
X0096602Y0475459D01*
X0096550Y0475469D01*
X0096499Y0475482D01*
X0096450Y0475498D01*
X0096402Y0475518D01*
X0096355Y0475542D01*
X0096310Y0475568D01*
X0096267Y0475598D01*
X0096226Y0475631D01*
X0096188Y0475667D01*
X0096152Y0475705D01*
X0096119Y0475746D01*
X0096089Y0475789D01*
X0096063Y0475834D01*
X0096039Y0475881D01*
X0096019Y0475929D01*
X0096003Y0475978D01*
X0095990Y0476029D01*
X0095980Y0476081D01*
X0095975Y0476133D01*
X0095973Y0476185D01*
X0095972Y0476185D02*
X0095974Y0476237D01*
X0095979Y0476288D01*
X0095988Y0476339D01*
X0096000Y0476389D01*
X0096016Y0476438D01*
X0096035Y0476486D01*
X0096058Y0476532D01*
X0096083Y0476577D01*
X0096112Y0476620D01*
X0096143Y0476660D01*
X0096178Y0476699D01*
X0096215Y0476735D01*
X0096254Y0476769D01*
X0096295Y0476799D01*
X0096339Y0476827D01*
X0098797Y0475452D02*
X0100630Y0475452D01*
X0099713Y0475452D02*
X0099713Y0478752D01*
X0102327Y0478019D02*
X0102327Y0476185D01*
X0102328Y0476185D02*
X0102330Y0476133D01*
X0102335Y0476081D01*
X0102345Y0476029D01*
X0102358Y0475978D01*
X0102374Y0475929D01*
X0102394Y0475881D01*
X0102418Y0475834D01*
X0102444Y0475789D01*
X0102474Y0475746D01*
X0102507Y0475705D01*
X0102543Y0475667D01*
X0102581Y0475631D01*
X0102622Y0475598D01*
X0102665Y0475568D01*
X0102710Y0475542D01*
X0102756Y0475518D01*
X0102805Y0475498D01*
X0102854Y0475482D01*
X0102905Y0475469D01*
X0102957Y0475459D01*
X0103009Y0475454D01*
X0103061Y0475452D01*
X0104161Y0475452D01*
X0104161Y0476919D02*
X0104161Y0478752D01*
X0103061Y0478752D01*
X0103009Y0478750D01*
X0102957Y0478745D01*
X0102905Y0478735D01*
X0102854Y0478722D01*
X0102805Y0478706D01*
X0102757Y0478686D01*
X0102710Y0478662D01*
X0102665Y0478636D01*
X0102622Y0478606D01*
X0102581Y0478573D01*
X0102543Y0478537D01*
X0102507Y0478499D01*
X0102474Y0478458D01*
X0102444Y0478415D01*
X0102418Y0478370D01*
X0102394Y0478324D01*
X0102374Y0478275D01*
X0102358Y0478226D01*
X0102345Y0478175D01*
X0102335Y0478123D01*
X0102330Y0478071D01*
X0102328Y0478019D01*
X0103611Y0476919D02*
X0104161Y0476919D01*
X0105783Y0475452D02*
X0107617Y0478752D01*
X0107617Y0475452D01*
X0109239Y0475452D02*
X0110156Y0475452D01*
X0110214Y0475454D01*
X0110271Y0475459D01*
X0110328Y0475468D01*
X0110384Y0475481D01*
X0110439Y0475497D01*
X0110494Y0475516D01*
X0110546Y0475539D01*
X0110598Y0475565D01*
X0110647Y0475595D01*
X0110695Y0475627D01*
X0110741Y0475662D01*
X0110784Y0475701D01*
X0110824Y0475741D01*
X0110863Y0475784D01*
X0110898Y0475830D01*
X0110930Y0475878D01*
X0110960Y0475927D01*
X0110986Y0475979D01*
X0111009Y0476031D01*
X0111028Y0476086D01*
X0111044Y0476141D01*
X0111057Y0476197D01*
X0111066Y0476254D01*
X0111071Y0476311D01*
X0111073Y0476369D01*
X0111073Y0477835D01*
X0111071Y0477893D01*
X0111066Y0477950D01*
X0111057Y0478007D01*
X0111044Y0478063D01*
X0111028Y0478118D01*
X0111009Y0478173D01*
X0110986Y0478225D01*
X0110960Y0478277D01*
X0110930Y0478326D01*
X0110898Y0478374D01*
X0110863Y0478420D01*
X0110824Y0478463D01*
X0110784Y0478503D01*
X0110741Y0478542D01*
X0110695Y0478577D01*
X0110647Y0478609D01*
X0110598Y0478639D01*
X0110546Y0478665D01*
X0110494Y0478688D01*
X0110439Y0478707D01*
X0110384Y0478723D01*
X0110328Y0478736D01*
X0110271Y0478745D01*
X0110214Y0478750D01*
X0110156Y0478752D01*
X0109239Y0478752D01*
X0109239Y0475452D01*
X0105783Y0475452D02*
X0105783Y0478752D01*
X0106062Y0548052D02*
X0104896Y0548052D01*
X0104840Y0548054D01*
X0104785Y0548060D01*
X0104731Y0548070D01*
X0104677Y0548084D01*
X0104624Y0548101D01*
X0104573Y0548122D01*
X0104523Y0548147D01*
X0104475Y0548176D01*
X0104430Y0548207D01*
X0104387Y0548242D01*
X0104346Y0548280D01*
X0104308Y0548321D01*
X0104273Y0548364D01*
X0104242Y0548409D01*
X0104213Y0548457D01*
X0104188Y0548507D01*
X0104167Y0548558D01*
X0104150Y0548611D01*
X0104136Y0548665D01*
X0104126Y0548719D01*
X0104120Y0548774D01*
X0104118Y0548830D01*
X0104118Y0549219D01*
X0104120Y0549275D01*
X0104126Y0549330D01*
X0104136Y0549384D01*
X0104150Y0549438D01*
X0104167Y0549491D01*
X0104188Y0549542D01*
X0104213Y0549592D01*
X0104242Y0549640D01*
X0104273Y0549685D01*
X0104308Y0549728D01*
X0104346Y0549769D01*
X0104387Y0549807D01*
X0104430Y0549842D01*
X0104475Y0549873D01*
X0104523Y0549902D01*
X0104573Y0549927D01*
X0104624Y0549948D01*
X0104677Y0549965D01*
X0104731Y0549979D01*
X0104785Y0549989D01*
X0104840Y0549995D01*
X0104896Y0549997D01*
X0104896Y0549996D02*
X0106062Y0549996D01*
X0106062Y0551552D01*
X0104118Y0551552D01*
X0104161Y0560452D02*
X0103061Y0560452D01*
X0103009Y0560454D01*
X0102957Y0560459D01*
X0102905Y0560469D01*
X0102854Y0560482D01*
X0102805Y0560498D01*
X0102756Y0560518D01*
X0102710Y0560542D01*
X0102665Y0560568D01*
X0102622Y0560598D01*
X0102581Y0560631D01*
X0102543Y0560667D01*
X0102507Y0560705D01*
X0102474Y0560746D01*
X0102444Y0560789D01*
X0102418Y0560834D01*
X0102394Y0560881D01*
X0102374Y0560929D01*
X0102358Y0560978D01*
X0102345Y0561029D01*
X0102335Y0561081D01*
X0102330Y0561133D01*
X0102328Y0561185D01*
X0102327Y0561185D02*
X0102327Y0563019D01*
X0102328Y0563019D02*
X0102330Y0563071D01*
X0102335Y0563123D01*
X0102345Y0563175D01*
X0102358Y0563226D01*
X0102374Y0563275D01*
X0102394Y0563324D01*
X0102418Y0563370D01*
X0102444Y0563415D01*
X0102474Y0563458D01*
X0102507Y0563499D01*
X0102543Y0563537D01*
X0102581Y0563573D01*
X0102622Y0563606D01*
X0102665Y0563636D01*
X0102710Y0563662D01*
X0102757Y0563686D01*
X0102805Y0563706D01*
X0102854Y0563722D01*
X0102905Y0563735D01*
X0102957Y0563745D01*
X0103009Y0563750D01*
X0103061Y0563752D01*
X0104161Y0563752D01*
X0104161Y0561919D01*
X0103611Y0561919D01*
X0105783Y0560452D02*
X0107617Y0563752D01*
X0107617Y0560452D01*
X0109239Y0560452D02*
X0110156Y0560452D01*
X0110214Y0560454D01*
X0110271Y0560459D01*
X0110328Y0560468D01*
X0110384Y0560481D01*
X0110439Y0560497D01*
X0110494Y0560516D01*
X0110546Y0560539D01*
X0110598Y0560565D01*
X0110647Y0560595D01*
X0110695Y0560627D01*
X0110741Y0560662D01*
X0110784Y0560701D01*
X0110824Y0560741D01*
X0110863Y0560784D01*
X0110898Y0560830D01*
X0110930Y0560878D01*
X0110960Y0560927D01*
X0110986Y0560979D01*
X0111009Y0561031D01*
X0111028Y0561086D01*
X0111044Y0561141D01*
X0111057Y0561197D01*
X0111066Y0561254D01*
X0111071Y0561311D01*
X0111073Y0561369D01*
X0111073Y0562835D01*
X0111071Y0562893D01*
X0111066Y0562950D01*
X0111057Y0563007D01*
X0111044Y0563063D01*
X0111028Y0563118D01*
X0111009Y0563173D01*
X0110986Y0563225D01*
X0110960Y0563277D01*
X0110930Y0563326D01*
X0110898Y0563374D01*
X0110863Y0563420D01*
X0110824Y0563463D01*
X0110784Y0563503D01*
X0110741Y0563542D01*
X0110695Y0563577D01*
X0110647Y0563609D01*
X0110598Y0563639D01*
X0110546Y0563665D01*
X0110494Y0563688D01*
X0110439Y0563707D01*
X0110384Y0563723D01*
X0110328Y0563736D01*
X0110271Y0563745D01*
X0110214Y0563750D01*
X0110156Y0563752D01*
X0109239Y0563752D01*
X0109239Y0560452D01*
X0105783Y0560452D02*
X0105783Y0563752D01*
X0108413Y0551552D02*
X0108356Y0551550D01*
X0108299Y0551545D01*
X0108242Y0551535D01*
X0108187Y0551522D01*
X0108132Y0551506D01*
X0108078Y0551485D01*
X0108026Y0551462D01*
X0107976Y0551435D01*
X0107927Y0551405D01*
X0107880Y0551371D01*
X0107836Y0551335D01*
X0107794Y0551296D01*
X0107755Y0551254D01*
X0107719Y0551210D01*
X0107685Y0551163D01*
X0107655Y0551115D01*
X0107628Y0551064D01*
X0107605Y0551012D01*
X0107584Y0550958D01*
X0107568Y0550903D01*
X0107555Y0550848D01*
X0107545Y0550791D01*
X0107540Y0550734D01*
X0107538Y0550677D01*
X0107829Y0549996D02*
X0109482Y0548052D01*
X0107538Y0548052D01*
X0109482Y0550774D02*
X0109461Y0550835D01*
X0109436Y0550894D01*
X0109408Y0550952D01*
X0109376Y0551008D01*
X0109341Y0551062D01*
X0109304Y0551114D01*
X0109263Y0551164D01*
X0109220Y0551211D01*
X0109173Y0551256D01*
X0109125Y0551298D01*
X0109074Y0551337D01*
X0109021Y0551373D01*
X0108966Y0551407D01*
X0108909Y0551437D01*
X0108851Y0551463D01*
X0108791Y0551487D01*
X0108730Y0551506D01*
X0108668Y0551523D01*
X0108605Y0551536D01*
X0108541Y0551545D01*
X0108477Y0551550D01*
X0108413Y0551552D01*
X0107538Y0550677D02*
X0107540Y0550618D01*
X0107545Y0550560D01*
X0107554Y0550502D01*
X0107567Y0550445D01*
X0107583Y0550389D01*
X0107603Y0550334D01*
X0107626Y0550280D01*
X0107652Y0550228D01*
X0107682Y0550177D01*
X0107715Y0550129D01*
X0107750Y0550082D01*
X0107789Y0550038D01*
X0107830Y0549996D01*
X0100630Y0560452D02*
X0098797Y0560452D01*
X0099713Y0560452D02*
X0099713Y0563752D01*
X0097347Y0562377D02*
X0096339Y0561827D01*
X0096706Y0560452D02*
X0096780Y0560454D01*
X0096853Y0560460D01*
X0096926Y0560470D01*
X0096999Y0560484D01*
X0097070Y0560501D01*
X0097141Y0560523D01*
X0097210Y0560548D01*
X0097278Y0560577D01*
X0097344Y0560609D01*
X0097409Y0560645D01*
X0097471Y0560684D01*
X0097531Y0560727D01*
X0096339Y0561827D02*
X0096295Y0561799D01*
X0096254Y0561769D01*
X0096215Y0561735D01*
X0096178Y0561699D01*
X0096143Y0561660D01*
X0096112Y0561620D01*
X0096083Y0561577D01*
X0096058Y0561532D01*
X0096035Y0561486D01*
X0096016Y0561438D01*
X0096000Y0561389D01*
X0095988Y0561339D01*
X0095979Y0561288D01*
X0095974Y0561237D01*
X0095972Y0561185D01*
X0095973Y0561185D02*
X0095975Y0561133D01*
X0095980Y0561081D01*
X0095990Y0561029D01*
X0096003Y0560978D01*
X0096019Y0560929D01*
X0096039Y0560881D01*
X0096063Y0560834D01*
X0096089Y0560789D01*
X0096119Y0560746D01*
X0096152Y0560705D01*
X0096188Y0560667D01*
X0096226Y0560631D01*
X0096267Y0560598D01*
X0096310Y0560568D01*
X0096355Y0560542D01*
X0096402Y0560518D01*
X0096450Y0560498D01*
X0096499Y0560482D01*
X0096550Y0560469D01*
X0096602Y0560459D01*
X0096654Y0560454D01*
X0096706Y0560452D01*
X0095881Y0563294D02*
X0095936Y0563347D01*
X0095994Y0563397D01*
X0096054Y0563444D01*
X0096116Y0563488D01*
X0096181Y0563529D01*
X0096247Y0563567D01*
X0096315Y0563602D01*
X0096385Y0563633D01*
X0096456Y0563660D01*
X0096529Y0563685D01*
X0096603Y0563705D01*
X0096677Y0563722D01*
X0096753Y0563735D01*
X0096828Y0563744D01*
X0096905Y0563750D01*
X0096981Y0563752D01*
X0097033Y0563750D01*
X0097085Y0563745D01*
X0097137Y0563735D01*
X0097188Y0563722D01*
X0097237Y0563706D01*
X0097285Y0563686D01*
X0097332Y0563662D01*
X0097377Y0563636D01*
X0097420Y0563606D01*
X0097461Y0563573D01*
X0097499Y0563537D01*
X0097535Y0563499D01*
X0097568Y0563458D01*
X0097598Y0563415D01*
X0097624Y0563370D01*
X0097648Y0563323D01*
X0097668Y0563275D01*
X0097684Y0563226D01*
X0097697Y0563175D01*
X0097707Y0563123D01*
X0097712Y0563071D01*
X0097714Y0563019D01*
X0097712Y0562967D01*
X0097707Y0562916D01*
X0097698Y0562865D01*
X0097686Y0562815D01*
X0097670Y0562766D01*
X0097651Y0562718D01*
X0097628Y0562672D01*
X0097603Y0562627D01*
X0097574Y0562584D01*
X0097543Y0562544D01*
X0097508Y0562505D01*
X0097471Y0562469D01*
X0097432Y0562435D01*
X0097391Y0562405D01*
X0097347Y0562377D01*
X0094603Y0563752D02*
X0093870Y0562285D01*
X0093687Y0562285D02*
X0092770Y0562285D01*
X0093687Y0562286D02*
X0093746Y0562284D01*
X0093804Y0562278D01*
X0093862Y0562269D01*
X0093920Y0562256D01*
X0093976Y0562239D01*
X0094031Y0562219D01*
X0094085Y0562195D01*
X0094137Y0562168D01*
X0094187Y0562138D01*
X0094235Y0562104D01*
X0094281Y0562067D01*
X0094325Y0562028D01*
X0094366Y0561985D01*
X0094404Y0561941D01*
X0094439Y0561894D01*
X0094471Y0561844D01*
X0094500Y0561793D01*
X0094526Y0561740D01*
X0094548Y0561686D01*
X0094566Y0561630D01*
X0094581Y0561573D01*
X0094592Y0561515D01*
X0094600Y0561457D01*
X0094604Y0561398D01*
X0094604Y0561340D01*
X0094600Y0561281D01*
X0094592Y0561223D01*
X0094581Y0561165D01*
X0094566Y0561108D01*
X0094548Y0561052D01*
X0094526Y0560998D01*
X0094500Y0560945D01*
X0094471Y0560894D01*
X0094439Y0560844D01*
X0094404Y0560797D01*
X0094366Y0560753D01*
X0094325Y0560710D01*
X0094281Y0560671D01*
X0094235Y0560634D01*
X0094187Y0560600D01*
X0094137Y0560570D01*
X0094085Y0560543D01*
X0094031Y0560519D01*
X0093976Y0560499D01*
X0093920Y0560482D01*
X0093862Y0560469D01*
X0093804Y0560460D01*
X0093746Y0560454D01*
X0093687Y0560452D01*
X0092770Y0560452D01*
X0092770Y0563752D01*
X0094507Y0551552D02*
X0094586Y0551550D01*
X0094664Y0551544D01*
X0094743Y0551534D01*
X0094820Y0551520D01*
X0094897Y0551502D01*
X0094973Y0551481D01*
X0095047Y0551455D01*
X0095121Y0551426D01*
X0095192Y0551393D01*
X0095262Y0551356D01*
X0095330Y0551316D01*
X0095396Y0551273D01*
X0095459Y0551226D01*
X0095521Y0551177D01*
X0095579Y0551124D01*
X0095635Y0551068D01*
X0095688Y0551010D01*
X0095737Y0550948D01*
X0095784Y0550885D01*
X0095827Y0550819D01*
X0095867Y0550751D01*
X0095904Y0550681D01*
X0095937Y0550610D01*
X0095966Y0550536D01*
X0095992Y0550462D01*
X0096013Y0550386D01*
X0096031Y0550309D01*
X0096045Y0550232D01*
X0096055Y0550153D01*
X0096061Y0550075D01*
X0096063Y0549996D01*
X0096062Y0549996D02*
X0096062Y0549024D01*
X0096060Y0548963D01*
X0096054Y0548902D01*
X0096045Y0548842D01*
X0096031Y0548782D01*
X0096014Y0548724D01*
X0095994Y0548666D01*
X0095969Y0548610D01*
X0095942Y0548556D01*
X0095911Y0548503D01*
X0095876Y0548453D01*
X0095839Y0548404D01*
X0095799Y0548359D01*
X0095755Y0548315D01*
X0095710Y0548275D01*
X0095661Y0548238D01*
X0095611Y0548203D01*
X0095558Y0548172D01*
X0095504Y0548145D01*
X0095448Y0548120D01*
X0095390Y0548100D01*
X0095332Y0548083D01*
X0095272Y0548069D01*
X0095212Y0548060D01*
X0095151Y0548054D01*
X0095090Y0548052D01*
X0095029Y0548054D01*
X0094968Y0548060D01*
X0094908Y0548069D01*
X0094848Y0548083D01*
X0094790Y0548100D01*
X0094732Y0548120D01*
X0094676Y0548145D01*
X0094622Y0548172D01*
X0094569Y0548203D01*
X0094519Y0548238D01*
X0094470Y0548275D01*
X0094425Y0548315D01*
X0094381Y0548359D01*
X0094341Y0548404D01*
X0094304Y0548453D01*
X0094269Y0548503D01*
X0094238Y0548556D01*
X0094211Y0548610D01*
X0094186Y0548666D01*
X0094166Y0548724D01*
X0094149Y0548782D01*
X0094135Y0548842D01*
X0094126Y0548902D01*
X0094120Y0548963D01*
X0094118Y0549024D01*
X0094118Y0549219D01*
X0094120Y0549275D01*
X0094126Y0549330D01*
X0094136Y0549384D01*
X0094150Y0549438D01*
X0094167Y0549491D01*
X0094188Y0549542D01*
X0094213Y0549592D01*
X0094242Y0549640D01*
X0094273Y0549685D01*
X0094308Y0549728D01*
X0094346Y0549769D01*
X0094387Y0549807D01*
X0094430Y0549842D01*
X0094475Y0549873D01*
X0094523Y0549902D01*
X0094573Y0549927D01*
X0094624Y0549948D01*
X0094677Y0549965D01*
X0094731Y0549979D01*
X0094785Y0549989D01*
X0094840Y0549995D01*
X0094896Y0549997D01*
X0094896Y0549996D02*
X0096062Y0549996D01*
X0097829Y0549996D02*
X0099482Y0548052D01*
X0097538Y0548052D01*
X0099482Y0550774D02*
X0099461Y0550835D01*
X0099436Y0550894D01*
X0099408Y0550952D01*
X0099376Y0551008D01*
X0099341Y0551062D01*
X0099304Y0551114D01*
X0099263Y0551164D01*
X0099220Y0551211D01*
X0099173Y0551256D01*
X0099125Y0551298D01*
X0099074Y0551337D01*
X0099021Y0551373D01*
X0098966Y0551407D01*
X0098909Y0551437D01*
X0098851Y0551463D01*
X0098791Y0551487D01*
X0098730Y0551506D01*
X0098668Y0551523D01*
X0098605Y0551536D01*
X0098541Y0551545D01*
X0098477Y0551550D01*
X0098413Y0551552D01*
X0098356Y0551550D01*
X0098299Y0551545D01*
X0098242Y0551535D01*
X0098187Y0551522D01*
X0098132Y0551506D01*
X0098078Y0551485D01*
X0098026Y0551462D01*
X0097976Y0551435D01*
X0097927Y0551405D01*
X0097880Y0551371D01*
X0097836Y0551335D01*
X0097794Y0551296D01*
X0097755Y0551254D01*
X0097719Y0551210D01*
X0097685Y0551163D01*
X0097655Y0551115D01*
X0097628Y0551064D01*
X0097605Y0551012D01*
X0097584Y0550958D01*
X0097568Y0550903D01*
X0097555Y0550848D01*
X0097545Y0550791D01*
X0097540Y0550734D01*
X0097538Y0550677D01*
X0097540Y0550618D01*
X0097545Y0550560D01*
X0097554Y0550502D01*
X0097567Y0550445D01*
X0097583Y0550389D01*
X0097603Y0550334D01*
X0097626Y0550280D01*
X0097652Y0550228D01*
X0097682Y0550177D01*
X0097715Y0550129D01*
X0097750Y0550082D01*
X0097789Y0550038D01*
X0097830Y0549996D01*
X0089482Y0548052D02*
X0087538Y0548052D01*
X0089482Y0548052D02*
X0087829Y0549996D01*
X0088413Y0551552D02*
X0088477Y0551550D01*
X0088541Y0551545D01*
X0088605Y0551536D01*
X0088668Y0551523D01*
X0088730Y0551506D01*
X0088791Y0551487D01*
X0088851Y0551463D01*
X0088909Y0551437D01*
X0088966Y0551407D01*
X0089021Y0551373D01*
X0089074Y0551337D01*
X0089125Y0551298D01*
X0089173Y0551256D01*
X0089220Y0551211D01*
X0089263Y0551164D01*
X0089304Y0551114D01*
X0089341Y0551062D01*
X0089376Y0551008D01*
X0089408Y0550952D01*
X0089436Y0550894D01*
X0089461Y0550835D01*
X0089482Y0550774D01*
X0087830Y0549996D02*
X0087789Y0550038D01*
X0087750Y0550082D01*
X0087715Y0550129D01*
X0087682Y0550177D01*
X0087652Y0550228D01*
X0087626Y0550280D01*
X0087603Y0550334D01*
X0087583Y0550389D01*
X0087567Y0550445D01*
X0087554Y0550502D01*
X0087545Y0550560D01*
X0087540Y0550618D01*
X0087538Y0550677D01*
X0087540Y0550734D01*
X0087545Y0550791D01*
X0087555Y0550848D01*
X0087568Y0550903D01*
X0087584Y0550958D01*
X0087605Y0551012D01*
X0087628Y0551064D01*
X0087655Y0551115D01*
X0087685Y0551163D01*
X0087719Y0551210D01*
X0087755Y0551254D01*
X0087794Y0551296D01*
X0087836Y0551335D01*
X0087880Y0551371D01*
X0087927Y0551405D01*
X0087976Y0551435D01*
X0088026Y0551462D01*
X0088078Y0551485D01*
X0088132Y0551506D01*
X0088187Y0551522D01*
X0088242Y0551535D01*
X0088299Y0551545D01*
X0088356Y0551550D01*
X0088413Y0551552D01*
X0086062Y0551552D02*
X0084118Y0551552D01*
X0085090Y0548052D01*
X0086062Y0551163D02*
X0086062Y0551552D01*
X0085284Y0560352D02*
X0084118Y0560352D01*
X0085284Y0560352D02*
X0085340Y0560354D01*
X0085395Y0560360D01*
X0085449Y0560370D01*
X0085503Y0560384D01*
X0085556Y0560401D01*
X0085607Y0560422D01*
X0085657Y0560447D01*
X0085705Y0560476D01*
X0085750Y0560507D01*
X0085793Y0560542D01*
X0085834Y0560580D01*
X0085872Y0560621D01*
X0085907Y0560664D01*
X0085938Y0560709D01*
X0085967Y0560757D01*
X0085992Y0560807D01*
X0086013Y0560858D01*
X0086030Y0560911D01*
X0086044Y0560965D01*
X0086054Y0561019D01*
X0086060Y0561074D01*
X0086062Y0561130D01*
X0086060Y0561186D01*
X0086054Y0561241D01*
X0086044Y0561295D01*
X0086030Y0561349D01*
X0086013Y0561402D01*
X0085992Y0561453D01*
X0085967Y0561503D01*
X0085938Y0561551D01*
X0085907Y0561596D01*
X0085872Y0561639D01*
X0085834Y0561680D01*
X0085793Y0561718D01*
X0085750Y0561753D01*
X0085705Y0561784D01*
X0085657Y0561813D01*
X0085607Y0561838D01*
X0085556Y0561859D01*
X0085503Y0561876D01*
X0085449Y0561890D01*
X0085395Y0561900D01*
X0085340Y0561906D01*
X0085284Y0561908D01*
X0084507Y0561908D01*
X0085090Y0561908D02*
X0085151Y0561910D01*
X0085212Y0561916D01*
X0085272Y0561925D01*
X0085332Y0561939D01*
X0085390Y0561956D01*
X0085448Y0561976D01*
X0085504Y0562001D01*
X0085558Y0562028D01*
X0085611Y0562059D01*
X0085661Y0562094D01*
X0085710Y0562131D01*
X0085755Y0562171D01*
X0085799Y0562215D01*
X0085839Y0562260D01*
X0085876Y0562309D01*
X0085911Y0562359D01*
X0085942Y0562412D01*
X0085969Y0562466D01*
X0085994Y0562522D01*
X0086014Y0562580D01*
X0086031Y0562638D01*
X0086045Y0562698D01*
X0086054Y0562758D01*
X0086060Y0562819D01*
X0086062Y0562880D01*
X0086060Y0562941D01*
X0086054Y0563002D01*
X0086045Y0563062D01*
X0086031Y0563122D01*
X0086014Y0563180D01*
X0085994Y0563238D01*
X0085969Y0563294D01*
X0085942Y0563348D01*
X0085911Y0563401D01*
X0085876Y0563451D01*
X0085839Y0563500D01*
X0085799Y0563545D01*
X0085755Y0563589D01*
X0085710Y0563629D01*
X0085661Y0563666D01*
X0085611Y0563701D01*
X0085558Y0563732D01*
X0085504Y0563759D01*
X0085448Y0563784D01*
X0085390Y0563804D01*
X0085332Y0563821D01*
X0085272Y0563835D01*
X0085212Y0563844D01*
X0085151Y0563850D01*
X0085090Y0563852D01*
X0084118Y0563852D01*
X0087538Y0563852D02*
X0088510Y0563852D01*
X0088571Y0563850D01*
X0088632Y0563844D01*
X0088692Y0563835D01*
X0088752Y0563821D01*
X0088810Y0563804D01*
X0088868Y0563784D01*
X0088924Y0563759D01*
X0088978Y0563732D01*
X0089031Y0563701D01*
X0089081Y0563666D01*
X0089130Y0563629D01*
X0089175Y0563589D01*
X0089219Y0563545D01*
X0089259Y0563500D01*
X0089296Y0563451D01*
X0089331Y0563401D01*
X0089362Y0563348D01*
X0089389Y0563294D01*
X0089414Y0563238D01*
X0089434Y0563180D01*
X0089451Y0563122D01*
X0089465Y0563062D01*
X0089474Y0563002D01*
X0089480Y0562941D01*
X0089482Y0562880D01*
X0089480Y0562819D01*
X0089474Y0562758D01*
X0089465Y0562698D01*
X0089451Y0562638D01*
X0089434Y0562580D01*
X0089414Y0562522D01*
X0089389Y0562466D01*
X0089362Y0562412D01*
X0089331Y0562359D01*
X0089296Y0562309D01*
X0089259Y0562260D01*
X0089219Y0562215D01*
X0089175Y0562171D01*
X0089130Y0562131D01*
X0089081Y0562094D01*
X0089031Y0562059D01*
X0088978Y0562028D01*
X0088924Y0562001D01*
X0088868Y0561976D01*
X0088810Y0561956D01*
X0088752Y0561939D01*
X0088692Y0561925D01*
X0088632Y0561916D01*
X0088571Y0561910D01*
X0088510Y0561908D01*
X0088704Y0561908D02*
X0087927Y0561908D01*
X0088704Y0561908D02*
X0088760Y0561906D01*
X0088815Y0561900D01*
X0088869Y0561890D01*
X0088923Y0561876D01*
X0088976Y0561859D01*
X0089027Y0561838D01*
X0089077Y0561813D01*
X0089125Y0561784D01*
X0089170Y0561753D01*
X0089213Y0561718D01*
X0089254Y0561680D01*
X0089292Y0561639D01*
X0089327Y0561596D01*
X0089358Y0561551D01*
X0089387Y0561503D01*
X0089412Y0561453D01*
X0089433Y0561402D01*
X0089450Y0561349D01*
X0089464Y0561295D01*
X0089474Y0561241D01*
X0089480Y0561186D01*
X0089482Y0561130D01*
X0089480Y0561074D01*
X0089474Y0561019D01*
X0089464Y0560965D01*
X0089450Y0560911D01*
X0089433Y0560858D01*
X0089412Y0560807D01*
X0089387Y0560757D01*
X0089358Y0560709D01*
X0089327Y0560664D01*
X0089292Y0560621D01*
X0089254Y0560580D01*
X0089213Y0560542D01*
X0089170Y0560507D01*
X0089125Y0560476D01*
X0089077Y0560447D01*
X0089027Y0560422D01*
X0088976Y0560401D01*
X0088923Y0560384D01*
X0088869Y0560370D01*
X0088815Y0560360D01*
X0088760Y0560354D01*
X0088704Y0560352D01*
X0087538Y0560352D01*
X0079191Y0561908D02*
X0077538Y0563852D01*
X0079482Y0563852D01*
X0077538Y0561130D02*
X0077559Y0561069D01*
X0077584Y0561010D01*
X0077612Y0560952D01*
X0077644Y0560896D01*
X0077679Y0560842D01*
X0077716Y0560790D01*
X0077757Y0560740D01*
X0077800Y0560693D01*
X0077847Y0560648D01*
X0077895Y0560606D01*
X0077946Y0560567D01*
X0077999Y0560531D01*
X0078054Y0560497D01*
X0078111Y0560467D01*
X0078169Y0560441D01*
X0078229Y0560417D01*
X0078290Y0560398D01*
X0078352Y0560381D01*
X0078415Y0560368D01*
X0078479Y0560359D01*
X0078543Y0560354D01*
X0078607Y0560352D01*
X0078664Y0560354D01*
X0078721Y0560359D01*
X0078778Y0560369D01*
X0078833Y0560382D01*
X0078888Y0560398D01*
X0078942Y0560419D01*
X0078994Y0560442D01*
X0079045Y0560469D01*
X0079093Y0560499D01*
X0079140Y0560533D01*
X0079184Y0560569D01*
X0079226Y0560608D01*
X0079265Y0560650D01*
X0079301Y0560694D01*
X0079335Y0560741D01*
X0079365Y0560790D01*
X0079392Y0560840D01*
X0079415Y0560892D01*
X0079436Y0560946D01*
X0079452Y0561001D01*
X0079465Y0561056D01*
X0079475Y0561113D01*
X0079480Y0561170D01*
X0079482Y0561227D01*
X0079480Y0561286D01*
X0079475Y0561344D01*
X0079466Y0561402D01*
X0079453Y0561459D01*
X0079437Y0561515D01*
X0079417Y0561570D01*
X0079394Y0561624D01*
X0079368Y0561676D01*
X0079338Y0561727D01*
X0079305Y0561775D01*
X0079270Y0561822D01*
X0079231Y0561866D01*
X0079190Y0561908D01*
X0075284Y0561908D02*
X0074507Y0561908D01*
X0075284Y0561908D02*
X0075340Y0561906D01*
X0075395Y0561900D01*
X0075449Y0561890D01*
X0075503Y0561876D01*
X0075556Y0561859D01*
X0075607Y0561838D01*
X0075657Y0561813D01*
X0075705Y0561784D01*
X0075750Y0561753D01*
X0075793Y0561718D01*
X0075834Y0561680D01*
X0075872Y0561639D01*
X0075907Y0561596D01*
X0075938Y0561551D01*
X0075967Y0561503D01*
X0075992Y0561453D01*
X0076013Y0561402D01*
X0076030Y0561349D01*
X0076044Y0561295D01*
X0076054Y0561241D01*
X0076060Y0561186D01*
X0076062Y0561130D01*
X0076060Y0561074D01*
X0076054Y0561019D01*
X0076044Y0560965D01*
X0076030Y0560911D01*
X0076013Y0560858D01*
X0075992Y0560807D01*
X0075967Y0560757D01*
X0075938Y0560709D01*
X0075907Y0560664D01*
X0075872Y0560621D01*
X0075834Y0560580D01*
X0075793Y0560542D01*
X0075750Y0560507D01*
X0075705Y0560476D01*
X0075657Y0560447D01*
X0075607Y0560422D01*
X0075556Y0560401D01*
X0075503Y0560384D01*
X0075449Y0560370D01*
X0075395Y0560360D01*
X0075340Y0560354D01*
X0075284Y0560352D01*
X0074118Y0560352D01*
X0075090Y0561908D02*
X0075151Y0561910D01*
X0075212Y0561916D01*
X0075272Y0561925D01*
X0075332Y0561939D01*
X0075390Y0561956D01*
X0075448Y0561976D01*
X0075504Y0562001D01*
X0075558Y0562028D01*
X0075611Y0562059D01*
X0075661Y0562094D01*
X0075710Y0562131D01*
X0075755Y0562171D01*
X0075799Y0562215D01*
X0075839Y0562260D01*
X0075876Y0562309D01*
X0075911Y0562359D01*
X0075942Y0562412D01*
X0075969Y0562466D01*
X0075994Y0562522D01*
X0076014Y0562580D01*
X0076031Y0562638D01*
X0076045Y0562698D01*
X0076054Y0562758D01*
X0076060Y0562819D01*
X0076062Y0562880D01*
X0076060Y0562941D01*
X0076054Y0563002D01*
X0076045Y0563062D01*
X0076031Y0563122D01*
X0076014Y0563180D01*
X0075994Y0563238D01*
X0075969Y0563294D01*
X0075942Y0563348D01*
X0075911Y0563401D01*
X0075876Y0563451D01*
X0075839Y0563500D01*
X0075799Y0563545D01*
X0075755Y0563589D01*
X0075710Y0563629D01*
X0075661Y0563666D01*
X0075611Y0563701D01*
X0075558Y0563732D01*
X0075504Y0563759D01*
X0075448Y0563784D01*
X0075390Y0563804D01*
X0075332Y0563821D01*
X0075272Y0563835D01*
X0075212Y0563844D01*
X0075151Y0563850D01*
X0075090Y0563852D01*
X0074118Y0563852D01*
X0074118Y0551552D02*
X0076062Y0551552D01*
X0076062Y0549996D01*
X0074896Y0549996D01*
X0074896Y0549997D02*
X0074840Y0549995D01*
X0074785Y0549989D01*
X0074731Y0549979D01*
X0074677Y0549965D01*
X0074624Y0549948D01*
X0074573Y0549927D01*
X0074523Y0549902D01*
X0074475Y0549873D01*
X0074430Y0549842D01*
X0074387Y0549807D01*
X0074346Y0549769D01*
X0074308Y0549728D01*
X0074273Y0549685D01*
X0074242Y0549640D01*
X0074213Y0549592D01*
X0074188Y0549542D01*
X0074167Y0549491D01*
X0074150Y0549438D01*
X0074136Y0549384D01*
X0074126Y0549330D01*
X0074120Y0549275D01*
X0074118Y0549219D01*
X0074118Y0548830D01*
X0074120Y0548774D01*
X0074126Y0548719D01*
X0074136Y0548665D01*
X0074150Y0548611D01*
X0074167Y0548558D01*
X0074188Y0548507D01*
X0074213Y0548457D01*
X0074242Y0548409D01*
X0074273Y0548364D01*
X0074308Y0548321D01*
X0074346Y0548280D01*
X0074387Y0548242D01*
X0074430Y0548207D01*
X0074475Y0548176D01*
X0074523Y0548147D01*
X0074573Y0548122D01*
X0074624Y0548101D01*
X0074677Y0548084D01*
X0074731Y0548070D01*
X0074785Y0548060D01*
X0074840Y0548054D01*
X0074896Y0548052D01*
X0076062Y0548052D01*
X0077538Y0548052D02*
X0079482Y0548052D01*
X0078510Y0548052D02*
X0078510Y0551552D01*
X0079482Y0550774D01*
X0069482Y0550774D02*
X0068510Y0551552D01*
X0068510Y0548052D01*
X0069482Y0548052D02*
X0067538Y0548052D01*
X0066062Y0548830D02*
X0065284Y0551552D01*
X0064701Y0549608D02*
X0064701Y0548052D01*
X0064118Y0548830D02*
X0066062Y0548830D01*
X0068510Y0560352D02*
X0068510Y0563852D01*
X0067538Y0563852D02*
X0069482Y0563852D01*
X0067538Y0561130D02*
X0068510Y0560352D01*
X0065771Y0561908D02*
X0064118Y0563852D01*
X0066062Y0563852D01*
X0064118Y0561130D02*
X0064139Y0561069D01*
X0064164Y0561010D01*
X0064192Y0560952D01*
X0064224Y0560896D01*
X0064259Y0560842D01*
X0064296Y0560790D01*
X0064337Y0560740D01*
X0064380Y0560693D01*
X0064427Y0560648D01*
X0064475Y0560606D01*
X0064526Y0560567D01*
X0064579Y0560531D01*
X0064634Y0560497D01*
X0064691Y0560467D01*
X0064749Y0560441D01*
X0064809Y0560417D01*
X0064870Y0560398D01*
X0064932Y0560381D01*
X0064995Y0560368D01*
X0065059Y0560359D01*
X0065123Y0560354D01*
X0065187Y0560352D01*
X0065244Y0560354D01*
X0065301Y0560359D01*
X0065358Y0560369D01*
X0065413Y0560382D01*
X0065468Y0560398D01*
X0065522Y0560419D01*
X0065574Y0560442D01*
X0065625Y0560469D01*
X0065673Y0560499D01*
X0065720Y0560533D01*
X0065764Y0560569D01*
X0065806Y0560608D01*
X0065845Y0560650D01*
X0065881Y0560694D01*
X0065915Y0560741D01*
X0065945Y0560790D01*
X0065972Y0560840D01*
X0065995Y0560892D01*
X0066016Y0560946D01*
X0066032Y0561001D01*
X0066045Y0561056D01*
X0066055Y0561113D01*
X0066060Y0561170D01*
X0066062Y0561227D01*
X0066060Y0561286D01*
X0066055Y0561344D01*
X0066046Y0561402D01*
X0066033Y0561459D01*
X0066017Y0561515D01*
X0065997Y0561570D01*
X0065974Y0561624D01*
X0065948Y0561676D01*
X0065918Y0561727D01*
X0065885Y0561775D01*
X0065850Y0561822D01*
X0065811Y0561866D01*
X0065770Y0561908D01*
X0059191Y0561908D02*
X0057538Y0563852D01*
X0059482Y0563852D01*
X0057538Y0561130D02*
X0057559Y0561069D01*
X0057584Y0561010D01*
X0057612Y0560952D01*
X0057644Y0560896D01*
X0057679Y0560842D01*
X0057716Y0560790D01*
X0057757Y0560740D01*
X0057800Y0560693D01*
X0057847Y0560648D01*
X0057895Y0560606D01*
X0057946Y0560567D01*
X0057999Y0560531D01*
X0058054Y0560497D01*
X0058111Y0560467D01*
X0058169Y0560441D01*
X0058229Y0560417D01*
X0058290Y0560398D01*
X0058352Y0560381D01*
X0058415Y0560368D01*
X0058479Y0560359D01*
X0058543Y0560354D01*
X0058607Y0560352D01*
X0058664Y0560354D01*
X0058721Y0560359D01*
X0058778Y0560369D01*
X0058833Y0560382D01*
X0058888Y0560398D01*
X0058942Y0560419D01*
X0058994Y0560442D01*
X0059045Y0560469D01*
X0059093Y0560499D01*
X0059140Y0560533D01*
X0059184Y0560569D01*
X0059226Y0560608D01*
X0059265Y0560650D01*
X0059301Y0560694D01*
X0059335Y0560741D01*
X0059365Y0560790D01*
X0059392Y0560840D01*
X0059415Y0560892D01*
X0059436Y0560946D01*
X0059452Y0561001D01*
X0059465Y0561056D01*
X0059475Y0561113D01*
X0059480Y0561170D01*
X0059482Y0561227D01*
X0059480Y0561286D01*
X0059475Y0561344D01*
X0059466Y0561402D01*
X0059453Y0561459D01*
X0059437Y0561515D01*
X0059417Y0561570D01*
X0059394Y0561624D01*
X0059368Y0561676D01*
X0059338Y0561727D01*
X0059305Y0561775D01*
X0059270Y0561822D01*
X0059231Y0561866D01*
X0059190Y0561908D01*
X0055771Y0561908D02*
X0054118Y0563852D01*
X0056062Y0563852D01*
X0054118Y0561130D02*
X0054139Y0561069D01*
X0054164Y0561010D01*
X0054192Y0560952D01*
X0054224Y0560896D01*
X0054259Y0560842D01*
X0054296Y0560790D01*
X0054337Y0560740D01*
X0054380Y0560693D01*
X0054427Y0560648D01*
X0054475Y0560606D01*
X0054526Y0560567D01*
X0054579Y0560531D01*
X0054634Y0560497D01*
X0054691Y0560467D01*
X0054749Y0560441D01*
X0054809Y0560417D01*
X0054870Y0560398D01*
X0054932Y0560381D01*
X0054995Y0560368D01*
X0055059Y0560359D01*
X0055123Y0560354D01*
X0055187Y0560352D01*
X0055244Y0560354D01*
X0055301Y0560359D01*
X0055358Y0560369D01*
X0055413Y0560382D01*
X0055468Y0560398D01*
X0055522Y0560419D01*
X0055574Y0560442D01*
X0055625Y0560469D01*
X0055673Y0560499D01*
X0055720Y0560533D01*
X0055764Y0560569D01*
X0055806Y0560608D01*
X0055845Y0560650D01*
X0055881Y0560694D01*
X0055915Y0560741D01*
X0055945Y0560790D01*
X0055972Y0560840D01*
X0055995Y0560892D01*
X0056016Y0560946D01*
X0056032Y0561001D01*
X0056045Y0561056D01*
X0056055Y0561113D01*
X0056060Y0561170D01*
X0056062Y0561227D01*
X0056060Y0561286D01*
X0056055Y0561344D01*
X0056046Y0561402D01*
X0056033Y0561459D01*
X0056017Y0561515D01*
X0055997Y0561570D01*
X0055974Y0561624D01*
X0055948Y0561676D01*
X0055918Y0561727D01*
X0055885Y0561775D01*
X0055850Y0561822D01*
X0055811Y0561866D01*
X0055770Y0561908D01*
X0056994Y0551552D02*
X0057772Y0548830D01*
X0055828Y0548830D01*
X0056411Y0549608D02*
X0056411Y0548052D01*
X0050757Y0548352D02*
X0049840Y0548352D01*
X0049781Y0548354D01*
X0049723Y0548360D01*
X0049665Y0548369D01*
X0049607Y0548382D01*
X0049551Y0548399D01*
X0049496Y0548419D01*
X0049442Y0548443D01*
X0049390Y0548470D01*
X0049340Y0548500D01*
X0049292Y0548534D01*
X0049246Y0548571D01*
X0049202Y0548610D01*
X0049161Y0548653D01*
X0049123Y0548697D01*
X0049088Y0548744D01*
X0049056Y0548794D01*
X0049027Y0548845D01*
X0049001Y0548898D01*
X0048979Y0548952D01*
X0048961Y0549008D01*
X0048946Y0549065D01*
X0048935Y0549123D01*
X0048927Y0549181D01*
X0048923Y0549240D01*
X0048923Y0549298D01*
X0048927Y0549357D01*
X0048935Y0549415D01*
X0048946Y0549473D01*
X0048961Y0549530D01*
X0048979Y0549586D01*
X0049001Y0549640D01*
X0049027Y0549693D01*
X0049056Y0549744D01*
X0049088Y0549794D01*
X0049123Y0549841D01*
X0049161Y0549885D01*
X0049202Y0549928D01*
X0049246Y0549967D01*
X0049292Y0550004D01*
X0049340Y0550038D01*
X0049390Y0550068D01*
X0049442Y0550095D01*
X0049496Y0550119D01*
X0049551Y0550139D01*
X0049607Y0550156D01*
X0049665Y0550169D01*
X0049723Y0550178D01*
X0049781Y0550184D01*
X0049840Y0550186D01*
X0049657Y0550185D02*
X0050390Y0550185D01*
X0049657Y0550186D02*
X0049605Y0550188D01*
X0049553Y0550193D01*
X0049501Y0550203D01*
X0049450Y0550216D01*
X0049401Y0550232D01*
X0049353Y0550252D01*
X0049306Y0550276D01*
X0049261Y0550302D01*
X0049218Y0550332D01*
X0049177Y0550365D01*
X0049139Y0550401D01*
X0049103Y0550439D01*
X0049070Y0550480D01*
X0049040Y0550523D01*
X0049014Y0550568D01*
X0048990Y0550615D01*
X0048970Y0550663D01*
X0048954Y0550712D01*
X0048941Y0550763D01*
X0048931Y0550815D01*
X0048926Y0550867D01*
X0048924Y0550919D01*
X0048926Y0550971D01*
X0048931Y0551023D01*
X0048941Y0551075D01*
X0048954Y0551126D01*
X0048970Y0551175D01*
X0048990Y0551223D01*
X0049014Y0551270D01*
X0049040Y0551315D01*
X0049070Y0551358D01*
X0049103Y0551399D01*
X0049139Y0551437D01*
X0049177Y0551473D01*
X0049218Y0551506D01*
X0049261Y0551536D01*
X0049306Y0551562D01*
X0049353Y0551586D01*
X0049401Y0551606D01*
X0049450Y0551622D01*
X0049501Y0551635D01*
X0049553Y0551645D01*
X0049605Y0551650D01*
X0049657Y0551652D01*
X0050757Y0551652D01*
X0047700Y0551652D02*
X0046600Y0548352D01*
X0045500Y0551652D01*
X0044277Y0551652D02*
X0043177Y0551652D01*
X0043125Y0551650D01*
X0043073Y0551645D01*
X0043021Y0551635D01*
X0042970Y0551622D01*
X0042921Y0551606D01*
X0042873Y0551586D01*
X0042826Y0551562D01*
X0042781Y0551536D01*
X0042738Y0551506D01*
X0042697Y0551473D01*
X0042659Y0551437D01*
X0042623Y0551399D01*
X0042590Y0551358D01*
X0042560Y0551315D01*
X0042534Y0551270D01*
X0042510Y0551223D01*
X0042490Y0551175D01*
X0042474Y0551126D01*
X0042461Y0551075D01*
X0042451Y0551023D01*
X0042446Y0550971D01*
X0042444Y0550919D01*
X0042446Y0550867D01*
X0042451Y0550815D01*
X0042461Y0550763D01*
X0042474Y0550712D01*
X0042490Y0550663D01*
X0042510Y0550615D01*
X0042534Y0550568D01*
X0042560Y0550523D01*
X0042590Y0550480D01*
X0042623Y0550439D01*
X0042659Y0550401D01*
X0042697Y0550365D01*
X0042738Y0550332D01*
X0042781Y0550302D01*
X0042826Y0550276D01*
X0042873Y0550252D01*
X0042921Y0550232D01*
X0042970Y0550216D01*
X0043021Y0550203D01*
X0043073Y0550193D01*
X0043125Y0550188D01*
X0043177Y0550186D01*
X0043177Y0550185D02*
X0043910Y0550185D01*
X0043360Y0550186D02*
X0043301Y0550184D01*
X0043243Y0550178D01*
X0043185Y0550169D01*
X0043127Y0550156D01*
X0043071Y0550139D01*
X0043016Y0550119D01*
X0042962Y0550095D01*
X0042910Y0550068D01*
X0042860Y0550038D01*
X0042812Y0550004D01*
X0042766Y0549967D01*
X0042722Y0549928D01*
X0042681Y0549885D01*
X0042643Y0549841D01*
X0042608Y0549794D01*
X0042576Y0549744D01*
X0042547Y0549693D01*
X0042521Y0549640D01*
X0042499Y0549586D01*
X0042481Y0549530D01*
X0042466Y0549473D01*
X0042455Y0549415D01*
X0042447Y0549357D01*
X0042443Y0549298D01*
X0042443Y0549240D01*
X0042447Y0549181D01*
X0042455Y0549123D01*
X0042466Y0549065D01*
X0042481Y0549008D01*
X0042499Y0548952D01*
X0042521Y0548898D01*
X0042547Y0548845D01*
X0042576Y0548794D01*
X0042608Y0548744D01*
X0042643Y0548697D01*
X0042681Y0548653D01*
X0042722Y0548610D01*
X0042766Y0548571D01*
X0042812Y0548534D01*
X0042860Y0548500D01*
X0042910Y0548470D01*
X0042962Y0548443D01*
X0043016Y0548419D01*
X0043071Y0548399D01*
X0043127Y0548382D01*
X0043185Y0548369D01*
X0043243Y0548360D01*
X0043301Y0548354D01*
X0043360Y0548352D01*
X0044277Y0548352D01*
X0039128Y0548352D02*
X0038028Y0548352D01*
X0037976Y0548354D01*
X0037924Y0548359D01*
X0037872Y0548369D01*
X0037821Y0548382D01*
X0037772Y0548398D01*
X0037724Y0548418D01*
X0037677Y0548442D01*
X0037632Y0548468D01*
X0037589Y0548498D01*
X0037548Y0548531D01*
X0037510Y0548567D01*
X0037474Y0548605D01*
X0037441Y0548646D01*
X0037411Y0548689D01*
X0037385Y0548734D01*
X0037361Y0548781D01*
X0037341Y0548829D01*
X0037325Y0548878D01*
X0037312Y0548929D01*
X0037302Y0548981D01*
X0037297Y0549033D01*
X0037295Y0549085D01*
X0037295Y0549452D01*
X0037297Y0549504D01*
X0037302Y0549556D01*
X0037312Y0549608D01*
X0037325Y0549659D01*
X0037341Y0549708D01*
X0037361Y0549757D01*
X0037385Y0549803D01*
X0037411Y0549848D01*
X0037441Y0549891D01*
X0037474Y0549932D01*
X0037510Y0549970D01*
X0037548Y0550006D01*
X0037589Y0550039D01*
X0037632Y0550069D01*
X0037677Y0550095D01*
X0037724Y0550119D01*
X0037772Y0550139D01*
X0037821Y0550155D01*
X0037872Y0550168D01*
X0037924Y0550178D01*
X0037976Y0550183D01*
X0038028Y0550185D01*
X0039128Y0550185D01*
X0039128Y0551652D01*
X0037295Y0551652D01*
X0036072Y0551652D02*
X0034972Y0548352D01*
X0033872Y0551652D01*
X0031273Y0551019D02*
X0031273Y0549185D01*
X0031272Y0549185D02*
X0031270Y0549133D01*
X0031265Y0549081D01*
X0031255Y0549029D01*
X0031242Y0548978D01*
X0031226Y0548929D01*
X0031206Y0548881D01*
X0031182Y0548834D01*
X0031156Y0548789D01*
X0031126Y0548746D01*
X0031093Y0548705D01*
X0031057Y0548667D01*
X0031019Y0548631D01*
X0030978Y0548598D01*
X0030935Y0548568D01*
X0030890Y0548542D01*
X0030844Y0548518D01*
X0030795Y0548498D01*
X0030746Y0548482D01*
X0030695Y0548469D01*
X0030643Y0548459D01*
X0030591Y0548454D01*
X0030539Y0548452D01*
X0029439Y0548452D01*
X0029439Y0550285D01*
X0029989Y0550285D01*
X0031272Y0551019D02*
X0031270Y0551071D01*
X0031265Y0551123D01*
X0031255Y0551175D01*
X0031242Y0551226D01*
X0031226Y0551275D01*
X0031206Y0551323D01*
X0031182Y0551370D01*
X0031156Y0551415D01*
X0031126Y0551458D01*
X0031093Y0551499D01*
X0031057Y0551537D01*
X0031019Y0551573D01*
X0030978Y0551606D01*
X0030935Y0551636D01*
X0030890Y0551662D01*
X0030844Y0551686D01*
X0030795Y0551706D01*
X0030746Y0551722D01*
X0030695Y0551735D01*
X0030643Y0551745D01*
X0030591Y0551750D01*
X0030539Y0551752D01*
X0029439Y0551752D01*
X0027817Y0551752D02*
X0025983Y0548452D01*
X0025983Y0551752D01*
X0024361Y0551752D02*
X0024361Y0548452D01*
X0023444Y0548452D01*
X0023386Y0548454D01*
X0023329Y0548459D01*
X0023272Y0548468D01*
X0023216Y0548481D01*
X0023161Y0548497D01*
X0023106Y0548516D01*
X0023054Y0548539D01*
X0023002Y0548565D01*
X0022953Y0548595D01*
X0022905Y0548627D01*
X0022859Y0548662D01*
X0022816Y0548701D01*
X0022776Y0548741D01*
X0022737Y0548784D01*
X0022702Y0548830D01*
X0022670Y0548878D01*
X0022640Y0548927D01*
X0022614Y0548979D01*
X0022591Y0549031D01*
X0022572Y0549086D01*
X0022556Y0549141D01*
X0022543Y0549197D01*
X0022534Y0549254D01*
X0022529Y0549311D01*
X0022527Y0549369D01*
X0022527Y0550835D01*
X0022529Y0550895D01*
X0022535Y0550955D01*
X0022545Y0551014D01*
X0022558Y0551072D01*
X0022576Y0551130D01*
X0022597Y0551186D01*
X0022622Y0551241D01*
X0022650Y0551294D01*
X0022682Y0551344D01*
X0022716Y0551393D01*
X0022755Y0551440D01*
X0022796Y0551483D01*
X0022839Y0551524D01*
X0022886Y0551563D01*
X0022935Y0551597D01*
X0022986Y0551629D01*
X0023038Y0551657D01*
X0023093Y0551682D01*
X0023149Y0551703D01*
X0023207Y0551721D01*
X0023265Y0551734D01*
X0023324Y0551744D01*
X0023384Y0551750D01*
X0023444Y0551752D01*
X0024361Y0551752D01*
X0020670Y0551752D02*
X0020670Y0548452D01*
X0019753Y0548452D01*
X0019694Y0548454D01*
X0019636Y0548460D01*
X0019578Y0548469D01*
X0019520Y0548482D01*
X0019464Y0548499D01*
X0019409Y0548519D01*
X0019355Y0548543D01*
X0019303Y0548570D01*
X0019253Y0548600D01*
X0019205Y0548634D01*
X0019159Y0548671D01*
X0019115Y0548710D01*
X0019074Y0548753D01*
X0019036Y0548797D01*
X0019001Y0548844D01*
X0018969Y0548894D01*
X0018940Y0548945D01*
X0018914Y0548998D01*
X0018892Y0549052D01*
X0018874Y0549108D01*
X0018859Y0549165D01*
X0018848Y0549223D01*
X0018840Y0549281D01*
X0018836Y0549340D01*
X0018836Y0549398D01*
X0018840Y0549457D01*
X0018848Y0549515D01*
X0018859Y0549573D01*
X0018874Y0549630D01*
X0018892Y0549686D01*
X0018914Y0549740D01*
X0018940Y0549793D01*
X0018969Y0549844D01*
X0019001Y0549894D01*
X0019036Y0549941D01*
X0019074Y0549985D01*
X0019115Y0550028D01*
X0019159Y0550067D01*
X0019205Y0550104D01*
X0019253Y0550138D01*
X0019303Y0550168D01*
X0019355Y0550195D01*
X0019409Y0550219D01*
X0019464Y0550239D01*
X0019520Y0550256D01*
X0019578Y0550269D01*
X0019636Y0550278D01*
X0019694Y0550284D01*
X0019753Y0550286D01*
X0019753Y0550285D02*
X0020670Y0550285D01*
X0019753Y0550286D02*
X0019701Y0550288D01*
X0019649Y0550293D01*
X0019597Y0550303D01*
X0019546Y0550316D01*
X0019497Y0550332D01*
X0019449Y0550352D01*
X0019402Y0550376D01*
X0019357Y0550402D01*
X0019314Y0550432D01*
X0019273Y0550465D01*
X0019235Y0550501D01*
X0019199Y0550539D01*
X0019166Y0550580D01*
X0019136Y0550623D01*
X0019110Y0550668D01*
X0019086Y0550715D01*
X0019066Y0550763D01*
X0019050Y0550812D01*
X0019037Y0550863D01*
X0019027Y0550915D01*
X0019022Y0550967D01*
X0019020Y0551019D01*
X0019022Y0551071D01*
X0019027Y0551123D01*
X0019037Y0551175D01*
X0019050Y0551226D01*
X0019066Y0551275D01*
X0019086Y0551323D01*
X0019110Y0551370D01*
X0019136Y0551415D01*
X0019166Y0551458D01*
X0019199Y0551499D01*
X0019235Y0551537D01*
X0019273Y0551573D01*
X0019314Y0551606D01*
X0019357Y0551636D01*
X0019402Y0551662D01*
X0019449Y0551686D01*
X0019497Y0551706D01*
X0019546Y0551722D01*
X0019597Y0551735D01*
X0019649Y0551745D01*
X0019701Y0551750D01*
X0019753Y0551752D01*
X0020670Y0551752D01*
X0016670Y0551752D02*
X0017770Y0548452D01*
X0017495Y0549277D02*
X0015845Y0549277D01*
X0015570Y0548452D02*
X0016670Y0551752D01*
X0014563Y0551752D02*
X0012730Y0551752D01*
X0013647Y0551752D02*
X0013647Y0548452D01*
X0017538Y0560352D02*
X0018704Y0560352D01*
X0018760Y0560354D01*
X0018815Y0560360D01*
X0018869Y0560370D01*
X0018923Y0560384D01*
X0018976Y0560401D01*
X0019027Y0560422D01*
X0019077Y0560447D01*
X0019125Y0560476D01*
X0019170Y0560507D01*
X0019213Y0560542D01*
X0019254Y0560580D01*
X0019292Y0560621D01*
X0019327Y0560664D01*
X0019358Y0560709D01*
X0019387Y0560757D01*
X0019412Y0560807D01*
X0019433Y0560858D01*
X0019450Y0560911D01*
X0019464Y0560965D01*
X0019474Y0561019D01*
X0019480Y0561074D01*
X0019482Y0561130D01*
X0019480Y0561186D01*
X0019474Y0561241D01*
X0019464Y0561295D01*
X0019450Y0561349D01*
X0019433Y0561402D01*
X0019412Y0561453D01*
X0019387Y0561503D01*
X0019358Y0561551D01*
X0019327Y0561596D01*
X0019292Y0561639D01*
X0019254Y0561680D01*
X0019213Y0561718D01*
X0019170Y0561753D01*
X0019125Y0561784D01*
X0019077Y0561813D01*
X0019027Y0561838D01*
X0018976Y0561859D01*
X0018923Y0561876D01*
X0018869Y0561890D01*
X0018815Y0561900D01*
X0018760Y0561906D01*
X0018704Y0561908D01*
X0017927Y0561908D01*
X0018510Y0561908D02*
X0018571Y0561910D01*
X0018632Y0561916D01*
X0018692Y0561925D01*
X0018752Y0561939D01*
X0018810Y0561956D01*
X0018868Y0561976D01*
X0018924Y0562001D01*
X0018978Y0562028D01*
X0019031Y0562059D01*
X0019081Y0562094D01*
X0019130Y0562131D01*
X0019175Y0562171D01*
X0019219Y0562215D01*
X0019259Y0562260D01*
X0019296Y0562309D01*
X0019331Y0562359D01*
X0019362Y0562412D01*
X0019389Y0562466D01*
X0019414Y0562522D01*
X0019434Y0562580D01*
X0019451Y0562638D01*
X0019465Y0562698D01*
X0019474Y0562758D01*
X0019480Y0562819D01*
X0019482Y0562880D01*
X0019480Y0562941D01*
X0019474Y0563002D01*
X0019465Y0563062D01*
X0019451Y0563122D01*
X0019434Y0563180D01*
X0019414Y0563238D01*
X0019389Y0563294D01*
X0019362Y0563348D01*
X0019331Y0563401D01*
X0019296Y0563451D01*
X0019259Y0563500D01*
X0019219Y0563545D01*
X0019175Y0563589D01*
X0019130Y0563629D01*
X0019081Y0563666D01*
X0019031Y0563701D01*
X0018978Y0563732D01*
X0018924Y0563759D01*
X0018868Y0563784D01*
X0018810Y0563804D01*
X0018752Y0563821D01*
X0018692Y0563835D01*
X0018632Y0563844D01*
X0018571Y0563850D01*
X0018510Y0563852D01*
X0017538Y0563852D01*
X0016062Y0563852D02*
X0014118Y0563852D01*
X0015771Y0561908D01*
X0015187Y0560352D02*
X0015123Y0560354D01*
X0015059Y0560359D01*
X0014995Y0560368D01*
X0014932Y0560381D01*
X0014870Y0560398D01*
X0014809Y0560417D01*
X0014749Y0560441D01*
X0014691Y0560467D01*
X0014634Y0560497D01*
X0014579Y0560531D01*
X0014526Y0560567D01*
X0014475Y0560606D01*
X0014427Y0560648D01*
X0014380Y0560693D01*
X0014337Y0560740D01*
X0014296Y0560790D01*
X0014259Y0560842D01*
X0014224Y0560896D01*
X0014192Y0560952D01*
X0014164Y0561010D01*
X0014139Y0561069D01*
X0014118Y0561130D01*
X0015770Y0561908D02*
X0015811Y0561866D01*
X0015850Y0561822D01*
X0015885Y0561775D01*
X0015918Y0561727D01*
X0015948Y0561676D01*
X0015974Y0561624D01*
X0015997Y0561570D01*
X0016017Y0561515D01*
X0016033Y0561459D01*
X0016046Y0561402D01*
X0016055Y0561344D01*
X0016060Y0561286D01*
X0016062Y0561227D01*
X0016060Y0561170D01*
X0016055Y0561113D01*
X0016045Y0561056D01*
X0016032Y0561001D01*
X0016016Y0560946D01*
X0015995Y0560892D01*
X0015972Y0560840D01*
X0015945Y0560790D01*
X0015915Y0560741D01*
X0015881Y0560694D01*
X0015845Y0560650D01*
X0015806Y0560608D01*
X0015764Y0560569D01*
X0015720Y0560533D01*
X0015673Y0560499D01*
X0015625Y0560469D01*
X0015574Y0560442D01*
X0015522Y0560419D01*
X0015468Y0560398D01*
X0015413Y0560382D01*
X0015358Y0560369D01*
X0015301Y0560359D01*
X0015244Y0560354D01*
X0015187Y0560352D01*
X0024118Y0561130D02*
X0025090Y0560352D01*
X0025090Y0563852D01*
X0024118Y0563852D02*
X0026062Y0563852D01*
X0027927Y0563852D02*
X0028003Y0563850D01*
X0028080Y0563845D01*
X0028155Y0563835D01*
X0028231Y0563822D01*
X0028305Y0563805D01*
X0028379Y0563785D01*
X0028451Y0563761D01*
X0028522Y0563734D01*
X0028592Y0563703D01*
X0028660Y0563668D01*
X0028727Y0563631D01*
X0028791Y0563590D01*
X0028854Y0563546D01*
X0028914Y0563499D01*
X0028972Y0563449D01*
X0029027Y0563396D01*
X0029080Y0563341D01*
X0029130Y0563283D01*
X0029177Y0563223D01*
X0029221Y0563160D01*
X0029262Y0563096D01*
X0029299Y0563029D01*
X0029334Y0562961D01*
X0029365Y0562891D01*
X0029392Y0562820D01*
X0029416Y0562748D01*
X0029436Y0562674D01*
X0029453Y0562600D01*
X0029466Y0562524D01*
X0029476Y0562449D01*
X0029481Y0562372D01*
X0029483Y0562296D01*
X0029482Y0562296D02*
X0029482Y0561324D01*
X0029480Y0561263D01*
X0029474Y0561202D01*
X0029465Y0561142D01*
X0029451Y0561082D01*
X0029434Y0561024D01*
X0029414Y0560966D01*
X0029389Y0560910D01*
X0029362Y0560856D01*
X0029331Y0560803D01*
X0029296Y0560753D01*
X0029259Y0560704D01*
X0029219Y0560659D01*
X0029175Y0560615D01*
X0029130Y0560575D01*
X0029081Y0560538D01*
X0029031Y0560503D01*
X0028978Y0560472D01*
X0028924Y0560445D01*
X0028868Y0560420D01*
X0028810Y0560400D01*
X0028752Y0560383D01*
X0028692Y0560369D01*
X0028632Y0560360D01*
X0028571Y0560354D01*
X0028510Y0560352D01*
X0028449Y0560354D01*
X0028388Y0560360D01*
X0028328Y0560369D01*
X0028268Y0560383D01*
X0028210Y0560400D01*
X0028152Y0560420D01*
X0028096Y0560445D01*
X0028042Y0560472D01*
X0027989Y0560503D01*
X0027939Y0560538D01*
X0027890Y0560575D01*
X0027845Y0560615D01*
X0027801Y0560659D01*
X0027761Y0560704D01*
X0027724Y0560753D01*
X0027689Y0560803D01*
X0027658Y0560856D01*
X0027631Y0560910D01*
X0027606Y0560966D01*
X0027586Y0561024D01*
X0027569Y0561082D01*
X0027555Y0561142D01*
X0027546Y0561202D01*
X0027540Y0561263D01*
X0027538Y0561324D01*
X0027538Y0561519D01*
X0027540Y0561575D01*
X0027546Y0561630D01*
X0027556Y0561684D01*
X0027570Y0561738D01*
X0027587Y0561791D01*
X0027608Y0561842D01*
X0027633Y0561892D01*
X0027662Y0561940D01*
X0027693Y0561985D01*
X0027728Y0562028D01*
X0027766Y0562069D01*
X0027807Y0562107D01*
X0027850Y0562142D01*
X0027895Y0562173D01*
X0027943Y0562202D01*
X0027993Y0562227D01*
X0028044Y0562248D01*
X0028097Y0562265D01*
X0028151Y0562279D01*
X0028205Y0562289D01*
X0028260Y0562295D01*
X0028316Y0562297D01*
X0028316Y0562296D02*
X0029482Y0562296D01*
X0027817Y0551752D02*
X0027817Y0548452D01*
X0035090Y0560352D02*
X0034118Y0561130D01*
X0035090Y0560352D02*
X0035090Y0563852D01*
X0034118Y0563852D02*
X0036062Y0563852D01*
X0037538Y0562880D02*
X0037540Y0562941D01*
X0037546Y0563002D01*
X0037555Y0563062D01*
X0037569Y0563122D01*
X0037586Y0563180D01*
X0037606Y0563238D01*
X0037631Y0563294D01*
X0037658Y0563348D01*
X0037689Y0563401D01*
X0037724Y0563451D01*
X0037761Y0563500D01*
X0037801Y0563545D01*
X0037845Y0563589D01*
X0037890Y0563629D01*
X0037939Y0563666D01*
X0037989Y0563701D01*
X0038042Y0563732D01*
X0038096Y0563759D01*
X0038152Y0563784D01*
X0038210Y0563804D01*
X0038268Y0563821D01*
X0038328Y0563835D01*
X0038388Y0563844D01*
X0038449Y0563850D01*
X0038510Y0563852D01*
X0038571Y0563850D01*
X0038632Y0563844D01*
X0038692Y0563835D01*
X0038752Y0563821D01*
X0038810Y0563804D01*
X0038868Y0563784D01*
X0038924Y0563759D01*
X0038978Y0563732D01*
X0039031Y0563701D01*
X0039081Y0563666D01*
X0039130Y0563629D01*
X0039175Y0563589D01*
X0039219Y0563545D01*
X0039259Y0563500D01*
X0039296Y0563451D01*
X0039331Y0563401D01*
X0039362Y0563348D01*
X0039389Y0563294D01*
X0039414Y0563238D01*
X0039434Y0563180D01*
X0039451Y0563122D01*
X0039465Y0563062D01*
X0039474Y0563002D01*
X0039480Y0562941D01*
X0039482Y0562880D01*
X0039480Y0562819D01*
X0039474Y0562758D01*
X0039465Y0562698D01*
X0039451Y0562638D01*
X0039434Y0562580D01*
X0039414Y0562522D01*
X0039389Y0562466D01*
X0039362Y0562412D01*
X0039331Y0562359D01*
X0039296Y0562309D01*
X0039259Y0562260D01*
X0039219Y0562215D01*
X0039175Y0562171D01*
X0039130Y0562131D01*
X0039081Y0562094D01*
X0039031Y0562059D01*
X0038978Y0562028D01*
X0038924Y0562001D01*
X0038868Y0561976D01*
X0038810Y0561956D01*
X0038752Y0561939D01*
X0038692Y0561925D01*
X0038632Y0561916D01*
X0038571Y0561910D01*
X0038510Y0561908D01*
X0038449Y0561910D01*
X0038388Y0561916D01*
X0038328Y0561925D01*
X0038268Y0561939D01*
X0038210Y0561956D01*
X0038152Y0561976D01*
X0038096Y0562001D01*
X0038042Y0562028D01*
X0037989Y0562059D01*
X0037939Y0562094D01*
X0037890Y0562131D01*
X0037845Y0562171D01*
X0037801Y0562215D01*
X0037761Y0562260D01*
X0037724Y0562309D01*
X0037689Y0562359D01*
X0037658Y0562412D01*
X0037631Y0562466D01*
X0037606Y0562522D01*
X0037586Y0562580D01*
X0037569Y0562638D01*
X0037555Y0562698D01*
X0037546Y0562758D01*
X0037540Y0562819D01*
X0037538Y0562880D01*
X0037732Y0561130D02*
X0037734Y0561186D01*
X0037740Y0561241D01*
X0037750Y0561295D01*
X0037764Y0561349D01*
X0037781Y0561402D01*
X0037802Y0561453D01*
X0037827Y0561503D01*
X0037856Y0561551D01*
X0037887Y0561596D01*
X0037922Y0561639D01*
X0037960Y0561680D01*
X0038001Y0561718D01*
X0038044Y0561753D01*
X0038089Y0561784D01*
X0038137Y0561813D01*
X0038187Y0561838D01*
X0038238Y0561859D01*
X0038291Y0561876D01*
X0038345Y0561890D01*
X0038399Y0561900D01*
X0038454Y0561906D01*
X0038510Y0561908D01*
X0038566Y0561906D01*
X0038621Y0561900D01*
X0038675Y0561890D01*
X0038729Y0561876D01*
X0038782Y0561859D01*
X0038833Y0561838D01*
X0038883Y0561813D01*
X0038931Y0561784D01*
X0038976Y0561753D01*
X0039019Y0561718D01*
X0039060Y0561680D01*
X0039098Y0561639D01*
X0039133Y0561596D01*
X0039164Y0561551D01*
X0039193Y0561503D01*
X0039218Y0561453D01*
X0039239Y0561402D01*
X0039256Y0561349D01*
X0039270Y0561295D01*
X0039280Y0561241D01*
X0039286Y0561186D01*
X0039288Y0561130D01*
X0039286Y0561074D01*
X0039280Y0561019D01*
X0039270Y0560965D01*
X0039256Y0560911D01*
X0039239Y0560858D01*
X0039218Y0560807D01*
X0039193Y0560757D01*
X0039164Y0560709D01*
X0039133Y0560664D01*
X0039098Y0560621D01*
X0039060Y0560580D01*
X0039019Y0560542D01*
X0038976Y0560507D01*
X0038931Y0560476D01*
X0038883Y0560447D01*
X0038833Y0560422D01*
X0038782Y0560401D01*
X0038729Y0560384D01*
X0038675Y0560370D01*
X0038621Y0560360D01*
X0038566Y0560354D01*
X0038510Y0560352D01*
X0038454Y0560354D01*
X0038399Y0560360D01*
X0038345Y0560370D01*
X0038291Y0560384D01*
X0038238Y0560401D01*
X0038187Y0560422D01*
X0038137Y0560447D01*
X0038089Y0560476D01*
X0038044Y0560507D01*
X0038001Y0560542D01*
X0037960Y0560580D01*
X0037922Y0560621D01*
X0037887Y0560664D01*
X0037856Y0560709D01*
X0037827Y0560757D01*
X0037802Y0560807D01*
X0037781Y0560858D01*
X0037764Y0560911D01*
X0037750Y0560965D01*
X0037740Y0561019D01*
X0037734Y0561074D01*
X0037732Y0561130D01*
X0045828Y0561908D02*
X0045828Y0560352D01*
X0047772Y0560352D01*
X0046994Y0561908D02*
X0045828Y0561908D01*
X0046994Y0561907D02*
X0047050Y0561909D01*
X0047105Y0561915D01*
X0047159Y0561925D01*
X0047213Y0561939D01*
X0047266Y0561956D01*
X0047317Y0561977D01*
X0047367Y0562002D01*
X0047415Y0562031D01*
X0047460Y0562062D01*
X0047503Y0562097D01*
X0047544Y0562135D01*
X0047582Y0562176D01*
X0047617Y0562219D01*
X0047648Y0562264D01*
X0047677Y0562312D01*
X0047702Y0562362D01*
X0047723Y0562413D01*
X0047740Y0562466D01*
X0047754Y0562520D01*
X0047764Y0562574D01*
X0047770Y0562629D01*
X0047772Y0562685D01*
X0047772Y0563074D01*
X0047770Y0563130D01*
X0047764Y0563185D01*
X0047754Y0563239D01*
X0047740Y0563293D01*
X0047723Y0563346D01*
X0047702Y0563397D01*
X0047677Y0563447D01*
X0047648Y0563495D01*
X0047617Y0563540D01*
X0047582Y0563583D01*
X0047544Y0563624D01*
X0047503Y0563662D01*
X0047460Y0563697D01*
X0047415Y0563729D01*
X0047367Y0563757D01*
X0047317Y0563782D01*
X0047266Y0563803D01*
X0047213Y0563820D01*
X0047159Y0563834D01*
X0047105Y0563844D01*
X0047050Y0563850D01*
X0046994Y0563852D01*
X0045828Y0563852D01*
X0046600Y0633352D02*
X0045500Y0636652D01*
X0044277Y0636652D02*
X0043177Y0636652D01*
X0043125Y0636650D01*
X0043073Y0636645D01*
X0043021Y0636635D01*
X0042970Y0636622D01*
X0042921Y0636606D01*
X0042873Y0636586D01*
X0042826Y0636562D01*
X0042781Y0636536D01*
X0042738Y0636506D01*
X0042697Y0636473D01*
X0042659Y0636437D01*
X0042623Y0636399D01*
X0042590Y0636358D01*
X0042560Y0636315D01*
X0042534Y0636270D01*
X0042510Y0636223D01*
X0042490Y0636175D01*
X0042474Y0636126D01*
X0042461Y0636075D01*
X0042451Y0636023D01*
X0042446Y0635971D01*
X0042444Y0635919D01*
X0042446Y0635867D01*
X0042451Y0635815D01*
X0042461Y0635763D01*
X0042474Y0635712D01*
X0042490Y0635663D01*
X0042510Y0635615D01*
X0042534Y0635568D01*
X0042560Y0635523D01*
X0042590Y0635480D01*
X0042623Y0635439D01*
X0042659Y0635401D01*
X0042697Y0635365D01*
X0042738Y0635332D01*
X0042781Y0635302D01*
X0042826Y0635276D01*
X0042873Y0635252D01*
X0042921Y0635232D01*
X0042970Y0635216D01*
X0043021Y0635203D01*
X0043073Y0635193D01*
X0043125Y0635188D01*
X0043177Y0635186D01*
X0043177Y0635185D02*
X0043910Y0635185D01*
X0043360Y0635186D02*
X0043301Y0635184D01*
X0043243Y0635178D01*
X0043185Y0635169D01*
X0043127Y0635156D01*
X0043071Y0635139D01*
X0043016Y0635119D01*
X0042962Y0635095D01*
X0042910Y0635068D01*
X0042860Y0635038D01*
X0042812Y0635004D01*
X0042766Y0634967D01*
X0042722Y0634928D01*
X0042681Y0634885D01*
X0042643Y0634841D01*
X0042608Y0634794D01*
X0042576Y0634744D01*
X0042547Y0634693D01*
X0042521Y0634640D01*
X0042499Y0634586D01*
X0042481Y0634530D01*
X0042466Y0634473D01*
X0042455Y0634415D01*
X0042447Y0634357D01*
X0042443Y0634298D01*
X0042443Y0634240D01*
X0042447Y0634181D01*
X0042455Y0634123D01*
X0042466Y0634065D01*
X0042481Y0634008D01*
X0042499Y0633952D01*
X0042521Y0633898D01*
X0042547Y0633845D01*
X0042576Y0633794D01*
X0042608Y0633744D01*
X0042643Y0633697D01*
X0042681Y0633653D01*
X0042722Y0633610D01*
X0042766Y0633571D01*
X0042812Y0633534D01*
X0042860Y0633500D01*
X0042910Y0633470D01*
X0042962Y0633443D01*
X0043016Y0633419D01*
X0043071Y0633399D01*
X0043127Y0633382D01*
X0043185Y0633369D01*
X0043243Y0633360D01*
X0043301Y0633354D01*
X0043360Y0633352D01*
X0044277Y0633352D01*
X0046600Y0633352D02*
X0047700Y0636652D01*
X0049657Y0636652D02*
X0050757Y0636652D01*
X0049657Y0636652D02*
X0049605Y0636650D01*
X0049553Y0636645D01*
X0049501Y0636635D01*
X0049450Y0636622D01*
X0049401Y0636606D01*
X0049353Y0636586D01*
X0049306Y0636562D01*
X0049261Y0636536D01*
X0049218Y0636506D01*
X0049177Y0636473D01*
X0049139Y0636437D01*
X0049103Y0636399D01*
X0049070Y0636358D01*
X0049040Y0636315D01*
X0049014Y0636270D01*
X0048990Y0636223D01*
X0048970Y0636175D01*
X0048954Y0636126D01*
X0048941Y0636075D01*
X0048931Y0636023D01*
X0048926Y0635971D01*
X0048924Y0635919D01*
X0048926Y0635867D01*
X0048931Y0635815D01*
X0048941Y0635763D01*
X0048954Y0635712D01*
X0048970Y0635663D01*
X0048990Y0635615D01*
X0049014Y0635568D01*
X0049040Y0635523D01*
X0049070Y0635480D01*
X0049103Y0635439D01*
X0049139Y0635401D01*
X0049177Y0635365D01*
X0049218Y0635332D01*
X0049261Y0635302D01*
X0049306Y0635276D01*
X0049353Y0635252D01*
X0049401Y0635232D01*
X0049450Y0635216D01*
X0049501Y0635203D01*
X0049553Y0635193D01*
X0049605Y0635188D01*
X0049657Y0635186D01*
X0049657Y0635185D02*
X0050390Y0635185D01*
X0049840Y0635186D02*
X0049781Y0635184D01*
X0049723Y0635178D01*
X0049665Y0635169D01*
X0049607Y0635156D01*
X0049551Y0635139D01*
X0049496Y0635119D01*
X0049442Y0635095D01*
X0049390Y0635068D01*
X0049340Y0635038D01*
X0049292Y0635004D01*
X0049246Y0634967D01*
X0049202Y0634928D01*
X0049161Y0634885D01*
X0049123Y0634841D01*
X0049088Y0634794D01*
X0049056Y0634744D01*
X0049027Y0634693D01*
X0049001Y0634640D01*
X0048979Y0634586D01*
X0048961Y0634530D01*
X0048946Y0634473D01*
X0048935Y0634415D01*
X0048927Y0634357D01*
X0048923Y0634298D01*
X0048923Y0634240D01*
X0048927Y0634181D01*
X0048935Y0634123D01*
X0048946Y0634065D01*
X0048961Y0634008D01*
X0048979Y0633952D01*
X0049001Y0633898D01*
X0049027Y0633845D01*
X0049056Y0633794D01*
X0049088Y0633744D01*
X0049123Y0633697D01*
X0049161Y0633653D01*
X0049202Y0633610D01*
X0049246Y0633571D01*
X0049292Y0633534D01*
X0049340Y0633500D01*
X0049390Y0633470D01*
X0049442Y0633443D01*
X0049496Y0633419D01*
X0049551Y0633399D01*
X0049607Y0633382D01*
X0049665Y0633369D01*
X0049723Y0633360D01*
X0049781Y0633354D01*
X0049840Y0633352D01*
X0050757Y0633352D01*
X0047772Y0645352D02*
X0045828Y0645352D01*
X0045828Y0646908D01*
X0046994Y0646908D01*
X0046994Y0646907D02*
X0047050Y0646909D01*
X0047105Y0646915D01*
X0047159Y0646925D01*
X0047213Y0646939D01*
X0047266Y0646956D01*
X0047317Y0646977D01*
X0047367Y0647002D01*
X0047415Y0647031D01*
X0047460Y0647062D01*
X0047503Y0647097D01*
X0047544Y0647135D01*
X0047582Y0647176D01*
X0047617Y0647219D01*
X0047648Y0647264D01*
X0047677Y0647312D01*
X0047702Y0647362D01*
X0047723Y0647413D01*
X0047740Y0647466D01*
X0047754Y0647520D01*
X0047764Y0647574D01*
X0047770Y0647629D01*
X0047772Y0647685D01*
X0047772Y0648074D01*
X0047770Y0648130D01*
X0047764Y0648185D01*
X0047754Y0648239D01*
X0047740Y0648293D01*
X0047723Y0648346D01*
X0047702Y0648397D01*
X0047677Y0648447D01*
X0047648Y0648495D01*
X0047617Y0648540D01*
X0047582Y0648583D01*
X0047544Y0648624D01*
X0047503Y0648662D01*
X0047460Y0648697D01*
X0047415Y0648729D01*
X0047367Y0648757D01*
X0047317Y0648782D01*
X0047266Y0648803D01*
X0047213Y0648820D01*
X0047159Y0648834D01*
X0047105Y0648844D01*
X0047050Y0648850D01*
X0046994Y0648852D01*
X0045828Y0648852D01*
X0039482Y0647880D02*
X0039480Y0647941D01*
X0039474Y0648002D01*
X0039465Y0648062D01*
X0039451Y0648122D01*
X0039434Y0648180D01*
X0039414Y0648238D01*
X0039389Y0648294D01*
X0039362Y0648348D01*
X0039331Y0648401D01*
X0039296Y0648451D01*
X0039259Y0648500D01*
X0039219Y0648545D01*
X0039175Y0648589D01*
X0039130Y0648629D01*
X0039081Y0648666D01*
X0039031Y0648701D01*
X0038978Y0648732D01*
X0038924Y0648759D01*
X0038868Y0648784D01*
X0038810Y0648804D01*
X0038752Y0648821D01*
X0038692Y0648835D01*
X0038632Y0648844D01*
X0038571Y0648850D01*
X0038510Y0648852D01*
X0038449Y0648850D01*
X0038388Y0648844D01*
X0038328Y0648835D01*
X0038268Y0648821D01*
X0038210Y0648804D01*
X0038152Y0648784D01*
X0038096Y0648759D01*
X0038042Y0648732D01*
X0037989Y0648701D01*
X0037939Y0648666D01*
X0037890Y0648629D01*
X0037845Y0648589D01*
X0037801Y0648545D01*
X0037761Y0648500D01*
X0037724Y0648451D01*
X0037689Y0648401D01*
X0037658Y0648348D01*
X0037631Y0648294D01*
X0037606Y0648238D01*
X0037586Y0648180D01*
X0037569Y0648122D01*
X0037555Y0648062D01*
X0037546Y0648002D01*
X0037540Y0647941D01*
X0037538Y0647880D01*
X0037540Y0647819D01*
X0037546Y0647758D01*
X0037555Y0647698D01*
X0037569Y0647638D01*
X0037586Y0647580D01*
X0037606Y0647522D01*
X0037631Y0647466D01*
X0037658Y0647412D01*
X0037689Y0647359D01*
X0037724Y0647309D01*
X0037761Y0647260D01*
X0037801Y0647215D01*
X0037845Y0647171D01*
X0037890Y0647131D01*
X0037939Y0647094D01*
X0037989Y0647059D01*
X0038042Y0647028D01*
X0038096Y0647001D01*
X0038152Y0646976D01*
X0038210Y0646956D01*
X0038268Y0646939D01*
X0038328Y0646925D01*
X0038388Y0646916D01*
X0038449Y0646910D01*
X0038510Y0646908D01*
X0038571Y0646910D01*
X0038632Y0646916D01*
X0038692Y0646925D01*
X0038752Y0646939D01*
X0038810Y0646956D01*
X0038868Y0646976D01*
X0038924Y0647001D01*
X0038978Y0647028D01*
X0039031Y0647059D01*
X0039081Y0647094D01*
X0039130Y0647131D01*
X0039175Y0647171D01*
X0039219Y0647215D01*
X0039259Y0647260D01*
X0039296Y0647309D01*
X0039331Y0647359D01*
X0039362Y0647412D01*
X0039389Y0647466D01*
X0039414Y0647522D01*
X0039434Y0647580D01*
X0039451Y0647638D01*
X0039465Y0647698D01*
X0039474Y0647758D01*
X0039480Y0647819D01*
X0039482Y0647880D01*
X0039288Y0646130D02*
X0039286Y0646186D01*
X0039280Y0646241D01*
X0039270Y0646295D01*
X0039256Y0646349D01*
X0039239Y0646402D01*
X0039218Y0646453D01*
X0039193Y0646503D01*
X0039164Y0646551D01*
X0039133Y0646596D01*
X0039098Y0646639D01*
X0039060Y0646680D01*
X0039019Y0646718D01*
X0038976Y0646753D01*
X0038931Y0646784D01*
X0038883Y0646813D01*
X0038833Y0646838D01*
X0038782Y0646859D01*
X0038729Y0646876D01*
X0038675Y0646890D01*
X0038621Y0646900D01*
X0038566Y0646906D01*
X0038510Y0646908D01*
X0038454Y0646906D01*
X0038399Y0646900D01*
X0038345Y0646890D01*
X0038291Y0646876D01*
X0038238Y0646859D01*
X0038187Y0646838D01*
X0038137Y0646813D01*
X0038089Y0646784D01*
X0038044Y0646753D01*
X0038001Y0646718D01*
X0037960Y0646680D01*
X0037922Y0646639D01*
X0037887Y0646596D01*
X0037856Y0646551D01*
X0037827Y0646503D01*
X0037802Y0646453D01*
X0037781Y0646402D01*
X0037764Y0646349D01*
X0037750Y0646295D01*
X0037740Y0646241D01*
X0037734Y0646186D01*
X0037732Y0646130D01*
X0037734Y0646074D01*
X0037740Y0646019D01*
X0037750Y0645965D01*
X0037764Y0645911D01*
X0037781Y0645858D01*
X0037802Y0645807D01*
X0037827Y0645757D01*
X0037856Y0645709D01*
X0037887Y0645664D01*
X0037922Y0645621D01*
X0037960Y0645580D01*
X0038001Y0645542D01*
X0038044Y0645507D01*
X0038089Y0645476D01*
X0038137Y0645447D01*
X0038187Y0645422D01*
X0038238Y0645401D01*
X0038291Y0645384D01*
X0038345Y0645370D01*
X0038399Y0645360D01*
X0038454Y0645354D01*
X0038510Y0645352D01*
X0038566Y0645354D01*
X0038621Y0645360D01*
X0038675Y0645370D01*
X0038729Y0645384D01*
X0038782Y0645401D01*
X0038833Y0645422D01*
X0038883Y0645447D01*
X0038931Y0645476D01*
X0038976Y0645507D01*
X0039019Y0645542D01*
X0039060Y0645580D01*
X0039098Y0645621D01*
X0039133Y0645664D01*
X0039164Y0645709D01*
X0039193Y0645757D01*
X0039218Y0645807D01*
X0039239Y0645858D01*
X0039256Y0645911D01*
X0039270Y0645965D01*
X0039280Y0646019D01*
X0039286Y0646074D01*
X0039288Y0646130D01*
X0036062Y0648852D02*
X0034118Y0648852D01*
X0035090Y0648852D02*
X0035090Y0645352D01*
X0034118Y0646130D01*
X0029482Y0646324D02*
X0029482Y0647296D01*
X0028316Y0647296D01*
X0029483Y0647296D02*
X0029481Y0647372D01*
X0029476Y0647449D01*
X0029466Y0647524D01*
X0029453Y0647600D01*
X0029436Y0647674D01*
X0029416Y0647748D01*
X0029392Y0647820D01*
X0029365Y0647891D01*
X0029334Y0647961D01*
X0029299Y0648029D01*
X0029262Y0648096D01*
X0029221Y0648160D01*
X0029177Y0648223D01*
X0029130Y0648283D01*
X0029080Y0648341D01*
X0029027Y0648396D01*
X0028972Y0648449D01*
X0028914Y0648499D01*
X0028854Y0648546D01*
X0028791Y0648590D01*
X0028727Y0648631D01*
X0028660Y0648668D01*
X0028592Y0648703D01*
X0028522Y0648734D01*
X0028451Y0648761D01*
X0028379Y0648785D01*
X0028305Y0648805D01*
X0028231Y0648822D01*
X0028155Y0648835D01*
X0028080Y0648845D01*
X0028003Y0648850D01*
X0027927Y0648852D01*
X0026062Y0648852D02*
X0024118Y0648852D01*
X0025090Y0648852D02*
X0025090Y0645352D01*
X0024118Y0646130D01*
X0027538Y0646324D02*
X0027538Y0646519D01*
X0027540Y0646575D01*
X0027546Y0646630D01*
X0027556Y0646684D01*
X0027570Y0646738D01*
X0027587Y0646791D01*
X0027608Y0646842D01*
X0027633Y0646892D01*
X0027662Y0646940D01*
X0027693Y0646985D01*
X0027728Y0647028D01*
X0027766Y0647069D01*
X0027807Y0647107D01*
X0027850Y0647142D01*
X0027895Y0647173D01*
X0027943Y0647202D01*
X0027993Y0647227D01*
X0028044Y0647248D01*
X0028097Y0647265D01*
X0028151Y0647279D01*
X0028205Y0647289D01*
X0028260Y0647295D01*
X0028316Y0647297D01*
X0027538Y0646324D02*
X0027540Y0646263D01*
X0027546Y0646202D01*
X0027555Y0646142D01*
X0027569Y0646082D01*
X0027586Y0646024D01*
X0027606Y0645966D01*
X0027631Y0645910D01*
X0027658Y0645856D01*
X0027689Y0645803D01*
X0027724Y0645753D01*
X0027761Y0645704D01*
X0027801Y0645659D01*
X0027845Y0645615D01*
X0027890Y0645575D01*
X0027939Y0645538D01*
X0027989Y0645503D01*
X0028042Y0645472D01*
X0028096Y0645445D01*
X0028152Y0645420D01*
X0028210Y0645400D01*
X0028268Y0645383D01*
X0028328Y0645369D01*
X0028388Y0645360D01*
X0028449Y0645354D01*
X0028510Y0645352D01*
X0028571Y0645354D01*
X0028632Y0645360D01*
X0028692Y0645369D01*
X0028752Y0645383D01*
X0028810Y0645400D01*
X0028868Y0645420D01*
X0028924Y0645445D01*
X0028978Y0645472D01*
X0029031Y0645503D01*
X0029081Y0645538D01*
X0029130Y0645575D01*
X0029175Y0645615D01*
X0029219Y0645659D01*
X0029259Y0645704D01*
X0029296Y0645753D01*
X0029331Y0645803D01*
X0029362Y0645856D01*
X0029389Y0645910D01*
X0029414Y0645966D01*
X0029434Y0646024D01*
X0029451Y0646082D01*
X0029465Y0646142D01*
X0029474Y0646202D01*
X0029480Y0646263D01*
X0029482Y0646324D01*
X0029439Y0636752D02*
X0030539Y0636752D01*
X0030591Y0636750D01*
X0030643Y0636745D01*
X0030695Y0636735D01*
X0030746Y0636722D01*
X0030795Y0636706D01*
X0030844Y0636686D01*
X0030890Y0636662D01*
X0030935Y0636636D01*
X0030978Y0636606D01*
X0031019Y0636573D01*
X0031057Y0636537D01*
X0031093Y0636499D01*
X0031126Y0636458D01*
X0031156Y0636415D01*
X0031182Y0636370D01*
X0031206Y0636323D01*
X0031226Y0636275D01*
X0031242Y0636226D01*
X0031255Y0636175D01*
X0031265Y0636123D01*
X0031270Y0636071D01*
X0031272Y0636019D01*
X0031273Y0636019D02*
X0031273Y0634185D01*
X0031272Y0634185D02*
X0031270Y0634133D01*
X0031265Y0634081D01*
X0031255Y0634029D01*
X0031242Y0633978D01*
X0031226Y0633929D01*
X0031206Y0633881D01*
X0031182Y0633834D01*
X0031156Y0633789D01*
X0031126Y0633746D01*
X0031093Y0633705D01*
X0031057Y0633667D01*
X0031019Y0633631D01*
X0030978Y0633598D01*
X0030935Y0633568D01*
X0030890Y0633542D01*
X0030844Y0633518D01*
X0030795Y0633498D01*
X0030746Y0633482D01*
X0030695Y0633469D01*
X0030643Y0633459D01*
X0030591Y0633454D01*
X0030539Y0633452D01*
X0029439Y0633452D01*
X0029439Y0635285D01*
X0029989Y0635285D01*
X0027817Y0636752D02*
X0025983Y0633452D01*
X0025983Y0636752D01*
X0024361Y0636752D02*
X0023444Y0636752D01*
X0024361Y0636752D02*
X0024361Y0633452D01*
X0023444Y0633452D01*
X0023386Y0633454D01*
X0023329Y0633459D01*
X0023272Y0633468D01*
X0023216Y0633481D01*
X0023161Y0633497D01*
X0023106Y0633516D01*
X0023054Y0633539D01*
X0023002Y0633565D01*
X0022953Y0633595D01*
X0022905Y0633627D01*
X0022859Y0633662D01*
X0022816Y0633701D01*
X0022776Y0633741D01*
X0022737Y0633784D01*
X0022702Y0633830D01*
X0022670Y0633878D01*
X0022640Y0633927D01*
X0022614Y0633979D01*
X0022591Y0634031D01*
X0022572Y0634086D01*
X0022556Y0634141D01*
X0022543Y0634197D01*
X0022534Y0634254D01*
X0022529Y0634311D01*
X0022527Y0634369D01*
X0022527Y0635835D01*
X0022529Y0635895D01*
X0022535Y0635955D01*
X0022545Y0636014D01*
X0022558Y0636072D01*
X0022576Y0636130D01*
X0022597Y0636186D01*
X0022622Y0636241D01*
X0022650Y0636294D01*
X0022682Y0636344D01*
X0022716Y0636393D01*
X0022755Y0636440D01*
X0022796Y0636483D01*
X0022839Y0636524D01*
X0022886Y0636563D01*
X0022935Y0636597D01*
X0022986Y0636629D01*
X0023038Y0636657D01*
X0023093Y0636682D01*
X0023149Y0636703D01*
X0023207Y0636721D01*
X0023265Y0636734D01*
X0023324Y0636744D01*
X0023384Y0636750D01*
X0023444Y0636752D01*
X0020670Y0636752D02*
X0019753Y0636752D01*
X0019701Y0636750D01*
X0019649Y0636745D01*
X0019597Y0636735D01*
X0019546Y0636722D01*
X0019497Y0636706D01*
X0019449Y0636686D01*
X0019402Y0636662D01*
X0019357Y0636636D01*
X0019314Y0636606D01*
X0019273Y0636573D01*
X0019235Y0636537D01*
X0019199Y0636499D01*
X0019166Y0636458D01*
X0019136Y0636415D01*
X0019110Y0636370D01*
X0019086Y0636323D01*
X0019066Y0636275D01*
X0019050Y0636226D01*
X0019037Y0636175D01*
X0019027Y0636123D01*
X0019022Y0636071D01*
X0019020Y0636019D01*
X0019022Y0635967D01*
X0019027Y0635915D01*
X0019037Y0635863D01*
X0019050Y0635812D01*
X0019066Y0635763D01*
X0019086Y0635715D01*
X0019110Y0635668D01*
X0019136Y0635623D01*
X0019166Y0635580D01*
X0019199Y0635539D01*
X0019235Y0635501D01*
X0019273Y0635465D01*
X0019314Y0635432D01*
X0019357Y0635402D01*
X0019402Y0635376D01*
X0019449Y0635352D01*
X0019497Y0635332D01*
X0019546Y0635316D01*
X0019597Y0635303D01*
X0019649Y0635293D01*
X0019701Y0635288D01*
X0019753Y0635286D01*
X0019753Y0635285D02*
X0020670Y0635285D01*
X0019753Y0635286D02*
X0019694Y0635284D01*
X0019636Y0635278D01*
X0019578Y0635269D01*
X0019520Y0635256D01*
X0019464Y0635239D01*
X0019409Y0635219D01*
X0019355Y0635195D01*
X0019303Y0635168D01*
X0019253Y0635138D01*
X0019205Y0635104D01*
X0019159Y0635067D01*
X0019115Y0635028D01*
X0019074Y0634985D01*
X0019036Y0634941D01*
X0019001Y0634894D01*
X0018969Y0634844D01*
X0018940Y0634793D01*
X0018914Y0634740D01*
X0018892Y0634686D01*
X0018874Y0634630D01*
X0018859Y0634573D01*
X0018848Y0634515D01*
X0018840Y0634457D01*
X0018836Y0634398D01*
X0018836Y0634340D01*
X0018840Y0634281D01*
X0018848Y0634223D01*
X0018859Y0634165D01*
X0018874Y0634108D01*
X0018892Y0634052D01*
X0018914Y0633998D01*
X0018940Y0633945D01*
X0018969Y0633894D01*
X0019001Y0633844D01*
X0019036Y0633797D01*
X0019074Y0633753D01*
X0019115Y0633710D01*
X0019159Y0633671D01*
X0019205Y0633634D01*
X0019253Y0633600D01*
X0019303Y0633570D01*
X0019355Y0633543D01*
X0019409Y0633519D01*
X0019464Y0633499D01*
X0019520Y0633482D01*
X0019578Y0633469D01*
X0019636Y0633460D01*
X0019694Y0633454D01*
X0019753Y0633452D01*
X0020670Y0633452D01*
X0020670Y0636752D01*
X0016670Y0636752D02*
X0017770Y0633452D01*
X0017495Y0634277D02*
X0015845Y0634277D01*
X0015570Y0633452D02*
X0016670Y0636752D01*
X0014563Y0636752D02*
X0012730Y0636752D01*
X0013647Y0636752D02*
X0013647Y0633452D01*
X0017538Y0645352D02*
X0018704Y0645352D01*
X0018760Y0645354D01*
X0018815Y0645360D01*
X0018869Y0645370D01*
X0018923Y0645384D01*
X0018976Y0645401D01*
X0019027Y0645422D01*
X0019077Y0645447D01*
X0019125Y0645476D01*
X0019170Y0645507D01*
X0019213Y0645542D01*
X0019254Y0645580D01*
X0019292Y0645621D01*
X0019327Y0645664D01*
X0019358Y0645709D01*
X0019387Y0645757D01*
X0019412Y0645807D01*
X0019433Y0645858D01*
X0019450Y0645911D01*
X0019464Y0645965D01*
X0019474Y0646019D01*
X0019480Y0646074D01*
X0019482Y0646130D01*
X0019480Y0646186D01*
X0019474Y0646241D01*
X0019464Y0646295D01*
X0019450Y0646349D01*
X0019433Y0646402D01*
X0019412Y0646453D01*
X0019387Y0646503D01*
X0019358Y0646551D01*
X0019327Y0646596D01*
X0019292Y0646639D01*
X0019254Y0646680D01*
X0019213Y0646718D01*
X0019170Y0646753D01*
X0019125Y0646784D01*
X0019077Y0646813D01*
X0019027Y0646838D01*
X0018976Y0646859D01*
X0018923Y0646876D01*
X0018869Y0646890D01*
X0018815Y0646900D01*
X0018760Y0646906D01*
X0018704Y0646908D01*
X0017927Y0646908D01*
X0018510Y0646908D02*
X0018571Y0646910D01*
X0018632Y0646916D01*
X0018692Y0646925D01*
X0018752Y0646939D01*
X0018810Y0646956D01*
X0018868Y0646976D01*
X0018924Y0647001D01*
X0018978Y0647028D01*
X0019031Y0647059D01*
X0019081Y0647094D01*
X0019130Y0647131D01*
X0019175Y0647171D01*
X0019219Y0647215D01*
X0019259Y0647260D01*
X0019296Y0647309D01*
X0019331Y0647359D01*
X0019362Y0647412D01*
X0019389Y0647466D01*
X0019414Y0647522D01*
X0019434Y0647580D01*
X0019451Y0647638D01*
X0019465Y0647698D01*
X0019474Y0647758D01*
X0019480Y0647819D01*
X0019482Y0647880D01*
X0019480Y0647941D01*
X0019474Y0648002D01*
X0019465Y0648062D01*
X0019451Y0648122D01*
X0019434Y0648180D01*
X0019414Y0648238D01*
X0019389Y0648294D01*
X0019362Y0648348D01*
X0019331Y0648401D01*
X0019296Y0648451D01*
X0019259Y0648500D01*
X0019219Y0648545D01*
X0019175Y0648589D01*
X0019130Y0648629D01*
X0019081Y0648666D01*
X0019031Y0648701D01*
X0018978Y0648732D01*
X0018924Y0648759D01*
X0018868Y0648784D01*
X0018810Y0648804D01*
X0018752Y0648821D01*
X0018692Y0648835D01*
X0018632Y0648844D01*
X0018571Y0648850D01*
X0018510Y0648852D01*
X0017538Y0648852D01*
X0016062Y0648852D02*
X0014118Y0648852D01*
X0015771Y0646908D01*
X0015187Y0645352D02*
X0015123Y0645354D01*
X0015059Y0645359D01*
X0014995Y0645368D01*
X0014932Y0645381D01*
X0014870Y0645398D01*
X0014809Y0645417D01*
X0014749Y0645441D01*
X0014691Y0645467D01*
X0014634Y0645497D01*
X0014579Y0645531D01*
X0014526Y0645567D01*
X0014475Y0645606D01*
X0014427Y0645648D01*
X0014380Y0645693D01*
X0014337Y0645740D01*
X0014296Y0645790D01*
X0014259Y0645842D01*
X0014224Y0645896D01*
X0014192Y0645952D01*
X0014164Y0646010D01*
X0014139Y0646069D01*
X0014118Y0646130D01*
X0015770Y0646908D02*
X0015811Y0646866D01*
X0015850Y0646822D01*
X0015885Y0646775D01*
X0015918Y0646727D01*
X0015948Y0646676D01*
X0015974Y0646624D01*
X0015997Y0646570D01*
X0016017Y0646515D01*
X0016033Y0646459D01*
X0016046Y0646402D01*
X0016055Y0646344D01*
X0016060Y0646286D01*
X0016062Y0646227D01*
X0016060Y0646170D01*
X0016055Y0646113D01*
X0016045Y0646056D01*
X0016032Y0646001D01*
X0016016Y0645946D01*
X0015995Y0645892D01*
X0015972Y0645840D01*
X0015945Y0645790D01*
X0015915Y0645741D01*
X0015881Y0645694D01*
X0015845Y0645650D01*
X0015806Y0645608D01*
X0015764Y0645569D01*
X0015720Y0645533D01*
X0015673Y0645499D01*
X0015625Y0645469D01*
X0015574Y0645442D01*
X0015522Y0645419D01*
X0015468Y0645398D01*
X0015413Y0645382D01*
X0015358Y0645369D01*
X0015301Y0645359D01*
X0015244Y0645354D01*
X0015187Y0645352D01*
X0027817Y0636752D02*
X0027817Y0633452D01*
X0033872Y0636652D02*
X0034972Y0633352D01*
X0036072Y0636652D01*
X0037295Y0636652D02*
X0039128Y0636652D01*
X0039128Y0635185D01*
X0038028Y0635185D01*
X0037976Y0635183D01*
X0037924Y0635178D01*
X0037872Y0635168D01*
X0037821Y0635155D01*
X0037772Y0635139D01*
X0037724Y0635119D01*
X0037677Y0635095D01*
X0037632Y0635069D01*
X0037589Y0635039D01*
X0037548Y0635006D01*
X0037510Y0634970D01*
X0037474Y0634932D01*
X0037441Y0634891D01*
X0037411Y0634848D01*
X0037385Y0634803D01*
X0037361Y0634757D01*
X0037341Y0634708D01*
X0037325Y0634659D01*
X0037312Y0634608D01*
X0037302Y0634556D01*
X0037297Y0634504D01*
X0037295Y0634452D01*
X0037295Y0634085D01*
X0037297Y0634033D01*
X0037302Y0633981D01*
X0037312Y0633929D01*
X0037325Y0633878D01*
X0037341Y0633829D01*
X0037361Y0633781D01*
X0037385Y0633734D01*
X0037411Y0633689D01*
X0037441Y0633646D01*
X0037474Y0633605D01*
X0037510Y0633567D01*
X0037548Y0633531D01*
X0037589Y0633498D01*
X0037632Y0633468D01*
X0037677Y0633442D01*
X0037724Y0633418D01*
X0037772Y0633398D01*
X0037821Y0633382D01*
X0037872Y0633369D01*
X0037924Y0633359D01*
X0037976Y0633354D01*
X0038028Y0633352D01*
X0039128Y0633352D01*
X0055771Y0646908D02*
X0054118Y0648852D01*
X0056062Y0648852D01*
X0057538Y0648852D02*
X0059482Y0648852D01*
X0057538Y0648852D02*
X0059191Y0646908D01*
X0058607Y0645352D02*
X0058543Y0645354D01*
X0058479Y0645359D01*
X0058415Y0645368D01*
X0058352Y0645381D01*
X0058290Y0645398D01*
X0058229Y0645417D01*
X0058169Y0645441D01*
X0058111Y0645467D01*
X0058054Y0645497D01*
X0057999Y0645531D01*
X0057946Y0645567D01*
X0057895Y0645606D01*
X0057847Y0645648D01*
X0057800Y0645693D01*
X0057757Y0645740D01*
X0057716Y0645790D01*
X0057679Y0645842D01*
X0057644Y0645896D01*
X0057612Y0645952D01*
X0057584Y0646010D01*
X0057559Y0646069D01*
X0057538Y0646130D01*
X0059190Y0646908D02*
X0059231Y0646866D01*
X0059270Y0646822D01*
X0059305Y0646775D01*
X0059338Y0646727D01*
X0059368Y0646676D01*
X0059394Y0646624D01*
X0059417Y0646570D01*
X0059437Y0646515D01*
X0059453Y0646459D01*
X0059466Y0646402D01*
X0059475Y0646344D01*
X0059480Y0646286D01*
X0059482Y0646227D01*
X0059480Y0646170D01*
X0059475Y0646113D01*
X0059465Y0646056D01*
X0059452Y0646001D01*
X0059436Y0645946D01*
X0059415Y0645892D01*
X0059392Y0645840D01*
X0059365Y0645790D01*
X0059335Y0645741D01*
X0059301Y0645694D01*
X0059265Y0645650D01*
X0059226Y0645608D01*
X0059184Y0645569D01*
X0059140Y0645533D01*
X0059093Y0645499D01*
X0059045Y0645469D01*
X0058994Y0645442D01*
X0058942Y0645419D01*
X0058888Y0645398D01*
X0058833Y0645382D01*
X0058778Y0645369D01*
X0058721Y0645359D01*
X0058664Y0645354D01*
X0058607Y0645352D01*
X0056062Y0646227D02*
X0056060Y0646170D01*
X0056055Y0646113D01*
X0056045Y0646056D01*
X0056032Y0646001D01*
X0056016Y0645946D01*
X0055995Y0645892D01*
X0055972Y0645840D01*
X0055945Y0645790D01*
X0055915Y0645741D01*
X0055881Y0645694D01*
X0055845Y0645650D01*
X0055806Y0645608D01*
X0055764Y0645569D01*
X0055720Y0645533D01*
X0055673Y0645499D01*
X0055625Y0645469D01*
X0055574Y0645442D01*
X0055522Y0645419D01*
X0055468Y0645398D01*
X0055413Y0645382D01*
X0055358Y0645369D01*
X0055301Y0645359D01*
X0055244Y0645354D01*
X0055187Y0645352D01*
X0056062Y0646227D02*
X0056060Y0646286D01*
X0056055Y0646344D01*
X0056046Y0646402D01*
X0056033Y0646459D01*
X0056017Y0646515D01*
X0055997Y0646570D01*
X0055974Y0646624D01*
X0055948Y0646676D01*
X0055918Y0646727D01*
X0055885Y0646775D01*
X0055850Y0646822D01*
X0055811Y0646866D01*
X0055770Y0646908D01*
X0055187Y0645352D02*
X0055123Y0645354D01*
X0055059Y0645359D01*
X0054995Y0645368D01*
X0054932Y0645381D01*
X0054870Y0645398D01*
X0054809Y0645417D01*
X0054749Y0645441D01*
X0054691Y0645467D01*
X0054634Y0645497D01*
X0054579Y0645531D01*
X0054526Y0645567D01*
X0054475Y0645606D01*
X0054427Y0645648D01*
X0054380Y0645693D01*
X0054337Y0645740D01*
X0054296Y0645790D01*
X0054259Y0645842D01*
X0054224Y0645896D01*
X0054192Y0645952D01*
X0054164Y0646010D01*
X0054139Y0646069D01*
X0054118Y0646130D01*
X0056994Y0636552D02*
X0057772Y0633830D01*
X0055828Y0633830D01*
X0056411Y0634608D02*
X0056411Y0633052D01*
X0064118Y0633830D02*
X0066062Y0633830D01*
X0065284Y0636552D01*
X0064701Y0634608D02*
X0064701Y0633052D01*
X0067538Y0633052D02*
X0069482Y0633052D01*
X0068510Y0633052D02*
X0068510Y0636552D01*
X0069482Y0635774D01*
X0068510Y0645352D02*
X0068510Y0648852D01*
X0067538Y0648852D02*
X0069482Y0648852D01*
X0067538Y0646130D02*
X0068510Y0645352D01*
X0065771Y0646908D02*
X0064118Y0648852D01*
X0066062Y0648852D01*
X0064118Y0646130D02*
X0064139Y0646069D01*
X0064164Y0646010D01*
X0064192Y0645952D01*
X0064224Y0645896D01*
X0064259Y0645842D01*
X0064296Y0645790D01*
X0064337Y0645740D01*
X0064380Y0645693D01*
X0064427Y0645648D01*
X0064475Y0645606D01*
X0064526Y0645567D01*
X0064579Y0645531D01*
X0064634Y0645497D01*
X0064691Y0645467D01*
X0064749Y0645441D01*
X0064809Y0645417D01*
X0064870Y0645398D01*
X0064932Y0645381D01*
X0064995Y0645368D01*
X0065059Y0645359D01*
X0065123Y0645354D01*
X0065187Y0645352D01*
X0065244Y0645354D01*
X0065301Y0645359D01*
X0065358Y0645369D01*
X0065413Y0645382D01*
X0065468Y0645398D01*
X0065522Y0645419D01*
X0065574Y0645442D01*
X0065625Y0645469D01*
X0065673Y0645499D01*
X0065720Y0645533D01*
X0065764Y0645569D01*
X0065806Y0645608D01*
X0065845Y0645650D01*
X0065881Y0645694D01*
X0065915Y0645741D01*
X0065945Y0645790D01*
X0065972Y0645840D01*
X0065995Y0645892D01*
X0066016Y0645946D01*
X0066032Y0646001D01*
X0066045Y0646056D01*
X0066055Y0646113D01*
X0066060Y0646170D01*
X0066062Y0646227D01*
X0066060Y0646286D01*
X0066055Y0646344D01*
X0066046Y0646402D01*
X0066033Y0646459D01*
X0066017Y0646515D01*
X0065997Y0646570D01*
X0065974Y0646624D01*
X0065948Y0646676D01*
X0065918Y0646727D01*
X0065885Y0646775D01*
X0065850Y0646822D01*
X0065811Y0646866D01*
X0065770Y0646908D01*
X0074118Y0645352D02*
X0075284Y0645352D01*
X0075340Y0645354D01*
X0075395Y0645360D01*
X0075449Y0645370D01*
X0075503Y0645384D01*
X0075556Y0645401D01*
X0075607Y0645422D01*
X0075657Y0645447D01*
X0075705Y0645476D01*
X0075750Y0645507D01*
X0075793Y0645542D01*
X0075834Y0645580D01*
X0075872Y0645621D01*
X0075907Y0645664D01*
X0075938Y0645709D01*
X0075967Y0645757D01*
X0075992Y0645807D01*
X0076013Y0645858D01*
X0076030Y0645911D01*
X0076044Y0645965D01*
X0076054Y0646019D01*
X0076060Y0646074D01*
X0076062Y0646130D01*
X0076060Y0646186D01*
X0076054Y0646241D01*
X0076044Y0646295D01*
X0076030Y0646349D01*
X0076013Y0646402D01*
X0075992Y0646453D01*
X0075967Y0646503D01*
X0075938Y0646551D01*
X0075907Y0646596D01*
X0075872Y0646639D01*
X0075834Y0646680D01*
X0075793Y0646718D01*
X0075750Y0646753D01*
X0075705Y0646784D01*
X0075657Y0646813D01*
X0075607Y0646838D01*
X0075556Y0646859D01*
X0075503Y0646876D01*
X0075449Y0646890D01*
X0075395Y0646900D01*
X0075340Y0646906D01*
X0075284Y0646908D01*
X0074507Y0646908D01*
X0075090Y0646908D02*
X0075151Y0646910D01*
X0075212Y0646916D01*
X0075272Y0646925D01*
X0075332Y0646939D01*
X0075390Y0646956D01*
X0075448Y0646976D01*
X0075504Y0647001D01*
X0075558Y0647028D01*
X0075611Y0647059D01*
X0075661Y0647094D01*
X0075710Y0647131D01*
X0075755Y0647171D01*
X0075799Y0647215D01*
X0075839Y0647260D01*
X0075876Y0647309D01*
X0075911Y0647359D01*
X0075942Y0647412D01*
X0075969Y0647466D01*
X0075994Y0647522D01*
X0076014Y0647580D01*
X0076031Y0647638D01*
X0076045Y0647698D01*
X0076054Y0647758D01*
X0076060Y0647819D01*
X0076062Y0647880D01*
X0076060Y0647941D01*
X0076054Y0648002D01*
X0076045Y0648062D01*
X0076031Y0648122D01*
X0076014Y0648180D01*
X0075994Y0648238D01*
X0075969Y0648294D01*
X0075942Y0648348D01*
X0075911Y0648401D01*
X0075876Y0648451D01*
X0075839Y0648500D01*
X0075799Y0648545D01*
X0075755Y0648589D01*
X0075710Y0648629D01*
X0075661Y0648666D01*
X0075611Y0648701D01*
X0075558Y0648732D01*
X0075504Y0648759D01*
X0075448Y0648784D01*
X0075390Y0648804D01*
X0075332Y0648821D01*
X0075272Y0648835D01*
X0075212Y0648844D01*
X0075151Y0648850D01*
X0075090Y0648852D01*
X0074118Y0648852D01*
X0077538Y0648852D02*
X0079482Y0648852D01*
X0077538Y0648852D02*
X0079191Y0646908D01*
X0078607Y0645352D02*
X0078543Y0645354D01*
X0078479Y0645359D01*
X0078415Y0645368D01*
X0078352Y0645381D01*
X0078290Y0645398D01*
X0078229Y0645417D01*
X0078169Y0645441D01*
X0078111Y0645467D01*
X0078054Y0645497D01*
X0077999Y0645531D01*
X0077946Y0645567D01*
X0077895Y0645606D01*
X0077847Y0645648D01*
X0077800Y0645693D01*
X0077757Y0645740D01*
X0077716Y0645790D01*
X0077679Y0645842D01*
X0077644Y0645896D01*
X0077612Y0645952D01*
X0077584Y0646010D01*
X0077559Y0646069D01*
X0077538Y0646130D01*
X0079190Y0646908D02*
X0079231Y0646866D01*
X0079270Y0646822D01*
X0079305Y0646775D01*
X0079338Y0646727D01*
X0079368Y0646676D01*
X0079394Y0646624D01*
X0079417Y0646570D01*
X0079437Y0646515D01*
X0079453Y0646459D01*
X0079466Y0646402D01*
X0079475Y0646344D01*
X0079480Y0646286D01*
X0079482Y0646227D01*
X0079480Y0646170D01*
X0079475Y0646113D01*
X0079465Y0646056D01*
X0079452Y0646001D01*
X0079436Y0645946D01*
X0079415Y0645892D01*
X0079392Y0645840D01*
X0079365Y0645790D01*
X0079335Y0645741D01*
X0079301Y0645694D01*
X0079265Y0645650D01*
X0079226Y0645608D01*
X0079184Y0645569D01*
X0079140Y0645533D01*
X0079093Y0645499D01*
X0079045Y0645469D01*
X0078994Y0645442D01*
X0078942Y0645419D01*
X0078888Y0645398D01*
X0078833Y0645382D01*
X0078778Y0645369D01*
X0078721Y0645359D01*
X0078664Y0645354D01*
X0078607Y0645352D01*
X0078510Y0636552D02*
X0078510Y0633052D01*
X0079482Y0633052D02*
X0077538Y0633052D01*
X0076062Y0633052D02*
X0074896Y0633052D01*
X0074840Y0633054D01*
X0074785Y0633060D01*
X0074731Y0633070D01*
X0074677Y0633084D01*
X0074624Y0633101D01*
X0074573Y0633122D01*
X0074523Y0633147D01*
X0074475Y0633176D01*
X0074430Y0633207D01*
X0074387Y0633242D01*
X0074346Y0633280D01*
X0074308Y0633321D01*
X0074273Y0633364D01*
X0074242Y0633409D01*
X0074213Y0633457D01*
X0074188Y0633507D01*
X0074167Y0633558D01*
X0074150Y0633611D01*
X0074136Y0633665D01*
X0074126Y0633719D01*
X0074120Y0633774D01*
X0074118Y0633830D01*
X0074118Y0634219D01*
X0074120Y0634275D01*
X0074126Y0634330D01*
X0074136Y0634384D01*
X0074150Y0634438D01*
X0074167Y0634491D01*
X0074188Y0634542D01*
X0074213Y0634592D01*
X0074242Y0634640D01*
X0074273Y0634685D01*
X0074308Y0634728D01*
X0074346Y0634769D01*
X0074387Y0634807D01*
X0074430Y0634842D01*
X0074475Y0634873D01*
X0074523Y0634902D01*
X0074573Y0634927D01*
X0074624Y0634948D01*
X0074677Y0634965D01*
X0074731Y0634979D01*
X0074785Y0634989D01*
X0074840Y0634995D01*
X0074896Y0634997D01*
X0074896Y0634996D02*
X0076062Y0634996D01*
X0076062Y0636552D01*
X0074118Y0636552D01*
X0078510Y0636552D02*
X0079482Y0635774D01*
X0084118Y0636552D02*
X0085090Y0633052D01*
X0087538Y0633052D02*
X0089482Y0633052D01*
X0087829Y0634996D01*
X0088413Y0636552D02*
X0088477Y0636550D01*
X0088541Y0636545D01*
X0088605Y0636536D01*
X0088668Y0636523D01*
X0088730Y0636506D01*
X0088791Y0636487D01*
X0088851Y0636463D01*
X0088909Y0636437D01*
X0088966Y0636407D01*
X0089021Y0636373D01*
X0089074Y0636337D01*
X0089125Y0636298D01*
X0089173Y0636256D01*
X0089220Y0636211D01*
X0089263Y0636164D01*
X0089304Y0636114D01*
X0089341Y0636062D01*
X0089376Y0636008D01*
X0089408Y0635952D01*
X0089436Y0635894D01*
X0089461Y0635835D01*
X0089482Y0635774D01*
X0087830Y0634996D02*
X0087789Y0635038D01*
X0087750Y0635082D01*
X0087715Y0635129D01*
X0087682Y0635177D01*
X0087652Y0635228D01*
X0087626Y0635280D01*
X0087603Y0635334D01*
X0087583Y0635389D01*
X0087567Y0635445D01*
X0087554Y0635502D01*
X0087545Y0635560D01*
X0087540Y0635618D01*
X0087538Y0635677D01*
X0087540Y0635734D01*
X0087545Y0635791D01*
X0087555Y0635848D01*
X0087568Y0635903D01*
X0087584Y0635958D01*
X0087605Y0636012D01*
X0087628Y0636064D01*
X0087655Y0636115D01*
X0087685Y0636163D01*
X0087719Y0636210D01*
X0087755Y0636254D01*
X0087794Y0636296D01*
X0087836Y0636335D01*
X0087880Y0636371D01*
X0087927Y0636405D01*
X0087976Y0636435D01*
X0088026Y0636462D01*
X0088078Y0636485D01*
X0088132Y0636506D01*
X0088187Y0636522D01*
X0088242Y0636535D01*
X0088299Y0636545D01*
X0088356Y0636550D01*
X0088413Y0636552D01*
X0086062Y0636552D02*
X0084118Y0636552D01*
X0086062Y0636552D02*
X0086062Y0636163D01*
X0085284Y0645352D02*
X0084118Y0645352D01*
X0085284Y0645352D02*
X0085340Y0645354D01*
X0085395Y0645360D01*
X0085449Y0645370D01*
X0085503Y0645384D01*
X0085556Y0645401D01*
X0085607Y0645422D01*
X0085657Y0645447D01*
X0085705Y0645476D01*
X0085750Y0645507D01*
X0085793Y0645542D01*
X0085834Y0645580D01*
X0085872Y0645621D01*
X0085907Y0645664D01*
X0085938Y0645709D01*
X0085967Y0645757D01*
X0085992Y0645807D01*
X0086013Y0645858D01*
X0086030Y0645911D01*
X0086044Y0645965D01*
X0086054Y0646019D01*
X0086060Y0646074D01*
X0086062Y0646130D01*
X0086060Y0646186D01*
X0086054Y0646241D01*
X0086044Y0646295D01*
X0086030Y0646349D01*
X0086013Y0646402D01*
X0085992Y0646453D01*
X0085967Y0646503D01*
X0085938Y0646551D01*
X0085907Y0646596D01*
X0085872Y0646639D01*
X0085834Y0646680D01*
X0085793Y0646718D01*
X0085750Y0646753D01*
X0085705Y0646784D01*
X0085657Y0646813D01*
X0085607Y0646838D01*
X0085556Y0646859D01*
X0085503Y0646876D01*
X0085449Y0646890D01*
X0085395Y0646900D01*
X0085340Y0646906D01*
X0085284Y0646908D01*
X0084507Y0646908D01*
X0085090Y0646908D02*
X0085151Y0646910D01*
X0085212Y0646916D01*
X0085272Y0646925D01*
X0085332Y0646939D01*
X0085390Y0646956D01*
X0085448Y0646976D01*
X0085504Y0647001D01*
X0085558Y0647028D01*
X0085611Y0647059D01*
X0085661Y0647094D01*
X0085710Y0647131D01*
X0085755Y0647171D01*
X0085799Y0647215D01*
X0085839Y0647260D01*
X0085876Y0647309D01*
X0085911Y0647359D01*
X0085942Y0647412D01*
X0085969Y0647466D01*
X0085994Y0647522D01*
X0086014Y0647580D01*
X0086031Y0647638D01*
X0086045Y0647698D01*
X0086054Y0647758D01*
X0086060Y0647819D01*
X0086062Y0647880D01*
X0086060Y0647941D01*
X0086054Y0648002D01*
X0086045Y0648062D01*
X0086031Y0648122D01*
X0086014Y0648180D01*
X0085994Y0648238D01*
X0085969Y0648294D01*
X0085942Y0648348D01*
X0085911Y0648401D01*
X0085876Y0648451D01*
X0085839Y0648500D01*
X0085799Y0648545D01*
X0085755Y0648589D01*
X0085710Y0648629D01*
X0085661Y0648666D01*
X0085611Y0648701D01*
X0085558Y0648732D01*
X0085504Y0648759D01*
X0085448Y0648784D01*
X0085390Y0648804D01*
X0085332Y0648821D01*
X0085272Y0648835D01*
X0085212Y0648844D01*
X0085151Y0648850D01*
X0085090Y0648852D01*
X0084118Y0648852D01*
X0087538Y0648852D02*
X0088510Y0648852D01*
X0088571Y0648850D01*
X0088632Y0648844D01*
X0088692Y0648835D01*
X0088752Y0648821D01*
X0088810Y0648804D01*
X0088868Y0648784D01*
X0088924Y0648759D01*
X0088978Y0648732D01*
X0089031Y0648701D01*
X0089081Y0648666D01*
X0089130Y0648629D01*
X0089175Y0648589D01*
X0089219Y0648545D01*
X0089259Y0648500D01*
X0089296Y0648451D01*
X0089331Y0648401D01*
X0089362Y0648348D01*
X0089389Y0648294D01*
X0089414Y0648238D01*
X0089434Y0648180D01*
X0089451Y0648122D01*
X0089465Y0648062D01*
X0089474Y0648002D01*
X0089480Y0647941D01*
X0089482Y0647880D01*
X0089480Y0647819D01*
X0089474Y0647758D01*
X0089465Y0647698D01*
X0089451Y0647638D01*
X0089434Y0647580D01*
X0089414Y0647522D01*
X0089389Y0647466D01*
X0089362Y0647412D01*
X0089331Y0647359D01*
X0089296Y0647309D01*
X0089259Y0647260D01*
X0089219Y0647215D01*
X0089175Y0647171D01*
X0089130Y0647131D01*
X0089081Y0647094D01*
X0089031Y0647059D01*
X0088978Y0647028D01*
X0088924Y0647001D01*
X0088868Y0646976D01*
X0088810Y0646956D01*
X0088752Y0646939D01*
X0088692Y0646925D01*
X0088632Y0646916D01*
X0088571Y0646910D01*
X0088510Y0646908D01*
X0088704Y0646908D02*
X0087927Y0646908D01*
X0088704Y0646908D02*
X0088760Y0646906D01*
X0088815Y0646900D01*
X0088869Y0646890D01*
X0088923Y0646876D01*
X0088976Y0646859D01*
X0089027Y0646838D01*
X0089077Y0646813D01*
X0089125Y0646784D01*
X0089170Y0646753D01*
X0089213Y0646718D01*
X0089254Y0646680D01*
X0089292Y0646639D01*
X0089327Y0646596D01*
X0089358Y0646551D01*
X0089387Y0646503D01*
X0089412Y0646453D01*
X0089433Y0646402D01*
X0089450Y0646349D01*
X0089464Y0646295D01*
X0089474Y0646241D01*
X0089480Y0646186D01*
X0089482Y0646130D01*
X0089480Y0646074D01*
X0089474Y0646019D01*
X0089464Y0645965D01*
X0089450Y0645911D01*
X0089433Y0645858D01*
X0089412Y0645807D01*
X0089387Y0645757D01*
X0089358Y0645709D01*
X0089327Y0645664D01*
X0089292Y0645621D01*
X0089254Y0645580D01*
X0089213Y0645542D01*
X0089170Y0645507D01*
X0089125Y0645476D01*
X0089077Y0645447D01*
X0089027Y0645422D01*
X0088976Y0645401D01*
X0088923Y0645384D01*
X0088869Y0645370D01*
X0088815Y0645360D01*
X0088760Y0645354D01*
X0088704Y0645352D01*
X0087538Y0645352D01*
X0092770Y0645452D02*
X0093687Y0645452D01*
X0093746Y0645454D01*
X0093804Y0645460D01*
X0093862Y0645469D01*
X0093920Y0645482D01*
X0093976Y0645499D01*
X0094031Y0645519D01*
X0094085Y0645543D01*
X0094137Y0645570D01*
X0094187Y0645600D01*
X0094235Y0645634D01*
X0094281Y0645671D01*
X0094325Y0645710D01*
X0094366Y0645753D01*
X0094404Y0645797D01*
X0094439Y0645844D01*
X0094471Y0645894D01*
X0094500Y0645945D01*
X0094526Y0645998D01*
X0094548Y0646052D01*
X0094566Y0646108D01*
X0094581Y0646165D01*
X0094592Y0646223D01*
X0094600Y0646281D01*
X0094604Y0646340D01*
X0094604Y0646398D01*
X0094600Y0646457D01*
X0094592Y0646515D01*
X0094581Y0646573D01*
X0094566Y0646630D01*
X0094548Y0646686D01*
X0094526Y0646740D01*
X0094500Y0646793D01*
X0094471Y0646844D01*
X0094439Y0646894D01*
X0094404Y0646941D01*
X0094366Y0646985D01*
X0094325Y0647028D01*
X0094281Y0647067D01*
X0094235Y0647104D01*
X0094187Y0647138D01*
X0094137Y0647168D01*
X0094085Y0647195D01*
X0094031Y0647219D01*
X0093976Y0647239D01*
X0093920Y0647256D01*
X0093862Y0647269D01*
X0093804Y0647278D01*
X0093746Y0647284D01*
X0093687Y0647286D01*
X0093687Y0647285D02*
X0092770Y0647285D01*
X0093870Y0647285D02*
X0094603Y0648752D01*
X0092770Y0648752D02*
X0092770Y0645452D01*
X0096339Y0646827D02*
X0097347Y0647377D01*
X0096981Y0648752D02*
X0096905Y0648750D01*
X0096828Y0648744D01*
X0096753Y0648735D01*
X0096677Y0648722D01*
X0096603Y0648705D01*
X0096529Y0648685D01*
X0096456Y0648660D01*
X0096385Y0648633D01*
X0096315Y0648602D01*
X0096247Y0648567D01*
X0096181Y0648529D01*
X0096116Y0648488D01*
X0096054Y0648444D01*
X0095994Y0648397D01*
X0095936Y0648347D01*
X0095881Y0648294D01*
X0097347Y0647377D02*
X0097391Y0647405D01*
X0097432Y0647435D01*
X0097471Y0647469D01*
X0097508Y0647505D01*
X0097543Y0647544D01*
X0097574Y0647584D01*
X0097603Y0647627D01*
X0097628Y0647672D01*
X0097651Y0647718D01*
X0097670Y0647766D01*
X0097686Y0647815D01*
X0097698Y0647865D01*
X0097707Y0647916D01*
X0097712Y0647967D01*
X0097714Y0648019D01*
X0097712Y0648071D01*
X0097707Y0648123D01*
X0097697Y0648175D01*
X0097684Y0648226D01*
X0097668Y0648275D01*
X0097648Y0648323D01*
X0097624Y0648370D01*
X0097598Y0648415D01*
X0097568Y0648458D01*
X0097535Y0648499D01*
X0097499Y0648537D01*
X0097461Y0648573D01*
X0097420Y0648606D01*
X0097377Y0648636D01*
X0097332Y0648662D01*
X0097285Y0648686D01*
X0097237Y0648706D01*
X0097188Y0648722D01*
X0097137Y0648735D01*
X0097085Y0648745D01*
X0097033Y0648750D01*
X0096981Y0648752D01*
X0097531Y0645727D02*
X0097471Y0645684D01*
X0097409Y0645645D01*
X0097344Y0645609D01*
X0097278Y0645577D01*
X0097210Y0645548D01*
X0097141Y0645523D01*
X0097070Y0645501D01*
X0096999Y0645484D01*
X0096926Y0645470D01*
X0096853Y0645460D01*
X0096780Y0645454D01*
X0096706Y0645452D01*
X0096654Y0645454D01*
X0096602Y0645459D01*
X0096550Y0645469D01*
X0096499Y0645482D01*
X0096450Y0645498D01*
X0096402Y0645518D01*
X0096355Y0645542D01*
X0096310Y0645568D01*
X0096267Y0645598D01*
X0096226Y0645631D01*
X0096188Y0645667D01*
X0096152Y0645705D01*
X0096119Y0645746D01*
X0096089Y0645789D01*
X0096063Y0645834D01*
X0096039Y0645881D01*
X0096019Y0645929D01*
X0096003Y0645978D01*
X0095990Y0646029D01*
X0095980Y0646081D01*
X0095975Y0646133D01*
X0095973Y0646185D01*
X0095972Y0646185D02*
X0095974Y0646237D01*
X0095979Y0646288D01*
X0095988Y0646339D01*
X0096000Y0646389D01*
X0096016Y0646438D01*
X0096035Y0646486D01*
X0096058Y0646532D01*
X0096083Y0646577D01*
X0096112Y0646620D01*
X0096143Y0646660D01*
X0096178Y0646699D01*
X0096215Y0646735D01*
X0096254Y0646769D01*
X0096295Y0646799D01*
X0096339Y0646827D01*
X0098797Y0645452D02*
X0100630Y0645452D01*
X0099713Y0645452D02*
X0099713Y0648752D01*
X0102327Y0648019D02*
X0102327Y0646185D01*
X0102328Y0646185D02*
X0102330Y0646133D01*
X0102335Y0646081D01*
X0102345Y0646029D01*
X0102358Y0645978D01*
X0102374Y0645929D01*
X0102394Y0645881D01*
X0102418Y0645834D01*
X0102444Y0645789D01*
X0102474Y0645746D01*
X0102507Y0645705D01*
X0102543Y0645667D01*
X0102581Y0645631D01*
X0102622Y0645598D01*
X0102665Y0645568D01*
X0102710Y0645542D01*
X0102756Y0645518D01*
X0102805Y0645498D01*
X0102854Y0645482D01*
X0102905Y0645469D01*
X0102957Y0645459D01*
X0103009Y0645454D01*
X0103061Y0645452D01*
X0104161Y0645452D01*
X0104161Y0646919D02*
X0104161Y0648752D01*
X0103061Y0648752D01*
X0103009Y0648750D01*
X0102957Y0648745D01*
X0102905Y0648735D01*
X0102854Y0648722D01*
X0102805Y0648706D01*
X0102757Y0648686D01*
X0102710Y0648662D01*
X0102665Y0648636D01*
X0102622Y0648606D01*
X0102581Y0648573D01*
X0102543Y0648537D01*
X0102507Y0648499D01*
X0102474Y0648458D01*
X0102444Y0648415D01*
X0102418Y0648370D01*
X0102394Y0648324D01*
X0102374Y0648275D01*
X0102358Y0648226D01*
X0102345Y0648175D01*
X0102335Y0648123D01*
X0102330Y0648071D01*
X0102328Y0648019D01*
X0103611Y0646919D02*
X0104161Y0646919D01*
X0105783Y0645452D02*
X0107617Y0648752D01*
X0107617Y0645452D01*
X0109239Y0645452D02*
X0110156Y0645452D01*
X0110214Y0645454D01*
X0110271Y0645459D01*
X0110328Y0645468D01*
X0110384Y0645481D01*
X0110439Y0645497D01*
X0110494Y0645516D01*
X0110546Y0645539D01*
X0110598Y0645565D01*
X0110647Y0645595D01*
X0110695Y0645627D01*
X0110741Y0645662D01*
X0110784Y0645701D01*
X0110824Y0645741D01*
X0110863Y0645784D01*
X0110898Y0645830D01*
X0110930Y0645878D01*
X0110960Y0645927D01*
X0110986Y0645979D01*
X0111009Y0646031D01*
X0111028Y0646086D01*
X0111044Y0646141D01*
X0111057Y0646197D01*
X0111066Y0646254D01*
X0111071Y0646311D01*
X0111073Y0646369D01*
X0111073Y0647835D01*
X0111071Y0647893D01*
X0111066Y0647950D01*
X0111057Y0648007D01*
X0111044Y0648063D01*
X0111028Y0648118D01*
X0111009Y0648173D01*
X0110986Y0648225D01*
X0110960Y0648277D01*
X0110930Y0648326D01*
X0110898Y0648374D01*
X0110863Y0648420D01*
X0110824Y0648463D01*
X0110784Y0648503D01*
X0110741Y0648542D01*
X0110695Y0648577D01*
X0110647Y0648609D01*
X0110598Y0648639D01*
X0110546Y0648665D01*
X0110494Y0648688D01*
X0110439Y0648707D01*
X0110384Y0648723D01*
X0110328Y0648736D01*
X0110271Y0648745D01*
X0110214Y0648750D01*
X0110156Y0648752D01*
X0109239Y0648752D01*
X0109239Y0645452D01*
X0105783Y0645452D02*
X0105783Y0648752D01*
X0106062Y0636552D02*
X0104118Y0636552D01*
X0104896Y0634996D02*
X0106062Y0634996D01*
X0106062Y0636552D01*
X0107829Y0634996D02*
X0109482Y0633052D01*
X0107538Y0633052D01*
X0106062Y0633052D02*
X0104896Y0633052D01*
X0104840Y0633054D01*
X0104785Y0633060D01*
X0104731Y0633070D01*
X0104677Y0633084D01*
X0104624Y0633101D01*
X0104573Y0633122D01*
X0104523Y0633147D01*
X0104475Y0633176D01*
X0104430Y0633207D01*
X0104387Y0633242D01*
X0104346Y0633280D01*
X0104308Y0633321D01*
X0104273Y0633364D01*
X0104242Y0633409D01*
X0104213Y0633457D01*
X0104188Y0633507D01*
X0104167Y0633558D01*
X0104150Y0633611D01*
X0104136Y0633665D01*
X0104126Y0633719D01*
X0104120Y0633774D01*
X0104118Y0633830D01*
X0104118Y0634219D01*
X0104120Y0634275D01*
X0104126Y0634330D01*
X0104136Y0634384D01*
X0104150Y0634438D01*
X0104167Y0634491D01*
X0104188Y0634542D01*
X0104213Y0634592D01*
X0104242Y0634640D01*
X0104273Y0634685D01*
X0104308Y0634728D01*
X0104346Y0634769D01*
X0104387Y0634807D01*
X0104430Y0634842D01*
X0104475Y0634873D01*
X0104523Y0634902D01*
X0104573Y0634927D01*
X0104624Y0634948D01*
X0104677Y0634965D01*
X0104731Y0634979D01*
X0104785Y0634989D01*
X0104840Y0634995D01*
X0104896Y0634997D01*
X0108413Y0636552D02*
X0108477Y0636550D01*
X0108541Y0636545D01*
X0108605Y0636536D01*
X0108668Y0636523D01*
X0108730Y0636506D01*
X0108791Y0636487D01*
X0108851Y0636463D01*
X0108909Y0636437D01*
X0108966Y0636407D01*
X0109021Y0636373D01*
X0109074Y0636337D01*
X0109125Y0636298D01*
X0109173Y0636256D01*
X0109220Y0636211D01*
X0109263Y0636164D01*
X0109304Y0636114D01*
X0109341Y0636062D01*
X0109376Y0636008D01*
X0109408Y0635952D01*
X0109436Y0635894D01*
X0109461Y0635835D01*
X0109482Y0635774D01*
X0107830Y0634996D02*
X0107789Y0635038D01*
X0107750Y0635082D01*
X0107715Y0635129D01*
X0107682Y0635177D01*
X0107652Y0635228D01*
X0107626Y0635280D01*
X0107603Y0635334D01*
X0107583Y0635389D01*
X0107567Y0635445D01*
X0107554Y0635502D01*
X0107545Y0635560D01*
X0107540Y0635618D01*
X0107538Y0635677D01*
X0107540Y0635734D01*
X0107545Y0635791D01*
X0107555Y0635848D01*
X0107568Y0635903D01*
X0107584Y0635958D01*
X0107605Y0636012D01*
X0107628Y0636064D01*
X0107655Y0636115D01*
X0107685Y0636163D01*
X0107719Y0636210D01*
X0107755Y0636254D01*
X0107794Y0636296D01*
X0107836Y0636335D01*
X0107880Y0636371D01*
X0107927Y0636405D01*
X0107976Y0636435D01*
X0108026Y0636462D01*
X0108078Y0636485D01*
X0108132Y0636506D01*
X0108187Y0636522D01*
X0108242Y0636535D01*
X0108299Y0636545D01*
X0108356Y0636550D01*
X0108413Y0636552D01*
X0099482Y0633052D02*
X0097538Y0633052D01*
X0096062Y0634024D02*
X0096062Y0634996D01*
X0094896Y0634996D01*
X0096063Y0634996D02*
X0096061Y0635075D01*
X0096055Y0635153D01*
X0096045Y0635232D01*
X0096031Y0635309D01*
X0096013Y0635386D01*
X0095992Y0635462D01*
X0095966Y0635536D01*
X0095937Y0635610D01*
X0095904Y0635681D01*
X0095867Y0635751D01*
X0095827Y0635819D01*
X0095784Y0635885D01*
X0095737Y0635948D01*
X0095688Y0636010D01*
X0095635Y0636068D01*
X0095579Y0636124D01*
X0095521Y0636177D01*
X0095459Y0636226D01*
X0095396Y0636273D01*
X0095330Y0636316D01*
X0095262Y0636356D01*
X0095192Y0636393D01*
X0095121Y0636426D01*
X0095047Y0636455D01*
X0094973Y0636481D01*
X0094897Y0636502D01*
X0094820Y0636520D01*
X0094743Y0636534D01*
X0094664Y0636544D01*
X0094586Y0636550D01*
X0094507Y0636552D01*
X0094896Y0634997D02*
X0094840Y0634995D01*
X0094785Y0634989D01*
X0094731Y0634979D01*
X0094677Y0634965D01*
X0094624Y0634948D01*
X0094573Y0634927D01*
X0094523Y0634902D01*
X0094475Y0634873D01*
X0094430Y0634842D01*
X0094387Y0634807D01*
X0094346Y0634769D01*
X0094308Y0634728D01*
X0094273Y0634685D01*
X0094242Y0634640D01*
X0094213Y0634592D01*
X0094188Y0634542D01*
X0094167Y0634491D01*
X0094150Y0634438D01*
X0094136Y0634384D01*
X0094126Y0634330D01*
X0094120Y0634275D01*
X0094118Y0634219D01*
X0094118Y0634024D01*
X0094120Y0633963D01*
X0094126Y0633902D01*
X0094135Y0633842D01*
X0094149Y0633782D01*
X0094166Y0633724D01*
X0094186Y0633666D01*
X0094211Y0633610D01*
X0094238Y0633556D01*
X0094269Y0633503D01*
X0094304Y0633453D01*
X0094341Y0633404D01*
X0094381Y0633359D01*
X0094425Y0633315D01*
X0094470Y0633275D01*
X0094519Y0633238D01*
X0094569Y0633203D01*
X0094622Y0633172D01*
X0094676Y0633145D01*
X0094732Y0633120D01*
X0094790Y0633100D01*
X0094848Y0633083D01*
X0094908Y0633069D01*
X0094968Y0633060D01*
X0095029Y0633054D01*
X0095090Y0633052D01*
X0095151Y0633054D01*
X0095212Y0633060D01*
X0095272Y0633069D01*
X0095332Y0633083D01*
X0095390Y0633100D01*
X0095448Y0633120D01*
X0095504Y0633145D01*
X0095558Y0633172D01*
X0095611Y0633203D01*
X0095661Y0633238D01*
X0095710Y0633275D01*
X0095755Y0633315D01*
X0095799Y0633359D01*
X0095839Y0633404D01*
X0095876Y0633453D01*
X0095911Y0633503D01*
X0095942Y0633556D01*
X0095969Y0633610D01*
X0095994Y0633666D01*
X0096014Y0633724D01*
X0096031Y0633782D01*
X0096045Y0633842D01*
X0096054Y0633902D01*
X0096060Y0633963D01*
X0096062Y0634024D01*
X0097829Y0634996D02*
X0099482Y0633052D01*
X0099482Y0635774D02*
X0099461Y0635835D01*
X0099436Y0635894D01*
X0099408Y0635952D01*
X0099376Y0636008D01*
X0099341Y0636062D01*
X0099304Y0636114D01*
X0099263Y0636164D01*
X0099220Y0636211D01*
X0099173Y0636256D01*
X0099125Y0636298D01*
X0099074Y0636337D01*
X0099021Y0636373D01*
X0098966Y0636407D01*
X0098909Y0636437D01*
X0098851Y0636463D01*
X0098791Y0636487D01*
X0098730Y0636506D01*
X0098668Y0636523D01*
X0098605Y0636536D01*
X0098541Y0636545D01*
X0098477Y0636550D01*
X0098413Y0636552D01*
X0098356Y0636550D01*
X0098299Y0636545D01*
X0098242Y0636535D01*
X0098187Y0636522D01*
X0098132Y0636506D01*
X0098078Y0636485D01*
X0098026Y0636462D01*
X0097976Y0636435D01*
X0097927Y0636405D01*
X0097880Y0636371D01*
X0097836Y0636335D01*
X0097794Y0636296D01*
X0097755Y0636254D01*
X0097719Y0636210D01*
X0097685Y0636163D01*
X0097655Y0636115D01*
X0097628Y0636064D01*
X0097605Y0636012D01*
X0097584Y0635958D01*
X0097568Y0635903D01*
X0097555Y0635848D01*
X0097545Y0635791D01*
X0097540Y0635734D01*
X0097538Y0635677D01*
X0097540Y0635618D01*
X0097545Y0635560D01*
X0097554Y0635502D01*
X0097567Y0635445D01*
X0097583Y0635389D01*
X0097603Y0635334D01*
X0097626Y0635280D01*
X0097652Y0635228D01*
X0097682Y0635177D01*
X0097715Y0635129D01*
X0097750Y0635082D01*
X0097789Y0635038D01*
X0097830Y0634996D01*
X0097538Y0718052D02*
X0099482Y0718052D01*
X0097829Y0719996D01*
X0098413Y0721552D02*
X0098477Y0721550D01*
X0098541Y0721545D01*
X0098605Y0721536D01*
X0098668Y0721523D01*
X0098730Y0721506D01*
X0098791Y0721487D01*
X0098851Y0721463D01*
X0098909Y0721437D01*
X0098966Y0721407D01*
X0099021Y0721373D01*
X0099074Y0721337D01*
X0099125Y0721298D01*
X0099173Y0721256D01*
X0099220Y0721211D01*
X0099263Y0721164D01*
X0099304Y0721114D01*
X0099341Y0721062D01*
X0099376Y0721008D01*
X0099408Y0720952D01*
X0099436Y0720894D01*
X0099461Y0720835D01*
X0099482Y0720774D01*
X0097830Y0719996D02*
X0097789Y0720038D01*
X0097750Y0720082D01*
X0097715Y0720129D01*
X0097682Y0720177D01*
X0097652Y0720228D01*
X0097626Y0720280D01*
X0097603Y0720334D01*
X0097583Y0720389D01*
X0097567Y0720445D01*
X0097554Y0720502D01*
X0097545Y0720560D01*
X0097540Y0720618D01*
X0097538Y0720677D01*
X0097540Y0720734D01*
X0097545Y0720791D01*
X0097555Y0720848D01*
X0097568Y0720903D01*
X0097584Y0720958D01*
X0097605Y0721012D01*
X0097628Y0721064D01*
X0097655Y0721115D01*
X0097685Y0721163D01*
X0097719Y0721210D01*
X0097755Y0721254D01*
X0097794Y0721296D01*
X0097836Y0721335D01*
X0097880Y0721371D01*
X0097927Y0721405D01*
X0097976Y0721435D01*
X0098026Y0721462D01*
X0098078Y0721485D01*
X0098132Y0721506D01*
X0098187Y0721522D01*
X0098242Y0721535D01*
X0098299Y0721545D01*
X0098356Y0721550D01*
X0098413Y0721552D01*
X0096062Y0719996D02*
X0096062Y0719024D01*
X0096060Y0718963D01*
X0096054Y0718902D01*
X0096045Y0718842D01*
X0096031Y0718782D01*
X0096014Y0718724D01*
X0095994Y0718666D01*
X0095969Y0718610D01*
X0095942Y0718556D01*
X0095911Y0718503D01*
X0095876Y0718453D01*
X0095839Y0718404D01*
X0095799Y0718359D01*
X0095755Y0718315D01*
X0095710Y0718275D01*
X0095661Y0718238D01*
X0095611Y0718203D01*
X0095558Y0718172D01*
X0095504Y0718145D01*
X0095448Y0718120D01*
X0095390Y0718100D01*
X0095332Y0718083D01*
X0095272Y0718069D01*
X0095212Y0718060D01*
X0095151Y0718054D01*
X0095090Y0718052D01*
X0095029Y0718054D01*
X0094968Y0718060D01*
X0094908Y0718069D01*
X0094848Y0718083D01*
X0094790Y0718100D01*
X0094732Y0718120D01*
X0094676Y0718145D01*
X0094622Y0718172D01*
X0094569Y0718203D01*
X0094519Y0718238D01*
X0094470Y0718275D01*
X0094425Y0718315D01*
X0094381Y0718359D01*
X0094341Y0718404D01*
X0094304Y0718453D01*
X0094269Y0718503D01*
X0094238Y0718556D01*
X0094211Y0718610D01*
X0094186Y0718666D01*
X0094166Y0718724D01*
X0094149Y0718782D01*
X0094135Y0718842D01*
X0094126Y0718902D01*
X0094120Y0718963D01*
X0094118Y0719024D01*
X0094118Y0719219D01*
X0094120Y0719275D01*
X0094126Y0719330D01*
X0094136Y0719384D01*
X0094150Y0719438D01*
X0094167Y0719491D01*
X0094188Y0719542D01*
X0094213Y0719592D01*
X0094242Y0719640D01*
X0094273Y0719685D01*
X0094308Y0719728D01*
X0094346Y0719769D01*
X0094387Y0719807D01*
X0094430Y0719842D01*
X0094475Y0719873D01*
X0094523Y0719902D01*
X0094573Y0719927D01*
X0094624Y0719948D01*
X0094677Y0719965D01*
X0094731Y0719979D01*
X0094785Y0719989D01*
X0094840Y0719995D01*
X0094896Y0719997D01*
X0094896Y0719996D02*
X0096062Y0719996D01*
X0096063Y0719996D02*
X0096061Y0720075D01*
X0096055Y0720153D01*
X0096045Y0720232D01*
X0096031Y0720309D01*
X0096013Y0720386D01*
X0095992Y0720462D01*
X0095966Y0720536D01*
X0095937Y0720610D01*
X0095904Y0720681D01*
X0095867Y0720751D01*
X0095827Y0720819D01*
X0095784Y0720885D01*
X0095737Y0720948D01*
X0095688Y0721010D01*
X0095635Y0721068D01*
X0095579Y0721124D01*
X0095521Y0721177D01*
X0095459Y0721226D01*
X0095396Y0721273D01*
X0095330Y0721316D01*
X0095262Y0721356D01*
X0095192Y0721393D01*
X0095121Y0721426D01*
X0095047Y0721455D01*
X0094973Y0721481D01*
X0094897Y0721502D01*
X0094820Y0721520D01*
X0094743Y0721534D01*
X0094664Y0721544D01*
X0094586Y0721550D01*
X0094507Y0721552D01*
X0087830Y0719996D02*
X0087789Y0720038D01*
X0087750Y0720082D01*
X0087715Y0720129D01*
X0087682Y0720177D01*
X0087652Y0720228D01*
X0087626Y0720280D01*
X0087603Y0720334D01*
X0087583Y0720389D01*
X0087567Y0720445D01*
X0087554Y0720502D01*
X0087545Y0720560D01*
X0087540Y0720618D01*
X0087538Y0720677D01*
X0087829Y0719996D02*
X0089482Y0718052D01*
X0087538Y0718052D01*
X0085090Y0718052D02*
X0084118Y0721552D01*
X0086062Y0721552D01*
X0086062Y0721163D01*
X0087538Y0720677D02*
X0087540Y0720734D01*
X0087545Y0720791D01*
X0087555Y0720848D01*
X0087568Y0720903D01*
X0087584Y0720958D01*
X0087605Y0721012D01*
X0087628Y0721064D01*
X0087655Y0721115D01*
X0087685Y0721163D01*
X0087719Y0721210D01*
X0087755Y0721254D01*
X0087794Y0721296D01*
X0087836Y0721335D01*
X0087880Y0721371D01*
X0087927Y0721405D01*
X0087976Y0721435D01*
X0088026Y0721462D01*
X0088078Y0721485D01*
X0088132Y0721506D01*
X0088187Y0721522D01*
X0088242Y0721535D01*
X0088299Y0721545D01*
X0088356Y0721550D01*
X0088413Y0721552D01*
X0088477Y0721550D01*
X0088541Y0721545D01*
X0088605Y0721536D01*
X0088668Y0721523D01*
X0088730Y0721506D01*
X0088791Y0721487D01*
X0088851Y0721463D01*
X0088909Y0721437D01*
X0088966Y0721407D01*
X0089021Y0721373D01*
X0089074Y0721337D01*
X0089125Y0721298D01*
X0089173Y0721256D01*
X0089220Y0721211D01*
X0089263Y0721164D01*
X0089304Y0721114D01*
X0089341Y0721062D01*
X0089376Y0721008D01*
X0089408Y0720952D01*
X0089436Y0720894D01*
X0089461Y0720835D01*
X0089482Y0720774D01*
X0079482Y0720774D02*
X0078510Y0721552D01*
X0078510Y0718052D01*
X0079482Y0718052D02*
X0077538Y0718052D01*
X0076062Y0718052D02*
X0074896Y0718052D01*
X0074840Y0718054D01*
X0074785Y0718060D01*
X0074731Y0718070D01*
X0074677Y0718084D01*
X0074624Y0718101D01*
X0074573Y0718122D01*
X0074523Y0718147D01*
X0074475Y0718176D01*
X0074430Y0718207D01*
X0074387Y0718242D01*
X0074346Y0718280D01*
X0074308Y0718321D01*
X0074273Y0718364D01*
X0074242Y0718409D01*
X0074213Y0718457D01*
X0074188Y0718507D01*
X0074167Y0718558D01*
X0074150Y0718611D01*
X0074136Y0718665D01*
X0074126Y0718719D01*
X0074120Y0718774D01*
X0074118Y0718830D01*
X0074118Y0719219D01*
X0074120Y0719275D01*
X0074126Y0719330D01*
X0074136Y0719384D01*
X0074150Y0719438D01*
X0074167Y0719491D01*
X0074188Y0719542D01*
X0074213Y0719592D01*
X0074242Y0719640D01*
X0074273Y0719685D01*
X0074308Y0719728D01*
X0074346Y0719769D01*
X0074387Y0719807D01*
X0074430Y0719842D01*
X0074475Y0719873D01*
X0074523Y0719902D01*
X0074573Y0719927D01*
X0074624Y0719948D01*
X0074677Y0719965D01*
X0074731Y0719979D01*
X0074785Y0719989D01*
X0074840Y0719995D01*
X0074896Y0719997D01*
X0074896Y0719996D02*
X0076062Y0719996D01*
X0076062Y0721552D01*
X0074118Y0721552D01*
X0069482Y0720774D02*
X0068510Y0721552D01*
X0068510Y0718052D01*
X0069482Y0718052D02*
X0067538Y0718052D01*
X0066062Y0718830D02*
X0065284Y0721552D01*
X0064701Y0719608D02*
X0064701Y0718052D01*
X0064118Y0718830D02*
X0066062Y0718830D01*
X0057772Y0718830D02*
X0055828Y0718830D01*
X0056411Y0719608D02*
X0056411Y0718052D01*
X0057772Y0718830D02*
X0056994Y0721552D01*
X0050757Y0721652D02*
X0049657Y0721652D01*
X0049605Y0721650D01*
X0049553Y0721645D01*
X0049501Y0721635D01*
X0049450Y0721622D01*
X0049401Y0721606D01*
X0049353Y0721586D01*
X0049306Y0721562D01*
X0049261Y0721536D01*
X0049218Y0721506D01*
X0049177Y0721473D01*
X0049139Y0721437D01*
X0049103Y0721399D01*
X0049070Y0721358D01*
X0049040Y0721315D01*
X0049014Y0721270D01*
X0048990Y0721223D01*
X0048970Y0721175D01*
X0048954Y0721126D01*
X0048941Y0721075D01*
X0048931Y0721023D01*
X0048926Y0720971D01*
X0048924Y0720919D01*
X0048926Y0720867D01*
X0048931Y0720815D01*
X0048941Y0720763D01*
X0048954Y0720712D01*
X0048970Y0720663D01*
X0048990Y0720615D01*
X0049014Y0720568D01*
X0049040Y0720523D01*
X0049070Y0720480D01*
X0049103Y0720439D01*
X0049139Y0720401D01*
X0049177Y0720365D01*
X0049218Y0720332D01*
X0049261Y0720302D01*
X0049306Y0720276D01*
X0049353Y0720252D01*
X0049401Y0720232D01*
X0049450Y0720216D01*
X0049501Y0720203D01*
X0049553Y0720193D01*
X0049605Y0720188D01*
X0049657Y0720186D01*
X0049657Y0720185D02*
X0050390Y0720185D01*
X0049840Y0720186D02*
X0049781Y0720184D01*
X0049723Y0720178D01*
X0049665Y0720169D01*
X0049607Y0720156D01*
X0049551Y0720139D01*
X0049496Y0720119D01*
X0049442Y0720095D01*
X0049390Y0720068D01*
X0049340Y0720038D01*
X0049292Y0720004D01*
X0049246Y0719967D01*
X0049202Y0719928D01*
X0049161Y0719885D01*
X0049123Y0719841D01*
X0049088Y0719794D01*
X0049056Y0719744D01*
X0049027Y0719693D01*
X0049001Y0719640D01*
X0048979Y0719586D01*
X0048961Y0719530D01*
X0048946Y0719473D01*
X0048935Y0719415D01*
X0048927Y0719357D01*
X0048923Y0719298D01*
X0048923Y0719240D01*
X0048927Y0719181D01*
X0048935Y0719123D01*
X0048946Y0719065D01*
X0048961Y0719008D01*
X0048979Y0718952D01*
X0049001Y0718898D01*
X0049027Y0718845D01*
X0049056Y0718794D01*
X0049088Y0718744D01*
X0049123Y0718697D01*
X0049161Y0718653D01*
X0049202Y0718610D01*
X0049246Y0718571D01*
X0049292Y0718534D01*
X0049340Y0718500D01*
X0049390Y0718470D01*
X0049442Y0718443D01*
X0049496Y0718419D01*
X0049551Y0718399D01*
X0049607Y0718382D01*
X0049665Y0718369D01*
X0049723Y0718360D01*
X0049781Y0718354D01*
X0049840Y0718352D01*
X0050757Y0718352D01*
X0046600Y0718352D02*
X0047700Y0721652D01*
X0045500Y0721652D02*
X0046600Y0718352D01*
X0044277Y0718352D02*
X0043360Y0718352D01*
X0043301Y0718354D01*
X0043243Y0718360D01*
X0043185Y0718369D01*
X0043127Y0718382D01*
X0043071Y0718399D01*
X0043016Y0718419D01*
X0042962Y0718443D01*
X0042910Y0718470D01*
X0042860Y0718500D01*
X0042812Y0718534D01*
X0042766Y0718571D01*
X0042722Y0718610D01*
X0042681Y0718653D01*
X0042643Y0718697D01*
X0042608Y0718744D01*
X0042576Y0718794D01*
X0042547Y0718845D01*
X0042521Y0718898D01*
X0042499Y0718952D01*
X0042481Y0719008D01*
X0042466Y0719065D01*
X0042455Y0719123D01*
X0042447Y0719181D01*
X0042443Y0719240D01*
X0042443Y0719298D01*
X0042447Y0719357D01*
X0042455Y0719415D01*
X0042466Y0719473D01*
X0042481Y0719530D01*
X0042499Y0719586D01*
X0042521Y0719640D01*
X0042547Y0719693D01*
X0042576Y0719744D01*
X0042608Y0719794D01*
X0042643Y0719841D01*
X0042681Y0719885D01*
X0042722Y0719928D01*
X0042766Y0719967D01*
X0042812Y0720004D01*
X0042860Y0720038D01*
X0042910Y0720068D01*
X0042962Y0720095D01*
X0043016Y0720119D01*
X0043071Y0720139D01*
X0043127Y0720156D01*
X0043185Y0720169D01*
X0043243Y0720178D01*
X0043301Y0720184D01*
X0043360Y0720186D01*
X0043177Y0720185D02*
X0043910Y0720185D01*
X0043177Y0720186D02*
X0043125Y0720188D01*
X0043073Y0720193D01*
X0043021Y0720203D01*
X0042970Y0720216D01*
X0042921Y0720232D01*
X0042873Y0720252D01*
X0042826Y0720276D01*
X0042781Y0720302D01*
X0042738Y0720332D01*
X0042697Y0720365D01*
X0042659Y0720401D01*
X0042623Y0720439D01*
X0042590Y0720480D01*
X0042560Y0720523D01*
X0042534Y0720568D01*
X0042510Y0720615D01*
X0042490Y0720663D01*
X0042474Y0720712D01*
X0042461Y0720763D01*
X0042451Y0720815D01*
X0042446Y0720867D01*
X0042444Y0720919D01*
X0042446Y0720971D01*
X0042451Y0721023D01*
X0042461Y0721075D01*
X0042474Y0721126D01*
X0042490Y0721175D01*
X0042510Y0721223D01*
X0042534Y0721270D01*
X0042560Y0721315D01*
X0042590Y0721358D01*
X0042623Y0721399D01*
X0042659Y0721437D01*
X0042697Y0721473D01*
X0042738Y0721506D01*
X0042781Y0721536D01*
X0042826Y0721562D01*
X0042873Y0721586D01*
X0042921Y0721606D01*
X0042970Y0721622D01*
X0043021Y0721635D01*
X0043073Y0721645D01*
X0043125Y0721650D01*
X0043177Y0721652D01*
X0044277Y0721652D01*
X0039128Y0721652D02*
X0037295Y0721652D01*
X0036072Y0721652D02*
X0034972Y0718352D01*
X0033872Y0721652D01*
X0031273Y0721019D02*
X0031273Y0719185D01*
X0031272Y0719185D02*
X0031270Y0719133D01*
X0031265Y0719081D01*
X0031255Y0719029D01*
X0031242Y0718978D01*
X0031226Y0718929D01*
X0031206Y0718881D01*
X0031182Y0718834D01*
X0031156Y0718789D01*
X0031126Y0718746D01*
X0031093Y0718705D01*
X0031057Y0718667D01*
X0031019Y0718631D01*
X0030978Y0718598D01*
X0030935Y0718568D01*
X0030890Y0718542D01*
X0030844Y0718518D01*
X0030795Y0718498D01*
X0030746Y0718482D01*
X0030695Y0718469D01*
X0030643Y0718459D01*
X0030591Y0718454D01*
X0030539Y0718452D01*
X0029439Y0718452D01*
X0029439Y0720285D01*
X0029989Y0720285D01*
X0031272Y0721019D02*
X0031270Y0721071D01*
X0031265Y0721123D01*
X0031255Y0721175D01*
X0031242Y0721226D01*
X0031226Y0721275D01*
X0031206Y0721323D01*
X0031182Y0721370D01*
X0031156Y0721415D01*
X0031126Y0721458D01*
X0031093Y0721499D01*
X0031057Y0721537D01*
X0031019Y0721573D01*
X0030978Y0721606D01*
X0030935Y0721636D01*
X0030890Y0721662D01*
X0030844Y0721686D01*
X0030795Y0721706D01*
X0030746Y0721722D01*
X0030695Y0721735D01*
X0030643Y0721745D01*
X0030591Y0721750D01*
X0030539Y0721752D01*
X0029439Y0721752D01*
X0027817Y0721752D02*
X0025983Y0718452D01*
X0025983Y0721752D01*
X0024361Y0721752D02*
X0024361Y0718452D01*
X0023444Y0718452D01*
X0023386Y0718454D01*
X0023329Y0718459D01*
X0023272Y0718468D01*
X0023216Y0718481D01*
X0023161Y0718497D01*
X0023106Y0718516D01*
X0023054Y0718539D01*
X0023002Y0718565D01*
X0022953Y0718595D01*
X0022905Y0718627D01*
X0022859Y0718662D01*
X0022816Y0718701D01*
X0022776Y0718741D01*
X0022737Y0718784D01*
X0022702Y0718830D01*
X0022670Y0718878D01*
X0022640Y0718927D01*
X0022614Y0718979D01*
X0022591Y0719031D01*
X0022572Y0719086D01*
X0022556Y0719141D01*
X0022543Y0719197D01*
X0022534Y0719254D01*
X0022529Y0719311D01*
X0022527Y0719369D01*
X0022527Y0720835D01*
X0022529Y0720895D01*
X0022535Y0720955D01*
X0022545Y0721014D01*
X0022558Y0721072D01*
X0022576Y0721130D01*
X0022597Y0721186D01*
X0022622Y0721241D01*
X0022650Y0721294D01*
X0022682Y0721344D01*
X0022716Y0721393D01*
X0022755Y0721440D01*
X0022796Y0721483D01*
X0022839Y0721524D01*
X0022886Y0721563D01*
X0022935Y0721597D01*
X0022986Y0721629D01*
X0023038Y0721657D01*
X0023093Y0721682D01*
X0023149Y0721703D01*
X0023207Y0721721D01*
X0023265Y0721734D01*
X0023324Y0721744D01*
X0023384Y0721750D01*
X0023444Y0721752D01*
X0024361Y0721752D01*
X0020670Y0721752D02*
X0020670Y0718452D01*
X0019753Y0718452D01*
X0019694Y0718454D01*
X0019636Y0718460D01*
X0019578Y0718469D01*
X0019520Y0718482D01*
X0019464Y0718499D01*
X0019409Y0718519D01*
X0019355Y0718543D01*
X0019303Y0718570D01*
X0019253Y0718600D01*
X0019205Y0718634D01*
X0019159Y0718671D01*
X0019115Y0718710D01*
X0019074Y0718753D01*
X0019036Y0718797D01*
X0019001Y0718844D01*
X0018969Y0718894D01*
X0018940Y0718945D01*
X0018914Y0718998D01*
X0018892Y0719052D01*
X0018874Y0719108D01*
X0018859Y0719165D01*
X0018848Y0719223D01*
X0018840Y0719281D01*
X0018836Y0719340D01*
X0018836Y0719398D01*
X0018840Y0719457D01*
X0018848Y0719515D01*
X0018859Y0719573D01*
X0018874Y0719630D01*
X0018892Y0719686D01*
X0018914Y0719740D01*
X0018940Y0719793D01*
X0018969Y0719844D01*
X0019001Y0719894D01*
X0019036Y0719941D01*
X0019074Y0719985D01*
X0019115Y0720028D01*
X0019159Y0720067D01*
X0019205Y0720104D01*
X0019253Y0720138D01*
X0019303Y0720168D01*
X0019355Y0720195D01*
X0019409Y0720219D01*
X0019464Y0720239D01*
X0019520Y0720256D01*
X0019578Y0720269D01*
X0019636Y0720278D01*
X0019694Y0720284D01*
X0019753Y0720286D01*
X0019753Y0720285D02*
X0020670Y0720285D01*
X0019753Y0720286D02*
X0019701Y0720288D01*
X0019649Y0720293D01*
X0019597Y0720303D01*
X0019546Y0720316D01*
X0019497Y0720332D01*
X0019449Y0720352D01*
X0019402Y0720376D01*
X0019357Y0720402D01*
X0019314Y0720432D01*
X0019273Y0720465D01*
X0019235Y0720501D01*
X0019199Y0720539D01*
X0019166Y0720580D01*
X0019136Y0720623D01*
X0019110Y0720668D01*
X0019086Y0720715D01*
X0019066Y0720763D01*
X0019050Y0720812D01*
X0019037Y0720863D01*
X0019027Y0720915D01*
X0019022Y0720967D01*
X0019020Y0721019D01*
X0019022Y0721071D01*
X0019027Y0721123D01*
X0019037Y0721175D01*
X0019050Y0721226D01*
X0019066Y0721275D01*
X0019086Y0721323D01*
X0019110Y0721370D01*
X0019136Y0721415D01*
X0019166Y0721458D01*
X0019199Y0721499D01*
X0019235Y0721537D01*
X0019273Y0721573D01*
X0019314Y0721606D01*
X0019357Y0721636D01*
X0019402Y0721662D01*
X0019449Y0721686D01*
X0019497Y0721706D01*
X0019546Y0721722D01*
X0019597Y0721735D01*
X0019649Y0721745D01*
X0019701Y0721750D01*
X0019753Y0721752D01*
X0020670Y0721752D01*
X0016670Y0721752D02*
X0017770Y0718452D01*
X0017495Y0719277D02*
X0015845Y0719277D01*
X0015570Y0718452D02*
X0016670Y0721752D01*
X0014563Y0721752D02*
X0012730Y0721752D01*
X0013647Y0721752D02*
X0013647Y0718452D01*
X0027817Y0718452D02*
X0027817Y0721752D01*
X0037295Y0719452D02*
X0037295Y0719085D01*
X0037297Y0719033D01*
X0037302Y0718981D01*
X0037312Y0718929D01*
X0037325Y0718878D01*
X0037341Y0718829D01*
X0037361Y0718781D01*
X0037385Y0718734D01*
X0037411Y0718689D01*
X0037441Y0718646D01*
X0037474Y0718605D01*
X0037510Y0718567D01*
X0037548Y0718531D01*
X0037589Y0718498D01*
X0037632Y0718468D01*
X0037677Y0718442D01*
X0037724Y0718418D01*
X0037772Y0718398D01*
X0037821Y0718382D01*
X0037872Y0718369D01*
X0037924Y0718359D01*
X0037976Y0718354D01*
X0038028Y0718352D01*
X0039128Y0718352D01*
X0038028Y0720185D02*
X0037976Y0720183D01*
X0037924Y0720178D01*
X0037872Y0720168D01*
X0037821Y0720155D01*
X0037772Y0720139D01*
X0037724Y0720119D01*
X0037677Y0720095D01*
X0037632Y0720069D01*
X0037589Y0720039D01*
X0037548Y0720006D01*
X0037510Y0719970D01*
X0037474Y0719932D01*
X0037441Y0719891D01*
X0037411Y0719848D01*
X0037385Y0719803D01*
X0037361Y0719757D01*
X0037341Y0719708D01*
X0037325Y0719659D01*
X0037312Y0719608D01*
X0037302Y0719556D01*
X0037297Y0719504D01*
X0037295Y0719452D01*
X0038028Y0720185D02*
X0039128Y0720185D01*
X0039128Y0721652D01*
X0104118Y0721552D02*
X0106062Y0721552D01*
X0106062Y0719996D01*
X0104896Y0719996D01*
X0104896Y0719997D02*
X0104840Y0719995D01*
X0104785Y0719989D01*
X0104731Y0719979D01*
X0104677Y0719965D01*
X0104624Y0719948D01*
X0104573Y0719927D01*
X0104523Y0719902D01*
X0104475Y0719873D01*
X0104430Y0719842D01*
X0104387Y0719807D01*
X0104346Y0719769D01*
X0104308Y0719728D01*
X0104273Y0719685D01*
X0104242Y0719640D01*
X0104213Y0719592D01*
X0104188Y0719542D01*
X0104167Y0719491D01*
X0104150Y0719438D01*
X0104136Y0719384D01*
X0104126Y0719330D01*
X0104120Y0719275D01*
X0104118Y0719219D01*
X0104118Y0718830D01*
X0104120Y0718774D01*
X0104126Y0718719D01*
X0104136Y0718665D01*
X0104150Y0718611D01*
X0104167Y0718558D01*
X0104188Y0718507D01*
X0104213Y0718457D01*
X0104242Y0718409D01*
X0104273Y0718364D01*
X0104308Y0718321D01*
X0104346Y0718280D01*
X0104387Y0718242D01*
X0104430Y0718207D01*
X0104475Y0718176D01*
X0104523Y0718147D01*
X0104573Y0718122D01*
X0104624Y0718101D01*
X0104677Y0718084D01*
X0104731Y0718070D01*
X0104785Y0718060D01*
X0104840Y0718054D01*
X0104896Y0718052D01*
X0106062Y0718052D01*
X0107538Y0718052D02*
X0109482Y0718052D01*
X0107829Y0719996D01*
X0108413Y0721552D02*
X0108477Y0721550D01*
X0108541Y0721545D01*
X0108605Y0721536D01*
X0108668Y0721523D01*
X0108730Y0721506D01*
X0108791Y0721487D01*
X0108851Y0721463D01*
X0108909Y0721437D01*
X0108966Y0721407D01*
X0109021Y0721373D01*
X0109074Y0721337D01*
X0109125Y0721298D01*
X0109173Y0721256D01*
X0109220Y0721211D01*
X0109263Y0721164D01*
X0109304Y0721114D01*
X0109341Y0721062D01*
X0109376Y0721008D01*
X0109408Y0720952D01*
X0109436Y0720894D01*
X0109461Y0720835D01*
X0109482Y0720774D01*
X0107830Y0719996D02*
X0107789Y0720038D01*
X0107750Y0720082D01*
X0107715Y0720129D01*
X0107682Y0720177D01*
X0107652Y0720228D01*
X0107626Y0720280D01*
X0107603Y0720334D01*
X0107583Y0720389D01*
X0107567Y0720445D01*
X0107554Y0720502D01*
X0107545Y0720560D01*
X0107540Y0720618D01*
X0107538Y0720677D01*
X0107540Y0720734D01*
X0107545Y0720791D01*
X0107555Y0720848D01*
X0107568Y0720903D01*
X0107584Y0720958D01*
X0107605Y0721012D01*
X0107628Y0721064D01*
X0107655Y0721115D01*
X0107685Y0721163D01*
X0107719Y0721210D01*
X0107755Y0721254D01*
X0107794Y0721296D01*
X0107836Y0721335D01*
X0107880Y0721371D01*
X0107927Y0721405D01*
X0107976Y0721435D01*
X0108026Y0721462D01*
X0108078Y0721485D01*
X0108132Y0721506D01*
X0108187Y0721522D01*
X0108242Y0721535D01*
X0108299Y0721545D01*
X0108356Y0721550D01*
X0108413Y0721552D01*
M02*
