G75*
%MOIN*%
%OFA0B0*%
%FSLAX25Y25*%
%IPPOS*%
%LPD*%
%AMOC8*
5,1,8,0,0,1.08239X$1,22.5*
%
%ADD10C,0.00000*%
D10*
X0014936Y0456002D02*
X0127592Y0456002D01*
X0127814Y0456005D01*
X0128037Y0456013D01*
X0128259Y0456026D01*
X0128481Y0456045D01*
X0128702Y0456069D01*
X0128922Y0456099D01*
X0129142Y0456133D01*
X0129361Y0456174D01*
X0129579Y0456219D01*
X0129796Y0456270D01*
X0130011Y0456325D01*
X0130225Y0456386D01*
X0130437Y0456453D01*
X0130648Y0456524D01*
X0130857Y0456600D01*
X0131064Y0456682D01*
X0131269Y0456768D01*
X0131472Y0456860D01*
X0131673Y0456956D01*
X0131871Y0457057D01*
X0132067Y0457163D01*
X0132260Y0457273D01*
X0132451Y0457388D01*
X0132638Y0457508D01*
X0132823Y0457632D01*
X0133004Y0457761D01*
X0133183Y0457894D01*
X0133358Y0458031D01*
X0133530Y0458172D01*
X0133698Y0458318D01*
X0133863Y0458467D01*
X0134024Y0458621D01*
X0134181Y0458778D01*
X0134335Y0458939D01*
X0134484Y0459104D01*
X0134630Y0459272D01*
X0134771Y0459444D01*
X0134908Y0459619D01*
X0135041Y0459798D01*
X0135170Y0459979D01*
X0135294Y0460164D01*
X0135414Y0460351D01*
X0135529Y0460542D01*
X0135639Y0460735D01*
X0135745Y0460931D01*
X0135846Y0461129D01*
X0135942Y0461330D01*
X0136034Y0461533D01*
X0136120Y0461738D01*
X0136202Y0461945D01*
X0136278Y0462154D01*
X0136349Y0462365D01*
X0136416Y0462577D01*
X0136477Y0462791D01*
X0136532Y0463006D01*
X0136583Y0463223D01*
X0136628Y0463441D01*
X0136669Y0463660D01*
X0136703Y0463880D01*
X0136733Y0464100D01*
X0136757Y0464321D01*
X0136776Y0464543D01*
X0136789Y0464765D01*
X0136797Y0464988D01*
X0136800Y0465210D01*
X0136800Y0731794D01*
X0136797Y0732016D01*
X0136789Y0732239D01*
X0136776Y0732461D01*
X0136757Y0732683D01*
X0136733Y0732904D01*
X0136703Y0733124D01*
X0136669Y0733344D01*
X0136628Y0733563D01*
X0136583Y0733781D01*
X0136532Y0733998D01*
X0136477Y0734213D01*
X0136416Y0734427D01*
X0136349Y0734639D01*
X0136278Y0734850D01*
X0136202Y0735059D01*
X0136120Y0735266D01*
X0136034Y0735471D01*
X0135942Y0735674D01*
X0135846Y0735875D01*
X0135745Y0736073D01*
X0135639Y0736269D01*
X0135529Y0736462D01*
X0135414Y0736653D01*
X0135294Y0736840D01*
X0135170Y0737025D01*
X0135041Y0737206D01*
X0134908Y0737385D01*
X0134771Y0737560D01*
X0134630Y0737732D01*
X0134484Y0737900D01*
X0134335Y0738065D01*
X0134181Y0738226D01*
X0134024Y0738383D01*
X0133863Y0738537D01*
X0133698Y0738686D01*
X0133530Y0738832D01*
X0133358Y0738973D01*
X0133183Y0739110D01*
X0133004Y0739243D01*
X0132823Y0739372D01*
X0132638Y0739496D01*
X0132451Y0739616D01*
X0132260Y0739731D01*
X0132067Y0739841D01*
X0131871Y0739947D01*
X0131673Y0740048D01*
X0131472Y0740144D01*
X0131269Y0740236D01*
X0131064Y0740322D01*
X0130857Y0740404D01*
X0130648Y0740480D01*
X0130437Y0740551D01*
X0130225Y0740618D01*
X0130011Y0740679D01*
X0129796Y0740734D01*
X0129579Y0740785D01*
X0129361Y0740830D01*
X0129142Y0740871D01*
X0128922Y0740905D01*
X0128702Y0740935D01*
X0128481Y0740959D01*
X0128259Y0740978D01*
X0128037Y0740991D01*
X0127814Y0740999D01*
X0127592Y0741002D01*
X0014936Y0741002D01*
X0014730Y0741000D01*
X0014524Y0740992D01*
X0014318Y0740980D01*
X0014112Y0740962D01*
X0013907Y0740940D01*
X0013703Y0740912D01*
X0013499Y0740880D01*
X0013296Y0740843D01*
X0013094Y0740801D01*
X0012893Y0740754D01*
X0012694Y0740702D01*
X0012495Y0740646D01*
X0012298Y0740584D01*
X0012103Y0740518D01*
X0011909Y0740447D01*
X0011717Y0740372D01*
X0011527Y0740292D01*
X0011339Y0740207D01*
X0011153Y0740118D01*
X0010969Y0740024D01*
X0010788Y0739926D01*
X0010609Y0739824D01*
X0010432Y0739717D01*
X0010258Y0739606D01*
X0010087Y0739491D01*
X0009919Y0739372D01*
X0009753Y0739249D01*
X0009591Y0739121D01*
X0009432Y0738990D01*
X0009276Y0738855D01*
X0009123Y0738717D01*
X0008974Y0738574D01*
X0008828Y0738428D01*
X0008685Y0738279D01*
X0008547Y0738126D01*
X0008412Y0737970D01*
X0008281Y0737811D01*
X0008153Y0737649D01*
X0008030Y0737483D01*
X0007911Y0737315D01*
X0007796Y0737144D01*
X0007685Y0736970D01*
X0007578Y0736793D01*
X0007476Y0736614D01*
X0007378Y0736433D01*
X0007284Y0736249D01*
X0007195Y0736063D01*
X0007110Y0735875D01*
X0007030Y0735685D01*
X0006955Y0735493D01*
X0006884Y0735299D01*
X0006818Y0735104D01*
X0006756Y0734907D01*
X0006700Y0734708D01*
X0006648Y0734509D01*
X0006601Y0734308D01*
X0006559Y0734106D01*
X0006522Y0733903D01*
X0006490Y0733699D01*
X0006462Y0733495D01*
X0006440Y0733290D01*
X0006422Y0733084D01*
X0006410Y0732878D01*
X0006402Y0732672D01*
X0006400Y0732466D01*
X0006400Y0464537D01*
X0006402Y0464331D01*
X0006410Y0464125D01*
X0006422Y0463919D01*
X0006440Y0463713D01*
X0006462Y0463508D01*
X0006490Y0463304D01*
X0006522Y0463100D01*
X0006559Y0462897D01*
X0006601Y0462695D01*
X0006648Y0462494D01*
X0006700Y0462295D01*
X0006756Y0462096D01*
X0006818Y0461899D01*
X0006884Y0461704D01*
X0006955Y0461510D01*
X0007030Y0461318D01*
X0007110Y0461128D01*
X0007195Y0460940D01*
X0007284Y0460754D01*
X0007378Y0460570D01*
X0007476Y0460389D01*
X0007578Y0460210D01*
X0007685Y0460033D01*
X0007796Y0459859D01*
X0007911Y0459688D01*
X0008030Y0459520D01*
X0008153Y0459354D01*
X0008281Y0459192D01*
X0008412Y0459033D01*
X0008547Y0458877D01*
X0008685Y0458724D01*
X0008828Y0458575D01*
X0008974Y0458429D01*
X0009123Y0458286D01*
X0009276Y0458148D01*
X0009432Y0458013D01*
X0009591Y0457882D01*
X0009753Y0457754D01*
X0009919Y0457631D01*
X0010087Y0457512D01*
X0010258Y0457397D01*
X0010432Y0457286D01*
X0010609Y0457179D01*
X0010788Y0457077D01*
X0010969Y0456979D01*
X0011153Y0456885D01*
X0011339Y0456796D01*
X0011527Y0456711D01*
X0011717Y0456631D01*
X0011909Y0456556D01*
X0012103Y0456485D01*
X0012298Y0456419D01*
X0012495Y0456357D01*
X0012694Y0456301D01*
X0012893Y0456249D01*
X0013094Y0456202D01*
X0013296Y0456160D01*
X0013499Y0456123D01*
X0013703Y0456091D01*
X0013907Y0456063D01*
X0014112Y0456041D01*
X0014318Y0456023D01*
X0014524Y0456011D01*
X0014730Y0456003D01*
X0014936Y0456001D01*
X0011400Y0466002D02*
X0011402Y0466143D01*
X0011408Y0466284D01*
X0011418Y0466424D01*
X0011432Y0466564D01*
X0011450Y0466704D01*
X0011471Y0466843D01*
X0011497Y0466982D01*
X0011526Y0467120D01*
X0011560Y0467256D01*
X0011597Y0467392D01*
X0011638Y0467527D01*
X0011683Y0467661D01*
X0011732Y0467793D01*
X0011784Y0467924D01*
X0011840Y0468053D01*
X0011900Y0468180D01*
X0011963Y0468306D01*
X0012029Y0468430D01*
X0012100Y0468553D01*
X0012173Y0468673D01*
X0012250Y0468791D01*
X0012330Y0468907D01*
X0012414Y0469020D01*
X0012500Y0469131D01*
X0012590Y0469240D01*
X0012683Y0469346D01*
X0012778Y0469449D01*
X0012877Y0469550D01*
X0012978Y0469648D01*
X0013082Y0469743D01*
X0013189Y0469835D01*
X0013298Y0469924D01*
X0013410Y0470009D01*
X0013524Y0470092D01*
X0013640Y0470172D01*
X0013759Y0470248D01*
X0013880Y0470320D01*
X0014002Y0470390D01*
X0014127Y0470455D01*
X0014253Y0470518D01*
X0014381Y0470576D01*
X0014511Y0470631D01*
X0014642Y0470683D01*
X0014775Y0470730D01*
X0014909Y0470774D01*
X0015044Y0470815D01*
X0015180Y0470851D01*
X0015317Y0470883D01*
X0015455Y0470912D01*
X0015593Y0470937D01*
X0015733Y0470957D01*
X0015873Y0470974D01*
X0016013Y0470987D01*
X0016154Y0470996D01*
X0016294Y0471001D01*
X0016435Y0471002D01*
X0016576Y0470999D01*
X0016717Y0470992D01*
X0016857Y0470981D01*
X0016997Y0470966D01*
X0017137Y0470947D01*
X0017276Y0470925D01*
X0017414Y0470898D01*
X0017552Y0470868D01*
X0017688Y0470833D01*
X0017824Y0470795D01*
X0017958Y0470753D01*
X0018092Y0470707D01*
X0018224Y0470658D01*
X0018354Y0470604D01*
X0018483Y0470547D01*
X0018610Y0470487D01*
X0018736Y0470423D01*
X0018859Y0470355D01*
X0018981Y0470284D01*
X0019101Y0470210D01*
X0019218Y0470132D01*
X0019333Y0470051D01*
X0019446Y0469967D01*
X0019557Y0469880D01*
X0019665Y0469789D01*
X0019770Y0469696D01*
X0019873Y0469599D01*
X0019973Y0469500D01*
X0020070Y0469398D01*
X0020164Y0469293D01*
X0020255Y0469186D01*
X0020343Y0469076D01*
X0020428Y0468964D01*
X0020510Y0468849D01*
X0020589Y0468732D01*
X0020664Y0468613D01*
X0020736Y0468492D01*
X0020804Y0468369D01*
X0020869Y0468244D01*
X0020931Y0468117D01*
X0020988Y0467988D01*
X0021043Y0467858D01*
X0021093Y0467727D01*
X0021140Y0467594D01*
X0021183Y0467460D01*
X0021222Y0467324D01*
X0021257Y0467188D01*
X0021289Y0467051D01*
X0021316Y0466913D01*
X0021340Y0466774D01*
X0021360Y0466634D01*
X0021376Y0466494D01*
X0021388Y0466354D01*
X0021396Y0466213D01*
X0021400Y0466072D01*
X0021400Y0465932D01*
X0021396Y0465791D01*
X0021388Y0465650D01*
X0021376Y0465510D01*
X0021360Y0465370D01*
X0021340Y0465230D01*
X0021316Y0465091D01*
X0021289Y0464953D01*
X0021257Y0464816D01*
X0021222Y0464680D01*
X0021183Y0464544D01*
X0021140Y0464410D01*
X0021093Y0464277D01*
X0021043Y0464146D01*
X0020988Y0464016D01*
X0020931Y0463887D01*
X0020869Y0463760D01*
X0020804Y0463635D01*
X0020736Y0463512D01*
X0020664Y0463391D01*
X0020589Y0463272D01*
X0020510Y0463155D01*
X0020428Y0463040D01*
X0020343Y0462928D01*
X0020255Y0462818D01*
X0020164Y0462711D01*
X0020070Y0462606D01*
X0019973Y0462504D01*
X0019873Y0462405D01*
X0019770Y0462308D01*
X0019665Y0462215D01*
X0019557Y0462124D01*
X0019446Y0462037D01*
X0019333Y0461953D01*
X0019218Y0461872D01*
X0019101Y0461794D01*
X0018981Y0461720D01*
X0018859Y0461649D01*
X0018736Y0461581D01*
X0018610Y0461517D01*
X0018483Y0461457D01*
X0018354Y0461400D01*
X0018224Y0461346D01*
X0018092Y0461297D01*
X0017958Y0461251D01*
X0017824Y0461209D01*
X0017688Y0461171D01*
X0017552Y0461136D01*
X0017414Y0461106D01*
X0017276Y0461079D01*
X0017137Y0461057D01*
X0016997Y0461038D01*
X0016857Y0461023D01*
X0016717Y0461012D01*
X0016576Y0461005D01*
X0016435Y0461002D01*
X0016294Y0461003D01*
X0016154Y0461008D01*
X0016013Y0461017D01*
X0015873Y0461030D01*
X0015733Y0461047D01*
X0015593Y0461067D01*
X0015455Y0461092D01*
X0015317Y0461121D01*
X0015180Y0461153D01*
X0015044Y0461189D01*
X0014909Y0461230D01*
X0014775Y0461274D01*
X0014642Y0461321D01*
X0014511Y0461373D01*
X0014381Y0461428D01*
X0014253Y0461486D01*
X0014127Y0461549D01*
X0014002Y0461614D01*
X0013880Y0461684D01*
X0013759Y0461756D01*
X0013640Y0461832D01*
X0013524Y0461912D01*
X0013410Y0461995D01*
X0013298Y0462080D01*
X0013189Y0462169D01*
X0013082Y0462261D01*
X0012978Y0462356D01*
X0012877Y0462454D01*
X0012778Y0462555D01*
X0012683Y0462658D01*
X0012590Y0462764D01*
X0012500Y0462873D01*
X0012414Y0462984D01*
X0012330Y0463097D01*
X0012250Y0463213D01*
X0012173Y0463331D01*
X0012100Y0463451D01*
X0012029Y0463574D01*
X0011963Y0463698D01*
X0011900Y0463824D01*
X0011840Y0463951D01*
X0011784Y0464080D01*
X0011732Y0464211D01*
X0011683Y0464343D01*
X0011638Y0464477D01*
X0011597Y0464612D01*
X0011560Y0464748D01*
X0011526Y0464884D01*
X0011497Y0465022D01*
X0011471Y0465161D01*
X0011450Y0465300D01*
X0011432Y0465440D01*
X0011418Y0465580D01*
X0011408Y0465720D01*
X0011402Y0465861D01*
X0011400Y0466002D01*
X0011400Y0731002D02*
X0011402Y0731143D01*
X0011408Y0731284D01*
X0011418Y0731424D01*
X0011432Y0731564D01*
X0011450Y0731704D01*
X0011471Y0731843D01*
X0011497Y0731982D01*
X0011526Y0732120D01*
X0011560Y0732256D01*
X0011597Y0732392D01*
X0011638Y0732527D01*
X0011683Y0732661D01*
X0011732Y0732793D01*
X0011784Y0732924D01*
X0011840Y0733053D01*
X0011900Y0733180D01*
X0011963Y0733306D01*
X0012029Y0733430D01*
X0012100Y0733553D01*
X0012173Y0733673D01*
X0012250Y0733791D01*
X0012330Y0733907D01*
X0012414Y0734020D01*
X0012500Y0734131D01*
X0012590Y0734240D01*
X0012683Y0734346D01*
X0012778Y0734449D01*
X0012877Y0734550D01*
X0012978Y0734648D01*
X0013082Y0734743D01*
X0013189Y0734835D01*
X0013298Y0734924D01*
X0013410Y0735009D01*
X0013524Y0735092D01*
X0013640Y0735172D01*
X0013759Y0735248D01*
X0013880Y0735320D01*
X0014002Y0735390D01*
X0014127Y0735455D01*
X0014253Y0735518D01*
X0014381Y0735576D01*
X0014511Y0735631D01*
X0014642Y0735683D01*
X0014775Y0735730D01*
X0014909Y0735774D01*
X0015044Y0735815D01*
X0015180Y0735851D01*
X0015317Y0735883D01*
X0015455Y0735912D01*
X0015593Y0735937D01*
X0015733Y0735957D01*
X0015873Y0735974D01*
X0016013Y0735987D01*
X0016154Y0735996D01*
X0016294Y0736001D01*
X0016435Y0736002D01*
X0016576Y0735999D01*
X0016717Y0735992D01*
X0016857Y0735981D01*
X0016997Y0735966D01*
X0017137Y0735947D01*
X0017276Y0735925D01*
X0017414Y0735898D01*
X0017552Y0735868D01*
X0017688Y0735833D01*
X0017824Y0735795D01*
X0017958Y0735753D01*
X0018092Y0735707D01*
X0018224Y0735658D01*
X0018354Y0735604D01*
X0018483Y0735547D01*
X0018610Y0735487D01*
X0018736Y0735423D01*
X0018859Y0735355D01*
X0018981Y0735284D01*
X0019101Y0735210D01*
X0019218Y0735132D01*
X0019333Y0735051D01*
X0019446Y0734967D01*
X0019557Y0734880D01*
X0019665Y0734789D01*
X0019770Y0734696D01*
X0019873Y0734599D01*
X0019973Y0734500D01*
X0020070Y0734398D01*
X0020164Y0734293D01*
X0020255Y0734186D01*
X0020343Y0734076D01*
X0020428Y0733964D01*
X0020510Y0733849D01*
X0020589Y0733732D01*
X0020664Y0733613D01*
X0020736Y0733492D01*
X0020804Y0733369D01*
X0020869Y0733244D01*
X0020931Y0733117D01*
X0020988Y0732988D01*
X0021043Y0732858D01*
X0021093Y0732727D01*
X0021140Y0732594D01*
X0021183Y0732460D01*
X0021222Y0732324D01*
X0021257Y0732188D01*
X0021289Y0732051D01*
X0021316Y0731913D01*
X0021340Y0731774D01*
X0021360Y0731634D01*
X0021376Y0731494D01*
X0021388Y0731354D01*
X0021396Y0731213D01*
X0021400Y0731072D01*
X0021400Y0730932D01*
X0021396Y0730791D01*
X0021388Y0730650D01*
X0021376Y0730510D01*
X0021360Y0730370D01*
X0021340Y0730230D01*
X0021316Y0730091D01*
X0021289Y0729953D01*
X0021257Y0729816D01*
X0021222Y0729680D01*
X0021183Y0729544D01*
X0021140Y0729410D01*
X0021093Y0729277D01*
X0021043Y0729146D01*
X0020988Y0729016D01*
X0020931Y0728887D01*
X0020869Y0728760D01*
X0020804Y0728635D01*
X0020736Y0728512D01*
X0020664Y0728391D01*
X0020589Y0728272D01*
X0020510Y0728155D01*
X0020428Y0728040D01*
X0020343Y0727928D01*
X0020255Y0727818D01*
X0020164Y0727711D01*
X0020070Y0727606D01*
X0019973Y0727504D01*
X0019873Y0727405D01*
X0019770Y0727308D01*
X0019665Y0727215D01*
X0019557Y0727124D01*
X0019446Y0727037D01*
X0019333Y0726953D01*
X0019218Y0726872D01*
X0019101Y0726794D01*
X0018981Y0726720D01*
X0018859Y0726649D01*
X0018736Y0726581D01*
X0018610Y0726517D01*
X0018483Y0726457D01*
X0018354Y0726400D01*
X0018224Y0726346D01*
X0018092Y0726297D01*
X0017958Y0726251D01*
X0017824Y0726209D01*
X0017688Y0726171D01*
X0017552Y0726136D01*
X0017414Y0726106D01*
X0017276Y0726079D01*
X0017137Y0726057D01*
X0016997Y0726038D01*
X0016857Y0726023D01*
X0016717Y0726012D01*
X0016576Y0726005D01*
X0016435Y0726002D01*
X0016294Y0726003D01*
X0016154Y0726008D01*
X0016013Y0726017D01*
X0015873Y0726030D01*
X0015733Y0726047D01*
X0015593Y0726067D01*
X0015455Y0726092D01*
X0015317Y0726121D01*
X0015180Y0726153D01*
X0015044Y0726189D01*
X0014909Y0726230D01*
X0014775Y0726274D01*
X0014642Y0726321D01*
X0014511Y0726373D01*
X0014381Y0726428D01*
X0014253Y0726486D01*
X0014127Y0726549D01*
X0014002Y0726614D01*
X0013880Y0726684D01*
X0013759Y0726756D01*
X0013640Y0726832D01*
X0013524Y0726912D01*
X0013410Y0726995D01*
X0013298Y0727080D01*
X0013189Y0727169D01*
X0013082Y0727261D01*
X0012978Y0727356D01*
X0012877Y0727454D01*
X0012778Y0727555D01*
X0012683Y0727658D01*
X0012590Y0727764D01*
X0012500Y0727873D01*
X0012414Y0727984D01*
X0012330Y0728097D01*
X0012250Y0728213D01*
X0012173Y0728331D01*
X0012100Y0728451D01*
X0012029Y0728574D01*
X0011963Y0728698D01*
X0011900Y0728824D01*
X0011840Y0728951D01*
X0011784Y0729080D01*
X0011732Y0729211D01*
X0011683Y0729343D01*
X0011638Y0729477D01*
X0011597Y0729612D01*
X0011560Y0729748D01*
X0011526Y0729884D01*
X0011497Y0730022D01*
X0011471Y0730161D01*
X0011450Y0730300D01*
X0011432Y0730440D01*
X0011418Y0730580D01*
X0011408Y0730720D01*
X0011402Y0730861D01*
X0011400Y0731002D01*
X0121400Y0731002D02*
X0121402Y0731143D01*
X0121408Y0731284D01*
X0121418Y0731424D01*
X0121432Y0731564D01*
X0121450Y0731704D01*
X0121471Y0731843D01*
X0121497Y0731982D01*
X0121526Y0732120D01*
X0121560Y0732256D01*
X0121597Y0732392D01*
X0121638Y0732527D01*
X0121683Y0732661D01*
X0121732Y0732793D01*
X0121784Y0732924D01*
X0121840Y0733053D01*
X0121900Y0733180D01*
X0121963Y0733306D01*
X0122029Y0733430D01*
X0122100Y0733553D01*
X0122173Y0733673D01*
X0122250Y0733791D01*
X0122330Y0733907D01*
X0122414Y0734020D01*
X0122500Y0734131D01*
X0122590Y0734240D01*
X0122683Y0734346D01*
X0122778Y0734449D01*
X0122877Y0734550D01*
X0122978Y0734648D01*
X0123082Y0734743D01*
X0123189Y0734835D01*
X0123298Y0734924D01*
X0123410Y0735009D01*
X0123524Y0735092D01*
X0123640Y0735172D01*
X0123759Y0735248D01*
X0123880Y0735320D01*
X0124002Y0735390D01*
X0124127Y0735455D01*
X0124253Y0735518D01*
X0124381Y0735576D01*
X0124511Y0735631D01*
X0124642Y0735683D01*
X0124775Y0735730D01*
X0124909Y0735774D01*
X0125044Y0735815D01*
X0125180Y0735851D01*
X0125317Y0735883D01*
X0125455Y0735912D01*
X0125593Y0735937D01*
X0125733Y0735957D01*
X0125873Y0735974D01*
X0126013Y0735987D01*
X0126154Y0735996D01*
X0126294Y0736001D01*
X0126435Y0736002D01*
X0126576Y0735999D01*
X0126717Y0735992D01*
X0126857Y0735981D01*
X0126997Y0735966D01*
X0127137Y0735947D01*
X0127276Y0735925D01*
X0127414Y0735898D01*
X0127552Y0735868D01*
X0127688Y0735833D01*
X0127824Y0735795D01*
X0127958Y0735753D01*
X0128092Y0735707D01*
X0128224Y0735658D01*
X0128354Y0735604D01*
X0128483Y0735547D01*
X0128610Y0735487D01*
X0128736Y0735423D01*
X0128859Y0735355D01*
X0128981Y0735284D01*
X0129101Y0735210D01*
X0129218Y0735132D01*
X0129333Y0735051D01*
X0129446Y0734967D01*
X0129557Y0734880D01*
X0129665Y0734789D01*
X0129770Y0734696D01*
X0129873Y0734599D01*
X0129973Y0734500D01*
X0130070Y0734398D01*
X0130164Y0734293D01*
X0130255Y0734186D01*
X0130343Y0734076D01*
X0130428Y0733964D01*
X0130510Y0733849D01*
X0130589Y0733732D01*
X0130664Y0733613D01*
X0130736Y0733492D01*
X0130804Y0733369D01*
X0130869Y0733244D01*
X0130931Y0733117D01*
X0130988Y0732988D01*
X0131043Y0732858D01*
X0131093Y0732727D01*
X0131140Y0732594D01*
X0131183Y0732460D01*
X0131222Y0732324D01*
X0131257Y0732188D01*
X0131289Y0732051D01*
X0131316Y0731913D01*
X0131340Y0731774D01*
X0131360Y0731634D01*
X0131376Y0731494D01*
X0131388Y0731354D01*
X0131396Y0731213D01*
X0131400Y0731072D01*
X0131400Y0730932D01*
X0131396Y0730791D01*
X0131388Y0730650D01*
X0131376Y0730510D01*
X0131360Y0730370D01*
X0131340Y0730230D01*
X0131316Y0730091D01*
X0131289Y0729953D01*
X0131257Y0729816D01*
X0131222Y0729680D01*
X0131183Y0729544D01*
X0131140Y0729410D01*
X0131093Y0729277D01*
X0131043Y0729146D01*
X0130988Y0729016D01*
X0130931Y0728887D01*
X0130869Y0728760D01*
X0130804Y0728635D01*
X0130736Y0728512D01*
X0130664Y0728391D01*
X0130589Y0728272D01*
X0130510Y0728155D01*
X0130428Y0728040D01*
X0130343Y0727928D01*
X0130255Y0727818D01*
X0130164Y0727711D01*
X0130070Y0727606D01*
X0129973Y0727504D01*
X0129873Y0727405D01*
X0129770Y0727308D01*
X0129665Y0727215D01*
X0129557Y0727124D01*
X0129446Y0727037D01*
X0129333Y0726953D01*
X0129218Y0726872D01*
X0129101Y0726794D01*
X0128981Y0726720D01*
X0128859Y0726649D01*
X0128736Y0726581D01*
X0128610Y0726517D01*
X0128483Y0726457D01*
X0128354Y0726400D01*
X0128224Y0726346D01*
X0128092Y0726297D01*
X0127958Y0726251D01*
X0127824Y0726209D01*
X0127688Y0726171D01*
X0127552Y0726136D01*
X0127414Y0726106D01*
X0127276Y0726079D01*
X0127137Y0726057D01*
X0126997Y0726038D01*
X0126857Y0726023D01*
X0126717Y0726012D01*
X0126576Y0726005D01*
X0126435Y0726002D01*
X0126294Y0726003D01*
X0126154Y0726008D01*
X0126013Y0726017D01*
X0125873Y0726030D01*
X0125733Y0726047D01*
X0125593Y0726067D01*
X0125455Y0726092D01*
X0125317Y0726121D01*
X0125180Y0726153D01*
X0125044Y0726189D01*
X0124909Y0726230D01*
X0124775Y0726274D01*
X0124642Y0726321D01*
X0124511Y0726373D01*
X0124381Y0726428D01*
X0124253Y0726486D01*
X0124127Y0726549D01*
X0124002Y0726614D01*
X0123880Y0726684D01*
X0123759Y0726756D01*
X0123640Y0726832D01*
X0123524Y0726912D01*
X0123410Y0726995D01*
X0123298Y0727080D01*
X0123189Y0727169D01*
X0123082Y0727261D01*
X0122978Y0727356D01*
X0122877Y0727454D01*
X0122778Y0727555D01*
X0122683Y0727658D01*
X0122590Y0727764D01*
X0122500Y0727873D01*
X0122414Y0727984D01*
X0122330Y0728097D01*
X0122250Y0728213D01*
X0122173Y0728331D01*
X0122100Y0728451D01*
X0122029Y0728574D01*
X0121963Y0728698D01*
X0121900Y0728824D01*
X0121840Y0728951D01*
X0121784Y0729080D01*
X0121732Y0729211D01*
X0121683Y0729343D01*
X0121638Y0729477D01*
X0121597Y0729612D01*
X0121560Y0729748D01*
X0121526Y0729884D01*
X0121497Y0730022D01*
X0121471Y0730161D01*
X0121450Y0730300D01*
X0121432Y0730440D01*
X0121418Y0730580D01*
X0121408Y0730720D01*
X0121402Y0730861D01*
X0121400Y0731002D01*
X0121400Y0466002D02*
X0121402Y0466143D01*
X0121408Y0466284D01*
X0121418Y0466424D01*
X0121432Y0466564D01*
X0121450Y0466704D01*
X0121471Y0466843D01*
X0121497Y0466982D01*
X0121526Y0467120D01*
X0121560Y0467256D01*
X0121597Y0467392D01*
X0121638Y0467527D01*
X0121683Y0467661D01*
X0121732Y0467793D01*
X0121784Y0467924D01*
X0121840Y0468053D01*
X0121900Y0468180D01*
X0121963Y0468306D01*
X0122029Y0468430D01*
X0122100Y0468553D01*
X0122173Y0468673D01*
X0122250Y0468791D01*
X0122330Y0468907D01*
X0122414Y0469020D01*
X0122500Y0469131D01*
X0122590Y0469240D01*
X0122683Y0469346D01*
X0122778Y0469449D01*
X0122877Y0469550D01*
X0122978Y0469648D01*
X0123082Y0469743D01*
X0123189Y0469835D01*
X0123298Y0469924D01*
X0123410Y0470009D01*
X0123524Y0470092D01*
X0123640Y0470172D01*
X0123759Y0470248D01*
X0123880Y0470320D01*
X0124002Y0470390D01*
X0124127Y0470455D01*
X0124253Y0470518D01*
X0124381Y0470576D01*
X0124511Y0470631D01*
X0124642Y0470683D01*
X0124775Y0470730D01*
X0124909Y0470774D01*
X0125044Y0470815D01*
X0125180Y0470851D01*
X0125317Y0470883D01*
X0125455Y0470912D01*
X0125593Y0470937D01*
X0125733Y0470957D01*
X0125873Y0470974D01*
X0126013Y0470987D01*
X0126154Y0470996D01*
X0126294Y0471001D01*
X0126435Y0471002D01*
X0126576Y0470999D01*
X0126717Y0470992D01*
X0126857Y0470981D01*
X0126997Y0470966D01*
X0127137Y0470947D01*
X0127276Y0470925D01*
X0127414Y0470898D01*
X0127552Y0470868D01*
X0127688Y0470833D01*
X0127824Y0470795D01*
X0127958Y0470753D01*
X0128092Y0470707D01*
X0128224Y0470658D01*
X0128354Y0470604D01*
X0128483Y0470547D01*
X0128610Y0470487D01*
X0128736Y0470423D01*
X0128859Y0470355D01*
X0128981Y0470284D01*
X0129101Y0470210D01*
X0129218Y0470132D01*
X0129333Y0470051D01*
X0129446Y0469967D01*
X0129557Y0469880D01*
X0129665Y0469789D01*
X0129770Y0469696D01*
X0129873Y0469599D01*
X0129973Y0469500D01*
X0130070Y0469398D01*
X0130164Y0469293D01*
X0130255Y0469186D01*
X0130343Y0469076D01*
X0130428Y0468964D01*
X0130510Y0468849D01*
X0130589Y0468732D01*
X0130664Y0468613D01*
X0130736Y0468492D01*
X0130804Y0468369D01*
X0130869Y0468244D01*
X0130931Y0468117D01*
X0130988Y0467988D01*
X0131043Y0467858D01*
X0131093Y0467727D01*
X0131140Y0467594D01*
X0131183Y0467460D01*
X0131222Y0467324D01*
X0131257Y0467188D01*
X0131289Y0467051D01*
X0131316Y0466913D01*
X0131340Y0466774D01*
X0131360Y0466634D01*
X0131376Y0466494D01*
X0131388Y0466354D01*
X0131396Y0466213D01*
X0131400Y0466072D01*
X0131400Y0465932D01*
X0131396Y0465791D01*
X0131388Y0465650D01*
X0131376Y0465510D01*
X0131360Y0465370D01*
X0131340Y0465230D01*
X0131316Y0465091D01*
X0131289Y0464953D01*
X0131257Y0464816D01*
X0131222Y0464680D01*
X0131183Y0464544D01*
X0131140Y0464410D01*
X0131093Y0464277D01*
X0131043Y0464146D01*
X0130988Y0464016D01*
X0130931Y0463887D01*
X0130869Y0463760D01*
X0130804Y0463635D01*
X0130736Y0463512D01*
X0130664Y0463391D01*
X0130589Y0463272D01*
X0130510Y0463155D01*
X0130428Y0463040D01*
X0130343Y0462928D01*
X0130255Y0462818D01*
X0130164Y0462711D01*
X0130070Y0462606D01*
X0129973Y0462504D01*
X0129873Y0462405D01*
X0129770Y0462308D01*
X0129665Y0462215D01*
X0129557Y0462124D01*
X0129446Y0462037D01*
X0129333Y0461953D01*
X0129218Y0461872D01*
X0129101Y0461794D01*
X0128981Y0461720D01*
X0128859Y0461649D01*
X0128736Y0461581D01*
X0128610Y0461517D01*
X0128483Y0461457D01*
X0128354Y0461400D01*
X0128224Y0461346D01*
X0128092Y0461297D01*
X0127958Y0461251D01*
X0127824Y0461209D01*
X0127688Y0461171D01*
X0127552Y0461136D01*
X0127414Y0461106D01*
X0127276Y0461079D01*
X0127137Y0461057D01*
X0126997Y0461038D01*
X0126857Y0461023D01*
X0126717Y0461012D01*
X0126576Y0461005D01*
X0126435Y0461002D01*
X0126294Y0461003D01*
X0126154Y0461008D01*
X0126013Y0461017D01*
X0125873Y0461030D01*
X0125733Y0461047D01*
X0125593Y0461067D01*
X0125455Y0461092D01*
X0125317Y0461121D01*
X0125180Y0461153D01*
X0125044Y0461189D01*
X0124909Y0461230D01*
X0124775Y0461274D01*
X0124642Y0461321D01*
X0124511Y0461373D01*
X0124381Y0461428D01*
X0124253Y0461486D01*
X0124127Y0461549D01*
X0124002Y0461614D01*
X0123880Y0461684D01*
X0123759Y0461756D01*
X0123640Y0461832D01*
X0123524Y0461912D01*
X0123410Y0461995D01*
X0123298Y0462080D01*
X0123189Y0462169D01*
X0123082Y0462261D01*
X0122978Y0462356D01*
X0122877Y0462454D01*
X0122778Y0462555D01*
X0122683Y0462658D01*
X0122590Y0462764D01*
X0122500Y0462873D01*
X0122414Y0462984D01*
X0122330Y0463097D01*
X0122250Y0463213D01*
X0122173Y0463331D01*
X0122100Y0463451D01*
X0122029Y0463574D01*
X0121963Y0463698D01*
X0121900Y0463824D01*
X0121840Y0463951D01*
X0121784Y0464080D01*
X0121732Y0464211D01*
X0121683Y0464343D01*
X0121638Y0464477D01*
X0121597Y0464612D01*
X0121560Y0464748D01*
X0121526Y0464884D01*
X0121497Y0465022D01*
X0121471Y0465161D01*
X0121450Y0465300D01*
X0121432Y0465440D01*
X0121418Y0465580D01*
X0121408Y0465720D01*
X0121402Y0465861D01*
X0121400Y0466002D01*
M02*
