G75*
%MOIN*%
%OFA0B0*%
%FSLAX25Y25*%
%IPPOS*%
%LPD*%
%AMOC8*
5,1,8,0,0,1.08239X$1,22.5*
%
%ADD10C,0.06000*%
%ADD11C,0.02375*%
%ADD12C,0.01587*%
%ADD13C,0.01981*%
%ADD14C,0.01000*%
D10*
X0019246Y0477252D03*
X0029246Y0477252D03*
X0039246Y0477252D03*
X0049246Y0477252D03*
X0059246Y0477252D03*
X0069246Y0477252D03*
X0079246Y0477252D03*
X0089246Y0477252D03*
X0099246Y0477252D03*
X0109246Y0477252D03*
X0109246Y0537352D03*
X0099246Y0537352D03*
X0089246Y0537352D03*
X0079246Y0537352D03*
X0069246Y0537352D03*
X0059246Y0537352D03*
X0049246Y0537352D03*
X0039246Y0537352D03*
X0029246Y0537352D03*
X0019246Y0537352D03*
D11*
X0021346Y0518374D03*
X0021346Y0496130D03*
D12*
X0016046Y0499752D03*
X0016046Y0502252D03*
X0016046Y0504752D03*
X0016046Y0507252D03*
X0016046Y0509752D03*
X0016046Y0512252D03*
X0016046Y0514752D03*
X0016071Y0525702D03*
X0016071Y0528202D03*
X0016071Y0530702D03*
X0024246Y0534002D03*
X0032696Y0527302D03*
X0035196Y0527302D03*
X0037696Y0527302D03*
X0037846Y0519702D03*
X0037846Y0517302D03*
X0037846Y0514802D03*
X0033346Y0516352D03*
X0026896Y0514352D03*
X0028196Y0509808D03*
X0028196Y0507252D03*
X0033296Y0498502D03*
X0036546Y0495102D03*
X0041346Y0495102D03*
X0045268Y0495176D03*
X0047546Y0493902D03*
X0053246Y0485052D03*
X0054246Y0480102D03*
X0056718Y0491530D03*
X0056130Y0504040D03*
X0053846Y0504033D03*
X0047046Y0515152D03*
X0047046Y0517652D03*
X0047046Y0520002D03*
X0049846Y0520002D03*
X0049846Y0517702D03*
X0052396Y0517652D03*
X0052346Y0520002D03*
X0056096Y0517752D03*
X0058596Y0518602D03*
X0056096Y0524852D03*
X0054246Y0529002D03*
X0054246Y0531502D03*
X0054246Y0534002D03*
X0064246Y0534002D03*
X0067146Y0528502D03*
X0074196Y0530152D03*
X0075246Y0526502D03*
X0074646Y0522802D03*
X0072721Y0523702D03*
X0076846Y0520252D03*
X0079856Y0522811D03*
X0081735Y0524185D03*
X0084246Y0534002D03*
X0087561Y0522400D03*
X0085131Y0520117D03*
X0090542Y0525456D03*
X0094246Y0534002D03*
X0095496Y0521002D03*
X0097446Y0519102D03*
X0099296Y0517202D03*
X0100997Y0515551D03*
X0102574Y0513975D03*
X0104125Y0512474D03*
X0105346Y0510752D03*
X0103546Y0509052D03*
X0101770Y0507376D03*
X0107296Y0499652D03*
X0110646Y0507852D03*
X0109096Y0511002D03*
X0107296Y0516930D03*
X0105861Y0519052D03*
X0101346Y0529002D03*
X0104246Y0534002D03*
X0116846Y0535002D03*
X0116846Y0540002D03*
X0121846Y0540002D03*
X0121746Y0535002D03*
X0121846Y0530002D03*
X0116846Y0530002D03*
X0126846Y0530002D03*
X0126846Y0525002D03*
X0131846Y0530002D03*
X0131746Y0535002D03*
X0131846Y0540002D03*
X0126846Y0540002D03*
X0126746Y0535002D03*
X0136846Y0535002D03*
X0136846Y0540002D03*
X0136846Y0530002D03*
X0136846Y0509702D03*
X0136846Y0504702D03*
X0136846Y0499702D03*
X0136846Y0494702D03*
X0136846Y0489702D03*
X0136846Y0484702D03*
X0136846Y0479702D03*
X0136846Y0474702D03*
X0131846Y0474702D03*
X0131846Y0479702D03*
X0131846Y0484702D03*
X0131846Y0489702D03*
X0131846Y0494702D03*
X0131846Y0499702D03*
X0131846Y0504702D03*
X0126846Y0505002D03*
X0126846Y0500002D03*
X0126846Y0495002D03*
X0126846Y0490002D03*
X0126846Y0485002D03*
X0126846Y0480002D03*
X0126846Y0474702D03*
X0121846Y0474702D03*
X0116846Y0474702D03*
X0116846Y0490002D03*
X0116846Y0495002D03*
X0116846Y0500002D03*
X0121846Y0500002D03*
X0121846Y0505002D03*
X0124646Y0511252D03*
X0121846Y0495002D03*
X0121846Y0490002D03*
X0104246Y0487752D03*
X0104246Y0484002D03*
X0104246Y0480252D03*
X0094246Y0480102D03*
X0094246Y0484002D03*
X0085746Y0491502D03*
X0082546Y0489352D03*
X0084246Y0480102D03*
X0090382Y0496463D03*
X0083146Y0504002D03*
X0079143Y0507998D03*
X0076446Y0510602D03*
X0071821Y0516552D03*
X0068621Y0512602D03*
X0065573Y0510825D03*
X0067164Y0509124D03*
X0062371Y0510877D03*
X0074246Y0534002D03*
X0076868Y0496354D03*
X0074246Y0486502D03*
X0074246Y0484002D03*
X0074246Y0480102D03*
X0064246Y0480102D03*
X0044246Y0480102D03*
X0034246Y0480102D03*
X0031446Y0487502D03*
X0028946Y0487502D03*
X0026446Y0487502D03*
X0023946Y0487502D03*
X0021446Y0487502D03*
X0018946Y0487502D03*
X0016446Y0487502D03*
X0024246Y0480102D03*
X0047146Y0524102D03*
X0044246Y0534002D03*
D13*
X0061546Y0496502D03*
X0066846Y0492902D03*
X0080796Y0511452D03*
X0085846Y0514502D03*
X0085846Y0507552D03*
X0090446Y0511152D03*
X0094746Y0507102D03*
X0090496Y0503802D03*
X0095546Y0514802D03*
X0100096Y0510902D03*
X0090496Y0520052D03*
D14*
X0015246Y0486165D02*
X0015246Y0473702D01*
X0017364Y0473702D01*
X0016981Y0473861D01*
X0015855Y0474986D01*
X0015246Y0476456D01*
X0015246Y0478048D01*
X0015855Y0479518D01*
X0016981Y0480643D01*
X0018451Y0481252D01*
X0020042Y0481252D01*
X0021512Y0480643D01*
X0022453Y0479702D01*
X0022453Y0480845D01*
X0023503Y0481896D01*
X0024989Y0481896D01*
X0026040Y0480845D01*
X0026040Y0479702D01*
X0026981Y0480643D01*
X0028451Y0481252D01*
X0030042Y0481252D01*
X0031512Y0480643D01*
X0032453Y0479702D01*
X0032453Y0480845D01*
X0033503Y0481896D01*
X0034989Y0481896D01*
X0036040Y0480845D01*
X0036040Y0479702D01*
X0036981Y0480643D01*
X0038451Y0481252D01*
X0040042Y0481252D01*
X0041512Y0480643D01*
X0042453Y0479702D01*
X0042453Y0480845D01*
X0043503Y0481896D01*
X0044989Y0481896D01*
X0046040Y0480845D01*
X0046040Y0479702D01*
X0046981Y0480643D01*
X0048451Y0481252D01*
X0050042Y0481252D01*
X0051512Y0480643D01*
X0052453Y0479702D01*
X0052453Y0480845D01*
X0053503Y0481896D01*
X0054989Y0481896D01*
X0056040Y0480845D01*
X0056040Y0479702D01*
X0056981Y0480643D01*
X0058346Y0481209D01*
X0058346Y0492052D01*
X0039496Y0510902D01*
X0039496Y0513915D01*
X0038589Y0513008D01*
X0037103Y0513008D01*
X0036053Y0514059D01*
X0036053Y0515545D01*
X0036560Y0516052D01*
X0036053Y0516559D01*
X0036053Y0518045D01*
X0036510Y0518502D01*
X0036053Y0518959D01*
X0036053Y0520445D01*
X0037103Y0521496D01*
X0038589Y0521496D01*
X0039496Y0520589D01*
X0039496Y0536852D01*
X0038746Y0536852D01*
X0034770Y0536852D01*
X0034857Y0536298D01*
X0035076Y0535625D01*
X0035398Y0534993D01*
X0035814Y0534420D01*
X0036315Y0533920D01*
X0036888Y0533503D01*
X0037519Y0533182D01*
X0038193Y0532963D01*
X0038746Y0532875D01*
X0038746Y0536852D01*
X0038746Y0537852D01*
X0034770Y0537852D01*
X0034857Y0538406D01*
X0035076Y0539079D01*
X0035398Y0539710D01*
X0035814Y0540284D01*
X0036315Y0540784D01*
X0036477Y0540902D01*
X0031128Y0540902D01*
X0031512Y0540743D01*
X0032637Y0539618D01*
X0033246Y0538148D01*
X0033246Y0536556D01*
X0032637Y0535086D01*
X0031512Y0533961D01*
X0030042Y0533352D01*
X0028451Y0533352D01*
X0026981Y0533961D01*
X0025855Y0535086D01*
X0025246Y0536556D01*
X0025246Y0538148D01*
X0025855Y0539618D01*
X0026981Y0540743D01*
X0027364Y0540902D01*
X0021128Y0540902D01*
X0021512Y0540743D01*
X0022637Y0539618D01*
X0023246Y0538148D01*
X0023246Y0536556D01*
X0022637Y0535086D01*
X0021512Y0533961D01*
X0020042Y0533352D01*
X0018451Y0533352D01*
X0016981Y0533961D01*
X0015855Y0535086D01*
X0015246Y0536556D01*
X0015246Y0538148D01*
X0015855Y0539618D01*
X0016981Y0540743D01*
X0017364Y0540902D01*
X0015246Y0540902D01*
X0015246Y0532414D01*
X0015328Y0532496D01*
X0016814Y0532496D01*
X0017865Y0531445D01*
X0017865Y0529959D01*
X0017358Y0529452D01*
X0017865Y0528945D01*
X0017865Y0527459D01*
X0017358Y0526952D01*
X0017865Y0526445D01*
X0017865Y0524959D01*
X0016814Y0523908D01*
X0015328Y0523908D01*
X0015246Y0523990D01*
X0015246Y0516489D01*
X0015303Y0516546D01*
X0016789Y0516546D01*
X0017840Y0515495D01*
X0017840Y0514009D01*
X0017333Y0513502D01*
X0017840Y0512995D01*
X0017840Y0511509D01*
X0017333Y0511002D01*
X0017840Y0510495D01*
X0017840Y0509009D01*
X0017333Y0508502D01*
X0017840Y0507995D01*
X0017840Y0506509D01*
X0017333Y0506002D01*
X0017840Y0505495D01*
X0017840Y0504009D01*
X0017333Y0503502D01*
X0017840Y0502995D01*
X0017840Y0501509D01*
X0017333Y0501002D01*
X0017840Y0500495D01*
X0017840Y0499009D01*
X0016789Y0497958D01*
X0015303Y0497958D01*
X0015246Y0498015D01*
X0015246Y0488839D01*
X0015703Y0489296D01*
X0017189Y0489296D01*
X0017696Y0488789D01*
X0018203Y0489296D01*
X0019689Y0489296D01*
X0020196Y0488789D01*
X0020703Y0489296D01*
X0022189Y0489296D01*
X0022696Y0488789D01*
X0023203Y0489296D01*
X0024689Y0489296D01*
X0025196Y0488789D01*
X0025703Y0489296D01*
X0027189Y0489296D01*
X0027696Y0488789D01*
X0028203Y0489296D01*
X0029689Y0489296D01*
X0030196Y0488789D01*
X0030703Y0489296D01*
X0032189Y0489296D01*
X0033240Y0488245D01*
X0033240Y0486759D01*
X0032189Y0485708D01*
X0030703Y0485708D01*
X0030196Y0486215D01*
X0029689Y0485708D01*
X0028203Y0485708D01*
X0027696Y0486215D01*
X0027189Y0485708D01*
X0025703Y0485708D01*
X0025196Y0486215D01*
X0024689Y0485708D01*
X0023203Y0485708D01*
X0022696Y0486215D01*
X0022189Y0485708D01*
X0020703Y0485708D01*
X0020196Y0486215D01*
X0019689Y0485708D01*
X0018203Y0485708D01*
X0017696Y0486215D01*
X0017189Y0485708D01*
X0015703Y0485708D01*
X0015246Y0486165D01*
X0015246Y0485477D02*
X0051453Y0485477D01*
X0051453Y0485795D02*
X0051453Y0484309D01*
X0052503Y0483258D01*
X0053989Y0483258D01*
X0055040Y0484309D01*
X0055040Y0485795D01*
X0053989Y0486846D01*
X0052503Y0486846D01*
X0051453Y0485795D01*
X0052133Y0486475D02*
X0032956Y0486475D01*
X0033240Y0487474D02*
X0058346Y0487474D01*
X0058346Y0488472D02*
X0033013Y0488472D01*
X0035803Y0493308D02*
X0037289Y0493308D01*
X0038340Y0494359D01*
X0038340Y0495845D01*
X0037289Y0496896D01*
X0035803Y0496896D01*
X0034753Y0495845D01*
X0034753Y0494359D01*
X0035803Y0493308D01*
X0035647Y0493465D02*
X0015246Y0493465D01*
X0015246Y0494463D02*
X0019920Y0494463D01*
X0020440Y0493943D02*
X0022252Y0493943D01*
X0023534Y0495224D01*
X0023534Y0497036D01*
X0022252Y0498317D01*
X0020440Y0498317D01*
X0019159Y0497036D01*
X0019159Y0495224D01*
X0020440Y0493943D01*
X0019159Y0495462D02*
X0015246Y0495462D01*
X0015246Y0496460D02*
X0019159Y0496460D01*
X0019582Y0497459D02*
X0015246Y0497459D01*
X0017288Y0498457D02*
X0027702Y0498457D01*
X0027525Y0498884D02*
X0027903Y0497972D01*
X0028602Y0497273D01*
X0029514Y0496895D01*
X0030502Y0496895D01*
X0031414Y0497273D01*
X0031701Y0497560D01*
X0032553Y0496708D01*
X0034039Y0496708D01*
X0035090Y0497759D01*
X0035090Y0499245D01*
X0034039Y0500296D01*
X0032553Y0500296D01*
X0032385Y0500127D01*
X0032113Y0500784D01*
X0031414Y0501483D01*
X0030502Y0501861D01*
X0029514Y0501861D01*
X0028602Y0501483D01*
X0027903Y0500784D01*
X0027525Y0499872D01*
X0027525Y0498884D01*
X0027525Y0499456D02*
X0017840Y0499456D01*
X0017840Y0500454D02*
X0027766Y0500454D01*
X0028572Y0501453D02*
X0017784Y0501453D01*
X0017840Y0502451D02*
X0047947Y0502451D01*
X0048946Y0501453D02*
X0031444Y0501453D01*
X0032249Y0500454D02*
X0049944Y0500454D01*
X0050943Y0499456D02*
X0034879Y0499456D01*
X0035090Y0498457D02*
X0051941Y0498457D01*
X0052940Y0497459D02*
X0034790Y0497459D01*
X0035368Y0496460D02*
X0023534Y0496460D01*
X0023534Y0495462D02*
X0034753Y0495462D01*
X0034753Y0494463D02*
X0022773Y0494463D01*
X0023111Y0497459D02*
X0028416Y0497459D01*
X0031600Y0497459D02*
X0031803Y0497459D01*
X0028939Y0505458D02*
X0029990Y0506509D01*
X0029990Y0507995D01*
X0029455Y0508530D01*
X0029990Y0509065D01*
X0029990Y0510551D01*
X0028939Y0511602D01*
X0027453Y0511602D01*
X0026403Y0510551D01*
X0026403Y0509065D01*
X0026938Y0508530D01*
X0026403Y0507995D01*
X0026403Y0506509D01*
X0027453Y0505458D01*
X0028939Y0505458D01*
X0029927Y0506445D02*
X0043953Y0506445D01*
X0044952Y0505447D02*
X0017840Y0505447D01*
X0017840Y0504448D02*
X0045950Y0504448D01*
X0046949Y0503450D02*
X0017385Y0503450D01*
X0017777Y0506445D02*
X0026466Y0506445D01*
X0026403Y0507444D02*
X0017840Y0507444D01*
X0017393Y0508442D02*
X0026850Y0508442D01*
X0026403Y0509441D02*
X0017840Y0509441D01*
X0017840Y0510439D02*
X0026403Y0510439D01*
X0027289Y0511438D02*
X0017769Y0511438D01*
X0017840Y0512436D02*
X0039496Y0512436D01*
X0039496Y0511438D02*
X0029103Y0511438D01*
X0029514Y0512643D02*
X0030502Y0512643D01*
X0031414Y0513021D01*
X0032113Y0513720D01*
X0032491Y0514632D01*
X0032491Y0514671D01*
X0032603Y0514558D01*
X0034089Y0514558D01*
X0035140Y0515609D01*
X0035140Y0517095D01*
X0034089Y0518146D01*
X0032603Y0518146D01*
X0031553Y0517095D01*
X0031553Y0517092D01*
X0031414Y0517231D01*
X0030502Y0517609D01*
X0029514Y0517609D01*
X0028602Y0517231D01*
X0027903Y0516532D01*
X0027713Y0516072D01*
X0027639Y0516146D01*
X0026153Y0516146D01*
X0025103Y0515095D01*
X0025103Y0513609D01*
X0026153Y0512558D01*
X0027639Y0512558D01*
X0028352Y0513271D01*
X0028602Y0513021D01*
X0029514Y0512643D01*
X0029990Y0510439D02*
X0039959Y0510439D01*
X0040957Y0509441D02*
X0029990Y0509441D01*
X0029543Y0508442D02*
X0041956Y0508442D01*
X0042955Y0507444D02*
X0029990Y0507444D01*
X0031828Y0513435D02*
X0036677Y0513435D01*
X0036053Y0514433D02*
X0032408Y0514433D01*
X0034963Y0515432D02*
X0036053Y0515432D01*
X0036181Y0516431D02*
X0035140Y0516431D01*
X0034806Y0517429D02*
X0036053Y0517429D01*
X0036435Y0518428D02*
X0023534Y0518428D01*
X0023534Y0519280D02*
X0022252Y0520561D01*
X0020440Y0520561D01*
X0019159Y0519280D01*
X0019159Y0517468D01*
X0020440Y0516187D01*
X0022252Y0516187D01*
X0023534Y0517468D01*
X0023534Y0519280D01*
X0023388Y0519426D02*
X0036053Y0519426D01*
X0036053Y0520425D02*
X0022389Y0520425D01*
X0020304Y0520425D02*
X0015246Y0520425D01*
X0015246Y0521423D02*
X0037031Y0521423D01*
X0038662Y0521423D02*
X0039496Y0521423D01*
X0039496Y0522422D02*
X0015246Y0522422D01*
X0015246Y0523420D02*
X0039496Y0523420D01*
X0039496Y0524419D02*
X0017325Y0524419D01*
X0017865Y0525417D02*
X0039496Y0525417D01*
X0039496Y0526416D02*
X0039347Y0526416D01*
X0039490Y0526559D02*
X0039490Y0528045D01*
X0038439Y0529096D01*
X0036953Y0529096D01*
X0036446Y0528589D01*
X0035939Y0529096D01*
X0034453Y0529096D01*
X0033946Y0528589D01*
X0033439Y0529096D01*
X0031953Y0529096D01*
X0030903Y0528045D01*
X0030903Y0526559D01*
X0031953Y0525508D01*
X0033439Y0525508D01*
X0033946Y0526015D01*
X0034453Y0525508D01*
X0035939Y0525508D01*
X0036446Y0526015D01*
X0036953Y0525508D01*
X0038439Y0525508D01*
X0039490Y0526559D01*
X0039490Y0527414D02*
X0039496Y0527414D01*
X0039496Y0528413D02*
X0039122Y0528413D01*
X0039496Y0529411D02*
X0017399Y0529411D01*
X0017865Y0528413D02*
X0031270Y0528413D01*
X0030903Y0527414D02*
X0017820Y0527414D01*
X0017865Y0526416D02*
X0031046Y0526416D01*
X0030171Y0533405D02*
X0037080Y0533405D01*
X0035831Y0534404D02*
X0031955Y0534404D01*
X0032768Y0535402D02*
X0035189Y0535402D01*
X0034841Y0536401D02*
X0033182Y0536401D01*
X0033246Y0537399D02*
X0038746Y0537399D01*
X0038746Y0536401D02*
X0039496Y0536401D01*
X0039496Y0535402D02*
X0038746Y0535402D01*
X0038746Y0534404D02*
X0039496Y0534404D01*
X0039496Y0533405D02*
X0038746Y0533405D01*
X0039496Y0532407D02*
X0025188Y0532407D01*
X0024989Y0532208D02*
X0026040Y0533259D01*
X0026040Y0534745D01*
X0024989Y0535796D01*
X0023503Y0535796D01*
X0022453Y0534745D01*
X0022453Y0533259D01*
X0023503Y0532208D01*
X0024989Y0532208D01*
X0026040Y0533405D02*
X0028322Y0533405D01*
X0026538Y0534404D02*
X0026040Y0534404D01*
X0025724Y0535402D02*
X0025383Y0535402D01*
X0025311Y0536401D02*
X0023182Y0536401D01*
X0023246Y0537399D02*
X0025246Y0537399D01*
X0025350Y0538398D02*
X0023143Y0538398D01*
X0022729Y0539396D02*
X0025764Y0539396D01*
X0026632Y0540395D02*
X0021860Y0540395D01*
X0022768Y0535402D02*
X0023110Y0535402D01*
X0022453Y0534404D02*
X0021955Y0534404D01*
X0022453Y0533405D02*
X0020171Y0533405D01*
X0018322Y0533405D02*
X0015246Y0533405D01*
X0015246Y0534404D02*
X0016538Y0534404D01*
X0015724Y0535402D02*
X0015246Y0535402D01*
X0015246Y0536401D02*
X0015311Y0536401D01*
X0015246Y0537399D02*
X0015246Y0537399D01*
X0015246Y0538398D02*
X0015350Y0538398D01*
X0015246Y0539396D02*
X0015764Y0539396D01*
X0015246Y0540395D02*
X0016632Y0540395D01*
X0016903Y0532407D02*
X0023305Y0532407D01*
X0019305Y0519426D02*
X0015246Y0519426D01*
X0015246Y0518428D02*
X0019159Y0518428D01*
X0019198Y0517429D02*
X0015246Y0517429D01*
X0016905Y0516431D02*
X0020197Y0516431D01*
X0022496Y0516431D02*
X0027861Y0516431D01*
X0029080Y0517429D02*
X0023495Y0517429D01*
X0025440Y0515432D02*
X0017840Y0515432D01*
X0017840Y0514433D02*
X0025103Y0514433D01*
X0025277Y0513435D02*
X0017400Y0513435D01*
X0017865Y0530410D02*
X0039496Y0530410D01*
X0039496Y0531408D02*
X0017865Y0531408D01*
X0031860Y0540395D02*
X0035925Y0540395D01*
X0035238Y0539396D02*
X0032729Y0539396D01*
X0033143Y0538398D02*
X0034856Y0538398D01*
X0044046Y0538398D02*
X0044856Y0538398D01*
X0044857Y0538406D02*
X0044770Y0537852D01*
X0048746Y0537852D01*
X0048746Y0536852D01*
X0044770Y0536852D01*
X0044857Y0536298D01*
X0045036Y0535750D01*
X0044989Y0535796D01*
X0044046Y0535796D01*
X0044046Y0540902D01*
X0046477Y0540902D01*
X0046315Y0540784D01*
X0045814Y0540284D01*
X0045398Y0539710D01*
X0045076Y0539079D01*
X0044857Y0538406D01*
X0045238Y0539396D02*
X0044046Y0539396D01*
X0044046Y0540395D02*
X0045925Y0540395D01*
X0044046Y0537399D02*
X0048746Y0537399D01*
X0048746Y0536852D02*
X0049746Y0536852D01*
X0049746Y0532875D01*
X0050300Y0532963D01*
X0050974Y0533182D01*
X0051605Y0533503D01*
X0052178Y0533920D01*
X0052453Y0534194D01*
X0052453Y0533259D01*
X0052960Y0532752D01*
X0052453Y0532245D01*
X0052453Y0530759D01*
X0052960Y0530252D01*
X0052453Y0529745D01*
X0052453Y0528259D01*
X0053503Y0527208D01*
X0054989Y0527208D01*
X0056040Y0528259D01*
X0056040Y0529745D01*
X0055533Y0530252D01*
X0056040Y0530759D01*
X0056040Y0532245D01*
X0055533Y0532752D01*
X0056040Y0533259D01*
X0056040Y0534745D01*
X0054989Y0535796D01*
X0053503Y0535796D01*
X0053457Y0535750D01*
X0053636Y0536298D01*
X0053723Y0536852D01*
X0049747Y0536852D01*
X0049747Y0537852D01*
X0053723Y0537852D01*
X0053636Y0538406D01*
X0053417Y0539079D01*
X0053095Y0539710D01*
X0052679Y0540284D01*
X0052178Y0540784D01*
X0052016Y0540902D01*
X0057364Y0540902D01*
X0056981Y0540743D01*
X0055855Y0539618D01*
X0055246Y0538148D01*
X0055246Y0536556D01*
X0055855Y0535086D01*
X0056981Y0533961D01*
X0058451Y0533352D01*
X0060042Y0533352D01*
X0061512Y0533961D01*
X0062637Y0535086D01*
X0063246Y0536556D01*
X0063246Y0538148D01*
X0062637Y0539618D01*
X0061512Y0540743D01*
X0061128Y0540902D01*
X0067364Y0540902D01*
X0066981Y0540743D01*
X0065855Y0539618D01*
X0065246Y0538148D01*
X0065246Y0536556D01*
X0065855Y0535086D01*
X0066981Y0533961D01*
X0068451Y0533352D01*
X0070042Y0533352D01*
X0071512Y0533961D01*
X0072637Y0535086D01*
X0073246Y0536556D01*
X0073246Y0538148D01*
X0072637Y0539618D01*
X0071512Y0540743D01*
X0071128Y0540902D01*
X0077364Y0540902D01*
X0076981Y0540743D01*
X0075855Y0539618D01*
X0075246Y0538148D01*
X0075246Y0536556D01*
X0075855Y0535086D01*
X0076981Y0533961D01*
X0078451Y0533352D01*
X0080042Y0533352D01*
X0081512Y0533961D01*
X0082637Y0535086D01*
X0083246Y0536556D01*
X0083246Y0538148D01*
X0082637Y0539618D01*
X0081512Y0540743D01*
X0081128Y0540902D01*
X0087364Y0540902D01*
X0086981Y0540743D01*
X0085855Y0539618D01*
X0085246Y0538148D01*
X0085246Y0536556D01*
X0085855Y0535086D01*
X0086981Y0533961D01*
X0088451Y0533352D01*
X0090042Y0533352D01*
X0091512Y0533961D01*
X0092637Y0535086D01*
X0093246Y0536556D01*
X0093246Y0538148D01*
X0092637Y0539618D01*
X0091512Y0540743D01*
X0091128Y0540902D01*
X0097364Y0540902D01*
X0096981Y0540743D01*
X0095855Y0539618D01*
X0095246Y0538148D01*
X0095246Y0536556D01*
X0095855Y0535086D01*
X0096981Y0533961D01*
X0098451Y0533352D01*
X0100042Y0533352D01*
X0101512Y0533961D01*
X0102637Y0535086D01*
X0103246Y0536556D01*
X0103246Y0538148D01*
X0102637Y0539618D01*
X0101512Y0540743D01*
X0101128Y0540902D01*
X0107364Y0540902D01*
X0106981Y0540743D01*
X0105855Y0539618D01*
X0105246Y0538148D01*
X0105246Y0536556D01*
X0105855Y0535086D01*
X0106981Y0533961D01*
X0108451Y0533352D01*
X0110042Y0533352D01*
X0110696Y0533623D01*
X0110696Y0511939D01*
X0109839Y0512796D01*
X0108353Y0512796D01*
X0107303Y0511745D01*
X0107303Y0510259D01*
X0108353Y0509208D01*
X0109466Y0509208D01*
X0108853Y0508595D01*
X0108853Y0507109D01*
X0109903Y0506058D01*
X0110696Y0506058D01*
X0110696Y0480981D01*
X0110042Y0481252D01*
X0108451Y0481252D01*
X0106981Y0480643D01*
X0106040Y0479702D01*
X0106040Y0480995D01*
X0104989Y0482046D01*
X0103503Y0482046D01*
X0102453Y0480995D01*
X0102453Y0479702D01*
X0101512Y0480643D01*
X0100042Y0481252D01*
X0098451Y0481252D01*
X0096981Y0480643D01*
X0096040Y0479702D01*
X0096040Y0480845D01*
X0094989Y0481896D01*
X0093503Y0481896D01*
X0092453Y0480845D01*
X0092453Y0479702D01*
X0091512Y0480643D01*
X0090042Y0481252D01*
X0088451Y0481252D01*
X0086981Y0480643D01*
X0086040Y0479702D01*
X0086040Y0480845D01*
X0084989Y0481896D01*
X0083503Y0481896D01*
X0082453Y0480845D01*
X0082453Y0479702D01*
X0081512Y0480643D01*
X0080042Y0481252D01*
X0078451Y0481252D01*
X0076981Y0480643D01*
X0076040Y0479702D01*
X0076040Y0480845D01*
X0074989Y0481896D01*
X0073503Y0481896D01*
X0072453Y0480845D01*
X0072453Y0479702D01*
X0071512Y0480643D01*
X0070042Y0481252D01*
X0068451Y0481252D01*
X0066981Y0480643D01*
X0066040Y0479702D01*
X0066040Y0480845D01*
X0064989Y0481896D01*
X0063503Y0481896D01*
X0062453Y0480845D01*
X0062453Y0479702D01*
X0061746Y0480409D01*
X0061746Y0494511D01*
X0062371Y0494511D01*
X0063537Y0495677D01*
X0063537Y0497326D01*
X0062371Y0498493D01*
X0060722Y0498493D01*
X0059556Y0497326D01*
X0059556Y0496743D01*
X0054059Y0502240D01*
X0054589Y0502240D01*
X0054992Y0502642D01*
X0055387Y0502246D01*
X0056873Y0502246D01*
X0057924Y0503297D01*
X0057924Y0504783D01*
X0056873Y0505833D01*
X0055387Y0505833D01*
X0054985Y0505431D01*
X0054589Y0505827D01*
X0053103Y0505827D01*
X0052053Y0504776D01*
X0052053Y0504246D01*
X0044046Y0512252D01*
X0044046Y0532208D01*
X0044989Y0532208D01*
X0046040Y0533259D01*
X0046040Y0534194D01*
X0046315Y0533920D01*
X0046888Y0533503D01*
X0047519Y0533182D01*
X0048193Y0532963D01*
X0048746Y0532875D01*
X0048746Y0536852D01*
X0048746Y0536401D02*
X0049746Y0536401D01*
X0049747Y0537399D02*
X0055246Y0537399D01*
X0055311Y0536401D02*
X0053652Y0536401D01*
X0053637Y0538398D02*
X0055350Y0538398D01*
X0055764Y0539396D02*
X0053255Y0539396D01*
X0052568Y0540395D02*
X0056632Y0540395D01*
X0055724Y0535402D02*
X0055383Y0535402D01*
X0056040Y0534404D02*
X0056538Y0534404D01*
X0056040Y0533405D02*
X0058322Y0533405D01*
X0060171Y0533405D02*
X0062453Y0533405D01*
X0062453Y0533259D02*
X0063503Y0532208D01*
X0064989Y0532208D01*
X0066040Y0533259D01*
X0066040Y0534745D01*
X0064989Y0535796D01*
X0063503Y0535796D01*
X0062453Y0534745D01*
X0062453Y0533259D01*
X0062453Y0534404D02*
X0061955Y0534404D01*
X0062768Y0535402D02*
X0063110Y0535402D01*
X0063182Y0536401D02*
X0065311Y0536401D01*
X0065246Y0537399D02*
X0063246Y0537399D01*
X0063143Y0538398D02*
X0065350Y0538398D01*
X0065764Y0539396D02*
X0062729Y0539396D01*
X0061860Y0540395D02*
X0066632Y0540395D01*
X0065724Y0535402D02*
X0065383Y0535402D01*
X0066040Y0534404D02*
X0066538Y0534404D01*
X0066040Y0533405D02*
X0068322Y0533405D01*
X0070171Y0533405D02*
X0072453Y0533405D01*
X0072453Y0533259D02*
X0073503Y0532208D01*
X0074989Y0532208D01*
X0076040Y0533259D01*
X0076040Y0534745D01*
X0074989Y0535796D01*
X0073503Y0535796D01*
X0072453Y0534745D01*
X0072453Y0533259D01*
X0072453Y0534404D02*
X0071955Y0534404D01*
X0072768Y0535402D02*
X0073110Y0535402D01*
X0073182Y0536401D02*
X0075311Y0536401D01*
X0075246Y0537399D02*
X0073246Y0537399D01*
X0073143Y0538398D02*
X0075350Y0538398D01*
X0075764Y0539396D02*
X0072729Y0539396D01*
X0071860Y0540395D02*
X0076632Y0540395D01*
X0075724Y0535402D02*
X0075383Y0535402D01*
X0076040Y0534404D02*
X0076538Y0534404D01*
X0076040Y0533405D02*
X0078322Y0533405D01*
X0080171Y0533405D02*
X0082453Y0533405D01*
X0082453Y0533259D02*
X0083503Y0532208D01*
X0084989Y0532208D01*
X0086040Y0533259D01*
X0086040Y0534745D01*
X0084989Y0535796D01*
X0083503Y0535796D01*
X0082453Y0534745D01*
X0082453Y0533259D01*
X0082453Y0534404D02*
X0081955Y0534404D01*
X0082768Y0535402D02*
X0083110Y0535402D01*
X0083182Y0536401D02*
X0085311Y0536401D01*
X0085246Y0537399D02*
X0083246Y0537399D01*
X0083143Y0538398D02*
X0085350Y0538398D01*
X0085764Y0539396D02*
X0082729Y0539396D01*
X0081860Y0540395D02*
X0086632Y0540395D01*
X0085724Y0535402D02*
X0085383Y0535402D01*
X0086040Y0534404D02*
X0086538Y0534404D01*
X0086040Y0533405D02*
X0088322Y0533405D01*
X0090171Y0533405D02*
X0092453Y0533405D01*
X0092453Y0533259D02*
X0093503Y0532208D01*
X0094989Y0532208D01*
X0096040Y0533259D01*
X0096040Y0534745D01*
X0094989Y0535796D01*
X0093503Y0535796D01*
X0092453Y0534745D01*
X0092453Y0533259D01*
X0092453Y0534404D02*
X0091955Y0534404D01*
X0092768Y0535402D02*
X0093110Y0535402D01*
X0093182Y0536401D02*
X0095311Y0536401D01*
X0095246Y0537399D02*
X0093246Y0537399D01*
X0093143Y0538398D02*
X0095350Y0538398D01*
X0095764Y0539396D02*
X0092729Y0539396D01*
X0091860Y0540395D02*
X0096632Y0540395D01*
X0095724Y0535402D02*
X0095383Y0535402D01*
X0096040Y0534404D02*
X0096538Y0534404D01*
X0096040Y0533405D02*
X0098322Y0533405D01*
X0100171Y0533405D02*
X0102453Y0533405D01*
X0102453Y0533259D02*
X0103503Y0532208D01*
X0104989Y0532208D01*
X0106040Y0533259D01*
X0106040Y0534745D01*
X0104989Y0535796D01*
X0103503Y0535796D01*
X0102453Y0534745D01*
X0102453Y0533259D01*
X0102453Y0534404D02*
X0101955Y0534404D01*
X0102768Y0535402D02*
X0103110Y0535402D01*
X0103182Y0536401D02*
X0105311Y0536401D01*
X0105246Y0537399D02*
X0103246Y0537399D01*
X0103143Y0538398D02*
X0105350Y0538398D01*
X0105764Y0539396D02*
X0102729Y0539396D01*
X0101860Y0540395D02*
X0106632Y0540395D01*
X0105724Y0535402D02*
X0105383Y0535402D01*
X0106040Y0534404D02*
X0106538Y0534404D01*
X0106040Y0533405D02*
X0108322Y0533405D01*
X0110171Y0533405D02*
X0110696Y0533405D01*
X0110696Y0532407D02*
X0105188Y0532407D01*
X0103305Y0532407D02*
X0095188Y0532407D01*
X0093305Y0532407D02*
X0085188Y0532407D01*
X0083305Y0532407D02*
X0075188Y0532407D01*
X0074939Y0531946D02*
X0073453Y0531946D01*
X0072403Y0530895D01*
X0072403Y0529409D01*
X0073453Y0528358D01*
X0074939Y0528358D01*
X0075990Y0529409D01*
X0075990Y0530895D01*
X0074939Y0531946D01*
X0075477Y0531408D02*
X0110696Y0531408D01*
X0110696Y0530410D02*
X0102475Y0530410D01*
X0102089Y0530796D02*
X0100603Y0530796D01*
X0099553Y0529745D01*
X0099553Y0528259D01*
X0100603Y0527208D01*
X0102089Y0527208D01*
X0103140Y0528259D01*
X0103140Y0529745D01*
X0102089Y0530796D01*
X0103140Y0529411D02*
X0110696Y0529411D01*
X0110696Y0528413D02*
X0103140Y0528413D01*
X0102295Y0527414D02*
X0110696Y0527414D01*
X0110696Y0526416D02*
X0092119Y0526416D01*
X0092336Y0526199D02*
X0091285Y0527250D01*
X0089799Y0527250D01*
X0088749Y0526199D01*
X0088749Y0524713D01*
X0089799Y0523662D01*
X0091285Y0523662D01*
X0092336Y0524713D01*
X0092336Y0526199D01*
X0092336Y0525417D02*
X0110696Y0525417D01*
X0110696Y0524419D02*
X0092042Y0524419D01*
X0091321Y0522043D02*
X0089672Y0522043D01*
X0089354Y0521725D01*
X0089354Y0523143D01*
X0088304Y0524194D01*
X0086818Y0524194D01*
X0085767Y0523143D01*
X0085767Y0521911D01*
X0084388Y0521911D01*
X0083338Y0520860D01*
X0083338Y0519374D01*
X0084388Y0518323D01*
X0085874Y0518323D01*
X0086925Y0519374D01*
X0086925Y0520607D01*
X0088304Y0520607D01*
X0088506Y0520809D01*
X0088506Y0519227D01*
X0089672Y0518061D01*
X0091321Y0518061D01*
X0092487Y0519227D01*
X0092487Y0520876D01*
X0091321Y0522043D01*
X0091940Y0521423D02*
X0093703Y0521423D01*
X0093703Y0521745D02*
X0093703Y0520259D01*
X0094753Y0519208D01*
X0096239Y0519208D01*
X0097290Y0520259D01*
X0097290Y0521745D01*
X0096239Y0522796D01*
X0094753Y0522796D01*
X0093703Y0521745D01*
X0094379Y0522422D02*
X0089354Y0522422D01*
X0089078Y0523420D02*
X0110696Y0523420D01*
X0110696Y0522422D02*
X0096614Y0522422D01*
X0097290Y0521423D02*
X0110696Y0521423D01*
X0110696Y0520425D02*
X0107025Y0520425D01*
X0106604Y0520846D02*
X0105118Y0520846D01*
X0104067Y0519795D01*
X0104067Y0518309D01*
X0105118Y0517258D01*
X0106604Y0517258D01*
X0107655Y0518309D01*
X0107655Y0519795D01*
X0106604Y0520846D01*
X0107655Y0519426D02*
X0110696Y0519426D01*
X0110696Y0518428D02*
X0107655Y0518428D01*
X0106775Y0517429D02*
X0110696Y0517429D01*
X0110696Y0516431D02*
X0102655Y0516431D01*
X0102791Y0516294D02*
X0101740Y0517345D01*
X0101090Y0517345D01*
X0101090Y0517945D01*
X0100039Y0518996D01*
X0098553Y0518996D01*
X0097503Y0517945D01*
X0097503Y0516459D01*
X0098553Y0515408D01*
X0099204Y0515408D01*
X0099204Y0514808D01*
X0100254Y0513757D01*
X0100780Y0513757D01*
X0100780Y0513232D01*
X0101831Y0512181D01*
X0102331Y0512181D01*
X0102331Y0511731D01*
X0103216Y0510846D01*
X0102803Y0510846D01*
X0102087Y0510129D01*
X0102087Y0511726D01*
X0100921Y0512893D01*
X0099272Y0512893D01*
X0098106Y0511726D01*
X0098106Y0510077D01*
X0099272Y0508911D01*
X0100769Y0508911D01*
X0099977Y0508119D01*
X0099977Y0506633D01*
X0101027Y0505582D01*
X0102513Y0505582D01*
X0103564Y0506633D01*
X0103564Y0507258D01*
X0104289Y0507258D01*
X0105340Y0508309D01*
X0105340Y0508958D01*
X0106089Y0508958D01*
X0107140Y0510009D01*
X0107140Y0511495D01*
X0106089Y0512546D01*
X0105918Y0512546D01*
X0105918Y0513217D01*
X0104868Y0514268D01*
X0104367Y0514268D01*
X0104367Y0514718D01*
X0103316Y0515769D01*
X0102791Y0515769D01*
X0102791Y0516294D01*
X0103653Y0515432D02*
X0110696Y0515432D01*
X0110696Y0514433D02*
X0104367Y0514433D01*
X0105700Y0513435D02*
X0110696Y0513435D01*
X0110696Y0512436D02*
X0110199Y0512436D01*
X0107994Y0512436D02*
X0106199Y0512436D01*
X0107140Y0511438D02*
X0107303Y0511438D01*
X0107303Y0510439D02*
X0107140Y0510439D01*
X0106572Y0509441D02*
X0108121Y0509441D01*
X0108853Y0508442D02*
X0105340Y0508442D01*
X0104475Y0507444D02*
X0108853Y0507444D01*
X0109516Y0506445D02*
X0103377Y0506445D01*
X0102397Y0510439D02*
X0102087Y0510439D01*
X0102087Y0511438D02*
X0102624Y0511438D01*
X0101575Y0512436D02*
X0101377Y0512436D01*
X0100780Y0513435D02*
X0096995Y0513435D01*
X0097537Y0513977D02*
X0096371Y0512811D01*
X0094722Y0512811D01*
X0093556Y0513977D01*
X0093556Y0515626D01*
X0094722Y0516793D01*
X0096371Y0516793D01*
X0097537Y0515626D01*
X0097537Y0513977D01*
X0097537Y0514433D02*
X0099578Y0514433D01*
X0098530Y0515432D02*
X0097537Y0515432D01*
X0097531Y0516431D02*
X0096733Y0516431D01*
X0097503Y0517429D02*
X0073481Y0517429D01*
X0073615Y0517295D02*
X0072564Y0518346D01*
X0071078Y0518346D01*
X0070028Y0517295D01*
X0070028Y0515809D01*
X0071078Y0514758D01*
X0072564Y0514758D01*
X0073615Y0515809D01*
X0073615Y0517295D01*
X0073615Y0516431D02*
X0084960Y0516431D01*
X0085022Y0516493D02*
X0083856Y0515326D01*
X0083856Y0513677D01*
X0085022Y0512511D01*
X0086671Y0512511D01*
X0087837Y0513677D01*
X0087837Y0515326D01*
X0086671Y0516493D01*
X0085022Y0516493D01*
X0083961Y0515432D02*
X0073238Y0515432D01*
X0070405Y0515432D02*
X0048840Y0515432D01*
X0048840Y0515895D02*
X0048333Y0516402D01*
X0048471Y0516540D01*
X0049103Y0515908D01*
X0050589Y0515908D01*
X0051096Y0516415D01*
X0051653Y0515858D01*
X0053139Y0515858D01*
X0054190Y0516909D01*
X0054190Y0518395D01*
X0053733Y0518852D01*
X0054140Y0519259D01*
X0054140Y0520745D01*
X0053089Y0521796D01*
X0051603Y0521796D01*
X0051096Y0521289D01*
X0050589Y0521796D01*
X0049103Y0521796D01*
X0048446Y0521139D01*
X0047789Y0521796D01*
X0046303Y0521796D01*
X0045253Y0520745D01*
X0045253Y0519259D01*
X0045685Y0518827D01*
X0045253Y0518395D01*
X0045253Y0516909D01*
X0045760Y0516402D01*
X0045253Y0515895D01*
X0045253Y0514409D01*
X0046303Y0513358D01*
X0047789Y0513358D01*
X0048840Y0514409D01*
X0048840Y0515895D01*
X0048581Y0516431D02*
X0048362Y0516431D01*
X0048840Y0514433D02*
X0083856Y0514433D01*
X0084098Y0513435D02*
X0081628Y0513435D01*
X0081621Y0513443D02*
X0079972Y0513443D01*
X0078806Y0512276D01*
X0078806Y0510627D01*
X0079642Y0509792D01*
X0078400Y0509792D01*
X0077349Y0508741D01*
X0077349Y0507255D01*
X0078400Y0506204D01*
X0079886Y0506204D01*
X0080936Y0507255D01*
X0080936Y0508741D01*
X0080216Y0509461D01*
X0081621Y0509461D01*
X0082787Y0510627D01*
X0082787Y0512276D01*
X0081621Y0513443D01*
X0082627Y0512436D02*
X0088916Y0512436D01*
X0088456Y0511976D02*
X0089622Y0513143D01*
X0091271Y0513143D01*
X0092437Y0511976D01*
X0092437Y0510327D01*
X0091271Y0509161D01*
X0089622Y0509161D01*
X0088456Y0510327D01*
X0088456Y0511976D01*
X0088456Y0511438D02*
X0082787Y0511438D01*
X0082599Y0510439D02*
X0088456Y0510439D01*
X0089342Y0509441D02*
X0086773Y0509441D01*
X0086671Y0509543D02*
X0085022Y0509543D01*
X0083856Y0508376D01*
X0083856Y0506727D01*
X0085022Y0505561D01*
X0086671Y0505561D01*
X0087837Y0506727D01*
X0087837Y0508376D01*
X0086671Y0509543D01*
X0087771Y0508442D02*
X0093272Y0508442D01*
X0092756Y0507926D02*
X0093922Y0509093D01*
X0095571Y0509093D01*
X0096737Y0507926D01*
X0096737Y0506277D01*
X0095571Y0505111D01*
X0093922Y0505111D01*
X0092756Y0506277D01*
X0092756Y0507926D01*
X0092756Y0507444D02*
X0087837Y0507444D01*
X0087555Y0506445D02*
X0092756Y0506445D01*
X0093586Y0505447D02*
X0091667Y0505447D01*
X0091321Y0505793D02*
X0089672Y0505793D01*
X0088506Y0504626D01*
X0088506Y0502977D01*
X0089672Y0501811D01*
X0091321Y0501811D01*
X0092487Y0502977D01*
X0092487Y0504626D01*
X0091321Y0505793D01*
X0092487Y0504448D02*
X0110696Y0504448D01*
X0110696Y0503450D02*
X0092487Y0503450D01*
X0091961Y0502451D02*
X0110696Y0502451D01*
X0110696Y0501453D02*
X0054846Y0501453D01*
X0054801Y0502451D02*
X0055182Y0502451D01*
X0057079Y0502451D02*
X0082160Y0502451D01*
X0082403Y0502208D02*
X0083889Y0502208D01*
X0084940Y0503259D01*
X0084940Y0504745D01*
X0083889Y0505796D01*
X0082403Y0505796D01*
X0081353Y0504745D01*
X0081353Y0503259D01*
X0082403Y0502208D01*
X0081353Y0503450D02*
X0057924Y0503450D01*
X0057924Y0504448D02*
X0081353Y0504448D01*
X0082055Y0505447D02*
X0057260Y0505447D01*
X0055001Y0505447D02*
X0054970Y0505447D01*
X0052723Y0505447D02*
X0050852Y0505447D01*
X0051850Y0504448D02*
X0052053Y0504448D01*
X0049853Y0506445D02*
X0078159Y0506445D01*
X0077349Y0507444D02*
X0068021Y0507444D01*
X0067907Y0507330D02*
X0068958Y0508381D01*
X0068958Y0509867D01*
X0068016Y0510808D01*
X0069364Y0510808D01*
X0070415Y0511859D01*
X0070415Y0513345D01*
X0069364Y0514396D01*
X0067878Y0514396D01*
X0066828Y0513345D01*
X0066828Y0512108D01*
X0066316Y0512619D01*
X0064830Y0512619D01*
X0063998Y0511787D01*
X0063114Y0512671D01*
X0061628Y0512671D01*
X0060578Y0511620D01*
X0060578Y0510134D01*
X0061628Y0509083D01*
X0063114Y0509083D01*
X0063946Y0509915D01*
X0064830Y0509031D01*
X0065370Y0509031D01*
X0065370Y0508381D01*
X0066421Y0507330D01*
X0067907Y0507330D01*
X0068958Y0508442D02*
X0077349Y0508442D01*
X0078049Y0509441D02*
X0068958Y0509441D01*
X0068385Y0510439D02*
X0078994Y0510439D01*
X0078806Y0511438D02*
X0069994Y0511438D01*
X0070415Y0512436D02*
X0078966Y0512436D01*
X0079964Y0513435D02*
X0070325Y0513435D01*
X0070028Y0516431D02*
X0057312Y0516431D01*
X0057771Y0516890D02*
X0057853Y0516808D01*
X0059339Y0516808D01*
X0060390Y0517859D01*
X0060390Y0519345D01*
X0059339Y0520396D01*
X0057853Y0520396D01*
X0056921Y0519464D01*
X0056839Y0519546D01*
X0055353Y0519546D01*
X0054303Y0518495D01*
X0054303Y0517009D01*
X0055353Y0515958D01*
X0056839Y0515958D01*
X0057771Y0516890D01*
X0059960Y0517429D02*
X0070162Y0517429D01*
X0071978Y0521908D02*
X0073003Y0521908D01*
X0073903Y0521008D01*
X0075066Y0521008D01*
X0075053Y0520995D01*
X0075053Y0519509D01*
X0076103Y0518458D01*
X0077589Y0518458D01*
X0078640Y0519509D01*
X0078640Y0520995D01*
X0077589Y0522046D01*
X0076427Y0522046D01*
X0076440Y0522059D01*
X0076440Y0523545D01*
X0075389Y0524596D01*
X0074364Y0524596D01*
X0073464Y0525496D01*
X0071978Y0525496D01*
X0070928Y0524445D01*
X0070928Y0522959D01*
X0071978Y0521908D01*
X0071465Y0522422D02*
X0044046Y0522422D01*
X0044046Y0523420D02*
X0054992Y0523420D01*
X0055353Y0523058D02*
X0054303Y0524109D01*
X0054303Y0525595D01*
X0055353Y0526646D01*
X0056839Y0526646D01*
X0057890Y0525595D01*
X0057890Y0524109D01*
X0056839Y0523058D01*
X0055353Y0523058D01*
X0054303Y0524419D02*
X0044046Y0524419D01*
X0044046Y0525417D02*
X0054303Y0525417D01*
X0055123Y0526416D02*
X0044046Y0526416D01*
X0044046Y0527414D02*
X0053298Y0527414D01*
X0052453Y0528413D02*
X0044046Y0528413D01*
X0044046Y0529411D02*
X0052453Y0529411D01*
X0052802Y0530410D02*
X0044046Y0530410D01*
X0044046Y0531408D02*
X0052453Y0531408D01*
X0052615Y0532407D02*
X0045188Y0532407D01*
X0046040Y0533405D02*
X0047080Y0533405D01*
X0048746Y0533405D02*
X0049746Y0533405D01*
X0049746Y0534404D02*
X0048746Y0534404D01*
X0048746Y0535402D02*
X0049746Y0535402D01*
X0051413Y0533405D02*
X0052453Y0533405D01*
X0055878Y0532407D02*
X0063305Y0532407D01*
X0065188Y0532407D02*
X0073305Y0532407D01*
X0072916Y0531408D02*
X0056040Y0531408D01*
X0055691Y0530410D02*
X0072403Y0530410D01*
X0072403Y0529411D02*
X0068774Y0529411D01*
X0068940Y0529245D02*
X0067889Y0530296D01*
X0066403Y0530296D01*
X0065353Y0529245D01*
X0065353Y0527759D01*
X0066403Y0526708D01*
X0067889Y0526708D01*
X0068940Y0527759D01*
X0068940Y0529245D01*
X0068940Y0528413D02*
X0073399Y0528413D01*
X0073622Y0527414D02*
X0068595Y0527414D01*
X0065698Y0527414D02*
X0055195Y0527414D01*
X0056040Y0528413D02*
X0065353Y0528413D01*
X0065519Y0529411D02*
X0056040Y0529411D01*
X0057069Y0526416D02*
X0073453Y0526416D01*
X0073453Y0525759D02*
X0074503Y0524708D01*
X0075989Y0524708D01*
X0077040Y0525759D01*
X0077040Y0527245D01*
X0075989Y0528296D01*
X0074503Y0528296D01*
X0073453Y0527245D01*
X0073453Y0525759D01*
X0073543Y0525417D02*
X0073795Y0525417D01*
X0071900Y0525417D02*
X0057890Y0525417D01*
X0057890Y0524419D02*
X0070928Y0524419D01*
X0070928Y0523420D02*
X0057201Y0523420D01*
X0054140Y0520425D02*
X0075053Y0520425D01*
X0075136Y0519426D02*
X0060309Y0519426D01*
X0060390Y0518428D02*
X0084284Y0518428D01*
X0083338Y0519426D02*
X0078557Y0519426D01*
X0078640Y0520425D02*
X0083338Y0520425D01*
X0083900Y0521423D02*
X0081004Y0521423D01*
X0080599Y0521018D02*
X0081650Y0522068D01*
X0081650Y0522391D01*
X0082478Y0522391D01*
X0083528Y0523442D01*
X0083528Y0524928D01*
X0082478Y0525978D01*
X0080992Y0525978D01*
X0079941Y0524928D01*
X0079941Y0524605D01*
X0079113Y0524605D01*
X0078062Y0523554D01*
X0078062Y0522068D01*
X0079113Y0521018D01*
X0080599Y0521018D01*
X0078707Y0521423D02*
X0078212Y0521423D01*
X0078062Y0522422D02*
X0076440Y0522422D01*
X0076440Y0523420D02*
X0078062Y0523420D01*
X0078926Y0524419D02*
X0075566Y0524419D01*
X0076698Y0525417D02*
X0080431Y0525417D01*
X0083039Y0525417D02*
X0088749Y0525417D01*
X0088965Y0526416D02*
X0077040Y0526416D01*
X0076871Y0527414D02*
X0100398Y0527414D01*
X0099553Y0528413D02*
X0074994Y0528413D01*
X0075990Y0529411D02*
X0099553Y0529411D01*
X0100217Y0530410D02*
X0075990Y0530410D01*
X0073489Y0521423D02*
X0053462Y0521423D01*
X0054140Y0519426D02*
X0055234Y0519426D01*
X0054303Y0518428D02*
X0054158Y0518428D01*
X0054190Y0517429D02*
X0054303Y0517429D01*
X0054881Y0516431D02*
X0053712Y0516431D01*
X0051231Y0521423D02*
X0050962Y0521423D01*
X0048731Y0521423D02*
X0048162Y0521423D01*
X0045931Y0521423D02*
X0044046Y0521423D01*
X0044046Y0520425D02*
X0045253Y0520425D01*
X0045253Y0519426D02*
X0044046Y0519426D01*
X0044046Y0518428D02*
X0045285Y0518428D01*
X0045253Y0517429D02*
X0044046Y0517429D01*
X0044046Y0516431D02*
X0045731Y0516431D01*
X0045253Y0515432D02*
X0044046Y0515432D01*
X0044046Y0514433D02*
X0045253Y0514433D01*
X0046227Y0513435D02*
X0044046Y0513435D01*
X0044046Y0512436D02*
X0061394Y0512436D01*
X0060578Y0511438D02*
X0044860Y0511438D01*
X0045859Y0510439D02*
X0060578Y0510439D01*
X0061271Y0509441D02*
X0046857Y0509441D01*
X0047856Y0508442D02*
X0065370Y0508442D01*
X0066307Y0507444D02*
X0048855Y0507444D01*
X0047866Y0513435D02*
X0066918Y0513435D01*
X0066828Y0512436D02*
X0066499Y0512436D01*
X0064648Y0512436D02*
X0063349Y0512436D01*
X0063472Y0509441D02*
X0064421Y0509441D01*
X0062406Y0498457D02*
X0105954Y0498457D01*
X0105503Y0498909D02*
X0106553Y0497858D01*
X0108039Y0497858D01*
X0109090Y0498909D01*
X0109090Y0500395D01*
X0108039Y0501446D01*
X0106553Y0501446D01*
X0105503Y0500395D01*
X0105503Y0498909D01*
X0105503Y0499456D02*
X0056843Y0499456D01*
X0057841Y0498457D02*
X0060687Y0498457D01*
X0059688Y0497459D02*
X0058840Y0497459D01*
X0055935Y0494463D02*
X0049340Y0494463D01*
X0049340Y0494645D02*
X0048289Y0495696D01*
X0047062Y0495696D01*
X0047062Y0495919D01*
X0046011Y0496969D01*
X0044525Y0496969D01*
X0043474Y0495919D01*
X0043474Y0494433D01*
X0044525Y0493382D01*
X0045753Y0493382D01*
X0045753Y0493159D01*
X0046803Y0492108D01*
X0048289Y0492108D01*
X0049340Y0493159D01*
X0049340Y0494645D01*
X0048523Y0495462D02*
X0054937Y0495462D01*
X0053938Y0496460D02*
X0046520Y0496460D01*
X0044016Y0496460D02*
X0037725Y0496460D01*
X0038340Y0495462D02*
X0043474Y0495462D01*
X0043474Y0494463D02*
X0038340Y0494463D01*
X0037446Y0493465D02*
X0044442Y0493465D01*
X0046445Y0492466D02*
X0015246Y0492466D01*
X0015246Y0491468D02*
X0058346Y0491468D01*
X0058346Y0490469D02*
X0015246Y0490469D01*
X0015246Y0489471D02*
X0058346Y0489471D01*
X0058346Y0486475D02*
X0054360Y0486475D01*
X0055040Y0485477D02*
X0058346Y0485477D01*
X0058346Y0484478D02*
X0055040Y0484478D01*
X0054211Y0483480D02*
X0058346Y0483480D01*
X0058346Y0482481D02*
X0015246Y0482481D01*
X0015246Y0481483D02*
X0023090Y0481483D01*
X0022453Y0480484D02*
X0021671Y0480484D01*
X0025402Y0481483D02*
X0033090Y0481483D01*
X0032453Y0480484D02*
X0031671Y0480484D01*
X0035402Y0481483D02*
X0043090Y0481483D01*
X0042453Y0480484D02*
X0041671Y0480484D01*
X0045402Y0481483D02*
X0053090Y0481483D01*
X0052453Y0480484D02*
X0051671Y0480484D01*
X0052282Y0483480D02*
X0015246Y0483480D01*
X0015246Y0484478D02*
X0051453Y0484478D01*
X0046822Y0480484D02*
X0046040Y0480484D01*
X0048647Y0492466D02*
X0057932Y0492466D01*
X0056934Y0493465D02*
X0049340Y0493465D01*
X0055844Y0500454D02*
X0105562Y0500454D01*
X0109031Y0500454D02*
X0110696Y0500454D01*
X0110696Y0499456D02*
X0109090Y0499456D01*
X0108638Y0498457D02*
X0110696Y0498457D01*
X0110696Y0497459D02*
X0078300Y0497459D01*
X0078661Y0497097D02*
X0077611Y0498148D01*
X0076125Y0498148D01*
X0075074Y0497097D01*
X0075074Y0495611D01*
X0076125Y0494561D01*
X0077611Y0494561D01*
X0078661Y0495611D01*
X0078661Y0497097D01*
X0078661Y0496460D02*
X0110696Y0496460D01*
X0110696Y0495462D02*
X0078512Y0495462D01*
X0075224Y0495462D02*
X0063321Y0495462D01*
X0063537Y0496460D02*
X0075074Y0496460D01*
X0075435Y0497459D02*
X0063405Y0497459D01*
X0061746Y0494463D02*
X0065593Y0494463D01*
X0066022Y0494893D02*
X0064856Y0493726D01*
X0064856Y0492077D01*
X0066022Y0490911D01*
X0067671Y0490911D01*
X0068837Y0492077D01*
X0068837Y0493726D01*
X0067671Y0494893D01*
X0066022Y0494893D01*
X0064856Y0493465D02*
X0061746Y0493465D01*
X0061746Y0492466D02*
X0064856Y0492466D01*
X0065466Y0491468D02*
X0061746Y0491468D01*
X0061746Y0490469D02*
X0081127Y0490469D01*
X0080753Y0490095D02*
X0080753Y0488609D01*
X0081803Y0487558D01*
X0083289Y0487558D01*
X0084340Y0488609D01*
X0084340Y0490095D01*
X0083289Y0491146D01*
X0081803Y0491146D01*
X0080753Y0490095D01*
X0080753Y0489471D02*
X0061746Y0489471D01*
X0061746Y0488472D02*
X0080890Y0488472D01*
X0084203Y0488472D02*
X0102453Y0488472D01*
X0102453Y0488495D02*
X0102453Y0487009D01*
X0103503Y0485958D01*
X0104989Y0485958D01*
X0106040Y0487009D01*
X0106040Y0488495D01*
X0104989Y0489546D01*
X0103503Y0489546D01*
X0102453Y0488495D01*
X0102453Y0487474D02*
X0075811Y0487474D01*
X0076040Y0487245D02*
X0074989Y0488296D01*
X0073503Y0488296D01*
X0072453Y0487245D01*
X0072453Y0485759D01*
X0072960Y0485252D01*
X0072453Y0484745D01*
X0072453Y0483259D01*
X0073503Y0482208D01*
X0074989Y0482208D01*
X0076040Y0483259D01*
X0076040Y0484745D01*
X0075533Y0485252D01*
X0076040Y0485759D01*
X0076040Y0487245D01*
X0076040Y0486475D02*
X0102987Y0486475D01*
X0103503Y0485796D02*
X0102453Y0484745D01*
X0102453Y0483259D01*
X0103503Y0482208D01*
X0104989Y0482208D01*
X0106040Y0483259D01*
X0106040Y0484745D01*
X0104989Y0485796D01*
X0103503Y0485796D01*
X0103184Y0485477D02*
X0095308Y0485477D01*
X0094989Y0485796D02*
X0093503Y0485796D01*
X0092453Y0484745D01*
X0092453Y0483259D01*
X0093503Y0482208D01*
X0094989Y0482208D01*
X0096040Y0483259D01*
X0096040Y0484745D01*
X0094989Y0485796D01*
X0096040Y0484478D02*
X0102453Y0484478D01*
X0102453Y0483480D02*
X0096040Y0483480D01*
X0095262Y0482481D02*
X0103231Y0482481D01*
X0102940Y0481483D02*
X0095402Y0481483D01*
X0096040Y0480484D02*
X0096822Y0480484D01*
X0093090Y0481483D02*
X0085402Y0481483D01*
X0086040Y0480484D02*
X0086822Y0480484D01*
X0083090Y0481483D02*
X0075402Y0481483D01*
X0075262Y0482481D02*
X0093231Y0482481D01*
X0092453Y0483480D02*
X0076040Y0483480D01*
X0076040Y0484478D02*
X0092453Y0484478D01*
X0093184Y0485477D02*
X0075758Y0485477D01*
X0072735Y0485477D02*
X0061746Y0485477D01*
X0061746Y0486475D02*
X0072453Y0486475D01*
X0072681Y0487474D02*
X0061746Y0487474D01*
X0061746Y0484478D02*
X0072453Y0484478D01*
X0072453Y0483480D02*
X0061746Y0483480D01*
X0061746Y0482481D02*
X0073231Y0482481D01*
X0073090Y0481483D02*
X0065402Y0481483D01*
X0066040Y0480484D02*
X0066822Y0480484D01*
X0063090Y0481483D02*
X0061746Y0481483D01*
X0061746Y0480484D02*
X0062453Y0480484D01*
X0058346Y0481483D02*
X0055402Y0481483D01*
X0056040Y0480484D02*
X0056822Y0480484D01*
X0068227Y0491468D02*
X0083953Y0491468D01*
X0083953Y0490759D02*
X0085003Y0489708D01*
X0086489Y0489708D01*
X0087540Y0490759D01*
X0087540Y0492245D01*
X0086489Y0493296D01*
X0085003Y0493296D01*
X0083953Y0492245D01*
X0083953Y0490759D01*
X0083966Y0490469D02*
X0084243Y0490469D01*
X0084340Y0489471D02*
X0103429Y0489471D01*
X0105064Y0489471D02*
X0110696Y0489471D01*
X0110696Y0490469D02*
X0087250Y0490469D01*
X0087540Y0491468D02*
X0110696Y0491468D01*
X0110696Y0492466D02*
X0087319Y0492466D01*
X0084174Y0492466D02*
X0068837Y0492466D01*
X0068837Y0493465D02*
X0110696Y0493465D01*
X0110696Y0494463D02*
X0068100Y0494463D01*
X0071671Y0480484D02*
X0072453Y0480484D01*
X0076040Y0480484D02*
X0076822Y0480484D01*
X0081671Y0480484D02*
X0082453Y0480484D01*
X0091671Y0480484D02*
X0092453Y0480484D01*
X0101671Y0480484D02*
X0102453Y0480484D01*
X0105552Y0481483D02*
X0110696Y0481483D01*
X0110696Y0482481D02*
X0105262Y0482481D01*
X0106040Y0483480D02*
X0110696Y0483480D01*
X0110696Y0484478D02*
X0106040Y0484478D01*
X0105308Y0485477D02*
X0110696Y0485477D01*
X0110696Y0486475D02*
X0105506Y0486475D01*
X0106040Y0487474D02*
X0110696Y0487474D01*
X0110696Y0488472D02*
X0106040Y0488472D01*
X0106040Y0480484D02*
X0106822Y0480484D01*
X0110696Y0505447D02*
X0095906Y0505447D01*
X0096737Y0506445D02*
X0100164Y0506445D01*
X0099977Y0507444D02*
X0096737Y0507444D01*
X0096221Y0508442D02*
X0100300Y0508442D01*
X0098742Y0509441D02*
X0091550Y0509441D01*
X0092437Y0510439D02*
X0098106Y0510439D01*
X0098106Y0511438D02*
X0092437Y0511438D01*
X0091977Y0512436D02*
X0098816Y0512436D01*
X0101090Y0517429D02*
X0104947Y0517429D01*
X0104067Y0518428D02*
X0100608Y0518428D01*
X0097985Y0518428D02*
X0091687Y0518428D01*
X0092487Y0519426D02*
X0094536Y0519426D01*
X0093703Y0520425D02*
X0092487Y0520425D01*
X0089306Y0518428D02*
X0085978Y0518428D01*
X0086925Y0519426D02*
X0088506Y0519426D01*
X0088506Y0520425D02*
X0086925Y0520425D01*
X0085767Y0522422D02*
X0082508Y0522422D01*
X0083507Y0523420D02*
X0086044Y0523420D01*
X0083528Y0524419D02*
X0089043Y0524419D01*
X0086733Y0516431D02*
X0094360Y0516431D01*
X0093556Y0515432D02*
X0087731Y0515432D01*
X0087837Y0514433D02*
X0093556Y0514433D01*
X0094098Y0513435D02*
X0087595Y0513435D01*
X0084920Y0509441D02*
X0080236Y0509441D01*
X0080936Y0508442D02*
X0083922Y0508442D01*
X0083856Y0507444D02*
X0080936Y0507444D01*
X0080127Y0506445D02*
X0084138Y0506445D01*
X0084238Y0505447D02*
X0089326Y0505447D01*
X0088506Y0504448D02*
X0084940Y0504448D01*
X0084940Y0503450D02*
X0088506Y0503450D01*
X0089032Y0502451D02*
X0084133Y0502451D01*
X0096457Y0519426D02*
X0104067Y0519426D01*
X0104697Y0520425D02*
X0097290Y0520425D01*
X0044841Y0536401D02*
X0044046Y0536401D01*
X0039496Y0513435D02*
X0039016Y0513435D01*
X0031887Y0517429D02*
X0030935Y0517429D01*
X0026822Y0480484D02*
X0026040Y0480484D01*
X0036040Y0480484D02*
X0036822Y0480484D01*
X0016822Y0480484D02*
X0015246Y0480484D01*
X0015246Y0479486D02*
X0015842Y0479486D01*
X0015428Y0478487D02*
X0015246Y0478487D01*
X0015246Y0477489D02*
X0015246Y0477489D01*
X0015246Y0476490D02*
X0015246Y0476490D01*
X0015246Y0475492D02*
X0015646Y0475492D01*
X0015246Y0474493D02*
X0016349Y0474493D01*
M02*
