G75*
%MOIN*%
%OFA0B0*%
%FSLAX25Y25*%
%IPPOS*%
%LPD*%
%AMOC8*
5,1,8,0,0,1.08239X$1,22.5*
%
%ADD10C,0.07000*%
%ADD11R,0.18110X0.03937*%
%ADD12R,0.13800X0.06500*%
%ADD13R,0.02362X0.06299*%
%ADD14C,0.04000*%
%ADD15C,0.01587*%
%ADD16C,0.01981*%
%ADD17C,0.01600*%
%ADD18C,0.01200*%
%ADD19C,0.01000*%
%ADD20C,0.00600*%
D10*
X0019246Y0477252D03*
X0029246Y0477252D03*
X0039246Y0477252D03*
X0049246Y0477252D03*
X0059246Y0477252D03*
X0069246Y0477252D03*
X0079246Y0477252D03*
X0089246Y0477252D03*
X0099246Y0477252D03*
X0109246Y0477252D03*
X0109246Y0537352D03*
X0099246Y0537352D03*
X0089246Y0537352D03*
X0079246Y0537352D03*
X0069246Y0537352D03*
X0059246Y0537352D03*
X0049246Y0537352D03*
X0039246Y0537352D03*
X0029246Y0537352D03*
X0019246Y0537352D03*
D11*
X0042296Y0511002D03*
X0042296Y0503402D03*
D12*
X0022296Y0493816D03*
X0022296Y0520588D03*
D13*
X0064346Y0517488D03*
X0069346Y0517488D03*
X0074346Y0517488D03*
X0079346Y0517488D03*
X0079346Y0497016D03*
X0074346Y0497016D03*
X0069346Y0497016D03*
X0064346Y0497016D03*
D14*
X0023346Y0496130D02*
X0019346Y0496130D01*
X0019346Y0518374D02*
X0023346Y0518374D01*
D15*
X0026896Y0514352D03*
X0028196Y0509808D03*
X0028196Y0507252D03*
X0033296Y0498502D03*
X0036546Y0495102D03*
X0041346Y0495102D03*
X0045268Y0495176D03*
X0047546Y0493902D03*
X0053246Y0485052D03*
X0054246Y0480102D03*
X0056718Y0491530D03*
X0056130Y0504040D03*
X0053846Y0504033D03*
X0047046Y0515152D03*
X0047046Y0517652D03*
X0047046Y0520002D03*
X0049846Y0520002D03*
X0049846Y0517702D03*
X0052396Y0517652D03*
X0052346Y0520002D03*
X0056096Y0517752D03*
X0058596Y0518602D03*
X0056096Y0524852D03*
X0054246Y0529002D03*
X0054246Y0531502D03*
X0054246Y0534002D03*
X0064246Y0534002D03*
X0067146Y0528502D03*
X0074196Y0530152D03*
X0075246Y0526502D03*
X0074646Y0522802D03*
X0072721Y0523702D03*
X0076846Y0520252D03*
X0079856Y0522811D03*
X0081735Y0524185D03*
X0084246Y0534002D03*
X0087561Y0522400D03*
X0085131Y0520117D03*
X0090542Y0525456D03*
X0094246Y0534002D03*
X0095496Y0521002D03*
X0097446Y0519102D03*
X0099296Y0517202D03*
X0100997Y0515551D03*
X0102574Y0513975D03*
X0104125Y0512474D03*
X0105346Y0510752D03*
X0103546Y0509052D03*
X0101770Y0507376D03*
X0107296Y0499652D03*
X0110646Y0507852D03*
X0109096Y0511002D03*
X0107296Y0516930D03*
X0105861Y0519052D03*
X0101346Y0529002D03*
X0104246Y0534002D03*
X0116846Y0535002D03*
X0116846Y0540002D03*
X0121846Y0540002D03*
X0121746Y0535002D03*
X0121846Y0530002D03*
X0116846Y0530002D03*
X0126846Y0530002D03*
X0126846Y0525002D03*
X0131846Y0530002D03*
X0131746Y0535002D03*
X0131846Y0540002D03*
X0126846Y0540002D03*
X0126746Y0535002D03*
X0136846Y0535002D03*
X0136846Y0540002D03*
X0136846Y0530002D03*
X0136846Y0509702D03*
X0136846Y0504702D03*
X0136846Y0499702D03*
X0136846Y0494702D03*
X0136846Y0489702D03*
X0136846Y0484702D03*
X0136846Y0479702D03*
X0136846Y0474702D03*
X0131846Y0474702D03*
X0131846Y0479702D03*
X0131846Y0484702D03*
X0131846Y0489702D03*
X0131846Y0494702D03*
X0131846Y0499702D03*
X0131846Y0504702D03*
X0126846Y0505002D03*
X0126846Y0500002D03*
X0126846Y0495002D03*
X0126846Y0490002D03*
X0126846Y0485002D03*
X0126846Y0480002D03*
X0126846Y0474702D03*
X0121846Y0474702D03*
X0116846Y0474702D03*
X0116846Y0490002D03*
X0116846Y0495002D03*
X0116846Y0500002D03*
X0121846Y0500002D03*
X0121846Y0505002D03*
X0124646Y0511252D03*
X0121846Y0495002D03*
X0121846Y0490002D03*
X0104246Y0487752D03*
X0104246Y0484002D03*
X0104246Y0480252D03*
X0094246Y0480102D03*
X0094246Y0484002D03*
X0085746Y0491502D03*
X0082546Y0489352D03*
X0084246Y0480102D03*
X0090382Y0496463D03*
X0083146Y0504002D03*
X0079143Y0507998D03*
X0076446Y0510602D03*
X0071821Y0516552D03*
X0068621Y0512602D03*
X0065573Y0510825D03*
X0067164Y0509124D03*
X0062371Y0510877D03*
X0074246Y0534002D03*
X0076868Y0496354D03*
X0074246Y0486502D03*
X0074246Y0484002D03*
X0074246Y0480102D03*
X0064246Y0480102D03*
X0044246Y0480102D03*
X0034246Y0480102D03*
X0031446Y0487502D03*
X0028946Y0487502D03*
X0026446Y0487502D03*
X0023946Y0487502D03*
X0021446Y0487502D03*
X0018946Y0487502D03*
X0016446Y0487502D03*
X0016046Y0499752D03*
X0016046Y0502252D03*
X0016046Y0504752D03*
X0016046Y0507252D03*
X0016046Y0509752D03*
X0016046Y0512252D03*
X0016046Y0514752D03*
X0016071Y0525702D03*
X0016071Y0528202D03*
X0016071Y0530702D03*
X0024246Y0534002D03*
X0032696Y0527302D03*
X0035196Y0527302D03*
X0037696Y0527302D03*
X0037846Y0519702D03*
X0037846Y0517302D03*
X0037846Y0514802D03*
X0033346Y0516352D03*
X0044246Y0534002D03*
X0047146Y0524102D03*
X0024246Y0480102D03*
D16*
X0061546Y0496502D03*
X0066846Y0492902D03*
X0080796Y0511452D03*
X0085846Y0514502D03*
X0085846Y0507552D03*
X0090446Y0511152D03*
X0094746Y0507102D03*
X0090496Y0503802D03*
X0095546Y0514802D03*
X0100096Y0510902D03*
X0090496Y0520052D03*
D17*
X0056096Y0524852D02*
X0050036Y0524852D01*
X0039246Y0535641D01*
X0039246Y0537352D01*
X0037846Y0514802D02*
X0041646Y0511002D01*
X0042296Y0511002D01*
D18*
X0041276Y0504652D02*
X0027718Y0504652D01*
X0026303Y0506068D01*
X0026303Y0513758D01*
X0026896Y0514352D01*
X0021882Y0520588D02*
X0016046Y0514752D01*
X0016361Y0499752D02*
X0022296Y0493816D01*
X0032677Y0522033D02*
X0055166Y0522033D01*
X0058596Y0518602D01*
X0061546Y0496502D02*
X0063833Y0496502D01*
X0064346Y0497016D01*
X0045268Y0495176D02*
X0045268Y0500660D01*
X0042296Y0503402D01*
X0041276Y0504652D01*
X0032677Y0522033D02*
X0019246Y0535464D01*
X0019246Y0537352D01*
D19*
X0021882Y0520588D02*
X0022296Y0520588D01*
X0016361Y0499752D02*
X0016046Y0499752D01*
X0079346Y0517488D02*
X0079346Y0518502D01*
X0081735Y0520890D01*
X0081735Y0524185D01*
D20*
X0079856Y0522811D02*
X0076984Y0522811D01*
X0074346Y0520173D01*
X0074346Y0517488D01*
X0071828Y0516552D02*
X0071828Y0514507D01*
X0070304Y0512984D01*
X0070304Y0508444D01*
X0049246Y0487387D01*
X0049246Y0477252D01*
X0059246Y0477252D02*
X0059246Y0480652D01*
X0071946Y0493352D01*
X0071946Y0501943D01*
X0078002Y0507998D01*
X0079143Y0507998D01*
X0084056Y0507179D02*
X0079346Y0502470D01*
X0079346Y0497016D01*
X0076868Y0496354D02*
X0076868Y0494012D01*
X0081528Y0489352D01*
X0082546Y0489352D01*
X0084140Y0488596D02*
X0084140Y0503008D01*
X0083146Y0504002D01*
X0084056Y0507179D02*
X0084056Y0515244D01*
X0085131Y0516319D01*
X0085131Y0520117D01*
X0082887Y0520127D02*
X0085161Y0522400D01*
X0087561Y0522400D01*
X0088442Y0520756D02*
X0088442Y0497275D01*
X0085746Y0494579D01*
X0085746Y0491502D01*
X0084140Y0488596D02*
X0077796Y0482252D01*
X0073546Y0482252D01*
X0069246Y0477952D01*
X0069246Y0477252D01*
X0079246Y0477252D02*
X0079246Y0480506D01*
X0105346Y0506606D01*
X0105346Y0510752D01*
X0104125Y0512474D02*
X0104167Y0512517D01*
X0104167Y0531373D01*
X0109246Y0536452D01*
X0109246Y0537352D01*
X0102974Y0532925D02*
X0099246Y0536652D01*
X0099246Y0537352D01*
X0102974Y0532925D02*
X0102974Y0514375D01*
X0102574Y0513975D01*
X0100997Y0515551D02*
X0100997Y0522601D01*
X0089246Y0534352D01*
X0089246Y0537352D01*
X0089621Y0532331D02*
X0099240Y0522712D01*
X0099240Y0517258D01*
X0099296Y0517202D01*
X0093696Y0513002D02*
X0097646Y0509052D01*
X0103546Y0509052D01*
X0101770Y0507376D02*
X0097567Y0507376D01*
X0092446Y0512496D01*
X0092446Y0526294D01*
X0090183Y0528558D01*
X0067203Y0528558D01*
X0067146Y0528502D01*
X0068590Y0522194D02*
X0064346Y0517950D01*
X0064346Y0517488D01*
X0065573Y0510825D02*
X0065573Y0509525D01*
X0041700Y0485652D01*
X0026146Y0485652D01*
X0018496Y0478002D01*
X0019246Y0477252D01*
X0029246Y0477252D02*
X0029246Y0477952D01*
X0035146Y0483852D01*
X0041500Y0483852D01*
X0066772Y0509124D01*
X0067164Y0509124D01*
X0068821Y0508517D02*
X0068821Y0512402D01*
X0068621Y0512602D01*
X0068821Y0508517D02*
X0039246Y0478943D01*
X0039246Y0477252D01*
X0047546Y0493902D02*
X0048346Y0493902D01*
X0057924Y0503480D01*
X0057924Y0504752D01*
X0052396Y0510280D01*
X0052396Y0517652D01*
X0052200Y0507970D02*
X0030077Y0507970D01*
X0028239Y0509808D01*
X0028196Y0509808D01*
X0028196Y0507252D02*
X0028596Y0506852D01*
X0051028Y0506852D01*
X0053846Y0504033D01*
X0056130Y0504040D02*
X0052200Y0507970D01*
X0069346Y0505856D02*
X0069346Y0497016D01*
X0069346Y0505856D02*
X0076849Y0513358D01*
X0076849Y0520250D01*
X0076846Y0520252D01*
X0074646Y0522802D02*
X0074146Y0522802D01*
X0069346Y0518002D01*
X0069346Y0517488D01*
X0071821Y0516552D02*
X0071828Y0516552D01*
X0071213Y0522194D02*
X0068590Y0522194D01*
X0071213Y0522194D02*
X0072721Y0523702D01*
X0074196Y0530152D02*
X0090245Y0530152D01*
X0093696Y0526700D01*
X0093696Y0513002D01*
X0088442Y0520756D02*
X0090542Y0522856D01*
X0090542Y0525456D01*
X0089621Y0532331D02*
X0073367Y0532331D01*
X0069246Y0536452D01*
X0069246Y0537352D01*
X0082887Y0520127D02*
X0082887Y0507566D01*
X0074346Y0499025D01*
X0074346Y0497016D01*
X0089246Y0488552D02*
X0089246Y0477252D01*
X0089246Y0488552D02*
X0109096Y0508402D01*
X0109096Y0511002D01*
X0110646Y0507852D02*
X0099246Y0496452D01*
X0099246Y0477252D01*
M02*
