G75*
%MOIN*%
%OFA0B0*%
%FSLAX25Y25*%
%IPPOS*%
%LPD*%
%AMOC8*
5,1,8,0,0,1.08239X$1,22.5*
%
%ADD10C,0.00300*%
%ADD11C,0.00800*%
%ADD12C,0.00500*%
%ADD13C,0.01600*%
%ADD14C,0.00400*%
%ADD15R,0.02362X0.04331*%
%ADD16R,0.00197X0.01969*%
%ADD17C,0.00394*%
D10*
X0016710Y0028533D02*
X0018543Y0028533D01*
X0019950Y0028533D02*
X0020866Y0028533D01*
X0020925Y0028535D01*
X0020983Y0028541D01*
X0021041Y0028550D01*
X0021099Y0028563D01*
X0021155Y0028580D01*
X0021210Y0028600D01*
X0021264Y0028624D01*
X0021316Y0028651D01*
X0021366Y0028681D01*
X0021414Y0028715D01*
X0021460Y0028752D01*
X0021504Y0028791D01*
X0021545Y0028834D01*
X0021583Y0028878D01*
X0021618Y0028925D01*
X0021650Y0028975D01*
X0021679Y0029026D01*
X0021705Y0029079D01*
X0021727Y0029133D01*
X0021745Y0029189D01*
X0021760Y0029246D01*
X0021771Y0029304D01*
X0021779Y0029362D01*
X0021783Y0029421D01*
X0021783Y0029479D01*
X0021779Y0029538D01*
X0021771Y0029596D01*
X0021760Y0029654D01*
X0021745Y0029711D01*
X0021727Y0029767D01*
X0021705Y0029821D01*
X0021679Y0029874D01*
X0021650Y0029925D01*
X0021618Y0029975D01*
X0021583Y0030022D01*
X0021545Y0030066D01*
X0021504Y0030109D01*
X0021460Y0030148D01*
X0021414Y0030185D01*
X0021366Y0030219D01*
X0021316Y0030249D01*
X0021264Y0030276D01*
X0021210Y0030300D01*
X0021155Y0030320D01*
X0021099Y0030337D01*
X0021041Y0030350D01*
X0020983Y0030359D01*
X0020925Y0030365D01*
X0020866Y0030367D01*
X0021050Y0030366D02*
X0020316Y0030366D01*
X0021050Y0030367D02*
X0021102Y0030369D01*
X0021154Y0030374D01*
X0021206Y0030384D01*
X0021257Y0030397D01*
X0021306Y0030413D01*
X0021354Y0030433D01*
X0021401Y0030457D01*
X0021446Y0030483D01*
X0021489Y0030513D01*
X0021530Y0030546D01*
X0021568Y0030582D01*
X0021604Y0030620D01*
X0021637Y0030661D01*
X0021667Y0030704D01*
X0021693Y0030749D01*
X0021717Y0030796D01*
X0021737Y0030844D01*
X0021753Y0030893D01*
X0021766Y0030944D01*
X0021776Y0030996D01*
X0021781Y0031048D01*
X0021783Y0031100D01*
X0021781Y0031152D01*
X0021776Y0031204D01*
X0021766Y0031256D01*
X0021753Y0031307D01*
X0021737Y0031356D01*
X0021717Y0031404D01*
X0021693Y0031451D01*
X0021667Y0031496D01*
X0021637Y0031539D01*
X0021604Y0031580D01*
X0021568Y0031618D01*
X0021530Y0031654D01*
X0021489Y0031687D01*
X0021446Y0031717D01*
X0021401Y0031743D01*
X0021354Y0031767D01*
X0021306Y0031787D01*
X0021257Y0031803D01*
X0021206Y0031816D01*
X0021154Y0031826D01*
X0021102Y0031831D01*
X0021050Y0031833D01*
X0019950Y0031833D01*
X0018268Y0030366D02*
X0016710Y0028533D01*
X0016710Y0031100D02*
X0016731Y0031159D01*
X0016756Y0031218D01*
X0016784Y0031275D01*
X0016816Y0031330D01*
X0016851Y0031383D01*
X0016889Y0031433D01*
X0016930Y0031482D01*
X0016974Y0031528D01*
X0017020Y0031571D01*
X0017069Y0031611D01*
X0017120Y0031649D01*
X0017174Y0031683D01*
X0017229Y0031714D01*
X0017287Y0031741D01*
X0017345Y0031765D01*
X0017405Y0031786D01*
X0017467Y0031803D01*
X0017529Y0031816D01*
X0017591Y0031825D01*
X0017655Y0031831D01*
X0017718Y0031833D01*
X0017774Y0031831D01*
X0017830Y0031825D01*
X0017886Y0031816D01*
X0017941Y0031802D01*
X0017994Y0031785D01*
X0018047Y0031765D01*
X0018098Y0031741D01*
X0018147Y0031713D01*
X0018194Y0031682D01*
X0018239Y0031648D01*
X0018281Y0031611D01*
X0018321Y0031571D01*
X0018358Y0031529D01*
X0018392Y0031484D01*
X0018423Y0031437D01*
X0018451Y0031388D01*
X0018475Y0031337D01*
X0018495Y0031284D01*
X0018512Y0031231D01*
X0018526Y0031176D01*
X0018535Y0031120D01*
X0018541Y0031064D01*
X0018543Y0031008D01*
X0018541Y0030953D01*
X0018536Y0030898D01*
X0018528Y0030843D01*
X0018516Y0030790D01*
X0018500Y0030736D01*
X0018482Y0030685D01*
X0018460Y0030634D01*
X0018435Y0030585D01*
X0018407Y0030537D01*
X0018377Y0030491D01*
X0018343Y0030447D01*
X0018307Y0030406D01*
X0018268Y0030366D01*
X0026710Y0031100D02*
X0027626Y0031833D01*
X0027626Y0028533D01*
X0026710Y0028533D02*
X0028543Y0028533D01*
X0030316Y0028533D02*
X0030390Y0028535D01*
X0030464Y0028541D01*
X0030538Y0028550D01*
X0030611Y0028563D01*
X0030684Y0028580D01*
X0030755Y0028600D01*
X0030825Y0028624D01*
X0030895Y0028652D01*
X0030962Y0028683D01*
X0031028Y0028717D01*
X0031092Y0028755D01*
X0031154Y0028796D01*
X0031214Y0028840D01*
X0031272Y0028887D01*
X0031327Y0028937D01*
X0031379Y0028989D01*
X0031429Y0029044D01*
X0031476Y0029102D01*
X0031520Y0029162D01*
X0031561Y0029224D01*
X0031599Y0029288D01*
X0031633Y0029354D01*
X0031664Y0029421D01*
X0031692Y0029491D01*
X0031716Y0029561D01*
X0031736Y0029632D01*
X0031753Y0029705D01*
X0031766Y0029778D01*
X0031775Y0029852D01*
X0031781Y0029926D01*
X0031783Y0030000D01*
X0031783Y0030916D01*
X0031783Y0030000D02*
X0030683Y0030000D01*
X0030631Y0030002D01*
X0030579Y0030007D01*
X0030527Y0030017D01*
X0030476Y0030030D01*
X0030427Y0030046D01*
X0030379Y0030066D01*
X0030332Y0030090D01*
X0030287Y0030116D01*
X0030244Y0030146D01*
X0030203Y0030179D01*
X0030165Y0030215D01*
X0030129Y0030253D01*
X0030096Y0030294D01*
X0030066Y0030337D01*
X0030040Y0030382D01*
X0030016Y0030429D01*
X0029996Y0030477D01*
X0029980Y0030526D01*
X0029967Y0030577D01*
X0029957Y0030629D01*
X0029952Y0030681D01*
X0029950Y0030733D01*
X0029950Y0030916D01*
X0029949Y0030916D02*
X0029951Y0030975D01*
X0029957Y0031033D01*
X0029966Y0031091D01*
X0029979Y0031149D01*
X0029996Y0031205D01*
X0030016Y0031260D01*
X0030040Y0031314D01*
X0030067Y0031366D01*
X0030097Y0031416D01*
X0030131Y0031464D01*
X0030168Y0031510D01*
X0030207Y0031554D01*
X0030250Y0031595D01*
X0030294Y0031633D01*
X0030341Y0031668D01*
X0030391Y0031700D01*
X0030442Y0031729D01*
X0030495Y0031755D01*
X0030549Y0031777D01*
X0030605Y0031795D01*
X0030662Y0031810D01*
X0030720Y0031821D01*
X0030778Y0031829D01*
X0030837Y0031833D01*
X0030895Y0031833D01*
X0030954Y0031829D01*
X0031012Y0031821D01*
X0031070Y0031810D01*
X0031127Y0031795D01*
X0031183Y0031777D01*
X0031237Y0031755D01*
X0031290Y0031729D01*
X0031341Y0031700D01*
X0031391Y0031668D01*
X0031438Y0031633D01*
X0031482Y0031595D01*
X0031525Y0031554D01*
X0031564Y0031510D01*
X0031601Y0031464D01*
X0031635Y0031416D01*
X0031665Y0031366D01*
X0031692Y0031314D01*
X0031716Y0031260D01*
X0031736Y0031205D01*
X0031753Y0031149D01*
X0031766Y0031091D01*
X0031775Y0031033D01*
X0031781Y0030975D01*
X0031783Y0030916D01*
X0036710Y0031100D02*
X0037626Y0031833D01*
X0037626Y0028533D01*
X0036710Y0028533D02*
X0038543Y0028533D01*
X0039949Y0029450D02*
X0039951Y0029391D01*
X0039957Y0029333D01*
X0039966Y0029275D01*
X0039979Y0029217D01*
X0039996Y0029161D01*
X0040016Y0029106D01*
X0040040Y0029052D01*
X0040067Y0029000D01*
X0040097Y0028950D01*
X0040131Y0028902D01*
X0040168Y0028856D01*
X0040207Y0028812D01*
X0040250Y0028771D01*
X0040294Y0028733D01*
X0040341Y0028698D01*
X0040391Y0028666D01*
X0040442Y0028637D01*
X0040495Y0028611D01*
X0040549Y0028589D01*
X0040605Y0028571D01*
X0040662Y0028556D01*
X0040720Y0028545D01*
X0040778Y0028537D01*
X0040837Y0028533D01*
X0040895Y0028533D01*
X0040954Y0028537D01*
X0041012Y0028545D01*
X0041070Y0028556D01*
X0041127Y0028571D01*
X0041183Y0028589D01*
X0041237Y0028611D01*
X0041290Y0028637D01*
X0041341Y0028666D01*
X0041391Y0028698D01*
X0041438Y0028733D01*
X0041482Y0028771D01*
X0041525Y0028812D01*
X0041564Y0028856D01*
X0041601Y0028902D01*
X0041635Y0028950D01*
X0041665Y0029000D01*
X0041692Y0029052D01*
X0041716Y0029106D01*
X0041736Y0029161D01*
X0041753Y0029217D01*
X0041766Y0029275D01*
X0041775Y0029333D01*
X0041781Y0029391D01*
X0041783Y0029450D01*
X0041781Y0029509D01*
X0041775Y0029567D01*
X0041766Y0029625D01*
X0041753Y0029683D01*
X0041736Y0029739D01*
X0041716Y0029794D01*
X0041692Y0029848D01*
X0041665Y0029900D01*
X0041635Y0029950D01*
X0041601Y0029998D01*
X0041564Y0030044D01*
X0041525Y0030088D01*
X0041482Y0030129D01*
X0041438Y0030167D01*
X0041391Y0030202D01*
X0041341Y0030234D01*
X0041290Y0030263D01*
X0041237Y0030289D01*
X0041183Y0030311D01*
X0041127Y0030329D01*
X0041070Y0030344D01*
X0041012Y0030355D01*
X0040954Y0030363D01*
X0040895Y0030367D01*
X0040837Y0030367D01*
X0040778Y0030363D01*
X0040720Y0030355D01*
X0040662Y0030344D01*
X0040605Y0030329D01*
X0040549Y0030311D01*
X0040495Y0030289D01*
X0040442Y0030263D01*
X0040391Y0030234D01*
X0040341Y0030202D01*
X0040294Y0030167D01*
X0040250Y0030129D01*
X0040207Y0030088D01*
X0040168Y0030044D01*
X0040131Y0029998D01*
X0040097Y0029950D01*
X0040067Y0029900D01*
X0040040Y0029848D01*
X0040016Y0029794D01*
X0039996Y0029739D01*
X0039979Y0029683D01*
X0039966Y0029625D01*
X0039957Y0029567D01*
X0039951Y0029509D01*
X0039949Y0029450D01*
X0040133Y0031100D02*
X0040135Y0031048D01*
X0040140Y0030996D01*
X0040150Y0030944D01*
X0040163Y0030893D01*
X0040179Y0030844D01*
X0040199Y0030796D01*
X0040223Y0030749D01*
X0040249Y0030704D01*
X0040279Y0030661D01*
X0040312Y0030620D01*
X0040348Y0030582D01*
X0040386Y0030546D01*
X0040427Y0030513D01*
X0040470Y0030483D01*
X0040515Y0030457D01*
X0040562Y0030433D01*
X0040610Y0030413D01*
X0040659Y0030397D01*
X0040710Y0030384D01*
X0040762Y0030374D01*
X0040814Y0030369D01*
X0040866Y0030367D01*
X0040918Y0030369D01*
X0040970Y0030374D01*
X0041022Y0030384D01*
X0041073Y0030397D01*
X0041122Y0030413D01*
X0041170Y0030433D01*
X0041217Y0030457D01*
X0041262Y0030483D01*
X0041305Y0030513D01*
X0041346Y0030546D01*
X0041384Y0030582D01*
X0041420Y0030620D01*
X0041453Y0030661D01*
X0041483Y0030704D01*
X0041509Y0030749D01*
X0041533Y0030796D01*
X0041553Y0030844D01*
X0041569Y0030893D01*
X0041582Y0030944D01*
X0041592Y0030996D01*
X0041597Y0031048D01*
X0041599Y0031100D01*
X0041597Y0031152D01*
X0041592Y0031204D01*
X0041582Y0031256D01*
X0041569Y0031307D01*
X0041553Y0031356D01*
X0041533Y0031404D01*
X0041509Y0031451D01*
X0041483Y0031496D01*
X0041453Y0031539D01*
X0041420Y0031580D01*
X0041384Y0031618D01*
X0041346Y0031654D01*
X0041305Y0031687D01*
X0041262Y0031717D01*
X0041217Y0031743D01*
X0041170Y0031767D01*
X0041122Y0031787D01*
X0041073Y0031803D01*
X0041022Y0031816D01*
X0040970Y0031826D01*
X0040918Y0031831D01*
X0040866Y0031833D01*
X0040814Y0031831D01*
X0040762Y0031826D01*
X0040710Y0031816D01*
X0040659Y0031803D01*
X0040610Y0031787D01*
X0040562Y0031767D01*
X0040515Y0031743D01*
X0040470Y0031717D01*
X0040427Y0031687D01*
X0040386Y0031654D01*
X0040348Y0031618D01*
X0040312Y0031580D01*
X0040279Y0031539D01*
X0040249Y0031496D01*
X0040223Y0031451D01*
X0040199Y0031404D01*
X0040179Y0031356D01*
X0040163Y0031307D01*
X0040150Y0031256D01*
X0040140Y0031204D01*
X0040135Y0031152D01*
X0040133Y0031100D01*
X0048330Y0030366D02*
X0048330Y0031833D01*
X0050163Y0031833D01*
X0049430Y0030366D02*
X0048330Y0030366D01*
X0049430Y0030366D02*
X0049482Y0030364D01*
X0049534Y0030359D01*
X0049586Y0030349D01*
X0049637Y0030336D01*
X0049686Y0030320D01*
X0049734Y0030300D01*
X0049781Y0030276D01*
X0049826Y0030250D01*
X0049869Y0030220D01*
X0049910Y0030187D01*
X0049948Y0030151D01*
X0049984Y0030113D01*
X0050017Y0030072D01*
X0050047Y0030029D01*
X0050073Y0029984D01*
X0050097Y0029937D01*
X0050117Y0029889D01*
X0050133Y0029840D01*
X0050146Y0029789D01*
X0050156Y0029737D01*
X0050161Y0029685D01*
X0050163Y0029633D01*
X0050163Y0029266D01*
X0050161Y0029214D01*
X0050156Y0029162D01*
X0050146Y0029110D01*
X0050133Y0029059D01*
X0050117Y0029010D01*
X0050097Y0028962D01*
X0050073Y0028915D01*
X0050047Y0028870D01*
X0050017Y0028827D01*
X0049984Y0028786D01*
X0049948Y0028748D01*
X0049910Y0028712D01*
X0049869Y0028679D01*
X0049826Y0028649D01*
X0049781Y0028623D01*
X0049735Y0028599D01*
X0049686Y0028579D01*
X0049637Y0028563D01*
X0049586Y0028550D01*
X0049534Y0028540D01*
X0049482Y0028535D01*
X0049430Y0028533D01*
X0048330Y0028533D01*
X0056710Y0028533D02*
X0058543Y0028533D01*
X0059950Y0028533D02*
X0061783Y0028533D01*
X0059950Y0028533D02*
X0061508Y0030366D01*
X0060958Y0031833D02*
X0060895Y0031831D01*
X0060831Y0031825D01*
X0060769Y0031816D01*
X0060707Y0031803D01*
X0060645Y0031786D01*
X0060585Y0031765D01*
X0060527Y0031741D01*
X0060469Y0031714D01*
X0060414Y0031683D01*
X0060360Y0031649D01*
X0060309Y0031611D01*
X0060260Y0031571D01*
X0060214Y0031528D01*
X0060170Y0031482D01*
X0060129Y0031433D01*
X0060091Y0031383D01*
X0060056Y0031330D01*
X0060024Y0031275D01*
X0059996Y0031218D01*
X0059971Y0031159D01*
X0059950Y0031100D01*
X0061508Y0030366D02*
X0061547Y0030406D01*
X0061583Y0030447D01*
X0061617Y0030491D01*
X0061647Y0030537D01*
X0061675Y0030585D01*
X0061700Y0030634D01*
X0061722Y0030685D01*
X0061740Y0030736D01*
X0061756Y0030790D01*
X0061768Y0030843D01*
X0061776Y0030898D01*
X0061781Y0030953D01*
X0061783Y0031008D01*
X0061781Y0031064D01*
X0061775Y0031120D01*
X0061766Y0031176D01*
X0061752Y0031231D01*
X0061735Y0031284D01*
X0061715Y0031337D01*
X0061691Y0031388D01*
X0061663Y0031437D01*
X0061632Y0031484D01*
X0061598Y0031529D01*
X0061561Y0031571D01*
X0061521Y0031611D01*
X0061479Y0031648D01*
X0061434Y0031682D01*
X0061387Y0031713D01*
X0061338Y0031741D01*
X0061287Y0031765D01*
X0061234Y0031785D01*
X0061181Y0031802D01*
X0061126Y0031816D01*
X0061070Y0031825D01*
X0061014Y0031831D01*
X0060958Y0031833D01*
X0058268Y0030366D02*
X0056710Y0028533D01*
X0056710Y0031100D02*
X0056731Y0031159D01*
X0056756Y0031218D01*
X0056784Y0031275D01*
X0056816Y0031330D01*
X0056851Y0031383D01*
X0056889Y0031433D01*
X0056930Y0031482D01*
X0056974Y0031528D01*
X0057020Y0031571D01*
X0057069Y0031611D01*
X0057120Y0031649D01*
X0057174Y0031683D01*
X0057229Y0031714D01*
X0057287Y0031741D01*
X0057345Y0031765D01*
X0057405Y0031786D01*
X0057467Y0031803D01*
X0057529Y0031816D01*
X0057591Y0031825D01*
X0057655Y0031831D01*
X0057718Y0031833D01*
X0057774Y0031831D01*
X0057830Y0031825D01*
X0057886Y0031816D01*
X0057941Y0031802D01*
X0057994Y0031785D01*
X0058047Y0031765D01*
X0058098Y0031741D01*
X0058147Y0031713D01*
X0058194Y0031682D01*
X0058239Y0031648D01*
X0058281Y0031611D01*
X0058321Y0031571D01*
X0058358Y0031529D01*
X0058392Y0031484D01*
X0058423Y0031437D01*
X0058451Y0031388D01*
X0058475Y0031337D01*
X0058495Y0031284D01*
X0058512Y0031231D01*
X0058526Y0031176D01*
X0058535Y0031120D01*
X0058541Y0031064D01*
X0058543Y0031008D01*
X0058541Y0030953D01*
X0058536Y0030898D01*
X0058528Y0030843D01*
X0058516Y0030790D01*
X0058500Y0030736D01*
X0058482Y0030685D01*
X0058460Y0030634D01*
X0058435Y0030585D01*
X0058407Y0030537D01*
X0058377Y0030491D01*
X0058343Y0030447D01*
X0058307Y0030406D01*
X0058268Y0030366D01*
X0066710Y0028533D02*
X0068543Y0028533D01*
X0069950Y0028533D02*
X0071783Y0028533D01*
X0070866Y0028533D02*
X0070866Y0031833D01*
X0069950Y0031100D01*
X0068268Y0030366D02*
X0066710Y0028533D01*
X0066710Y0031100D02*
X0066731Y0031159D01*
X0066756Y0031218D01*
X0066784Y0031275D01*
X0066816Y0031330D01*
X0066851Y0031383D01*
X0066889Y0031433D01*
X0066930Y0031482D01*
X0066974Y0031528D01*
X0067020Y0031571D01*
X0067069Y0031611D01*
X0067120Y0031649D01*
X0067174Y0031683D01*
X0067229Y0031714D01*
X0067287Y0031741D01*
X0067345Y0031765D01*
X0067405Y0031786D01*
X0067467Y0031803D01*
X0067529Y0031816D01*
X0067591Y0031825D01*
X0067655Y0031831D01*
X0067718Y0031833D01*
X0067774Y0031831D01*
X0067830Y0031825D01*
X0067886Y0031816D01*
X0067941Y0031802D01*
X0067994Y0031785D01*
X0068047Y0031765D01*
X0068098Y0031741D01*
X0068147Y0031713D01*
X0068194Y0031682D01*
X0068239Y0031648D01*
X0068281Y0031611D01*
X0068321Y0031571D01*
X0068358Y0031529D01*
X0068392Y0031484D01*
X0068423Y0031437D01*
X0068451Y0031388D01*
X0068475Y0031337D01*
X0068495Y0031284D01*
X0068512Y0031231D01*
X0068526Y0031176D01*
X0068535Y0031120D01*
X0068541Y0031064D01*
X0068543Y0031008D01*
X0068541Y0030953D01*
X0068536Y0030898D01*
X0068528Y0030843D01*
X0068516Y0030790D01*
X0068500Y0030736D01*
X0068482Y0030685D01*
X0068460Y0030634D01*
X0068435Y0030585D01*
X0068407Y0030537D01*
X0068377Y0030491D01*
X0068343Y0030447D01*
X0068307Y0030406D01*
X0068268Y0030366D01*
X0076710Y0031833D02*
X0077810Y0031833D01*
X0077862Y0031831D01*
X0077914Y0031826D01*
X0077966Y0031816D01*
X0078017Y0031803D01*
X0078066Y0031787D01*
X0078114Y0031767D01*
X0078161Y0031743D01*
X0078206Y0031717D01*
X0078249Y0031687D01*
X0078290Y0031654D01*
X0078328Y0031618D01*
X0078364Y0031580D01*
X0078397Y0031539D01*
X0078427Y0031496D01*
X0078453Y0031451D01*
X0078477Y0031404D01*
X0078497Y0031356D01*
X0078513Y0031307D01*
X0078526Y0031256D01*
X0078536Y0031204D01*
X0078541Y0031152D01*
X0078543Y0031100D01*
X0078541Y0031048D01*
X0078536Y0030996D01*
X0078526Y0030944D01*
X0078513Y0030893D01*
X0078497Y0030844D01*
X0078477Y0030796D01*
X0078453Y0030749D01*
X0078427Y0030704D01*
X0078397Y0030661D01*
X0078364Y0030620D01*
X0078328Y0030582D01*
X0078290Y0030546D01*
X0078249Y0030513D01*
X0078206Y0030483D01*
X0078161Y0030457D01*
X0078114Y0030433D01*
X0078066Y0030413D01*
X0078017Y0030397D01*
X0077966Y0030384D01*
X0077914Y0030374D01*
X0077862Y0030369D01*
X0077810Y0030367D01*
X0077810Y0030366D02*
X0077076Y0030366D01*
X0077626Y0030367D02*
X0077685Y0030365D01*
X0077743Y0030359D01*
X0077801Y0030350D01*
X0077859Y0030337D01*
X0077915Y0030320D01*
X0077970Y0030300D01*
X0078024Y0030276D01*
X0078076Y0030249D01*
X0078126Y0030219D01*
X0078174Y0030185D01*
X0078220Y0030148D01*
X0078264Y0030109D01*
X0078305Y0030066D01*
X0078343Y0030022D01*
X0078378Y0029975D01*
X0078410Y0029925D01*
X0078439Y0029874D01*
X0078465Y0029821D01*
X0078487Y0029767D01*
X0078505Y0029711D01*
X0078520Y0029654D01*
X0078531Y0029596D01*
X0078539Y0029538D01*
X0078543Y0029479D01*
X0078543Y0029421D01*
X0078539Y0029362D01*
X0078531Y0029304D01*
X0078520Y0029246D01*
X0078505Y0029189D01*
X0078487Y0029133D01*
X0078465Y0029079D01*
X0078439Y0029026D01*
X0078410Y0028975D01*
X0078378Y0028925D01*
X0078343Y0028878D01*
X0078305Y0028834D01*
X0078264Y0028791D01*
X0078220Y0028752D01*
X0078174Y0028715D01*
X0078126Y0028681D01*
X0078076Y0028651D01*
X0078024Y0028624D01*
X0077970Y0028600D01*
X0077915Y0028580D01*
X0077859Y0028563D01*
X0077801Y0028550D01*
X0077743Y0028541D01*
X0077685Y0028535D01*
X0077626Y0028533D01*
X0076710Y0028533D01*
X0079950Y0028533D02*
X0081783Y0028533D01*
X0079950Y0028533D02*
X0081508Y0030366D01*
X0080958Y0031833D02*
X0080895Y0031831D01*
X0080831Y0031825D01*
X0080769Y0031816D01*
X0080707Y0031803D01*
X0080645Y0031786D01*
X0080585Y0031765D01*
X0080527Y0031741D01*
X0080469Y0031714D01*
X0080414Y0031683D01*
X0080360Y0031649D01*
X0080309Y0031611D01*
X0080260Y0031571D01*
X0080214Y0031528D01*
X0080170Y0031482D01*
X0080129Y0031433D01*
X0080091Y0031383D01*
X0080056Y0031330D01*
X0080024Y0031275D01*
X0079996Y0031218D01*
X0079971Y0031159D01*
X0079950Y0031100D01*
X0081508Y0030366D02*
X0081547Y0030406D01*
X0081583Y0030447D01*
X0081617Y0030491D01*
X0081647Y0030537D01*
X0081675Y0030585D01*
X0081700Y0030634D01*
X0081722Y0030685D01*
X0081740Y0030736D01*
X0081756Y0030790D01*
X0081768Y0030843D01*
X0081776Y0030898D01*
X0081781Y0030953D01*
X0081783Y0031008D01*
X0081781Y0031064D01*
X0081775Y0031120D01*
X0081766Y0031176D01*
X0081752Y0031231D01*
X0081735Y0031284D01*
X0081715Y0031337D01*
X0081691Y0031388D01*
X0081663Y0031437D01*
X0081632Y0031484D01*
X0081598Y0031529D01*
X0081561Y0031571D01*
X0081521Y0031611D01*
X0081479Y0031648D01*
X0081434Y0031682D01*
X0081387Y0031713D01*
X0081338Y0031741D01*
X0081287Y0031765D01*
X0081234Y0031785D01*
X0081181Y0031802D01*
X0081126Y0031816D01*
X0081070Y0031825D01*
X0081014Y0031831D01*
X0080958Y0031833D01*
X0086710Y0031833D02*
X0087810Y0031833D01*
X0087862Y0031831D01*
X0087914Y0031826D01*
X0087966Y0031816D01*
X0088017Y0031803D01*
X0088066Y0031787D01*
X0088114Y0031767D01*
X0088161Y0031743D01*
X0088206Y0031717D01*
X0088249Y0031687D01*
X0088290Y0031654D01*
X0088328Y0031618D01*
X0088364Y0031580D01*
X0088397Y0031539D01*
X0088427Y0031496D01*
X0088453Y0031451D01*
X0088477Y0031404D01*
X0088497Y0031356D01*
X0088513Y0031307D01*
X0088526Y0031256D01*
X0088536Y0031204D01*
X0088541Y0031152D01*
X0088543Y0031100D01*
X0088541Y0031048D01*
X0088536Y0030996D01*
X0088526Y0030944D01*
X0088513Y0030893D01*
X0088497Y0030844D01*
X0088477Y0030796D01*
X0088453Y0030749D01*
X0088427Y0030704D01*
X0088397Y0030661D01*
X0088364Y0030620D01*
X0088328Y0030582D01*
X0088290Y0030546D01*
X0088249Y0030513D01*
X0088206Y0030483D01*
X0088161Y0030457D01*
X0088114Y0030433D01*
X0088066Y0030413D01*
X0088017Y0030397D01*
X0087966Y0030384D01*
X0087914Y0030374D01*
X0087862Y0030369D01*
X0087810Y0030367D01*
X0087810Y0030366D02*
X0087076Y0030366D01*
X0087626Y0030367D02*
X0087685Y0030365D01*
X0087743Y0030359D01*
X0087801Y0030350D01*
X0087859Y0030337D01*
X0087915Y0030320D01*
X0087970Y0030300D01*
X0088024Y0030276D01*
X0088076Y0030249D01*
X0088126Y0030219D01*
X0088174Y0030185D01*
X0088220Y0030148D01*
X0088264Y0030109D01*
X0088305Y0030066D01*
X0088343Y0030022D01*
X0088378Y0029975D01*
X0088410Y0029925D01*
X0088439Y0029874D01*
X0088465Y0029821D01*
X0088487Y0029767D01*
X0088505Y0029711D01*
X0088520Y0029654D01*
X0088531Y0029596D01*
X0088539Y0029538D01*
X0088543Y0029479D01*
X0088543Y0029421D01*
X0088539Y0029362D01*
X0088531Y0029304D01*
X0088520Y0029246D01*
X0088505Y0029189D01*
X0088487Y0029133D01*
X0088465Y0029079D01*
X0088439Y0029026D01*
X0088410Y0028975D01*
X0088378Y0028925D01*
X0088343Y0028878D01*
X0088305Y0028834D01*
X0088264Y0028791D01*
X0088220Y0028752D01*
X0088174Y0028715D01*
X0088126Y0028681D01*
X0088076Y0028651D01*
X0088024Y0028624D01*
X0087970Y0028600D01*
X0087915Y0028580D01*
X0087859Y0028563D01*
X0087801Y0028550D01*
X0087743Y0028541D01*
X0087685Y0028535D01*
X0087626Y0028533D01*
X0086710Y0028533D01*
X0089950Y0028533D02*
X0090866Y0028533D01*
X0090925Y0028535D01*
X0090983Y0028541D01*
X0091041Y0028550D01*
X0091099Y0028563D01*
X0091155Y0028580D01*
X0091210Y0028600D01*
X0091264Y0028624D01*
X0091316Y0028651D01*
X0091366Y0028681D01*
X0091414Y0028715D01*
X0091460Y0028752D01*
X0091504Y0028791D01*
X0091545Y0028834D01*
X0091583Y0028878D01*
X0091618Y0028925D01*
X0091650Y0028975D01*
X0091679Y0029026D01*
X0091705Y0029079D01*
X0091727Y0029133D01*
X0091745Y0029189D01*
X0091760Y0029246D01*
X0091771Y0029304D01*
X0091779Y0029362D01*
X0091783Y0029421D01*
X0091783Y0029479D01*
X0091779Y0029538D01*
X0091771Y0029596D01*
X0091760Y0029654D01*
X0091745Y0029711D01*
X0091727Y0029767D01*
X0091705Y0029821D01*
X0091679Y0029874D01*
X0091650Y0029925D01*
X0091618Y0029975D01*
X0091583Y0030022D01*
X0091545Y0030066D01*
X0091504Y0030109D01*
X0091460Y0030148D01*
X0091414Y0030185D01*
X0091366Y0030219D01*
X0091316Y0030249D01*
X0091264Y0030276D01*
X0091210Y0030300D01*
X0091155Y0030320D01*
X0091099Y0030337D01*
X0091041Y0030350D01*
X0090983Y0030359D01*
X0090925Y0030365D01*
X0090866Y0030367D01*
X0091050Y0030366D02*
X0090316Y0030366D01*
X0091050Y0030367D02*
X0091102Y0030369D01*
X0091154Y0030374D01*
X0091206Y0030384D01*
X0091257Y0030397D01*
X0091306Y0030413D01*
X0091354Y0030433D01*
X0091401Y0030457D01*
X0091446Y0030483D01*
X0091489Y0030513D01*
X0091530Y0030546D01*
X0091568Y0030582D01*
X0091604Y0030620D01*
X0091637Y0030661D01*
X0091667Y0030704D01*
X0091693Y0030749D01*
X0091717Y0030796D01*
X0091737Y0030844D01*
X0091753Y0030893D01*
X0091766Y0030944D01*
X0091776Y0030996D01*
X0091781Y0031048D01*
X0091783Y0031100D01*
X0091781Y0031152D01*
X0091776Y0031204D01*
X0091766Y0031256D01*
X0091753Y0031307D01*
X0091737Y0031356D01*
X0091717Y0031404D01*
X0091693Y0031451D01*
X0091667Y0031496D01*
X0091637Y0031539D01*
X0091604Y0031580D01*
X0091568Y0031618D01*
X0091530Y0031654D01*
X0091489Y0031687D01*
X0091446Y0031717D01*
X0091401Y0031743D01*
X0091354Y0031767D01*
X0091306Y0031787D01*
X0091257Y0031803D01*
X0091206Y0031816D01*
X0091154Y0031826D01*
X0091102Y0031831D01*
X0091050Y0031833D01*
X0089950Y0031833D01*
X0097496Y0034380D02*
X0098963Y0035113D01*
X0098963Y0035296D02*
X0098963Y0036213D01*
X0098963Y0035296D02*
X0098965Y0035237D01*
X0098971Y0035179D01*
X0098980Y0035121D01*
X0098993Y0035063D01*
X0099010Y0035007D01*
X0099030Y0034952D01*
X0099054Y0034898D01*
X0099081Y0034846D01*
X0099111Y0034796D01*
X0099145Y0034748D01*
X0099182Y0034702D01*
X0099221Y0034658D01*
X0099264Y0034617D01*
X0099308Y0034579D01*
X0099355Y0034544D01*
X0099405Y0034512D01*
X0099456Y0034483D01*
X0099509Y0034457D01*
X0099563Y0034435D01*
X0099619Y0034417D01*
X0099676Y0034402D01*
X0099734Y0034391D01*
X0099792Y0034383D01*
X0099851Y0034379D01*
X0099909Y0034379D01*
X0099968Y0034383D01*
X0100026Y0034391D01*
X0100084Y0034402D01*
X0100141Y0034417D01*
X0100197Y0034435D01*
X0100251Y0034457D01*
X0100304Y0034483D01*
X0100355Y0034512D01*
X0100405Y0034544D01*
X0100452Y0034579D01*
X0100496Y0034617D01*
X0100539Y0034658D01*
X0100578Y0034702D01*
X0100615Y0034748D01*
X0100649Y0034796D01*
X0100679Y0034846D01*
X0100706Y0034898D01*
X0100730Y0034952D01*
X0100750Y0035007D01*
X0100767Y0035063D01*
X0100780Y0035121D01*
X0100789Y0035179D01*
X0100795Y0035237D01*
X0100797Y0035296D01*
X0100796Y0035296D02*
X0100796Y0036213D01*
X0097496Y0036213D01*
X0099421Y0032644D02*
X0098871Y0031636D01*
X0097497Y0032002D02*
X0097499Y0032078D01*
X0097505Y0032155D01*
X0097514Y0032230D01*
X0097527Y0032306D01*
X0097544Y0032380D01*
X0097564Y0032454D01*
X0097589Y0032527D01*
X0097616Y0032598D01*
X0097647Y0032668D01*
X0097682Y0032736D01*
X0097720Y0032802D01*
X0097761Y0032867D01*
X0097805Y0032929D01*
X0097852Y0032989D01*
X0097902Y0033047D01*
X0097955Y0033102D01*
X0100796Y0032277D02*
X0100794Y0032203D01*
X0100788Y0032130D01*
X0100778Y0032057D01*
X0100764Y0031984D01*
X0100747Y0031913D01*
X0100725Y0031842D01*
X0100700Y0031773D01*
X0100671Y0031705D01*
X0100639Y0031639D01*
X0100603Y0031574D01*
X0100564Y0031512D01*
X0100521Y0031452D01*
X0099421Y0032644D02*
X0099449Y0032688D01*
X0099479Y0032729D01*
X0099513Y0032768D01*
X0099549Y0032805D01*
X0099588Y0032840D01*
X0099628Y0032871D01*
X0099671Y0032900D01*
X0099716Y0032925D01*
X0099762Y0032948D01*
X0099810Y0032967D01*
X0099859Y0032983D01*
X0099909Y0032995D01*
X0099960Y0033004D01*
X0100011Y0033009D01*
X0100063Y0033011D01*
X0100063Y0033010D02*
X0100115Y0033008D01*
X0100167Y0033003D01*
X0100219Y0032993D01*
X0100270Y0032980D01*
X0100319Y0032964D01*
X0100367Y0032944D01*
X0100414Y0032920D01*
X0100459Y0032894D01*
X0100502Y0032864D01*
X0100543Y0032831D01*
X0100581Y0032795D01*
X0100617Y0032757D01*
X0100650Y0032716D01*
X0100680Y0032673D01*
X0100706Y0032628D01*
X0100730Y0032581D01*
X0100750Y0032533D01*
X0100766Y0032484D01*
X0100779Y0032433D01*
X0100789Y0032381D01*
X0100794Y0032329D01*
X0100796Y0032277D01*
X0098872Y0031636D02*
X0098844Y0031592D01*
X0098814Y0031551D01*
X0098780Y0031512D01*
X0098744Y0031475D01*
X0098705Y0031440D01*
X0098665Y0031409D01*
X0098622Y0031380D01*
X0098577Y0031355D01*
X0098531Y0031332D01*
X0098483Y0031313D01*
X0098434Y0031297D01*
X0098384Y0031285D01*
X0098333Y0031276D01*
X0098282Y0031271D01*
X0098230Y0031269D01*
X0098178Y0031271D01*
X0098126Y0031276D01*
X0098074Y0031286D01*
X0098023Y0031299D01*
X0097974Y0031315D01*
X0097926Y0031335D01*
X0097879Y0031359D01*
X0097834Y0031385D01*
X0097791Y0031415D01*
X0097750Y0031448D01*
X0097712Y0031484D01*
X0097676Y0031522D01*
X0097643Y0031563D01*
X0097613Y0031606D01*
X0097587Y0031651D01*
X0097563Y0031698D01*
X0097543Y0031746D01*
X0097527Y0031795D01*
X0097514Y0031846D01*
X0097504Y0031898D01*
X0097499Y0031950D01*
X0097497Y0032002D01*
X0100796Y0030186D02*
X0100796Y0028353D01*
X0100796Y0029270D02*
X0097496Y0029270D01*
X0107532Y0029327D02*
X0107532Y0030244D01*
X0110832Y0030244D01*
X0110832Y0029327D01*
X0110833Y0029327D02*
X0110831Y0029267D01*
X0110825Y0029207D01*
X0110815Y0029148D01*
X0110802Y0029090D01*
X0110784Y0029032D01*
X0110763Y0028976D01*
X0110738Y0028921D01*
X0110710Y0028869D01*
X0110678Y0028818D01*
X0110644Y0028769D01*
X0110605Y0028722D01*
X0110564Y0028679D01*
X0110521Y0028638D01*
X0110474Y0028599D01*
X0110425Y0028565D01*
X0110375Y0028533D01*
X0110322Y0028505D01*
X0110267Y0028480D01*
X0110211Y0028459D01*
X0110153Y0028441D01*
X0110095Y0028428D01*
X0110036Y0028418D01*
X0109976Y0028412D01*
X0109916Y0028410D01*
X0108449Y0028410D01*
X0108391Y0028412D01*
X0108334Y0028417D01*
X0108277Y0028426D01*
X0108221Y0028439D01*
X0108166Y0028455D01*
X0108111Y0028474D01*
X0108059Y0028497D01*
X0108007Y0028523D01*
X0107958Y0028553D01*
X0107910Y0028585D01*
X0107864Y0028620D01*
X0107821Y0028659D01*
X0107781Y0028699D01*
X0107742Y0028742D01*
X0107707Y0028788D01*
X0107675Y0028836D01*
X0107645Y0028885D01*
X0107619Y0028937D01*
X0107596Y0028989D01*
X0107577Y0029044D01*
X0107561Y0029099D01*
X0107548Y0029155D01*
X0107539Y0029212D01*
X0107534Y0029269D01*
X0107532Y0029327D01*
X0107532Y0031866D02*
X0110832Y0031866D01*
X0110832Y0033700D02*
X0107532Y0033700D01*
X0107532Y0035322D02*
X0107532Y0036422D01*
X0107533Y0036422D02*
X0107535Y0036474D01*
X0107540Y0036526D01*
X0107550Y0036578D01*
X0107563Y0036629D01*
X0107579Y0036678D01*
X0107599Y0036727D01*
X0107623Y0036773D01*
X0107649Y0036818D01*
X0107679Y0036861D01*
X0107712Y0036902D01*
X0107748Y0036940D01*
X0107786Y0036976D01*
X0107827Y0037009D01*
X0107870Y0037039D01*
X0107915Y0037065D01*
X0107962Y0037089D01*
X0108010Y0037109D01*
X0108059Y0037125D01*
X0108110Y0037138D01*
X0108162Y0037148D01*
X0108214Y0037153D01*
X0108266Y0037155D01*
X0108266Y0037156D02*
X0110099Y0037156D01*
X0110099Y0037155D02*
X0110151Y0037153D01*
X0110203Y0037148D01*
X0110255Y0037138D01*
X0110306Y0037125D01*
X0110355Y0037109D01*
X0110403Y0037089D01*
X0110450Y0037065D01*
X0110495Y0037039D01*
X0110538Y0037009D01*
X0110579Y0036976D01*
X0110617Y0036940D01*
X0110653Y0036902D01*
X0110686Y0036861D01*
X0110716Y0036818D01*
X0110742Y0036773D01*
X0110766Y0036727D01*
X0110786Y0036678D01*
X0110802Y0036629D01*
X0110815Y0036578D01*
X0110825Y0036526D01*
X0110830Y0036474D01*
X0110832Y0036422D01*
X0110832Y0035322D01*
X0109366Y0035322D02*
X0109366Y0035872D01*
X0109366Y0035322D02*
X0107532Y0035322D01*
X0107532Y0031866D02*
X0110832Y0033700D01*
X0030896Y0071727D02*
X0030896Y0072644D01*
X0027596Y0072644D01*
X0027596Y0071727D01*
X0027598Y0071669D01*
X0027603Y0071612D01*
X0027612Y0071555D01*
X0027625Y0071499D01*
X0027641Y0071444D01*
X0027660Y0071389D01*
X0027683Y0071337D01*
X0027709Y0071285D01*
X0027739Y0071236D01*
X0027771Y0071188D01*
X0027806Y0071142D01*
X0027845Y0071099D01*
X0027885Y0071059D01*
X0027928Y0071020D01*
X0027974Y0070985D01*
X0028022Y0070953D01*
X0028071Y0070923D01*
X0028123Y0070897D01*
X0028175Y0070874D01*
X0028230Y0070855D01*
X0028285Y0070839D01*
X0028341Y0070826D01*
X0028398Y0070817D01*
X0028455Y0070812D01*
X0028513Y0070810D01*
X0029980Y0070810D01*
X0030040Y0070812D01*
X0030100Y0070818D01*
X0030159Y0070828D01*
X0030217Y0070841D01*
X0030275Y0070859D01*
X0030331Y0070880D01*
X0030386Y0070905D01*
X0030439Y0070933D01*
X0030489Y0070965D01*
X0030538Y0070999D01*
X0030585Y0071038D01*
X0030628Y0071079D01*
X0030669Y0071122D01*
X0030708Y0071169D01*
X0030742Y0071218D01*
X0030774Y0071269D01*
X0030802Y0071321D01*
X0030827Y0071376D01*
X0030848Y0071432D01*
X0030866Y0071490D01*
X0030879Y0071548D01*
X0030889Y0071607D01*
X0030895Y0071667D01*
X0030897Y0071727D01*
X0030896Y0074266D02*
X0027596Y0074266D01*
X0030896Y0076100D01*
X0027596Y0076100D01*
X0027596Y0077722D02*
X0027596Y0078822D01*
X0027597Y0078822D02*
X0027599Y0078874D01*
X0027604Y0078926D01*
X0027614Y0078978D01*
X0027627Y0079029D01*
X0027643Y0079078D01*
X0027663Y0079127D01*
X0027687Y0079173D01*
X0027713Y0079218D01*
X0027743Y0079261D01*
X0027776Y0079302D01*
X0027812Y0079340D01*
X0027850Y0079376D01*
X0027891Y0079409D01*
X0027934Y0079439D01*
X0027979Y0079465D01*
X0028026Y0079489D01*
X0028074Y0079509D01*
X0028123Y0079525D01*
X0028174Y0079538D01*
X0028226Y0079548D01*
X0028278Y0079553D01*
X0028330Y0079555D01*
X0028330Y0079556D02*
X0030163Y0079556D01*
X0030163Y0079555D02*
X0030215Y0079553D01*
X0030267Y0079548D01*
X0030319Y0079538D01*
X0030370Y0079525D01*
X0030419Y0079509D01*
X0030467Y0079489D01*
X0030514Y0079465D01*
X0030559Y0079439D01*
X0030602Y0079409D01*
X0030643Y0079376D01*
X0030681Y0079340D01*
X0030717Y0079302D01*
X0030750Y0079261D01*
X0030780Y0079218D01*
X0030806Y0079173D01*
X0030830Y0079127D01*
X0030850Y0079078D01*
X0030866Y0079029D01*
X0030879Y0078978D01*
X0030889Y0078926D01*
X0030894Y0078874D01*
X0030896Y0078822D01*
X0030896Y0077722D01*
X0029430Y0077722D02*
X0027596Y0077722D01*
X0029430Y0077722D02*
X0029430Y0078272D01*
X0036618Y0077866D02*
X0036618Y0079333D01*
X0038451Y0079333D01*
X0039675Y0079333D02*
X0040775Y0076033D01*
X0041875Y0079333D01*
X0045090Y0079333D02*
X0046190Y0079333D01*
X0046242Y0079331D01*
X0046294Y0079326D01*
X0046346Y0079316D01*
X0046397Y0079303D01*
X0046446Y0079287D01*
X0046494Y0079267D01*
X0046541Y0079243D01*
X0046586Y0079217D01*
X0046629Y0079187D01*
X0046670Y0079154D01*
X0046708Y0079118D01*
X0046744Y0079080D01*
X0046777Y0079039D01*
X0046807Y0078996D01*
X0046833Y0078951D01*
X0046857Y0078904D01*
X0046877Y0078856D01*
X0046893Y0078807D01*
X0046906Y0078756D01*
X0046916Y0078704D01*
X0046921Y0078652D01*
X0046923Y0078600D01*
X0046921Y0078548D01*
X0046916Y0078496D01*
X0046906Y0078444D01*
X0046893Y0078393D01*
X0046877Y0078344D01*
X0046857Y0078296D01*
X0046833Y0078249D01*
X0046807Y0078204D01*
X0046777Y0078161D01*
X0046744Y0078120D01*
X0046708Y0078082D01*
X0046670Y0078046D01*
X0046629Y0078013D01*
X0046586Y0077983D01*
X0046541Y0077957D01*
X0046494Y0077933D01*
X0046446Y0077913D01*
X0046397Y0077897D01*
X0046346Y0077884D01*
X0046294Y0077874D01*
X0046242Y0077869D01*
X0046190Y0077867D01*
X0046190Y0077866D02*
X0045456Y0077866D01*
X0046006Y0077867D02*
X0046065Y0077865D01*
X0046123Y0077859D01*
X0046181Y0077850D01*
X0046239Y0077837D01*
X0046295Y0077820D01*
X0046350Y0077800D01*
X0046404Y0077776D01*
X0046456Y0077749D01*
X0046506Y0077719D01*
X0046554Y0077685D01*
X0046600Y0077648D01*
X0046644Y0077609D01*
X0046685Y0077566D01*
X0046723Y0077522D01*
X0046758Y0077475D01*
X0046790Y0077425D01*
X0046819Y0077374D01*
X0046845Y0077321D01*
X0046867Y0077267D01*
X0046885Y0077211D01*
X0046900Y0077154D01*
X0046911Y0077096D01*
X0046919Y0077038D01*
X0046923Y0076979D01*
X0046923Y0076921D01*
X0046919Y0076862D01*
X0046911Y0076804D01*
X0046900Y0076746D01*
X0046885Y0076689D01*
X0046867Y0076633D01*
X0046845Y0076579D01*
X0046819Y0076526D01*
X0046790Y0076475D01*
X0046758Y0076425D01*
X0046723Y0076378D01*
X0046685Y0076334D01*
X0046644Y0076291D01*
X0046600Y0076252D01*
X0046554Y0076215D01*
X0046506Y0076181D01*
X0046456Y0076151D01*
X0046404Y0076124D01*
X0046350Y0076100D01*
X0046295Y0076080D01*
X0046239Y0076063D01*
X0046181Y0076050D01*
X0046123Y0076041D01*
X0046065Y0076035D01*
X0046006Y0076033D01*
X0045090Y0076033D01*
X0049246Y0076033D02*
X0050346Y0079333D01*
X0051570Y0079333D02*
X0052670Y0079333D01*
X0052722Y0079331D01*
X0052774Y0079326D01*
X0052826Y0079316D01*
X0052877Y0079303D01*
X0052926Y0079287D01*
X0052974Y0079267D01*
X0053021Y0079243D01*
X0053066Y0079217D01*
X0053109Y0079187D01*
X0053150Y0079154D01*
X0053188Y0079118D01*
X0053224Y0079080D01*
X0053257Y0079039D01*
X0053287Y0078996D01*
X0053313Y0078951D01*
X0053337Y0078904D01*
X0053357Y0078856D01*
X0053373Y0078807D01*
X0053386Y0078756D01*
X0053396Y0078704D01*
X0053401Y0078652D01*
X0053403Y0078600D01*
X0053401Y0078548D01*
X0053396Y0078496D01*
X0053386Y0078444D01*
X0053373Y0078393D01*
X0053357Y0078344D01*
X0053337Y0078296D01*
X0053313Y0078249D01*
X0053287Y0078204D01*
X0053257Y0078161D01*
X0053224Y0078120D01*
X0053188Y0078082D01*
X0053150Y0078046D01*
X0053109Y0078013D01*
X0053066Y0077983D01*
X0053021Y0077957D01*
X0052974Y0077933D01*
X0052926Y0077913D01*
X0052877Y0077897D01*
X0052826Y0077884D01*
X0052774Y0077874D01*
X0052722Y0077869D01*
X0052670Y0077867D01*
X0052670Y0077866D02*
X0051936Y0077866D01*
X0052486Y0077867D02*
X0052545Y0077865D01*
X0052603Y0077859D01*
X0052661Y0077850D01*
X0052719Y0077837D01*
X0052775Y0077820D01*
X0052830Y0077800D01*
X0052884Y0077776D01*
X0052936Y0077749D01*
X0052986Y0077719D01*
X0053034Y0077685D01*
X0053080Y0077648D01*
X0053124Y0077609D01*
X0053165Y0077566D01*
X0053203Y0077522D01*
X0053238Y0077475D01*
X0053270Y0077425D01*
X0053299Y0077374D01*
X0053325Y0077321D01*
X0053347Y0077267D01*
X0053365Y0077211D01*
X0053380Y0077154D01*
X0053391Y0077096D01*
X0053399Y0077038D01*
X0053403Y0076979D01*
X0053403Y0076921D01*
X0053399Y0076862D01*
X0053391Y0076804D01*
X0053380Y0076746D01*
X0053365Y0076689D01*
X0053347Y0076633D01*
X0053325Y0076579D01*
X0053299Y0076526D01*
X0053270Y0076475D01*
X0053238Y0076425D01*
X0053203Y0076378D01*
X0053165Y0076334D01*
X0053124Y0076291D01*
X0053080Y0076252D01*
X0053034Y0076215D01*
X0052986Y0076181D01*
X0052936Y0076151D01*
X0052884Y0076124D01*
X0052830Y0076100D01*
X0052775Y0076080D01*
X0052719Y0076063D01*
X0052661Y0076050D01*
X0052603Y0076041D01*
X0052545Y0076035D01*
X0052486Y0076033D01*
X0051570Y0076033D01*
X0049246Y0076033D02*
X0048146Y0079333D01*
X0058330Y0076766D02*
X0060163Y0076766D01*
X0059613Y0076033D02*
X0059613Y0077500D01*
X0058330Y0076766D02*
X0059063Y0079333D01*
X0066710Y0078600D02*
X0067626Y0079333D01*
X0067626Y0076033D01*
X0066710Y0076033D02*
X0068543Y0076033D01*
X0069950Y0076766D02*
X0071783Y0076766D01*
X0071233Y0076033D02*
X0071233Y0077500D01*
X0069950Y0076766D02*
X0070683Y0079333D01*
X0076710Y0078600D02*
X0077626Y0079333D01*
X0077626Y0076033D01*
X0076710Y0076033D02*
X0078543Y0076033D01*
X0079950Y0076033D02*
X0081050Y0076033D01*
X0081102Y0076035D01*
X0081154Y0076040D01*
X0081206Y0076050D01*
X0081257Y0076063D01*
X0081306Y0076079D01*
X0081355Y0076099D01*
X0081401Y0076123D01*
X0081446Y0076149D01*
X0081489Y0076179D01*
X0081530Y0076212D01*
X0081568Y0076248D01*
X0081604Y0076286D01*
X0081637Y0076327D01*
X0081667Y0076370D01*
X0081693Y0076415D01*
X0081717Y0076462D01*
X0081737Y0076510D01*
X0081753Y0076559D01*
X0081766Y0076610D01*
X0081776Y0076662D01*
X0081781Y0076714D01*
X0081783Y0076766D01*
X0081783Y0077133D01*
X0081781Y0077185D01*
X0081776Y0077237D01*
X0081766Y0077289D01*
X0081753Y0077340D01*
X0081737Y0077389D01*
X0081717Y0077437D01*
X0081693Y0077484D01*
X0081667Y0077529D01*
X0081637Y0077572D01*
X0081604Y0077613D01*
X0081568Y0077651D01*
X0081530Y0077687D01*
X0081489Y0077720D01*
X0081446Y0077750D01*
X0081401Y0077776D01*
X0081354Y0077800D01*
X0081306Y0077820D01*
X0081257Y0077836D01*
X0081206Y0077849D01*
X0081154Y0077859D01*
X0081102Y0077864D01*
X0081050Y0077866D01*
X0079950Y0077866D01*
X0079950Y0079333D01*
X0081783Y0079333D01*
X0088268Y0077866D02*
X0088307Y0077906D01*
X0088343Y0077947D01*
X0088377Y0077991D01*
X0088407Y0078037D01*
X0088435Y0078085D01*
X0088460Y0078134D01*
X0088482Y0078185D01*
X0088500Y0078236D01*
X0088516Y0078290D01*
X0088528Y0078343D01*
X0088536Y0078398D01*
X0088541Y0078453D01*
X0088543Y0078508D01*
X0088268Y0077866D02*
X0086710Y0076033D01*
X0088543Y0076033D01*
X0090866Y0076033D02*
X0091783Y0079333D01*
X0089950Y0079333D01*
X0089950Y0078966D01*
X0088543Y0078508D02*
X0088541Y0078564D01*
X0088535Y0078620D01*
X0088526Y0078676D01*
X0088512Y0078731D01*
X0088495Y0078784D01*
X0088475Y0078837D01*
X0088451Y0078888D01*
X0088423Y0078937D01*
X0088392Y0078984D01*
X0088358Y0079029D01*
X0088321Y0079071D01*
X0088281Y0079111D01*
X0088239Y0079148D01*
X0088194Y0079182D01*
X0088147Y0079213D01*
X0088098Y0079241D01*
X0088047Y0079265D01*
X0087994Y0079285D01*
X0087941Y0079302D01*
X0087886Y0079316D01*
X0087830Y0079325D01*
X0087774Y0079331D01*
X0087718Y0079333D01*
X0087655Y0079331D01*
X0087591Y0079325D01*
X0087529Y0079316D01*
X0087467Y0079303D01*
X0087405Y0079286D01*
X0087345Y0079265D01*
X0087287Y0079241D01*
X0087229Y0079214D01*
X0087174Y0079183D01*
X0087120Y0079149D01*
X0087069Y0079111D01*
X0087020Y0079071D01*
X0086974Y0079028D01*
X0086930Y0078982D01*
X0086889Y0078933D01*
X0086851Y0078883D01*
X0086816Y0078830D01*
X0086784Y0078775D01*
X0086756Y0078718D01*
X0086731Y0078659D01*
X0086710Y0078600D01*
X0096710Y0076033D02*
X0098543Y0076033D01*
X0099950Y0076950D02*
X0099950Y0077866D01*
X0101050Y0077866D01*
X0099949Y0077866D02*
X0099951Y0077940D01*
X0099957Y0078014D01*
X0099966Y0078088D01*
X0099979Y0078161D01*
X0099996Y0078234D01*
X0100016Y0078305D01*
X0100040Y0078375D01*
X0100068Y0078445D01*
X0100099Y0078512D01*
X0100133Y0078578D01*
X0100171Y0078642D01*
X0100212Y0078704D01*
X0100256Y0078764D01*
X0100303Y0078822D01*
X0100353Y0078877D01*
X0100405Y0078929D01*
X0100460Y0078979D01*
X0100518Y0079026D01*
X0100578Y0079070D01*
X0100640Y0079111D01*
X0100704Y0079149D01*
X0100770Y0079183D01*
X0100837Y0079214D01*
X0100906Y0079242D01*
X0100977Y0079266D01*
X0101048Y0079286D01*
X0101121Y0079303D01*
X0101194Y0079316D01*
X0101268Y0079325D01*
X0101342Y0079331D01*
X0101416Y0079333D01*
X0101050Y0077866D02*
X0101102Y0077864D01*
X0101154Y0077859D01*
X0101206Y0077849D01*
X0101257Y0077836D01*
X0101306Y0077820D01*
X0101354Y0077800D01*
X0101401Y0077776D01*
X0101446Y0077750D01*
X0101489Y0077720D01*
X0101530Y0077687D01*
X0101568Y0077651D01*
X0101604Y0077613D01*
X0101637Y0077572D01*
X0101667Y0077529D01*
X0101693Y0077484D01*
X0101717Y0077437D01*
X0101737Y0077389D01*
X0101753Y0077340D01*
X0101766Y0077289D01*
X0101776Y0077237D01*
X0101781Y0077185D01*
X0101783Y0077133D01*
X0101783Y0076950D01*
X0101781Y0076891D01*
X0101775Y0076833D01*
X0101766Y0076775D01*
X0101753Y0076717D01*
X0101736Y0076661D01*
X0101716Y0076606D01*
X0101692Y0076552D01*
X0101665Y0076500D01*
X0101635Y0076450D01*
X0101601Y0076402D01*
X0101564Y0076356D01*
X0101525Y0076312D01*
X0101482Y0076271D01*
X0101438Y0076233D01*
X0101391Y0076198D01*
X0101341Y0076166D01*
X0101290Y0076137D01*
X0101237Y0076111D01*
X0101183Y0076089D01*
X0101127Y0076071D01*
X0101070Y0076056D01*
X0101012Y0076045D01*
X0100954Y0076037D01*
X0100895Y0076033D01*
X0100837Y0076033D01*
X0100778Y0076037D01*
X0100720Y0076045D01*
X0100662Y0076056D01*
X0100605Y0076071D01*
X0100549Y0076089D01*
X0100495Y0076111D01*
X0100442Y0076137D01*
X0100391Y0076166D01*
X0100341Y0076198D01*
X0100294Y0076233D01*
X0100250Y0076271D01*
X0100207Y0076312D01*
X0100168Y0076356D01*
X0100131Y0076402D01*
X0100097Y0076450D01*
X0100067Y0076500D01*
X0100040Y0076552D01*
X0100016Y0076606D01*
X0099996Y0076661D01*
X0099979Y0076717D01*
X0099966Y0076775D01*
X0099957Y0076833D01*
X0099951Y0076891D01*
X0099949Y0076950D01*
X0098268Y0077866D02*
X0096710Y0076033D01*
X0096710Y0078600D02*
X0096731Y0078659D01*
X0096756Y0078718D01*
X0096784Y0078775D01*
X0096816Y0078830D01*
X0096851Y0078883D01*
X0096889Y0078933D01*
X0096930Y0078982D01*
X0096974Y0079028D01*
X0097020Y0079071D01*
X0097069Y0079111D01*
X0097120Y0079149D01*
X0097174Y0079183D01*
X0097229Y0079214D01*
X0097287Y0079241D01*
X0097345Y0079265D01*
X0097405Y0079286D01*
X0097467Y0079303D01*
X0097529Y0079316D01*
X0097591Y0079325D01*
X0097655Y0079331D01*
X0097718Y0079333D01*
X0097774Y0079331D01*
X0097830Y0079325D01*
X0097886Y0079316D01*
X0097941Y0079302D01*
X0097994Y0079285D01*
X0098047Y0079265D01*
X0098098Y0079241D01*
X0098147Y0079213D01*
X0098194Y0079182D01*
X0098239Y0079148D01*
X0098281Y0079111D01*
X0098321Y0079071D01*
X0098358Y0079029D01*
X0098392Y0078984D01*
X0098423Y0078937D01*
X0098451Y0078888D01*
X0098475Y0078837D01*
X0098495Y0078784D01*
X0098512Y0078731D01*
X0098526Y0078676D01*
X0098535Y0078620D01*
X0098541Y0078564D01*
X0098543Y0078508D01*
X0098541Y0078453D01*
X0098536Y0078398D01*
X0098528Y0078343D01*
X0098516Y0078290D01*
X0098500Y0078236D01*
X0098482Y0078185D01*
X0098460Y0078134D01*
X0098435Y0078085D01*
X0098407Y0078037D01*
X0098377Y0077991D01*
X0098343Y0077947D01*
X0098307Y0077906D01*
X0098268Y0077866D01*
X0106710Y0076033D02*
X0108543Y0076033D01*
X0109950Y0076033D02*
X0111050Y0076033D01*
X0111102Y0076035D01*
X0111154Y0076040D01*
X0111206Y0076050D01*
X0111257Y0076063D01*
X0111306Y0076079D01*
X0111355Y0076099D01*
X0111401Y0076123D01*
X0111446Y0076149D01*
X0111489Y0076179D01*
X0111530Y0076212D01*
X0111568Y0076248D01*
X0111604Y0076286D01*
X0111637Y0076327D01*
X0111667Y0076370D01*
X0111693Y0076415D01*
X0111717Y0076462D01*
X0111737Y0076510D01*
X0111753Y0076559D01*
X0111766Y0076610D01*
X0111776Y0076662D01*
X0111781Y0076714D01*
X0111783Y0076766D01*
X0111783Y0077133D01*
X0111781Y0077185D01*
X0111776Y0077237D01*
X0111766Y0077289D01*
X0111753Y0077340D01*
X0111737Y0077389D01*
X0111717Y0077437D01*
X0111693Y0077484D01*
X0111667Y0077529D01*
X0111637Y0077572D01*
X0111604Y0077613D01*
X0111568Y0077651D01*
X0111530Y0077687D01*
X0111489Y0077720D01*
X0111446Y0077750D01*
X0111401Y0077776D01*
X0111354Y0077800D01*
X0111306Y0077820D01*
X0111257Y0077836D01*
X0111206Y0077849D01*
X0111154Y0077859D01*
X0111102Y0077864D01*
X0111050Y0077866D01*
X0109950Y0077866D01*
X0109950Y0079333D01*
X0111783Y0079333D01*
X0108268Y0077866D02*
X0106710Y0076033D01*
X0106710Y0078600D02*
X0106731Y0078659D01*
X0106756Y0078718D01*
X0106784Y0078775D01*
X0106816Y0078830D01*
X0106851Y0078883D01*
X0106889Y0078933D01*
X0106930Y0078982D01*
X0106974Y0079028D01*
X0107020Y0079071D01*
X0107069Y0079111D01*
X0107120Y0079149D01*
X0107174Y0079183D01*
X0107229Y0079214D01*
X0107287Y0079241D01*
X0107345Y0079265D01*
X0107405Y0079286D01*
X0107467Y0079303D01*
X0107529Y0079316D01*
X0107591Y0079325D01*
X0107655Y0079331D01*
X0107718Y0079333D01*
X0107774Y0079331D01*
X0107830Y0079325D01*
X0107886Y0079316D01*
X0107941Y0079302D01*
X0107994Y0079285D01*
X0108047Y0079265D01*
X0108098Y0079241D01*
X0108147Y0079213D01*
X0108194Y0079182D01*
X0108239Y0079148D01*
X0108281Y0079111D01*
X0108321Y0079071D01*
X0108358Y0079029D01*
X0108392Y0078984D01*
X0108423Y0078937D01*
X0108451Y0078888D01*
X0108475Y0078837D01*
X0108495Y0078784D01*
X0108512Y0078731D01*
X0108526Y0078676D01*
X0108535Y0078620D01*
X0108541Y0078564D01*
X0108543Y0078508D01*
X0108541Y0078453D01*
X0108536Y0078398D01*
X0108528Y0078343D01*
X0108516Y0078290D01*
X0108500Y0078236D01*
X0108482Y0078185D01*
X0108460Y0078134D01*
X0108435Y0078085D01*
X0108407Y0078037D01*
X0108377Y0077991D01*
X0108343Y0077947D01*
X0108307Y0077906D01*
X0108268Y0077866D01*
X0038451Y0077133D02*
X0038451Y0076766D01*
X0038449Y0076714D01*
X0038444Y0076662D01*
X0038434Y0076610D01*
X0038421Y0076559D01*
X0038405Y0076510D01*
X0038385Y0076462D01*
X0038361Y0076415D01*
X0038335Y0076370D01*
X0038305Y0076327D01*
X0038272Y0076286D01*
X0038236Y0076248D01*
X0038198Y0076212D01*
X0038157Y0076179D01*
X0038114Y0076149D01*
X0038069Y0076123D01*
X0038023Y0076099D01*
X0037974Y0076079D01*
X0037925Y0076063D01*
X0037874Y0076050D01*
X0037822Y0076040D01*
X0037770Y0076035D01*
X0037718Y0076033D01*
X0036618Y0076033D01*
X0038451Y0077133D02*
X0038449Y0077185D01*
X0038444Y0077237D01*
X0038434Y0077289D01*
X0038421Y0077340D01*
X0038405Y0077389D01*
X0038385Y0077437D01*
X0038361Y0077484D01*
X0038335Y0077529D01*
X0038305Y0077572D01*
X0038272Y0077613D01*
X0038236Y0077651D01*
X0038198Y0077687D01*
X0038157Y0077720D01*
X0038114Y0077750D01*
X0038069Y0077776D01*
X0038022Y0077800D01*
X0037974Y0077820D01*
X0037925Y0077836D01*
X0037874Y0077849D01*
X0037822Y0077859D01*
X0037770Y0077864D01*
X0037718Y0077866D01*
X0036618Y0077866D01*
X0020896Y0078637D02*
X0020896Y0079553D01*
X0017596Y0079553D01*
X0017596Y0078637D01*
X0017598Y0078578D01*
X0017604Y0078520D01*
X0017613Y0078462D01*
X0017626Y0078404D01*
X0017643Y0078348D01*
X0017663Y0078293D01*
X0017687Y0078239D01*
X0017714Y0078187D01*
X0017744Y0078137D01*
X0017778Y0078089D01*
X0017815Y0078043D01*
X0017854Y0077999D01*
X0017897Y0077958D01*
X0017941Y0077920D01*
X0017988Y0077885D01*
X0018038Y0077853D01*
X0018089Y0077824D01*
X0018142Y0077798D01*
X0018196Y0077776D01*
X0018252Y0077758D01*
X0018309Y0077743D01*
X0018367Y0077732D01*
X0018425Y0077724D01*
X0018484Y0077720D01*
X0018542Y0077720D01*
X0018601Y0077724D01*
X0018659Y0077732D01*
X0018717Y0077743D01*
X0018774Y0077758D01*
X0018830Y0077776D01*
X0018884Y0077798D01*
X0018937Y0077824D01*
X0018988Y0077853D01*
X0019038Y0077885D01*
X0019085Y0077920D01*
X0019129Y0077958D01*
X0019172Y0077999D01*
X0019211Y0078043D01*
X0019248Y0078089D01*
X0019282Y0078137D01*
X0019312Y0078187D01*
X0019339Y0078239D01*
X0019363Y0078293D01*
X0019383Y0078348D01*
X0019400Y0078404D01*
X0019413Y0078462D01*
X0019422Y0078520D01*
X0019428Y0078578D01*
X0019430Y0078637D01*
X0019430Y0079553D01*
X0019430Y0078637D02*
X0019432Y0078585D01*
X0019437Y0078533D01*
X0019447Y0078481D01*
X0019460Y0078430D01*
X0019476Y0078381D01*
X0019496Y0078333D01*
X0019520Y0078286D01*
X0019546Y0078241D01*
X0019576Y0078198D01*
X0019609Y0078157D01*
X0019645Y0078119D01*
X0019683Y0078083D01*
X0019724Y0078050D01*
X0019767Y0078020D01*
X0019812Y0077994D01*
X0019859Y0077970D01*
X0019907Y0077950D01*
X0019956Y0077934D01*
X0020007Y0077921D01*
X0020059Y0077911D01*
X0020111Y0077906D01*
X0020163Y0077904D01*
X0020215Y0077906D01*
X0020267Y0077911D01*
X0020319Y0077921D01*
X0020370Y0077934D01*
X0020419Y0077950D01*
X0020467Y0077970D01*
X0020514Y0077994D01*
X0020559Y0078020D01*
X0020602Y0078050D01*
X0020643Y0078083D01*
X0020681Y0078119D01*
X0020717Y0078157D01*
X0020750Y0078198D01*
X0020780Y0078241D01*
X0020806Y0078286D01*
X0020830Y0078333D01*
X0020850Y0078381D01*
X0020866Y0078430D01*
X0020879Y0078481D01*
X0020889Y0078533D01*
X0020894Y0078585D01*
X0020896Y0078637D01*
X0020896Y0075554D02*
X0017596Y0076654D01*
X0018421Y0076379D02*
X0018421Y0074729D01*
X0017596Y0074454D02*
X0020896Y0075554D01*
X0020896Y0073446D02*
X0020896Y0071613D01*
X0020896Y0072530D02*
X0017596Y0072530D01*
D11*
X0042746Y0073683D02*
X0042746Y0074683D01*
X0042746Y0070683D02*
X0042746Y0069683D01*
X0048550Y0068733D02*
X0048550Y0062433D01*
X0042746Y0059683D02*
X0042746Y0058683D01*
X0055196Y0055783D02*
X0055196Y0053783D01*
X0065179Y0055557D02*
X0065181Y0055601D01*
X0065187Y0055645D01*
X0065197Y0055688D01*
X0065210Y0055730D01*
X0065227Y0055771D01*
X0065248Y0055810D01*
X0065272Y0055847D01*
X0065299Y0055882D01*
X0065329Y0055914D01*
X0065362Y0055944D01*
X0065398Y0055970D01*
X0065435Y0055994D01*
X0065475Y0056013D01*
X0065516Y0056030D01*
X0065559Y0056042D01*
X0065602Y0056051D01*
X0065646Y0056056D01*
X0065690Y0056057D01*
X0065734Y0056054D01*
X0065778Y0056047D01*
X0065821Y0056036D01*
X0065863Y0056022D01*
X0065903Y0056004D01*
X0065942Y0055982D01*
X0065978Y0055958D01*
X0066012Y0055930D01*
X0066044Y0055899D01*
X0066073Y0055865D01*
X0066099Y0055829D01*
X0066121Y0055791D01*
X0066140Y0055751D01*
X0066155Y0055709D01*
X0066167Y0055667D01*
X0066175Y0055623D01*
X0066179Y0055579D01*
X0066179Y0055535D01*
X0066175Y0055491D01*
X0066167Y0055447D01*
X0066155Y0055405D01*
X0066140Y0055363D01*
X0066121Y0055323D01*
X0066099Y0055285D01*
X0066073Y0055249D01*
X0066044Y0055215D01*
X0066012Y0055184D01*
X0065978Y0055156D01*
X0065942Y0055132D01*
X0065903Y0055110D01*
X0065863Y0055092D01*
X0065821Y0055078D01*
X0065778Y0055067D01*
X0065734Y0055060D01*
X0065690Y0055057D01*
X0065646Y0055058D01*
X0065602Y0055063D01*
X0065559Y0055072D01*
X0065516Y0055084D01*
X0065475Y0055101D01*
X0065435Y0055120D01*
X0065398Y0055144D01*
X0065362Y0055170D01*
X0065329Y0055200D01*
X0065299Y0055232D01*
X0065272Y0055267D01*
X0065248Y0055304D01*
X0065227Y0055343D01*
X0065210Y0055384D01*
X0065197Y0055426D01*
X0065187Y0055469D01*
X0065181Y0055513D01*
X0065179Y0055557D01*
X0066472Y0053344D02*
X0068421Y0053344D01*
X0061543Y0062433D02*
X0061543Y0068733D01*
X0056621Y0069717D02*
X0053472Y0069717D01*
X0067096Y0069383D02*
X0067096Y0068383D01*
X0067096Y0072683D02*
X0067096Y0073683D01*
X0079746Y0073683D02*
X0079746Y0072683D01*
X0099993Y0073030D02*
X0100700Y0073737D01*
X0124496Y0062733D02*
X0124496Y0061733D01*
X0119996Y0060183D02*
X0118996Y0060183D01*
X0108500Y0050230D02*
X0107793Y0050937D01*
X0102543Y0045637D02*
X0103250Y0044930D01*
X0093400Y0035380D02*
X0092693Y0036087D01*
X0078582Y0043183D02*
X0077608Y0044157D01*
X0078582Y0043183D02*
X0077608Y0042209D01*
X0068421Y0033022D02*
X0067446Y0032048D01*
X0066472Y0033022D01*
X0053746Y0036183D02*
X0052746Y0036183D01*
X0049746Y0036183D02*
X0048746Y0036183D01*
X0041246Y0036183D02*
X0040246Y0036183D01*
X0040366Y0043783D02*
X0040366Y0045783D01*
X0052746Y0044783D02*
X0053746Y0044783D01*
X0056311Y0043183D02*
X0057285Y0044157D01*
X0056311Y0043183D02*
X0057285Y0042209D01*
D12*
X0086857Y0046723D02*
X0090746Y0042834D01*
X0094636Y0046723D01*
X0116746Y0031983D02*
X0116746Y0026983D01*
X0117746Y0026983D01*
X0133400Y0026983D02*
X0137337Y0026983D01*
X0137346Y0026983D02*
X0137346Y0030920D01*
X0109241Y0073139D02*
X0110028Y0073926D01*
X0109241Y0074714D01*
X0109241Y0074320D01*
X0109635Y0073926D01*
X0109241Y0074320D02*
X0109241Y0073139D01*
X0116746Y0077180D02*
X0116746Y0081117D01*
X0120683Y0081117D01*
X0133400Y0081117D02*
X0137337Y0081117D01*
X0137337Y0077180D01*
D13*
X0083937Y0038531D03*
D14*
X0046443Y0048918D02*
X0039750Y0048918D01*
X0039750Y0053248D02*
X0046443Y0053248D01*
D15*
X0044474Y0051083D03*
D16*
X0044361Y0036683D03*
X0046132Y0036683D03*
X0037132Y0036683D03*
X0035361Y0036683D03*
D17*
X0035459Y0036289D02*
X0036246Y0036289D01*
X0036246Y0037077D01*
X0036246Y0036289D02*
X0037034Y0036289D01*
X0044459Y0036289D02*
X0045246Y0036289D01*
X0045246Y0037077D01*
X0045246Y0036289D02*
X0046034Y0036289D01*
X0044554Y0067923D02*
X0044556Y0067956D01*
X0044562Y0067988D01*
X0044572Y0068019D01*
X0044585Y0068048D01*
X0044602Y0068076D01*
X0044622Y0068102D01*
X0044645Y0068125D01*
X0044671Y0068145D01*
X0044699Y0068162D01*
X0044728Y0068175D01*
X0044759Y0068185D01*
X0044791Y0068191D01*
X0044824Y0068193D01*
X0044857Y0068191D01*
X0044889Y0068185D01*
X0044920Y0068175D01*
X0044949Y0068162D01*
X0044977Y0068145D01*
X0045003Y0068125D01*
X0045026Y0068102D01*
X0045046Y0068076D01*
X0045063Y0068048D01*
X0045076Y0068019D01*
X0045086Y0067988D01*
X0045092Y0067956D01*
X0045094Y0067923D01*
X0045092Y0067890D01*
X0045086Y0067858D01*
X0045076Y0067827D01*
X0045063Y0067798D01*
X0045046Y0067770D01*
X0045026Y0067744D01*
X0045003Y0067721D01*
X0044977Y0067701D01*
X0044949Y0067684D01*
X0044920Y0067671D01*
X0044889Y0067661D01*
X0044857Y0067655D01*
X0044824Y0067653D01*
X0044791Y0067655D01*
X0044759Y0067661D01*
X0044728Y0067671D01*
X0044699Y0067684D01*
X0044671Y0067701D01*
X0044645Y0067721D01*
X0044622Y0067744D01*
X0044602Y0067770D01*
X0044585Y0067798D01*
X0044572Y0067827D01*
X0044562Y0067858D01*
X0044556Y0067890D01*
X0044554Y0067923D01*
M02*
