%
M48
M72
T01C0.00787
T02C0.01181
T03C0.01575
T04C0.02165
T05C0.04000
%
T01
X116846Y474702
X121846Y474702
X126846Y474702
X126846Y480002
X126846Y485002
X126846Y490002
X126846Y495002
X126846Y500002
X126846Y505002
X124646Y511252
X121846Y505002
X121846Y500002
X121846Y495002
X121846Y490002
X116846Y490002
X116846Y495002
X116846Y500002
X110646Y507852
X109096Y511002
X107296Y516930
X105861Y519052
X104125Y512474
X105346Y510752
X103546Y509052
X101770Y507376
X102574Y513975
X100997Y515551
X99296Y517202
X97446Y519102
X95496Y521002
X90542Y525456
X94246Y534002
X101346Y529002
X104246Y534002
X116846Y535002
X116846Y540002
X121846Y540002
X121746Y535002
X121846Y530002
X116846Y530002
X126846Y530002
X126846Y525002
X131846Y530002
X131746Y535002
X131846Y540002
X126846Y540002
X126746Y535002
X136846Y535002
X136846Y540002
X136846Y530002
X136846Y509702
X136846Y504702
X136846Y499702
X136846Y494702
X136846Y489702
X136846Y484702
X136846Y479702
X136846Y474702
X131846Y474702
X131846Y479702
X131846Y484702
X131846Y489702
X131846Y494702
X131846Y499702
X131846Y504702
X107296Y499652
X104246Y487752
X104246Y484002
X104246Y480252
X94246Y480102
X94246Y484002
X85746Y491502
X82546Y489352
X84246Y480102
X90382Y496463
X83146Y504002
X79143Y507998
X76446Y510602
X71821Y516552
X68621Y512602
X65573Y510825
X67164Y509124
X62371Y510877
X58596Y518602
X56096Y517752
X52396Y517652
X52346Y520002
X49846Y520002
X49846Y517702
X47046Y517652
X47046Y520002
X47146Y524102
X44246Y534002
X37696Y527302
X35196Y527302
X32696Y527302
X37846Y519702
X37846Y517302
X37846Y514802
X33346Y516352
X26896Y514352
X28196Y509808
X28196Y507252
X33296Y498502
X36546Y495102
X41346Y495102
X45268Y495176
X47546Y493902
X53246Y485052
X54246Y480102
X56718Y491530
X56130Y504040
X53846Y504033
X47046Y515152
X56096Y524852
X54246Y529002
X54246Y531502
X54246Y534002
X64246Y534002
X67146Y528502
X74196Y530152
X75246Y526502
X74646Y522802
X72721Y523702
X76846Y520252
X79856Y522811
X81735Y524185
X84246Y534002
X87561Y522400
X85131Y520117
X76868Y496354
X74246Y486502
X74246Y484002
X74246Y480102
X64246Y480102
X44246Y480102
X34246Y480102
X31446Y487502
X28946Y487502
X26446Y487502
X23946Y487502
X21446Y487502
X18946Y487502
X16446Y487502
X16046Y499752
X16046Y502252
X16046Y504752
X16046Y507252
X16046Y509752
X16046Y512252
X16046Y514752
X16071Y525702
X16071Y528202
X16071Y530702
X24246Y534002
X24246Y480102
X74246Y534002
T02
X80796Y511452
X85846Y514502
X85846Y507552
X90446Y511152
X94746Y507102
X90496Y503802
X95546Y514802
X100096Y510902
X90496Y520052
X66846Y492902
X61546Y496502
T03
X21346Y496130
X21346Y518374
T04
X30008Y515126
X30008Y499378
T05
X19246Y477252
X29246Y477252
X39246Y477252
X49246Y477252
X59246Y477252
X69246Y477252
X79246Y477252
X89246Y477252
X99246Y477252
X109246Y477252
X109246Y537352
X99246Y537352
X89246Y537352
X79246Y537352
X69246Y537352
X59246Y537352
X49246Y537352
X39246Y537352
X29246Y537352
X19246Y537352
M30
