G75*
%MOIN*%
%OFA0B0*%
%FSLAX25Y25*%
%IPPOS*%
%LPD*%
%AMOC8*
5,1,8,0,0,1.08239X$1,22.5*
%
%ADD10C,0.06000*%
%ADD11C,0.02375*%
%ADD12C,0.01587*%
%ADD13C,0.01981*%
%ADD14C,0.01000*%
D10*
X0019246Y0023933D03*
X0029246Y0023933D03*
X0039246Y0023933D03*
X0049246Y0023933D03*
X0059246Y0023933D03*
X0069246Y0023933D03*
X0079246Y0023933D03*
X0089246Y0023933D03*
X0099246Y0023933D03*
X0109246Y0023933D03*
X0109246Y0084033D03*
X0099246Y0084033D03*
X0089246Y0084033D03*
X0079246Y0084033D03*
X0069246Y0084033D03*
X0059246Y0084033D03*
X0049246Y0084033D03*
X0039246Y0084033D03*
X0029246Y0084033D03*
X0019246Y0084033D03*
D11*
X0021346Y0065055D03*
X0021346Y0042811D03*
D12*
X0016046Y0046433D03*
X0016046Y0048933D03*
X0016046Y0051433D03*
X0016046Y0053933D03*
X0016046Y0056433D03*
X0016046Y0058933D03*
X0016046Y0061433D03*
X0026896Y0061033D03*
X0033346Y0063033D03*
X0037846Y0063983D03*
X0037846Y0061483D03*
X0037846Y0066383D03*
X0047046Y0066683D03*
X0047046Y0064333D03*
X0049846Y0064383D03*
X0052396Y0064333D03*
X0052346Y0066683D03*
X0049846Y0066683D03*
X0056096Y0064433D03*
X0058596Y0065283D03*
X0056096Y0071533D03*
X0054246Y0075683D03*
X0054246Y0078183D03*
X0054246Y0080683D03*
X0044246Y0080683D03*
X0037696Y0073983D03*
X0035196Y0073983D03*
X0032696Y0073983D03*
X0024246Y0080683D03*
X0016071Y0077383D03*
X0016071Y0074883D03*
X0016071Y0072383D03*
X0028196Y0056489D03*
X0028196Y0053933D03*
X0033296Y0045183D03*
X0036546Y0041783D03*
X0041346Y0041783D03*
X0045268Y0041857D03*
X0047546Y0040583D03*
X0056718Y0038212D03*
X0053246Y0031733D03*
X0054246Y0026783D03*
X0044246Y0026783D03*
X0034246Y0026783D03*
X0024246Y0026783D03*
X0023946Y0034183D03*
X0026446Y0034183D03*
X0028946Y0034183D03*
X0031446Y0034183D03*
X0021446Y0034183D03*
X0018946Y0034183D03*
X0016446Y0034183D03*
X0053846Y0050715D03*
X0056130Y0050721D03*
X0067164Y0055805D03*
X0065573Y0057506D03*
X0062371Y0057558D03*
X0068621Y0059283D03*
X0071821Y0063233D03*
X0076846Y0066933D03*
X0074646Y0069483D03*
X0072721Y0070383D03*
X0075246Y0073183D03*
X0074196Y0076833D03*
X0074246Y0080683D03*
X0084246Y0080683D03*
X0094246Y0080683D03*
X0101346Y0075683D03*
X0104246Y0080683D03*
X0116846Y0081683D03*
X0121746Y0081683D03*
X0126746Y0081683D03*
X0131746Y0081683D03*
X0136846Y0081683D03*
X0136846Y0086683D03*
X0131846Y0086683D03*
X0126846Y0086683D03*
X0121846Y0086683D03*
X0116846Y0086683D03*
X0116846Y0076683D03*
X0121846Y0076683D03*
X0126846Y0076683D03*
X0131846Y0076683D03*
X0136846Y0076683D03*
X0126846Y0071683D03*
X0107296Y0063611D03*
X0105861Y0065733D03*
X0099296Y0063883D03*
X0100997Y0062232D03*
X0102574Y0060656D03*
X0104125Y0059155D03*
X0105346Y0057433D03*
X0103546Y0055733D03*
X0101770Y0054057D03*
X0109096Y0057683D03*
X0110646Y0054533D03*
X0121846Y0051683D03*
X0126846Y0051683D03*
X0131846Y0051383D03*
X0136846Y0051383D03*
X0136846Y0056383D03*
X0124871Y0057683D03*
X0126846Y0046683D03*
X0131846Y0046383D03*
X0136846Y0046383D03*
X0136846Y0041383D03*
X0131846Y0041383D03*
X0126846Y0041683D03*
X0121846Y0041683D03*
X0116846Y0041683D03*
X0116846Y0046683D03*
X0121846Y0046683D03*
X0107296Y0046333D03*
X0090382Y0043144D03*
X0085746Y0038183D03*
X0082546Y0036033D03*
X0074246Y0033183D03*
X0074246Y0030683D03*
X0074246Y0026783D03*
X0084246Y0026783D03*
X0094246Y0026783D03*
X0094246Y0030683D03*
X0104246Y0030683D03*
X0104246Y0026933D03*
X0116846Y0021383D03*
X0121846Y0021383D03*
X0126846Y0021383D03*
X0131846Y0021383D03*
X0136846Y0021383D03*
X0136846Y0026383D03*
X0131846Y0026383D03*
X0126846Y0026683D03*
X0126846Y0031683D03*
X0131846Y0031383D03*
X0136846Y0031383D03*
X0136846Y0036383D03*
X0131846Y0036383D03*
X0126846Y0036683D03*
X0121846Y0036683D03*
X0116846Y0036683D03*
X0104246Y0034433D03*
X0076868Y0043036D03*
X0083146Y0050683D03*
X0079143Y0054679D03*
X0076446Y0057283D03*
X0085131Y0066798D03*
X0087561Y0069082D03*
X0090542Y0072137D03*
X0095496Y0067683D03*
X0097446Y0065783D03*
X0081735Y0070866D03*
X0079856Y0069492D03*
X0067146Y0075183D03*
X0064246Y0080683D03*
X0047146Y0070783D03*
X0047046Y0061833D03*
X0064246Y0026783D03*
D13*
X0066846Y0039583D03*
X0061546Y0043183D03*
X0085846Y0054233D03*
X0090446Y0057833D03*
X0085846Y0061183D03*
X0080796Y0058133D03*
X0090496Y0050483D03*
X0094746Y0053783D03*
X0100096Y0057583D03*
X0095546Y0061483D03*
X0090496Y0066733D03*
D14*
X0015246Y0032846D02*
X0015246Y0020383D01*
X0017364Y0020383D01*
X0016981Y0020542D01*
X0015855Y0021667D01*
X0015246Y0023137D01*
X0015246Y0024729D01*
X0015855Y0026199D01*
X0016981Y0027324D01*
X0018451Y0027933D01*
X0020042Y0027933D01*
X0021512Y0027324D01*
X0022453Y0026384D01*
X0022453Y0027526D01*
X0023503Y0028577D01*
X0024989Y0028577D01*
X0026040Y0027526D01*
X0026040Y0026384D01*
X0026981Y0027324D01*
X0028451Y0027933D01*
X0030042Y0027933D01*
X0031512Y0027324D01*
X0032453Y0026384D01*
X0032453Y0027526D01*
X0033503Y0028577D01*
X0034989Y0028577D01*
X0036040Y0027526D01*
X0036040Y0026384D01*
X0036981Y0027324D01*
X0038451Y0027933D01*
X0040042Y0027933D01*
X0041512Y0027324D01*
X0042453Y0026384D01*
X0042453Y0027526D01*
X0043503Y0028577D01*
X0044989Y0028577D01*
X0046040Y0027526D01*
X0046040Y0026384D01*
X0046981Y0027324D01*
X0048451Y0027933D01*
X0050042Y0027933D01*
X0051512Y0027324D01*
X0052453Y0026384D01*
X0052453Y0027526D01*
X0053503Y0028577D01*
X0054989Y0028577D01*
X0056040Y0027526D01*
X0056040Y0026384D01*
X0056981Y0027324D01*
X0058346Y0027890D01*
X0058346Y0038733D01*
X0039496Y0057583D01*
X0039496Y0060596D01*
X0038589Y0059689D01*
X0037103Y0059689D01*
X0036053Y0060740D01*
X0036053Y0062226D01*
X0036560Y0062733D01*
X0036053Y0063240D01*
X0036053Y0064726D01*
X0036510Y0065183D01*
X0036053Y0065640D01*
X0036053Y0067126D01*
X0037103Y0068177D01*
X0038589Y0068177D01*
X0039496Y0067270D01*
X0039496Y0083533D01*
X0038746Y0083533D01*
X0034770Y0083533D01*
X0034857Y0082979D01*
X0035076Y0082306D01*
X0035398Y0081675D01*
X0035814Y0081102D01*
X0036315Y0080601D01*
X0036888Y0080184D01*
X0037519Y0079863D01*
X0038193Y0079644D01*
X0038746Y0079556D01*
X0038746Y0083533D01*
X0038746Y0084533D01*
X0034770Y0084533D01*
X0034857Y0085087D01*
X0035076Y0085760D01*
X0035398Y0086392D01*
X0035814Y0086965D01*
X0036315Y0087465D01*
X0036477Y0087583D01*
X0031128Y0087583D01*
X0031512Y0087424D01*
X0032637Y0086299D01*
X0033246Y0084829D01*
X0033246Y0083237D01*
X0032637Y0081767D01*
X0031512Y0080642D01*
X0030042Y0080033D01*
X0028451Y0080033D01*
X0026981Y0080642D01*
X0025855Y0081767D01*
X0025246Y0083237D01*
X0025246Y0084829D01*
X0025855Y0086299D01*
X0026981Y0087424D01*
X0027364Y0087583D01*
X0021128Y0087583D01*
X0021512Y0087424D01*
X0022637Y0086299D01*
X0023246Y0084829D01*
X0023246Y0083237D01*
X0022637Y0081767D01*
X0021512Y0080642D01*
X0020042Y0080033D01*
X0018451Y0080033D01*
X0016981Y0080642D01*
X0015855Y0081767D01*
X0015246Y0083237D01*
X0015246Y0084829D01*
X0015855Y0086299D01*
X0016981Y0087424D01*
X0017364Y0087583D01*
X0015246Y0087583D01*
X0015246Y0079095D01*
X0015328Y0079177D01*
X0016814Y0079177D01*
X0017865Y0078126D01*
X0017865Y0076640D01*
X0017358Y0076133D01*
X0017865Y0075626D01*
X0017865Y0074140D01*
X0017358Y0073633D01*
X0017865Y0073126D01*
X0017865Y0071640D01*
X0016814Y0070589D01*
X0015328Y0070589D01*
X0015246Y0070671D01*
X0015246Y0063170D01*
X0015303Y0063227D01*
X0016789Y0063227D01*
X0017840Y0062176D01*
X0017840Y0060690D01*
X0017333Y0060183D01*
X0017840Y0059676D01*
X0017840Y0058190D01*
X0017333Y0057683D01*
X0017840Y0057176D01*
X0017840Y0055690D01*
X0017333Y0055183D01*
X0017840Y0054676D01*
X0017840Y0053190D01*
X0017333Y0052683D01*
X0017840Y0052176D01*
X0017840Y0050690D01*
X0017333Y0050183D01*
X0017840Y0049676D01*
X0017840Y0048190D01*
X0017333Y0047683D01*
X0017840Y0047176D01*
X0017840Y0045690D01*
X0016789Y0044639D01*
X0015303Y0044639D01*
X0015246Y0044696D01*
X0015246Y0035520D01*
X0015703Y0035977D01*
X0017189Y0035977D01*
X0017696Y0035470D01*
X0018203Y0035977D01*
X0019689Y0035977D01*
X0020196Y0035470D01*
X0020703Y0035977D01*
X0022189Y0035977D01*
X0022696Y0035470D01*
X0023203Y0035977D01*
X0024689Y0035977D01*
X0025196Y0035470D01*
X0025703Y0035977D01*
X0027189Y0035977D01*
X0027696Y0035470D01*
X0028203Y0035977D01*
X0029689Y0035977D01*
X0030196Y0035470D01*
X0030703Y0035977D01*
X0032189Y0035977D01*
X0033240Y0034926D01*
X0033240Y0033440D01*
X0032189Y0032389D01*
X0030703Y0032389D01*
X0030196Y0032896D01*
X0029689Y0032389D01*
X0028203Y0032389D01*
X0027696Y0032896D01*
X0027189Y0032389D01*
X0025703Y0032389D01*
X0025196Y0032896D01*
X0024689Y0032389D01*
X0023203Y0032389D01*
X0022696Y0032896D01*
X0022189Y0032389D01*
X0020703Y0032389D01*
X0020196Y0032896D01*
X0019689Y0032389D01*
X0018203Y0032389D01*
X0017696Y0032896D01*
X0017189Y0032389D01*
X0015703Y0032389D01*
X0015246Y0032846D01*
X0015246Y0032158D02*
X0051453Y0032158D01*
X0051453Y0032476D02*
X0051453Y0030990D01*
X0052503Y0029939D01*
X0053989Y0029939D01*
X0055040Y0030990D01*
X0055040Y0032476D01*
X0053989Y0033527D01*
X0052503Y0033527D01*
X0051453Y0032476D01*
X0052133Y0033156D02*
X0032956Y0033156D01*
X0033240Y0034155D02*
X0058346Y0034155D01*
X0058346Y0035153D02*
X0033013Y0035153D01*
X0035803Y0039989D02*
X0037289Y0039989D01*
X0038340Y0041040D01*
X0038340Y0042526D01*
X0037289Y0043577D01*
X0035803Y0043577D01*
X0034753Y0042526D01*
X0034753Y0041040D01*
X0035803Y0039989D01*
X0035647Y0040146D02*
X0015246Y0040146D01*
X0015246Y0041144D02*
X0019920Y0041144D01*
X0020440Y0040624D02*
X0019159Y0041905D01*
X0019159Y0043717D01*
X0020440Y0044998D01*
X0022252Y0044998D01*
X0023534Y0043717D01*
X0023534Y0041905D01*
X0022252Y0040624D01*
X0020440Y0040624D01*
X0019159Y0042143D02*
X0015246Y0042143D01*
X0015246Y0043141D02*
X0019159Y0043141D01*
X0019582Y0044140D02*
X0015246Y0044140D01*
X0017288Y0045138D02*
X0027702Y0045138D01*
X0027525Y0045565D02*
X0027525Y0046553D01*
X0027903Y0047465D01*
X0028602Y0048164D01*
X0029514Y0048542D01*
X0030502Y0048542D01*
X0031414Y0048164D01*
X0032113Y0047465D01*
X0032385Y0046808D01*
X0032553Y0046977D01*
X0034039Y0046977D01*
X0035090Y0045926D01*
X0035090Y0044440D01*
X0034039Y0043389D01*
X0032553Y0043389D01*
X0031701Y0044242D01*
X0031414Y0043954D01*
X0030502Y0043576D01*
X0029514Y0043576D01*
X0028602Y0043954D01*
X0027903Y0044653D01*
X0027525Y0045565D01*
X0027525Y0046137D02*
X0017840Y0046137D01*
X0017840Y0047135D02*
X0027766Y0047135D01*
X0028572Y0048134D02*
X0017784Y0048134D01*
X0017840Y0049132D02*
X0047947Y0049132D01*
X0048946Y0048134D02*
X0031444Y0048134D01*
X0032249Y0047135D02*
X0049944Y0047135D01*
X0050943Y0046137D02*
X0034879Y0046137D01*
X0035090Y0045138D02*
X0051941Y0045138D01*
X0052940Y0044140D02*
X0034790Y0044140D01*
X0035368Y0043141D02*
X0023534Y0043141D01*
X0023111Y0044140D02*
X0028416Y0044140D01*
X0031600Y0044140D02*
X0031803Y0044140D01*
X0034753Y0042143D02*
X0023534Y0042143D01*
X0022773Y0041144D02*
X0034753Y0041144D01*
X0037446Y0040146D02*
X0044442Y0040146D01*
X0044525Y0040063D02*
X0045753Y0040063D01*
X0045753Y0039840D01*
X0046803Y0038789D01*
X0048289Y0038789D01*
X0049340Y0039840D01*
X0049340Y0041326D01*
X0048289Y0042377D01*
X0047062Y0042377D01*
X0047062Y0042600D01*
X0046011Y0043650D01*
X0044525Y0043650D01*
X0043474Y0042600D01*
X0043474Y0041114D01*
X0044525Y0040063D01*
X0043474Y0041144D02*
X0038340Y0041144D01*
X0038340Y0042143D02*
X0043474Y0042143D01*
X0044016Y0043141D02*
X0037725Y0043141D01*
X0046520Y0043141D02*
X0053938Y0043141D01*
X0054937Y0042143D02*
X0048523Y0042143D01*
X0049340Y0041144D02*
X0055935Y0041144D01*
X0056934Y0040146D02*
X0049340Y0040146D01*
X0048647Y0039147D02*
X0057932Y0039147D01*
X0058346Y0038149D02*
X0015246Y0038149D01*
X0015246Y0039147D02*
X0046445Y0039147D01*
X0054360Y0033156D02*
X0058346Y0033156D01*
X0058346Y0032158D02*
X0055040Y0032158D01*
X0055040Y0031159D02*
X0058346Y0031159D01*
X0058346Y0030161D02*
X0054211Y0030161D01*
X0052282Y0030161D02*
X0015246Y0030161D01*
X0015246Y0031159D02*
X0051453Y0031159D01*
X0053090Y0028164D02*
X0045402Y0028164D01*
X0046040Y0027165D02*
X0046822Y0027165D01*
X0043090Y0028164D02*
X0035402Y0028164D01*
X0036040Y0027165D02*
X0036822Y0027165D01*
X0033090Y0028164D02*
X0025402Y0028164D01*
X0026040Y0027165D02*
X0026822Y0027165D01*
X0023090Y0028164D02*
X0015246Y0028164D01*
X0015246Y0029162D02*
X0058346Y0029162D01*
X0058346Y0028164D02*
X0055402Y0028164D01*
X0056040Y0027165D02*
X0056822Y0027165D01*
X0052453Y0027165D02*
X0051671Y0027165D01*
X0042453Y0027165D02*
X0041671Y0027165D01*
X0032453Y0027165D02*
X0031671Y0027165D01*
X0022453Y0027165D02*
X0021671Y0027165D01*
X0016822Y0027165D02*
X0015246Y0027165D01*
X0015246Y0026167D02*
X0015842Y0026167D01*
X0015428Y0025168D02*
X0015246Y0025168D01*
X0015246Y0024170D02*
X0015246Y0024170D01*
X0015246Y0023171D02*
X0015246Y0023171D01*
X0015246Y0022173D02*
X0015646Y0022173D01*
X0015246Y0021174D02*
X0016349Y0021174D01*
X0015246Y0036152D02*
X0058346Y0036152D01*
X0058346Y0037150D02*
X0015246Y0037150D01*
X0017385Y0050131D02*
X0046949Y0050131D01*
X0045950Y0051129D02*
X0017840Y0051129D01*
X0017840Y0052128D02*
X0044952Y0052128D01*
X0043953Y0053127D02*
X0029927Y0053127D01*
X0029990Y0053190D02*
X0029990Y0054676D01*
X0029455Y0055211D01*
X0029990Y0055746D01*
X0029990Y0057232D01*
X0028939Y0058283D01*
X0027453Y0058283D01*
X0026403Y0057232D01*
X0026403Y0055746D01*
X0026938Y0055211D01*
X0026403Y0054676D01*
X0026403Y0053190D01*
X0027453Y0052139D01*
X0028939Y0052139D01*
X0029990Y0053190D01*
X0029990Y0054125D02*
X0042955Y0054125D01*
X0041956Y0055124D02*
X0029543Y0055124D01*
X0029990Y0056122D02*
X0040957Y0056122D01*
X0039959Y0057121D02*
X0029990Y0057121D01*
X0029103Y0058119D02*
X0039496Y0058119D01*
X0039496Y0059118D02*
X0017840Y0059118D01*
X0017769Y0058119D02*
X0027289Y0058119D01*
X0027639Y0059239D02*
X0026153Y0059239D01*
X0025103Y0060290D01*
X0025103Y0061776D01*
X0026153Y0062827D01*
X0027639Y0062827D01*
X0027713Y0062754D01*
X0027903Y0063213D01*
X0028602Y0063912D01*
X0029514Y0064290D01*
X0030502Y0064290D01*
X0031414Y0063912D01*
X0031553Y0063773D01*
X0031553Y0063776D01*
X0032603Y0064827D01*
X0034089Y0064827D01*
X0035140Y0063776D01*
X0035140Y0062290D01*
X0034089Y0061239D01*
X0032603Y0061239D01*
X0032491Y0061352D01*
X0032491Y0061313D01*
X0032113Y0060401D01*
X0031414Y0059702D01*
X0030502Y0059324D01*
X0029514Y0059324D01*
X0028602Y0059702D01*
X0028352Y0059952D01*
X0027639Y0059239D01*
X0026403Y0057121D02*
X0017840Y0057121D01*
X0017840Y0056122D02*
X0026403Y0056122D01*
X0026850Y0055124D02*
X0017393Y0055124D01*
X0017840Y0054125D02*
X0026403Y0054125D01*
X0026466Y0053127D02*
X0017777Y0053127D01*
X0017400Y0060116D02*
X0025277Y0060116D01*
X0025103Y0061115D02*
X0017840Y0061115D01*
X0017840Y0062113D02*
X0025440Y0062113D01*
X0027861Y0063112D02*
X0022496Y0063112D01*
X0022252Y0062868D02*
X0023534Y0064149D01*
X0023534Y0065961D01*
X0022252Y0067243D01*
X0020440Y0067243D01*
X0019159Y0065961D01*
X0019159Y0064149D01*
X0020440Y0062868D01*
X0022252Y0062868D01*
X0023495Y0064110D02*
X0029080Y0064110D01*
X0030935Y0064110D02*
X0031887Y0064110D01*
X0034806Y0064110D02*
X0036053Y0064110D01*
X0036181Y0063112D02*
X0035140Y0063112D01*
X0034963Y0062113D02*
X0036053Y0062113D01*
X0036053Y0061115D02*
X0032408Y0061115D01*
X0031828Y0060116D02*
X0036677Y0060116D01*
X0039016Y0060116D02*
X0039496Y0060116D01*
X0044046Y0060116D02*
X0046227Y0060116D01*
X0046303Y0060039D02*
X0047789Y0060039D01*
X0048840Y0061090D01*
X0048840Y0062576D01*
X0048333Y0063083D01*
X0048471Y0063221D01*
X0049103Y0062589D01*
X0050589Y0062589D01*
X0051096Y0063096D01*
X0051653Y0062539D01*
X0053139Y0062539D01*
X0054190Y0063590D01*
X0054190Y0065076D01*
X0053733Y0065533D01*
X0054140Y0065940D01*
X0054140Y0067426D01*
X0053089Y0068477D01*
X0051603Y0068477D01*
X0051096Y0067970D01*
X0050589Y0068477D01*
X0049103Y0068477D01*
X0048446Y0067820D01*
X0047789Y0068477D01*
X0046303Y0068477D01*
X0045253Y0067426D01*
X0045253Y0065940D01*
X0045685Y0065508D01*
X0045253Y0065076D01*
X0045253Y0063590D01*
X0045760Y0063083D01*
X0045253Y0062576D01*
X0045253Y0061090D01*
X0046303Y0060039D01*
X0045253Y0061115D02*
X0044046Y0061115D01*
X0044046Y0062113D02*
X0045253Y0062113D01*
X0045731Y0063112D02*
X0044046Y0063112D01*
X0044046Y0064110D02*
X0045253Y0064110D01*
X0045285Y0065109D02*
X0044046Y0065109D01*
X0044046Y0066107D02*
X0045253Y0066107D01*
X0045253Y0067106D02*
X0044046Y0067106D01*
X0044046Y0068104D02*
X0045931Y0068104D01*
X0048162Y0068104D02*
X0048731Y0068104D01*
X0050962Y0068104D02*
X0051231Y0068104D01*
X0053462Y0068104D02*
X0073489Y0068104D01*
X0073903Y0067689D02*
X0075066Y0067689D01*
X0075053Y0067676D01*
X0075053Y0066190D01*
X0076103Y0065139D01*
X0077589Y0065139D01*
X0078640Y0066190D01*
X0078640Y0067676D01*
X0077589Y0068727D01*
X0076427Y0068727D01*
X0076440Y0068740D01*
X0076440Y0070226D01*
X0075389Y0071277D01*
X0074364Y0071277D01*
X0073464Y0072177D01*
X0071978Y0072177D01*
X0070928Y0071126D01*
X0070928Y0069640D01*
X0071978Y0068589D01*
X0073003Y0068589D01*
X0073903Y0067689D01*
X0075053Y0067106D02*
X0054140Y0067106D01*
X0054140Y0066107D02*
X0055234Y0066107D01*
X0055353Y0066227D02*
X0054303Y0065176D01*
X0054303Y0063690D01*
X0055353Y0062639D01*
X0056839Y0062639D01*
X0057771Y0063571D01*
X0057853Y0063489D01*
X0059339Y0063489D01*
X0060390Y0064540D01*
X0060390Y0066026D01*
X0059339Y0067077D01*
X0057853Y0067077D01*
X0056921Y0066145D01*
X0056839Y0066227D01*
X0055353Y0066227D01*
X0054303Y0065109D02*
X0054158Y0065109D01*
X0054190Y0064110D02*
X0054303Y0064110D01*
X0054881Y0063112D02*
X0053712Y0063112D01*
X0057312Y0063112D02*
X0070028Y0063112D01*
X0070028Y0062490D02*
X0071078Y0061439D01*
X0072564Y0061439D01*
X0073615Y0062490D01*
X0073615Y0063976D01*
X0072564Y0065027D01*
X0071078Y0065027D01*
X0070028Y0063976D01*
X0070028Y0062490D01*
X0070405Y0062113D02*
X0048840Y0062113D01*
X0048840Y0061115D02*
X0083856Y0061115D01*
X0083856Y0060359D02*
X0085022Y0059193D01*
X0086671Y0059193D01*
X0087837Y0060359D01*
X0087837Y0062008D01*
X0086671Y0063174D01*
X0085022Y0063174D01*
X0083856Y0062008D01*
X0083856Y0060359D01*
X0084098Y0060116D02*
X0081628Y0060116D01*
X0081621Y0060124D02*
X0079972Y0060124D01*
X0078806Y0058958D01*
X0078806Y0057309D01*
X0079642Y0056473D01*
X0078400Y0056473D01*
X0077349Y0055422D01*
X0077349Y0053936D01*
X0078400Y0052885D01*
X0079886Y0052885D01*
X0080936Y0053936D01*
X0080936Y0055422D01*
X0080216Y0056143D01*
X0081621Y0056143D01*
X0082787Y0057309D01*
X0082787Y0058958D01*
X0081621Y0060124D01*
X0082627Y0059118D02*
X0088916Y0059118D01*
X0088456Y0058658D02*
X0088456Y0057009D01*
X0089622Y0055843D01*
X0091271Y0055843D01*
X0092437Y0057009D01*
X0092437Y0058658D01*
X0091271Y0059824D01*
X0089622Y0059824D01*
X0088456Y0058658D01*
X0088456Y0058119D02*
X0082787Y0058119D01*
X0082599Y0057121D02*
X0088456Y0057121D01*
X0089342Y0056122D02*
X0086773Y0056122D01*
X0086671Y0056224D02*
X0085022Y0056224D01*
X0083856Y0055058D01*
X0083856Y0053409D01*
X0085022Y0052243D01*
X0086671Y0052243D01*
X0087837Y0053409D01*
X0087837Y0055058D01*
X0086671Y0056224D01*
X0087771Y0055124D02*
X0093272Y0055124D01*
X0092756Y0054608D02*
X0092756Y0052959D01*
X0093922Y0051793D01*
X0095571Y0051793D01*
X0096737Y0052959D01*
X0096737Y0054608D01*
X0095571Y0055774D01*
X0093922Y0055774D01*
X0092756Y0054608D01*
X0092756Y0054125D02*
X0087837Y0054125D01*
X0087555Y0053127D02*
X0092756Y0053127D01*
X0093586Y0052128D02*
X0091667Y0052128D01*
X0091321Y0052474D02*
X0089672Y0052474D01*
X0088506Y0051308D01*
X0088506Y0049659D01*
X0089672Y0048493D01*
X0091321Y0048493D01*
X0092487Y0049659D01*
X0092487Y0051308D01*
X0091321Y0052474D01*
X0089326Y0052128D02*
X0084238Y0052128D01*
X0083889Y0052477D02*
X0082403Y0052477D01*
X0081353Y0051426D01*
X0081353Y0049940D01*
X0082403Y0048889D01*
X0083889Y0048889D01*
X0084940Y0049940D01*
X0084940Y0051426D01*
X0083889Y0052477D01*
X0084138Y0053127D02*
X0080127Y0053127D01*
X0078159Y0053127D02*
X0049853Y0053127D01*
X0050852Y0052128D02*
X0052723Y0052128D01*
X0053103Y0052508D02*
X0052053Y0051458D01*
X0052053Y0050927D01*
X0044046Y0058933D01*
X0044046Y0078889D01*
X0044989Y0078889D01*
X0046040Y0079940D01*
X0046040Y0080875D01*
X0046315Y0080601D01*
X0046888Y0080184D01*
X0047519Y0079863D01*
X0048193Y0079644D01*
X0048746Y0079556D01*
X0048746Y0083533D01*
X0044770Y0083533D01*
X0044857Y0082979D01*
X0045036Y0082431D01*
X0044989Y0082477D01*
X0044046Y0082477D01*
X0044046Y0087583D01*
X0046477Y0087583D01*
X0046315Y0087465D01*
X0045814Y0086965D01*
X0045398Y0086392D01*
X0045076Y0085760D01*
X0044857Y0085087D01*
X0044770Y0084533D01*
X0048746Y0084533D01*
X0048746Y0083533D01*
X0049746Y0083533D01*
X0049746Y0079556D01*
X0050300Y0079644D01*
X0050974Y0079863D01*
X0051605Y0080184D01*
X0052178Y0080601D01*
X0052453Y0080875D01*
X0052453Y0079940D01*
X0052960Y0079433D01*
X0052453Y0078926D01*
X0052453Y0077440D01*
X0052960Y0076933D01*
X0052453Y0076426D01*
X0052453Y0074940D01*
X0053503Y0073889D01*
X0054989Y0073889D01*
X0056040Y0074940D01*
X0056040Y0076426D01*
X0055533Y0076933D01*
X0056040Y0077440D01*
X0056040Y0078926D01*
X0055533Y0079433D01*
X0056040Y0079940D01*
X0056040Y0081426D01*
X0054989Y0082477D01*
X0053503Y0082477D01*
X0053457Y0082431D01*
X0053636Y0082979D01*
X0053723Y0083533D01*
X0049747Y0083533D01*
X0049747Y0084533D01*
X0053723Y0084533D01*
X0053636Y0085087D01*
X0053417Y0085760D01*
X0053095Y0086392D01*
X0052679Y0086965D01*
X0052178Y0087465D01*
X0052016Y0087583D01*
X0057364Y0087583D01*
X0056981Y0087424D01*
X0055855Y0086299D01*
X0055246Y0084829D01*
X0055246Y0083237D01*
X0055855Y0081767D01*
X0056981Y0080642D01*
X0058451Y0080033D01*
X0060042Y0080033D01*
X0061512Y0080642D01*
X0062637Y0081767D01*
X0063246Y0083237D01*
X0063246Y0084829D01*
X0062637Y0086299D01*
X0061512Y0087424D01*
X0061128Y0087583D01*
X0067364Y0087583D01*
X0066981Y0087424D01*
X0065855Y0086299D01*
X0065246Y0084829D01*
X0065246Y0083237D01*
X0065855Y0081767D01*
X0066981Y0080642D01*
X0068451Y0080033D01*
X0070042Y0080033D01*
X0071512Y0080642D01*
X0072637Y0081767D01*
X0073246Y0083237D01*
X0073246Y0084829D01*
X0072637Y0086299D01*
X0071512Y0087424D01*
X0071128Y0087583D01*
X0077364Y0087583D01*
X0076981Y0087424D01*
X0075855Y0086299D01*
X0075246Y0084829D01*
X0075246Y0083237D01*
X0075855Y0081767D01*
X0076981Y0080642D01*
X0078451Y0080033D01*
X0080042Y0080033D01*
X0081512Y0080642D01*
X0082637Y0081767D01*
X0083246Y0083237D01*
X0083246Y0084829D01*
X0082637Y0086299D01*
X0081512Y0087424D01*
X0081128Y0087583D01*
X0087364Y0087583D01*
X0086981Y0087424D01*
X0085855Y0086299D01*
X0085246Y0084829D01*
X0085246Y0083237D01*
X0085855Y0081767D01*
X0086981Y0080642D01*
X0088451Y0080033D01*
X0090042Y0080033D01*
X0091512Y0080642D01*
X0092637Y0081767D01*
X0093246Y0083237D01*
X0093246Y0084829D01*
X0092637Y0086299D01*
X0091512Y0087424D01*
X0091128Y0087583D01*
X0097364Y0087583D01*
X0096981Y0087424D01*
X0095855Y0086299D01*
X0095246Y0084829D01*
X0095246Y0083237D01*
X0095855Y0081767D01*
X0096981Y0080642D01*
X0098451Y0080033D01*
X0100042Y0080033D01*
X0101512Y0080642D01*
X0102637Y0081767D01*
X0103246Y0083237D01*
X0103246Y0084829D01*
X0102637Y0086299D01*
X0101512Y0087424D01*
X0101128Y0087583D01*
X0107364Y0087583D01*
X0106981Y0087424D01*
X0105855Y0086299D01*
X0105246Y0084829D01*
X0105246Y0083237D01*
X0105855Y0081767D01*
X0106981Y0080642D01*
X0108451Y0080033D01*
X0110042Y0080033D01*
X0110696Y0080304D01*
X0110696Y0058620D01*
X0109839Y0059477D01*
X0108353Y0059477D01*
X0107303Y0058426D01*
X0107303Y0056940D01*
X0108353Y0055889D01*
X0109466Y0055889D01*
X0108853Y0055276D01*
X0108853Y0053790D01*
X0109903Y0052739D01*
X0110696Y0052739D01*
X0110696Y0027662D01*
X0110042Y0027933D01*
X0108451Y0027933D01*
X0106981Y0027324D01*
X0106040Y0026384D01*
X0106040Y0027676D01*
X0104989Y0028727D01*
X0103503Y0028727D01*
X0102453Y0027676D01*
X0102453Y0026384D01*
X0101512Y0027324D01*
X0100042Y0027933D01*
X0098451Y0027933D01*
X0096981Y0027324D01*
X0096040Y0026384D01*
X0096040Y0027526D01*
X0094989Y0028577D01*
X0093503Y0028577D01*
X0092453Y0027526D01*
X0092453Y0026384D01*
X0091512Y0027324D01*
X0090042Y0027933D01*
X0088451Y0027933D01*
X0086981Y0027324D01*
X0086040Y0026384D01*
X0086040Y0027526D01*
X0084989Y0028577D01*
X0083503Y0028577D01*
X0082453Y0027526D01*
X0082453Y0026384D01*
X0081512Y0027324D01*
X0080042Y0027933D01*
X0078451Y0027933D01*
X0076981Y0027324D01*
X0076040Y0026384D01*
X0076040Y0027526D01*
X0074989Y0028577D01*
X0073503Y0028577D01*
X0072453Y0027526D01*
X0072453Y0026384D01*
X0071512Y0027324D01*
X0070042Y0027933D01*
X0068451Y0027933D01*
X0066981Y0027324D01*
X0066040Y0026384D01*
X0066040Y0027526D01*
X0064989Y0028577D01*
X0063503Y0028577D01*
X0062453Y0027526D01*
X0062453Y0026384D01*
X0061746Y0027090D01*
X0061746Y0041193D01*
X0062371Y0041193D01*
X0063537Y0042359D01*
X0063537Y0044008D01*
X0062371Y0045174D01*
X0060722Y0045174D01*
X0059556Y0044008D01*
X0059556Y0043424D01*
X0054059Y0048921D01*
X0054589Y0048921D01*
X0054992Y0049323D01*
X0055387Y0048927D01*
X0056873Y0048927D01*
X0057924Y0049978D01*
X0057924Y0051464D01*
X0056873Y0052515D01*
X0055387Y0052515D01*
X0054985Y0052112D01*
X0054589Y0052508D01*
X0053103Y0052508D01*
X0054970Y0052128D02*
X0055001Y0052128D01*
X0052053Y0051129D02*
X0051850Y0051129D01*
X0054801Y0049132D02*
X0055182Y0049132D01*
X0054846Y0048134D02*
X0110696Y0048134D01*
X0110696Y0049132D02*
X0091961Y0049132D01*
X0092487Y0050131D02*
X0110696Y0050131D01*
X0110696Y0051129D02*
X0092487Y0051129D01*
X0095906Y0052128D02*
X0110696Y0052128D01*
X0109516Y0053127D02*
X0103377Y0053127D01*
X0103564Y0053314D02*
X0102513Y0052263D01*
X0101027Y0052263D01*
X0099977Y0053314D01*
X0099977Y0054800D01*
X0100769Y0055593D01*
X0099272Y0055593D01*
X0098106Y0056759D01*
X0098106Y0058408D01*
X0099272Y0059574D01*
X0100921Y0059574D01*
X0102087Y0058408D01*
X0102087Y0056810D01*
X0102803Y0057527D01*
X0103216Y0057527D01*
X0102331Y0058412D01*
X0102331Y0058862D01*
X0101831Y0058862D01*
X0100780Y0059913D01*
X0100780Y0060438D01*
X0100254Y0060438D01*
X0099204Y0061489D01*
X0099204Y0062089D01*
X0098553Y0062089D01*
X0097503Y0063140D01*
X0097503Y0064626D01*
X0098553Y0065677D01*
X0100039Y0065677D01*
X0101090Y0064626D01*
X0101090Y0064026D01*
X0101740Y0064026D01*
X0102791Y0062975D01*
X0102791Y0062450D01*
X0103316Y0062450D01*
X0104367Y0061399D01*
X0104367Y0060949D01*
X0104868Y0060949D01*
X0105918Y0059898D01*
X0105918Y0059227D01*
X0106089Y0059227D01*
X0107140Y0058176D01*
X0107140Y0056690D01*
X0106089Y0055639D01*
X0105340Y0055639D01*
X0105340Y0054990D01*
X0104289Y0053939D01*
X0103564Y0053939D01*
X0103564Y0053314D01*
X0104475Y0054125D02*
X0108853Y0054125D01*
X0108853Y0055124D02*
X0105340Y0055124D01*
X0106572Y0056122D02*
X0108121Y0056122D01*
X0107303Y0057121D02*
X0107140Y0057121D01*
X0107140Y0058119D02*
X0107303Y0058119D01*
X0107994Y0059118D02*
X0106199Y0059118D01*
X0105700Y0060116D02*
X0110696Y0060116D01*
X0110696Y0059118D02*
X0110199Y0059118D01*
X0110696Y0061115D02*
X0104367Y0061115D01*
X0103653Y0062113D02*
X0110696Y0062113D01*
X0110696Y0063112D02*
X0102655Y0063112D01*
X0101090Y0064110D02*
X0104947Y0064110D01*
X0105118Y0063939D02*
X0106604Y0063939D01*
X0107655Y0064990D01*
X0107655Y0066476D01*
X0106604Y0067527D01*
X0105118Y0067527D01*
X0104067Y0066476D01*
X0104067Y0064990D01*
X0105118Y0063939D01*
X0104067Y0065109D02*
X0100608Y0065109D01*
X0097985Y0065109D02*
X0091687Y0065109D01*
X0091321Y0064743D02*
X0092487Y0065909D01*
X0092487Y0067558D01*
X0091321Y0068724D01*
X0089672Y0068724D01*
X0089354Y0068406D01*
X0089354Y0069825D01*
X0088304Y0070875D01*
X0086818Y0070875D01*
X0085767Y0069825D01*
X0085767Y0068592D01*
X0084388Y0068592D01*
X0083338Y0067541D01*
X0083338Y0066055D01*
X0084388Y0065005D01*
X0085874Y0065005D01*
X0086925Y0066055D01*
X0086925Y0067288D01*
X0088304Y0067288D01*
X0088506Y0067490D01*
X0088506Y0065909D01*
X0089672Y0064743D01*
X0091321Y0064743D01*
X0089306Y0065109D02*
X0085978Y0065109D01*
X0084284Y0065109D02*
X0060390Y0065109D01*
X0059960Y0064110D02*
X0070162Y0064110D01*
X0073481Y0064110D02*
X0097503Y0064110D01*
X0097531Y0063112D02*
X0096733Y0063112D01*
X0096371Y0063474D02*
X0094722Y0063474D01*
X0093556Y0062308D01*
X0093556Y0060659D01*
X0094722Y0059493D01*
X0096371Y0059493D01*
X0097537Y0060659D01*
X0097537Y0062308D01*
X0096371Y0063474D01*
X0094360Y0063112D02*
X0086733Y0063112D01*
X0087731Y0062113D02*
X0093556Y0062113D01*
X0093556Y0061115D02*
X0087837Y0061115D01*
X0087595Y0060116D02*
X0094098Y0060116D01*
X0091977Y0059118D02*
X0098816Y0059118D01*
X0098106Y0058119D02*
X0092437Y0058119D01*
X0092437Y0057121D02*
X0098106Y0057121D01*
X0098742Y0056122D02*
X0091550Y0056122D01*
X0096221Y0055124D02*
X0100300Y0055124D01*
X0099977Y0054125D02*
X0096737Y0054125D01*
X0096737Y0053127D02*
X0100164Y0053127D01*
X0102087Y0057121D02*
X0102397Y0057121D01*
X0102624Y0058119D02*
X0102087Y0058119D01*
X0101575Y0059118D02*
X0101377Y0059118D01*
X0100780Y0060116D02*
X0096995Y0060116D01*
X0097537Y0061115D02*
X0099578Y0061115D01*
X0098530Y0062113D02*
X0097537Y0062113D01*
X0096239Y0065889D02*
X0094753Y0065889D01*
X0093703Y0066940D01*
X0093703Y0068426D01*
X0094753Y0069477D01*
X0096239Y0069477D01*
X0097290Y0068426D01*
X0097290Y0066940D01*
X0096239Y0065889D01*
X0096457Y0066107D02*
X0104067Y0066107D01*
X0104697Y0067106D02*
X0097290Y0067106D01*
X0097290Y0068104D02*
X0110696Y0068104D01*
X0110696Y0067106D02*
X0107025Y0067106D01*
X0107655Y0066107D02*
X0110696Y0066107D01*
X0110696Y0065109D02*
X0107655Y0065109D01*
X0106775Y0064110D02*
X0110696Y0064110D01*
X0110696Y0069103D02*
X0096614Y0069103D01*
X0094379Y0069103D02*
X0089354Y0069103D01*
X0089078Y0070101D02*
X0110696Y0070101D01*
X0110696Y0071100D02*
X0092042Y0071100D01*
X0092336Y0071394D02*
X0091285Y0070343D01*
X0089799Y0070343D01*
X0088749Y0071394D01*
X0088749Y0072880D01*
X0089799Y0073931D01*
X0091285Y0073931D01*
X0092336Y0072880D01*
X0092336Y0071394D01*
X0092336Y0072098D02*
X0110696Y0072098D01*
X0110696Y0073097D02*
X0092119Y0073097D01*
X0088965Y0073097D02*
X0077040Y0073097D01*
X0077040Y0072440D02*
X0075989Y0071389D01*
X0074503Y0071389D01*
X0073453Y0072440D01*
X0073453Y0073926D01*
X0074503Y0074977D01*
X0075989Y0074977D01*
X0077040Y0073926D01*
X0077040Y0072440D01*
X0076698Y0072098D02*
X0080431Y0072098D01*
X0079941Y0071609D02*
X0079941Y0071286D01*
X0079113Y0071286D01*
X0078062Y0070235D01*
X0078062Y0068749D01*
X0079113Y0067699D01*
X0080599Y0067699D01*
X0081650Y0068749D01*
X0081650Y0069072D01*
X0082478Y0069072D01*
X0083528Y0070123D01*
X0083528Y0071609D01*
X0082478Y0072659D01*
X0080992Y0072659D01*
X0079941Y0071609D01*
X0078926Y0071100D02*
X0075566Y0071100D01*
X0076440Y0070101D02*
X0078062Y0070101D01*
X0078062Y0069103D02*
X0076440Y0069103D01*
X0078212Y0068104D02*
X0078707Y0068104D01*
X0078640Y0067106D02*
X0083338Y0067106D01*
X0083338Y0066107D02*
X0078557Y0066107D01*
X0081004Y0068104D02*
X0083900Y0068104D01*
X0082508Y0069103D02*
X0085767Y0069103D01*
X0086044Y0070101D02*
X0083507Y0070101D01*
X0083528Y0071100D02*
X0089043Y0071100D01*
X0088749Y0072098D02*
X0083039Y0072098D01*
X0076871Y0074095D02*
X0100398Y0074095D01*
X0100603Y0073889D02*
X0102089Y0073889D01*
X0103140Y0074940D01*
X0103140Y0076426D01*
X0102089Y0077477D01*
X0100603Y0077477D01*
X0099553Y0076426D01*
X0099553Y0074940D01*
X0100603Y0073889D01*
X0099553Y0075094D02*
X0074994Y0075094D01*
X0074939Y0075039D02*
X0075990Y0076090D01*
X0075990Y0077576D01*
X0074939Y0078627D01*
X0073453Y0078627D01*
X0072403Y0077576D01*
X0072403Y0076090D01*
X0073453Y0075039D01*
X0074939Y0075039D01*
X0075990Y0076092D02*
X0099553Y0076092D01*
X0100217Y0077091D02*
X0075990Y0077091D01*
X0075477Y0078089D02*
X0110696Y0078089D01*
X0110696Y0077091D02*
X0102475Y0077091D01*
X0103503Y0078889D02*
X0104989Y0078889D01*
X0106040Y0079940D01*
X0106040Y0081426D01*
X0104989Y0082477D01*
X0103503Y0082477D01*
X0102453Y0081426D01*
X0102453Y0079940D01*
X0103503Y0078889D01*
X0103305Y0079088D02*
X0095188Y0079088D01*
X0094989Y0078889D02*
X0093503Y0078889D01*
X0092453Y0079940D01*
X0092453Y0081426D01*
X0093503Y0082477D01*
X0094989Y0082477D01*
X0096040Y0081426D01*
X0096040Y0079940D01*
X0094989Y0078889D01*
X0093305Y0079088D02*
X0085188Y0079088D01*
X0084989Y0078889D02*
X0083503Y0078889D01*
X0082453Y0079940D01*
X0082453Y0081426D01*
X0083503Y0082477D01*
X0084989Y0082477D01*
X0086040Y0081426D01*
X0086040Y0079940D01*
X0084989Y0078889D01*
X0083305Y0079088D02*
X0075188Y0079088D01*
X0074989Y0078889D02*
X0076040Y0079940D01*
X0076040Y0081426D01*
X0074989Y0082477D01*
X0073503Y0082477D01*
X0072453Y0081426D01*
X0072453Y0079940D01*
X0073503Y0078889D01*
X0074989Y0078889D01*
X0073305Y0079088D02*
X0065188Y0079088D01*
X0064989Y0078889D02*
X0063503Y0078889D01*
X0062453Y0079940D01*
X0062453Y0081426D01*
X0063503Y0082477D01*
X0064989Y0082477D01*
X0066040Y0081426D01*
X0066040Y0079940D01*
X0064989Y0078889D01*
X0063305Y0079088D02*
X0055878Y0079088D01*
X0056040Y0080086D02*
X0058322Y0080086D01*
X0060171Y0080086D02*
X0062453Y0080086D01*
X0062453Y0081085D02*
X0061955Y0081085D01*
X0062768Y0082083D02*
X0063110Y0082083D01*
X0063182Y0083082D02*
X0065311Y0083082D01*
X0065246Y0084080D02*
X0063246Y0084080D01*
X0063143Y0085079D02*
X0065350Y0085079D01*
X0065764Y0086077D02*
X0062729Y0086077D01*
X0061860Y0087076D02*
X0066632Y0087076D01*
X0071860Y0087076D02*
X0076632Y0087076D01*
X0075764Y0086077D02*
X0072729Y0086077D01*
X0073143Y0085079D02*
X0075350Y0085079D01*
X0075246Y0084080D02*
X0073246Y0084080D01*
X0073182Y0083082D02*
X0075311Y0083082D01*
X0075383Y0082083D02*
X0075724Y0082083D01*
X0076040Y0081085D02*
X0076538Y0081085D01*
X0076040Y0080086D02*
X0078322Y0080086D01*
X0080171Y0080086D02*
X0082453Y0080086D01*
X0082453Y0081085D02*
X0081955Y0081085D01*
X0082768Y0082083D02*
X0083110Y0082083D01*
X0083182Y0083082D02*
X0085311Y0083082D01*
X0085246Y0084080D02*
X0083246Y0084080D01*
X0083143Y0085079D02*
X0085350Y0085079D01*
X0085764Y0086077D02*
X0082729Y0086077D01*
X0081860Y0087076D02*
X0086632Y0087076D01*
X0091860Y0087076D02*
X0096632Y0087076D01*
X0095764Y0086077D02*
X0092729Y0086077D01*
X0093143Y0085079D02*
X0095350Y0085079D01*
X0095246Y0084080D02*
X0093246Y0084080D01*
X0093182Y0083082D02*
X0095311Y0083082D01*
X0095383Y0082083D02*
X0095724Y0082083D01*
X0096040Y0081085D02*
X0096538Y0081085D01*
X0096040Y0080086D02*
X0098322Y0080086D01*
X0100171Y0080086D02*
X0102453Y0080086D01*
X0102453Y0081085D02*
X0101955Y0081085D01*
X0102768Y0082083D02*
X0103110Y0082083D01*
X0103182Y0083082D02*
X0105311Y0083082D01*
X0105246Y0084080D02*
X0103246Y0084080D01*
X0103143Y0085079D02*
X0105350Y0085079D01*
X0105764Y0086077D02*
X0102729Y0086077D01*
X0101860Y0087076D02*
X0106632Y0087076D01*
X0105724Y0082083D02*
X0105383Y0082083D01*
X0106040Y0081085D02*
X0106538Y0081085D01*
X0106040Y0080086D02*
X0108322Y0080086D01*
X0110171Y0080086D02*
X0110696Y0080086D01*
X0110696Y0079088D02*
X0105188Y0079088D01*
X0103140Y0076092D02*
X0110696Y0076092D01*
X0110696Y0075094D02*
X0103140Y0075094D01*
X0102295Y0074095D02*
X0110696Y0074095D01*
X0093703Y0068104D02*
X0091940Y0068104D01*
X0092487Y0067106D02*
X0093703Y0067106D01*
X0094536Y0066107D02*
X0092487Y0066107D01*
X0088506Y0066107D02*
X0086925Y0066107D01*
X0086925Y0067106D02*
X0088506Y0067106D01*
X0084960Y0063112D02*
X0073615Y0063112D01*
X0073238Y0062113D02*
X0083961Y0062113D01*
X0079964Y0060116D02*
X0070325Y0060116D01*
X0070415Y0060026D02*
X0069364Y0061077D01*
X0067878Y0061077D01*
X0066828Y0060026D01*
X0066828Y0058789D01*
X0066316Y0059300D01*
X0064830Y0059300D01*
X0063998Y0058468D01*
X0063114Y0059352D01*
X0061628Y0059352D01*
X0060578Y0058301D01*
X0060578Y0056815D01*
X0061628Y0055764D01*
X0063114Y0055764D01*
X0063946Y0056596D01*
X0064830Y0055713D01*
X0065370Y0055713D01*
X0065370Y0055062D01*
X0066421Y0054011D01*
X0067907Y0054011D01*
X0068958Y0055062D01*
X0068958Y0056548D01*
X0068016Y0057489D01*
X0069364Y0057489D01*
X0070415Y0058540D01*
X0070415Y0060026D01*
X0070415Y0059118D02*
X0078966Y0059118D01*
X0078806Y0058119D02*
X0069994Y0058119D01*
X0068385Y0057121D02*
X0078994Y0057121D01*
X0078049Y0056122D02*
X0068958Y0056122D01*
X0068958Y0055124D02*
X0077349Y0055124D01*
X0077349Y0054125D02*
X0068021Y0054125D01*
X0066307Y0054125D02*
X0048855Y0054125D01*
X0047856Y0055124D02*
X0065370Y0055124D01*
X0064421Y0056122D02*
X0063472Y0056122D01*
X0061271Y0056122D02*
X0046857Y0056122D01*
X0045859Y0057121D02*
X0060578Y0057121D01*
X0060578Y0058119D02*
X0044860Y0058119D01*
X0044046Y0059118D02*
X0061394Y0059118D01*
X0063349Y0059118D02*
X0064648Y0059118D01*
X0066499Y0059118D02*
X0066828Y0059118D01*
X0066918Y0060116D02*
X0047866Y0060116D01*
X0048362Y0063112D02*
X0048581Y0063112D01*
X0039496Y0068104D02*
X0038662Y0068104D01*
X0039496Y0069103D02*
X0015246Y0069103D01*
X0015246Y0070101D02*
X0039496Y0070101D01*
X0039496Y0071100D02*
X0017325Y0071100D01*
X0017865Y0072098D02*
X0039496Y0072098D01*
X0039496Y0073097D02*
X0039347Y0073097D01*
X0039490Y0073240D02*
X0039490Y0074726D01*
X0038439Y0075777D01*
X0036953Y0075777D01*
X0036446Y0075270D01*
X0035939Y0075777D01*
X0034453Y0075777D01*
X0033946Y0075270D01*
X0033439Y0075777D01*
X0031953Y0075777D01*
X0030903Y0074726D01*
X0030903Y0073240D01*
X0031953Y0072189D01*
X0033439Y0072189D01*
X0033946Y0072696D01*
X0034453Y0072189D01*
X0035939Y0072189D01*
X0036446Y0072696D01*
X0036953Y0072189D01*
X0038439Y0072189D01*
X0039490Y0073240D01*
X0039490Y0074095D02*
X0039496Y0074095D01*
X0039496Y0075094D02*
X0039122Y0075094D01*
X0039496Y0076092D02*
X0017399Y0076092D01*
X0017865Y0075094D02*
X0031270Y0075094D01*
X0030903Y0074095D02*
X0017820Y0074095D01*
X0017865Y0073097D02*
X0031046Y0073097D01*
X0037031Y0068104D02*
X0015246Y0068104D01*
X0015246Y0067106D02*
X0020304Y0067106D01*
X0019305Y0066107D02*
X0015246Y0066107D01*
X0015246Y0065109D02*
X0019159Y0065109D01*
X0019198Y0064110D02*
X0015246Y0064110D01*
X0016905Y0063112D02*
X0020197Y0063112D01*
X0023534Y0065109D02*
X0036435Y0065109D01*
X0036053Y0066107D02*
X0023388Y0066107D01*
X0022389Y0067106D02*
X0036053Y0067106D01*
X0044046Y0069103D02*
X0071465Y0069103D01*
X0070928Y0070101D02*
X0057201Y0070101D01*
X0056839Y0069739D02*
X0057890Y0070790D01*
X0057890Y0072276D01*
X0056839Y0073327D01*
X0055353Y0073327D01*
X0054303Y0072276D01*
X0054303Y0070790D01*
X0055353Y0069739D01*
X0056839Y0069739D01*
X0057890Y0071100D02*
X0070928Y0071100D01*
X0071900Y0072098D02*
X0057890Y0072098D01*
X0057069Y0073097D02*
X0073453Y0073097D01*
X0073543Y0072098D02*
X0073795Y0072098D01*
X0073622Y0074095D02*
X0068595Y0074095D01*
X0068940Y0074440D02*
X0067889Y0073389D01*
X0066403Y0073389D01*
X0065353Y0074440D01*
X0065353Y0075926D01*
X0066403Y0076977D01*
X0067889Y0076977D01*
X0068940Y0075926D01*
X0068940Y0074440D01*
X0068940Y0075094D02*
X0073399Y0075094D01*
X0072403Y0076092D02*
X0068774Y0076092D01*
X0065519Y0076092D02*
X0056040Y0076092D01*
X0056040Y0075094D02*
X0065353Y0075094D01*
X0065698Y0074095D02*
X0055195Y0074095D01*
X0055123Y0073097D02*
X0044046Y0073097D01*
X0044046Y0074095D02*
X0053298Y0074095D01*
X0052453Y0075094D02*
X0044046Y0075094D01*
X0044046Y0076092D02*
X0052453Y0076092D01*
X0052802Y0077091D02*
X0044046Y0077091D01*
X0044046Y0078089D02*
X0052453Y0078089D01*
X0052615Y0079088D02*
X0045188Y0079088D01*
X0046040Y0080086D02*
X0047080Y0080086D01*
X0048746Y0080086D02*
X0049746Y0080086D01*
X0049746Y0081085D02*
X0048746Y0081085D01*
X0048746Y0082083D02*
X0049746Y0082083D01*
X0049746Y0083082D02*
X0048746Y0083082D01*
X0048746Y0084080D02*
X0044046Y0084080D01*
X0044046Y0083082D02*
X0044841Y0083082D01*
X0044856Y0085079D02*
X0044046Y0085079D01*
X0044046Y0086077D02*
X0045238Y0086077D01*
X0045925Y0087076D02*
X0044046Y0087076D01*
X0038746Y0084080D02*
X0033246Y0084080D01*
X0033182Y0083082D02*
X0034841Y0083082D01*
X0035189Y0082083D02*
X0032768Y0082083D01*
X0031955Y0081085D02*
X0035831Y0081085D01*
X0037080Y0080086D02*
X0030171Y0080086D01*
X0028322Y0080086D02*
X0026040Y0080086D01*
X0026040Y0079940D02*
X0024989Y0078889D01*
X0023503Y0078889D01*
X0022453Y0079940D01*
X0022453Y0081426D01*
X0023503Y0082477D01*
X0024989Y0082477D01*
X0026040Y0081426D01*
X0026040Y0079940D01*
X0026040Y0081085D02*
X0026538Y0081085D01*
X0025724Y0082083D02*
X0025383Y0082083D01*
X0025311Y0083082D02*
X0023182Y0083082D01*
X0023246Y0084080D02*
X0025246Y0084080D01*
X0025350Y0085079D02*
X0023143Y0085079D01*
X0022729Y0086077D02*
X0025764Y0086077D01*
X0026632Y0087076D02*
X0021860Y0087076D01*
X0016632Y0087076D02*
X0015246Y0087076D01*
X0015246Y0086077D02*
X0015764Y0086077D01*
X0015350Y0085079D02*
X0015246Y0085079D01*
X0015246Y0084080D02*
X0015246Y0084080D01*
X0015246Y0083082D02*
X0015311Y0083082D01*
X0015246Y0082083D02*
X0015724Y0082083D01*
X0015246Y0081085D02*
X0016538Y0081085D01*
X0015246Y0080086D02*
X0018322Y0080086D01*
X0016903Y0079088D02*
X0023305Y0079088D01*
X0022453Y0080086D02*
X0020171Y0080086D01*
X0021955Y0081085D02*
X0022453Y0081085D01*
X0022768Y0082083D02*
X0023110Y0082083D01*
X0025188Y0079088D02*
X0039496Y0079088D01*
X0039496Y0080086D02*
X0038746Y0080086D01*
X0038746Y0081085D02*
X0039496Y0081085D01*
X0039496Y0082083D02*
X0038746Y0082083D01*
X0038746Y0083082D02*
X0039496Y0083082D01*
X0034856Y0085079D02*
X0033143Y0085079D01*
X0032729Y0086077D02*
X0035238Y0086077D01*
X0035925Y0087076D02*
X0031860Y0087076D01*
X0039496Y0078089D02*
X0017865Y0078089D01*
X0017865Y0077091D02*
X0039496Y0077091D01*
X0044046Y0072098D02*
X0054303Y0072098D01*
X0054303Y0071100D02*
X0044046Y0071100D01*
X0044046Y0070101D02*
X0054992Y0070101D01*
X0060309Y0066107D02*
X0075136Y0066107D01*
X0080236Y0056122D02*
X0084920Y0056122D01*
X0083922Y0055124D02*
X0080936Y0055124D01*
X0080936Y0054125D02*
X0083856Y0054125D01*
X0082055Y0052128D02*
X0057260Y0052128D01*
X0057924Y0051129D02*
X0081353Y0051129D01*
X0081353Y0050131D02*
X0057924Y0050131D01*
X0057079Y0049132D02*
X0082160Y0049132D01*
X0084133Y0049132D02*
X0089032Y0049132D01*
X0088506Y0050131D02*
X0084940Y0050131D01*
X0084940Y0051129D02*
X0088506Y0051129D01*
X0078661Y0043778D02*
X0077611Y0044829D01*
X0076125Y0044829D01*
X0075074Y0043778D01*
X0075074Y0042293D01*
X0076125Y0041242D01*
X0077611Y0041242D01*
X0078661Y0042293D01*
X0078661Y0043778D01*
X0078300Y0044140D02*
X0110696Y0044140D01*
X0110696Y0045138D02*
X0108638Y0045138D01*
X0109090Y0045590D02*
X0108039Y0044539D01*
X0106553Y0044539D01*
X0105503Y0045590D01*
X0105503Y0047076D01*
X0106553Y0048127D01*
X0108039Y0048127D01*
X0109090Y0047076D01*
X0109090Y0045590D01*
X0109090Y0046137D02*
X0110696Y0046137D01*
X0110696Y0047135D02*
X0109031Y0047135D01*
X0105562Y0047135D02*
X0055844Y0047135D01*
X0056843Y0046137D02*
X0105503Y0046137D01*
X0105954Y0045138D02*
X0062406Y0045138D01*
X0063405Y0044140D02*
X0075435Y0044140D01*
X0075074Y0043141D02*
X0063537Y0043141D01*
X0063321Y0042143D02*
X0075224Y0042143D01*
X0078512Y0042143D02*
X0110696Y0042143D01*
X0110696Y0041144D02*
X0068100Y0041144D01*
X0067671Y0041574D02*
X0068837Y0040408D01*
X0068837Y0038759D01*
X0067671Y0037593D01*
X0066022Y0037593D01*
X0064856Y0038759D01*
X0064856Y0040408D01*
X0066022Y0041574D01*
X0067671Y0041574D01*
X0065593Y0041144D02*
X0061746Y0041144D01*
X0061746Y0040146D02*
X0064856Y0040146D01*
X0064856Y0039147D02*
X0061746Y0039147D01*
X0061746Y0038149D02*
X0065466Y0038149D01*
X0068227Y0038149D02*
X0083953Y0038149D01*
X0083953Y0037440D02*
X0085003Y0036389D01*
X0086489Y0036389D01*
X0087540Y0037440D01*
X0087540Y0038926D01*
X0086489Y0039977D01*
X0085003Y0039977D01*
X0083953Y0038926D01*
X0083953Y0037440D01*
X0083966Y0037150D02*
X0084243Y0037150D01*
X0084340Y0036776D02*
X0083289Y0037827D01*
X0081803Y0037827D01*
X0080753Y0036776D01*
X0080753Y0035290D01*
X0081803Y0034239D01*
X0083289Y0034239D01*
X0084340Y0035290D01*
X0084340Y0036776D01*
X0084340Y0036152D02*
X0103429Y0036152D01*
X0103503Y0036227D02*
X0102453Y0035176D01*
X0102453Y0033690D01*
X0103503Y0032639D01*
X0104989Y0032639D01*
X0106040Y0033690D01*
X0106040Y0035176D01*
X0104989Y0036227D01*
X0103503Y0036227D01*
X0102453Y0035153D02*
X0084203Y0035153D01*
X0080890Y0035153D02*
X0061746Y0035153D01*
X0061746Y0034155D02*
X0072681Y0034155D01*
X0072453Y0033926D02*
X0072453Y0032440D01*
X0072960Y0031933D01*
X0072453Y0031426D01*
X0072453Y0029940D01*
X0073503Y0028889D01*
X0074989Y0028889D01*
X0076040Y0029940D01*
X0076040Y0031426D01*
X0075533Y0031933D01*
X0076040Y0032440D01*
X0076040Y0033926D01*
X0074989Y0034977D01*
X0073503Y0034977D01*
X0072453Y0033926D01*
X0072453Y0033156D02*
X0061746Y0033156D01*
X0061746Y0032158D02*
X0072735Y0032158D01*
X0072453Y0031159D02*
X0061746Y0031159D01*
X0061746Y0030161D02*
X0072453Y0030161D01*
X0073231Y0029162D02*
X0061746Y0029162D01*
X0061746Y0028164D02*
X0063090Y0028164D01*
X0062453Y0027165D02*
X0061746Y0027165D01*
X0065402Y0028164D02*
X0073090Y0028164D01*
X0072453Y0027165D02*
X0071671Y0027165D01*
X0075402Y0028164D02*
X0083090Y0028164D01*
X0082453Y0027165D02*
X0081671Y0027165D01*
X0085402Y0028164D02*
X0093090Y0028164D01*
X0093503Y0028889D02*
X0094989Y0028889D01*
X0096040Y0029940D01*
X0096040Y0031426D01*
X0094989Y0032477D01*
X0093503Y0032477D01*
X0092453Y0031426D01*
X0092453Y0029940D01*
X0093503Y0028889D01*
X0093231Y0029162D02*
X0075262Y0029162D01*
X0076040Y0030161D02*
X0092453Y0030161D01*
X0092453Y0031159D02*
X0076040Y0031159D01*
X0075758Y0032158D02*
X0093184Y0032158D01*
X0095308Y0032158D02*
X0103184Y0032158D01*
X0103503Y0032477D02*
X0102453Y0031426D01*
X0102453Y0029940D01*
X0103503Y0028889D01*
X0104989Y0028889D01*
X0106040Y0029940D01*
X0106040Y0031426D01*
X0104989Y0032477D01*
X0103503Y0032477D01*
X0102987Y0033156D02*
X0076040Y0033156D01*
X0075811Y0034155D02*
X0102453Y0034155D01*
X0105506Y0033156D02*
X0110696Y0033156D01*
X0110696Y0032158D02*
X0105308Y0032158D01*
X0106040Y0031159D02*
X0110696Y0031159D01*
X0110696Y0030161D02*
X0106040Y0030161D01*
X0105262Y0029162D02*
X0110696Y0029162D01*
X0110696Y0028164D02*
X0105552Y0028164D01*
X0106040Y0027165D02*
X0106822Y0027165D01*
X0102940Y0028164D02*
X0095402Y0028164D01*
X0095262Y0029162D02*
X0103231Y0029162D01*
X0102453Y0030161D02*
X0096040Y0030161D01*
X0096040Y0031159D02*
X0102453Y0031159D01*
X0102453Y0027165D02*
X0101671Y0027165D01*
X0096822Y0027165D02*
X0096040Y0027165D01*
X0092453Y0027165D02*
X0091671Y0027165D01*
X0086822Y0027165D02*
X0086040Y0027165D01*
X0076822Y0027165D02*
X0076040Y0027165D01*
X0066822Y0027165D02*
X0066040Y0027165D01*
X0061746Y0036152D02*
X0080753Y0036152D01*
X0081127Y0037150D02*
X0061746Y0037150D01*
X0068837Y0039147D02*
X0084174Y0039147D01*
X0087319Y0039147D02*
X0110696Y0039147D01*
X0110696Y0038149D02*
X0087540Y0038149D01*
X0087250Y0037150D02*
X0110696Y0037150D01*
X0110696Y0036152D02*
X0105064Y0036152D01*
X0106040Y0035153D02*
X0110696Y0035153D01*
X0110696Y0034155D02*
X0106040Y0034155D01*
X0110696Y0040146D02*
X0068837Y0040146D01*
X0059688Y0044140D02*
X0058840Y0044140D01*
X0057841Y0045138D02*
X0060687Y0045138D01*
X0078661Y0043141D02*
X0110696Y0043141D01*
X0072403Y0077091D02*
X0055691Y0077091D01*
X0056040Y0078089D02*
X0072916Y0078089D01*
X0072453Y0080086D02*
X0070171Y0080086D01*
X0068322Y0080086D02*
X0066040Y0080086D01*
X0066040Y0081085D02*
X0066538Y0081085D01*
X0065724Y0082083D02*
X0065383Y0082083D01*
X0071955Y0081085D02*
X0072453Y0081085D01*
X0072768Y0082083D02*
X0073110Y0082083D01*
X0085383Y0082083D02*
X0085724Y0082083D01*
X0086040Y0081085D02*
X0086538Y0081085D01*
X0086040Y0080086D02*
X0088322Y0080086D01*
X0090171Y0080086D02*
X0092453Y0080086D01*
X0092453Y0081085D02*
X0091955Y0081085D01*
X0092768Y0082083D02*
X0093110Y0082083D01*
X0056538Y0081085D02*
X0056040Y0081085D01*
X0055724Y0082083D02*
X0055383Y0082083D01*
X0055311Y0083082D02*
X0053652Y0083082D01*
X0055246Y0084080D02*
X0049747Y0084080D01*
X0053637Y0085079D02*
X0055350Y0085079D01*
X0055764Y0086077D02*
X0053255Y0086077D01*
X0052568Y0087076D02*
X0056632Y0087076D01*
X0052453Y0080086D02*
X0051413Y0080086D01*
M02*
