G75*
%MOIN*%
%OFA0B0*%
%FSLAX25Y25*%
%IPPOS*%
%LPD*%
%AMOC8*
5,1,8,0,0,1.08239X$1,22.5*
%
%ADD10C,0.00000*%
D10*
X0013846Y0018983D02*
X0013846Y0088983D01*
X0139246Y0088983D01*
X0139246Y0018983D01*
X0013846Y0018983D01*
X0019326Y0041827D02*
X0023379Y0041827D01*
X0023379Y0041826D02*
X0023440Y0041827D01*
X0023500Y0041831D01*
X0023559Y0041839D01*
X0023619Y0041850D01*
X0023677Y0041865D01*
X0023734Y0041883D01*
X0023790Y0041905D01*
X0023845Y0041930D01*
X0023898Y0041959D01*
X0023949Y0041990D01*
X0023999Y0042025D01*
X0024046Y0042063D01*
X0024091Y0042103D01*
X0024133Y0042146D01*
X0024172Y0042191D01*
X0024209Y0042239D01*
X0024243Y0042289D01*
X0024274Y0042341D01*
X0024301Y0042394D01*
X0024325Y0042449D01*
X0024346Y0042506D01*
X0024364Y0042563D01*
X0024378Y0042622D01*
X0024388Y0042681D01*
X0024395Y0042741D01*
X0024398Y0042801D01*
X0024397Y0042862D01*
X0024393Y0042923D01*
X0024385Y0042984D01*
X0024373Y0043044D01*
X0024357Y0043103D01*
X0024337Y0043161D01*
X0024314Y0043217D01*
X0024288Y0043272D01*
X0024258Y0043325D01*
X0024225Y0043377D01*
X0024189Y0043426D01*
X0024149Y0043472D01*
X0024107Y0043517D01*
X0024062Y0043558D01*
X0024015Y0043596D01*
X0023965Y0043632D01*
X0023913Y0043664D01*
X0023859Y0043693D01*
X0023804Y0043719D01*
X0023747Y0043741D01*
X0023689Y0043759D01*
X0023629Y0043773D01*
X0023569Y0043784D01*
X0023509Y0043791D01*
X0023448Y0043795D01*
X0019233Y0043795D01*
X0019232Y0043795D02*
X0019172Y0043792D01*
X0019112Y0043784D01*
X0019053Y0043774D01*
X0018995Y0043759D01*
X0018937Y0043741D01*
X0018881Y0043719D01*
X0018826Y0043694D01*
X0018773Y0043666D01*
X0018722Y0043634D01*
X0018673Y0043599D01*
X0018626Y0043561D01*
X0018582Y0043520D01*
X0018540Y0043477D01*
X0018501Y0043430D01*
X0018466Y0043382D01*
X0018433Y0043331D01*
X0018403Y0043279D01*
X0018377Y0043225D01*
X0018355Y0043169D01*
X0018335Y0043112D01*
X0018320Y0043053D01*
X0018308Y0042994D01*
X0018300Y0042935D01*
X0018296Y0042875D01*
X0018295Y0042814D01*
X0018299Y0042751D01*
X0018306Y0042688D01*
X0018317Y0042626D01*
X0018332Y0042564D01*
X0018351Y0042503D01*
X0018374Y0042444D01*
X0018401Y0042386D01*
X0018431Y0042331D01*
X0018464Y0042277D01*
X0018501Y0042225D01*
X0018541Y0042176D01*
X0018584Y0042129D01*
X0018630Y0042085D01*
X0018678Y0042044D01*
X0018729Y0042006D01*
X0018782Y0041972D01*
X0018838Y0041941D01*
X0018895Y0041913D01*
X0018953Y0041889D01*
X0019014Y0041869D01*
X0019075Y0041853D01*
X0019137Y0041840D01*
X0019200Y0041831D01*
X0019263Y0041827D01*
X0019327Y0041826D01*
X0028925Y0046059D02*
X0028927Y0046124D01*
X0028933Y0046190D01*
X0028943Y0046254D01*
X0028956Y0046318D01*
X0028974Y0046381D01*
X0028995Y0046443D01*
X0029020Y0046503D01*
X0029049Y0046562D01*
X0029081Y0046619D01*
X0029117Y0046674D01*
X0029155Y0046727D01*
X0029197Y0046777D01*
X0029242Y0046825D01*
X0029290Y0046870D01*
X0029340Y0046912D01*
X0029393Y0046950D01*
X0029448Y0046986D01*
X0029505Y0047018D01*
X0029564Y0047047D01*
X0029624Y0047072D01*
X0029686Y0047093D01*
X0029749Y0047111D01*
X0029813Y0047124D01*
X0029877Y0047134D01*
X0029943Y0047140D01*
X0030008Y0047142D01*
X0030073Y0047140D01*
X0030139Y0047134D01*
X0030203Y0047124D01*
X0030267Y0047111D01*
X0030330Y0047093D01*
X0030392Y0047072D01*
X0030452Y0047047D01*
X0030511Y0047018D01*
X0030568Y0046986D01*
X0030623Y0046950D01*
X0030676Y0046912D01*
X0030726Y0046870D01*
X0030774Y0046825D01*
X0030819Y0046777D01*
X0030861Y0046727D01*
X0030899Y0046674D01*
X0030935Y0046619D01*
X0030967Y0046562D01*
X0030996Y0046503D01*
X0031021Y0046443D01*
X0031042Y0046381D01*
X0031060Y0046318D01*
X0031073Y0046254D01*
X0031083Y0046190D01*
X0031089Y0046124D01*
X0031091Y0046059D01*
X0031089Y0045994D01*
X0031083Y0045928D01*
X0031073Y0045864D01*
X0031060Y0045800D01*
X0031042Y0045737D01*
X0031021Y0045675D01*
X0030996Y0045615D01*
X0030967Y0045556D01*
X0030935Y0045499D01*
X0030899Y0045444D01*
X0030861Y0045391D01*
X0030819Y0045341D01*
X0030774Y0045293D01*
X0030726Y0045248D01*
X0030676Y0045206D01*
X0030623Y0045168D01*
X0030568Y0045132D01*
X0030511Y0045100D01*
X0030452Y0045071D01*
X0030392Y0045046D01*
X0030330Y0045025D01*
X0030267Y0045007D01*
X0030203Y0044994D01*
X0030139Y0044984D01*
X0030073Y0044978D01*
X0030008Y0044976D01*
X0029943Y0044978D01*
X0029877Y0044984D01*
X0029813Y0044994D01*
X0029749Y0045007D01*
X0029686Y0045025D01*
X0029624Y0045046D01*
X0029564Y0045071D01*
X0029505Y0045100D01*
X0029448Y0045132D01*
X0029393Y0045168D01*
X0029340Y0045206D01*
X0029290Y0045248D01*
X0029242Y0045293D01*
X0029197Y0045341D01*
X0029155Y0045391D01*
X0029117Y0045444D01*
X0029081Y0045499D01*
X0029049Y0045556D01*
X0029020Y0045615D01*
X0028995Y0045675D01*
X0028974Y0045737D01*
X0028956Y0045800D01*
X0028943Y0045864D01*
X0028933Y0045928D01*
X0028927Y0045994D01*
X0028925Y0046059D01*
X0028925Y0061807D02*
X0028927Y0061872D01*
X0028933Y0061938D01*
X0028943Y0062002D01*
X0028956Y0062066D01*
X0028974Y0062129D01*
X0028995Y0062191D01*
X0029020Y0062251D01*
X0029049Y0062310D01*
X0029081Y0062367D01*
X0029117Y0062422D01*
X0029155Y0062475D01*
X0029197Y0062525D01*
X0029242Y0062573D01*
X0029290Y0062618D01*
X0029340Y0062660D01*
X0029393Y0062698D01*
X0029448Y0062734D01*
X0029505Y0062766D01*
X0029564Y0062795D01*
X0029624Y0062820D01*
X0029686Y0062841D01*
X0029749Y0062859D01*
X0029813Y0062872D01*
X0029877Y0062882D01*
X0029943Y0062888D01*
X0030008Y0062890D01*
X0030073Y0062888D01*
X0030139Y0062882D01*
X0030203Y0062872D01*
X0030267Y0062859D01*
X0030330Y0062841D01*
X0030392Y0062820D01*
X0030452Y0062795D01*
X0030511Y0062766D01*
X0030568Y0062734D01*
X0030623Y0062698D01*
X0030676Y0062660D01*
X0030726Y0062618D01*
X0030774Y0062573D01*
X0030819Y0062525D01*
X0030861Y0062475D01*
X0030899Y0062422D01*
X0030935Y0062367D01*
X0030967Y0062310D01*
X0030996Y0062251D01*
X0031021Y0062191D01*
X0031042Y0062129D01*
X0031060Y0062066D01*
X0031073Y0062002D01*
X0031083Y0061938D01*
X0031089Y0061872D01*
X0031091Y0061807D01*
X0031089Y0061742D01*
X0031083Y0061676D01*
X0031073Y0061612D01*
X0031060Y0061548D01*
X0031042Y0061485D01*
X0031021Y0061423D01*
X0030996Y0061363D01*
X0030967Y0061304D01*
X0030935Y0061247D01*
X0030899Y0061192D01*
X0030861Y0061139D01*
X0030819Y0061089D01*
X0030774Y0061041D01*
X0030726Y0060996D01*
X0030676Y0060954D01*
X0030623Y0060916D01*
X0030568Y0060880D01*
X0030511Y0060848D01*
X0030452Y0060819D01*
X0030392Y0060794D01*
X0030330Y0060773D01*
X0030267Y0060755D01*
X0030203Y0060742D01*
X0030139Y0060732D01*
X0030073Y0060726D01*
X0030008Y0060724D01*
X0029943Y0060726D01*
X0029877Y0060732D01*
X0029813Y0060742D01*
X0029749Y0060755D01*
X0029686Y0060773D01*
X0029624Y0060794D01*
X0029564Y0060819D01*
X0029505Y0060848D01*
X0029448Y0060880D01*
X0029393Y0060916D01*
X0029340Y0060954D01*
X0029290Y0060996D01*
X0029242Y0061041D01*
X0029197Y0061089D01*
X0029155Y0061139D01*
X0029117Y0061192D01*
X0029081Y0061247D01*
X0029049Y0061304D01*
X0029020Y0061363D01*
X0028995Y0061423D01*
X0028974Y0061485D01*
X0028956Y0061548D01*
X0028943Y0061612D01*
X0028933Y0061676D01*
X0028927Y0061742D01*
X0028925Y0061807D01*
X0023419Y0064083D02*
X0019366Y0064083D01*
X0019304Y0064085D01*
X0019242Y0064091D01*
X0019180Y0064100D01*
X0019119Y0064113D01*
X0019059Y0064130D01*
X0019000Y0064150D01*
X0018943Y0064174D01*
X0018887Y0064201D01*
X0018833Y0064232D01*
X0018780Y0064266D01*
X0018730Y0064302D01*
X0018682Y0064342D01*
X0018637Y0064385D01*
X0018594Y0064430D01*
X0018554Y0064478D01*
X0018518Y0064528D01*
X0018484Y0064581D01*
X0018453Y0064635D01*
X0018426Y0064691D01*
X0018402Y0064748D01*
X0018382Y0064807D01*
X0018365Y0064867D01*
X0018352Y0064928D01*
X0018343Y0064990D01*
X0018337Y0065052D01*
X0018335Y0065114D01*
X0018337Y0065173D01*
X0018342Y0065231D01*
X0018352Y0065290D01*
X0018364Y0065347D01*
X0018381Y0065404D01*
X0018401Y0065459D01*
X0018424Y0065513D01*
X0018451Y0065565D01*
X0018481Y0065616D01*
X0018514Y0065665D01*
X0018550Y0065711D01*
X0018589Y0065755D01*
X0018631Y0065797D01*
X0018675Y0065836D01*
X0018721Y0065872D01*
X0018770Y0065905D01*
X0018821Y0065935D01*
X0018873Y0065962D01*
X0018927Y0065985D01*
X0018982Y0066005D01*
X0019039Y0066022D01*
X0019096Y0066034D01*
X0019155Y0066044D01*
X0019213Y0066049D01*
X0019272Y0066051D01*
X0023487Y0066051D01*
X0023547Y0066049D01*
X0023606Y0066044D01*
X0023665Y0066034D01*
X0023723Y0066021D01*
X0023781Y0066005D01*
X0023837Y0065984D01*
X0023891Y0065961D01*
X0023945Y0065933D01*
X0023996Y0065903D01*
X0024045Y0065870D01*
X0024093Y0065833D01*
X0024137Y0065794D01*
X0024180Y0065751D01*
X0024219Y0065707D01*
X0024256Y0065659D01*
X0024289Y0065610D01*
X0024319Y0065559D01*
X0024347Y0065505D01*
X0024370Y0065451D01*
X0024391Y0065395D01*
X0024407Y0065337D01*
X0024420Y0065279D01*
X0024430Y0065220D01*
X0024435Y0065161D01*
X0024437Y0065101D01*
X0024435Y0065040D01*
X0024430Y0064978D01*
X0024420Y0064918D01*
X0024407Y0064857D01*
X0024391Y0064798D01*
X0024371Y0064740D01*
X0024347Y0064683D01*
X0024320Y0064628D01*
X0024290Y0064574D01*
X0024257Y0064523D01*
X0024220Y0064473D01*
X0024181Y0064426D01*
X0024139Y0064381D01*
X0024094Y0064339D01*
X0024047Y0064300D01*
X0023997Y0064263D01*
X0023946Y0064230D01*
X0023892Y0064200D01*
X0023837Y0064173D01*
X0023780Y0064149D01*
X0023722Y0064129D01*
X0023663Y0064113D01*
X0023602Y0064100D01*
X0023542Y0064090D01*
X0023480Y0064085D01*
X0023419Y0064083D01*
M02*
