G75*
%MOIN*%
%OFA0B0*%
%FSLAX25Y25*%
%IPPOS*%
%LPD*%
%AMOC8*
5,1,8,0,0,1.08239X$1,22.5*
%
%ADD10C,0.00700*%
%ADD11C,0.00500*%
%ADD12C,0.00300*%
%ADD13C,0.00900*%
%ADD14R,0.00028X0.15260*%
%ADD15R,0.00028X0.27104*%
%ADD16R,0.00028X0.15540*%
%ADD17R,0.00028X0.00868*%
%ADD18R,0.00028X0.27384*%
%ADD19R,0.00028X0.16772*%
%ADD20R,0.00028X0.27496*%
%ADD21R,0.00028X0.16996*%
%ADD22R,0.00028X0.27580*%
%ADD23R,0.00028X0.17164*%
%ADD24R,0.00028X0.27664*%
%ADD25R,0.00028X0.17304*%
%ADD26R,0.00028X0.27720*%
%ADD27R,0.00028X0.17444*%
%ADD28R,0.00028X0.27804*%
%ADD29R,0.00028X0.17556*%
%ADD30R,0.00028X0.27860*%
%ADD31R,0.00028X0.17668*%
%ADD32R,0.00028X0.27916*%
%ADD33R,0.00028X0.17752*%
%ADD34R,0.00028X0.27944*%
%ADD35R,0.00028X0.17836*%
%ADD36R,0.00028X0.28000*%
%ADD37R,0.00028X0.17948*%
%ADD38R,0.00028X0.28028*%
%ADD39R,0.00028X0.18032*%
%ADD40R,0.00028X0.28084*%
%ADD41R,0.00028X0.18060*%
%ADD42R,0.00028X0.28084*%
%ADD43R,0.00028X0.18144*%
%ADD44R,0.00028X0.28140*%
%ADD45R,0.00028X0.18200*%
%ADD46R,0.00028X0.28168*%
%ADD47R,0.00028X0.18284*%
%ADD48R,0.00028X0.28196*%
%ADD49R,0.00028X0.18340*%
%ADD50R,0.00028X0.18396*%
%ADD51R,0.00028X0.28252*%
%ADD52R,0.00028X0.18452*%
%ADD53R,0.00028X0.28280*%
%ADD54R,0.00028X0.18508*%
%ADD55R,0.00028X0.28308*%
%ADD56R,0.00028X0.18564*%
%ADD57R,0.00028X0.28336*%
%ADD58R,0.00028X0.18620*%
%ADD59R,0.00028X0.18648*%
%ADD60R,0.00028X0.28364*%
%ADD61R,0.00028X0.18704*%
%ADD62R,0.00028X0.28364*%
%ADD63R,0.00028X0.18760*%
%ADD64R,0.00028X0.28392*%
%ADD65R,0.00028X0.18788*%
%ADD66R,0.00028X0.18816*%
%ADD67R,0.00028X0.28448*%
%ADD68R,0.00028X0.18872*%
%ADD69R,0.00028X0.28476*%
%ADD70R,0.00028X0.18900*%
%ADD71R,0.00028X0.28448*%
%ADD72R,0.00028X0.18956*%
%ADD73R,0.00028X0.28476*%
%ADD74R,0.00028X0.18984*%
%ADD75R,0.00028X0.28504*%
%ADD76R,0.00028X0.19040*%
%ADD77R,0.00028X0.19068*%
%ADD78R,0.00028X0.28532*%
%ADD79R,0.00028X0.19096*%
%ADD80R,0.00028X0.19152*%
%ADD81R,0.00028X0.28560*%
%ADD82R,0.00028X0.28588*%
%ADD83R,0.00028X0.19208*%
%ADD84R,0.00028X0.28560*%
%ADD85R,0.00028X0.19236*%
%ADD86R,0.00028X0.19264*%
%ADD87R,0.00028X0.19292*%
%ADD88R,0.00028X0.28616*%
%ADD89R,0.00028X0.19320*%
%ADD90R,0.00028X0.19348*%
%ADD91R,0.00028X0.19404*%
%ADD92R,0.00028X0.28644*%
%ADD93R,0.00028X0.19404*%
%ADD94R,0.00028X0.28644*%
%ADD95R,0.00028X0.19432*%
%ADD96R,0.00028X0.19460*%
%ADD97R,0.00028X0.19488*%
%ADD98R,0.00028X0.16352*%
%ADD99R,0.00028X0.06244*%
%ADD100R,0.00028X0.04200*%
%ADD101R,0.00028X0.19516*%
%ADD102R,0.00028X0.16128*%
%ADD103R,0.00028X0.05740*%
%ADD104R,0.00028X0.04004*%
%ADD105R,0.00028X0.19544*%
%ADD106R,0.00028X0.15932*%
%ADD107R,0.00028X0.05348*%
%ADD108R,0.00028X0.03780*%
%ADD109R,0.00028X0.19572*%
%ADD110R,0.00028X0.15764*%
%ADD111R,0.00028X0.05068*%
%ADD112R,0.00028X0.03696*%
%ADD113R,0.00028X0.03556*%
%ADD114R,0.00028X0.03164*%
%ADD115R,0.00028X0.01512*%
%ADD116R,0.00028X0.02576*%
%ADD117R,0.00028X0.02996*%
%ADD118R,0.00028X0.03136*%
%ADD119R,0.00028X0.05432*%
%ADD120R,0.00028X0.04172*%
%ADD121R,0.00028X0.04816*%
%ADD122R,0.00028X0.03556*%
%ADD123R,0.00028X0.03584*%
%ADD124R,0.00028X0.03024*%
%ADD125R,0.00028X0.04032*%
%ADD126R,0.00028X0.04592*%
%ADD127R,0.00028X0.03472*%
%ADD128R,0.00028X0.03108*%
%ADD129R,0.00028X0.03948*%
%ADD130R,0.00028X0.04396*%
%ADD131R,0.00028X0.03388*%
%ADD132R,0.00028X0.03612*%
%ADD133R,0.00028X0.03864*%
%ADD134R,0.00028X0.03332*%
%ADD135R,0.00028X0.03612*%
%ADD136R,0.00028X0.03164*%
%ADD137R,0.00028X0.01512*%
%ADD138R,0.00028X0.02576*%
%ADD139R,0.00028X0.03024*%
%ADD140R,0.00028X0.03080*%
%ADD141R,0.00028X0.05432*%
%ADD142R,0.00028X0.04032*%
%ADD143R,0.00028X0.03248*%
%ADD144R,0.00028X0.03640*%
%ADD145R,0.00028X0.03080*%
%ADD146R,0.00028X0.03192*%
%ADD147R,0.00028X0.03640*%
%ADD148R,0.00028X0.03724*%
%ADD149R,0.00028X0.03668*%
%ADD150R,0.00028X0.03052*%
%ADD151R,0.00028X0.03500*%
%ADD152R,0.00028X0.02968*%
%ADD153R,0.00028X0.03444*%
%ADD154R,0.00028X0.03220*%
%ADD155R,0.00028X0.02940*%
%ADD156R,0.00028X0.03696*%
%ADD157R,0.00028X0.02968*%
%ADD158R,0.00028X0.03332*%
%ADD159R,0.00028X0.03108*%
%ADD160R,0.00028X0.02884*%
%ADD161R,0.00028X0.03276*%
%ADD162R,0.00028X0.02856*%
%ADD163R,0.00028X0.03248*%
%ADD164R,0.00028X0.02800*%
%ADD165R,0.00028X0.02912*%
%ADD166R,0.00028X0.02828*%
%ADD167R,0.00028X0.02744*%
%ADD168R,0.00028X0.03752*%
%ADD169R,0.00028X0.02716*%
%ADD170R,0.00028X0.02884*%
%ADD171R,0.00028X0.02660*%
%ADD172R,0.00028X0.02688*%
%ADD173R,0.00028X0.03752*%
%ADD174R,0.00028X0.02940*%
%ADD175R,0.00028X0.03052*%
%ADD176R,0.00028X0.02660*%
%ADD177R,0.00028X0.02632*%
%ADD178R,0.00028X0.02604*%
%ADD179R,0.00028X0.03780*%
%ADD180R,0.00028X0.02940*%
%ADD181R,0.00028X0.02548*%
%ADD182R,0.00028X0.02548*%
%ADD183R,0.00028X0.02828*%
%ADD184R,0.00028X0.02912*%
%ADD185R,0.00028X0.02492*%
%ADD186R,0.00028X0.02520*%
%ADD187R,0.00028X0.02856*%
%ADD188R,0.00028X0.02464*%
%ADD189R,0.00028X0.03808*%
%ADD190R,0.00028X0.02828*%
%ADD191R,0.00028X0.02828*%
%ADD192R,0.00028X0.02464*%
%ADD193R,0.00028X0.03808*%
%ADD194R,0.00028X0.02408*%
%ADD195R,0.00028X0.02436*%
%ADD196R,0.00028X0.02772*%
%ADD197R,0.00028X0.02380*%
%ADD198R,0.00028X0.02352*%
%ADD199R,0.00028X0.03836*%
%ADD200R,0.00028X0.02324*%
%ADD201R,0.00028X0.02296*%
%ADD202R,0.00028X0.03836*%
%ADD203R,0.00028X0.02744*%
%ADD204R,0.00028X0.02296*%
%ADD205R,0.00028X0.02268*%
%ADD206R,0.00028X0.02212*%
%ADD207R,0.00028X0.02240*%
%ADD208R,0.00028X0.02184*%
%ADD209R,0.00028X0.02212*%
%ADD210R,0.00028X0.02156*%
%ADD211R,0.00028X0.02128*%
%ADD212R,0.00028X0.02128*%
%ADD213R,0.00028X0.03864*%
%ADD214R,0.00028X0.02436*%
%ADD215R,0.00028X0.02100*%
%ADD216R,0.00028X0.02128*%
%ADD217R,0.00028X0.02100*%
%ADD218R,0.00028X0.02632*%
%ADD219R,0.00028X0.02072*%
%ADD220R,0.00028X0.00728*%
%ADD221R,0.00028X0.02044*%
%ADD222R,0.00028X0.00616*%
%ADD223R,0.00028X0.01148*%
%ADD224R,0.00028X0.02016*%
%ADD225R,0.00028X0.01008*%
%ADD226R,0.00028X0.01428*%
%ADD227R,0.00028X0.01288*%
%ADD228R,0.00028X0.02604*%
%ADD229R,0.00028X0.02688*%
%ADD230R,0.00028X0.01680*%
%ADD231R,0.00028X0.01988*%
%ADD232R,0.00028X0.02576*%
%ADD233R,0.00028X0.01876*%
%ADD234R,0.00028X0.01960*%
%ADD235R,0.00028X0.01680*%
%ADD236R,0.00028X0.01848*%
%ADD237R,0.00028X0.01932*%
%ADD238R,0.00028X0.01904*%
%ADD239R,0.00028X0.02184*%
%ADD240R,0.00028X0.02240*%
%ADD241R,0.00028X0.02520*%
%ADD242R,0.00028X0.02184*%
%ADD243R,0.00028X0.01904*%
%ADD244R,0.00028X0.02352*%
%ADD245R,0.00028X0.01848*%
%ADD246R,0.00028X0.02520*%
%ADD247R,0.00028X0.02156*%
%ADD248R,0.00028X0.01848*%
%ADD249R,0.00028X0.01820*%
%ADD250R,0.00028X0.02492*%
%ADD251R,0.00028X0.01792*%
%ADD252R,0.00028X0.01820*%
%ADD253R,0.00028X0.02464*%
%ADD254R,0.00028X0.03192*%
%ADD255R,0.00028X0.01764*%
%ADD256R,0.00028X0.02464*%
%ADD257R,0.00028X0.02576*%
%ADD258R,0.00028X0.02072*%
%ADD259R,0.00028X0.03304*%
%ADD260R,0.00028X0.01820*%
%ADD261R,0.00028X0.02856*%
%ADD262R,0.00028X0.01736*%
%ADD263R,0.00028X0.01792*%
%ADD264R,0.00028X0.01736*%
%ADD265R,0.00028X0.05264*%
%ADD266R,0.00028X0.01708*%
%ADD267R,0.00028X0.05292*%
%ADD268R,0.00028X0.01988*%
%ADD269R,0.00028X0.05320*%
%ADD270R,0.00028X0.05348*%
%ADD271R,0.00028X0.01652*%
%ADD272R,0.00028X0.02380*%
%ADD273R,0.00028X0.00028*%
%ADD274R,0.00028X0.02492*%
%ADD275R,0.00028X0.01960*%
%ADD276R,0.00028X0.05376*%
%ADD277R,0.00028X0.01624*%
%ADD278R,0.00028X0.00084*%
%ADD279R,0.00028X0.05348*%
%ADD280R,0.00028X0.03360*%
%ADD281R,0.00028X0.01624*%
%ADD282R,0.00028X0.05376*%
%ADD283R,0.00028X0.03416*%
%ADD284R,0.00028X0.01596*%
%ADD285R,0.00028X0.00112*%
%ADD286R,0.00028X0.05376*%
%ADD287R,0.00028X0.05404*%
%ADD288R,0.00028X0.01568*%
%ADD289R,0.00028X0.00140*%
%ADD290R,0.00028X0.01876*%
%ADD291R,0.00028X0.03528*%
%ADD292R,0.00028X0.02324*%
%ADD293R,0.00028X0.00168*%
%ADD294R,0.00028X0.01876*%
%ADD295R,0.00028X0.03584*%
%ADD296R,0.00028X0.01540*%
%ADD297R,0.00028X0.00168*%
%ADD298R,0.00028X0.01540*%
%ADD299R,0.00028X0.00196*%
%ADD300R,0.00028X0.01512*%
%ADD301R,0.00028X0.00224*%
%ADD302R,0.00028X0.05460*%
%ADD303R,0.00028X0.01484*%
%ADD304R,0.00028X0.00252*%
%ADD305R,0.00028X0.02240*%
%ADD306R,0.00028X0.00280*%
%ADD307R,0.00028X0.01792*%
%ADD308R,0.00028X0.05460*%
%ADD309R,0.00028X0.01456*%
%ADD310R,0.00028X0.00280*%
%ADD311R,0.00028X0.05488*%
%ADD312R,0.00028X0.01456*%
%ADD313R,0.00028X0.00336*%
%ADD314R,0.00028X0.01764*%
%ADD315R,0.00028X0.03920*%
%ADD316R,0.00028X0.01428*%
%ADD317R,0.00028X0.00364*%
%ADD318R,0.00028X0.03976*%
%ADD319R,0.00028X0.01400*%
%ADD320R,0.00028X0.02184*%
%ADD321R,0.00028X0.00392*%
%ADD322R,0.00028X0.05488*%
%ADD323R,0.00028X0.03976*%
%ADD324R,0.00028X0.01400*%
%ADD325R,0.00028X0.00392*%
%ADD326R,0.00028X0.00420*%
%ADD327R,0.00028X0.05516*%
%ADD328R,0.00028X0.01372*%
%ADD329R,0.00028X0.00448*%
%ADD330R,0.00028X0.04088*%
%ADD331R,0.00028X0.00476*%
%ADD332R,0.00028X0.04144*%
%ADD333R,0.00028X0.01344*%
%ADD334R,0.00028X0.00504*%
%ADD335R,0.00028X0.00532*%
%ADD336R,0.00028X0.02212*%
%ADD337R,0.00028X0.05516*%
%ADD338R,0.00028X0.04172*%
%ADD339R,0.00028X0.01344*%
%ADD340R,0.00028X0.00532*%
%ADD341R,0.00028X0.01316*%
%ADD342R,0.00028X0.05544*%
%ADD343R,0.00028X0.00588*%
%ADD344R,0.00028X0.04256*%
%ADD345R,0.00028X0.02016*%
%ADD346R,0.00028X0.00644*%
%ADD347R,0.00028X0.02156*%
%ADD348R,0.00028X0.05544*%
%ADD349R,0.00028X0.04312*%
%ADD350R,0.00028X0.01288*%
%ADD351R,0.00028X0.00644*%
%ADD352R,0.00028X0.04312*%
%ADD353R,0.00028X0.01260*%
%ADD354R,0.00028X0.00700*%
%ADD355R,0.00028X0.04368*%
%ADD356R,0.00028X0.00756*%
%ADD357R,0.00028X0.01568*%
%ADD358R,0.00028X0.04424*%
%ADD359R,0.00028X0.01232*%
%ADD360R,0.00028X0.00756*%
%ADD361R,0.00028X0.04424*%
%ADD362R,0.00028X0.01232*%
%ADD363R,0.00028X0.00784*%
%ADD364R,0.00028X0.05572*%
%ADD365R,0.00028X0.00812*%
%ADD366R,0.00028X0.04480*%
%ADD367R,0.00028X0.00840*%
%ADD368R,0.00028X0.01540*%
%ADD369R,0.00028X0.01876*%
%ADD370R,0.00028X0.00868*%
%ADD371R,0.00028X0.02044*%
%ADD372R,0.00028X0.01540*%
%ADD373R,0.00028X0.05572*%
%ADD374R,0.00028X0.04480*%
%ADD375R,0.00028X0.01204*%
%ADD376R,0.00028X0.01204*%
%ADD377R,0.00028X0.00896*%
%ADD378R,0.00028X0.04508*%
%ADD379R,0.00028X0.00924*%
%ADD380R,0.00028X0.04536*%
%ADD381R,0.00028X0.00952*%
%ADD382R,0.00028X0.01176*%
%ADD383R,0.00028X0.04228*%
%ADD384R,0.00028X0.00980*%
%ADD385R,0.00028X0.01820*%
%ADD386R,0.00028X0.01008*%
%ADD387R,0.00028X0.03220*%
%ADD388R,0.00028X0.04564*%
%ADD389R,0.00028X0.01176*%
%ADD390R,0.00028X0.04592*%
%ADD391R,0.00028X0.01036*%
%ADD392R,0.00028X0.01064*%
%ADD393R,0.00028X0.01484*%
%ADD394R,0.00028X0.01092*%
%ADD395R,0.00028X0.01120*%
%ADD396R,0.00028X0.01484*%
%ADD397R,0.00028X0.04620*%
%ADD398R,0.00028X0.01148*%
%ADD399R,0.00028X0.01120*%
%ADD400R,0.00028X0.04620*%
%ADD401R,0.00028X0.04648*%
%ADD402R,0.00028X0.02212*%
%ADD403R,0.00028X0.04648*%
%ADD404R,0.00028X0.01456*%
%ADD405R,0.00028X0.04676*%
%ADD406R,0.00028X0.02548*%
%ADD407R,0.00028X0.01596*%
%ADD408R,0.00028X0.01764*%
%ADD409R,0.00028X0.01456*%
%ADD410R,0.00028X0.04704*%
%ADD411R,0.00028X0.04704*%
%ADD412R,0.00028X0.05600*%
%ADD413R,0.00028X0.02520*%
%ADD414R,0.00028X0.01512*%
%ADD415R,0.00028X0.05600*%
%ADD416R,0.00028X0.01372*%
%ADD417R,0.00028X0.01428*%
%ADD418R,0.00028X0.02156*%
%ADD419R,0.00028X0.01260*%
%ADD420R,0.00028X0.02716*%
%ADD421R,0.00028X0.04564*%
%ADD422R,0.00028X0.02772*%
%ADD423R,0.00028X0.04508*%
%ADD424R,0.00028X0.04452*%
%ADD425R,0.00028X0.02492*%
%ADD426R,0.00028X0.00028*%
%ADD427R,0.00028X0.00112*%
%ADD428R,0.00028X0.01148*%
%ADD429R,0.00028X0.04340*%
%ADD430R,0.00028X0.00196*%
%ADD431R,0.00028X0.01092*%
%ADD432R,0.00028X0.01148*%
%ADD433R,0.00028X0.00392*%
%ADD434R,0.00028X0.00420*%
%ADD435R,0.00028X0.01036*%
%ADD436R,0.00028X0.04200*%
%ADD437R,0.00028X0.01316*%
%ADD438R,0.00028X0.04116*%
%ADD439R,0.00028X0.00700*%
%ADD440R,0.00028X0.01428*%
%ADD441R,0.00028X0.00980*%
%ADD442R,0.00028X0.01708*%
%ADD443R,0.00028X0.01120*%
%ADD444R,0.00028X0.00896*%
%ADD445R,0.00028X0.02800*%
%ADD446R,0.00028X0.05404*%
%ADD447R,0.00028X0.08652*%
%ADD448R,0.00028X0.08848*%
%ADD449R,0.00028X0.08764*%
%ADD450R,0.00028X0.08932*%
%ADD451R,0.00028X0.08876*%
%ADD452R,0.00028X0.09072*%
%ADD453R,0.00028X0.03612*%
%ADD454R,0.00028X0.09016*%
%ADD455R,0.00028X0.09212*%
%ADD456R,0.00028X0.09268*%
%ADD457R,0.00028X0.09464*%
%ADD458R,0.00028X0.19124*%
%ADD459R,0.00028X0.05320*%
%ADD460R,0.00028X0.19124*%
%ADD461R,0.00028X0.05320*%
%ADD462R,0.00028X0.03360*%
%ADD463R,0.00028X0.03304*%
%ADD464R,0.00028X0.05292*%
%ADD465R,0.00028X0.03192*%
%ADD466R,0.00028X0.02884*%
%ADD467R,0.00028X0.01904*%
%ADD468R,0.00028X0.16800*%
%ADD469R,0.00028X0.01176*%
%ADD470R,0.00028X0.14532*%
%ADD471R,0.00028X0.00812*%
%ADD472R,0.00028X0.14504*%
%ADD473R,0.00028X0.00840*%
%ADD474R,0.00028X0.14504*%
%ADD475R,0.00028X0.01652*%
%ADD476R,0.00028X0.02128*%
%ADD477R,0.00028X0.01848*%
%ADD478R,0.00028X0.02268*%
%ADD479R,0.00028X0.02548*%
%ADD480R,0.00028X0.03220*%
%ADD481R,0.00028X0.03248*%
%ADD482R,0.00028X0.03612*%
%ADD483R,0.00028X0.03724*%
%ADD484R,0.00028X0.03920*%
%ADD485R,0.00028X0.04060*%
%ADD486R,0.00028X0.04256*%
%ADD487R,0.00028X0.04284*%
%ADD488R,0.00028X0.08512*%
%ADD489R,0.00028X0.09828*%
%ADD490R,0.00028X0.05096*%
%ADD491R,0.00028X0.08512*%
%ADD492R,0.00028X0.27356*%
%ADD493R,0.00028X0.27608*%
%ADD494R,0.00028X0.08540*%
%ADD495R,0.00028X0.06300*%
%ADD496R,0.00028X0.49840*%
%ADD497R,0.00028X0.49812*%
%ADD498R,0.00028X0.49784*%
%ADD499R,0.00028X0.49756*%
%ADD500R,0.00028X0.49728*%
%ADD501R,0.00028X0.49700*%
%ADD502R,0.00028X0.49672*%
%ADD503R,0.00028X0.49644*%
%ADD504R,0.00028X0.49616*%
%ADD505R,0.00028X0.49588*%
%ADD506R,0.00028X0.49560*%
%ADD507R,0.00028X0.49532*%
%ADD508R,0.00028X0.49504*%
%ADD509R,0.00028X0.49448*%
%ADD510R,0.00028X0.49420*%
%ADD511R,0.00028X0.49392*%
%ADD512R,0.00028X0.49364*%
%ADD513R,0.00028X0.49336*%
%ADD514R,0.00028X0.49308*%
%ADD515R,0.00028X0.49252*%
%ADD516R,0.00028X0.49224*%
%ADD517R,0.00028X0.49196*%
%ADD518R,0.00028X0.49140*%
%ADD519R,0.00028X0.49112*%
%ADD520R,0.00028X0.49056*%
%ADD521R,0.00028X0.49000*%
%ADD522R,0.00028X0.48972*%
%ADD523R,0.00028X0.48916*%
%ADD524R,0.00028X0.48860*%
%ADD525R,0.00028X0.48804*%
%ADD526R,0.00028X0.48748*%
%ADD527R,0.00028X0.48692*%
%ADD528R,0.00028X0.48608*%
%ADD529R,0.00028X0.48524*%
%ADD530R,0.00028X0.48468*%
%ADD531R,0.00028X0.48356*%
%ADD532R,0.00028X0.48244*%
%ADD533R,0.00028X0.48104*%
%ADD534R,0.00028X0.47908*%
%ADD535C,0.00800*%
%ADD536C,0.00591*%
D10*
X0130096Y0042222D02*
X0130096Y0042789D01*
X0135196Y0044489D01*
X0135196Y0042222D02*
X0131796Y0043356D01*
X0131796Y0046780D02*
X0131796Y0048197D01*
X0131798Y0048253D01*
X0131803Y0048308D01*
X0131812Y0048363D01*
X0131825Y0048417D01*
X0131841Y0048470D01*
X0131861Y0048522D01*
X0131884Y0048573D01*
X0131910Y0048622D01*
X0131939Y0048669D01*
X0131972Y0048714D01*
X0132007Y0048757D01*
X0132045Y0048798D01*
X0132086Y0048836D01*
X0132129Y0048871D01*
X0132174Y0048904D01*
X0132221Y0048933D01*
X0132270Y0048959D01*
X0132321Y0048982D01*
X0132373Y0049002D01*
X0132426Y0049018D01*
X0132480Y0049031D01*
X0132535Y0049040D01*
X0132590Y0049045D01*
X0132646Y0049047D01*
X0134346Y0049047D01*
X0134402Y0049045D01*
X0134457Y0049040D01*
X0134512Y0049031D01*
X0134566Y0049018D01*
X0134619Y0049002D01*
X0134671Y0048982D01*
X0134722Y0048959D01*
X0134771Y0048933D01*
X0134818Y0048904D01*
X0134863Y0048871D01*
X0134906Y0048836D01*
X0134947Y0048798D01*
X0134985Y0048757D01*
X0135020Y0048714D01*
X0135053Y0048669D01*
X0135082Y0048622D01*
X0135108Y0048573D01*
X0135131Y0048522D01*
X0135151Y0048470D01*
X0135167Y0048417D01*
X0135180Y0048363D01*
X0135189Y0048308D01*
X0135194Y0048253D01*
X0135196Y0048197D01*
X0135196Y0046780D01*
X0130096Y0046780D01*
X0131796Y0051186D02*
X0135196Y0051186D01*
X0136613Y0051327D02*
X0136613Y0051044D01*
X0136896Y0051044D01*
X0136896Y0051327D01*
X0136613Y0051327D01*
X0134346Y0053366D02*
X0132646Y0053366D01*
X0132590Y0053368D01*
X0132535Y0053373D01*
X0132480Y0053382D01*
X0132426Y0053395D01*
X0132373Y0053411D01*
X0132321Y0053431D01*
X0132270Y0053454D01*
X0132221Y0053480D01*
X0132174Y0053509D01*
X0132129Y0053542D01*
X0132086Y0053577D01*
X0132045Y0053615D01*
X0132007Y0053656D01*
X0131972Y0053699D01*
X0131939Y0053744D01*
X0131910Y0053791D01*
X0131884Y0053840D01*
X0131861Y0053891D01*
X0131841Y0053943D01*
X0131825Y0053996D01*
X0131812Y0054050D01*
X0131803Y0054105D01*
X0131798Y0054160D01*
X0131796Y0054216D01*
X0131796Y0055349D01*
X0132930Y0057360D02*
X0134063Y0057360D01*
X0134129Y0057362D01*
X0134195Y0057368D01*
X0134260Y0057377D01*
X0134324Y0057391D01*
X0134388Y0057408D01*
X0134451Y0057428D01*
X0134512Y0057453D01*
X0134571Y0057481D01*
X0134630Y0057512D01*
X0134686Y0057546D01*
X0134740Y0057584D01*
X0134791Y0057625D01*
X0134841Y0057669D01*
X0134887Y0057715D01*
X0134931Y0057765D01*
X0134972Y0057816D01*
X0135010Y0057870D01*
X0135044Y0057927D01*
X0135075Y0057985D01*
X0135103Y0058044D01*
X0135128Y0058105D01*
X0135148Y0058168D01*
X0135165Y0058232D01*
X0135179Y0058296D01*
X0135188Y0058361D01*
X0135194Y0058427D01*
X0135196Y0058493D01*
X0135194Y0058559D01*
X0135188Y0058625D01*
X0135179Y0058690D01*
X0135165Y0058754D01*
X0135148Y0058818D01*
X0135128Y0058881D01*
X0135103Y0058942D01*
X0135075Y0059001D01*
X0135044Y0059060D01*
X0135010Y0059116D01*
X0134972Y0059170D01*
X0134931Y0059221D01*
X0134887Y0059271D01*
X0134841Y0059317D01*
X0134791Y0059361D01*
X0134740Y0059402D01*
X0134686Y0059440D01*
X0134630Y0059474D01*
X0134571Y0059505D01*
X0134512Y0059533D01*
X0134451Y0059558D01*
X0134388Y0059578D01*
X0134324Y0059595D01*
X0134260Y0059609D01*
X0134195Y0059618D01*
X0134129Y0059624D01*
X0134063Y0059626D01*
X0134063Y0059627D02*
X0132930Y0059627D01*
X0132930Y0059626D02*
X0132864Y0059624D01*
X0132798Y0059618D01*
X0132733Y0059609D01*
X0132669Y0059595D01*
X0132605Y0059578D01*
X0132542Y0059558D01*
X0132481Y0059533D01*
X0132422Y0059505D01*
X0132364Y0059474D01*
X0132307Y0059440D01*
X0132253Y0059402D01*
X0132202Y0059361D01*
X0132152Y0059317D01*
X0132106Y0059271D01*
X0132062Y0059221D01*
X0132021Y0059170D01*
X0131983Y0059116D01*
X0131949Y0059060D01*
X0131918Y0059001D01*
X0131890Y0058942D01*
X0131865Y0058881D01*
X0131845Y0058818D01*
X0131828Y0058754D01*
X0131814Y0058690D01*
X0131805Y0058625D01*
X0131799Y0058559D01*
X0131797Y0058493D01*
X0131799Y0058427D01*
X0131805Y0058361D01*
X0131814Y0058296D01*
X0131828Y0058232D01*
X0131845Y0058168D01*
X0131865Y0058105D01*
X0131890Y0058044D01*
X0131918Y0057985D01*
X0131949Y0057927D01*
X0131983Y0057870D01*
X0132021Y0057816D01*
X0132062Y0057765D01*
X0132106Y0057715D01*
X0132152Y0057669D01*
X0132202Y0057625D01*
X0132253Y0057584D01*
X0132307Y0057546D01*
X0132364Y0057512D01*
X0132422Y0057481D01*
X0132481Y0057453D01*
X0132542Y0057428D01*
X0132605Y0057408D01*
X0132669Y0057391D01*
X0132733Y0057377D01*
X0132798Y0057368D01*
X0132864Y0057362D01*
X0132930Y0057360D01*
X0135196Y0055349D02*
X0135196Y0054216D01*
X0135194Y0054160D01*
X0135189Y0054105D01*
X0135180Y0054050D01*
X0135167Y0053996D01*
X0135151Y0053943D01*
X0135131Y0053891D01*
X0135108Y0053840D01*
X0135082Y0053791D01*
X0135053Y0053744D01*
X0135020Y0053699D01*
X0134985Y0053656D01*
X0134947Y0053615D01*
X0134906Y0053577D01*
X0134863Y0053542D01*
X0134818Y0053509D01*
X0134771Y0053480D01*
X0134722Y0053454D01*
X0134671Y0053431D01*
X0134619Y0053411D01*
X0134566Y0053395D01*
X0134512Y0053382D01*
X0134457Y0053373D01*
X0134402Y0053368D01*
X0134346Y0053366D01*
X0132080Y0061658D02*
X0132080Y0061941D01*
X0131796Y0061941D01*
X0131796Y0061658D01*
X0132080Y0061658D01*
X0132646Y0063980D02*
X0134346Y0063980D01*
X0134402Y0063982D01*
X0134457Y0063987D01*
X0134512Y0063996D01*
X0134566Y0064009D01*
X0134619Y0064025D01*
X0134671Y0064045D01*
X0134722Y0064068D01*
X0134771Y0064094D01*
X0134818Y0064123D01*
X0134863Y0064156D01*
X0134906Y0064191D01*
X0134947Y0064229D01*
X0134985Y0064270D01*
X0135020Y0064313D01*
X0135053Y0064358D01*
X0135082Y0064405D01*
X0135108Y0064454D01*
X0135131Y0064505D01*
X0135151Y0064557D01*
X0135167Y0064610D01*
X0135180Y0064664D01*
X0135189Y0064719D01*
X0135194Y0064774D01*
X0135196Y0064830D01*
X0135196Y0065963D01*
X0132646Y0063980D02*
X0132590Y0063982D01*
X0132535Y0063987D01*
X0132480Y0063996D01*
X0132426Y0064009D01*
X0132373Y0064025D01*
X0132321Y0064045D01*
X0132270Y0064068D01*
X0132221Y0064094D01*
X0132174Y0064123D01*
X0132129Y0064156D01*
X0132086Y0064191D01*
X0132045Y0064229D01*
X0132007Y0064270D01*
X0131972Y0064313D01*
X0131939Y0064358D01*
X0131910Y0064405D01*
X0131884Y0064454D01*
X0131861Y0064505D01*
X0131841Y0064557D01*
X0131825Y0064610D01*
X0131812Y0064664D01*
X0131803Y0064719D01*
X0131798Y0064774D01*
X0131796Y0064830D01*
X0131796Y0065963D01*
X0132930Y0067974D02*
X0134063Y0067974D01*
X0134129Y0067976D01*
X0134195Y0067982D01*
X0134260Y0067991D01*
X0134324Y0068005D01*
X0134388Y0068022D01*
X0134451Y0068042D01*
X0134512Y0068067D01*
X0134571Y0068095D01*
X0134630Y0068126D01*
X0134686Y0068160D01*
X0134740Y0068198D01*
X0134791Y0068239D01*
X0134841Y0068283D01*
X0134887Y0068329D01*
X0134931Y0068379D01*
X0134972Y0068430D01*
X0135010Y0068484D01*
X0135044Y0068541D01*
X0135075Y0068599D01*
X0135103Y0068658D01*
X0135128Y0068719D01*
X0135148Y0068782D01*
X0135165Y0068846D01*
X0135179Y0068910D01*
X0135188Y0068975D01*
X0135194Y0069041D01*
X0135196Y0069107D01*
X0135194Y0069173D01*
X0135188Y0069239D01*
X0135179Y0069304D01*
X0135165Y0069368D01*
X0135148Y0069432D01*
X0135128Y0069495D01*
X0135103Y0069556D01*
X0135075Y0069615D01*
X0135044Y0069674D01*
X0135010Y0069730D01*
X0134972Y0069784D01*
X0134931Y0069835D01*
X0134887Y0069885D01*
X0134841Y0069931D01*
X0134791Y0069975D01*
X0134740Y0070016D01*
X0134686Y0070054D01*
X0134630Y0070088D01*
X0134571Y0070119D01*
X0134512Y0070147D01*
X0134451Y0070172D01*
X0134388Y0070192D01*
X0134324Y0070209D01*
X0134260Y0070223D01*
X0134195Y0070232D01*
X0134129Y0070238D01*
X0134063Y0070240D01*
X0134063Y0070241D02*
X0132930Y0070241D01*
X0132930Y0070240D02*
X0132864Y0070238D01*
X0132798Y0070232D01*
X0132733Y0070223D01*
X0132669Y0070209D01*
X0132605Y0070192D01*
X0132542Y0070172D01*
X0132481Y0070147D01*
X0132422Y0070119D01*
X0132364Y0070088D01*
X0132307Y0070054D01*
X0132253Y0070016D01*
X0132202Y0069975D01*
X0132152Y0069931D01*
X0132106Y0069885D01*
X0132062Y0069835D01*
X0132021Y0069784D01*
X0131983Y0069730D01*
X0131949Y0069674D01*
X0131918Y0069615D01*
X0131890Y0069556D01*
X0131865Y0069495D01*
X0131845Y0069432D01*
X0131828Y0069368D01*
X0131814Y0069304D01*
X0131805Y0069239D01*
X0131799Y0069173D01*
X0131797Y0069107D01*
X0131799Y0069041D01*
X0131805Y0068975D01*
X0131814Y0068910D01*
X0131828Y0068846D01*
X0131845Y0068782D01*
X0131865Y0068719D01*
X0131890Y0068658D01*
X0131918Y0068599D01*
X0131949Y0068541D01*
X0131983Y0068484D01*
X0132021Y0068430D01*
X0132062Y0068379D01*
X0132106Y0068329D01*
X0132152Y0068283D01*
X0132202Y0068239D01*
X0132253Y0068198D01*
X0132307Y0068160D01*
X0132364Y0068126D01*
X0132422Y0068095D01*
X0132481Y0068067D01*
X0132542Y0068042D01*
X0132605Y0068022D01*
X0132669Y0068005D01*
X0132733Y0067991D01*
X0132798Y0067982D01*
X0132864Y0067976D01*
X0132930Y0067974D01*
X0131796Y0072801D02*
X0135196Y0072801D01*
X0135196Y0075351D01*
X0135194Y0075407D01*
X0135189Y0075462D01*
X0135180Y0075517D01*
X0135167Y0075571D01*
X0135151Y0075624D01*
X0135131Y0075676D01*
X0135108Y0075727D01*
X0135082Y0075776D01*
X0135053Y0075823D01*
X0135020Y0075868D01*
X0134985Y0075911D01*
X0134947Y0075952D01*
X0134906Y0075990D01*
X0134863Y0076025D01*
X0134818Y0076058D01*
X0134771Y0076087D01*
X0134722Y0076113D01*
X0134671Y0076136D01*
X0134619Y0076156D01*
X0134566Y0076172D01*
X0134512Y0076185D01*
X0134457Y0076194D01*
X0134402Y0076199D01*
X0134346Y0076201D01*
X0131796Y0076201D01*
X0131796Y0074501D02*
X0135196Y0074501D01*
X0134346Y0039965D02*
X0131796Y0039965D01*
X0131796Y0037698D02*
X0135196Y0037698D01*
X0135196Y0039115D01*
X0135194Y0039171D01*
X0135189Y0039226D01*
X0135180Y0039281D01*
X0135167Y0039335D01*
X0135151Y0039388D01*
X0135131Y0039440D01*
X0135108Y0039491D01*
X0135082Y0039540D01*
X0135053Y0039587D01*
X0135020Y0039632D01*
X0134985Y0039675D01*
X0134947Y0039716D01*
X0134906Y0039754D01*
X0134863Y0039789D01*
X0134818Y0039822D01*
X0134771Y0039851D01*
X0134722Y0039877D01*
X0134671Y0039900D01*
X0134619Y0039920D01*
X0134566Y0039936D01*
X0134512Y0039949D01*
X0134457Y0039958D01*
X0134402Y0039963D01*
X0134346Y0039965D01*
X0135196Y0035352D02*
X0131796Y0035352D01*
X0131796Y0033365D02*
X0131796Y0033081D01*
X0131798Y0033025D01*
X0131803Y0032970D01*
X0131812Y0032915D01*
X0131825Y0032861D01*
X0131841Y0032808D01*
X0131861Y0032756D01*
X0131884Y0032705D01*
X0131910Y0032656D01*
X0131939Y0032609D01*
X0131972Y0032564D01*
X0132007Y0032521D01*
X0132045Y0032480D01*
X0132086Y0032442D01*
X0132129Y0032407D01*
X0132174Y0032374D01*
X0132221Y0032345D01*
X0132270Y0032319D01*
X0132321Y0032296D01*
X0132373Y0032276D01*
X0132426Y0032260D01*
X0132480Y0032247D01*
X0132535Y0032238D01*
X0132590Y0032233D01*
X0132646Y0032231D01*
X0136896Y0032231D01*
X0135196Y0031665D02*
X0135196Y0033365D01*
X0136613Y0035210D02*
X0136613Y0035493D01*
X0136896Y0035493D01*
X0136896Y0035210D01*
X0136613Y0035210D01*
D11*
X0081090Y0047783D02*
X0081090Y0051483D01*
X0080062Y0051483D01*
X0079999Y0051481D01*
X0079936Y0051475D01*
X0079873Y0051465D01*
X0079811Y0051452D01*
X0079750Y0051435D01*
X0079691Y0051414D01*
X0079632Y0051389D01*
X0079576Y0051361D01*
X0079521Y0051329D01*
X0079468Y0051294D01*
X0079418Y0051256D01*
X0079369Y0051215D01*
X0079324Y0051171D01*
X0079281Y0051124D01*
X0079242Y0051075D01*
X0079205Y0051023D01*
X0079172Y0050969D01*
X0079142Y0050913D01*
X0079115Y0050856D01*
X0079092Y0050797D01*
X0079073Y0050736D01*
X0079058Y0050675D01*
X0079046Y0050613D01*
X0079038Y0050550D01*
X0079034Y0050487D01*
X0079034Y0050423D01*
X0079038Y0050360D01*
X0079046Y0050297D01*
X0079058Y0050235D01*
X0079073Y0050174D01*
X0079092Y0050113D01*
X0079115Y0050054D01*
X0079142Y0049997D01*
X0079172Y0049941D01*
X0079205Y0049887D01*
X0079242Y0049835D01*
X0079281Y0049786D01*
X0079324Y0049739D01*
X0079369Y0049695D01*
X0079418Y0049654D01*
X0079468Y0049616D01*
X0079521Y0049581D01*
X0079576Y0049549D01*
X0079632Y0049521D01*
X0079691Y0049496D01*
X0079750Y0049475D01*
X0079811Y0049458D01*
X0079873Y0049445D01*
X0079936Y0049435D01*
X0079999Y0049429D01*
X0080062Y0049427D01*
X0080062Y0049428D02*
X0081090Y0049428D01*
X0077118Y0049941D02*
X0075987Y0049325D01*
X0076399Y0047783D02*
X0076480Y0047785D01*
X0076560Y0047790D01*
X0076640Y0047800D01*
X0076720Y0047813D01*
X0076799Y0047830D01*
X0076877Y0047850D01*
X0076954Y0047874D01*
X0077030Y0047902D01*
X0077104Y0047933D01*
X0077177Y0047967D01*
X0077248Y0048005D01*
X0077318Y0048046D01*
X0077385Y0048090D01*
X0077451Y0048137D01*
X0077514Y0048188D01*
X0077574Y0048241D01*
X0077632Y0048297D01*
X0075987Y0049324D02*
X0075941Y0049295D01*
X0075898Y0049263D01*
X0075856Y0049229D01*
X0075817Y0049191D01*
X0075780Y0049152D01*
X0075746Y0049110D01*
X0075714Y0049065D01*
X0075686Y0049019D01*
X0075661Y0048971D01*
X0075638Y0048922D01*
X0075620Y0048871D01*
X0075604Y0048819D01*
X0075592Y0048767D01*
X0075583Y0048713D01*
X0075578Y0048659D01*
X0075576Y0048605D01*
X0075577Y0048605D02*
X0075579Y0048549D01*
X0075585Y0048493D01*
X0075594Y0048438D01*
X0075607Y0048383D01*
X0075624Y0048330D01*
X0075645Y0048278D01*
X0075669Y0048227D01*
X0075697Y0048178D01*
X0075727Y0048131D01*
X0075761Y0048086D01*
X0075798Y0048044D01*
X0075838Y0048004D01*
X0075880Y0047967D01*
X0075925Y0047933D01*
X0075972Y0047903D01*
X0076021Y0047875D01*
X0076072Y0047851D01*
X0076124Y0047830D01*
X0076177Y0047813D01*
X0076232Y0047800D01*
X0076287Y0047791D01*
X0076343Y0047785D01*
X0076399Y0047783D01*
X0073822Y0047783D02*
X0073822Y0051483D01*
X0072794Y0051483D01*
X0072731Y0051481D01*
X0072668Y0051475D01*
X0072605Y0051465D01*
X0072543Y0051452D01*
X0072482Y0051435D01*
X0072423Y0051414D01*
X0072364Y0051389D01*
X0072308Y0051361D01*
X0072253Y0051329D01*
X0072200Y0051294D01*
X0072150Y0051256D01*
X0072101Y0051215D01*
X0072056Y0051171D01*
X0072013Y0051124D01*
X0071974Y0051075D01*
X0071937Y0051023D01*
X0071904Y0050969D01*
X0071874Y0050913D01*
X0071847Y0050856D01*
X0071824Y0050797D01*
X0071805Y0050736D01*
X0071790Y0050675D01*
X0071778Y0050613D01*
X0071770Y0050550D01*
X0071766Y0050487D01*
X0071766Y0050423D01*
X0071770Y0050360D01*
X0071778Y0050297D01*
X0071790Y0050235D01*
X0071805Y0050174D01*
X0071824Y0050113D01*
X0071847Y0050054D01*
X0071874Y0049997D01*
X0071904Y0049941D01*
X0071937Y0049887D01*
X0071974Y0049835D01*
X0072013Y0049786D01*
X0072056Y0049739D01*
X0072101Y0049695D01*
X0072150Y0049654D01*
X0072200Y0049616D01*
X0072253Y0049581D01*
X0072308Y0049549D01*
X0072364Y0049521D01*
X0072423Y0049496D01*
X0072482Y0049475D01*
X0072543Y0049458D01*
X0072605Y0049445D01*
X0072668Y0049435D01*
X0072731Y0049429D01*
X0072794Y0049427D01*
X0072794Y0049428D02*
X0073822Y0049428D01*
X0072588Y0049428D02*
X0071766Y0047783D01*
X0070277Y0047783D02*
X0069044Y0051483D01*
X0067811Y0047783D01*
X0068119Y0048708D02*
X0069969Y0048708D01*
X0066119Y0047783D02*
X0066119Y0051483D01*
X0064886Y0049428D01*
X0063653Y0051483D01*
X0063653Y0047783D01*
X0075782Y0051175D02*
X0075844Y0051219D01*
X0075908Y0051260D01*
X0075974Y0051298D01*
X0076043Y0051332D01*
X0076112Y0051364D01*
X0076183Y0051391D01*
X0076256Y0051415D01*
X0076329Y0051436D01*
X0076404Y0051453D01*
X0076479Y0051466D01*
X0076555Y0051475D01*
X0076631Y0051481D01*
X0076707Y0051483D01*
X0076763Y0051481D01*
X0076819Y0051475D01*
X0076874Y0051466D01*
X0076929Y0051453D01*
X0076982Y0051436D01*
X0077034Y0051415D01*
X0077085Y0051391D01*
X0077134Y0051363D01*
X0077181Y0051333D01*
X0077226Y0051299D01*
X0077268Y0051262D01*
X0077308Y0051222D01*
X0077345Y0051180D01*
X0077379Y0051135D01*
X0077409Y0051088D01*
X0077437Y0051039D01*
X0077461Y0050988D01*
X0077482Y0050936D01*
X0077499Y0050883D01*
X0077512Y0050828D01*
X0077521Y0050773D01*
X0077527Y0050717D01*
X0077529Y0050661D01*
X0077527Y0050607D01*
X0077522Y0050553D01*
X0077513Y0050499D01*
X0077501Y0050447D01*
X0077485Y0050395D01*
X0077467Y0050344D01*
X0077444Y0050295D01*
X0077419Y0050247D01*
X0077391Y0050201D01*
X0077359Y0050156D01*
X0077325Y0050114D01*
X0077288Y0050075D01*
X0077249Y0050037D01*
X0077207Y0050003D01*
X0077164Y0049971D01*
X0077118Y0049942D01*
X0024296Y0051113D02*
X0024296Y0052141D01*
X0024297Y0052141D02*
X0024295Y0052204D01*
X0024289Y0052267D01*
X0024279Y0052330D01*
X0024266Y0052392D01*
X0024249Y0052453D01*
X0024228Y0052512D01*
X0024203Y0052571D01*
X0024175Y0052627D01*
X0024143Y0052682D01*
X0024108Y0052735D01*
X0024070Y0052785D01*
X0024029Y0052834D01*
X0023985Y0052879D01*
X0023938Y0052922D01*
X0023889Y0052961D01*
X0023837Y0052998D01*
X0023783Y0053031D01*
X0023727Y0053061D01*
X0023670Y0053088D01*
X0023611Y0053111D01*
X0023550Y0053130D01*
X0023489Y0053145D01*
X0023427Y0053157D01*
X0023364Y0053165D01*
X0023301Y0053169D01*
X0023237Y0053169D01*
X0023174Y0053165D01*
X0023111Y0053157D01*
X0023049Y0053145D01*
X0022988Y0053130D01*
X0022927Y0053111D01*
X0022868Y0053088D01*
X0022811Y0053061D01*
X0022755Y0053031D01*
X0022701Y0052998D01*
X0022649Y0052961D01*
X0022600Y0052922D01*
X0022553Y0052879D01*
X0022509Y0052834D01*
X0022468Y0052785D01*
X0022430Y0052735D01*
X0022395Y0052682D01*
X0022363Y0052627D01*
X0022335Y0052571D01*
X0022310Y0052512D01*
X0022289Y0052453D01*
X0022272Y0052392D01*
X0022259Y0052330D01*
X0022249Y0052267D01*
X0022243Y0052204D01*
X0022241Y0052141D01*
X0022241Y0051113D01*
X0020596Y0051113D02*
X0024296Y0051113D01*
X0024296Y0054697D02*
X0024296Y0055931D01*
X0024294Y0055987D01*
X0024288Y0056043D01*
X0024279Y0056098D01*
X0024266Y0056153D01*
X0024249Y0056206D01*
X0024228Y0056258D01*
X0024204Y0056309D01*
X0024176Y0056358D01*
X0024146Y0056405D01*
X0024112Y0056450D01*
X0024075Y0056492D01*
X0024035Y0056532D01*
X0023993Y0056569D01*
X0023948Y0056603D01*
X0023901Y0056633D01*
X0023852Y0056661D01*
X0023801Y0056685D01*
X0023749Y0056706D01*
X0023696Y0056723D01*
X0023641Y0056736D01*
X0023586Y0056745D01*
X0023530Y0056751D01*
X0023474Y0056753D01*
X0023418Y0056751D01*
X0023362Y0056745D01*
X0023307Y0056736D01*
X0023252Y0056723D01*
X0023199Y0056706D01*
X0023147Y0056685D01*
X0023096Y0056661D01*
X0023047Y0056633D01*
X0023000Y0056603D01*
X0022955Y0056569D01*
X0022913Y0056532D01*
X0022873Y0056492D01*
X0022836Y0056450D01*
X0022802Y0056405D01*
X0022772Y0056358D01*
X0022744Y0056309D01*
X0022720Y0056258D01*
X0022699Y0056206D01*
X0022682Y0056153D01*
X0022669Y0056098D01*
X0022660Y0056043D01*
X0022654Y0055987D01*
X0022652Y0055931D01*
X0022652Y0055109D01*
X0022652Y0055725D02*
X0022650Y0055788D01*
X0022644Y0055851D01*
X0022634Y0055914D01*
X0022621Y0055976D01*
X0022604Y0056037D01*
X0022583Y0056096D01*
X0022558Y0056155D01*
X0022530Y0056211D01*
X0022498Y0056266D01*
X0022463Y0056319D01*
X0022425Y0056369D01*
X0022384Y0056418D01*
X0022340Y0056463D01*
X0022293Y0056506D01*
X0022244Y0056545D01*
X0022192Y0056582D01*
X0022138Y0056615D01*
X0022082Y0056645D01*
X0022025Y0056672D01*
X0021966Y0056695D01*
X0021905Y0056714D01*
X0021844Y0056729D01*
X0021782Y0056741D01*
X0021719Y0056749D01*
X0021656Y0056753D01*
X0021592Y0056753D01*
X0021529Y0056749D01*
X0021466Y0056741D01*
X0021404Y0056729D01*
X0021343Y0056714D01*
X0021282Y0056695D01*
X0021223Y0056672D01*
X0021166Y0056645D01*
X0021110Y0056615D01*
X0021056Y0056582D01*
X0021004Y0056545D01*
X0020955Y0056506D01*
X0020908Y0056463D01*
X0020864Y0056418D01*
X0020823Y0056369D01*
X0020785Y0056319D01*
X0020750Y0056266D01*
X0020718Y0056211D01*
X0020690Y0056155D01*
X0020665Y0056096D01*
X0020644Y0056037D01*
X0020627Y0055976D01*
X0020614Y0055914D01*
X0020604Y0055851D01*
X0020598Y0055788D01*
X0020596Y0055725D01*
X0020596Y0054697D01*
D12*
X0021151Y0028333D02*
X0019984Y0028333D01*
X0021151Y0028333D02*
X0021207Y0028335D01*
X0021262Y0028341D01*
X0021316Y0028351D01*
X0021370Y0028365D01*
X0021423Y0028382D01*
X0021474Y0028403D01*
X0021524Y0028428D01*
X0021572Y0028457D01*
X0021617Y0028488D01*
X0021660Y0028523D01*
X0021701Y0028561D01*
X0021739Y0028602D01*
X0021774Y0028645D01*
X0021805Y0028690D01*
X0021834Y0028738D01*
X0021859Y0028788D01*
X0021880Y0028839D01*
X0021897Y0028892D01*
X0021911Y0028946D01*
X0021921Y0029000D01*
X0021927Y0029055D01*
X0021929Y0029111D01*
X0021927Y0029167D01*
X0021921Y0029222D01*
X0021911Y0029276D01*
X0021897Y0029330D01*
X0021880Y0029383D01*
X0021859Y0029434D01*
X0021834Y0029484D01*
X0021805Y0029532D01*
X0021774Y0029577D01*
X0021739Y0029620D01*
X0021701Y0029661D01*
X0021660Y0029699D01*
X0021617Y0029734D01*
X0021572Y0029765D01*
X0021524Y0029794D01*
X0021474Y0029819D01*
X0021423Y0029840D01*
X0021370Y0029857D01*
X0021316Y0029871D01*
X0021262Y0029881D01*
X0021207Y0029887D01*
X0021151Y0029889D01*
X0020373Y0029889D01*
X0020956Y0029889D02*
X0021017Y0029891D01*
X0021078Y0029897D01*
X0021138Y0029906D01*
X0021198Y0029920D01*
X0021256Y0029937D01*
X0021314Y0029957D01*
X0021370Y0029982D01*
X0021424Y0030009D01*
X0021477Y0030040D01*
X0021527Y0030075D01*
X0021576Y0030112D01*
X0021621Y0030152D01*
X0021665Y0030196D01*
X0021705Y0030241D01*
X0021742Y0030290D01*
X0021777Y0030340D01*
X0021808Y0030393D01*
X0021835Y0030447D01*
X0021860Y0030503D01*
X0021880Y0030561D01*
X0021897Y0030619D01*
X0021911Y0030679D01*
X0021920Y0030739D01*
X0021926Y0030800D01*
X0021928Y0030861D01*
X0021926Y0030922D01*
X0021920Y0030983D01*
X0021911Y0031043D01*
X0021897Y0031103D01*
X0021880Y0031161D01*
X0021860Y0031219D01*
X0021835Y0031275D01*
X0021808Y0031329D01*
X0021777Y0031382D01*
X0021742Y0031432D01*
X0021705Y0031481D01*
X0021665Y0031526D01*
X0021621Y0031570D01*
X0021576Y0031610D01*
X0021527Y0031647D01*
X0021477Y0031682D01*
X0021424Y0031713D01*
X0021370Y0031740D01*
X0021314Y0031765D01*
X0021256Y0031785D01*
X0021198Y0031802D01*
X0021138Y0031816D01*
X0021078Y0031825D01*
X0021017Y0031831D01*
X0020956Y0031833D01*
X0019984Y0031833D01*
X0018509Y0031833D02*
X0016564Y0031833D01*
X0018217Y0029889D01*
X0017634Y0028333D02*
X0017570Y0028335D01*
X0017506Y0028340D01*
X0017442Y0028349D01*
X0017379Y0028362D01*
X0017317Y0028379D01*
X0017256Y0028398D01*
X0017196Y0028422D01*
X0017138Y0028448D01*
X0017081Y0028478D01*
X0017026Y0028512D01*
X0016973Y0028548D01*
X0016922Y0028587D01*
X0016874Y0028629D01*
X0016827Y0028674D01*
X0016784Y0028721D01*
X0016743Y0028771D01*
X0016706Y0028823D01*
X0016671Y0028877D01*
X0016639Y0028933D01*
X0016611Y0028991D01*
X0016586Y0029050D01*
X0016565Y0029111D01*
X0018217Y0029889D02*
X0018258Y0029847D01*
X0018297Y0029803D01*
X0018332Y0029756D01*
X0018365Y0029708D01*
X0018395Y0029657D01*
X0018421Y0029605D01*
X0018444Y0029551D01*
X0018464Y0029496D01*
X0018480Y0029440D01*
X0018493Y0029383D01*
X0018502Y0029325D01*
X0018507Y0029267D01*
X0018509Y0029208D01*
X0018507Y0029151D01*
X0018502Y0029094D01*
X0018492Y0029037D01*
X0018479Y0028982D01*
X0018463Y0028927D01*
X0018442Y0028873D01*
X0018419Y0028821D01*
X0018392Y0028771D01*
X0018362Y0028722D01*
X0018328Y0028675D01*
X0018292Y0028631D01*
X0018253Y0028589D01*
X0018211Y0028550D01*
X0018167Y0028514D01*
X0018120Y0028480D01*
X0018072Y0028450D01*
X0018021Y0028423D01*
X0017969Y0028400D01*
X0017915Y0028379D01*
X0017860Y0028363D01*
X0017805Y0028350D01*
X0017748Y0028340D01*
X0017691Y0028335D01*
X0017634Y0028333D01*
X0026564Y0029111D02*
X0027536Y0028333D01*
X0027536Y0031833D01*
X0026564Y0031833D02*
X0028509Y0031833D01*
X0030373Y0031834D02*
X0030449Y0031832D01*
X0030526Y0031827D01*
X0030601Y0031817D01*
X0030677Y0031804D01*
X0030751Y0031787D01*
X0030825Y0031767D01*
X0030897Y0031743D01*
X0030968Y0031716D01*
X0031038Y0031685D01*
X0031106Y0031650D01*
X0031173Y0031613D01*
X0031237Y0031572D01*
X0031300Y0031528D01*
X0031360Y0031481D01*
X0031418Y0031431D01*
X0031473Y0031378D01*
X0031526Y0031323D01*
X0031576Y0031265D01*
X0031623Y0031205D01*
X0031667Y0031142D01*
X0031708Y0031078D01*
X0031745Y0031011D01*
X0031780Y0030943D01*
X0031811Y0030873D01*
X0031838Y0030802D01*
X0031862Y0030730D01*
X0031882Y0030656D01*
X0031899Y0030582D01*
X0031912Y0030506D01*
X0031922Y0030431D01*
X0031927Y0030354D01*
X0031929Y0030278D01*
X0031929Y0029305D01*
X0031928Y0029305D02*
X0031926Y0029244D01*
X0031920Y0029183D01*
X0031911Y0029123D01*
X0031897Y0029063D01*
X0031880Y0029005D01*
X0031860Y0028947D01*
X0031835Y0028891D01*
X0031808Y0028837D01*
X0031777Y0028784D01*
X0031742Y0028734D01*
X0031705Y0028685D01*
X0031665Y0028640D01*
X0031621Y0028596D01*
X0031576Y0028556D01*
X0031527Y0028519D01*
X0031477Y0028484D01*
X0031424Y0028453D01*
X0031370Y0028426D01*
X0031314Y0028401D01*
X0031256Y0028381D01*
X0031198Y0028364D01*
X0031138Y0028350D01*
X0031078Y0028341D01*
X0031017Y0028335D01*
X0030956Y0028333D01*
X0030895Y0028335D01*
X0030834Y0028341D01*
X0030774Y0028350D01*
X0030714Y0028364D01*
X0030656Y0028381D01*
X0030598Y0028401D01*
X0030542Y0028426D01*
X0030488Y0028453D01*
X0030435Y0028484D01*
X0030385Y0028519D01*
X0030336Y0028556D01*
X0030291Y0028596D01*
X0030247Y0028640D01*
X0030207Y0028685D01*
X0030170Y0028734D01*
X0030135Y0028784D01*
X0030104Y0028837D01*
X0030077Y0028891D01*
X0030052Y0028947D01*
X0030032Y0029005D01*
X0030015Y0029063D01*
X0030001Y0029123D01*
X0029992Y0029183D01*
X0029986Y0029244D01*
X0029984Y0029305D01*
X0029984Y0029500D01*
X0029986Y0029556D01*
X0029992Y0029611D01*
X0030002Y0029665D01*
X0030016Y0029719D01*
X0030033Y0029772D01*
X0030054Y0029823D01*
X0030079Y0029873D01*
X0030108Y0029921D01*
X0030139Y0029966D01*
X0030174Y0030009D01*
X0030212Y0030050D01*
X0030253Y0030088D01*
X0030296Y0030123D01*
X0030341Y0030154D01*
X0030389Y0030183D01*
X0030439Y0030208D01*
X0030490Y0030229D01*
X0030543Y0030246D01*
X0030597Y0030260D01*
X0030651Y0030270D01*
X0030706Y0030276D01*
X0030762Y0030278D01*
X0031929Y0030278D01*
X0036564Y0029111D02*
X0037536Y0028333D01*
X0037536Y0031833D01*
X0036564Y0031833D02*
X0038509Y0031833D01*
X0039984Y0030861D02*
X0039986Y0030922D01*
X0039992Y0030983D01*
X0040001Y0031043D01*
X0040015Y0031103D01*
X0040032Y0031161D01*
X0040052Y0031219D01*
X0040077Y0031275D01*
X0040104Y0031329D01*
X0040135Y0031382D01*
X0040170Y0031432D01*
X0040207Y0031481D01*
X0040247Y0031526D01*
X0040291Y0031570D01*
X0040336Y0031610D01*
X0040385Y0031647D01*
X0040435Y0031682D01*
X0040488Y0031713D01*
X0040542Y0031740D01*
X0040598Y0031765D01*
X0040656Y0031785D01*
X0040714Y0031802D01*
X0040774Y0031816D01*
X0040834Y0031825D01*
X0040895Y0031831D01*
X0040956Y0031833D01*
X0041017Y0031831D01*
X0041078Y0031825D01*
X0041138Y0031816D01*
X0041198Y0031802D01*
X0041256Y0031785D01*
X0041314Y0031765D01*
X0041370Y0031740D01*
X0041424Y0031713D01*
X0041477Y0031682D01*
X0041527Y0031647D01*
X0041576Y0031610D01*
X0041621Y0031570D01*
X0041665Y0031526D01*
X0041705Y0031481D01*
X0041742Y0031432D01*
X0041777Y0031382D01*
X0041808Y0031329D01*
X0041835Y0031275D01*
X0041860Y0031219D01*
X0041880Y0031161D01*
X0041897Y0031103D01*
X0041911Y0031043D01*
X0041920Y0030983D01*
X0041926Y0030922D01*
X0041928Y0030861D01*
X0041926Y0030800D01*
X0041920Y0030739D01*
X0041911Y0030679D01*
X0041897Y0030619D01*
X0041880Y0030561D01*
X0041860Y0030503D01*
X0041835Y0030447D01*
X0041808Y0030393D01*
X0041777Y0030340D01*
X0041742Y0030290D01*
X0041705Y0030241D01*
X0041665Y0030196D01*
X0041621Y0030152D01*
X0041576Y0030112D01*
X0041527Y0030075D01*
X0041477Y0030040D01*
X0041424Y0030009D01*
X0041370Y0029982D01*
X0041314Y0029957D01*
X0041256Y0029937D01*
X0041198Y0029920D01*
X0041138Y0029906D01*
X0041078Y0029897D01*
X0041017Y0029891D01*
X0040956Y0029889D01*
X0040895Y0029891D01*
X0040834Y0029897D01*
X0040774Y0029906D01*
X0040714Y0029920D01*
X0040656Y0029937D01*
X0040598Y0029957D01*
X0040542Y0029982D01*
X0040488Y0030009D01*
X0040435Y0030040D01*
X0040385Y0030075D01*
X0040336Y0030112D01*
X0040291Y0030152D01*
X0040247Y0030196D01*
X0040207Y0030241D01*
X0040170Y0030290D01*
X0040135Y0030340D01*
X0040104Y0030393D01*
X0040077Y0030447D01*
X0040052Y0030503D01*
X0040032Y0030561D01*
X0040015Y0030619D01*
X0040001Y0030679D01*
X0039992Y0030739D01*
X0039986Y0030800D01*
X0039984Y0030861D01*
X0040178Y0029111D02*
X0040180Y0029167D01*
X0040186Y0029222D01*
X0040196Y0029276D01*
X0040210Y0029330D01*
X0040227Y0029383D01*
X0040248Y0029434D01*
X0040273Y0029484D01*
X0040302Y0029532D01*
X0040333Y0029577D01*
X0040368Y0029620D01*
X0040406Y0029661D01*
X0040447Y0029699D01*
X0040490Y0029734D01*
X0040535Y0029765D01*
X0040583Y0029794D01*
X0040633Y0029819D01*
X0040684Y0029840D01*
X0040737Y0029857D01*
X0040791Y0029871D01*
X0040845Y0029881D01*
X0040900Y0029887D01*
X0040956Y0029889D01*
X0041012Y0029887D01*
X0041067Y0029881D01*
X0041121Y0029871D01*
X0041175Y0029857D01*
X0041228Y0029840D01*
X0041279Y0029819D01*
X0041329Y0029794D01*
X0041377Y0029765D01*
X0041422Y0029734D01*
X0041465Y0029699D01*
X0041506Y0029661D01*
X0041544Y0029620D01*
X0041579Y0029577D01*
X0041610Y0029532D01*
X0041639Y0029484D01*
X0041664Y0029434D01*
X0041685Y0029383D01*
X0041702Y0029330D01*
X0041716Y0029276D01*
X0041726Y0029222D01*
X0041732Y0029167D01*
X0041734Y0029111D01*
X0041732Y0029055D01*
X0041726Y0029000D01*
X0041716Y0028946D01*
X0041702Y0028892D01*
X0041685Y0028839D01*
X0041664Y0028788D01*
X0041639Y0028738D01*
X0041610Y0028690D01*
X0041579Y0028645D01*
X0041544Y0028602D01*
X0041506Y0028561D01*
X0041465Y0028523D01*
X0041422Y0028488D01*
X0041377Y0028457D01*
X0041329Y0028428D01*
X0041279Y0028403D01*
X0041228Y0028382D01*
X0041175Y0028365D01*
X0041121Y0028351D01*
X0041067Y0028341D01*
X0041012Y0028335D01*
X0040956Y0028333D01*
X0040900Y0028335D01*
X0040845Y0028341D01*
X0040791Y0028351D01*
X0040737Y0028365D01*
X0040684Y0028382D01*
X0040633Y0028403D01*
X0040583Y0028428D01*
X0040535Y0028457D01*
X0040490Y0028488D01*
X0040447Y0028523D01*
X0040406Y0028561D01*
X0040368Y0028602D01*
X0040333Y0028645D01*
X0040302Y0028690D01*
X0040273Y0028738D01*
X0040248Y0028788D01*
X0040227Y0028839D01*
X0040210Y0028892D01*
X0040196Y0028946D01*
X0040186Y0029000D01*
X0040180Y0029055D01*
X0040178Y0029111D01*
X0048274Y0029889D02*
X0048274Y0028333D01*
X0050219Y0028333D01*
X0049441Y0029889D02*
X0048274Y0029889D01*
X0049441Y0029888D02*
X0049497Y0029890D01*
X0049552Y0029896D01*
X0049606Y0029906D01*
X0049660Y0029920D01*
X0049713Y0029937D01*
X0049764Y0029958D01*
X0049814Y0029983D01*
X0049862Y0030012D01*
X0049907Y0030043D01*
X0049950Y0030078D01*
X0049991Y0030116D01*
X0050029Y0030157D01*
X0050064Y0030200D01*
X0050095Y0030245D01*
X0050124Y0030293D01*
X0050149Y0030343D01*
X0050170Y0030394D01*
X0050187Y0030447D01*
X0050201Y0030501D01*
X0050211Y0030555D01*
X0050217Y0030610D01*
X0050219Y0030666D01*
X0050219Y0031055D01*
X0050217Y0031111D01*
X0050211Y0031166D01*
X0050201Y0031220D01*
X0050187Y0031274D01*
X0050170Y0031327D01*
X0050149Y0031378D01*
X0050124Y0031428D01*
X0050095Y0031476D01*
X0050064Y0031521D01*
X0050029Y0031564D01*
X0049991Y0031605D01*
X0049950Y0031643D01*
X0049907Y0031678D01*
X0049862Y0031710D01*
X0049814Y0031738D01*
X0049764Y0031763D01*
X0049713Y0031784D01*
X0049660Y0031801D01*
X0049606Y0031815D01*
X0049552Y0031825D01*
X0049497Y0031831D01*
X0049441Y0031833D01*
X0048274Y0031833D01*
X0056564Y0031833D02*
X0058509Y0031833D01*
X0059984Y0031833D02*
X0061929Y0031833D01*
X0059984Y0031833D02*
X0061637Y0029889D01*
X0061054Y0028333D02*
X0060990Y0028335D01*
X0060926Y0028340D01*
X0060862Y0028349D01*
X0060799Y0028362D01*
X0060737Y0028379D01*
X0060676Y0028398D01*
X0060616Y0028422D01*
X0060558Y0028448D01*
X0060501Y0028478D01*
X0060446Y0028512D01*
X0060393Y0028548D01*
X0060342Y0028587D01*
X0060294Y0028629D01*
X0060247Y0028674D01*
X0060204Y0028721D01*
X0060163Y0028771D01*
X0060126Y0028823D01*
X0060091Y0028877D01*
X0060059Y0028933D01*
X0060031Y0028991D01*
X0060006Y0029050D01*
X0059985Y0029111D01*
X0061637Y0029889D02*
X0061678Y0029847D01*
X0061717Y0029803D01*
X0061752Y0029756D01*
X0061785Y0029708D01*
X0061815Y0029657D01*
X0061841Y0029605D01*
X0061864Y0029551D01*
X0061884Y0029496D01*
X0061900Y0029440D01*
X0061913Y0029383D01*
X0061922Y0029325D01*
X0061927Y0029267D01*
X0061929Y0029208D01*
X0061927Y0029151D01*
X0061922Y0029094D01*
X0061912Y0029037D01*
X0061899Y0028982D01*
X0061883Y0028927D01*
X0061862Y0028873D01*
X0061839Y0028821D01*
X0061812Y0028771D01*
X0061782Y0028722D01*
X0061748Y0028675D01*
X0061712Y0028631D01*
X0061673Y0028589D01*
X0061631Y0028550D01*
X0061587Y0028514D01*
X0061540Y0028480D01*
X0061492Y0028450D01*
X0061441Y0028423D01*
X0061389Y0028400D01*
X0061335Y0028379D01*
X0061280Y0028363D01*
X0061225Y0028350D01*
X0061168Y0028340D01*
X0061111Y0028335D01*
X0061054Y0028333D01*
X0058217Y0029889D02*
X0056564Y0031833D01*
X0056565Y0029111D02*
X0056586Y0029050D01*
X0056611Y0028991D01*
X0056639Y0028933D01*
X0056671Y0028877D01*
X0056706Y0028823D01*
X0056743Y0028771D01*
X0056784Y0028721D01*
X0056827Y0028674D01*
X0056874Y0028629D01*
X0056922Y0028587D01*
X0056973Y0028548D01*
X0057026Y0028512D01*
X0057081Y0028478D01*
X0057138Y0028448D01*
X0057196Y0028422D01*
X0057256Y0028398D01*
X0057317Y0028379D01*
X0057379Y0028362D01*
X0057442Y0028349D01*
X0057506Y0028340D01*
X0057570Y0028335D01*
X0057634Y0028333D01*
X0057691Y0028335D01*
X0057748Y0028340D01*
X0057805Y0028350D01*
X0057860Y0028363D01*
X0057915Y0028379D01*
X0057969Y0028400D01*
X0058021Y0028423D01*
X0058072Y0028450D01*
X0058120Y0028480D01*
X0058167Y0028514D01*
X0058211Y0028550D01*
X0058253Y0028589D01*
X0058292Y0028631D01*
X0058328Y0028675D01*
X0058362Y0028722D01*
X0058392Y0028771D01*
X0058419Y0028821D01*
X0058442Y0028873D01*
X0058463Y0028927D01*
X0058479Y0028982D01*
X0058492Y0029037D01*
X0058502Y0029094D01*
X0058507Y0029151D01*
X0058509Y0029208D01*
X0058507Y0029267D01*
X0058502Y0029325D01*
X0058493Y0029383D01*
X0058480Y0029440D01*
X0058464Y0029496D01*
X0058444Y0029551D01*
X0058421Y0029605D01*
X0058395Y0029657D01*
X0058365Y0029708D01*
X0058332Y0029756D01*
X0058297Y0029803D01*
X0058258Y0029847D01*
X0058217Y0029889D01*
X0066564Y0031833D02*
X0068509Y0031833D01*
X0069984Y0031833D02*
X0071929Y0031833D01*
X0070956Y0031833D02*
X0070956Y0028333D01*
X0069984Y0029111D01*
X0068217Y0029889D02*
X0066564Y0031833D01*
X0066565Y0029111D02*
X0066586Y0029050D01*
X0066611Y0028991D01*
X0066639Y0028933D01*
X0066671Y0028877D01*
X0066706Y0028823D01*
X0066743Y0028771D01*
X0066784Y0028721D01*
X0066827Y0028674D01*
X0066874Y0028629D01*
X0066922Y0028587D01*
X0066973Y0028548D01*
X0067026Y0028512D01*
X0067081Y0028478D01*
X0067138Y0028448D01*
X0067196Y0028422D01*
X0067256Y0028398D01*
X0067317Y0028379D01*
X0067379Y0028362D01*
X0067442Y0028349D01*
X0067506Y0028340D01*
X0067570Y0028335D01*
X0067634Y0028333D01*
X0067691Y0028335D01*
X0067748Y0028340D01*
X0067805Y0028350D01*
X0067860Y0028363D01*
X0067915Y0028379D01*
X0067969Y0028400D01*
X0068021Y0028423D01*
X0068072Y0028450D01*
X0068120Y0028480D01*
X0068167Y0028514D01*
X0068211Y0028550D01*
X0068253Y0028589D01*
X0068292Y0028631D01*
X0068328Y0028675D01*
X0068362Y0028722D01*
X0068392Y0028771D01*
X0068419Y0028821D01*
X0068442Y0028873D01*
X0068463Y0028927D01*
X0068479Y0028982D01*
X0068492Y0029037D01*
X0068502Y0029094D01*
X0068507Y0029151D01*
X0068509Y0029208D01*
X0068507Y0029267D01*
X0068502Y0029325D01*
X0068493Y0029383D01*
X0068480Y0029440D01*
X0068464Y0029496D01*
X0068444Y0029551D01*
X0068421Y0029605D01*
X0068395Y0029657D01*
X0068365Y0029708D01*
X0068332Y0029756D01*
X0068297Y0029803D01*
X0068258Y0029847D01*
X0068217Y0029889D01*
X0076564Y0028333D02*
X0077731Y0028333D01*
X0077787Y0028335D01*
X0077842Y0028341D01*
X0077896Y0028351D01*
X0077950Y0028365D01*
X0078003Y0028382D01*
X0078054Y0028403D01*
X0078104Y0028428D01*
X0078152Y0028457D01*
X0078197Y0028488D01*
X0078240Y0028523D01*
X0078281Y0028561D01*
X0078319Y0028602D01*
X0078354Y0028645D01*
X0078385Y0028690D01*
X0078414Y0028738D01*
X0078439Y0028788D01*
X0078460Y0028839D01*
X0078477Y0028892D01*
X0078491Y0028946D01*
X0078501Y0029000D01*
X0078507Y0029055D01*
X0078509Y0029111D01*
X0078507Y0029167D01*
X0078501Y0029222D01*
X0078491Y0029276D01*
X0078477Y0029330D01*
X0078460Y0029383D01*
X0078439Y0029434D01*
X0078414Y0029484D01*
X0078385Y0029532D01*
X0078354Y0029577D01*
X0078319Y0029620D01*
X0078281Y0029661D01*
X0078240Y0029699D01*
X0078197Y0029734D01*
X0078152Y0029765D01*
X0078104Y0029794D01*
X0078054Y0029819D01*
X0078003Y0029840D01*
X0077950Y0029857D01*
X0077896Y0029871D01*
X0077842Y0029881D01*
X0077787Y0029887D01*
X0077731Y0029889D01*
X0076953Y0029889D01*
X0077536Y0029889D02*
X0077597Y0029891D01*
X0077658Y0029897D01*
X0077718Y0029906D01*
X0077778Y0029920D01*
X0077836Y0029937D01*
X0077894Y0029957D01*
X0077950Y0029982D01*
X0078004Y0030009D01*
X0078057Y0030040D01*
X0078107Y0030075D01*
X0078156Y0030112D01*
X0078201Y0030152D01*
X0078245Y0030196D01*
X0078285Y0030241D01*
X0078322Y0030290D01*
X0078357Y0030340D01*
X0078388Y0030393D01*
X0078415Y0030447D01*
X0078440Y0030503D01*
X0078460Y0030561D01*
X0078477Y0030619D01*
X0078491Y0030679D01*
X0078500Y0030739D01*
X0078506Y0030800D01*
X0078508Y0030861D01*
X0078506Y0030922D01*
X0078500Y0030983D01*
X0078491Y0031043D01*
X0078477Y0031103D01*
X0078460Y0031161D01*
X0078440Y0031219D01*
X0078415Y0031275D01*
X0078388Y0031329D01*
X0078357Y0031382D01*
X0078322Y0031432D01*
X0078285Y0031481D01*
X0078245Y0031526D01*
X0078201Y0031570D01*
X0078156Y0031610D01*
X0078107Y0031647D01*
X0078057Y0031682D01*
X0078004Y0031713D01*
X0077950Y0031740D01*
X0077894Y0031765D01*
X0077836Y0031785D01*
X0077778Y0031802D01*
X0077718Y0031816D01*
X0077658Y0031825D01*
X0077597Y0031831D01*
X0077536Y0031833D01*
X0076564Y0031833D01*
X0079984Y0031833D02*
X0081929Y0031833D01*
X0079984Y0031833D02*
X0081637Y0029889D01*
X0081054Y0028333D02*
X0080990Y0028335D01*
X0080926Y0028340D01*
X0080862Y0028349D01*
X0080799Y0028362D01*
X0080737Y0028379D01*
X0080676Y0028398D01*
X0080616Y0028422D01*
X0080558Y0028448D01*
X0080501Y0028478D01*
X0080446Y0028512D01*
X0080393Y0028548D01*
X0080342Y0028587D01*
X0080294Y0028629D01*
X0080247Y0028674D01*
X0080204Y0028721D01*
X0080163Y0028771D01*
X0080126Y0028823D01*
X0080091Y0028877D01*
X0080059Y0028933D01*
X0080031Y0028991D01*
X0080006Y0029050D01*
X0079985Y0029111D01*
X0081637Y0029889D02*
X0081678Y0029847D01*
X0081717Y0029803D01*
X0081752Y0029756D01*
X0081785Y0029708D01*
X0081815Y0029657D01*
X0081841Y0029605D01*
X0081864Y0029551D01*
X0081884Y0029496D01*
X0081900Y0029440D01*
X0081913Y0029383D01*
X0081922Y0029325D01*
X0081927Y0029267D01*
X0081929Y0029208D01*
X0081927Y0029151D01*
X0081922Y0029094D01*
X0081912Y0029037D01*
X0081899Y0028982D01*
X0081883Y0028927D01*
X0081862Y0028873D01*
X0081839Y0028821D01*
X0081812Y0028771D01*
X0081782Y0028722D01*
X0081748Y0028675D01*
X0081712Y0028631D01*
X0081673Y0028589D01*
X0081631Y0028550D01*
X0081587Y0028514D01*
X0081540Y0028480D01*
X0081492Y0028450D01*
X0081441Y0028423D01*
X0081389Y0028400D01*
X0081335Y0028379D01*
X0081280Y0028363D01*
X0081225Y0028350D01*
X0081168Y0028340D01*
X0081111Y0028335D01*
X0081054Y0028333D01*
X0086564Y0028333D02*
X0087731Y0028333D01*
X0087787Y0028335D01*
X0087842Y0028341D01*
X0087896Y0028351D01*
X0087950Y0028365D01*
X0088003Y0028382D01*
X0088054Y0028403D01*
X0088104Y0028428D01*
X0088152Y0028457D01*
X0088197Y0028488D01*
X0088240Y0028523D01*
X0088281Y0028561D01*
X0088319Y0028602D01*
X0088354Y0028645D01*
X0088385Y0028690D01*
X0088414Y0028738D01*
X0088439Y0028788D01*
X0088460Y0028839D01*
X0088477Y0028892D01*
X0088491Y0028946D01*
X0088501Y0029000D01*
X0088507Y0029055D01*
X0088509Y0029111D01*
X0088507Y0029167D01*
X0088501Y0029222D01*
X0088491Y0029276D01*
X0088477Y0029330D01*
X0088460Y0029383D01*
X0088439Y0029434D01*
X0088414Y0029484D01*
X0088385Y0029532D01*
X0088354Y0029577D01*
X0088319Y0029620D01*
X0088281Y0029661D01*
X0088240Y0029699D01*
X0088197Y0029734D01*
X0088152Y0029765D01*
X0088104Y0029794D01*
X0088054Y0029819D01*
X0088003Y0029840D01*
X0087950Y0029857D01*
X0087896Y0029871D01*
X0087842Y0029881D01*
X0087787Y0029887D01*
X0087731Y0029889D01*
X0086953Y0029889D01*
X0087536Y0029889D02*
X0087597Y0029891D01*
X0087658Y0029897D01*
X0087718Y0029906D01*
X0087778Y0029920D01*
X0087836Y0029937D01*
X0087894Y0029957D01*
X0087950Y0029982D01*
X0088004Y0030009D01*
X0088057Y0030040D01*
X0088107Y0030075D01*
X0088156Y0030112D01*
X0088201Y0030152D01*
X0088245Y0030196D01*
X0088285Y0030241D01*
X0088322Y0030290D01*
X0088357Y0030340D01*
X0088388Y0030393D01*
X0088415Y0030447D01*
X0088440Y0030503D01*
X0088460Y0030561D01*
X0088477Y0030619D01*
X0088491Y0030679D01*
X0088500Y0030739D01*
X0088506Y0030800D01*
X0088508Y0030861D01*
X0088506Y0030922D01*
X0088500Y0030983D01*
X0088491Y0031043D01*
X0088477Y0031103D01*
X0088460Y0031161D01*
X0088440Y0031219D01*
X0088415Y0031275D01*
X0088388Y0031329D01*
X0088357Y0031382D01*
X0088322Y0031432D01*
X0088285Y0031481D01*
X0088245Y0031526D01*
X0088201Y0031570D01*
X0088156Y0031610D01*
X0088107Y0031647D01*
X0088057Y0031682D01*
X0088004Y0031713D01*
X0087950Y0031740D01*
X0087894Y0031765D01*
X0087836Y0031785D01*
X0087778Y0031802D01*
X0087718Y0031816D01*
X0087658Y0031825D01*
X0087597Y0031831D01*
X0087536Y0031833D01*
X0086564Y0031833D01*
X0089984Y0031833D02*
X0090956Y0031833D01*
X0091017Y0031831D01*
X0091078Y0031825D01*
X0091138Y0031816D01*
X0091198Y0031802D01*
X0091256Y0031785D01*
X0091314Y0031765D01*
X0091370Y0031740D01*
X0091424Y0031713D01*
X0091477Y0031682D01*
X0091527Y0031647D01*
X0091576Y0031610D01*
X0091621Y0031570D01*
X0091665Y0031526D01*
X0091705Y0031481D01*
X0091742Y0031432D01*
X0091777Y0031382D01*
X0091808Y0031329D01*
X0091835Y0031275D01*
X0091860Y0031219D01*
X0091880Y0031161D01*
X0091897Y0031103D01*
X0091911Y0031043D01*
X0091920Y0030983D01*
X0091926Y0030922D01*
X0091928Y0030861D01*
X0091926Y0030800D01*
X0091920Y0030739D01*
X0091911Y0030679D01*
X0091897Y0030619D01*
X0091880Y0030561D01*
X0091860Y0030503D01*
X0091835Y0030447D01*
X0091808Y0030393D01*
X0091777Y0030340D01*
X0091742Y0030290D01*
X0091705Y0030241D01*
X0091665Y0030196D01*
X0091621Y0030152D01*
X0091576Y0030112D01*
X0091527Y0030075D01*
X0091477Y0030040D01*
X0091424Y0030009D01*
X0091370Y0029982D01*
X0091314Y0029957D01*
X0091256Y0029937D01*
X0091198Y0029920D01*
X0091138Y0029906D01*
X0091078Y0029897D01*
X0091017Y0029891D01*
X0090956Y0029889D01*
X0091151Y0029889D02*
X0090373Y0029889D01*
X0091151Y0029889D02*
X0091207Y0029887D01*
X0091262Y0029881D01*
X0091316Y0029871D01*
X0091370Y0029857D01*
X0091423Y0029840D01*
X0091474Y0029819D01*
X0091524Y0029794D01*
X0091572Y0029765D01*
X0091617Y0029734D01*
X0091660Y0029699D01*
X0091701Y0029661D01*
X0091739Y0029620D01*
X0091774Y0029577D01*
X0091805Y0029532D01*
X0091834Y0029484D01*
X0091859Y0029434D01*
X0091880Y0029383D01*
X0091897Y0029330D01*
X0091911Y0029276D01*
X0091921Y0029222D01*
X0091927Y0029167D01*
X0091929Y0029111D01*
X0091927Y0029055D01*
X0091921Y0029000D01*
X0091911Y0028946D01*
X0091897Y0028892D01*
X0091880Y0028839D01*
X0091859Y0028788D01*
X0091834Y0028738D01*
X0091805Y0028690D01*
X0091774Y0028645D01*
X0091739Y0028602D01*
X0091701Y0028561D01*
X0091660Y0028523D01*
X0091617Y0028488D01*
X0091572Y0028457D01*
X0091524Y0028428D01*
X0091474Y0028403D01*
X0091423Y0028382D01*
X0091370Y0028365D01*
X0091316Y0028351D01*
X0091262Y0028341D01*
X0091207Y0028335D01*
X0091151Y0028333D01*
X0089984Y0028333D01*
X0097596Y0028333D02*
X0100896Y0028333D01*
X0100896Y0029250D01*
X0100897Y0029250D02*
X0100895Y0029309D01*
X0100889Y0029367D01*
X0100880Y0029425D01*
X0100867Y0029483D01*
X0100850Y0029539D01*
X0100830Y0029594D01*
X0100806Y0029648D01*
X0100779Y0029700D01*
X0100749Y0029750D01*
X0100715Y0029798D01*
X0100678Y0029844D01*
X0100639Y0029888D01*
X0100596Y0029929D01*
X0100552Y0029967D01*
X0100505Y0030002D01*
X0100455Y0030034D01*
X0100404Y0030063D01*
X0100351Y0030089D01*
X0100297Y0030111D01*
X0100241Y0030129D01*
X0100184Y0030144D01*
X0100126Y0030155D01*
X0100068Y0030163D01*
X0100009Y0030167D01*
X0099951Y0030167D01*
X0099892Y0030163D01*
X0099834Y0030155D01*
X0099776Y0030144D01*
X0099719Y0030129D01*
X0099663Y0030111D01*
X0099609Y0030089D01*
X0099556Y0030063D01*
X0099505Y0030034D01*
X0099455Y0030002D01*
X0099408Y0029967D01*
X0099364Y0029929D01*
X0099321Y0029888D01*
X0099282Y0029844D01*
X0099245Y0029798D01*
X0099211Y0029750D01*
X0099181Y0029700D01*
X0099154Y0029648D01*
X0099130Y0029594D01*
X0099110Y0029539D01*
X0099093Y0029483D01*
X0099080Y0029425D01*
X0099071Y0029367D01*
X0099065Y0029309D01*
X0099063Y0029250D01*
X0099063Y0028333D01*
X0099063Y0029433D02*
X0097596Y0030166D01*
X0099521Y0031902D02*
X0098971Y0032910D01*
X0097597Y0032544D02*
X0097599Y0032468D01*
X0097605Y0032391D01*
X0097614Y0032316D01*
X0097627Y0032240D01*
X0097644Y0032166D01*
X0097664Y0032092D01*
X0097689Y0032019D01*
X0097716Y0031948D01*
X0097747Y0031878D01*
X0097782Y0031810D01*
X0097820Y0031744D01*
X0097861Y0031679D01*
X0097905Y0031617D01*
X0097952Y0031557D01*
X0098002Y0031499D01*
X0098055Y0031444D01*
X0098972Y0032910D02*
X0098944Y0032954D01*
X0098914Y0032995D01*
X0098880Y0033034D01*
X0098844Y0033071D01*
X0098805Y0033106D01*
X0098765Y0033137D01*
X0098722Y0033166D01*
X0098677Y0033191D01*
X0098631Y0033214D01*
X0098583Y0033233D01*
X0098534Y0033249D01*
X0098484Y0033261D01*
X0098433Y0033270D01*
X0098382Y0033275D01*
X0098330Y0033277D01*
X0098278Y0033275D01*
X0098226Y0033270D01*
X0098174Y0033260D01*
X0098123Y0033247D01*
X0098074Y0033231D01*
X0098026Y0033211D01*
X0097979Y0033187D01*
X0097934Y0033161D01*
X0097891Y0033131D01*
X0097850Y0033098D01*
X0097812Y0033062D01*
X0097776Y0033024D01*
X0097743Y0032983D01*
X0097713Y0032940D01*
X0097687Y0032895D01*
X0097663Y0032849D01*
X0097643Y0032800D01*
X0097627Y0032751D01*
X0097614Y0032700D01*
X0097604Y0032648D01*
X0097599Y0032596D01*
X0097597Y0032544D01*
X0100621Y0033094D02*
X0100664Y0033034D01*
X0100703Y0032972D01*
X0100739Y0032907D01*
X0100771Y0032841D01*
X0100800Y0032773D01*
X0100825Y0032704D01*
X0100847Y0032633D01*
X0100864Y0032562D01*
X0100878Y0032489D01*
X0100888Y0032416D01*
X0100894Y0032343D01*
X0100896Y0032269D01*
X0100894Y0032217D01*
X0100889Y0032165D01*
X0100879Y0032113D01*
X0100866Y0032062D01*
X0100850Y0032013D01*
X0100830Y0031965D01*
X0100806Y0031918D01*
X0100780Y0031873D01*
X0100750Y0031830D01*
X0100717Y0031789D01*
X0100681Y0031751D01*
X0100643Y0031715D01*
X0100602Y0031682D01*
X0100559Y0031652D01*
X0100514Y0031626D01*
X0100467Y0031602D01*
X0100419Y0031582D01*
X0100370Y0031566D01*
X0100319Y0031553D01*
X0100267Y0031543D01*
X0100215Y0031538D01*
X0100163Y0031536D01*
X0100163Y0031535D02*
X0100111Y0031537D01*
X0100060Y0031542D01*
X0100009Y0031551D01*
X0099959Y0031563D01*
X0099910Y0031579D01*
X0099862Y0031598D01*
X0099816Y0031621D01*
X0099771Y0031646D01*
X0099728Y0031675D01*
X0099688Y0031706D01*
X0099649Y0031741D01*
X0099613Y0031778D01*
X0099579Y0031817D01*
X0099549Y0031858D01*
X0099521Y0031902D01*
X0100896Y0034360D02*
X0100896Y0036193D01*
X0100896Y0035276D02*
X0097596Y0035276D01*
X0107596Y0035245D02*
X0107596Y0036162D01*
X0107596Y0035245D02*
X0110896Y0035245D01*
X0110896Y0036162D01*
X0110897Y0036162D02*
X0110895Y0036220D01*
X0110890Y0036277D01*
X0110881Y0036334D01*
X0110868Y0036390D01*
X0110852Y0036445D01*
X0110833Y0036500D01*
X0110810Y0036552D01*
X0110784Y0036604D01*
X0110754Y0036653D01*
X0110722Y0036701D01*
X0110687Y0036747D01*
X0110648Y0036790D01*
X0110608Y0036830D01*
X0110565Y0036869D01*
X0110519Y0036904D01*
X0110471Y0036936D01*
X0110422Y0036966D01*
X0110370Y0036992D01*
X0110318Y0037015D01*
X0110263Y0037034D01*
X0110208Y0037050D01*
X0110152Y0037063D01*
X0110095Y0037072D01*
X0110038Y0037077D01*
X0109980Y0037079D01*
X0109980Y0037078D02*
X0108513Y0037078D01*
X0108513Y0037079D02*
X0108455Y0037077D01*
X0108398Y0037072D01*
X0108341Y0037063D01*
X0108285Y0037050D01*
X0108230Y0037034D01*
X0108175Y0037015D01*
X0108123Y0036992D01*
X0108071Y0036966D01*
X0108022Y0036936D01*
X0107974Y0036904D01*
X0107928Y0036869D01*
X0107885Y0036830D01*
X0107845Y0036790D01*
X0107806Y0036747D01*
X0107771Y0036701D01*
X0107739Y0036653D01*
X0107709Y0036604D01*
X0107683Y0036552D01*
X0107660Y0036500D01*
X0107641Y0036445D01*
X0107625Y0036390D01*
X0107612Y0036334D01*
X0107603Y0036277D01*
X0107598Y0036220D01*
X0107596Y0036162D01*
X0107596Y0033622D02*
X0110896Y0033622D01*
X0110896Y0031789D02*
X0107596Y0031789D01*
X0107596Y0030166D02*
X0107596Y0029066D01*
X0107597Y0029066D02*
X0107599Y0029014D01*
X0107604Y0028962D01*
X0107614Y0028910D01*
X0107627Y0028859D01*
X0107643Y0028810D01*
X0107663Y0028762D01*
X0107687Y0028715D01*
X0107713Y0028670D01*
X0107743Y0028627D01*
X0107776Y0028586D01*
X0107812Y0028548D01*
X0107850Y0028512D01*
X0107891Y0028479D01*
X0107934Y0028449D01*
X0107979Y0028423D01*
X0108026Y0028399D01*
X0108074Y0028379D01*
X0108123Y0028363D01*
X0108174Y0028350D01*
X0108226Y0028340D01*
X0108278Y0028335D01*
X0108330Y0028333D01*
X0110163Y0028333D01*
X0110215Y0028335D01*
X0110267Y0028340D01*
X0110319Y0028350D01*
X0110370Y0028363D01*
X0110419Y0028379D01*
X0110467Y0028399D01*
X0110514Y0028423D01*
X0110559Y0028449D01*
X0110602Y0028479D01*
X0110643Y0028512D01*
X0110681Y0028548D01*
X0110717Y0028586D01*
X0110750Y0028627D01*
X0110780Y0028670D01*
X0110806Y0028715D01*
X0110830Y0028761D01*
X0110850Y0028810D01*
X0110866Y0028859D01*
X0110879Y0028910D01*
X0110889Y0028962D01*
X0110894Y0029014D01*
X0110896Y0029066D01*
X0110896Y0030166D01*
X0109430Y0030166D02*
X0107596Y0030166D01*
X0109430Y0030166D02*
X0109430Y0029616D01*
X0110896Y0031789D02*
X0107596Y0033622D01*
X0050896Y0071220D02*
X0050896Y0072320D01*
X0050894Y0072372D01*
X0050889Y0072424D01*
X0050879Y0072476D01*
X0050866Y0072527D01*
X0050850Y0072576D01*
X0050830Y0072624D01*
X0050806Y0072671D01*
X0050780Y0072716D01*
X0050750Y0072759D01*
X0050717Y0072800D01*
X0050681Y0072838D01*
X0050643Y0072874D01*
X0050602Y0072907D01*
X0050559Y0072937D01*
X0050514Y0072963D01*
X0050467Y0072987D01*
X0050419Y0073007D01*
X0050370Y0073023D01*
X0050319Y0073036D01*
X0050267Y0073046D01*
X0050215Y0073051D01*
X0050163Y0073053D01*
X0050111Y0073051D01*
X0050059Y0073046D01*
X0050007Y0073036D01*
X0049956Y0073023D01*
X0049907Y0073007D01*
X0049859Y0072987D01*
X0049812Y0072963D01*
X0049767Y0072937D01*
X0049724Y0072907D01*
X0049683Y0072874D01*
X0049645Y0072838D01*
X0049609Y0072800D01*
X0049576Y0072759D01*
X0049546Y0072716D01*
X0049520Y0072671D01*
X0049496Y0072624D01*
X0049476Y0072576D01*
X0049460Y0072527D01*
X0049447Y0072476D01*
X0049437Y0072424D01*
X0049432Y0072372D01*
X0049430Y0072320D01*
X0049430Y0071586D01*
X0049430Y0072136D02*
X0049428Y0072195D01*
X0049422Y0072253D01*
X0049413Y0072311D01*
X0049400Y0072369D01*
X0049383Y0072425D01*
X0049363Y0072480D01*
X0049339Y0072534D01*
X0049312Y0072586D01*
X0049282Y0072636D01*
X0049248Y0072684D01*
X0049211Y0072730D01*
X0049172Y0072774D01*
X0049129Y0072815D01*
X0049085Y0072853D01*
X0049038Y0072888D01*
X0048988Y0072920D01*
X0048937Y0072949D01*
X0048884Y0072975D01*
X0048830Y0072997D01*
X0048774Y0073015D01*
X0048717Y0073030D01*
X0048659Y0073041D01*
X0048601Y0073049D01*
X0048542Y0073053D01*
X0048484Y0073053D01*
X0048425Y0073049D01*
X0048367Y0073041D01*
X0048309Y0073030D01*
X0048252Y0073015D01*
X0048196Y0072997D01*
X0048142Y0072975D01*
X0048089Y0072949D01*
X0048038Y0072920D01*
X0047988Y0072888D01*
X0047941Y0072853D01*
X0047897Y0072815D01*
X0047854Y0072774D01*
X0047815Y0072730D01*
X0047778Y0072684D01*
X0047744Y0072636D01*
X0047714Y0072586D01*
X0047687Y0072534D01*
X0047663Y0072480D01*
X0047643Y0072425D01*
X0047626Y0072369D01*
X0047613Y0072311D01*
X0047604Y0072253D01*
X0047598Y0072195D01*
X0047596Y0072136D01*
X0047596Y0071220D01*
X0047596Y0075376D02*
X0050896Y0074276D01*
X0050896Y0076476D02*
X0047596Y0075376D01*
X0047596Y0077700D02*
X0047596Y0078616D01*
X0047598Y0078675D01*
X0047604Y0078733D01*
X0047613Y0078791D01*
X0047626Y0078849D01*
X0047643Y0078905D01*
X0047663Y0078960D01*
X0047687Y0079014D01*
X0047714Y0079066D01*
X0047744Y0079116D01*
X0047778Y0079164D01*
X0047815Y0079210D01*
X0047854Y0079254D01*
X0047897Y0079295D01*
X0047941Y0079333D01*
X0047988Y0079368D01*
X0048038Y0079400D01*
X0048089Y0079429D01*
X0048142Y0079455D01*
X0048196Y0079477D01*
X0048252Y0079495D01*
X0048309Y0079510D01*
X0048367Y0079521D01*
X0048425Y0079529D01*
X0048484Y0079533D01*
X0048542Y0079533D01*
X0048601Y0079529D01*
X0048659Y0079521D01*
X0048717Y0079510D01*
X0048774Y0079495D01*
X0048830Y0079477D01*
X0048884Y0079455D01*
X0048937Y0079429D01*
X0048988Y0079400D01*
X0049038Y0079368D01*
X0049085Y0079333D01*
X0049129Y0079295D01*
X0049172Y0079254D01*
X0049211Y0079210D01*
X0049248Y0079164D01*
X0049282Y0079116D01*
X0049312Y0079066D01*
X0049339Y0079014D01*
X0049363Y0078960D01*
X0049383Y0078905D01*
X0049400Y0078849D01*
X0049413Y0078791D01*
X0049422Y0078733D01*
X0049428Y0078675D01*
X0049430Y0078616D01*
X0049430Y0078800D02*
X0049430Y0078066D01*
X0049430Y0078800D02*
X0049432Y0078852D01*
X0049437Y0078904D01*
X0049447Y0078956D01*
X0049460Y0079007D01*
X0049476Y0079056D01*
X0049496Y0079104D01*
X0049520Y0079151D01*
X0049546Y0079196D01*
X0049576Y0079239D01*
X0049609Y0079280D01*
X0049645Y0079318D01*
X0049683Y0079354D01*
X0049724Y0079387D01*
X0049767Y0079417D01*
X0049812Y0079443D01*
X0049859Y0079467D01*
X0049907Y0079487D01*
X0049956Y0079503D01*
X0050007Y0079516D01*
X0050059Y0079526D01*
X0050111Y0079531D01*
X0050163Y0079533D01*
X0050215Y0079531D01*
X0050267Y0079526D01*
X0050319Y0079516D01*
X0050370Y0079503D01*
X0050419Y0079487D01*
X0050467Y0079467D01*
X0050514Y0079443D01*
X0050559Y0079417D01*
X0050602Y0079387D01*
X0050643Y0079354D01*
X0050681Y0079318D01*
X0050717Y0079280D01*
X0050750Y0079239D01*
X0050780Y0079196D01*
X0050806Y0079151D01*
X0050830Y0079104D01*
X0050850Y0079056D01*
X0050866Y0079007D01*
X0050879Y0078956D01*
X0050889Y0078904D01*
X0050894Y0078852D01*
X0050896Y0078800D01*
X0050896Y0077700D01*
X0058274Y0076811D02*
X0060219Y0076811D01*
X0059441Y0079533D01*
X0058858Y0077589D02*
X0058858Y0076033D01*
X0066564Y0076811D02*
X0068509Y0076811D01*
X0067731Y0079533D01*
X0067148Y0077589D02*
X0067148Y0076033D01*
X0069984Y0076033D02*
X0071929Y0076033D01*
X0070956Y0076033D02*
X0070956Y0079533D01*
X0071929Y0078755D01*
X0076564Y0079533D02*
X0078509Y0079533D01*
X0078509Y0077978D01*
X0077342Y0077978D01*
X0077286Y0077976D01*
X0077231Y0077970D01*
X0077177Y0077960D01*
X0077123Y0077946D01*
X0077070Y0077929D01*
X0077019Y0077908D01*
X0076969Y0077883D01*
X0076921Y0077854D01*
X0076876Y0077823D01*
X0076833Y0077788D01*
X0076792Y0077750D01*
X0076754Y0077709D01*
X0076719Y0077666D01*
X0076688Y0077621D01*
X0076659Y0077573D01*
X0076634Y0077523D01*
X0076613Y0077472D01*
X0076596Y0077419D01*
X0076582Y0077365D01*
X0076572Y0077311D01*
X0076566Y0077256D01*
X0076564Y0077200D01*
X0076564Y0076811D01*
X0076566Y0076755D01*
X0076572Y0076700D01*
X0076582Y0076646D01*
X0076596Y0076592D01*
X0076613Y0076539D01*
X0076634Y0076488D01*
X0076659Y0076438D01*
X0076688Y0076390D01*
X0076719Y0076345D01*
X0076754Y0076302D01*
X0076792Y0076261D01*
X0076833Y0076223D01*
X0076876Y0076188D01*
X0076921Y0076157D01*
X0076969Y0076128D01*
X0077019Y0076103D01*
X0077070Y0076082D01*
X0077123Y0076065D01*
X0077177Y0076051D01*
X0077231Y0076041D01*
X0077286Y0076035D01*
X0077342Y0076033D01*
X0078509Y0076033D01*
X0079984Y0076033D02*
X0081929Y0076033D01*
X0080956Y0076033D02*
X0080956Y0079533D01*
X0081929Y0078755D01*
X0086564Y0079533D02*
X0087536Y0076033D01*
X0089984Y0076033D02*
X0091929Y0076033D01*
X0090276Y0077978D01*
X0090859Y0079533D02*
X0090923Y0079531D01*
X0090987Y0079526D01*
X0091051Y0079517D01*
X0091114Y0079504D01*
X0091176Y0079487D01*
X0091237Y0079468D01*
X0091297Y0079444D01*
X0091355Y0079418D01*
X0091412Y0079388D01*
X0091467Y0079354D01*
X0091520Y0079318D01*
X0091571Y0079279D01*
X0091619Y0079237D01*
X0091666Y0079192D01*
X0091709Y0079145D01*
X0091750Y0079095D01*
X0091787Y0079043D01*
X0091822Y0078989D01*
X0091854Y0078933D01*
X0091882Y0078875D01*
X0091907Y0078816D01*
X0091928Y0078755D01*
X0090276Y0077977D02*
X0090235Y0078019D01*
X0090196Y0078063D01*
X0090161Y0078110D01*
X0090128Y0078158D01*
X0090098Y0078209D01*
X0090072Y0078261D01*
X0090049Y0078315D01*
X0090029Y0078370D01*
X0090013Y0078426D01*
X0090000Y0078483D01*
X0089991Y0078541D01*
X0089986Y0078599D01*
X0089984Y0078658D01*
X0089986Y0078715D01*
X0089991Y0078772D01*
X0090001Y0078829D01*
X0090014Y0078884D01*
X0090030Y0078939D01*
X0090051Y0078993D01*
X0090074Y0079045D01*
X0090101Y0079096D01*
X0090131Y0079144D01*
X0090165Y0079191D01*
X0090201Y0079235D01*
X0090240Y0079277D01*
X0090282Y0079316D01*
X0090326Y0079352D01*
X0090373Y0079386D01*
X0090422Y0079416D01*
X0090472Y0079443D01*
X0090524Y0079466D01*
X0090578Y0079487D01*
X0090633Y0079503D01*
X0090688Y0079516D01*
X0090745Y0079526D01*
X0090802Y0079531D01*
X0090859Y0079533D01*
X0088509Y0079533D02*
X0086564Y0079533D01*
X0088509Y0079533D02*
X0088509Y0079144D01*
X0096564Y0077200D02*
X0096564Y0077005D01*
X0096564Y0077200D02*
X0096566Y0077256D01*
X0096572Y0077311D01*
X0096582Y0077365D01*
X0096596Y0077419D01*
X0096613Y0077472D01*
X0096634Y0077523D01*
X0096659Y0077573D01*
X0096688Y0077621D01*
X0096719Y0077666D01*
X0096754Y0077709D01*
X0096792Y0077750D01*
X0096833Y0077788D01*
X0096876Y0077823D01*
X0096921Y0077854D01*
X0096969Y0077883D01*
X0097019Y0077908D01*
X0097070Y0077929D01*
X0097123Y0077946D01*
X0097177Y0077960D01*
X0097231Y0077970D01*
X0097286Y0077976D01*
X0097342Y0077978D01*
X0098509Y0077978D01*
X0098509Y0077005D01*
X0098508Y0077005D02*
X0098506Y0076944D01*
X0098500Y0076883D01*
X0098491Y0076823D01*
X0098477Y0076763D01*
X0098460Y0076705D01*
X0098440Y0076647D01*
X0098415Y0076591D01*
X0098388Y0076537D01*
X0098357Y0076484D01*
X0098322Y0076434D01*
X0098285Y0076385D01*
X0098245Y0076340D01*
X0098201Y0076296D01*
X0098156Y0076256D01*
X0098107Y0076219D01*
X0098057Y0076184D01*
X0098004Y0076153D01*
X0097950Y0076126D01*
X0097894Y0076101D01*
X0097836Y0076081D01*
X0097778Y0076064D01*
X0097718Y0076050D01*
X0097658Y0076041D01*
X0097597Y0076035D01*
X0097536Y0076033D01*
X0097475Y0076035D01*
X0097414Y0076041D01*
X0097354Y0076050D01*
X0097294Y0076064D01*
X0097236Y0076081D01*
X0097178Y0076101D01*
X0097122Y0076126D01*
X0097068Y0076153D01*
X0097015Y0076184D01*
X0096965Y0076219D01*
X0096916Y0076256D01*
X0096871Y0076296D01*
X0096827Y0076340D01*
X0096787Y0076385D01*
X0096750Y0076434D01*
X0096715Y0076484D01*
X0096684Y0076537D01*
X0096657Y0076591D01*
X0096632Y0076647D01*
X0096612Y0076705D01*
X0096595Y0076763D01*
X0096581Y0076823D01*
X0096572Y0076883D01*
X0096566Y0076944D01*
X0096564Y0077005D01*
X0098509Y0077978D02*
X0098507Y0078057D01*
X0098501Y0078135D01*
X0098491Y0078214D01*
X0098477Y0078291D01*
X0098459Y0078368D01*
X0098438Y0078444D01*
X0098412Y0078518D01*
X0098383Y0078592D01*
X0098350Y0078663D01*
X0098313Y0078733D01*
X0098273Y0078801D01*
X0098230Y0078867D01*
X0098183Y0078930D01*
X0098134Y0078992D01*
X0098081Y0079050D01*
X0098025Y0079106D01*
X0097967Y0079159D01*
X0097905Y0079208D01*
X0097842Y0079255D01*
X0097776Y0079298D01*
X0097708Y0079338D01*
X0097638Y0079375D01*
X0097567Y0079408D01*
X0097493Y0079437D01*
X0097419Y0079463D01*
X0097343Y0079484D01*
X0097266Y0079502D01*
X0097189Y0079516D01*
X0097110Y0079526D01*
X0097032Y0079532D01*
X0096953Y0079534D01*
X0100276Y0077978D02*
X0101929Y0076033D01*
X0099984Y0076033D01*
X0101928Y0078755D02*
X0101907Y0078816D01*
X0101882Y0078875D01*
X0101854Y0078933D01*
X0101822Y0078989D01*
X0101787Y0079043D01*
X0101750Y0079095D01*
X0101709Y0079145D01*
X0101666Y0079192D01*
X0101619Y0079237D01*
X0101571Y0079279D01*
X0101520Y0079318D01*
X0101467Y0079354D01*
X0101412Y0079388D01*
X0101355Y0079418D01*
X0101297Y0079444D01*
X0101237Y0079468D01*
X0101176Y0079487D01*
X0101114Y0079504D01*
X0101051Y0079517D01*
X0100987Y0079526D01*
X0100923Y0079531D01*
X0100859Y0079533D01*
X0100802Y0079531D01*
X0100745Y0079526D01*
X0100688Y0079516D01*
X0100633Y0079503D01*
X0100578Y0079487D01*
X0100524Y0079466D01*
X0100472Y0079443D01*
X0100422Y0079416D01*
X0100373Y0079386D01*
X0100326Y0079352D01*
X0100282Y0079316D01*
X0100240Y0079277D01*
X0100201Y0079235D01*
X0100165Y0079191D01*
X0100131Y0079144D01*
X0100101Y0079096D01*
X0100074Y0079045D01*
X0100051Y0078993D01*
X0100030Y0078939D01*
X0100014Y0078884D01*
X0100001Y0078829D01*
X0099991Y0078772D01*
X0099986Y0078715D01*
X0099984Y0078658D01*
X0099986Y0078599D01*
X0099991Y0078541D01*
X0100000Y0078483D01*
X0100013Y0078426D01*
X0100029Y0078370D01*
X0100049Y0078315D01*
X0100072Y0078261D01*
X0100098Y0078209D01*
X0100128Y0078158D01*
X0100161Y0078110D01*
X0100196Y0078063D01*
X0100235Y0078019D01*
X0100276Y0077977D01*
X0106564Y0077200D02*
X0106564Y0076811D01*
X0106566Y0076755D01*
X0106572Y0076700D01*
X0106582Y0076646D01*
X0106596Y0076592D01*
X0106613Y0076539D01*
X0106634Y0076488D01*
X0106659Y0076438D01*
X0106688Y0076390D01*
X0106719Y0076345D01*
X0106754Y0076302D01*
X0106792Y0076261D01*
X0106833Y0076223D01*
X0106876Y0076188D01*
X0106921Y0076157D01*
X0106969Y0076128D01*
X0107019Y0076103D01*
X0107070Y0076082D01*
X0107123Y0076065D01*
X0107177Y0076051D01*
X0107231Y0076041D01*
X0107286Y0076035D01*
X0107342Y0076033D01*
X0108509Y0076033D01*
X0109984Y0076033D02*
X0111929Y0076033D01*
X0110276Y0077978D01*
X0110859Y0079533D02*
X0110923Y0079531D01*
X0110987Y0079526D01*
X0111051Y0079517D01*
X0111114Y0079504D01*
X0111176Y0079487D01*
X0111237Y0079468D01*
X0111297Y0079444D01*
X0111355Y0079418D01*
X0111412Y0079388D01*
X0111467Y0079354D01*
X0111520Y0079318D01*
X0111571Y0079279D01*
X0111619Y0079237D01*
X0111666Y0079192D01*
X0111709Y0079145D01*
X0111750Y0079095D01*
X0111787Y0079043D01*
X0111822Y0078989D01*
X0111854Y0078933D01*
X0111882Y0078875D01*
X0111907Y0078816D01*
X0111928Y0078755D01*
X0110276Y0077977D02*
X0110235Y0078019D01*
X0110196Y0078063D01*
X0110161Y0078110D01*
X0110128Y0078158D01*
X0110098Y0078209D01*
X0110072Y0078261D01*
X0110049Y0078315D01*
X0110029Y0078370D01*
X0110013Y0078426D01*
X0110000Y0078483D01*
X0109991Y0078541D01*
X0109986Y0078599D01*
X0109984Y0078658D01*
X0109986Y0078715D01*
X0109991Y0078772D01*
X0110001Y0078829D01*
X0110014Y0078884D01*
X0110030Y0078939D01*
X0110051Y0078993D01*
X0110074Y0079045D01*
X0110101Y0079096D01*
X0110131Y0079144D01*
X0110165Y0079191D01*
X0110201Y0079235D01*
X0110240Y0079277D01*
X0110282Y0079316D01*
X0110326Y0079352D01*
X0110373Y0079386D01*
X0110422Y0079416D01*
X0110472Y0079443D01*
X0110524Y0079466D01*
X0110578Y0079487D01*
X0110633Y0079503D01*
X0110688Y0079516D01*
X0110745Y0079526D01*
X0110802Y0079531D01*
X0110859Y0079533D01*
X0108509Y0079533D02*
X0108509Y0077978D01*
X0107342Y0077978D01*
X0107286Y0077976D01*
X0107231Y0077970D01*
X0107177Y0077960D01*
X0107123Y0077946D01*
X0107070Y0077929D01*
X0107019Y0077908D01*
X0106969Y0077883D01*
X0106921Y0077854D01*
X0106876Y0077823D01*
X0106833Y0077788D01*
X0106792Y0077750D01*
X0106754Y0077709D01*
X0106719Y0077666D01*
X0106688Y0077621D01*
X0106659Y0077573D01*
X0106634Y0077523D01*
X0106613Y0077472D01*
X0106596Y0077419D01*
X0106582Y0077365D01*
X0106572Y0077311D01*
X0106566Y0077256D01*
X0106564Y0077200D01*
X0106564Y0079533D02*
X0108509Y0079533D01*
X0040896Y0079533D02*
X0037596Y0078433D01*
X0040896Y0077333D01*
X0040896Y0076110D02*
X0040896Y0074276D01*
X0039430Y0074276D01*
X0039430Y0075376D01*
X0039429Y0075376D02*
X0039427Y0075428D01*
X0039422Y0075480D01*
X0039412Y0075532D01*
X0039399Y0075583D01*
X0039383Y0075632D01*
X0039363Y0075680D01*
X0039339Y0075727D01*
X0039313Y0075772D01*
X0039283Y0075815D01*
X0039250Y0075856D01*
X0039214Y0075894D01*
X0039176Y0075930D01*
X0039135Y0075963D01*
X0039092Y0075993D01*
X0039047Y0076019D01*
X0039000Y0076043D01*
X0038952Y0076063D01*
X0038903Y0076079D01*
X0038852Y0076092D01*
X0038800Y0076102D01*
X0038748Y0076107D01*
X0038696Y0076109D01*
X0038696Y0076110D02*
X0038330Y0076110D01*
X0038330Y0076109D02*
X0038278Y0076107D01*
X0038226Y0076102D01*
X0038174Y0076092D01*
X0038123Y0076079D01*
X0038074Y0076063D01*
X0038026Y0076043D01*
X0037979Y0076019D01*
X0037934Y0075993D01*
X0037891Y0075963D01*
X0037850Y0075930D01*
X0037812Y0075894D01*
X0037776Y0075856D01*
X0037743Y0075815D01*
X0037713Y0075772D01*
X0037687Y0075727D01*
X0037663Y0075681D01*
X0037643Y0075632D01*
X0037627Y0075583D01*
X0037614Y0075532D01*
X0037604Y0075480D01*
X0037599Y0075428D01*
X0037597Y0075376D01*
X0037596Y0075376D02*
X0037596Y0074276D01*
X0030896Y0074244D02*
X0027596Y0076077D01*
X0030896Y0076077D01*
X0030896Y0077700D02*
X0027596Y0077700D01*
X0027596Y0078616D01*
X0027598Y0078674D01*
X0027603Y0078731D01*
X0027612Y0078788D01*
X0027625Y0078844D01*
X0027641Y0078899D01*
X0027660Y0078954D01*
X0027683Y0079006D01*
X0027709Y0079058D01*
X0027739Y0079107D01*
X0027771Y0079155D01*
X0027806Y0079201D01*
X0027845Y0079244D01*
X0027885Y0079284D01*
X0027928Y0079323D01*
X0027974Y0079358D01*
X0028022Y0079390D01*
X0028071Y0079420D01*
X0028123Y0079446D01*
X0028175Y0079469D01*
X0028230Y0079488D01*
X0028285Y0079504D01*
X0028341Y0079517D01*
X0028398Y0079526D01*
X0028455Y0079531D01*
X0028513Y0079533D01*
X0029980Y0079533D01*
X0030038Y0079531D01*
X0030095Y0079526D01*
X0030152Y0079517D01*
X0030208Y0079504D01*
X0030263Y0079488D01*
X0030318Y0079469D01*
X0030370Y0079446D01*
X0030422Y0079420D01*
X0030471Y0079390D01*
X0030519Y0079358D01*
X0030565Y0079323D01*
X0030608Y0079284D01*
X0030648Y0079244D01*
X0030687Y0079201D01*
X0030722Y0079155D01*
X0030754Y0079107D01*
X0030784Y0079058D01*
X0030810Y0079006D01*
X0030833Y0078954D01*
X0030852Y0078899D01*
X0030868Y0078844D01*
X0030881Y0078788D01*
X0030890Y0078731D01*
X0030895Y0078674D01*
X0030897Y0078616D01*
X0030896Y0078616D02*
X0030896Y0077700D01*
X0030896Y0074244D02*
X0027596Y0074244D01*
X0027596Y0072621D02*
X0027596Y0071521D01*
X0027597Y0071521D02*
X0027599Y0071469D01*
X0027604Y0071417D01*
X0027614Y0071365D01*
X0027627Y0071314D01*
X0027643Y0071265D01*
X0027663Y0071217D01*
X0027687Y0071170D01*
X0027713Y0071125D01*
X0027743Y0071082D01*
X0027776Y0071041D01*
X0027812Y0071003D01*
X0027850Y0070967D01*
X0027891Y0070934D01*
X0027934Y0070904D01*
X0027979Y0070878D01*
X0028026Y0070854D01*
X0028074Y0070834D01*
X0028123Y0070818D01*
X0028174Y0070805D01*
X0028226Y0070795D01*
X0028278Y0070790D01*
X0028330Y0070788D01*
X0030163Y0070788D01*
X0030215Y0070790D01*
X0030267Y0070795D01*
X0030319Y0070805D01*
X0030370Y0070818D01*
X0030419Y0070834D01*
X0030467Y0070854D01*
X0030514Y0070878D01*
X0030559Y0070904D01*
X0030602Y0070934D01*
X0030643Y0070967D01*
X0030681Y0071003D01*
X0030717Y0071041D01*
X0030750Y0071082D01*
X0030780Y0071125D01*
X0030806Y0071170D01*
X0030830Y0071216D01*
X0030850Y0071265D01*
X0030866Y0071314D01*
X0030879Y0071365D01*
X0030889Y0071417D01*
X0030894Y0071469D01*
X0030896Y0071521D01*
X0030896Y0072621D01*
X0029430Y0072621D02*
X0027596Y0072621D01*
X0029430Y0072621D02*
X0029430Y0072071D01*
X0020896Y0072509D02*
X0020896Y0071593D01*
X0017596Y0071593D01*
X0017596Y0072509D01*
X0017598Y0072568D01*
X0017604Y0072626D01*
X0017613Y0072684D01*
X0017626Y0072742D01*
X0017643Y0072798D01*
X0017663Y0072853D01*
X0017687Y0072907D01*
X0017714Y0072959D01*
X0017744Y0073009D01*
X0017778Y0073057D01*
X0017815Y0073103D01*
X0017854Y0073147D01*
X0017897Y0073188D01*
X0017941Y0073226D01*
X0017988Y0073261D01*
X0018038Y0073293D01*
X0018089Y0073322D01*
X0018142Y0073348D01*
X0018196Y0073370D01*
X0018252Y0073388D01*
X0018309Y0073403D01*
X0018367Y0073414D01*
X0018425Y0073422D01*
X0018484Y0073426D01*
X0018542Y0073426D01*
X0018601Y0073422D01*
X0018659Y0073414D01*
X0018717Y0073403D01*
X0018774Y0073388D01*
X0018830Y0073370D01*
X0018884Y0073348D01*
X0018937Y0073322D01*
X0018988Y0073293D01*
X0019038Y0073261D01*
X0019085Y0073226D01*
X0019129Y0073188D01*
X0019172Y0073147D01*
X0019211Y0073103D01*
X0019248Y0073057D01*
X0019282Y0073009D01*
X0019312Y0072959D01*
X0019339Y0072907D01*
X0019363Y0072853D01*
X0019383Y0072798D01*
X0019400Y0072742D01*
X0019413Y0072684D01*
X0019422Y0072626D01*
X0019428Y0072568D01*
X0019430Y0072509D01*
X0019430Y0071593D01*
X0019430Y0072509D02*
X0019432Y0072561D01*
X0019437Y0072613D01*
X0019447Y0072665D01*
X0019460Y0072716D01*
X0019476Y0072765D01*
X0019496Y0072813D01*
X0019520Y0072860D01*
X0019546Y0072905D01*
X0019576Y0072948D01*
X0019609Y0072989D01*
X0019645Y0073027D01*
X0019683Y0073063D01*
X0019724Y0073096D01*
X0019767Y0073126D01*
X0019812Y0073152D01*
X0019859Y0073176D01*
X0019907Y0073196D01*
X0019956Y0073212D01*
X0020007Y0073225D01*
X0020059Y0073235D01*
X0020111Y0073240D01*
X0020163Y0073242D01*
X0020215Y0073240D01*
X0020267Y0073235D01*
X0020319Y0073225D01*
X0020370Y0073212D01*
X0020419Y0073196D01*
X0020467Y0073176D01*
X0020514Y0073152D01*
X0020559Y0073126D01*
X0020602Y0073096D01*
X0020643Y0073063D01*
X0020681Y0073027D01*
X0020717Y0072989D01*
X0020750Y0072948D01*
X0020780Y0072905D01*
X0020806Y0072860D01*
X0020830Y0072813D01*
X0020850Y0072765D01*
X0020866Y0072716D01*
X0020879Y0072665D01*
X0020889Y0072613D01*
X0020894Y0072561D01*
X0020896Y0072509D01*
X0020896Y0075592D02*
X0017596Y0074492D01*
X0018421Y0074767D02*
X0018421Y0076417D01*
X0017596Y0076692D02*
X0020896Y0075592D01*
X0020896Y0077700D02*
X0020896Y0079533D01*
X0020896Y0078616D02*
X0017596Y0078616D01*
D13*
X0048546Y0065883D02*
X0048546Y0061683D01*
X0048546Y0046283D02*
X0048546Y0042083D01*
X0046446Y0044183D02*
X0050646Y0044183D01*
D14*
X0117454Y0032067D03*
D15*
X0117454Y0056217D03*
D16*
X0117482Y0031955D03*
D17*
X0124678Y0035007D03*
X0117482Y0040215D03*
X0121822Y0042539D03*
X0124846Y0045983D03*
D18*
X0117482Y0056357D03*
D19*
X0117510Y0032403D03*
D20*
X0117510Y0056441D03*
D21*
X0117538Y0032403D03*
D22*
X0117538Y0056511D03*
D23*
X0117566Y0032403D03*
D24*
X0117566Y0056553D03*
D25*
X0117594Y0032389D03*
D26*
X0117594Y0056609D03*
D27*
X0117622Y0032375D03*
D28*
X0117622Y0056651D03*
D29*
X0117650Y0032375D03*
D30*
X0126974Y0045787D03*
X0117650Y0056707D03*
D31*
X0117678Y0032347D03*
D32*
X0117678Y0056735D03*
D33*
X0117706Y0032333D03*
D34*
X0117706Y0056777D03*
D35*
X0117734Y0032319D03*
D36*
X0117734Y0056805D03*
D37*
X0117762Y0032319D03*
D38*
X0117762Y0056847D03*
D39*
X0117790Y0032305D03*
D40*
X0117790Y0056875D03*
D41*
X0117818Y0032291D03*
D42*
X0117818Y0056903D03*
D43*
X0117846Y0032277D03*
D44*
X0117846Y0056931D03*
D45*
X0117874Y0032277D03*
D46*
X0117874Y0056973D03*
D47*
X0117902Y0032263D03*
D48*
X0117902Y0056987D03*
X0117930Y0057015D03*
D49*
X0117930Y0032263D03*
D50*
X0117958Y0032235D03*
D51*
X0117958Y0057043D03*
D52*
X0117986Y0032235D03*
D53*
X0117986Y0057057D03*
D54*
X0118014Y0032235D03*
D55*
X0118014Y0057099D03*
D56*
X0118042Y0032207D03*
D57*
X0118042Y0057113D03*
X0118070Y0057141D03*
D58*
X0118070Y0032207D03*
D59*
X0118098Y0032193D03*
D60*
X0118098Y0057155D03*
D61*
X0118126Y0032193D03*
D62*
X0118126Y0057183D03*
D63*
X0118154Y0032193D03*
D64*
X0118154Y0057197D03*
X0118182Y0057225D03*
D65*
X0118182Y0032179D03*
D66*
X0118210Y0032165D03*
D67*
X0118210Y0057253D03*
D68*
X0118238Y0032165D03*
D69*
X0118238Y0057267D03*
D70*
X0118266Y0032151D03*
D71*
X0118266Y0057281D03*
D72*
X0118294Y0032151D03*
D73*
X0118294Y0057295D03*
D74*
X0118322Y0032137D03*
D75*
X0118322Y0057309D03*
X0118350Y0057337D03*
D76*
X0118350Y0032137D03*
D77*
X0118378Y0032123D03*
D78*
X0118378Y0057351D03*
X0118406Y0057379D03*
D79*
X0125686Y0036869D03*
X0118406Y0032109D03*
D80*
X0118434Y0032109D03*
X0118462Y0032109D03*
D81*
X0118434Y0057393D03*
D82*
X0118462Y0057407D03*
X0118518Y0057435D03*
X0118546Y0057463D03*
D83*
X0118490Y0032109D03*
D84*
X0118490Y0057421D03*
D85*
X0118518Y0032095D03*
D86*
X0118546Y0032081D03*
D87*
X0118574Y0032095D03*
D88*
X0118574Y0057477D03*
X0118602Y0057477D03*
X0118630Y0057505D03*
D89*
X0118602Y0032081D03*
D90*
X0118630Y0032067D03*
D91*
X0118658Y0032067D03*
D92*
X0118658Y0057519D03*
D93*
X0118686Y0032067D03*
D94*
X0118686Y0057519D03*
X0118714Y0057547D03*
X0118742Y0057547D03*
D95*
X0118714Y0032053D03*
D96*
X0118742Y0032067D03*
D97*
X0118770Y0032053D03*
D98*
X0118770Y0051429D03*
D99*
X0118770Y0063651D03*
D100*
X0118966Y0063693D03*
X0121318Y0067249D03*
X0121346Y0067249D03*
X0124398Y0067249D03*
X0118770Y0069797D03*
D101*
X0118798Y0032039D03*
D102*
X0118798Y0051317D03*
D103*
X0118798Y0063679D03*
X0126946Y0063707D03*
D104*
X0118798Y0069923D03*
D105*
X0118826Y0032053D03*
D106*
X0118826Y0051219D03*
D107*
X0118826Y0063679D03*
D108*
X0118826Y0070035D03*
X0118994Y0056679D03*
D109*
X0118854Y0032039D03*
D110*
X0118854Y0051163D03*
D111*
X0118854Y0063679D03*
D112*
X0120842Y0067249D03*
X0118854Y0070105D03*
X0124902Y0067249D03*
X0119022Y0056637D03*
X0119162Y0023961D03*
X0119218Y0023961D03*
D113*
X0118882Y0024031D03*
D114*
X0118882Y0028875D03*
X0118910Y0028875D03*
X0118938Y0028875D03*
X0118966Y0028875D03*
X0119022Y0028875D03*
X0119050Y0028875D03*
X0119078Y0028875D03*
X0119106Y0028875D03*
X0119134Y0028875D03*
X0119162Y0028875D03*
X0119218Y0028875D03*
X0119246Y0028875D03*
X0119274Y0028875D03*
X0119302Y0028875D03*
X0119330Y0028875D03*
X0119386Y0028875D03*
X0119414Y0028875D03*
X0119442Y0028875D03*
X0119470Y0028875D03*
X0119498Y0028875D03*
X0119554Y0028875D03*
X0119582Y0028875D03*
X0119610Y0028875D03*
X0119638Y0028875D03*
X0119666Y0028875D03*
X0119722Y0028875D03*
X0119750Y0028875D03*
X0119778Y0028875D03*
X0119806Y0028875D03*
X0119834Y0028875D03*
X0119862Y0028875D03*
X0119918Y0028875D03*
X0119946Y0028875D03*
X0119974Y0028875D03*
X0120002Y0028875D03*
X0120030Y0028875D03*
X0120086Y0028875D03*
X0120114Y0028875D03*
X0120142Y0028875D03*
X0120170Y0028875D03*
X0120198Y0028875D03*
X0120254Y0028875D03*
X0120282Y0028875D03*
X0120310Y0028875D03*
X0120338Y0028875D03*
X0120366Y0028875D03*
X0120422Y0028875D03*
X0120450Y0028875D03*
X0120478Y0028875D03*
X0120506Y0028875D03*
X0120534Y0028875D03*
X0120562Y0028875D03*
X0120618Y0028875D03*
X0120646Y0028875D03*
X0120674Y0028875D03*
X0120702Y0028875D03*
X0120730Y0028875D03*
X0120786Y0028875D03*
X0120814Y0028875D03*
X0120842Y0028875D03*
X0120870Y0028875D03*
X0120898Y0028875D03*
X0120954Y0028875D03*
X0120982Y0028875D03*
X0121010Y0028875D03*
X0121038Y0028875D03*
X0121066Y0028875D03*
X0121122Y0028875D03*
X0121150Y0028875D03*
X0121178Y0028875D03*
X0121206Y0028875D03*
X0121234Y0028875D03*
X0121262Y0028875D03*
X0121318Y0028875D03*
X0121346Y0028875D03*
X0121374Y0028875D03*
X0121402Y0028875D03*
X0121430Y0028875D03*
X0121486Y0028875D03*
X0121514Y0028875D03*
X0121542Y0028875D03*
X0121570Y0028875D03*
X0121598Y0028875D03*
X0121654Y0028875D03*
X0121682Y0028875D03*
X0121710Y0028875D03*
X0121738Y0028875D03*
X0121766Y0028875D03*
X0121822Y0028875D03*
X0121850Y0028875D03*
X0121878Y0028875D03*
X0121906Y0028875D03*
X0121934Y0028875D03*
X0121962Y0028875D03*
X0122018Y0028875D03*
X0122046Y0028875D03*
X0122074Y0028875D03*
X0122102Y0028875D03*
X0122130Y0028875D03*
X0122186Y0028875D03*
X0122214Y0028875D03*
X0122242Y0028875D03*
X0122270Y0028875D03*
X0122298Y0028875D03*
X0122354Y0028875D03*
X0122382Y0028875D03*
X0122410Y0028875D03*
X0122438Y0028875D03*
X0122466Y0028875D03*
X0122522Y0028875D03*
X0122550Y0028875D03*
X0122578Y0028875D03*
X0122606Y0028875D03*
X0122634Y0028875D03*
X0122662Y0028875D03*
X0122718Y0028875D03*
X0122746Y0028875D03*
X0122774Y0028875D03*
X0122802Y0028875D03*
X0122830Y0028875D03*
X0122886Y0028875D03*
X0122914Y0028875D03*
X0122942Y0028875D03*
X0122970Y0028875D03*
X0122998Y0028875D03*
X0123054Y0028875D03*
X0123082Y0028875D03*
X0123110Y0028875D03*
X0123138Y0028875D03*
X0123166Y0028875D03*
X0123222Y0028875D03*
X0123250Y0028875D03*
X0123278Y0028875D03*
X0123306Y0028875D03*
X0123334Y0028875D03*
X0123362Y0028875D03*
X0123418Y0028875D03*
X0123446Y0028875D03*
X0123474Y0028875D03*
X0123502Y0028875D03*
X0123530Y0028875D03*
X0123586Y0028875D03*
X0123614Y0028875D03*
X0123642Y0028875D03*
X0123670Y0028875D03*
X0123698Y0028875D03*
X0123754Y0028875D03*
X0123782Y0028875D03*
X0123810Y0028875D03*
X0123838Y0028875D03*
X0123866Y0028875D03*
X0123922Y0028875D03*
X0123950Y0028875D03*
X0123978Y0028875D03*
X0124006Y0028875D03*
X0124034Y0028875D03*
X0124062Y0028875D03*
X0124118Y0028875D03*
X0124146Y0028875D03*
X0124174Y0028875D03*
X0124202Y0028875D03*
X0124230Y0028875D03*
X0124286Y0028875D03*
X0124314Y0028875D03*
X0124342Y0028875D03*
X0124370Y0028875D03*
X0124398Y0028875D03*
X0124454Y0028875D03*
X0124482Y0028875D03*
X0124510Y0028875D03*
X0124538Y0028875D03*
X0124566Y0028875D03*
X0124622Y0028875D03*
X0124650Y0028875D03*
X0124678Y0028875D03*
X0124706Y0028875D03*
X0124734Y0028875D03*
X0124762Y0028875D03*
X0124818Y0028875D03*
X0124846Y0028875D03*
D115*
X0124846Y0032641D03*
X0124818Y0032641D03*
X0124762Y0032641D03*
X0124734Y0032641D03*
X0124706Y0032641D03*
X0124678Y0032641D03*
X0124650Y0032641D03*
X0124622Y0032641D03*
X0124566Y0032641D03*
X0124538Y0032641D03*
X0124510Y0032641D03*
X0124482Y0032641D03*
X0124454Y0032641D03*
X0124398Y0032641D03*
X0124370Y0032641D03*
X0124342Y0032641D03*
X0124314Y0032641D03*
X0124286Y0032641D03*
X0124230Y0032641D03*
X0124202Y0032641D03*
X0124174Y0032641D03*
X0124146Y0032641D03*
X0124118Y0032641D03*
X0124062Y0032641D03*
X0124034Y0032641D03*
X0124006Y0032641D03*
X0123978Y0032641D03*
X0123950Y0032641D03*
X0123922Y0032641D03*
X0123866Y0032641D03*
X0123838Y0032641D03*
X0123810Y0032641D03*
X0123782Y0032641D03*
X0123754Y0032641D03*
X0123698Y0032641D03*
X0123670Y0032641D03*
X0123642Y0032641D03*
X0123614Y0032641D03*
X0123586Y0032641D03*
X0123530Y0032641D03*
X0123502Y0032641D03*
X0123474Y0032641D03*
X0123446Y0032641D03*
X0123418Y0032641D03*
X0123362Y0032641D03*
X0123334Y0032641D03*
X0123306Y0032641D03*
X0123278Y0032641D03*
X0123250Y0032641D03*
X0123222Y0032641D03*
X0123166Y0032641D03*
X0123138Y0032641D03*
X0123110Y0032641D03*
X0123082Y0032641D03*
X0123054Y0032641D03*
X0122998Y0032641D03*
X0122970Y0032641D03*
X0122942Y0032641D03*
X0122914Y0032641D03*
X0122886Y0032641D03*
X0122830Y0032641D03*
X0122802Y0032641D03*
X0122774Y0032641D03*
X0122746Y0032641D03*
X0122718Y0032641D03*
X0122662Y0032641D03*
X0122634Y0032641D03*
X0122606Y0032641D03*
X0122578Y0032641D03*
X0122550Y0032641D03*
X0122522Y0032641D03*
X0122466Y0032641D03*
X0122438Y0032641D03*
X0122410Y0032641D03*
X0122382Y0032641D03*
X0122354Y0032641D03*
X0122298Y0032641D03*
X0122270Y0032641D03*
X0122242Y0032641D03*
X0122214Y0032641D03*
X0122186Y0032641D03*
X0122130Y0032641D03*
X0122102Y0032641D03*
X0122074Y0032641D03*
X0122046Y0032641D03*
X0122018Y0032641D03*
X0121962Y0032641D03*
X0121934Y0032641D03*
X0121906Y0032641D03*
X0121878Y0032641D03*
X0121850Y0032641D03*
X0121822Y0032641D03*
X0121766Y0032641D03*
X0121738Y0032641D03*
X0121710Y0032641D03*
X0121682Y0032641D03*
X0121654Y0032641D03*
X0121598Y0032641D03*
X0121570Y0032641D03*
X0121542Y0032641D03*
X0121514Y0032641D03*
X0121486Y0032641D03*
X0121430Y0032641D03*
X0121402Y0032641D03*
X0121374Y0032641D03*
X0121346Y0032641D03*
X0121318Y0032641D03*
X0121262Y0032641D03*
X0121234Y0032641D03*
X0121206Y0032641D03*
X0121178Y0032641D03*
X0121150Y0032641D03*
X0121122Y0032641D03*
X0121066Y0032641D03*
X0121038Y0032641D03*
X0121010Y0032641D03*
X0120982Y0032641D03*
X0120954Y0032641D03*
X0120898Y0032641D03*
X0120870Y0032641D03*
X0120842Y0032641D03*
X0120814Y0032641D03*
X0120786Y0032641D03*
X0120730Y0032641D03*
X0120702Y0032641D03*
X0120674Y0032641D03*
X0120646Y0032641D03*
X0120618Y0032641D03*
X0120562Y0032641D03*
X0120534Y0032641D03*
X0120506Y0032641D03*
X0120478Y0032641D03*
X0120450Y0032641D03*
X0120422Y0032641D03*
X0120366Y0032641D03*
X0120338Y0032641D03*
X0120310Y0032641D03*
X0120282Y0032641D03*
X0120254Y0032641D03*
X0120198Y0032641D03*
X0120170Y0032641D03*
X0120142Y0032641D03*
X0120114Y0032641D03*
X0120086Y0032641D03*
X0120030Y0032641D03*
X0120002Y0032641D03*
X0119974Y0032641D03*
X0119946Y0032641D03*
X0119918Y0032641D03*
X0119862Y0032641D03*
X0119834Y0032641D03*
X0119806Y0032641D03*
X0119778Y0032641D03*
X0119750Y0032641D03*
X0119722Y0032641D03*
X0119666Y0032641D03*
X0119638Y0032641D03*
X0119610Y0032641D03*
X0119582Y0032641D03*
X0119554Y0032641D03*
X0119498Y0032641D03*
X0119470Y0032641D03*
X0119442Y0032641D03*
X0119414Y0032641D03*
X0119386Y0032641D03*
X0119330Y0032641D03*
X0119302Y0032641D03*
X0119274Y0032641D03*
X0119246Y0032641D03*
X0119218Y0032641D03*
X0119162Y0032641D03*
X0119134Y0032641D03*
X0119106Y0032641D03*
X0119078Y0032641D03*
X0119050Y0032641D03*
X0119022Y0032641D03*
X0118966Y0032641D03*
X0118938Y0032641D03*
X0118910Y0032641D03*
X0118882Y0032641D03*
X0124678Y0038773D03*
X0123838Y0055545D03*
X0123810Y0055545D03*
X0123782Y0055545D03*
X0123754Y0055545D03*
X0123698Y0055545D03*
X0122074Y0055545D03*
X0122046Y0055545D03*
X0122018Y0055545D03*
X0121962Y0055545D03*
X0121934Y0055545D03*
X0121906Y0055545D03*
D116*
X0119750Y0056077D03*
X0125938Y0056077D03*
X0119414Y0063609D03*
X0125462Y0067249D03*
X0122438Y0036113D03*
X0122410Y0036113D03*
X0122382Y0036113D03*
X0122354Y0036113D03*
X0122298Y0036113D03*
X0122270Y0036113D03*
X0122242Y0036113D03*
X0122214Y0036113D03*
X0122186Y0036113D03*
X0122130Y0036113D03*
X0122102Y0036113D03*
X0122074Y0036113D03*
X0122046Y0036113D03*
X0122018Y0036113D03*
X0121962Y0036113D03*
X0121934Y0036113D03*
X0121906Y0036113D03*
X0121878Y0036113D03*
X0121850Y0036113D03*
X0121822Y0036113D03*
X0121766Y0036113D03*
X0121738Y0036113D03*
X0121710Y0036113D03*
X0121682Y0036113D03*
X0121654Y0036113D03*
X0121598Y0036113D03*
X0121570Y0036113D03*
X0121542Y0036113D03*
X0121514Y0036113D03*
X0121486Y0036113D03*
X0121430Y0036113D03*
X0121402Y0036113D03*
X0121374Y0036113D03*
X0121346Y0036113D03*
X0121318Y0036113D03*
X0121262Y0036113D03*
X0121234Y0036113D03*
X0121206Y0036113D03*
X0121178Y0036113D03*
X0121150Y0036113D03*
X0121122Y0036113D03*
X0121066Y0036113D03*
X0121038Y0036113D03*
X0121010Y0036113D03*
X0120982Y0036113D03*
X0120954Y0036113D03*
X0120898Y0036113D03*
X0120870Y0036113D03*
X0120842Y0036113D03*
X0120814Y0036113D03*
X0120786Y0036113D03*
X0120730Y0036113D03*
X0120702Y0036113D03*
X0120674Y0036113D03*
X0120646Y0036113D03*
X0120618Y0036113D03*
X0120562Y0036113D03*
X0120534Y0036113D03*
X0120506Y0036113D03*
X0120478Y0036113D03*
X0120450Y0036113D03*
X0120422Y0036113D03*
X0120366Y0036113D03*
X0120338Y0036113D03*
X0120310Y0036113D03*
X0120282Y0036113D03*
X0120254Y0036113D03*
X0120198Y0036113D03*
X0120170Y0036113D03*
X0120142Y0036113D03*
X0120114Y0036113D03*
X0120086Y0036113D03*
X0120030Y0036113D03*
X0120002Y0036113D03*
X0119974Y0036113D03*
X0119946Y0036113D03*
X0119918Y0036113D03*
X0119862Y0036113D03*
X0119834Y0036113D03*
X0119806Y0036113D03*
X0119778Y0036113D03*
X0119750Y0036113D03*
X0119722Y0036113D03*
X0119666Y0036113D03*
X0119638Y0036113D03*
X0119610Y0036113D03*
X0119582Y0036113D03*
X0119554Y0036113D03*
X0119498Y0036113D03*
X0119470Y0036113D03*
X0119442Y0036113D03*
X0119414Y0036113D03*
X0119386Y0036113D03*
X0119330Y0036113D03*
X0119302Y0036113D03*
X0119274Y0036113D03*
X0119246Y0036113D03*
X0119218Y0036113D03*
X0119162Y0036113D03*
X0119134Y0036113D03*
X0119106Y0036113D03*
X0119078Y0036113D03*
X0119050Y0036113D03*
X0119022Y0036113D03*
X0118966Y0036113D03*
X0118938Y0036113D03*
X0118910Y0036113D03*
X0118882Y0036113D03*
D117*
X0118882Y0040327D03*
X0119078Y0040327D03*
X0119106Y0040327D03*
X0124818Y0042511D03*
X0119274Y0044919D03*
X0119246Y0044919D03*
X0119218Y0044919D03*
X0120310Y0060347D03*
X0119218Y0063707D03*
X0126666Y0070483D03*
D118*
X0125238Y0067249D03*
X0120506Y0067249D03*
X0126554Y0063693D03*
X0126386Y0056357D03*
X0119302Y0056357D03*
X0118910Y0044849D03*
X0118882Y0044849D03*
D119*
X0118882Y0050589D03*
X0118910Y0050589D03*
X0118938Y0050589D03*
X0118966Y0050589D03*
X0119022Y0050589D03*
X0119050Y0050589D03*
X0119078Y0050589D03*
X0119106Y0050589D03*
X0119134Y0050589D03*
X0119162Y0050589D03*
X0119218Y0050589D03*
X0119246Y0050589D03*
X0119274Y0050589D03*
X0119302Y0050589D03*
X0119330Y0050589D03*
X0119386Y0050589D03*
X0119414Y0050589D03*
X0119442Y0050589D03*
X0119470Y0050589D03*
X0119498Y0050589D03*
X0119554Y0050589D03*
X0119582Y0050589D03*
X0119610Y0050589D03*
X0119638Y0050589D03*
X0119666Y0050589D03*
X0119722Y0050589D03*
X0119750Y0050589D03*
X0119778Y0050589D03*
X0119806Y0050589D03*
X0119834Y0050589D03*
X0119862Y0050589D03*
X0119918Y0050589D03*
X0119946Y0050589D03*
X0119974Y0050589D03*
X0120002Y0050589D03*
X0120030Y0050589D03*
X0120086Y0050589D03*
X0120114Y0050589D03*
X0120142Y0050589D03*
X0120170Y0050589D03*
X0120198Y0050589D03*
X0120254Y0050589D03*
X0120282Y0050589D03*
X0120310Y0050589D03*
X0120338Y0050589D03*
X0120366Y0050589D03*
X0120422Y0050589D03*
X0120450Y0050589D03*
X0120478Y0050589D03*
X0120506Y0050589D03*
X0120534Y0050589D03*
X0120562Y0050589D03*
X0120618Y0050589D03*
X0120646Y0050589D03*
X0120674Y0050589D03*
X0120702Y0050589D03*
X0120730Y0050589D03*
X0120786Y0050589D03*
X0120814Y0050589D03*
X0120842Y0050589D03*
X0120870Y0050589D03*
X0120898Y0050589D03*
X0120954Y0050589D03*
X0120982Y0050589D03*
X0121010Y0050589D03*
X0121038Y0050589D03*
X0121066Y0050589D03*
X0121122Y0050589D03*
X0121150Y0050589D03*
X0121178Y0050589D03*
X0121206Y0050589D03*
X0121234Y0050589D03*
X0121262Y0050589D03*
X0121318Y0050589D03*
X0121346Y0050589D03*
X0121374Y0050589D03*
X0121402Y0050589D03*
X0121430Y0050589D03*
X0121486Y0050589D03*
X0121514Y0050589D03*
X0121542Y0050589D03*
X0121570Y0050589D03*
X0121598Y0050589D03*
X0121654Y0050589D03*
X0121682Y0050589D03*
X0121710Y0050589D03*
X0121738Y0050589D03*
X0121766Y0050589D03*
X0121822Y0050589D03*
X0121850Y0050589D03*
X0121878Y0050589D03*
X0120898Y0060977D03*
X0120842Y0061005D03*
X0120814Y0061033D03*
X0124650Y0060893D03*
X0124706Y0060921D03*
X0124734Y0060949D03*
X0124762Y0060949D03*
D120*
X0118882Y0056847D03*
D121*
X0118882Y0063693D03*
X0126862Y0063693D03*
D122*
X0118882Y0070175D03*
D123*
X0124986Y0067249D03*
X0119078Y0056581D03*
X0126862Y0051513D03*
X0118938Y0024017D03*
X0118910Y0024017D03*
D124*
X0118910Y0040341D03*
X0118938Y0040341D03*
X0118966Y0040341D03*
X0119022Y0040341D03*
X0119050Y0040341D03*
X0124846Y0042497D03*
X0119162Y0044905D03*
X0119386Y0056301D03*
X0126302Y0056301D03*
X0120450Y0067249D03*
X0119106Y0070553D03*
D125*
X0121122Y0067249D03*
X0121150Y0067249D03*
X0124622Y0067249D03*
X0126806Y0056805D03*
X0118910Y0056805D03*
D126*
X0118910Y0063693D03*
X0126834Y0063693D03*
D127*
X0125042Y0067249D03*
X0120702Y0067249D03*
X0118910Y0070245D03*
X0126582Y0056525D03*
D128*
X0125322Y0060291D03*
X0120338Y0060347D03*
X0119330Y0056343D03*
X0118966Y0044863D03*
X0118938Y0044863D03*
X0124874Y0042511D03*
X0126722Y0070399D03*
X0119050Y0070483D03*
D129*
X0118938Y0056763D03*
X0126778Y0056763D03*
D130*
X0118938Y0063707D03*
X0124118Y0067235D03*
D131*
X0126834Y0070203D03*
X0118938Y0070287D03*
X0120422Y0060375D03*
X0125238Y0060319D03*
X0119162Y0056483D03*
X0121962Y0051611D03*
D132*
X0119078Y0063707D03*
X0120786Y0067235D03*
X0118966Y0024003D03*
D133*
X0119834Y0023877D03*
X0119862Y0023877D03*
X0119918Y0023877D03*
X0119946Y0023877D03*
X0119974Y0023877D03*
X0120002Y0023877D03*
X0120030Y0023877D03*
X0120086Y0023877D03*
X0120114Y0023877D03*
X0120142Y0023877D03*
X0120170Y0023877D03*
X0120198Y0023877D03*
X0120254Y0023877D03*
X0120282Y0023877D03*
X0120310Y0023877D03*
X0120338Y0023877D03*
X0120366Y0023877D03*
X0120422Y0023877D03*
X0120450Y0023877D03*
X0120478Y0023877D03*
X0120506Y0023877D03*
X0120534Y0023877D03*
X0120562Y0023877D03*
X0120618Y0023877D03*
X0120646Y0023877D03*
X0120674Y0023877D03*
X0120702Y0023877D03*
X0120730Y0023877D03*
X0120786Y0023877D03*
X0120814Y0023877D03*
X0120842Y0023877D03*
X0120870Y0023877D03*
X0120898Y0023877D03*
X0120954Y0023877D03*
X0120982Y0023877D03*
X0121010Y0023877D03*
X0121038Y0023877D03*
X0121066Y0023877D03*
X0121122Y0023877D03*
X0121150Y0023877D03*
X0121178Y0023877D03*
X0121206Y0023877D03*
X0121234Y0023877D03*
X0121262Y0023877D03*
X0121318Y0023877D03*
X0121346Y0023877D03*
X0121374Y0023877D03*
X0121402Y0023877D03*
X0121430Y0023877D03*
X0121486Y0023877D03*
X0121514Y0023877D03*
X0121542Y0023877D03*
X0121570Y0023877D03*
X0121598Y0023877D03*
X0121654Y0023877D03*
X0121682Y0023877D03*
X0121710Y0023877D03*
X0121738Y0023877D03*
X0121766Y0023877D03*
X0121822Y0023877D03*
X0121850Y0023877D03*
X0121878Y0023877D03*
X0121906Y0023877D03*
X0121934Y0023877D03*
X0121962Y0023877D03*
X0122018Y0023877D03*
X0122046Y0023877D03*
X0122074Y0023877D03*
X0122102Y0023877D03*
X0122130Y0023877D03*
X0122186Y0023877D03*
X0122214Y0023877D03*
X0122242Y0023877D03*
X0122270Y0023877D03*
X0122298Y0023877D03*
X0122354Y0023877D03*
X0122382Y0023877D03*
X0122410Y0023877D03*
X0122438Y0023877D03*
X0122466Y0023877D03*
X0122522Y0023877D03*
X0122550Y0023877D03*
X0122578Y0023877D03*
X0122606Y0023877D03*
X0122634Y0023877D03*
X0122662Y0023877D03*
X0122718Y0023877D03*
X0122746Y0023877D03*
X0122774Y0023877D03*
X0122802Y0023877D03*
X0122830Y0023877D03*
X0122886Y0023877D03*
X0122914Y0023877D03*
X0122942Y0023877D03*
X0122970Y0023877D03*
X0122998Y0023877D03*
X0123054Y0023877D03*
X0123082Y0023877D03*
X0123110Y0023877D03*
X0123138Y0023877D03*
X0123166Y0023877D03*
X0123222Y0023877D03*
X0123250Y0023877D03*
X0123278Y0023877D03*
X0123306Y0023877D03*
X0123334Y0023877D03*
X0123362Y0023877D03*
X0123418Y0023877D03*
X0123446Y0023877D03*
X0123474Y0023877D03*
X0123502Y0023877D03*
X0123530Y0023877D03*
X0123586Y0023877D03*
X0123614Y0023877D03*
X0123642Y0023877D03*
X0123670Y0023877D03*
X0123698Y0023877D03*
X0123754Y0023877D03*
X0123782Y0023877D03*
X0123810Y0023877D03*
X0123838Y0023877D03*
X0123866Y0023877D03*
X0123922Y0023877D03*
X0123950Y0023877D03*
X0123978Y0023877D03*
X0124006Y0023877D03*
X0124034Y0023877D03*
X0124062Y0023877D03*
X0124118Y0023877D03*
X0124146Y0023877D03*
X0124174Y0023877D03*
X0124202Y0023877D03*
X0124230Y0023877D03*
X0124286Y0023877D03*
X0124314Y0023877D03*
X0124342Y0023877D03*
X0124370Y0023877D03*
X0124398Y0023877D03*
X0124454Y0023877D03*
X0124482Y0023877D03*
X0124510Y0023877D03*
X0124538Y0023877D03*
X0124566Y0023877D03*
X0124622Y0023877D03*
X0124650Y0023877D03*
X0124678Y0023877D03*
X0124706Y0023877D03*
X0124734Y0023877D03*
X0124762Y0023877D03*
X0124818Y0023877D03*
X0124846Y0023877D03*
X0124874Y0023877D03*
X0124902Y0023877D03*
X0124930Y0023877D03*
X0124986Y0023877D03*
X0125014Y0023877D03*
X0125042Y0023877D03*
X0125070Y0023877D03*
X0125098Y0023877D03*
X0125154Y0023877D03*
X0125182Y0023877D03*
X0125210Y0023877D03*
X0125238Y0023877D03*
X0125266Y0023877D03*
X0125322Y0023877D03*
X0125350Y0023877D03*
X0125378Y0023877D03*
X0125406Y0023877D03*
X0125434Y0023877D03*
X0125462Y0023877D03*
X0125518Y0023877D03*
X0125546Y0023877D03*
X0125574Y0023877D03*
X0125602Y0023877D03*
X0125630Y0023877D03*
X0126750Y0056721D03*
X0118966Y0056721D03*
X0119022Y0063693D03*
X0120982Y0067249D03*
X0124762Y0067249D03*
D134*
X0126806Y0070259D03*
X0118966Y0070343D03*
X0119134Y0063707D03*
X0126498Y0056455D03*
X0126834Y0051639D03*
D135*
X0118994Y0024003D03*
D136*
X0118994Y0028875D03*
X0119190Y0028875D03*
X0119358Y0028875D03*
X0119526Y0028875D03*
X0119694Y0028875D03*
X0119890Y0028875D03*
X0120058Y0028875D03*
X0120226Y0028875D03*
X0120394Y0028875D03*
X0120590Y0028875D03*
X0120758Y0028875D03*
X0120926Y0028875D03*
X0121094Y0028875D03*
X0121290Y0028875D03*
X0121458Y0028875D03*
X0121626Y0028875D03*
X0121794Y0028875D03*
X0121990Y0028875D03*
X0122158Y0028875D03*
X0122326Y0028875D03*
X0122494Y0028875D03*
X0122690Y0028875D03*
X0122858Y0028875D03*
X0123026Y0028875D03*
X0123194Y0028875D03*
X0123390Y0028875D03*
X0123558Y0028875D03*
X0123726Y0028875D03*
X0123894Y0028875D03*
X0124090Y0028875D03*
X0124258Y0028875D03*
X0124426Y0028875D03*
X0124594Y0028875D03*
X0124790Y0028875D03*
D137*
X0124790Y0032641D03*
X0124594Y0032641D03*
X0124426Y0032641D03*
X0124258Y0032641D03*
X0124090Y0032641D03*
X0123894Y0032641D03*
X0123726Y0032641D03*
X0123558Y0032641D03*
X0123390Y0032641D03*
X0123194Y0032641D03*
X0123026Y0032641D03*
X0122858Y0032641D03*
X0122690Y0032641D03*
X0122494Y0032641D03*
X0122326Y0032641D03*
X0122158Y0032641D03*
X0121990Y0032641D03*
X0121794Y0032641D03*
X0121626Y0032641D03*
X0121458Y0032641D03*
X0121290Y0032641D03*
X0121094Y0032641D03*
X0120926Y0032641D03*
X0120758Y0032641D03*
X0120590Y0032641D03*
X0120394Y0032641D03*
X0120226Y0032641D03*
X0120058Y0032641D03*
X0119890Y0032641D03*
X0119694Y0032641D03*
X0119526Y0032641D03*
X0119358Y0032641D03*
X0119190Y0032641D03*
X0118994Y0032641D03*
X0123726Y0036281D03*
X0123026Y0052549D03*
X0125826Y0052549D03*
X0123726Y0055545D03*
X0121990Y0055545D03*
X0120058Y0067249D03*
D138*
X0120058Y0036113D03*
X0119890Y0036113D03*
X0119694Y0036113D03*
X0119526Y0036113D03*
X0119358Y0036113D03*
X0119190Y0036113D03*
X0118994Y0036113D03*
X0120226Y0036113D03*
X0120394Y0036113D03*
X0120590Y0036113D03*
X0120758Y0036113D03*
X0120926Y0036113D03*
X0121094Y0036113D03*
X0121290Y0036113D03*
X0121458Y0036113D03*
X0121626Y0036113D03*
X0121794Y0036113D03*
X0121990Y0036113D03*
X0122158Y0036113D03*
X0122326Y0036113D03*
D139*
X0118994Y0040341D03*
X0119190Y0044905D03*
X0126526Y0063693D03*
X0125294Y0067249D03*
D140*
X0126358Y0056329D03*
X0118994Y0044877D03*
D141*
X0118994Y0050589D03*
X0119190Y0050589D03*
X0119358Y0050589D03*
X0119526Y0050589D03*
X0119694Y0050589D03*
X0119890Y0050589D03*
X0120058Y0050589D03*
X0120226Y0050589D03*
X0120394Y0050589D03*
X0120590Y0050589D03*
X0120758Y0050589D03*
X0120926Y0050589D03*
X0121094Y0050589D03*
X0121290Y0050589D03*
X0121458Y0050589D03*
X0121626Y0050589D03*
X0121794Y0050589D03*
X0120758Y0061061D03*
D142*
X0118994Y0063693D03*
X0124594Y0067249D03*
D143*
X0118994Y0070385D03*
D144*
X0120814Y0067249D03*
X0124930Y0067249D03*
X0126666Y0063693D03*
X0121934Y0051485D03*
X0119050Y0023989D03*
X0119022Y0023989D03*
D145*
X0119022Y0044877D03*
X0119050Y0044877D03*
X0120478Y0067249D03*
X0119078Y0070525D03*
X0125266Y0067249D03*
D146*
X0125210Y0067249D03*
X0126750Y0070357D03*
X0120534Y0067249D03*
X0119022Y0070441D03*
X0119274Y0056385D03*
X0126414Y0056385D03*
X0126806Y0051709D03*
X0124874Y0028889D03*
D147*
X0119050Y0056609D03*
D148*
X0119050Y0063707D03*
X0126918Y0069979D03*
X0119274Y0023947D03*
X0119246Y0023947D03*
D149*
X0119134Y0023975D03*
X0119106Y0023975D03*
X0119078Y0023975D03*
X0126666Y0056623D03*
D150*
X0126330Y0056315D03*
X0125350Y0060291D03*
X0126778Y0051779D03*
X0122018Y0051779D03*
X0119134Y0044891D03*
X0119106Y0044891D03*
X0119078Y0044891D03*
D151*
X0119106Y0056539D03*
X0119106Y0063707D03*
X0126638Y0063707D03*
X0126862Y0070147D03*
D152*
X0126638Y0070525D03*
X0119134Y0070581D03*
X0125378Y0060277D03*
X0126274Y0056273D03*
X0119414Y0056273D03*
X0119330Y0044933D03*
X0119302Y0044933D03*
X0119162Y0040313D03*
X0119134Y0040313D03*
D153*
X0119134Y0056511D03*
D154*
X0119162Y0063707D03*
D155*
X0119246Y0063707D03*
X0126498Y0063707D03*
X0119162Y0070623D03*
X0122046Y0051835D03*
X0119414Y0044947D03*
X0119386Y0044947D03*
X0124734Y0042511D03*
X0124762Y0042511D03*
X0119246Y0040299D03*
X0119218Y0040299D03*
D156*
X0119190Y0023961D03*
D157*
X0119190Y0040313D03*
X0124790Y0042497D03*
D158*
X0119190Y0056455D03*
D159*
X0119190Y0063707D03*
D160*
X0119190Y0070651D03*
X0119526Y0044975D03*
X0119358Y0040271D03*
D161*
X0119218Y0056427D03*
X0126470Y0056427D03*
D162*
X0124622Y0042497D03*
X0119442Y0040257D03*
X0119414Y0040257D03*
X0119218Y0070693D03*
D163*
X0120562Y0067249D03*
X0125182Y0067249D03*
X0119246Y0056413D03*
D164*
X0119554Y0056189D03*
X0126134Y0056189D03*
X0124902Y0049273D03*
X0124874Y0049273D03*
X0124846Y0049273D03*
X0124818Y0049273D03*
X0124006Y0049273D03*
X0123978Y0049273D03*
X0123950Y0049273D03*
X0119778Y0045017D03*
X0119750Y0045017D03*
X0124538Y0042497D03*
X0119582Y0040229D03*
X0119554Y0040229D03*
X0120366Y0067249D03*
X0125378Y0067249D03*
X0126554Y0070637D03*
X0119246Y0070721D03*
D165*
X0119442Y0044961D03*
X0119470Y0044961D03*
X0119498Y0044961D03*
X0124706Y0042497D03*
X0119302Y0040285D03*
X0119274Y0040285D03*
D166*
X0119666Y0045003D03*
X0119722Y0045003D03*
X0124034Y0049287D03*
X0124062Y0049287D03*
X0124118Y0049287D03*
X0124146Y0049287D03*
X0124174Y0049287D03*
X0124202Y0049287D03*
X0124230Y0049287D03*
X0124622Y0049287D03*
X0124650Y0049287D03*
X0124678Y0049287D03*
X0124706Y0049287D03*
X0124734Y0049287D03*
X0124762Y0049287D03*
X0126722Y0051891D03*
X0126162Y0056203D03*
X0126470Y0063707D03*
X0119274Y0063707D03*
D167*
X0125406Y0067249D03*
X0126498Y0070693D03*
X0119302Y0070777D03*
X0119274Y0070749D03*
X0126442Y0063693D03*
X0126078Y0056161D03*
X0122102Y0051933D03*
X0123782Y0049245D03*
X0123810Y0049245D03*
X0124986Y0049245D03*
X0125014Y0049245D03*
X0125042Y0049245D03*
X0119946Y0045045D03*
X0119918Y0045045D03*
X0124454Y0042497D03*
X0119722Y0040201D03*
D168*
X0119386Y0023933D03*
X0119330Y0023933D03*
X0119302Y0023933D03*
X0120870Y0067249D03*
X0120898Y0067249D03*
X0124846Y0067249D03*
X0124874Y0067249D03*
D169*
X0119302Y0063707D03*
X0119610Y0056147D03*
X0126050Y0056147D03*
X0125098Y0049231D03*
X0125070Y0049231D03*
X0123754Y0049231D03*
X0120002Y0045059D03*
X0119974Y0045059D03*
X0124398Y0042511D03*
X0119806Y0040187D03*
X0119778Y0040187D03*
X0119750Y0040187D03*
D170*
X0119386Y0040271D03*
X0119330Y0040271D03*
X0124650Y0042511D03*
X0124678Y0042511D03*
X0119554Y0044975D03*
X0120282Y0060319D03*
D171*
X0125462Y0060263D03*
X0119330Y0063679D03*
X0119666Y0056119D03*
X0122130Y0051975D03*
X0123614Y0049203D03*
X0123642Y0049203D03*
X0125182Y0049203D03*
X0120170Y0045087D03*
X0120142Y0045087D03*
X0120114Y0045087D03*
X0124342Y0042511D03*
X0124370Y0042511D03*
X0119918Y0040159D03*
X0126442Y0070763D03*
D172*
X0126470Y0070721D03*
X0120338Y0067249D03*
X0119330Y0070805D03*
X0119638Y0056133D03*
X0126022Y0056133D03*
X0125154Y0049217D03*
X0123698Y0049217D03*
X0123670Y0049217D03*
X0120086Y0045073D03*
X0120030Y0045073D03*
X0119862Y0040173D03*
X0119834Y0040173D03*
D173*
X0119358Y0023933D03*
X0126694Y0063693D03*
D174*
X0119358Y0044947D03*
D175*
X0119358Y0056315D03*
X0126694Y0070455D03*
D176*
X0119358Y0063651D03*
X0120226Y0060291D03*
X0125994Y0056119D03*
X0119890Y0040159D03*
D177*
X0120226Y0045101D03*
X0119694Y0056105D03*
X0119358Y0070833D03*
D178*
X0119386Y0070847D03*
X0119414Y0070875D03*
X0126386Y0070819D03*
X0119386Y0063623D03*
X0119722Y0056091D03*
X0125966Y0056091D03*
X0125266Y0049175D03*
X0123530Y0049175D03*
X0120310Y0045115D03*
X0120282Y0045115D03*
X0120254Y0045115D03*
X0124286Y0042511D03*
X0120030Y0040131D03*
D179*
X0119498Y0023919D03*
X0119470Y0023919D03*
X0119442Y0023919D03*
X0119414Y0023919D03*
X0126722Y0056679D03*
D180*
X0126246Y0056259D03*
X0119442Y0056259D03*
X0125322Y0067263D03*
D181*
X0119442Y0063595D03*
X0119778Y0056063D03*
X0125910Y0056063D03*
X0122634Y0036127D03*
X0122606Y0036127D03*
X0122578Y0036127D03*
X0122550Y0036127D03*
X0122522Y0036127D03*
X0122466Y0036127D03*
D182*
X0120198Y0040103D03*
X0120170Y0040103D03*
X0124174Y0042511D03*
X0124202Y0042511D03*
X0120450Y0045143D03*
X0120422Y0045143D03*
X0123446Y0049147D03*
X0123474Y0049147D03*
X0125322Y0049147D03*
X0126386Y0063707D03*
X0119442Y0070903D03*
D183*
X0124566Y0042511D03*
X0119498Y0040243D03*
X0119470Y0040243D03*
D184*
X0126750Y0051849D03*
X0126218Y0056245D03*
X0119470Y0056245D03*
X0120422Y0067249D03*
D185*
X0119470Y0063567D03*
X0119834Y0056035D03*
X0125854Y0056035D03*
X0126610Y0052059D03*
X0125378Y0049119D03*
X0120562Y0045171D03*
X0122774Y0036127D03*
X0122802Y0036127D03*
X0122830Y0036127D03*
X0122886Y0036127D03*
X0122914Y0036127D03*
X0122942Y0036127D03*
D186*
X0122746Y0036113D03*
X0122718Y0036113D03*
X0122662Y0036113D03*
X0122186Y0052045D03*
X0119806Y0056049D03*
X0125882Y0056049D03*
X0120198Y0060277D03*
X0120282Y0067249D03*
X0119470Y0070917D03*
X0119498Y0070945D03*
D187*
X0126582Y0070609D03*
X0125406Y0060277D03*
X0119498Y0056217D03*
X0122074Y0051877D03*
X0124286Y0049301D03*
X0124314Y0049301D03*
X0124342Y0049301D03*
X0124370Y0049301D03*
X0124398Y0049301D03*
X0124454Y0049301D03*
X0124482Y0049301D03*
X0124510Y0049301D03*
X0124538Y0049301D03*
X0124566Y0049301D03*
X0119638Y0044989D03*
X0119610Y0044989D03*
X0119582Y0044989D03*
D188*
X0120618Y0045185D03*
X0120646Y0045185D03*
X0120674Y0045185D03*
X0125406Y0049105D03*
X0125798Y0056021D03*
X0119862Y0056021D03*
X0119498Y0063553D03*
X0120254Y0067249D03*
X0126274Y0070917D03*
D189*
X0124790Y0067249D03*
X0120926Y0067249D03*
X0119526Y0023905D03*
D190*
X0119526Y0040243D03*
X0124594Y0042511D03*
D191*
X0119694Y0045003D03*
X0124090Y0049287D03*
X0124258Y0049287D03*
X0119526Y0056203D03*
D192*
X0125826Y0056021D03*
X0123390Y0049105D03*
X0126358Y0063693D03*
X0119526Y0063525D03*
X0125490Y0067249D03*
X0119526Y0070973D03*
D193*
X0124818Y0067249D03*
X0119610Y0023905D03*
X0119582Y0023905D03*
X0119554Y0023905D03*
D194*
X0123110Y0036141D03*
X0120534Y0040033D03*
X0120506Y0040033D03*
X0120786Y0045213D03*
X0120814Y0045213D03*
X0123334Y0049077D03*
X0125462Y0049077D03*
X0125742Y0055993D03*
X0119946Y0055993D03*
X0119918Y0055993D03*
X0119554Y0063497D03*
X0126330Y0063693D03*
X0119582Y0071001D03*
D195*
X0119554Y0070987D03*
X0126218Y0070959D03*
X0126246Y0070931D03*
X0125518Y0060235D03*
X0125770Y0056007D03*
X0126582Y0052087D03*
X0122214Y0052087D03*
X0123362Y0049091D03*
X0125434Y0049091D03*
X0120730Y0045199D03*
X0120702Y0045199D03*
X0124006Y0042511D03*
X0124034Y0042511D03*
X0124062Y0042511D03*
X0120478Y0040047D03*
X0120450Y0040047D03*
X0120422Y0040047D03*
X0122970Y0036127D03*
X0122998Y0036127D03*
X0123054Y0036127D03*
X0123082Y0036127D03*
D196*
X0119666Y0040215D03*
X0119638Y0040215D03*
X0119610Y0040215D03*
X0124482Y0042511D03*
X0124510Y0042511D03*
X0119862Y0045031D03*
X0119834Y0045031D03*
X0119806Y0045031D03*
X0123838Y0049259D03*
X0123866Y0049259D03*
X0123922Y0049259D03*
X0124930Y0049259D03*
X0126106Y0056175D03*
X0119582Y0056175D03*
X0120254Y0060319D03*
X0125434Y0060263D03*
D197*
X0120170Y0060263D03*
X0119582Y0063483D03*
X0126302Y0063679D03*
X0125518Y0067263D03*
X0125714Y0055979D03*
X0119974Y0055979D03*
X0122242Y0052115D03*
X0126554Y0052115D03*
X0123306Y0049063D03*
X0120898Y0045227D03*
X0120870Y0045227D03*
X0120842Y0045227D03*
X0123922Y0042511D03*
X0123950Y0042511D03*
X0123978Y0042511D03*
X0120618Y0040019D03*
X0120562Y0040019D03*
X0123138Y0036127D03*
D198*
X0123166Y0036141D03*
X0120674Y0040005D03*
X0120646Y0040005D03*
X0120954Y0045241D03*
X0120982Y0045241D03*
X0123278Y0049049D03*
X0125686Y0055965D03*
X0120002Y0055965D03*
X0119610Y0063469D03*
X0126274Y0063637D03*
X0126162Y0071001D03*
X0119638Y0071057D03*
X0119610Y0071029D03*
D199*
X0120954Y0067235D03*
X0119806Y0023891D03*
X0119778Y0023891D03*
X0119750Y0023891D03*
X0119722Y0023891D03*
X0119666Y0023891D03*
X0119638Y0023891D03*
X0125686Y0023863D03*
D200*
X0123222Y0036155D03*
X0120730Y0039991D03*
X0120702Y0039991D03*
X0123838Y0042511D03*
X0123866Y0042511D03*
X0121038Y0045255D03*
X0121010Y0045255D03*
X0125518Y0049035D03*
X0122270Y0052143D03*
X0120030Y0055951D03*
X0125546Y0060235D03*
X0126218Y0063595D03*
X0126246Y0063623D03*
X0119638Y0063455D03*
X0119666Y0071071D03*
X0126106Y0071043D03*
X0126134Y0071015D03*
D201*
X0126078Y0071057D03*
X0119666Y0063441D03*
X0125602Y0055937D03*
X0125630Y0055937D03*
X0125546Y0049021D03*
X0123250Y0049021D03*
X0121122Y0045269D03*
X0121066Y0045269D03*
X0120814Y0039977D03*
X0120786Y0039977D03*
D202*
X0119694Y0023891D03*
D203*
X0119694Y0040201D03*
X0119890Y0045045D03*
X0126694Y0051933D03*
D204*
X0120058Y0055937D03*
X0119694Y0063413D03*
X0119694Y0071085D03*
X0121094Y0045269D03*
D205*
X0121150Y0045283D03*
X0121178Y0045283D03*
X0121206Y0045283D03*
X0123782Y0042511D03*
X0123810Y0042511D03*
X0120898Y0039963D03*
X0120870Y0039963D03*
X0120842Y0039963D03*
X0123250Y0036155D03*
X0123278Y0036155D03*
X0123222Y0049007D03*
X0122298Y0052171D03*
X0126498Y0052171D03*
X0125574Y0055923D03*
X0120114Y0055923D03*
X0120086Y0055923D03*
X0119722Y0063399D03*
X0125546Y0067263D03*
X0126050Y0071071D03*
X0119722Y0071099D03*
D206*
X0119806Y0071155D03*
X0119750Y0063371D03*
X0126078Y0063483D03*
X0126106Y0063511D03*
X0121346Y0045311D03*
X0121318Y0045311D03*
X0123698Y0042511D03*
X0121010Y0039935D03*
X0120982Y0039935D03*
D207*
X0120142Y0055909D03*
X0125546Y0055909D03*
X0119750Y0071113D03*
D208*
X0119834Y0071169D03*
X0119778Y0063357D03*
X0126050Y0063469D03*
X0125574Y0060221D03*
X0125602Y0048965D03*
X0121402Y0045325D03*
X0121374Y0045325D03*
X0123670Y0042525D03*
X0121066Y0039921D03*
X0121038Y0039921D03*
X0123334Y0036169D03*
D209*
X0126470Y0052199D03*
X0125518Y0055895D03*
X0120170Y0055895D03*
X0120142Y0060263D03*
X0119778Y0071127D03*
X0125966Y0071127D03*
D210*
X0119862Y0071183D03*
X0119806Y0063343D03*
X0123614Y0042511D03*
X0123642Y0042511D03*
X0121150Y0039907D03*
X0121122Y0039907D03*
X0123362Y0036183D03*
D211*
X0121234Y0039893D03*
X0121206Y0039893D03*
X0121178Y0039893D03*
X0119834Y0063329D03*
D212*
X0119862Y0063301D03*
X0126022Y0063441D03*
X0120170Y0067249D03*
X0125882Y0071169D03*
X0125910Y0071169D03*
X0125378Y0055853D03*
X0120310Y0055853D03*
X0120282Y0055853D03*
X0122382Y0052241D03*
X0126414Y0052241D03*
X0123166Y0048937D03*
X0121570Y0045353D03*
X0121542Y0045353D03*
X0121514Y0045353D03*
D213*
X0121458Y0023877D03*
X0121290Y0023877D03*
X0121094Y0023877D03*
X0120926Y0023877D03*
X0120758Y0023877D03*
X0120590Y0023877D03*
X0120394Y0023877D03*
X0120226Y0023877D03*
X0120058Y0023877D03*
X0119890Y0023877D03*
X0121626Y0023877D03*
X0121794Y0023877D03*
X0121990Y0023877D03*
X0122158Y0023877D03*
X0122326Y0023877D03*
X0122494Y0023877D03*
X0122690Y0023877D03*
X0122858Y0023877D03*
X0123026Y0023877D03*
X0123194Y0023877D03*
X0123390Y0023877D03*
X0123558Y0023877D03*
X0123726Y0023877D03*
X0123894Y0023877D03*
X0124090Y0023877D03*
X0124258Y0023877D03*
X0124426Y0023877D03*
X0124594Y0023877D03*
X0124790Y0023877D03*
X0124958Y0023877D03*
X0125126Y0023877D03*
X0125294Y0023877D03*
X0125490Y0023877D03*
X0125658Y0023877D03*
D214*
X0123026Y0036127D03*
X0120758Y0045199D03*
X0119890Y0056007D03*
D215*
X0119890Y0063287D03*
X0121626Y0045367D03*
X0123558Y0042511D03*
X0121290Y0039879D03*
D216*
X0119890Y0071197D03*
D217*
X0119918Y0071211D03*
X0125854Y0071183D03*
X0125966Y0063399D03*
X0125938Y0063371D03*
X0119918Y0063287D03*
X0120338Y0055839D03*
X0125350Y0055839D03*
X0122410Y0052255D03*
X0125630Y0048923D03*
X0121598Y0045367D03*
X0123530Y0042511D03*
X0123586Y0042511D03*
X0121262Y0039879D03*
X0123418Y0036183D03*
D218*
X0120002Y0040145D03*
X0119974Y0040145D03*
X0119946Y0040145D03*
X0124314Y0042497D03*
X0120198Y0045101D03*
X0123586Y0049189D03*
X0125210Y0049189D03*
X0125238Y0049189D03*
X0126666Y0051989D03*
X0126414Y0063693D03*
X0125434Y0067249D03*
X0120310Y0067249D03*
X0126414Y0070777D03*
D219*
X0125798Y0071225D03*
X0119946Y0071225D03*
X0125602Y0067249D03*
X0125910Y0063357D03*
X0119946Y0063273D03*
X0120114Y0060249D03*
X0120366Y0055825D03*
X0125322Y0055825D03*
X0126386Y0052269D03*
X0123138Y0048909D03*
X0121710Y0045381D03*
X0121682Y0045381D03*
X0121654Y0045381D03*
X0121374Y0039865D03*
X0121346Y0039865D03*
X0121318Y0039865D03*
X0123446Y0036197D03*
D220*
X0124622Y0034965D03*
X0121598Y0042525D03*
X0119974Y0060165D03*
X0125770Y0060165D03*
D221*
X0125602Y0060207D03*
X0125798Y0063287D03*
X0125854Y0063315D03*
X0125882Y0063343D03*
X0119974Y0063259D03*
X0120422Y0055811D03*
X0125238Y0055811D03*
X0125266Y0055811D03*
X0122438Y0052283D03*
X0121766Y0045395D03*
X0121738Y0045395D03*
X0123474Y0042511D03*
X0123502Y0042511D03*
X0121430Y0039851D03*
X0121402Y0039851D03*
X0120002Y0071239D03*
X0119974Y0071239D03*
X0125770Y0071239D03*
D222*
X0119974Y0067249D03*
X0124538Y0034909D03*
D223*
X0124146Y0045843D03*
X0124118Y0045843D03*
X0120002Y0060179D03*
X0122130Y0071687D03*
X0122186Y0071687D03*
X0122214Y0071687D03*
X0122242Y0071687D03*
X0122270Y0071687D03*
X0122298Y0071687D03*
X0122354Y0071687D03*
X0123418Y0071687D03*
X0123446Y0071687D03*
X0123474Y0071687D03*
X0123502Y0071687D03*
X0123530Y0071687D03*
X0123586Y0071687D03*
X0123614Y0071687D03*
D224*
X0125742Y0071253D03*
X0120030Y0071253D03*
X0120142Y0067249D03*
X0120002Y0063245D03*
X0120030Y0063217D03*
X0125742Y0063245D03*
X0125770Y0063273D03*
X0125210Y0055797D03*
X0122466Y0052297D03*
X0120478Y0055797D03*
X0120450Y0055797D03*
X0121822Y0045409D03*
X0121850Y0045409D03*
X0123446Y0042525D03*
X0121514Y0039837D03*
X0121486Y0039837D03*
X0123474Y0036197D03*
D225*
X0122018Y0042525D03*
X0124482Y0045913D03*
X0124510Y0045913D03*
X0120002Y0067249D03*
D226*
X0120030Y0060207D03*
X0123166Y0052591D03*
X0125686Y0052591D03*
X0123418Y0045703D03*
X0123362Y0045703D03*
X0124566Y0038871D03*
X0123754Y0036295D03*
D227*
X0124342Y0039025D03*
X0124286Y0039053D03*
X0124230Y0039081D03*
X0123474Y0039389D03*
X0123418Y0039417D03*
X0123362Y0039417D03*
X0122438Y0042525D03*
X0122410Y0042525D03*
X0122382Y0042525D03*
X0123754Y0045773D03*
X0123782Y0045773D03*
X0123530Y0052661D03*
X0123502Y0052661D03*
X0123474Y0052661D03*
X0125350Y0052661D03*
X0125378Y0052661D03*
X0125406Y0052661D03*
X0120030Y0067249D03*
X0121430Y0071617D03*
X0121486Y0071617D03*
X0124286Y0071617D03*
X0124314Y0071617D03*
X0124342Y0071617D03*
D228*
X0122158Y0052003D03*
X0123558Y0049175D03*
X0124258Y0042511D03*
X0120058Y0040131D03*
D229*
X0120058Y0045073D03*
X0125126Y0049217D03*
D230*
X0122690Y0045577D03*
X0122326Y0039669D03*
X0124790Y0038661D03*
X0124426Y0055629D03*
X0121290Y0055629D03*
X0120058Y0060221D03*
D231*
X0120058Y0063203D03*
X0120058Y0071267D03*
X0123390Y0042511D03*
D232*
X0124230Y0042497D03*
X0120366Y0045129D03*
X0120338Y0045129D03*
X0123502Y0049161D03*
X0126638Y0052017D03*
X0120142Y0040117D03*
X0120114Y0040117D03*
X0120086Y0040117D03*
D233*
X0121822Y0039767D03*
X0121850Y0039767D03*
X0123222Y0042511D03*
X0123250Y0042511D03*
X0122242Y0045479D03*
X0122214Y0045479D03*
X0122186Y0045479D03*
X0125714Y0048811D03*
X0126218Y0052367D03*
X0122578Y0052367D03*
X0120086Y0060235D03*
X0120254Y0063119D03*
X0125266Y0062979D03*
X0125322Y0063007D03*
X0125350Y0063035D03*
X0125378Y0063035D03*
X0125630Y0060207D03*
X0125574Y0071323D03*
X0125546Y0071323D03*
X0120198Y0071323D03*
D234*
X0120086Y0071281D03*
X0120086Y0063189D03*
X0120114Y0063189D03*
X0125602Y0063161D03*
X0125686Y0063217D03*
X0125098Y0055769D03*
X0126302Y0052325D03*
X0120562Y0055769D03*
X0125686Y0048853D03*
X0122018Y0045437D03*
X0121962Y0045437D03*
X0123362Y0042525D03*
X0121598Y0039809D03*
D235*
X0122270Y0039669D03*
X0122298Y0039669D03*
X0122942Y0042525D03*
X0122970Y0042525D03*
X0122746Y0045577D03*
X0122718Y0045577D03*
X0122774Y0052465D03*
X0122802Y0052465D03*
X0126022Y0052465D03*
X0124510Y0055629D03*
X0124482Y0055629D03*
X0124454Y0055629D03*
X0121262Y0055629D03*
X0121234Y0055629D03*
X0121206Y0055629D03*
X0120086Y0067249D03*
X0120478Y0071421D03*
X0120506Y0071421D03*
X0125238Y0071421D03*
X0125266Y0071421D03*
D236*
X0120114Y0067249D03*
X0120282Y0063105D03*
X0120310Y0063105D03*
X0120786Y0055713D03*
X0120814Y0055713D03*
X0124874Y0055713D03*
X0124902Y0055713D03*
X0122606Y0052381D03*
X0124874Y0038577D03*
D237*
X0121710Y0039795D03*
X0121682Y0039795D03*
X0121654Y0039795D03*
X0123306Y0042511D03*
X0123334Y0042511D03*
X0122074Y0045451D03*
X0122046Y0045451D03*
X0122522Y0052339D03*
X0126274Y0052339D03*
X0125070Y0055755D03*
X0125042Y0055755D03*
X0120646Y0055755D03*
X0120618Y0055755D03*
X0120142Y0063175D03*
X0125518Y0063119D03*
X0125574Y0063147D03*
X0125630Y0063175D03*
X0125630Y0071295D03*
X0120114Y0071295D03*
X0123530Y0036211D03*
D238*
X0121766Y0039781D03*
X0121738Y0039781D03*
X0123278Y0042525D03*
X0122130Y0045465D03*
X0122102Y0045465D03*
X0123082Y0048825D03*
X0122550Y0052353D03*
X0126246Y0052353D03*
X0125014Y0055741D03*
X0124986Y0055741D03*
X0120702Y0055741D03*
X0120674Y0055741D03*
X0120198Y0063133D03*
X0120170Y0063161D03*
X0125406Y0063049D03*
X0125546Y0063133D03*
X0125630Y0067249D03*
X0125602Y0071309D03*
X0120170Y0071309D03*
X0120142Y0071309D03*
D239*
X0125574Y0067249D03*
X0125462Y0055881D03*
X0120198Y0055881D03*
X0122354Y0052213D03*
X0126442Y0052213D03*
D240*
X0125574Y0048993D03*
X0121262Y0045297D03*
X0121234Y0045297D03*
X0123754Y0042525D03*
X0120954Y0039949D03*
X0123306Y0036169D03*
X0126134Y0063525D03*
X0126162Y0063553D03*
X0120198Y0067249D03*
X0126022Y0071085D03*
D241*
X0120226Y0040089D03*
D242*
X0120226Y0055881D03*
D243*
X0120226Y0063133D03*
X0125490Y0063105D03*
X0122158Y0045465D03*
X0123558Y0036225D03*
D244*
X0123194Y0036141D03*
X0120926Y0045241D03*
X0120226Y0067249D03*
D245*
X0120226Y0071337D03*
X0125294Y0062993D03*
X0123194Y0042525D03*
D246*
X0124146Y0042497D03*
X0120534Y0045157D03*
X0120506Y0045157D03*
X0120478Y0045157D03*
X0123418Y0049133D03*
X0125350Y0049133D03*
X0120282Y0040089D03*
X0120254Y0040089D03*
X0126330Y0070861D03*
X0126302Y0070889D03*
D247*
X0125938Y0071155D03*
X0125434Y0055867D03*
X0125406Y0055867D03*
X0120254Y0055867D03*
X0121430Y0045339D03*
X0121486Y0045339D03*
D248*
X0122270Y0045493D03*
X0122298Y0045493D03*
X0121906Y0039753D03*
X0121878Y0039753D03*
X0125238Y0062965D03*
X0125518Y0071337D03*
X0120254Y0071337D03*
D249*
X0120282Y0071351D03*
X0125462Y0071351D03*
X0122382Y0045507D03*
X0122354Y0045507D03*
X0123166Y0042511D03*
X0121962Y0039739D03*
X0121934Y0039739D03*
X0123586Y0036239D03*
D250*
X0120338Y0040075D03*
X0120310Y0040075D03*
X0124118Y0042511D03*
D251*
X0123138Y0042525D03*
X0123110Y0042525D03*
X0122046Y0039725D03*
X0122018Y0039725D03*
X0120338Y0071365D03*
X0120310Y0071365D03*
X0125434Y0071365D03*
D252*
X0120338Y0063091D03*
X0120366Y0063063D03*
X0120842Y0055699D03*
X0120870Y0055699D03*
X0120898Y0055699D03*
X0124818Y0055699D03*
X0124846Y0055699D03*
X0122634Y0052395D03*
D253*
X0120366Y0040061D03*
D254*
X0120366Y0060361D03*
D255*
X0120366Y0071379D03*
X0125378Y0071379D03*
X0125406Y0071379D03*
X0123082Y0042511D03*
X0122130Y0039711D03*
X0122102Y0039711D03*
X0122074Y0039711D03*
D256*
X0120394Y0040061D03*
D257*
X0120394Y0045129D03*
X0125294Y0049161D03*
D258*
X0125294Y0055825D03*
X0120394Y0055825D03*
X0125826Y0071197D03*
D259*
X0120590Y0067249D03*
X0120394Y0060361D03*
D260*
X0120394Y0063063D03*
D261*
X0120394Y0067249D03*
X0126190Y0056217D03*
X0124594Y0049301D03*
X0124426Y0049301D03*
D262*
X0123026Y0042525D03*
X0122158Y0039697D03*
X0121094Y0055657D03*
X0125658Y0060193D03*
X0120394Y0071393D03*
D263*
X0120422Y0063049D03*
X0120954Y0055685D03*
X0124734Y0055685D03*
X0124762Y0055685D03*
X0126162Y0052409D03*
X0122662Y0052409D03*
X0123054Y0048769D03*
X0122438Y0045521D03*
X0122410Y0045521D03*
D264*
X0122550Y0045549D03*
X0122578Y0045549D03*
X0122606Y0045549D03*
X0123054Y0042525D03*
X0122186Y0039697D03*
X0123642Y0036253D03*
X0125742Y0048741D03*
X0126106Y0052437D03*
X0122718Y0052437D03*
X0121066Y0055657D03*
X0124622Y0055657D03*
X0124650Y0055657D03*
X0125350Y0071393D03*
X0120422Y0071393D03*
D265*
X0120450Y0061285D03*
D266*
X0121122Y0055643D03*
X0121150Y0055643D03*
X0121178Y0055643D03*
X0124538Y0055643D03*
X0124566Y0055643D03*
X0126050Y0052451D03*
X0126078Y0052451D03*
X0122746Y0052451D03*
X0122662Y0045563D03*
X0122634Y0045563D03*
X0122998Y0042511D03*
X0122242Y0039683D03*
X0122214Y0039683D03*
X0124818Y0038619D03*
X0125322Y0071407D03*
X0120450Y0071407D03*
D267*
X0120478Y0061271D03*
D268*
X0125714Y0063231D03*
X0125182Y0055783D03*
X0125154Y0055783D03*
X0126330Y0052311D03*
X0120534Y0055783D03*
X0120506Y0055783D03*
X0123110Y0048867D03*
X0121934Y0045423D03*
X0121906Y0045423D03*
X0121878Y0045423D03*
X0123418Y0042511D03*
X0121570Y0039823D03*
X0121542Y0039823D03*
X0123502Y0036211D03*
X0125686Y0071267D03*
X0125714Y0071267D03*
D269*
X0125154Y0061201D03*
X0120506Y0061229D03*
D270*
X0120534Y0061215D03*
X0120562Y0061187D03*
X0124986Y0061075D03*
X0125014Y0061103D03*
D271*
X0124398Y0055615D03*
X0124370Y0055615D03*
X0124342Y0055615D03*
X0121374Y0055615D03*
X0121346Y0055615D03*
X0121318Y0055615D03*
X0122830Y0052479D03*
X0122830Y0045591D03*
X0122802Y0045591D03*
X0122774Y0045591D03*
X0122914Y0042511D03*
X0122382Y0039655D03*
X0122354Y0039655D03*
X0123670Y0036267D03*
X0125210Y0071435D03*
X0120562Y0071435D03*
X0120534Y0071435D03*
D272*
X0126190Y0070987D03*
X0125490Y0049063D03*
X0120590Y0040019D03*
D273*
X0120590Y0042567D03*
D274*
X0120590Y0045171D03*
X0122858Y0036127D03*
D275*
X0121626Y0039809D03*
X0121990Y0045437D03*
X0122494Y0052325D03*
X0120590Y0055769D03*
X0125126Y0055769D03*
X0125658Y0063189D03*
X0125658Y0071281D03*
D276*
X0124958Y0061061D03*
X0120590Y0061173D03*
D277*
X0121458Y0055601D03*
X0124258Y0055601D03*
X0122858Y0052493D03*
X0123026Y0048685D03*
X0122858Y0045605D03*
X0122858Y0042525D03*
X0120590Y0071449D03*
D278*
X0120618Y0042567D03*
X0120646Y0042567D03*
X0124174Y0034727D03*
D279*
X0125070Y0061131D03*
X0125098Y0061159D03*
X0120618Y0061159D03*
D280*
X0126610Y0063693D03*
X0120618Y0067249D03*
D281*
X0120618Y0071449D03*
X0125154Y0071449D03*
X0125182Y0071449D03*
X0124314Y0055601D03*
X0124286Y0055601D03*
X0121486Y0055601D03*
X0121430Y0055601D03*
X0121402Y0055601D03*
X0125966Y0052493D03*
X0122886Y0045605D03*
X0122886Y0042525D03*
X0122466Y0039641D03*
X0122438Y0039641D03*
X0122410Y0039641D03*
X0124762Y0038689D03*
D282*
X0120646Y0061145D03*
D283*
X0126554Y0056497D03*
X0125098Y0067249D03*
X0125070Y0067249D03*
X0120674Y0067249D03*
X0120646Y0067249D03*
D284*
X0125686Y0067263D03*
X0125098Y0071463D03*
X0120674Y0071463D03*
X0120646Y0071463D03*
X0121514Y0055587D03*
X0121542Y0055587D03*
X0121570Y0055587D03*
X0124146Y0055587D03*
X0124174Y0055587D03*
X0124202Y0055587D03*
X0124230Y0055587D03*
X0122914Y0052507D03*
X0122886Y0052507D03*
X0125938Y0052507D03*
X0125770Y0048671D03*
X0122970Y0045619D03*
X0122942Y0045619D03*
X0122914Y0045619D03*
X0122522Y0039627D03*
X0123698Y0036267D03*
D285*
X0120702Y0042553D03*
X0120674Y0042553D03*
D286*
X0120674Y0061117D03*
X0124902Y0061033D03*
X0124930Y0061033D03*
X0126918Y0063693D03*
D287*
X0124874Y0061019D03*
X0124846Y0060991D03*
X0124818Y0060991D03*
X0120786Y0061047D03*
X0120730Y0061075D03*
X0120702Y0061103D03*
D288*
X0121598Y0055573D03*
X0121654Y0055573D03*
X0121682Y0055573D03*
X0121710Y0055573D03*
X0121738Y0055573D03*
X0124006Y0055573D03*
X0124034Y0055573D03*
X0124062Y0055573D03*
X0124118Y0055573D03*
X0122942Y0052521D03*
X0125882Y0052521D03*
X0125910Y0052521D03*
X0123054Y0045633D03*
X0122998Y0045633D03*
X0122830Y0042525D03*
X0122802Y0042525D03*
X0122774Y0042525D03*
X0122606Y0039613D03*
X0122578Y0039613D03*
X0122550Y0039613D03*
X0124734Y0038717D03*
X0124874Y0032641D03*
X0125042Y0071477D03*
X0125070Y0071477D03*
X0120730Y0071477D03*
X0120702Y0071477D03*
D289*
X0120730Y0042567D03*
X0124230Y0034755D03*
D290*
X0124930Y0055727D03*
X0120730Y0055727D03*
D291*
X0126610Y0056553D03*
X0125014Y0067249D03*
X0120730Y0067249D03*
D292*
X0125658Y0055951D03*
X0126526Y0052143D03*
X0123894Y0042511D03*
X0120758Y0039991D03*
D293*
X0120758Y0042553D03*
D294*
X0120758Y0055727D03*
X0124958Y0055727D03*
D295*
X0120758Y0067249D03*
D296*
X0120758Y0071491D03*
X0125826Y0022715D03*
X0125994Y0022715D03*
X0126190Y0022715D03*
X0126358Y0022715D03*
X0126526Y0022715D03*
X0126694Y0022715D03*
D297*
X0120786Y0042553D03*
D298*
X0122634Y0039599D03*
X0122662Y0039599D03*
X0123082Y0045647D03*
X0123110Y0045647D03*
X0122998Y0052535D03*
X0122970Y0052535D03*
X0125854Y0052535D03*
X0125686Y0060179D03*
X0125014Y0071491D03*
X0124986Y0071491D03*
X0120786Y0071491D03*
X0125714Y0022715D03*
X0125742Y0022715D03*
X0125770Y0022715D03*
X0125798Y0022715D03*
X0125854Y0022715D03*
X0125882Y0022715D03*
X0125910Y0022715D03*
X0125938Y0022715D03*
X0125966Y0022715D03*
X0126022Y0022715D03*
X0126050Y0022715D03*
X0126078Y0022715D03*
X0126106Y0022715D03*
X0126134Y0022715D03*
X0126162Y0022715D03*
X0126218Y0022715D03*
X0126246Y0022715D03*
X0126274Y0022715D03*
X0126302Y0022715D03*
X0126330Y0022715D03*
X0126386Y0022715D03*
X0126414Y0022715D03*
X0126442Y0022715D03*
X0126470Y0022715D03*
X0126498Y0022715D03*
X0126554Y0022715D03*
X0126582Y0022715D03*
X0126610Y0022715D03*
X0126638Y0022715D03*
X0126666Y0022715D03*
X0126722Y0022715D03*
X0126750Y0022715D03*
X0126778Y0022715D03*
X0126806Y0022715D03*
X0126834Y0022715D03*
X0126862Y0022715D03*
D299*
X0120814Y0042567D03*
D300*
X0122718Y0042525D03*
X0122746Y0042525D03*
X0122718Y0039585D03*
X0124650Y0038801D03*
X0123166Y0045661D03*
X0123138Y0045661D03*
X0124930Y0071505D03*
X0120842Y0071505D03*
X0120814Y0071505D03*
D301*
X0120842Y0042553D03*
X0120870Y0042553D03*
X0124286Y0034769D03*
D302*
X0124482Y0060823D03*
X0124538Y0060851D03*
X0124566Y0060851D03*
X0124622Y0060879D03*
X0124678Y0060907D03*
X0121038Y0060907D03*
X0120982Y0060935D03*
X0120870Y0060991D03*
D303*
X0120870Y0071519D03*
X0120898Y0071519D03*
X0124846Y0071519D03*
X0124874Y0071519D03*
X0124902Y0071519D03*
X0123278Y0045675D03*
X0123250Y0045675D03*
X0123222Y0045675D03*
X0122802Y0039571D03*
X0122774Y0039571D03*
X0122746Y0039571D03*
D304*
X0120898Y0042567D03*
X0121934Y0047999D03*
X0124314Y0034783D03*
D305*
X0120926Y0039949D03*
D306*
X0120926Y0042553D03*
D307*
X0120926Y0055685D03*
X0124790Y0055685D03*
D308*
X0124594Y0060879D03*
X0120926Y0060963D03*
D309*
X0120926Y0071533D03*
X0124790Y0071533D03*
X0122858Y0039557D03*
D310*
X0120954Y0042553D03*
X0124342Y0034797D03*
D311*
X0124286Y0060753D03*
X0124370Y0060781D03*
X0124454Y0060809D03*
X0124510Y0060837D03*
X0121206Y0060837D03*
X0121178Y0060837D03*
X0121122Y0060865D03*
X0121066Y0060893D03*
X0121010Y0060921D03*
X0120954Y0060949D03*
D312*
X0120954Y0071533D03*
X0120982Y0071533D03*
X0124818Y0071533D03*
X0122662Y0042525D03*
X0122634Y0042525D03*
X0122606Y0042525D03*
X0122830Y0039557D03*
X0124622Y0038829D03*
D313*
X0121038Y0042553D03*
X0121010Y0042553D03*
X0120982Y0042553D03*
X0124370Y0034825D03*
D314*
X0123614Y0036239D03*
X0124846Y0038591D03*
X0122522Y0045535D03*
X0122466Y0045535D03*
X0126134Y0052423D03*
X0124706Y0055671D03*
X0124678Y0055671D03*
X0121038Y0055671D03*
X0121010Y0055671D03*
X0120982Y0055671D03*
D315*
X0121010Y0067249D03*
X0121038Y0067249D03*
X0124706Y0067249D03*
X0124734Y0067249D03*
X0126946Y0069881D03*
D316*
X0124762Y0071547D03*
X0124734Y0071547D03*
X0124706Y0071547D03*
X0121038Y0071547D03*
X0121010Y0071547D03*
X0122886Y0039543D03*
X0122914Y0039543D03*
X0122942Y0039543D03*
D317*
X0121066Y0042539D03*
D318*
X0121066Y0067249D03*
X0124650Y0067249D03*
X0124678Y0067249D03*
D319*
X0125714Y0067249D03*
X0124678Y0071561D03*
X0124650Y0071561D03*
X0121122Y0071561D03*
X0121066Y0071561D03*
X0123222Y0052605D03*
X0123250Y0052605D03*
X0125630Y0052605D03*
X0123474Y0045717D03*
X0123446Y0045717D03*
X0122578Y0042525D03*
X0122550Y0042525D03*
X0122970Y0039529D03*
X0122998Y0039529D03*
X0123054Y0039501D03*
X0123082Y0039501D03*
X0124510Y0038913D03*
X0124538Y0038885D03*
D320*
X0121094Y0039921D03*
D321*
X0121094Y0042553D03*
D322*
X0121094Y0060893D03*
X0124426Y0060809D03*
D323*
X0121094Y0067249D03*
D324*
X0121094Y0071561D03*
D325*
X0121122Y0042553D03*
D326*
X0121150Y0042539D03*
D327*
X0121570Y0060711D03*
X0121486Y0060739D03*
X0121402Y0060767D03*
X0121374Y0060767D03*
X0121318Y0060795D03*
X0121262Y0060823D03*
X0121234Y0060823D03*
X0121150Y0060851D03*
X0124034Y0060683D03*
X0124118Y0060711D03*
X0124146Y0060711D03*
X0124174Y0060711D03*
X0124202Y0060739D03*
X0124230Y0060739D03*
X0124314Y0060767D03*
X0124342Y0060767D03*
X0124398Y0060795D03*
D328*
X0123306Y0052619D03*
X0123278Y0052619D03*
X0125546Y0052619D03*
X0125574Y0052619D03*
X0125602Y0052619D03*
X0123530Y0045731D03*
X0123502Y0045731D03*
X0122522Y0042539D03*
X0123110Y0039487D03*
X0123138Y0039487D03*
X0124454Y0038955D03*
X0124482Y0038927D03*
X0124538Y0071575D03*
X0124566Y0071575D03*
X0124622Y0071575D03*
X0121206Y0071575D03*
X0121178Y0071575D03*
X0121150Y0071575D03*
D329*
X0121178Y0042553D03*
X0121206Y0042553D03*
D330*
X0121206Y0067249D03*
X0121178Y0067249D03*
X0124538Y0067249D03*
X0124566Y0067249D03*
D331*
X0121234Y0042539D03*
X0123922Y0036323D03*
X0124454Y0034867D03*
D332*
X0124454Y0067249D03*
X0124482Y0067249D03*
X0121262Y0067249D03*
X0121234Y0067249D03*
D333*
X0121234Y0071589D03*
X0121262Y0071589D03*
X0124454Y0071589D03*
X0124482Y0071589D03*
X0124510Y0071589D03*
X0125714Y0060193D03*
X0125518Y0052633D03*
X0123362Y0052633D03*
X0123334Y0052633D03*
X0123586Y0045745D03*
X0123614Y0045745D03*
X0123642Y0045745D03*
X0122466Y0042525D03*
X0123166Y0039473D03*
X0123222Y0039473D03*
X0124874Y0035189D03*
D334*
X0124482Y0034881D03*
X0121262Y0042553D03*
D335*
X0121290Y0042539D03*
D336*
X0123726Y0042511D03*
X0121290Y0045311D03*
X0123194Y0048979D03*
D337*
X0124258Y0060739D03*
X0121290Y0060795D03*
D338*
X0121290Y0067235D03*
D339*
X0121290Y0071589D03*
X0123390Y0052633D03*
X0125490Y0052633D03*
X0122494Y0042525D03*
X0123194Y0039473D03*
X0124426Y0038969D03*
D340*
X0124510Y0034895D03*
X0121346Y0042539D03*
X0121318Y0042539D03*
D341*
X0123250Y0039459D03*
X0123278Y0039459D03*
X0123306Y0039431D03*
X0123334Y0039431D03*
X0124314Y0039039D03*
X0124370Y0039011D03*
X0124398Y0038983D03*
X0123782Y0036295D03*
X0123698Y0045759D03*
X0123670Y0045759D03*
X0123446Y0052647D03*
X0123418Y0052647D03*
X0125434Y0052647D03*
X0125462Y0052647D03*
X0124398Y0071603D03*
X0124370Y0071603D03*
X0121402Y0071603D03*
X0121374Y0071603D03*
X0121346Y0071603D03*
X0121318Y0071603D03*
D342*
X0121346Y0060781D03*
X0121430Y0060753D03*
X0121514Y0060725D03*
X0121542Y0060725D03*
X0121598Y0060697D03*
X0121654Y0060697D03*
X0121710Y0060669D03*
X0121738Y0060669D03*
X0121766Y0060669D03*
X0121850Y0060641D03*
X0121878Y0060641D03*
X0122018Y0060613D03*
X0122046Y0060613D03*
X0123474Y0060585D03*
X0123642Y0060613D03*
X0123670Y0060613D03*
X0123698Y0060613D03*
X0123810Y0060641D03*
X0123838Y0060641D03*
X0123866Y0060641D03*
X0123922Y0060669D03*
X0123950Y0060669D03*
X0123978Y0060669D03*
X0124006Y0060669D03*
X0124062Y0060697D03*
D343*
X0121430Y0042539D03*
X0121402Y0042539D03*
X0121374Y0042539D03*
D344*
X0121374Y0067249D03*
X0121402Y0067249D03*
X0121430Y0067249D03*
X0124314Y0067249D03*
X0124342Y0067249D03*
X0124370Y0067249D03*
D345*
X0125826Y0063301D03*
X0121458Y0039837D03*
D346*
X0121458Y0042539D03*
D347*
X0121458Y0045339D03*
D348*
X0121626Y0060697D03*
X0121458Y0060753D03*
X0123726Y0060613D03*
X0123894Y0060641D03*
X0124090Y0060697D03*
D349*
X0124258Y0067249D03*
X0121458Y0067249D03*
D350*
X0121458Y0071617D03*
X0124258Y0071617D03*
X0123726Y0045773D03*
X0123390Y0039417D03*
D351*
X0121514Y0042539D03*
X0121486Y0042539D03*
X0124566Y0034923D03*
D352*
X0124286Y0067249D03*
X0124230Y0067249D03*
X0121514Y0067249D03*
X0121486Y0067249D03*
D353*
X0121514Y0071631D03*
X0121542Y0071631D03*
X0121570Y0071631D03*
X0121598Y0071631D03*
X0124146Y0071631D03*
X0124174Y0071631D03*
X0124202Y0071631D03*
X0124230Y0071631D03*
X0123642Y0052675D03*
X0123614Y0052675D03*
X0123586Y0052675D03*
X0125238Y0052675D03*
X0125266Y0052675D03*
X0125322Y0052675D03*
X0123866Y0045787D03*
X0123838Y0045787D03*
X0123810Y0045787D03*
X0123446Y0039403D03*
X0123502Y0039375D03*
X0123530Y0039375D03*
X0123586Y0039347D03*
X0123614Y0039347D03*
X0123698Y0039319D03*
X0123838Y0039263D03*
X0124034Y0039179D03*
X0124146Y0039123D03*
X0124174Y0039123D03*
X0124202Y0039095D03*
X0124846Y0035175D03*
D354*
X0121570Y0042539D03*
X0121542Y0042539D03*
D355*
X0121542Y0067249D03*
X0121570Y0067249D03*
X0121598Y0067249D03*
X0124146Y0067249D03*
X0124174Y0067249D03*
D356*
X0121626Y0042539D03*
X0123894Y0036323D03*
D357*
X0123026Y0045633D03*
X0124090Y0055573D03*
X0121626Y0055573D03*
D358*
X0121626Y0067249D03*
X0124090Y0067249D03*
D359*
X0124090Y0071645D03*
X0121626Y0071645D03*
X0123726Y0052689D03*
X0125126Y0052689D03*
X0123894Y0045801D03*
X0122326Y0042525D03*
X0123726Y0039305D03*
X0123894Y0039249D03*
D360*
X0121654Y0042539D03*
D361*
X0126806Y0063693D03*
X0124062Y0067249D03*
X0124034Y0067249D03*
X0121710Y0067249D03*
X0121682Y0067249D03*
X0121654Y0067249D03*
D362*
X0121654Y0071645D03*
X0121682Y0071645D03*
X0121710Y0071645D03*
X0121738Y0071645D03*
X0121766Y0071645D03*
X0124006Y0071645D03*
X0124034Y0071645D03*
X0124062Y0071645D03*
X0124118Y0071645D03*
X0123782Y0052689D03*
X0123754Y0052689D03*
X0123698Y0052689D03*
X0123670Y0052689D03*
X0125154Y0052689D03*
X0125182Y0052689D03*
X0125210Y0052689D03*
X0123922Y0045801D03*
X0122354Y0042525D03*
X0122298Y0042525D03*
X0123642Y0039333D03*
X0123670Y0039333D03*
X0123754Y0039305D03*
X0123782Y0039277D03*
X0123810Y0039277D03*
X0123866Y0039249D03*
X0123922Y0039221D03*
X0123950Y0039221D03*
X0123978Y0039193D03*
X0124006Y0039193D03*
X0124062Y0039165D03*
X0124118Y0039137D03*
X0123810Y0036309D03*
D363*
X0124650Y0034993D03*
X0121682Y0042525D03*
D364*
X0122774Y0060543D03*
X0122802Y0060543D03*
X0122830Y0060543D03*
X0122886Y0060543D03*
X0122914Y0060543D03*
X0122942Y0060543D03*
X0122970Y0060543D03*
X0123138Y0060571D03*
X0123166Y0060571D03*
X0123222Y0060571D03*
X0123250Y0060571D03*
X0123278Y0060571D03*
X0123306Y0060571D03*
X0123334Y0060571D03*
X0123362Y0060571D03*
X0123418Y0060571D03*
X0123446Y0060571D03*
X0123502Y0060599D03*
X0123530Y0060599D03*
X0123586Y0060599D03*
X0123614Y0060599D03*
X0123754Y0060627D03*
X0123782Y0060627D03*
X0122578Y0060571D03*
X0122550Y0060571D03*
X0122522Y0060571D03*
X0122466Y0060571D03*
X0122438Y0060571D03*
X0122410Y0060571D03*
X0122382Y0060571D03*
X0122354Y0060571D03*
X0122298Y0060571D03*
X0122270Y0060571D03*
X0122242Y0060599D03*
X0122214Y0060599D03*
X0122186Y0060599D03*
X0122130Y0060599D03*
X0122102Y0060599D03*
X0122074Y0060599D03*
X0121962Y0060627D03*
X0121934Y0060627D03*
X0121906Y0060627D03*
X0121822Y0060655D03*
X0121682Y0060683D03*
D365*
X0121710Y0042539D03*
X0121738Y0042539D03*
D366*
X0121738Y0067249D03*
X0121766Y0067249D03*
X0121822Y0067249D03*
X0123922Y0067249D03*
X0123950Y0067249D03*
X0123978Y0067249D03*
D367*
X0121766Y0042525D03*
X0125770Y0030037D03*
X0125798Y0030037D03*
X0125854Y0030037D03*
X0125882Y0030037D03*
X0125910Y0030037D03*
X0125938Y0030037D03*
X0125966Y0030037D03*
X0126022Y0030037D03*
X0126050Y0030037D03*
X0126078Y0030037D03*
X0126106Y0030037D03*
X0126134Y0030037D03*
X0126162Y0030037D03*
X0126218Y0030037D03*
X0126246Y0030037D03*
X0126274Y0030037D03*
X0126302Y0030037D03*
X0126330Y0030037D03*
X0126386Y0030037D03*
X0126414Y0030037D03*
X0126442Y0030037D03*
X0126470Y0030037D03*
X0126498Y0030037D03*
X0126554Y0030037D03*
X0126582Y0030037D03*
X0126610Y0030037D03*
X0126638Y0030037D03*
X0126666Y0030037D03*
X0126722Y0030037D03*
X0126750Y0030037D03*
X0126778Y0030037D03*
X0126806Y0030037D03*
X0126834Y0030037D03*
X0126862Y0030037D03*
D368*
X0124706Y0038759D03*
X0123978Y0055559D03*
X0123950Y0055559D03*
X0123922Y0055559D03*
X0123866Y0055559D03*
X0121878Y0055559D03*
X0121850Y0055559D03*
X0121822Y0055559D03*
X0121766Y0055559D03*
D369*
X0121794Y0039767D03*
D370*
X0121794Y0042539D03*
D371*
X0121794Y0045395D03*
X0125658Y0048895D03*
X0126358Y0052283D03*
D372*
X0123894Y0055559D03*
X0121794Y0055559D03*
D373*
X0122858Y0060543D03*
X0123194Y0060571D03*
X0123390Y0060571D03*
X0123558Y0060599D03*
X0122494Y0060571D03*
X0122326Y0060571D03*
X0122158Y0060599D03*
X0121990Y0060627D03*
X0121794Y0060655D03*
D374*
X0121794Y0067249D03*
D375*
X0121794Y0071659D03*
X0123894Y0071659D03*
X0123894Y0052703D03*
D376*
X0123866Y0052703D03*
X0123838Y0052703D03*
X0123810Y0052703D03*
X0123922Y0052703D03*
X0124986Y0052703D03*
X0125014Y0052703D03*
X0125042Y0052703D03*
X0125070Y0052703D03*
X0125098Y0052703D03*
X0124006Y0045815D03*
X0123978Y0045815D03*
X0123950Y0045815D03*
X0123950Y0071659D03*
X0123922Y0071659D03*
X0123866Y0071659D03*
X0123978Y0071659D03*
X0121906Y0071659D03*
X0121878Y0071659D03*
X0121850Y0071659D03*
X0121822Y0071659D03*
D377*
X0124762Y0045969D03*
X0124818Y0045969D03*
X0124874Y0045969D03*
X0121850Y0042525D03*
D378*
X0121850Y0067235D03*
D379*
X0124706Y0045955D03*
X0124734Y0045955D03*
X0121878Y0042539D03*
X0123866Y0036323D03*
X0124706Y0035035D03*
D380*
X0123866Y0067249D03*
X0123838Y0067249D03*
X0123810Y0067249D03*
X0123782Y0067249D03*
X0121962Y0067249D03*
X0121934Y0067249D03*
X0121906Y0067249D03*
X0121878Y0067249D03*
D381*
X0124622Y0045941D03*
X0124650Y0045941D03*
X0124678Y0045941D03*
X0121934Y0042525D03*
X0121906Y0042525D03*
D382*
X0122214Y0042525D03*
X0122242Y0042525D03*
X0122270Y0042525D03*
X0124034Y0045829D03*
X0124062Y0045829D03*
X0121906Y0048461D03*
X0123950Y0052717D03*
X0123978Y0052717D03*
X0124006Y0052717D03*
X0124034Y0052717D03*
X0124062Y0052717D03*
X0124118Y0052717D03*
X0124146Y0052717D03*
X0124174Y0052717D03*
X0124706Y0052717D03*
X0124734Y0052717D03*
X0124762Y0052717D03*
X0124818Y0052717D03*
X0124846Y0052717D03*
X0124874Y0052717D03*
X0124902Y0052717D03*
X0124930Y0052717D03*
X0124818Y0035133D03*
X0123838Y0071673D03*
X0123810Y0071673D03*
X0123782Y0071673D03*
X0123754Y0071673D03*
X0123698Y0071673D03*
X0123670Y0071673D03*
X0123642Y0071673D03*
X0122102Y0071673D03*
X0122074Y0071673D03*
X0122046Y0071673D03*
X0122018Y0071673D03*
X0121962Y0071673D03*
X0121934Y0071673D03*
D383*
X0121906Y0051191D03*
D384*
X0124538Y0045927D03*
X0124566Y0045927D03*
X0121962Y0042539D03*
X0124734Y0035063D03*
D385*
X0121990Y0039739D03*
X0122326Y0045507D03*
X0125490Y0071351D03*
D386*
X0121990Y0042525D03*
D387*
X0121990Y0051695D03*
D388*
X0121990Y0067235D03*
X0123726Y0067235D03*
D389*
X0123726Y0071673D03*
X0121990Y0071673D03*
X0124090Y0052717D03*
X0124790Y0052717D03*
X0124958Y0052717D03*
X0124090Y0045829D03*
D390*
X0123698Y0067249D03*
X0123670Y0067249D03*
X0123642Y0067249D03*
X0123614Y0067249D03*
X0123586Y0067249D03*
X0122130Y0067249D03*
X0122102Y0067249D03*
X0122074Y0067249D03*
X0122046Y0067249D03*
X0122018Y0067249D03*
D391*
X0124398Y0045899D03*
X0124454Y0045899D03*
X0122046Y0042539D03*
X0124762Y0035091D03*
D392*
X0122102Y0042525D03*
X0122074Y0042525D03*
X0124342Y0045885D03*
X0124370Y0045885D03*
X0125742Y0060165D03*
D393*
X0123670Y0055531D03*
X0123642Y0055531D03*
X0123614Y0055531D03*
X0123586Y0055531D03*
X0123530Y0055531D03*
X0123502Y0055531D03*
X0123474Y0055531D03*
X0123446Y0055531D03*
X0122298Y0055531D03*
X0122270Y0055531D03*
X0122242Y0055531D03*
X0122214Y0055531D03*
X0122186Y0055531D03*
X0122130Y0055531D03*
X0122102Y0055531D03*
X0123054Y0052563D03*
X0123082Y0052563D03*
X0125770Y0052563D03*
X0125798Y0052563D03*
D394*
X0124314Y0045871D03*
X0124286Y0045871D03*
X0122130Y0042539D03*
X0123838Y0036323D03*
D395*
X0122158Y0042525D03*
X0122494Y0071701D03*
X0122690Y0071701D03*
X0122858Y0071701D03*
X0123026Y0071701D03*
X0123194Y0071701D03*
D396*
X0123558Y0055531D03*
X0122326Y0055531D03*
X0122158Y0055531D03*
D397*
X0122158Y0067235D03*
X0123558Y0067235D03*
D398*
X0123558Y0071687D03*
X0123390Y0071687D03*
X0122326Y0071687D03*
X0122158Y0071687D03*
D399*
X0122382Y0071701D03*
X0122410Y0071701D03*
X0122438Y0071701D03*
X0122466Y0071701D03*
X0122522Y0071701D03*
X0122550Y0071701D03*
X0122578Y0071701D03*
X0122606Y0071701D03*
X0122634Y0071701D03*
X0122662Y0071701D03*
X0122718Y0071701D03*
X0122746Y0071701D03*
X0122774Y0071701D03*
X0122802Y0071701D03*
X0122830Y0071701D03*
X0122886Y0071701D03*
X0122914Y0071701D03*
X0122942Y0071701D03*
X0122970Y0071701D03*
X0122998Y0071701D03*
X0123054Y0071701D03*
X0123082Y0071701D03*
X0123110Y0071701D03*
X0123138Y0071701D03*
X0123166Y0071701D03*
X0123222Y0071701D03*
X0123250Y0071701D03*
X0123278Y0071701D03*
X0123306Y0071701D03*
X0123334Y0071701D03*
X0123362Y0071701D03*
X0124174Y0045857D03*
X0124202Y0045857D03*
X0124230Y0045857D03*
X0122186Y0042525D03*
D400*
X0122186Y0067235D03*
D401*
X0122214Y0067249D03*
X0122242Y0067249D03*
X0122270Y0067249D03*
X0122298Y0067249D03*
X0122354Y0067249D03*
X0122382Y0067249D03*
X0122410Y0067249D03*
X0123306Y0067249D03*
X0123334Y0067249D03*
X0123362Y0067249D03*
X0123418Y0067249D03*
X0123446Y0067249D03*
X0123474Y0067249D03*
X0123502Y0067249D03*
X0123530Y0067249D03*
D402*
X0125994Y0071099D03*
X0125490Y0055895D03*
X0122326Y0052199D03*
D403*
X0122326Y0067249D03*
X0123390Y0067249D03*
D404*
X0123418Y0055517D03*
X0123362Y0055517D03*
X0123334Y0055517D03*
X0123306Y0055517D03*
X0123278Y0055517D03*
X0123250Y0055517D03*
X0123222Y0055517D03*
X0123166Y0055517D03*
X0123138Y0055517D03*
X0123110Y0055517D03*
X0123082Y0055517D03*
X0123054Y0055517D03*
X0122998Y0055517D03*
X0122970Y0055517D03*
X0122942Y0055517D03*
X0122914Y0055517D03*
X0122886Y0055517D03*
X0122830Y0055517D03*
X0122802Y0055517D03*
X0122774Y0055517D03*
X0122746Y0055517D03*
X0122718Y0055517D03*
X0122662Y0055517D03*
X0122634Y0055517D03*
X0122606Y0055517D03*
X0122578Y0055517D03*
X0122550Y0055517D03*
X0122522Y0055517D03*
X0122466Y0055517D03*
X0122438Y0055517D03*
X0122410Y0055517D03*
X0122382Y0055517D03*
X0122354Y0055517D03*
X0123110Y0052577D03*
X0123138Y0052577D03*
X0125714Y0052577D03*
X0125742Y0052577D03*
X0122998Y0048601D03*
X0123306Y0045689D03*
X0123334Y0045689D03*
D405*
X0123278Y0067235D03*
X0123250Y0067235D03*
X0122466Y0067235D03*
X0122438Y0067235D03*
D406*
X0125490Y0060235D03*
X0122494Y0036127D03*
D407*
X0122494Y0039627D03*
X0125126Y0071463D03*
D408*
X0125658Y0067263D03*
X0122690Y0052423D03*
X0122494Y0045535D03*
D409*
X0122494Y0055517D03*
X0122690Y0055517D03*
X0122858Y0055517D03*
X0123026Y0055517D03*
X0123194Y0055517D03*
X0123390Y0055517D03*
D410*
X0123194Y0067249D03*
X0123026Y0067249D03*
X0122858Y0067249D03*
X0122690Y0067249D03*
X0122494Y0067249D03*
D411*
X0122522Y0067249D03*
X0122550Y0067249D03*
X0122578Y0067249D03*
X0122606Y0067249D03*
X0122634Y0067249D03*
X0122662Y0067249D03*
X0122718Y0067249D03*
X0122746Y0067249D03*
X0122774Y0067249D03*
X0122802Y0067249D03*
X0122830Y0067249D03*
X0122886Y0067249D03*
X0122914Y0067249D03*
X0122942Y0067249D03*
X0122970Y0067249D03*
X0122998Y0067249D03*
X0123054Y0067249D03*
X0123082Y0067249D03*
X0123110Y0067249D03*
X0123138Y0067249D03*
X0123166Y0067249D03*
X0123222Y0067249D03*
D412*
X0123110Y0060557D03*
X0123082Y0060557D03*
X0123054Y0060557D03*
X0122998Y0060557D03*
X0122746Y0060557D03*
X0122718Y0060557D03*
X0122662Y0060557D03*
X0122634Y0060557D03*
X0122606Y0060557D03*
D413*
X0122690Y0036113D03*
D414*
X0122690Y0039585D03*
X0122690Y0042525D03*
X0123194Y0045661D03*
X0124958Y0071505D03*
D415*
X0123026Y0060557D03*
X0122690Y0060557D03*
D416*
X0124594Y0071575D03*
X0123558Y0045731D03*
X0123026Y0039515D03*
D417*
X0123390Y0045703D03*
X0123194Y0052591D03*
X0125658Y0052591D03*
D418*
X0123390Y0036183D03*
D419*
X0124258Y0039067D03*
X0124090Y0039151D03*
X0123558Y0039375D03*
X0123558Y0052675D03*
X0125294Y0052675D03*
D420*
X0123726Y0049231D03*
X0124426Y0042511D03*
D421*
X0123754Y0067235D03*
D422*
X0126526Y0070679D03*
X0124958Y0049259D03*
X0123894Y0049259D03*
D423*
X0123894Y0067235D03*
D424*
X0124006Y0067235D03*
D425*
X0124090Y0042511D03*
D426*
X0124146Y0034727D03*
X0125798Y0067263D03*
D427*
X0124202Y0034741D03*
D428*
X0124202Y0052731D03*
X0124230Y0052731D03*
X0124286Y0052731D03*
X0124314Y0052731D03*
X0124342Y0052731D03*
X0124370Y0052731D03*
X0124398Y0052731D03*
X0124454Y0052731D03*
X0124482Y0052731D03*
X0124510Y0052731D03*
X0124538Y0052731D03*
X0124566Y0052731D03*
X0124622Y0052731D03*
X0124650Y0052731D03*
X0124678Y0052731D03*
D429*
X0124202Y0067235D03*
D430*
X0124258Y0034755D03*
D431*
X0124258Y0045871D03*
D432*
X0124258Y0052731D03*
X0124426Y0052731D03*
X0124594Y0052731D03*
D433*
X0124398Y0034825D03*
D434*
X0124426Y0034839D03*
D435*
X0124426Y0045899D03*
D436*
X0124426Y0067249D03*
D437*
X0124426Y0071603D03*
D438*
X0126974Y0069755D03*
X0124510Y0067235D03*
X0126834Y0056847D03*
D439*
X0124594Y0034951D03*
D440*
X0124594Y0038843D03*
D441*
X0124594Y0045927D03*
D442*
X0124594Y0055643D03*
X0125294Y0071407D03*
D443*
X0124790Y0035105D03*
D444*
X0124790Y0045969D03*
D445*
X0124790Y0049273D03*
D446*
X0124790Y0060963D03*
D447*
X0124902Y0031619D03*
D448*
X0124902Y0041993D03*
D449*
X0124930Y0031675D03*
D450*
X0124930Y0041951D03*
D451*
X0124958Y0031731D03*
D452*
X0124958Y0041881D03*
D453*
X0124958Y0067263D03*
X0126890Y0070063D03*
D454*
X0124986Y0031801D03*
D455*
X0124986Y0041811D03*
D456*
X0125014Y0031927D03*
D457*
X0125014Y0041685D03*
D458*
X0125042Y0036855D03*
X0125070Y0036855D03*
X0125098Y0036855D03*
X0125154Y0036855D03*
X0125182Y0036855D03*
X0125210Y0036855D03*
X0125238Y0036855D03*
X0125266Y0036855D03*
X0125322Y0036855D03*
X0125350Y0036855D03*
X0125378Y0036855D03*
X0125406Y0036855D03*
X0125434Y0036855D03*
X0125462Y0036855D03*
X0125518Y0036855D03*
X0125546Y0036855D03*
X0125574Y0036855D03*
X0125602Y0036855D03*
X0125630Y0036855D03*
D459*
X0125042Y0061117D03*
D460*
X0125126Y0036855D03*
X0125294Y0036855D03*
X0125490Y0036855D03*
X0125658Y0036855D03*
D461*
X0125126Y0061173D03*
D462*
X0126526Y0056469D03*
X0125126Y0067249D03*
D463*
X0125154Y0067249D03*
X0125266Y0060305D03*
D464*
X0125182Y0061215D03*
X0125210Y0061243D03*
D465*
X0125294Y0060305D03*
D466*
X0125350Y0067263D03*
X0126610Y0070567D03*
D467*
X0125462Y0063077D03*
X0125434Y0063077D03*
D468*
X0125714Y0038017D03*
X0125742Y0038017D03*
D469*
X0125742Y0067249D03*
D470*
X0125770Y0039151D03*
D471*
X0125770Y0067263D03*
D472*
X0125798Y0039165D03*
X0125854Y0039165D03*
X0125882Y0039165D03*
X0125910Y0039165D03*
X0125938Y0039165D03*
X0125966Y0039165D03*
X0126022Y0039165D03*
X0126050Y0039165D03*
X0126078Y0039165D03*
X0126106Y0039165D03*
X0126134Y0039165D03*
X0126162Y0039165D03*
X0126218Y0039165D03*
X0126246Y0039165D03*
X0126274Y0039165D03*
X0126302Y0039165D03*
X0126330Y0039165D03*
X0126386Y0039165D03*
X0126414Y0039165D03*
X0126442Y0039165D03*
X0126470Y0039165D03*
X0126498Y0039165D03*
X0126554Y0039165D03*
X0126582Y0039165D03*
X0126610Y0039165D03*
X0126638Y0039165D03*
X0126666Y0039165D03*
X0126722Y0039165D03*
X0126750Y0039165D03*
X0126778Y0039165D03*
X0126806Y0039165D03*
X0126834Y0039165D03*
X0126862Y0039165D03*
D473*
X0126694Y0030037D03*
X0126526Y0030037D03*
X0126358Y0030037D03*
X0126190Y0030037D03*
X0125994Y0030037D03*
X0125826Y0030037D03*
D474*
X0125826Y0039165D03*
X0125994Y0039165D03*
X0126190Y0039165D03*
X0126358Y0039165D03*
X0126526Y0039165D03*
X0126694Y0039165D03*
X0126890Y0039165D03*
D475*
X0125994Y0052479D03*
D476*
X0125994Y0063413D03*
D477*
X0126190Y0052381D03*
D478*
X0126190Y0063567D03*
D479*
X0126358Y0070847D03*
D480*
X0126442Y0056399D03*
D481*
X0126582Y0063693D03*
X0126778Y0070301D03*
D482*
X0126638Y0056595D03*
D483*
X0126694Y0056651D03*
D484*
X0126722Y0063693D03*
D485*
X0126750Y0063707D03*
D486*
X0126778Y0063693D03*
D487*
X0126862Y0056903D03*
D488*
X0126890Y0026201D03*
D489*
X0126890Y0054243D03*
D490*
X0126890Y0063693D03*
D491*
X0126918Y0026201D03*
X0126946Y0026201D03*
D492*
X0126918Y0045591D03*
D493*
X0126946Y0045689D03*
D494*
X0126974Y0026215D03*
D495*
X0126974Y0063679D03*
D496*
X0127002Y0046865D03*
X0127030Y0046865D03*
D497*
X0127058Y0046851D03*
D498*
X0127086Y0046837D03*
D499*
X0127114Y0046823D03*
X0127142Y0046823D03*
D500*
X0127170Y0046809D03*
D501*
X0127198Y0046795D03*
D502*
X0127226Y0046781D03*
D503*
X0127254Y0046767D03*
D504*
X0127282Y0046753D03*
D505*
X0127310Y0046739D03*
X0127338Y0046739D03*
D506*
X0127366Y0046725D03*
D507*
X0127394Y0046711D03*
D508*
X0127422Y0046697D03*
D509*
X0127450Y0046669D03*
D510*
X0127478Y0046655D03*
D511*
X0127506Y0046641D03*
D512*
X0127534Y0046627D03*
D513*
X0127562Y0046613D03*
D514*
X0127590Y0046599D03*
D515*
X0127618Y0046571D03*
D516*
X0127646Y0046557D03*
D517*
X0127674Y0046543D03*
D518*
X0127702Y0046515D03*
D519*
X0127730Y0046501D03*
D520*
X0127758Y0046473D03*
D521*
X0127786Y0046445D03*
D522*
X0127814Y0046431D03*
D523*
X0127842Y0046403D03*
D524*
X0127870Y0046375D03*
D525*
X0127898Y0046347D03*
D526*
X0127926Y0046319D03*
D527*
X0127954Y0046291D03*
D528*
X0127982Y0046249D03*
D529*
X0128010Y0046207D03*
D530*
X0128038Y0046179D03*
D531*
X0128066Y0046123D03*
D532*
X0128094Y0046067D03*
D533*
X0128122Y0045997D03*
D534*
X0128150Y0045899D03*
D535*
X0082276Y0045626D02*
X0082276Y0062142D01*
X0082059Y0056433D02*
X0081961Y0056431D01*
X0081863Y0056425D01*
X0081765Y0056416D01*
X0081668Y0056402D01*
X0081571Y0056385D01*
X0081475Y0056364D01*
X0081380Y0056339D01*
X0081286Y0056311D01*
X0081194Y0056278D01*
X0081102Y0056243D01*
X0081012Y0056203D01*
X0080924Y0056161D01*
X0080837Y0056114D01*
X0080753Y0056065D01*
X0080670Y0056012D01*
X0080590Y0055956D01*
X0080511Y0055896D01*
X0080435Y0055834D01*
X0080362Y0055769D01*
X0080291Y0055701D01*
X0080223Y0055630D01*
X0080158Y0055557D01*
X0080096Y0055481D01*
X0080036Y0055402D01*
X0079980Y0055322D01*
X0079927Y0055239D01*
X0079878Y0055155D01*
X0079831Y0055068D01*
X0079789Y0054980D01*
X0079749Y0054890D01*
X0079714Y0054798D01*
X0079681Y0054706D01*
X0079653Y0054612D01*
X0079628Y0054517D01*
X0079607Y0054421D01*
X0079590Y0054324D01*
X0079576Y0054227D01*
X0079567Y0054129D01*
X0079561Y0054031D01*
X0079559Y0053933D01*
X0079561Y0053835D01*
X0079567Y0053737D01*
X0079576Y0053639D01*
X0079590Y0053542D01*
X0079607Y0053445D01*
X0079628Y0053349D01*
X0079653Y0053254D01*
X0079681Y0053160D01*
X0079714Y0053068D01*
X0079749Y0052976D01*
X0079789Y0052886D01*
X0079831Y0052798D01*
X0079878Y0052711D01*
X0079927Y0052627D01*
X0079980Y0052544D01*
X0080036Y0052464D01*
X0080096Y0052385D01*
X0080158Y0052309D01*
X0080223Y0052236D01*
X0080291Y0052165D01*
X0080362Y0052097D01*
X0080435Y0052032D01*
X0080511Y0051970D01*
X0080590Y0051910D01*
X0080670Y0051854D01*
X0080753Y0051801D01*
X0080837Y0051752D01*
X0080924Y0051705D01*
X0081012Y0051663D01*
X0081102Y0051623D01*
X0081194Y0051588D01*
X0081286Y0051555D01*
X0081380Y0051527D01*
X0081475Y0051502D01*
X0081571Y0051481D01*
X0081668Y0051464D01*
X0081765Y0051450D01*
X0081863Y0051441D01*
X0081961Y0051435D01*
X0082059Y0051433D01*
X0045813Y0041481D02*
X0045813Y0039135D01*
X0029796Y0039135D01*
X0035970Y0041481D02*
X0035970Y0046993D01*
X0035970Y0041481D02*
X0045813Y0041481D01*
X0035970Y0060773D02*
X0035970Y0066285D01*
X0045813Y0066285D01*
X0045813Y0068631D01*
X0045813Y0068635D02*
X0029796Y0068635D01*
D536*
X0117865Y0076621D02*
X0118883Y0075604D01*
X0120367Y0076814D01*
X0120965Y0076506D01*
X0121605Y0076301D01*
X0121799Y0074396D01*
X0123238Y0074396D01*
X0123432Y0076301D01*
X0124072Y0076506D01*
X0124670Y0076814D01*
X0126154Y0075604D01*
X0127172Y0076621D01*
X0125962Y0078105D01*
X0126270Y0078703D01*
X0126475Y0079344D01*
X0128380Y0079537D01*
X0128380Y0080977D01*
X0126475Y0081170D01*
X0126270Y0081811D01*
X0125962Y0082409D01*
X0127172Y0083893D01*
X0126154Y0084911D01*
X0124670Y0083700D01*
X0124072Y0084008D01*
X0123432Y0084213D01*
X0123238Y0086118D01*
X0121799Y0086118D01*
X0121605Y0084213D01*
X0120965Y0084008D01*
X0120367Y0083700D01*
X0118883Y0084911D01*
X0117865Y0083893D01*
X0119075Y0082409D01*
X0118767Y0081811D01*
X0120813Y0080963D01*
X0121030Y0081348D01*
X0121332Y0081671D01*
X0121702Y0081912D01*
X0122119Y0082058D01*
X0122559Y0082102D01*
X0122996Y0082039D01*
X0123406Y0081875D01*
X0123765Y0081617D01*
X0124052Y0081282D01*
X0124252Y0080888D01*
X0124352Y0080458D01*
X0124348Y0080016D01*
X0124238Y0079588D01*
X0124030Y0079198D01*
X0123735Y0078870D01*
X0123370Y0078620D01*
X0122957Y0078464D01*
X0122518Y0078411D01*
X0122088Y0078462D01*
X0121681Y0078613D01*
X0121320Y0078854D01*
X0121025Y0079172D01*
X0120813Y0079551D01*
X0118767Y0078703D01*
X0119075Y0078105D01*
X0117865Y0076621D01*
X0118041Y0076446D02*
X0119915Y0076446D01*
X0119193Y0075857D02*
X0118630Y0075857D01*
X0118202Y0077035D02*
X0126835Y0077035D01*
X0126996Y0076446D02*
X0125122Y0076446D01*
X0125844Y0075857D02*
X0126407Y0075857D01*
X0123884Y0076446D02*
X0121153Y0076446D01*
X0121650Y0075857D02*
X0123387Y0075857D01*
X0123327Y0075267D02*
X0121710Y0075267D01*
X0121770Y0074678D02*
X0123267Y0074678D01*
X0126355Y0077624D02*
X0118682Y0077624D01*
X0119020Y0078213D02*
X0126017Y0078213D01*
X0126301Y0078802D02*
X0123636Y0078802D01*
X0124133Y0079391D02*
X0126939Y0079391D01*
X0128380Y0079980D02*
X0124338Y0079980D01*
X0124326Y0080569D02*
X0128380Y0080569D01*
X0126596Y0081158D02*
X0124115Y0081158D01*
X0123584Y0081747D02*
X0126290Y0081747D01*
X0125999Y0082336D02*
X0119038Y0082336D01*
X0118921Y0081747D02*
X0121449Y0081747D01*
X0120923Y0081158D02*
X0120343Y0081158D01*
X0120427Y0079391D02*
X0120903Y0079391D01*
X0121397Y0078802D02*
X0119005Y0078802D01*
X0118654Y0082925D02*
X0126383Y0082925D01*
X0126863Y0083514D02*
X0118174Y0083514D01*
X0118075Y0084103D02*
X0119873Y0084103D01*
X0119150Y0084692D02*
X0118664Y0084692D01*
X0121262Y0084103D02*
X0123775Y0084103D01*
X0123383Y0084692D02*
X0121654Y0084692D01*
X0121714Y0085282D02*
X0123323Y0085282D01*
X0123263Y0085871D02*
X0121774Y0085871D01*
X0125164Y0084103D02*
X0126961Y0084103D01*
X0126372Y0084692D02*
X0125887Y0084692D01*
M02*
