%
M48
M72
T01C0.00787
T02C0.01181
T03C0.01575
T04C0.02165
T05C0.04000
%
T01
X24246Y26783
X34246Y26783
X44246Y26783
X54246Y26783
X53246Y31733
X64246Y26783
X74246Y26783
X74246Y30683
X74246Y33183
X82546Y36033
X85746Y38183
X76868Y43036
X90382Y43144
X83146Y50683
X79143Y54679
X76446Y57283
X68621Y59283
X65573Y57506
X67164Y55805
X62371Y57558
X71821Y63233
X76846Y66933
X74646Y69483
X72721Y70383
X75246Y73183
X74196Y76833
X74246Y80683
X84246Y80683
X94246Y80683
X101346Y75683
X104246Y80683
X116846Y81683
X121746Y81683
X126746Y81683
X131746Y81683
X136846Y81683
X136846Y86683
X131846Y86683
X126846Y86683
X121846Y86683
X116846Y86683
X116846Y76683
X121846Y76683
X126846Y76683
X131846Y76683
X136846Y76683
X126846Y71683
X107296Y63611
X105861Y65733
X99296Y63883
X100997Y62232
X102574Y60656
X104125Y59155
X105346Y57433
X103546Y55733
X101770Y54057
X109096Y57683
X110646Y54533
X121846Y51683
X126846Y51683
X131846Y51383
X136846Y51383
X136846Y56383
X124871Y57683
X126846Y46683
X131846Y46383
X136846Y46383
X136846Y41383
X131846Y41383
X126846Y41683
X121846Y41683
X116846Y41683
X116846Y46683
X121846Y46683
X107296Y46333
X116846Y36683
X121846Y36683
X126846Y36683
X131846Y36383
X136846Y36383
X136846Y31383
X131846Y31383
X126846Y31683
X126846Y26683
X131846Y26383
X136846Y26383
X136846Y21383
X131846Y21383
X126846Y21383
X121846Y21383
X116846Y21383
X104246Y26933
X104246Y30683
X104246Y34433
X94246Y30683
X94246Y26783
X84246Y26783
X56718Y38212
X47546Y40583
X45268Y41857
X41346Y41783
X36546Y41783
X33296Y45183
X28196Y53933
X28196Y56489
X26896Y61033
X33346Y63033
X37846Y63983
X37846Y61483
X37846Y66383
X47046Y66683
X47046Y64333
X49846Y64383
X52396Y64333
X52346Y66683
X49846Y66683
X56096Y64433
X58596Y65283
X56096Y71533
X54246Y75683
X54246Y78183
X54246Y80683
X44246Y80683
X37696Y73983
X35196Y73983
X32696Y73983
X24246Y80683
X16071Y77383
X16071Y74883
X16071Y72383
X16046Y61433
X16046Y58933
X16046Y56433
X16046Y53933
X16046Y51433
X16046Y48933
X16046Y46433
X16446Y34183
X18946Y34183
X21446Y34183
X23946Y34183
X26446Y34183
X28946Y34183
X31446Y34183
X53846Y50715
X56130Y50721
X47046Y61833
X47146Y70783
X64246Y80683
X67146Y75183
X79856Y69492
X81735Y70866
X87561Y69082
X85131Y66798
X95496Y67683
X97446Y65783
X90542Y72137
T02
X90496Y66733
X95546Y61483
X90446Y57833
X85846Y61183
X80796Y58133
X85846Y54233
X90496Y50483
X94746Y53783
X100096Y57583
X66846Y39583
X61546Y43183
T03
X21346Y42811
X21346Y65055
T04
X30008Y61807
X30008Y46059
T05
X19246Y23933
X29246Y23933
X39246Y23933
X49246Y23933
X59246Y23933
X69246Y23933
X79246Y23933
X89246Y23933
X99246Y23933
X109246Y23933
X109246Y84033
X99246Y84033
X89246Y84033
X79246Y84033
X69246Y84033
X59246Y84033
X49246Y84033
X39246Y84033
X29246Y84033
X19246Y84033
M30
