G75*
%MOIN*%
%OFA0B0*%
%FSLAX25Y25*%
%IPPOS*%
%LPD*%
%AMOC8*
5,1,8,0,0,1.08239X$1,22.5*
%
%ADD10C,0.07000*%
%ADD11R,0.18110X0.03937*%
%ADD12R,0.13800X0.06500*%
%ADD13R,0.02362X0.06299*%
%ADD14C,0.04000*%
%ADD15C,0.01587*%
%ADD16C,0.01981*%
%ADD17C,0.01600*%
%ADD18C,0.01200*%
%ADD19C,0.01000*%
%ADD20C,0.00600*%
D10*
X0019246Y0023933D03*
X0029246Y0023933D03*
X0039246Y0023933D03*
X0049246Y0023933D03*
X0059246Y0023933D03*
X0069246Y0023933D03*
X0079246Y0023933D03*
X0089246Y0023933D03*
X0099246Y0023933D03*
X0109246Y0023933D03*
X0109246Y0084033D03*
X0099246Y0084033D03*
X0089246Y0084033D03*
X0079246Y0084033D03*
X0069246Y0084033D03*
X0059246Y0084033D03*
X0049246Y0084033D03*
X0039246Y0084033D03*
X0029246Y0084033D03*
X0019246Y0084033D03*
D11*
X0042296Y0057683D03*
X0042296Y0050083D03*
D12*
X0022296Y0040497D03*
X0022296Y0067269D03*
D13*
X0064346Y0064169D03*
X0069346Y0064169D03*
X0074346Y0064169D03*
X0079346Y0064169D03*
X0079346Y0043697D03*
X0074346Y0043697D03*
X0069346Y0043697D03*
X0064346Y0043697D03*
D14*
X0023346Y0042811D02*
X0019346Y0042811D01*
X0019346Y0065055D02*
X0023346Y0065055D01*
D15*
X0026896Y0061033D03*
X0033346Y0063033D03*
X0037846Y0063983D03*
X0037846Y0061483D03*
X0037846Y0066383D03*
X0047046Y0066683D03*
X0047046Y0064333D03*
X0049846Y0064383D03*
X0052396Y0064333D03*
X0052346Y0066683D03*
X0049846Y0066683D03*
X0056096Y0064433D03*
X0058596Y0065283D03*
X0056096Y0071533D03*
X0054246Y0075683D03*
X0054246Y0078183D03*
X0054246Y0080683D03*
X0044246Y0080683D03*
X0037696Y0073983D03*
X0035196Y0073983D03*
X0032696Y0073983D03*
X0024246Y0080683D03*
X0016071Y0077383D03*
X0016071Y0074883D03*
X0016071Y0072383D03*
X0016046Y0061433D03*
X0016046Y0058933D03*
X0016046Y0056433D03*
X0016046Y0053933D03*
X0016046Y0051433D03*
X0016046Y0048933D03*
X0016046Y0046433D03*
X0028196Y0053933D03*
X0028196Y0056489D03*
X0047046Y0061833D03*
X0062371Y0057558D03*
X0065573Y0057506D03*
X0067164Y0055805D03*
X0068621Y0059283D03*
X0071821Y0063233D03*
X0076846Y0066933D03*
X0074646Y0069483D03*
X0072721Y0070383D03*
X0075246Y0073183D03*
X0074196Y0076833D03*
X0074246Y0080683D03*
X0084246Y0080683D03*
X0094246Y0080683D03*
X0101346Y0075683D03*
X0104246Y0080683D03*
X0116846Y0081683D03*
X0121746Y0081683D03*
X0126746Y0081683D03*
X0131746Y0081683D03*
X0136846Y0081683D03*
X0136846Y0086683D03*
X0131846Y0086683D03*
X0126846Y0086683D03*
X0121846Y0086683D03*
X0116846Y0086683D03*
X0116846Y0076683D03*
X0121846Y0076683D03*
X0126846Y0076683D03*
X0131846Y0076683D03*
X0136846Y0076683D03*
X0126846Y0071683D03*
X0107296Y0063611D03*
X0105861Y0065733D03*
X0099296Y0063883D03*
X0100997Y0062232D03*
X0102574Y0060656D03*
X0104125Y0059155D03*
X0105346Y0057433D03*
X0103546Y0055733D03*
X0101770Y0054057D03*
X0109096Y0057683D03*
X0110646Y0054533D03*
X0121846Y0051683D03*
X0126846Y0051683D03*
X0131846Y0051383D03*
X0136846Y0051383D03*
X0136846Y0056383D03*
X0124871Y0057683D03*
X0126846Y0046683D03*
X0131846Y0046383D03*
X0136846Y0046383D03*
X0136846Y0041383D03*
X0131846Y0041383D03*
X0126846Y0041683D03*
X0121846Y0041683D03*
X0116846Y0041683D03*
X0116846Y0046683D03*
X0121846Y0046683D03*
X0107296Y0046333D03*
X0090382Y0043144D03*
X0085746Y0038183D03*
X0082546Y0036033D03*
X0074246Y0033183D03*
X0074246Y0030683D03*
X0074246Y0026783D03*
X0084246Y0026783D03*
X0094246Y0026783D03*
X0094246Y0030683D03*
X0104246Y0030683D03*
X0104246Y0026933D03*
X0116846Y0021383D03*
X0121846Y0021383D03*
X0126846Y0021383D03*
X0131846Y0021383D03*
X0136846Y0021383D03*
X0136846Y0026383D03*
X0131846Y0026383D03*
X0126846Y0026683D03*
X0126846Y0031683D03*
X0131846Y0031383D03*
X0136846Y0031383D03*
X0136846Y0036383D03*
X0131846Y0036383D03*
X0126846Y0036683D03*
X0121846Y0036683D03*
X0116846Y0036683D03*
X0104246Y0034433D03*
X0076868Y0043036D03*
X0083146Y0050683D03*
X0079143Y0054679D03*
X0076446Y0057283D03*
X0085131Y0066798D03*
X0087561Y0069082D03*
X0090542Y0072137D03*
X0095496Y0067683D03*
X0097446Y0065783D03*
X0081735Y0070866D03*
X0079856Y0069492D03*
X0067146Y0075183D03*
X0064246Y0080683D03*
X0047146Y0070783D03*
X0053846Y0050715D03*
X0056130Y0050721D03*
X0045268Y0041857D03*
X0047546Y0040583D03*
X0041346Y0041783D03*
X0036546Y0041783D03*
X0033296Y0045183D03*
X0031446Y0034183D03*
X0028946Y0034183D03*
X0026446Y0034183D03*
X0023946Y0034183D03*
X0021446Y0034183D03*
X0018946Y0034183D03*
X0016446Y0034183D03*
X0024246Y0026783D03*
X0034246Y0026783D03*
X0044246Y0026783D03*
X0054246Y0026783D03*
X0053246Y0031733D03*
X0064246Y0026783D03*
X0056718Y0038212D03*
D16*
X0061546Y0043183D03*
X0066846Y0039583D03*
X0090496Y0050483D03*
X0094746Y0053783D03*
X0100096Y0057583D03*
X0095546Y0061483D03*
X0090446Y0057833D03*
X0085846Y0061183D03*
X0080796Y0058133D03*
X0085846Y0054233D03*
X0090496Y0066733D03*
D17*
X0056096Y0071533D02*
X0050036Y0071533D01*
X0039246Y0082322D01*
X0039246Y0084033D01*
X0037846Y0061483D02*
X0041646Y0057683D01*
X0042296Y0057683D01*
D18*
X0041276Y0051333D02*
X0027718Y0051333D01*
X0026303Y0052749D01*
X0026303Y0060439D01*
X0026896Y0061033D01*
X0021882Y0067269D02*
X0016046Y0061433D01*
X0032677Y0068714D02*
X0055166Y0068714D01*
X0058596Y0065283D01*
X0032677Y0068714D02*
X0019246Y0082145D01*
X0019246Y0084033D01*
X0041276Y0051333D02*
X0042296Y0050083D01*
X0045268Y0047341D01*
X0045268Y0041857D01*
X0061546Y0043183D02*
X0063833Y0043183D01*
X0064346Y0043697D01*
X0022296Y0040497D02*
X0016361Y0046433D01*
D19*
X0016046Y0046433D01*
X0021882Y0067269D02*
X0022296Y0067269D01*
X0079346Y0065183D02*
X0079346Y0064169D01*
X0079346Y0065183D02*
X0081735Y0067571D01*
X0081735Y0070866D01*
D20*
X0079856Y0069492D02*
X0076984Y0069492D01*
X0074346Y0066854D01*
X0074346Y0064169D01*
X0071828Y0063233D02*
X0071828Y0061188D01*
X0070304Y0059665D01*
X0070304Y0055126D01*
X0049246Y0034068D01*
X0049246Y0023933D01*
X0039246Y0023933D02*
X0039246Y0025624D01*
X0068821Y0055199D01*
X0068821Y0059083D01*
X0068621Y0059283D01*
X0065573Y0057506D02*
X0065573Y0056206D01*
X0041700Y0032333D01*
X0026146Y0032333D01*
X0018496Y0024683D01*
X0019246Y0023933D01*
X0029246Y0023933D02*
X0029246Y0024633D01*
X0035146Y0030533D01*
X0041500Y0030533D01*
X0066772Y0055805D01*
X0067164Y0055805D01*
X0069346Y0052537D02*
X0076849Y0060039D01*
X0076849Y0066931D01*
X0076846Y0066933D01*
X0074646Y0069483D02*
X0074146Y0069483D01*
X0069346Y0064683D01*
X0069346Y0064169D01*
X0071821Y0063233D02*
X0071828Y0063233D01*
X0068590Y0068875D02*
X0064346Y0064631D01*
X0064346Y0064169D01*
X0068590Y0068875D02*
X0071213Y0068875D01*
X0072721Y0070383D01*
X0067203Y0075239D02*
X0067146Y0075183D01*
X0067203Y0075239D02*
X0090183Y0075239D01*
X0092446Y0072976D01*
X0092446Y0059177D01*
X0097567Y0054057D01*
X0101770Y0054057D01*
X0103546Y0055733D02*
X0097646Y0055733D01*
X0093696Y0059683D01*
X0093696Y0073381D01*
X0090245Y0076833D01*
X0074196Y0076833D01*
X0073367Y0079012D02*
X0089621Y0079012D01*
X0099240Y0069393D01*
X0099240Y0063939D01*
X0099296Y0063883D01*
X0100997Y0062232D02*
X0100997Y0069282D01*
X0089246Y0081033D01*
X0089246Y0084033D01*
X0099246Y0084033D02*
X0099246Y0083333D01*
X0102974Y0079606D01*
X0102974Y0061056D01*
X0102574Y0060656D01*
X0104125Y0059155D02*
X0104167Y0059198D01*
X0104167Y0078054D01*
X0109246Y0083133D01*
X0109246Y0084033D01*
X0090542Y0072137D02*
X0090542Y0069537D01*
X0088442Y0067437D01*
X0088442Y0043956D01*
X0085746Y0041260D01*
X0085746Y0038183D01*
X0082546Y0036033D02*
X0081528Y0036033D01*
X0076868Y0040693D01*
X0076868Y0043036D01*
X0074346Y0043697D02*
X0074346Y0045706D01*
X0082887Y0054247D01*
X0082887Y0066808D01*
X0085161Y0069082D01*
X0087561Y0069082D01*
X0085131Y0066798D02*
X0085131Y0063000D01*
X0084056Y0061925D01*
X0084056Y0053860D01*
X0079346Y0049151D01*
X0079346Y0043697D01*
X0071946Y0040033D02*
X0071946Y0048624D01*
X0078002Y0054679D01*
X0079143Y0054679D01*
X0083146Y0050683D02*
X0084140Y0049689D01*
X0084140Y0035277D01*
X0077796Y0028933D01*
X0073546Y0028933D01*
X0069246Y0024633D01*
X0069246Y0023933D01*
X0059246Y0023933D02*
X0059246Y0027333D01*
X0071946Y0040033D01*
X0069346Y0043697D02*
X0069346Y0052537D01*
X0057924Y0051433D02*
X0057924Y0050161D01*
X0048346Y0040583D01*
X0047546Y0040583D01*
X0053846Y0050715D02*
X0051028Y0053533D01*
X0028596Y0053533D01*
X0028196Y0053933D01*
X0030077Y0054652D02*
X0052200Y0054652D01*
X0056130Y0050721D01*
X0057924Y0051433D02*
X0052396Y0056961D01*
X0052396Y0064333D01*
X0030077Y0054652D02*
X0028239Y0056489D01*
X0028196Y0056489D01*
X0069246Y0083133D02*
X0073367Y0079012D01*
X0069246Y0083133D02*
X0069246Y0084033D01*
X0105346Y0057433D02*
X0105346Y0053287D01*
X0079246Y0027187D01*
X0079246Y0023933D01*
X0089246Y0023933D02*
X0089246Y0035233D01*
X0109096Y0055083D01*
X0109096Y0057683D01*
X0110646Y0054533D02*
X0099246Y0043133D01*
X0099246Y0023933D01*
M02*
