G75*
%MOIN*%
%OFA0B0*%
%FSLAX25Y25*%
%IPPOS*%
%LPD*%
%AMOC8*
5,1,8,0,0,1.08239X$1,22.5*
%
%ADD10C,0.06000*%
%ADD11C,0.02375*%
%ADD12C,0.01587*%
%ADD13C,0.01981*%
%ADD14C,0.01000*%
%ADD15C,0.00600*%
D10*
X0019246Y0477252D03*
X0029246Y0477252D03*
X0039246Y0477252D03*
X0049246Y0477252D03*
X0059246Y0477252D03*
X0069246Y0477252D03*
X0079246Y0477252D03*
X0089246Y0477252D03*
X0099246Y0477252D03*
X0109246Y0477252D03*
X0109246Y0537352D03*
X0099246Y0537352D03*
X0089246Y0537352D03*
X0079246Y0537352D03*
X0069246Y0537352D03*
X0059246Y0537352D03*
X0049246Y0537352D03*
X0039246Y0537352D03*
X0029246Y0537352D03*
X0019246Y0537352D03*
D11*
X0021346Y0518374D03*
X0021346Y0496130D03*
D12*
X0016046Y0499752D03*
X0016046Y0502252D03*
X0016046Y0504752D03*
X0016046Y0507252D03*
X0016046Y0509752D03*
X0016046Y0512252D03*
X0016046Y0514752D03*
X0016071Y0525702D03*
X0016071Y0528202D03*
X0016071Y0530702D03*
X0024246Y0534002D03*
X0032696Y0527302D03*
X0035196Y0527302D03*
X0037696Y0527302D03*
X0037846Y0519702D03*
X0037846Y0517302D03*
X0037846Y0514802D03*
X0033346Y0516352D03*
X0026896Y0514352D03*
X0028196Y0509808D03*
X0028196Y0507252D03*
X0033296Y0498502D03*
X0036546Y0495102D03*
X0041346Y0495102D03*
X0045268Y0495176D03*
X0047546Y0493902D03*
X0053246Y0485052D03*
X0054246Y0480102D03*
X0056718Y0491530D03*
X0056130Y0504040D03*
X0053846Y0504033D03*
X0047046Y0515152D03*
X0047046Y0517652D03*
X0047046Y0520002D03*
X0049846Y0520002D03*
X0049846Y0517702D03*
X0052396Y0517652D03*
X0052346Y0520002D03*
X0056096Y0517752D03*
X0058596Y0518602D03*
X0056096Y0524852D03*
X0054246Y0529002D03*
X0054246Y0531502D03*
X0054246Y0534002D03*
X0064246Y0534002D03*
X0067146Y0528502D03*
X0074196Y0530152D03*
X0075246Y0526502D03*
X0074646Y0522802D03*
X0072721Y0523702D03*
X0076846Y0520252D03*
X0079856Y0522811D03*
X0081735Y0524185D03*
X0084246Y0534002D03*
X0087561Y0522400D03*
X0085131Y0520117D03*
X0090542Y0525456D03*
X0094246Y0534002D03*
X0095496Y0521002D03*
X0097446Y0519102D03*
X0099296Y0517202D03*
X0100997Y0515551D03*
X0102574Y0513975D03*
X0104125Y0512474D03*
X0105346Y0510752D03*
X0103546Y0509052D03*
X0101770Y0507376D03*
X0107296Y0499652D03*
X0110646Y0507852D03*
X0109096Y0511002D03*
X0107296Y0516930D03*
X0105861Y0519052D03*
X0101346Y0529002D03*
X0104246Y0534002D03*
X0116846Y0535002D03*
X0116846Y0540002D03*
X0121846Y0540002D03*
X0121746Y0535002D03*
X0121846Y0530002D03*
X0116846Y0530002D03*
X0126846Y0530002D03*
X0126846Y0525002D03*
X0131846Y0530002D03*
X0131746Y0535002D03*
X0131846Y0540002D03*
X0126846Y0540002D03*
X0126746Y0535002D03*
X0136846Y0535002D03*
X0136846Y0540002D03*
X0136846Y0530002D03*
X0136846Y0509702D03*
X0136846Y0504702D03*
X0136846Y0499702D03*
X0136846Y0494702D03*
X0136846Y0489702D03*
X0136846Y0484702D03*
X0136846Y0479702D03*
X0136846Y0474702D03*
X0131846Y0474702D03*
X0131846Y0479702D03*
X0131846Y0484702D03*
X0131846Y0489702D03*
X0131846Y0494702D03*
X0131846Y0499702D03*
X0131846Y0504702D03*
X0126846Y0505002D03*
X0126846Y0500002D03*
X0126846Y0495002D03*
X0126846Y0490002D03*
X0126846Y0485002D03*
X0126846Y0480002D03*
X0126846Y0474702D03*
X0121846Y0474702D03*
X0116846Y0474702D03*
X0116846Y0490002D03*
X0116846Y0495002D03*
X0116846Y0500002D03*
X0121846Y0500002D03*
X0121846Y0505002D03*
X0124646Y0511252D03*
X0121846Y0495002D03*
X0121846Y0490002D03*
X0104246Y0487752D03*
X0104246Y0484002D03*
X0104246Y0480252D03*
X0094246Y0480102D03*
X0094246Y0484002D03*
X0085746Y0491502D03*
X0082546Y0489352D03*
X0084246Y0480102D03*
X0090382Y0496463D03*
X0083146Y0504002D03*
X0079143Y0507998D03*
X0076446Y0510602D03*
X0071821Y0516552D03*
X0068621Y0512602D03*
X0065573Y0510825D03*
X0067164Y0509124D03*
X0062371Y0510877D03*
X0074246Y0534002D03*
X0076868Y0496354D03*
X0074246Y0486502D03*
X0074246Y0484002D03*
X0074246Y0480102D03*
X0064246Y0480102D03*
X0044246Y0480102D03*
X0034246Y0480102D03*
X0031446Y0487502D03*
X0028946Y0487502D03*
X0026446Y0487502D03*
X0023946Y0487502D03*
X0021446Y0487502D03*
X0018946Y0487502D03*
X0016446Y0487502D03*
X0024246Y0480102D03*
X0047146Y0524102D03*
X0044246Y0534002D03*
D13*
X0061546Y0496502D03*
X0066846Y0492902D03*
X0080796Y0511452D03*
X0085846Y0514502D03*
X0085846Y0507552D03*
X0090446Y0511152D03*
X0094746Y0507102D03*
X0090496Y0503802D03*
X0095546Y0514802D03*
X0100096Y0510902D03*
X0090496Y0520052D03*
D14*
X0015246Y0540902D02*
X0015246Y0473702D01*
X0017364Y0473702D01*
X0016981Y0473861D01*
X0015855Y0474986D01*
X0015246Y0476456D01*
X0015246Y0478048D01*
X0015855Y0479518D01*
X0016981Y0480643D01*
X0018451Y0481252D01*
X0020042Y0481252D01*
X0021512Y0480643D01*
X0022637Y0479518D01*
X0023246Y0478048D01*
X0023246Y0476456D01*
X0022637Y0474986D01*
X0021512Y0473861D01*
X0021128Y0473702D01*
X0027364Y0473702D01*
X0026981Y0473861D01*
X0025855Y0474986D01*
X0025246Y0476456D01*
X0025246Y0478048D01*
X0025855Y0479518D01*
X0026981Y0480643D01*
X0028451Y0481252D01*
X0030042Y0481252D01*
X0031512Y0480643D01*
X0032637Y0479518D01*
X0033246Y0478048D01*
X0033246Y0476456D01*
X0032637Y0474986D01*
X0031512Y0473861D01*
X0031128Y0473702D01*
X0037364Y0473702D01*
X0036981Y0473861D01*
X0035855Y0474986D01*
X0035246Y0476456D01*
X0035246Y0478048D01*
X0035855Y0479518D01*
X0036981Y0480643D01*
X0038451Y0481252D01*
X0040042Y0481252D01*
X0041512Y0480643D01*
X0042637Y0479518D01*
X0043246Y0478048D01*
X0043246Y0476456D01*
X0042637Y0474986D01*
X0041512Y0473861D01*
X0041128Y0473702D01*
X0047364Y0473702D01*
X0046981Y0473861D01*
X0045855Y0474986D01*
X0045246Y0476456D01*
X0045246Y0478048D01*
X0045855Y0479518D01*
X0046981Y0480643D01*
X0048451Y0481252D01*
X0050042Y0481252D01*
X0051512Y0480643D01*
X0052637Y0479518D01*
X0053246Y0478048D01*
X0053246Y0476456D01*
X0052637Y0474986D01*
X0051512Y0473861D01*
X0051128Y0473702D01*
X0057364Y0473702D01*
X0056981Y0473861D01*
X0055855Y0474986D01*
X0055246Y0476456D01*
X0055246Y0478048D01*
X0055855Y0479518D01*
X0056981Y0480643D01*
X0058451Y0481252D01*
X0060042Y0481252D01*
X0061512Y0480643D01*
X0062637Y0479518D01*
X0063246Y0478048D01*
X0063246Y0476456D01*
X0062637Y0474986D01*
X0061512Y0473861D01*
X0061128Y0473702D01*
X0067364Y0473702D01*
X0066981Y0473861D01*
X0065855Y0474986D01*
X0065246Y0476456D01*
X0065246Y0478048D01*
X0065855Y0479518D01*
X0066981Y0480643D01*
X0068451Y0481252D01*
X0070042Y0481252D01*
X0071512Y0480643D01*
X0072637Y0479518D01*
X0073246Y0478048D01*
X0073246Y0476456D01*
X0072637Y0474986D01*
X0071512Y0473861D01*
X0071128Y0473702D01*
X0077364Y0473702D01*
X0076981Y0473861D01*
X0075855Y0474986D01*
X0075246Y0476456D01*
X0075246Y0478048D01*
X0075855Y0479518D01*
X0076981Y0480643D01*
X0078451Y0481252D01*
X0080042Y0481252D01*
X0081512Y0480643D01*
X0082637Y0479518D01*
X0083246Y0478048D01*
X0083246Y0476456D01*
X0082637Y0474986D01*
X0081512Y0473861D01*
X0081128Y0473702D01*
X0087364Y0473702D01*
X0086981Y0473861D01*
X0085855Y0474986D01*
X0085246Y0476456D01*
X0085246Y0478048D01*
X0085855Y0479518D01*
X0086981Y0480643D01*
X0088451Y0481252D01*
X0090042Y0481252D01*
X0091512Y0480643D01*
X0092637Y0479518D01*
X0093246Y0478048D01*
X0093246Y0476456D01*
X0092637Y0474986D01*
X0091512Y0473861D01*
X0091128Y0473702D01*
X0097364Y0473702D01*
X0096981Y0473861D01*
X0095855Y0474986D01*
X0095246Y0476456D01*
X0095246Y0478048D01*
X0095855Y0479518D01*
X0096981Y0480643D01*
X0098451Y0481252D01*
X0100042Y0481252D01*
X0101512Y0480643D01*
X0102637Y0479518D01*
X0103246Y0478048D01*
X0103246Y0476456D01*
X0102637Y0474986D01*
X0101512Y0473861D01*
X0101128Y0473702D01*
X0106477Y0473702D01*
X0106315Y0473820D01*
X0105814Y0474320D01*
X0105398Y0474893D01*
X0105076Y0475525D01*
X0104857Y0476198D01*
X0104770Y0476752D01*
X0108746Y0476752D01*
X0108746Y0477752D01*
X0104770Y0477752D01*
X0104857Y0478306D01*
X0105076Y0478979D01*
X0105398Y0479610D01*
X0105814Y0480184D01*
X0106315Y0480684D01*
X0106888Y0481101D01*
X0107519Y0481422D01*
X0108193Y0481641D01*
X0108746Y0481729D01*
X0108746Y0477752D01*
X0109746Y0477752D01*
X0109746Y0481729D01*
X0110300Y0481641D01*
X0110974Y0481422D01*
X0111605Y0481101D01*
X0112178Y0480684D01*
X0112679Y0480184D01*
X0113095Y0479610D01*
X0113417Y0478979D01*
X0113636Y0478306D01*
X0113723Y0477752D01*
X0109747Y0477752D01*
X0109747Y0476752D01*
X0113723Y0476752D01*
X0113636Y0476198D01*
X0113417Y0475525D01*
X0113095Y0474893D01*
X0112679Y0474320D01*
X0112178Y0473820D01*
X0112016Y0473702D01*
X0137846Y0473702D01*
X0137846Y0540902D01*
X0111128Y0540902D01*
X0111512Y0540743D01*
X0112637Y0539618D01*
X0113246Y0538148D01*
X0113246Y0536556D01*
X0112637Y0535086D01*
X0111512Y0533961D01*
X0110042Y0533352D01*
X0108451Y0533352D01*
X0106981Y0533961D01*
X0105855Y0535086D01*
X0105246Y0536556D01*
X0105246Y0538148D01*
X0105855Y0539618D01*
X0106981Y0540743D01*
X0107364Y0540902D01*
X0101128Y0540902D01*
X0101512Y0540743D01*
X0102637Y0539618D01*
X0103246Y0538148D01*
X0103246Y0536556D01*
X0102637Y0535086D01*
X0101512Y0533961D01*
X0100042Y0533352D01*
X0098451Y0533352D01*
X0096981Y0533961D01*
X0095855Y0535086D01*
X0095246Y0536556D01*
X0095246Y0538148D01*
X0095855Y0539618D01*
X0096981Y0540743D01*
X0097364Y0540902D01*
X0091128Y0540902D01*
X0091512Y0540743D01*
X0092637Y0539618D01*
X0093246Y0538148D01*
X0093246Y0536556D01*
X0092637Y0535086D01*
X0091512Y0533961D01*
X0090042Y0533352D01*
X0088451Y0533352D01*
X0086981Y0533961D01*
X0085855Y0535086D01*
X0085246Y0536556D01*
X0085246Y0538148D01*
X0085855Y0539618D01*
X0086981Y0540743D01*
X0087364Y0540902D01*
X0081128Y0540902D01*
X0081512Y0540743D01*
X0082637Y0539618D01*
X0083246Y0538148D01*
X0083246Y0536556D01*
X0082637Y0535086D01*
X0081512Y0533961D01*
X0080042Y0533352D01*
X0078451Y0533352D01*
X0076981Y0533961D01*
X0075855Y0535086D01*
X0075246Y0536556D01*
X0075246Y0538148D01*
X0075855Y0539618D01*
X0076981Y0540743D01*
X0077364Y0540902D01*
X0071128Y0540902D01*
X0071512Y0540743D01*
X0072637Y0539618D01*
X0073246Y0538148D01*
X0073246Y0536556D01*
X0072637Y0535086D01*
X0071512Y0533961D01*
X0070042Y0533352D01*
X0068451Y0533352D01*
X0066981Y0533961D01*
X0065855Y0535086D01*
X0065246Y0536556D01*
X0065246Y0538148D01*
X0065855Y0539618D01*
X0066981Y0540743D01*
X0067364Y0540902D01*
X0061128Y0540902D01*
X0061512Y0540743D01*
X0062637Y0539618D01*
X0063246Y0538148D01*
X0063246Y0536556D01*
X0062637Y0535086D01*
X0061512Y0533961D01*
X0060042Y0533352D01*
X0058451Y0533352D01*
X0056981Y0533961D01*
X0055855Y0535086D01*
X0055246Y0536556D01*
X0055246Y0538148D01*
X0055855Y0539618D01*
X0056981Y0540743D01*
X0057364Y0540902D01*
X0051128Y0540902D01*
X0051512Y0540743D01*
X0052637Y0539618D01*
X0053246Y0538148D01*
X0053246Y0536556D01*
X0052637Y0535086D01*
X0051512Y0533961D01*
X0050042Y0533352D01*
X0048451Y0533352D01*
X0046981Y0533961D01*
X0045855Y0535086D01*
X0045246Y0536556D01*
X0045246Y0538148D01*
X0045855Y0539618D01*
X0046981Y0540743D01*
X0047364Y0540902D01*
X0041128Y0540902D01*
X0041512Y0540743D01*
X0042637Y0539618D01*
X0043246Y0538148D01*
X0043246Y0536556D01*
X0042637Y0535086D01*
X0041512Y0533961D01*
X0040042Y0533352D01*
X0038451Y0533352D01*
X0036981Y0533961D01*
X0035855Y0535086D01*
X0035246Y0536556D01*
X0035246Y0538148D01*
X0035855Y0539618D01*
X0036981Y0540743D01*
X0037364Y0540902D01*
X0032016Y0540902D01*
X0032178Y0540784D01*
X0032679Y0540284D01*
X0033095Y0539710D01*
X0033417Y0539079D01*
X0033636Y0538406D01*
X0033723Y0537852D01*
X0029747Y0537852D01*
X0029747Y0536852D01*
X0033723Y0536852D01*
X0033636Y0536298D01*
X0033417Y0535625D01*
X0033095Y0534993D01*
X0032679Y0534420D01*
X0032178Y0533920D01*
X0031605Y0533503D01*
X0030974Y0533182D01*
X0030300Y0532963D01*
X0029746Y0532875D01*
X0029746Y0536852D01*
X0028746Y0536852D01*
X0024770Y0536852D01*
X0024857Y0536298D01*
X0025076Y0535625D01*
X0025398Y0534993D01*
X0025814Y0534420D01*
X0026315Y0533920D01*
X0026888Y0533503D01*
X0027519Y0533182D01*
X0028193Y0532963D01*
X0028746Y0532875D01*
X0028746Y0536852D01*
X0028746Y0537852D01*
X0024770Y0537852D01*
X0024857Y0538406D01*
X0025076Y0539079D01*
X0025398Y0539710D01*
X0025814Y0540284D01*
X0026315Y0540784D01*
X0026477Y0540902D01*
X0021128Y0540902D01*
X0021512Y0540743D01*
X0022637Y0539618D01*
X0023246Y0538148D01*
X0023246Y0536556D01*
X0022637Y0535086D01*
X0021512Y0533961D01*
X0020042Y0533352D01*
X0018451Y0533352D01*
X0016981Y0533961D01*
X0015855Y0535086D01*
X0015246Y0536556D01*
X0015246Y0538148D01*
X0015855Y0539618D01*
X0016981Y0540743D01*
X0017364Y0540902D01*
X0015246Y0540902D01*
X0015246Y0540395D02*
X0016632Y0540395D01*
X0015764Y0539396D02*
X0015246Y0539396D01*
X0015246Y0538398D02*
X0015350Y0538398D01*
X0015246Y0537399D02*
X0015246Y0537399D01*
X0015246Y0536401D02*
X0015311Y0536401D01*
X0015246Y0535402D02*
X0015724Y0535402D01*
X0015246Y0534404D02*
X0016538Y0534404D01*
X0015246Y0533405D02*
X0018322Y0533405D01*
X0020171Y0533405D02*
X0027080Y0533405D01*
X0025831Y0534404D02*
X0021955Y0534404D01*
X0022768Y0535402D02*
X0025189Y0535402D01*
X0024841Y0536401D02*
X0023182Y0536401D01*
X0023246Y0537399D02*
X0028746Y0537399D01*
X0028746Y0536401D02*
X0029746Y0536401D01*
X0029747Y0537399D02*
X0035246Y0537399D01*
X0035311Y0536401D02*
X0033652Y0536401D01*
X0033303Y0535402D02*
X0035724Y0535402D01*
X0036538Y0534404D02*
X0032662Y0534404D01*
X0031413Y0533405D02*
X0038322Y0533405D01*
X0040171Y0533405D02*
X0048322Y0533405D01*
X0050171Y0533405D02*
X0058322Y0533405D01*
X0060171Y0533405D02*
X0068322Y0533405D01*
X0070171Y0533405D02*
X0078322Y0533405D01*
X0080171Y0533405D02*
X0088322Y0533405D01*
X0090171Y0533405D02*
X0098322Y0533405D01*
X0100171Y0533405D02*
X0108322Y0533405D01*
X0110171Y0533405D02*
X0137846Y0533405D01*
X0137846Y0532407D02*
X0015246Y0532407D01*
X0015246Y0531408D02*
X0072916Y0531408D01*
X0072403Y0530895D02*
X0072403Y0529409D01*
X0073453Y0528358D01*
X0074939Y0528358D01*
X0075990Y0529409D01*
X0075990Y0530895D01*
X0074939Y0531946D01*
X0073453Y0531946D01*
X0072403Y0530895D01*
X0072403Y0530410D02*
X0015246Y0530410D01*
X0015246Y0529411D02*
X0065519Y0529411D01*
X0065353Y0529245D02*
X0065353Y0527759D01*
X0066403Y0526708D01*
X0067889Y0526708D01*
X0068940Y0527759D01*
X0068940Y0529245D01*
X0067889Y0530296D01*
X0066403Y0530296D01*
X0065353Y0529245D01*
X0065353Y0528413D02*
X0015246Y0528413D01*
X0015246Y0527414D02*
X0065698Y0527414D01*
X0068595Y0527414D02*
X0100046Y0527414D01*
X0100046Y0527390D02*
X0100046Y0527765D01*
X0099553Y0528259D01*
X0099553Y0529745D01*
X0100603Y0530796D01*
X0102089Y0530796D01*
X0103140Y0529745D01*
X0103140Y0528259D01*
X0102646Y0527765D01*
X0102646Y0526313D01*
X0097290Y0520957D01*
X0097290Y0520896D01*
X0098189Y0520896D01*
X0099240Y0519845D01*
X0099240Y0518996D01*
X0100039Y0518996D01*
X0101090Y0517945D01*
X0101090Y0517345D01*
X0101740Y0517345D01*
X0102791Y0516294D01*
X0102791Y0515769D01*
X0103316Y0515769D01*
X0104367Y0514718D01*
X0104367Y0514268D01*
X0104868Y0514268D01*
X0105918Y0513217D01*
X0105918Y0512546D01*
X0106089Y0512546D01*
X0107140Y0511495D01*
X0107140Y0510009D01*
X0106089Y0508958D01*
X0105340Y0508958D01*
X0105340Y0508309D01*
X0104289Y0507258D01*
X0103564Y0507258D01*
X0103564Y0506633D01*
X0102513Y0505582D01*
X0101027Y0505582D01*
X0099977Y0506633D01*
X0099977Y0508119D01*
X0101027Y0509170D01*
X0101753Y0509170D01*
X0101753Y0509795D01*
X0102803Y0510846D01*
X0103216Y0510846D01*
X0102331Y0511731D01*
X0102331Y0512181D01*
X0101831Y0512181D01*
X0100780Y0513232D01*
X0100780Y0513757D01*
X0100254Y0513757D01*
X0099204Y0514808D01*
X0099204Y0515408D01*
X0098553Y0515408D01*
X0097503Y0516459D01*
X0097503Y0517308D01*
X0096703Y0517308D01*
X0095653Y0518359D01*
X0095653Y0519208D01*
X0094753Y0519208D01*
X0093703Y0520259D01*
X0093703Y0521745D01*
X0094753Y0522796D01*
X0095452Y0522796D01*
X0100046Y0527390D01*
X0099553Y0528413D02*
X0074994Y0528413D01*
X0075990Y0529411D02*
X0099553Y0529411D01*
X0100217Y0530410D02*
X0075990Y0530410D01*
X0075477Y0531408D02*
X0137846Y0531408D01*
X0137846Y0530410D02*
X0102475Y0530410D01*
X0103140Y0529411D02*
X0137846Y0529411D01*
X0137846Y0528413D02*
X0103140Y0528413D01*
X0102646Y0527414D02*
X0116146Y0527414D01*
X0116146Y0527463D02*
X0116146Y0526841D01*
X0116146Y0521213D01*
X0116146Y0520591D01*
X0116586Y0520152D01*
X0123457Y0520152D01*
X0123896Y0520591D01*
X0123896Y0527463D01*
X0123457Y0527902D01*
X0116586Y0527902D01*
X0116146Y0527463D01*
X0116146Y0526416D02*
X0102646Y0526416D01*
X0101750Y0525417D02*
X0116146Y0525417D01*
X0116146Y0524419D02*
X0100752Y0524419D01*
X0099753Y0523420D02*
X0116146Y0523420D01*
X0116146Y0522422D02*
X0098755Y0522422D01*
X0097756Y0521423D02*
X0116146Y0521423D01*
X0116313Y0520425D02*
X0098661Y0520425D01*
X0099240Y0519426D02*
X0137846Y0519426D01*
X0137846Y0518428D02*
X0137197Y0518428D01*
X0137396Y0518229D02*
X0136986Y0518639D01*
X0131206Y0518639D01*
X0130796Y0518229D01*
X0130796Y0517649D01*
X0130796Y0513142D01*
X0130796Y0512562D01*
X0131206Y0512152D01*
X0136986Y0512152D01*
X0137396Y0512562D01*
X0137396Y0518229D01*
X0137396Y0517429D02*
X0137846Y0517429D01*
X0137846Y0516431D02*
X0137396Y0516431D01*
X0137396Y0515432D02*
X0137846Y0515432D01*
X0137846Y0514433D02*
X0137396Y0514433D01*
X0137396Y0513435D02*
X0137846Y0513435D01*
X0137846Y0512436D02*
X0137271Y0512436D01*
X0137846Y0511438D02*
X0110890Y0511438D01*
X0110890Y0511745D02*
X0109839Y0512796D01*
X0108353Y0512796D01*
X0107303Y0511745D01*
X0107303Y0510259D01*
X0108353Y0509208D01*
X0109466Y0509208D01*
X0108853Y0508595D01*
X0108853Y0507109D01*
X0109903Y0506058D01*
X0111389Y0506058D01*
X0112440Y0507109D01*
X0112440Y0508595D01*
X0111389Y0509646D01*
X0110277Y0509646D01*
X0110890Y0510259D01*
X0110890Y0511745D01*
X0110199Y0512436D02*
X0130922Y0512436D01*
X0130796Y0513435D02*
X0105700Y0513435D01*
X0106199Y0512436D02*
X0107994Y0512436D01*
X0107303Y0511438D02*
X0107140Y0511438D01*
X0107140Y0510439D02*
X0107303Y0510439D01*
X0106572Y0509441D02*
X0108121Y0509441D01*
X0108853Y0508442D02*
X0105340Y0508442D01*
X0104475Y0507444D02*
X0108853Y0507444D01*
X0109516Y0506445D02*
X0103377Y0506445D01*
X0101753Y0509441D02*
X0080236Y0509441D01*
X0079886Y0509792D02*
X0080936Y0508741D01*
X0080936Y0507255D01*
X0079886Y0506204D01*
X0078400Y0506204D01*
X0077349Y0507255D01*
X0077349Y0508741D01*
X0078400Y0509792D01*
X0079886Y0509792D01*
X0078240Y0509859D02*
X0077189Y0508808D01*
X0075703Y0508808D01*
X0074653Y0509859D01*
X0074653Y0511345D01*
X0075703Y0512396D01*
X0077189Y0512396D01*
X0078240Y0511345D01*
X0078240Y0509859D01*
X0078049Y0509441D02*
X0077822Y0509441D01*
X0078240Y0510439D02*
X0102397Y0510439D01*
X0102624Y0511438D02*
X0078147Y0511438D01*
X0077349Y0508442D02*
X0068958Y0508442D01*
X0068958Y0508381D02*
X0068958Y0509867D01*
X0068016Y0510808D01*
X0069364Y0510808D01*
X0070415Y0511859D01*
X0070415Y0513345D01*
X0069364Y0514396D01*
X0067878Y0514396D01*
X0066828Y0513345D01*
X0066828Y0512108D01*
X0066316Y0512619D01*
X0064830Y0512619D01*
X0063780Y0511568D01*
X0063780Y0510082D01*
X0064830Y0509031D01*
X0065370Y0509031D01*
X0065370Y0508381D01*
X0066421Y0507330D01*
X0067907Y0507330D01*
X0068958Y0508381D01*
X0068958Y0509441D02*
X0075071Y0509441D01*
X0074653Y0510439D02*
X0068385Y0510439D01*
X0069994Y0511438D02*
X0074746Y0511438D01*
X0072564Y0514758D02*
X0071078Y0514758D01*
X0070028Y0515809D01*
X0070028Y0517295D01*
X0071078Y0518346D01*
X0072564Y0518346D01*
X0073615Y0517295D01*
X0073615Y0515809D01*
X0072564Y0514758D01*
X0073238Y0515432D02*
X0098530Y0515432D01*
X0097531Y0516431D02*
X0073615Y0516431D01*
X0073481Y0517429D02*
X0096583Y0517429D01*
X0095653Y0518428D02*
X0085978Y0518428D01*
X0085874Y0518323D02*
X0086925Y0519374D01*
X0086925Y0520607D01*
X0088304Y0520607D01*
X0089354Y0521657D01*
X0089354Y0523143D01*
X0088304Y0524194D01*
X0086818Y0524194D01*
X0085767Y0523143D01*
X0085767Y0521911D01*
X0084388Y0521911D01*
X0083338Y0520860D01*
X0083338Y0519374D01*
X0084388Y0518323D01*
X0085874Y0518323D01*
X0086925Y0519426D02*
X0094536Y0519426D01*
X0093703Y0520425D02*
X0086925Y0520425D01*
X0085767Y0522422D02*
X0082508Y0522422D01*
X0082478Y0522391D02*
X0083528Y0523442D01*
X0083528Y0524928D01*
X0082478Y0525978D01*
X0080992Y0525978D01*
X0079941Y0524928D01*
X0079941Y0524605D01*
X0079113Y0524605D01*
X0078062Y0523554D01*
X0078062Y0522068D01*
X0079113Y0521018D01*
X0080599Y0521018D01*
X0081650Y0522068D01*
X0081650Y0522391D01*
X0082478Y0522391D01*
X0083507Y0523420D02*
X0086044Y0523420D01*
X0083528Y0524419D02*
X0089043Y0524419D01*
X0088749Y0524713D02*
X0089799Y0523662D01*
X0091285Y0523662D01*
X0092336Y0524713D01*
X0092336Y0526199D01*
X0091285Y0527250D01*
X0089799Y0527250D01*
X0088749Y0526199D01*
X0088749Y0524713D01*
X0088749Y0525417D02*
X0083039Y0525417D01*
X0080431Y0525417D02*
X0073543Y0525417D01*
X0073464Y0525496D02*
X0071978Y0525496D01*
X0070928Y0524445D01*
X0070928Y0522959D01*
X0071978Y0521908D01*
X0073003Y0521908D01*
X0073903Y0521008D01*
X0075066Y0521008D01*
X0075053Y0520995D01*
X0075053Y0519509D01*
X0076103Y0518458D01*
X0077589Y0518458D01*
X0078640Y0519509D01*
X0078640Y0520995D01*
X0077589Y0522046D01*
X0076427Y0522046D01*
X0076440Y0522059D01*
X0076440Y0523545D01*
X0075389Y0524596D01*
X0074364Y0524596D01*
X0073464Y0525496D01*
X0071900Y0525417D02*
X0057890Y0525417D01*
X0057890Y0525595D02*
X0056839Y0526646D01*
X0055353Y0526646D01*
X0054303Y0525595D01*
X0054303Y0524109D01*
X0055353Y0523058D01*
X0056839Y0523058D01*
X0057890Y0524109D01*
X0057890Y0525595D01*
X0057069Y0526416D02*
X0088965Y0526416D01*
X0089078Y0523420D02*
X0096076Y0523420D01*
X0097075Y0524419D02*
X0092042Y0524419D01*
X0092336Y0525417D02*
X0098073Y0525417D01*
X0099072Y0526416D02*
X0092119Y0526416D01*
X0094379Y0522422D02*
X0089354Y0522422D01*
X0089120Y0521423D02*
X0093703Y0521423D01*
X0099578Y0514433D02*
X0032408Y0514433D01*
X0032491Y0514632D02*
X0032113Y0513720D01*
X0031414Y0513021D01*
X0030502Y0512643D01*
X0029514Y0512643D01*
X0028602Y0513021D01*
X0028352Y0513271D01*
X0027639Y0512558D01*
X0026153Y0512558D01*
X0025103Y0513609D01*
X0025103Y0515095D01*
X0026153Y0516146D01*
X0027639Y0516146D01*
X0027713Y0516072D01*
X0027903Y0516532D01*
X0028602Y0517231D01*
X0029514Y0517609D01*
X0030502Y0517609D01*
X0031414Y0517231D01*
X0032113Y0516532D01*
X0032491Y0515620D01*
X0032491Y0514632D01*
X0032491Y0515432D02*
X0070405Y0515432D01*
X0070028Y0516431D02*
X0053712Y0516431D01*
X0054190Y0516909D02*
X0053139Y0515858D01*
X0051653Y0515858D01*
X0050603Y0516909D01*
X0050603Y0518395D01*
X0051653Y0519446D01*
X0053139Y0519446D01*
X0054190Y0518395D01*
X0054190Y0516909D01*
X0054190Y0517429D02*
X0057233Y0517429D01*
X0056803Y0517859D02*
X0057853Y0516808D01*
X0059339Y0516808D01*
X0060390Y0517859D01*
X0060390Y0519345D01*
X0059339Y0520396D01*
X0057853Y0520396D01*
X0056803Y0519345D01*
X0056803Y0517859D01*
X0056803Y0518428D02*
X0054158Y0518428D01*
X0053159Y0519426D02*
X0056884Y0519426D01*
X0060309Y0519426D02*
X0075136Y0519426D01*
X0075053Y0520425D02*
X0023096Y0520425D01*
X0023060Y0520461D02*
X0022619Y0520756D01*
X0022130Y0520958D01*
X0021611Y0521061D01*
X0021347Y0521061D01*
X0021347Y0518374D01*
X0024034Y0518374D01*
X0024034Y0518639D01*
X0023931Y0519158D01*
X0023728Y0519647D01*
X0023434Y0520087D01*
X0023060Y0520461D01*
X0023820Y0519426D02*
X0051634Y0519426D01*
X0050635Y0518428D02*
X0024034Y0518428D01*
X0024034Y0518374D02*
X0021347Y0518374D01*
X0021347Y0518374D01*
X0021347Y0515687D01*
X0021611Y0515687D01*
X0022130Y0515790D01*
X0022619Y0515992D01*
X0023060Y0516287D01*
X0023434Y0516661D01*
X0023728Y0517101D01*
X0023931Y0517590D01*
X0024034Y0518109D01*
X0024034Y0518374D01*
X0023864Y0517429D02*
X0029080Y0517429D01*
X0027861Y0516431D02*
X0023204Y0516431D01*
X0021347Y0516431D02*
X0021346Y0516431D01*
X0021346Y0515687D02*
X0021346Y0518374D01*
X0018659Y0518374D01*
X0018659Y0518109D01*
X0018762Y0517590D01*
X0018965Y0517101D01*
X0019259Y0516661D01*
X0019633Y0516287D01*
X0020073Y0515992D01*
X0020563Y0515790D01*
X0021082Y0515687D01*
X0021346Y0515687D01*
X0021346Y0517429D02*
X0021347Y0517429D01*
X0021346Y0518374D02*
X0021347Y0518374D01*
X0021346Y0518374D01*
X0021346Y0518374D01*
X0018659Y0518374D01*
X0018659Y0518639D01*
X0018762Y0519158D01*
X0018965Y0519647D01*
X0019259Y0520087D01*
X0019633Y0520461D01*
X0020073Y0520756D01*
X0020563Y0520958D01*
X0021082Y0521061D01*
X0021346Y0521061D01*
X0021346Y0518374D01*
X0021346Y0518428D02*
X0021347Y0518428D01*
X0021346Y0519426D02*
X0021347Y0519426D01*
X0021346Y0520425D02*
X0021347Y0520425D01*
X0019596Y0520425D02*
X0015246Y0520425D01*
X0015246Y0521423D02*
X0073489Y0521423D01*
X0071465Y0522422D02*
X0048003Y0522422D01*
X0047889Y0522308D02*
X0048940Y0523359D01*
X0048940Y0524845D01*
X0047889Y0525896D01*
X0046403Y0525896D01*
X0045353Y0524845D01*
X0045353Y0523359D01*
X0046403Y0522308D01*
X0047889Y0522308D01*
X0048940Y0523420D02*
X0054992Y0523420D01*
X0054303Y0524419D02*
X0048940Y0524419D01*
X0048368Y0525417D02*
X0054303Y0525417D01*
X0055123Y0526416D02*
X0015246Y0526416D01*
X0015246Y0525417D02*
X0045925Y0525417D01*
X0045353Y0524419D02*
X0015246Y0524419D01*
X0015246Y0523420D02*
X0045353Y0523420D01*
X0046290Y0522422D02*
X0015246Y0522422D01*
X0015246Y0519426D02*
X0018873Y0519426D01*
X0018659Y0518428D02*
X0015246Y0518428D01*
X0015246Y0517429D02*
X0018829Y0517429D01*
X0019489Y0516431D02*
X0015246Y0516431D01*
X0015246Y0515432D02*
X0025440Y0515432D01*
X0025103Y0514433D02*
X0015246Y0514433D01*
X0015246Y0513435D02*
X0025277Y0513435D01*
X0027289Y0511438D02*
X0015246Y0511438D01*
X0015246Y0512436D02*
X0064648Y0512436D01*
X0063780Y0511438D02*
X0029103Y0511438D01*
X0028939Y0511602D02*
X0027453Y0511602D01*
X0026403Y0510551D01*
X0026403Y0509065D01*
X0026938Y0508530D01*
X0026403Y0507995D01*
X0026403Y0506509D01*
X0027453Y0505458D01*
X0028939Y0505458D01*
X0029990Y0506509D01*
X0029990Y0507995D01*
X0029455Y0508530D01*
X0029990Y0509065D01*
X0029990Y0510551D01*
X0028939Y0511602D01*
X0029990Y0510439D02*
X0063780Y0510439D01*
X0064421Y0509441D02*
X0029990Y0509441D01*
X0029543Y0508442D02*
X0065370Y0508442D01*
X0066307Y0507444D02*
X0029990Y0507444D01*
X0029927Y0506445D02*
X0078159Y0506445D01*
X0077349Y0507444D02*
X0068021Y0507444D01*
X0066828Y0512436D02*
X0066499Y0512436D01*
X0066918Y0513435D02*
X0031828Y0513435D01*
X0032155Y0516431D02*
X0051081Y0516431D01*
X0050603Y0517429D02*
X0030935Y0517429D01*
X0026403Y0510439D02*
X0015246Y0510439D01*
X0015246Y0509441D02*
X0026403Y0509441D01*
X0026850Y0508442D02*
X0015246Y0508442D01*
X0015246Y0507444D02*
X0026403Y0507444D01*
X0026466Y0506445D02*
X0015246Y0506445D01*
X0015246Y0505447D02*
X0052723Y0505447D01*
X0053103Y0505827D02*
X0052053Y0504776D01*
X0052053Y0503290D01*
X0053103Y0502240D01*
X0054589Y0502240D01*
X0054992Y0502642D01*
X0055387Y0502246D01*
X0056873Y0502246D01*
X0057924Y0503297D01*
X0057924Y0504783D01*
X0056873Y0505833D01*
X0055387Y0505833D01*
X0054985Y0505431D01*
X0054589Y0505827D01*
X0053103Y0505827D01*
X0052053Y0504448D02*
X0015246Y0504448D01*
X0015246Y0503450D02*
X0052053Y0503450D01*
X0052892Y0502451D02*
X0015246Y0502451D01*
X0015246Y0501453D02*
X0028572Y0501453D01*
X0028602Y0501483D02*
X0027903Y0500784D01*
X0027525Y0499872D01*
X0027525Y0498884D01*
X0027903Y0497972D01*
X0028602Y0497273D01*
X0029514Y0496895D01*
X0030502Y0496895D01*
X0031414Y0497273D01*
X0032113Y0497972D01*
X0032491Y0498884D01*
X0032491Y0499872D01*
X0032113Y0500784D01*
X0031414Y0501483D01*
X0030502Y0501861D01*
X0029514Y0501861D01*
X0028602Y0501483D01*
X0027766Y0500454D02*
X0015246Y0500454D01*
X0015246Y0499456D02*
X0027525Y0499456D01*
X0027702Y0498457D02*
X0022700Y0498457D01*
X0022619Y0498511D02*
X0022130Y0498714D01*
X0021611Y0498817D01*
X0021347Y0498817D01*
X0021347Y0496130D01*
X0024034Y0496130D01*
X0024034Y0496395D01*
X0023931Y0496914D01*
X0023728Y0497403D01*
X0023434Y0497843D01*
X0023060Y0498217D01*
X0022619Y0498511D01*
X0021347Y0498457D02*
X0021346Y0498457D01*
X0021346Y0498817D02*
X0021082Y0498817D01*
X0020563Y0498714D01*
X0020073Y0498511D01*
X0019633Y0498217D01*
X0019259Y0497843D01*
X0018965Y0497403D01*
X0018762Y0496914D01*
X0018659Y0496395D01*
X0018659Y0496130D01*
X0021346Y0496130D01*
X0021346Y0496130D01*
X0018659Y0496130D01*
X0018659Y0495865D01*
X0018762Y0495346D01*
X0018965Y0494857D01*
X0019259Y0494417D01*
X0019633Y0494042D01*
X0020073Y0493748D01*
X0020563Y0493546D01*
X0021082Y0493443D01*
X0021346Y0493443D01*
X0021346Y0496130D01*
X0021346Y0498817D01*
X0021346Y0497459D02*
X0021347Y0497459D01*
X0021346Y0496460D02*
X0021347Y0496460D01*
X0021347Y0496130D02*
X0021346Y0496130D01*
X0021347Y0496130D01*
X0021347Y0496130D01*
X0024034Y0496130D01*
X0024034Y0495865D01*
X0023931Y0495346D01*
X0023728Y0494857D01*
X0023434Y0494417D01*
X0023060Y0494042D01*
X0022619Y0493748D01*
X0022130Y0493546D01*
X0021611Y0493443D01*
X0021347Y0493443D01*
X0021347Y0496130D01*
X0021346Y0495462D02*
X0021347Y0495462D01*
X0021346Y0494463D02*
X0021347Y0494463D01*
X0021346Y0493465D02*
X0021347Y0493465D01*
X0021723Y0493465D02*
X0040447Y0493465D01*
X0040603Y0493308D02*
X0042089Y0493308D01*
X0043140Y0494359D01*
X0043140Y0495845D01*
X0042089Y0496896D01*
X0040603Y0496896D01*
X0039553Y0495845D01*
X0039553Y0494359D01*
X0040603Y0493308D01*
X0039553Y0494463D02*
X0023465Y0494463D01*
X0023954Y0495462D02*
X0039553Y0495462D01*
X0040168Y0496460D02*
X0024021Y0496460D01*
X0023691Y0497459D02*
X0028416Y0497459D01*
X0031600Y0497459D02*
X0075435Y0497459D01*
X0075074Y0497097D02*
X0075074Y0495611D01*
X0076125Y0494561D01*
X0077611Y0494561D01*
X0078661Y0495611D01*
X0078661Y0497097D01*
X0077611Y0498148D01*
X0076125Y0498148D01*
X0075074Y0497097D01*
X0075074Y0496460D02*
X0046520Y0496460D01*
X0046011Y0496969D02*
X0047062Y0495919D01*
X0047062Y0495696D01*
X0048289Y0495696D01*
X0049340Y0494645D01*
X0049340Y0493159D01*
X0048289Y0492108D01*
X0046803Y0492108D01*
X0045753Y0493159D01*
X0045753Y0493382D01*
X0044525Y0493382D01*
X0043474Y0494433D01*
X0043474Y0495919D01*
X0044525Y0496969D01*
X0046011Y0496969D01*
X0044016Y0496460D02*
X0042525Y0496460D01*
X0043140Y0495462D02*
X0043474Y0495462D01*
X0043474Y0494463D02*
X0043140Y0494463D01*
X0042246Y0493465D02*
X0044442Y0493465D01*
X0046445Y0492466D02*
X0015246Y0492466D01*
X0015246Y0491468D02*
X0054924Y0491468D01*
X0054924Y0490787D02*
X0055975Y0489737D01*
X0057461Y0489737D01*
X0058512Y0490787D01*
X0058512Y0492273D01*
X0057461Y0493324D01*
X0055975Y0493324D01*
X0054924Y0492273D01*
X0054924Y0490787D01*
X0055243Y0490469D02*
X0015246Y0490469D01*
X0015246Y0489471D02*
X0080753Y0489471D01*
X0080753Y0490095D02*
X0080753Y0488609D01*
X0081803Y0487558D01*
X0083289Y0487558D01*
X0084340Y0488609D01*
X0084340Y0490095D01*
X0083289Y0491146D01*
X0081803Y0491146D01*
X0080753Y0490095D01*
X0081127Y0490469D02*
X0058193Y0490469D01*
X0058512Y0491468D02*
X0083953Y0491468D01*
X0083953Y0490759D02*
X0085003Y0489708D01*
X0086489Y0489708D01*
X0087540Y0490759D01*
X0087540Y0492245D01*
X0086489Y0493296D01*
X0085003Y0493296D01*
X0083953Y0492245D01*
X0083953Y0490759D01*
X0083966Y0490469D02*
X0084243Y0490469D01*
X0084340Y0489471D02*
X0137846Y0489471D01*
X0137846Y0490469D02*
X0087250Y0490469D01*
X0087540Y0491468D02*
X0137846Y0491468D01*
X0137846Y0492466D02*
X0087319Y0492466D01*
X0084174Y0492466D02*
X0058319Y0492466D01*
X0055117Y0492466D02*
X0048647Y0492466D01*
X0049340Y0493465D02*
X0137846Y0493465D01*
X0137846Y0494463D02*
X0049340Y0494463D01*
X0048523Y0495462D02*
X0075224Y0495462D01*
X0078512Y0495462D02*
X0088846Y0495462D01*
X0088588Y0495720D02*
X0089639Y0494669D01*
X0091125Y0494669D01*
X0092175Y0495720D01*
X0092175Y0497206D01*
X0091125Y0498257D01*
X0089639Y0498257D01*
X0088588Y0497206D01*
X0088588Y0495720D01*
X0088588Y0496460D02*
X0078661Y0496460D01*
X0078300Y0497459D02*
X0088841Y0497459D01*
X0091922Y0497459D02*
X0137846Y0497459D01*
X0137846Y0498457D02*
X0032314Y0498457D01*
X0032491Y0499456D02*
X0137846Y0499456D01*
X0137846Y0500454D02*
X0032249Y0500454D01*
X0031444Y0501453D02*
X0137846Y0501453D01*
X0137846Y0502451D02*
X0084133Y0502451D01*
X0083889Y0502208D02*
X0084940Y0503259D01*
X0084940Y0504745D01*
X0083889Y0505796D01*
X0082403Y0505796D01*
X0081353Y0504745D01*
X0081353Y0503259D01*
X0082403Y0502208D01*
X0083889Y0502208D01*
X0084940Y0503450D02*
X0137846Y0503450D01*
X0137846Y0504448D02*
X0084940Y0504448D01*
X0084238Y0505447D02*
X0137846Y0505447D01*
X0137846Y0506445D02*
X0111777Y0506445D01*
X0112440Y0507444D02*
X0137846Y0507444D01*
X0137846Y0508442D02*
X0112440Y0508442D01*
X0111594Y0509441D02*
X0137846Y0509441D01*
X0137846Y0510439D02*
X0110890Y0510439D01*
X0108039Y0515137D02*
X0109090Y0516187D01*
X0109090Y0517673D01*
X0108039Y0518724D01*
X0106553Y0518724D01*
X0105503Y0517673D01*
X0105503Y0516187D01*
X0106553Y0515137D01*
X0108039Y0515137D01*
X0108335Y0515432D02*
X0130796Y0515432D01*
X0130796Y0516431D02*
X0109090Y0516431D01*
X0109090Y0517429D02*
X0130796Y0517429D01*
X0130995Y0518428D02*
X0108336Y0518428D01*
X0106257Y0518428D02*
X0100608Y0518428D01*
X0101090Y0517429D02*
X0105503Y0517429D01*
X0105503Y0516431D02*
X0102655Y0516431D01*
X0103653Y0515432D02*
X0106258Y0515432D01*
X0104367Y0514433D02*
X0130796Y0514433D01*
X0137846Y0520425D02*
X0123730Y0520425D01*
X0123896Y0521423D02*
X0137846Y0521423D01*
X0137846Y0522422D02*
X0123896Y0522422D01*
X0123896Y0523420D02*
X0137846Y0523420D01*
X0137846Y0524419D02*
X0123896Y0524419D01*
X0123896Y0525417D02*
X0137846Y0525417D01*
X0137846Y0526416D02*
X0123896Y0526416D01*
X0123896Y0527414D02*
X0137846Y0527414D01*
X0137846Y0534404D02*
X0111955Y0534404D01*
X0112768Y0535402D02*
X0137846Y0535402D01*
X0137846Y0536401D02*
X0113182Y0536401D01*
X0113246Y0537399D02*
X0137846Y0537399D01*
X0137846Y0538398D02*
X0113143Y0538398D01*
X0112729Y0539396D02*
X0137846Y0539396D01*
X0137846Y0540395D02*
X0111860Y0540395D01*
X0106632Y0540395D02*
X0101860Y0540395D01*
X0102729Y0539396D02*
X0105764Y0539396D01*
X0105350Y0538398D02*
X0103143Y0538398D01*
X0103246Y0537399D02*
X0105246Y0537399D01*
X0105311Y0536401D02*
X0103182Y0536401D01*
X0102768Y0535402D02*
X0105724Y0535402D01*
X0106538Y0534404D02*
X0101955Y0534404D01*
X0096538Y0534404D02*
X0091955Y0534404D01*
X0092768Y0535402D02*
X0095724Y0535402D01*
X0095311Y0536401D02*
X0093182Y0536401D01*
X0093246Y0537399D02*
X0095246Y0537399D01*
X0095350Y0538398D02*
X0093143Y0538398D01*
X0092729Y0539396D02*
X0095764Y0539396D01*
X0096632Y0540395D02*
X0091860Y0540395D01*
X0086632Y0540395D02*
X0081860Y0540395D01*
X0082729Y0539396D02*
X0085764Y0539396D01*
X0085350Y0538398D02*
X0083143Y0538398D01*
X0083246Y0537399D02*
X0085246Y0537399D01*
X0085311Y0536401D02*
X0083182Y0536401D01*
X0082768Y0535402D02*
X0085724Y0535402D01*
X0086538Y0534404D02*
X0081955Y0534404D01*
X0076538Y0534404D02*
X0071955Y0534404D01*
X0072768Y0535402D02*
X0075724Y0535402D01*
X0075311Y0536401D02*
X0073182Y0536401D01*
X0073246Y0537399D02*
X0075246Y0537399D01*
X0075350Y0538398D02*
X0073143Y0538398D01*
X0072729Y0539396D02*
X0075764Y0539396D01*
X0076632Y0540395D02*
X0071860Y0540395D01*
X0066632Y0540395D02*
X0061860Y0540395D01*
X0062729Y0539396D02*
X0065764Y0539396D01*
X0065350Y0538398D02*
X0063143Y0538398D01*
X0063246Y0537399D02*
X0065246Y0537399D01*
X0065311Y0536401D02*
X0063182Y0536401D01*
X0062768Y0535402D02*
X0065724Y0535402D01*
X0066538Y0534404D02*
X0061955Y0534404D01*
X0068774Y0529411D02*
X0072403Y0529411D01*
X0073399Y0528413D02*
X0068940Y0528413D01*
X0070928Y0524419D02*
X0057890Y0524419D01*
X0057201Y0523420D02*
X0070928Y0523420D01*
X0075566Y0524419D02*
X0078926Y0524419D01*
X0078062Y0523420D02*
X0076440Y0523420D01*
X0076440Y0522422D02*
X0078062Y0522422D01*
X0078212Y0521423D02*
X0078707Y0521423D01*
X0078640Y0520425D02*
X0083338Y0520425D01*
X0083338Y0519426D02*
X0078557Y0519426D01*
X0081004Y0521423D02*
X0083900Y0521423D01*
X0084284Y0518428D02*
X0060390Y0518428D01*
X0059960Y0517429D02*
X0070162Y0517429D01*
X0070325Y0513435D02*
X0100780Y0513435D01*
X0101575Y0512436D02*
X0070415Y0512436D01*
X0080936Y0508442D02*
X0100300Y0508442D01*
X0099977Y0507444D02*
X0080936Y0507444D01*
X0080127Y0506445D02*
X0100164Y0506445D01*
X0092175Y0496460D02*
X0137846Y0496460D01*
X0137846Y0495462D02*
X0091917Y0495462D01*
X0091671Y0480484D02*
X0096822Y0480484D01*
X0095842Y0479486D02*
X0092651Y0479486D01*
X0093064Y0478487D02*
X0095428Y0478487D01*
X0095246Y0477489D02*
X0093246Y0477489D01*
X0093246Y0476490D02*
X0095246Y0476490D01*
X0095646Y0475492D02*
X0092847Y0475492D01*
X0092144Y0474493D02*
X0096349Y0474493D01*
X0102144Y0474493D02*
X0105689Y0474493D01*
X0105093Y0475492D02*
X0102847Y0475492D01*
X0103246Y0476490D02*
X0104811Y0476490D01*
X0103246Y0477489D02*
X0108746Y0477489D01*
X0108746Y0478487D02*
X0109746Y0478487D01*
X0109747Y0477489D02*
X0137846Y0477489D01*
X0137846Y0478487D02*
X0123896Y0478487D01*
X0123896Y0478391D02*
X0123896Y0485263D01*
X0123457Y0485702D01*
X0116586Y0485702D01*
X0116146Y0485263D01*
X0116146Y0484641D01*
X0116146Y0479013D01*
X0116146Y0478391D01*
X0116586Y0477952D01*
X0123457Y0477952D01*
X0123896Y0478391D01*
X0123896Y0479486D02*
X0137846Y0479486D01*
X0137846Y0480484D02*
X0123896Y0480484D01*
X0123896Y0481483D02*
X0137846Y0481483D01*
X0137846Y0482481D02*
X0123896Y0482481D01*
X0123896Y0483480D02*
X0137846Y0483480D01*
X0137846Y0484478D02*
X0123896Y0484478D01*
X0123682Y0485477D02*
X0137846Y0485477D01*
X0137846Y0486475D02*
X0015246Y0486475D01*
X0015246Y0485477D02*
X0116360Y0485477D01*
X0116146Y0484478D02*
X0015246Y0484478D01*
X0015246Y0483480D02*
X0116146Y0483480D01*
X0116146Y0482481D02*
X0015246Y0482481D01*
X0015246Y0481483D02*
X0107705Y0481483D01*
X0108746Y0481483D02*
X0109746Y0481483D01*
X0109746Y0480484D02*
X0108746Y0480484D01*
X0108746Y0479486D02*
X0109746Y0479486D01*
X0110788Y0481483D02*
X0116146Y0481483D01*
X0116146Y0480484D02*
X0112378Y0480484D01*
X0113159Y0479486D02*
X0116146Y0479486D01*
X0116146Y0478487D02*
X0113577Y0478487D01*
X0113682Y0476490D02*
X0137846Y0476490D01*
X0137846Y0475492D02*
X0113400Y0475492D01*
X0112804Y0474493D02*
X0137846Y0474493D01*
X0137846Y0487474D02*
X0015246Y0487474D01*
X0015246Y0488472D02*
X0080890Y0488472D01*
X0084203Y0488472D02*
X0137846Y0488472D01*
X0106115Y0480484D02*
X0101671Y0480484D01*
X0102651Y0479486D02*
X0105334Y0479486D01*
X0104916Y0478487D02*
X0103064Y0478487D01*
X0086822Y0480484D02*
X0081671Y0480484D01*
X0082651Y0479486D02*
X0085842Y0479486D01*
X0085428Y0478487D02*
X0083064Y0478487D01*
X0083246Y0477489D02*
X0085246Y0477489D01*
X0085246Y0476490D02*
X0083246Y0476490D01*
X0082847Y0475492D02*
X0085646Y0475492D01*
X0086349Y0474493D02*
X0082144Y0474493D01*
X0076349Y0474493D02*
X0072144Y0474493D01*
X0072847Y0475492D02*
X0075646Y0475492D01*
X0075246Y0476490D02*
X0073246Y0476490D01*
X0073246Y0477489D02*
X0075246Y0477489D01*
X0075428Y0478487D02*
X0073064Y0478487D01*
X0072651Y0479486D02*
X0075842Y0479486D01*
X0076822Y0480484D02*
X0071671Y0480484D01*
X0066822Y0480484D02*
X0061671Y0480484D01*
X0062651Y0479486D02*
X0065842Y0479486D01*
X0065428Y0478487D02*
X0063064Y0478487D01*
X0063246Y0477489D02*
X0065246Y0477489D01*
X0065246Y0476490D02*
X0063246Y0476490D01*
X0062847Y0475492D02*
X0065646Y0475492D01*
X0066349Y0474493D02*
X0062144Y0474493D01*
X0056822Y0480484D02*
X0051671Y0480484D01*
X0052651Y0479486D02*
X0055842Y0479486D01*
X0055428Y0478487D02*
X0053064Y0478487D01*
X0053246Y0477489D02*
X0055246Y0477489D01*
X0055246Y0476490D02*
X0053246Y0476490D01*
X0052847Y0475492D02*
X0055646Y0475492D01*
X0056349Y0474493D02*
X0052144Y0474493D01*
X0046822Y0480484D02*
X0041671Y0480484D01*
X0042651Y0479486D02*
X0045842Y0479486D01*
X0045428Y0478487D02*
X0043064Y0478487D01*
X0043246Y0477489D02*
X0045246Y0477489D01*
X0045246Y0476490D02*
X0043246Y0476490D01*
X0042847Y0475492D02*
X0045646Y0475492D01*
X0046349Y0474493D02*
X0042144Y0474493D01*
X0036349Y0474493D02*
X0032144Y0474493D01*
X0032847Y0475492D02*
X0035646Y0475492D01*
X0035246Y0476490D02*
X0033246Y0476490D01*
X0033246Y0477489D02*
X0035246Y0477489D01*
X0035428Y0478487D02*
X0033064Y0478487D01*
X0032651Y0479486D02*
X0035842Y0479486D01*
X0036822Y0480484D02*
X0031671Y0480484D01*
X0026822Y0480484D02*
X0021671Y0480484D01*
X0022651Y0479486D02*
X0025842Y0479486D01*
X0025428Y0478487D02*
X0023064Y0478487D01*
X0023246Y0477489D02*
X0025246Y0477489D01*
X0025246Y0476490D02*
X0023246Y0476490D01*
X0022847Y0475492D02*
X0025646Y0475492D01*
X0026349Y0474493D02*
X0022144Y0474493D01*
X0016349Y0474493D02*
X0015246Y0474493D01*
X0015246Y0475492D02*
X0015646Y0475492D01*
X0015246Y0476490D02*
X0015246Y0476490D01*
X0015246Y0477489D02*
X0015246Y0477489D01*
X0015246Y0478487D02*
X0015428Y0478487D01*
X0015246Y0479486D02*
X0015842Y0479486D01*
X0015246Y0480484D02*
X0016822Y0480484D01*
X0015246Y0493465D02*
X0020970Y0493465D01*
X0019228Y0494463D02*
X0015246Y0494463D01*
X0015246Y0495462D02*
X0018739Y0495462D01*
X0018672Y0496460D02*
X0015246Y0496460D01*
X0015246Y0497459D02*
X0019002Y0497459D01*
X0019992Y0498457D02*
X0015246Y0498457D01*
X0028746Y0533405D02*
X0029746Y0533405D01*
X0029746Y0534404D02*
X0028746Y0534404D01*
X0028746Y0535402D02*
X0029746Y0535402D01*
X0033255Y0539396D02*
X0035764Y0539396D01*
X0035350Y0538398D02*
X0033637Y0538398D01*
X0032568Y0540395D02*
X0036632Y0540395D01*
X0041860Y0540395D02*
X0046632Y0540395D01*
X0045764Y0539396D02*
X0042729Y0539396D01*
X0043143Y0538398D02*
X0045350Y0538398D01*
X0045246Y0537399D02*
X0043246Y0537399D01*
X0043182Y0536401D02*
X0045311Y0536401D01*
X0045724Y0535402D02*
X0042768Y0535402D01*
X0041955Y0534404D02*
X0046538Y0534404D01*
X0051955Y0534404D02*
X0056538Y0534404D01*
X0055724Y0535402D02*
X0052768Y0535402D01*
X0053182Y0536401D02*
X0055311Y0536401D01*
X0055246Y0537399D02*
X0053246Y0537399D01*
X0053143Y0538398D02*
X0055350Y0538398D01*
X0055764Y0539396D02*
X0052729Y0539396D01*
X0051860Y0540395D02*
X0056632Y0540395D01*
X0057260Y0505447D02*
X0082055Y0505447D01*
X0081353Y0504448D02*
X0057924Y0504448D01*
X0057924Y0503450D02*
X0081353Y0503450D01*
X0082160Y0502451D02*
X0057079Y0502451D01*
X0055182Y0502451D02*
X0054801Y0502451D01*
X0054970Y0505447D02*
X0055001Y0505447D01*
X0025925Y0540395D02*
X0021860Y0540395D01*
X0022729Y0539396D02*
X0025238Y0539396D01*
X0024856Y0538398D02*
X0023143Y0538398D01*
D15*
X0095496Y0521002D02*
X0101346Y0526852D01*
X0101346Y0529002D01*
M02*
