G75*
%MOIN*%
%OFA0B0*%
%FSLAX25Y25*%
%IPPOS*%
%LPD*%
%AMOC8*
5,1,8,0,0,1.08239X$1,22.5*
%
%ADD10C,0.00000*%
D10*
X0013846Y0472302D02*
X0013846Y0542302D01*
X0139246Y0542302D01*
X0139246Y0472302D01*
X0013846Y0472302D01*
X0019326Y0495146D02*
X0023379Y0495146D01*
X0023379Y0495145D02*
X0023440Y0495146D01*
X0023500Y0495150D01*
X0023559Y0495158D01*
X0023619Y0495169D01*
X0023677Y0495184D01*
X0023734Y0495202D01*
X0023790Y0495224D01*
X0023845Y0495249D01*
X0023898Y0495278D01*
X0023949Y0495309D01*
X0023999Y0495344D01*
X0024046Y0495382D01*
X0024091Y0495422D01*
X0024133Y0495465D01*
X0024172Y0495510D01*
X0024209Y0495558D01*
X0024243Y0495608D01*
X0024274Y0495660D01*
X0024301Y0495713D01*
X0024325Y0495768D01*
X0024346Y0495825D01*
X0024364Y0495882D01*
X0024378Y0495941D01*
X0024388Y0496000D01*
X0024395Y0496060D01*
X0024398Y0496120D01*
X0024397Y0496181D01*
X0024393Y0496242D01*
X0024385Y0496303D01*
X0024373Y0496363D01*
X0024357Y0496422D01*
X0024337Y0496480D01*
X0024314Y0496536D01*
X0024288Y0496591D01*
X0024258Y0496644D01*
X0024225Y0496696D01*
X0024189Y0496745D01*
X0024149Y0496791D01*
X0024107Y0496836D01*
X0024062Y0496877D01*
X0024015Y0496915D01*
X0023965Y0496951D01*
X0023913Y0496983D01*
X0023859Y0497012D01*
X0023804Y0497038D01*
X0023747Y0497060D01*
X0023689Y0497078D01*
X0023629Y0497092D01*
X0023569Y0497103D01*
X0023509Y0497110D01*
X0023448Y0497114D01*
X0019233Y0497114D01*
X0019232Y0497114D02*
X0019172Y0497111D01*
X0019112Y0497103D01*
X0019053Y0497093D01*
X0018995Y0497078D01*
X0018937Y0497060D01*
X0018881Y0497038D01*
X0018826Y0497013D01*
X0018773Y0496985D01*
X0018722Y0496953D01*
X0018673Y0496918D01*
X0018626Y0496880D01*
X0018582Y0496839D01*
X0018540Y0496796D01*
X0018501Y0496749D01*
X0018466Y0496701D01*
X0018433Y0496650D01*
X0018403Y0496598D01*
X0018377Y0496544D01*
X0018355Y0496488D01*
X0018335Y0496431D01*
X0018320Y0496372D01*
X0018308Y0496313D01*
X0018300Y0496254D01*
X0018296Y0496194D01*
X0018295Y0496133D01*
X0018299Y0496070D01*
X0018306Y0496007D01*
X0018317Y0495945D01*
X0018332Y0495883D01*
X0018351Y0495822D01*
X0018374Y0495763D01*
X0018401Y0495705D01*
X0018431Y0495650D01*
X0018464Y0495596D01*
X0018501Y0495544D01*
X0018541Y0495495D01*
X0018584Y0495448D01*
X0018630Y0495404D01*
X0018678Y0495363D01*
X0018729Y0495325D01*
X0018782Y0495291D01*
X0018838Y0495260D01*
X0018895Y0495232D01*
X0018953Y0495208D01*
X0019014Y0495188D01*
X0019075Y0495172D01*
X0019137Y0495159D01*
X0019200Y0495150D01*
X0019263Y0495146D01*
X0019327Y0495145D01*
X0028925Y0499378D02*
X0028927Y0499443D01*
X0028933Y0499509D01*
X0028943Y0499573D01*
X0028956Y0499637D01*
X0028974Y0499700D01*
X0028995Y0499762D01*
X0029020Y0499822D01*
X0029049Y0499881D01*
X0029081Y0499938D01*
X0029117Y0499993D01*
X0029155Y0500046D01*
X0029197Y0500096D01*
X0029242Y0500144D01*
X0029290Y0500189D01*
X0029340Y0500231D01*
X0029393Y0500269D01*
X0029448Y0500305D01*
X0029505Y0500337D01*
X0029564Y0500366D01*
X0029624Y0500391D01*
X0029686Y0500412D01*
X0029749Y0500430D01*
X0029813Y0500443D01*
X0029877Y0500453D01*
X0029943Y0500459D01*
X0030008Y0500461D01*
X0030073Y0500459D01*
X0030139Y0500453D01*
X0030203Y0500443D01*
X0030267Y0500430D01*
X0030330Y0500412D01*
X0030392Y0500391D01*
X0030452Y0500366D01*
X0030511Y0500337D01*
X0030568Y0500305D01*
X0030623Y0500269D01*
X0030676Y0500231D01*
X0030726Y0500189D01*
X0030774Y0500144D01*
X0030819Y0500096D01*
X0030861Y0500046D01*
X0030899Y0499993D01*
X0030935Y0499938D01*
X0030967Y0499881D01*
X0030996Y0499822D01*
X0031021Y0499762D01*
X0031042Y0499700D01*
X0031060Y0499637D01*
X0031073Y0499573D01*
X0031083Y0499509D01*
X0031089Y0499443D01*
X0031091Y0499378D01*
X0031089Y0499313D01*
X0031083Y0499247D01*
X0031073Y0499183D01*
X0031060Y0499119D01*
X0031042Y0499056D01*
X0031021Y0498994D01*
X0030996Y0498934D01*
X0030967Y0498875D01*
X0030935Y0498818D01*
X0030899Y0498763D01*
X0030861Y0498710D01*
X0030819Y0498660D01*
X0030774Y0498612D01*
X0030726Y0498567D01*
X0030676Y0498525D01*
X0030623Y0498487D01*
X0030568Y0498451D01*
X0030511Y0498419D01*
X0030452Y0498390D01*
X0030392Y0498365D01*
X0030330Y0498344D01*
X0030267Y0498326D01*
X0030203Y0498313D01*
X0030139Y0498303D01*
X0030073Y0498297D01*
X0030008Y0498295D01*
X0029943Y0498297D01*
X0029877Y0498303D01*
X0029813Y0498313D01*
X0029749Y0498326D01*
X0029686Y0498344D01*
X0029624Y0498365D01*
X0029564Y0498390D01*
X0029505Y0498419D01*
X0029448Y0498451D01*
X0029393Y0498487D01*
X0029340Y0498525D01*
X0029290Y0498567D01*
X0029242Y0498612D01*
X0029197Y0498660D01*
X0029155Y0498710D01*
X0029117Y0498763D01*
X0029081Y0498818D01*
X0029049Y0498875D01*
X0029020Y0498934D01*
X0028995Y0498994D01*
X0028974Y0499056D01*
X0028956Y0499119D01*
X0028943Y0499183D01*
X0028933Y0499247D01*
X0028927Y0499313D01*
X0028925Y0499378D01*
X0028925Y0515126D02*
X0028927Y0515191D01*
X0028933Y0515257D01*
X0028943Y0515321D01*
X0028956Y0515385D01*
X0028974Y0515448D01*
X0028995Y0515510D01*
X0029020Y0515570D01*
X0029049Y0515629D01*
X0029081Y0515686D01*
X0029117Y0515741D01*
X0029155Y0515794D01*
X0029197Y0515844D01*
X0029242Y0515892D01*
X0029290Y0515937D01*
X0029340Y0515979D01*
X0029393Y0516017D01*
X0029448Y0516053D01*
X0029505Y0516085D01*
X0029564Y0516114D01*
X0029624Y0516139D01*
X0029686Y0516160D01*
X0029749Y0516178D01*
X0029813Y0516191D01*
X0029877Y0516201D01*
X0029943Y0516207D01*
X0030008Y0516209D01*
X0030073Y0516207D01*
X0030139Y0516201D01*
X0030203Y0516191D01*
X0030267Y0516178D01*
X0030330Y0516160D01*
X0030392Y0516139D01*
X0030452Y0516114D01*
X0030511Y0516085D01*
X0030568Y0516053D01*
X0030623Y0516017D01*
X0030676Y0515979D01*
X0030726Y0515937D01*
X0030774Y0515892D01*
X0030819Y0515844D01*
X0030861Y0515794D01*
X0030899Y0515741D01*
X0030935Y0515686D01*
X0030967Y0515629D01*
X0030996Y0515570D01*
X0031021Y0515510D01*
X0031042Y0515448D01*
X0031060Y0515385D01*
X0031073Y0515321D01*
X0031083Y0515257D01*
X0031089Y0515191D01*
X0031091Y0515126D01*
X0031089Y0515061D01*
X0031083Y0514995D01*
X0031073Y0514931D01*
X0031060Y0514867D01*
X0031042Y0514804D01*
X0031021Y0514742D01*
X0030996Y0514682D01*
X0030967Y0514623D01*
X0030935Y0514566D01*
X0030899Y0514511D01*
X0030861Y0514458D01*
X0030819Y0514408D01*
X0030774Y0514360D01*
X0030726Y0514315D01*
X0030676Y0514273D01*
X0030623Y0514235D01*
X0030568Y0514199D01*
X0030511Y0514167D01*
X0030452Y0514138D01*
X0030392Y0514113D01*
X0030330Y0514092D01*
X0030267Y0514074D01*
X0030203Y0514061D01*
X0030139Y0514051D01*
X0030073Y0514045D01*
X0030008Y0514043D01*
X0029943Y0514045D01*
X0029877Y0514051D01*
X0029813Y0514061D01*
X0029749Y0514074D01*
X0029686Y0514092D01*
X0029624Y0514113D01*
X0029564Y0514138D01*
X0029505Y0514167D01*
X0029448Y0514199D01*
X0029393Y0514235D01*
X0029340Y0514273D01*
X0029290Y0514315D01*
X0029242Y0514360D01*
X0029197Y0514408D01*
X0029155Y0514458D01*
X0029117Y0514511D01*
X0029081Y0514566D01*
X0029049Y0514623D01*
X0029020Y0514682D01*
X0028995Y0514742D01*
X0028974Y0514804D01*
X0028956Y0514867D01*
X0028943Y0514931D01*
X0028933Y0514995D01*
X0028927Y0515061D01*
X0028925Y0515126D01*
X0023419Y0517402D02*
X0019366Y0517402D01*
X0019304Y0517404D01*
X0019242Y0517410D01*
X0019180Y0517419D01*
X0019119Y0517432D01*
X0019059Y0517449D01*
X0019000Y0517469D01*
X0018943Y0517493D01*
X0018887Y0517520D01*
X0018833Y0517551D01*
X0018780Y0517585D01*
X0018730Y0517621D01*
X0018682Y0517661D01*
X0018637Y0517704D01*
X0018594Y0517749D01*
X0018554Y0517797D01*
X0018518Y0517847D01*
X0018484Y0517900D01*
X0018453Y0517954D01*
X0018426Y0518010D01*
X0018402Y0518067D01*
X0018382Y0518126D01*
X0018365Y0518186D01*
X0018352Y0518247D01*
X0018343Y0518309D01*
X0018337Y0518371D01*
X0018335Y0518433D01*
X0018337Y0518492D01*
X0018342Y0518550D01*
X0018352Y0518609D01*
X0018364Y0518666D01*
X0018381Y0518723D01*
X0018401Y0518778D01*
X0018424Y0518832D01*
X0018451Y0518884D01*
X0018481Y0518935D01*
X0018514Y0518984D01*
X0018550Y0519030D01*
X0018589Y0519074D01*
X0018631Y0519116D01*
X0018675Y0519155D01*
X0018721Y0519191D01*
X0018770Y0519224D01*
X0018821Y0519254D01*
X0018873Y0519281D01*
X0018927Y0519304D01*
X0018982Y0519324D01*
X0019039Y0519341D01*
X0019096Y0519353D01*
X0019155Y0519363D01*
X0019213Y0519368D01*
X0019272Y0519370D01*
X0023487Y0519370D01*
X0023547Y0519368D01*
X0023606Y0519363D01*
X0023665Y0519353D01*
X0023723Y0519340D01*
X0023781Y0519324D01*
X0023837Y0519303D01*
X0023891Y0519280D01*
X0023945Y0519252D01*
X0023996Y0519222D01*
X0024045Y0519189D01*
X0024093Y0519152D01*
X0024137Y0519113D01*
X0024180Y0519070D01*
X0024219Y0519026D01*
X0024256Y0518978D01*
X0024289Y0518929D01*
X0024319Y0518878D01*
X0024347Y0518824D01*
X0024370Y0518770D01*
X0024391Y0518714D01*
X0024407Y0518656D01*
X0024420Y0518598D01*
X0024430Y0518539D01*
X0024435Y0518480D01*
X0024437Y0518420D01*
X0024435Y0518359D01*
X0024430Y0518297D01*
X0024420Y0518237D01*
X0024407Y0518176D01*
X0024391Y0518117D01*
X0024371Y0518059D01*
X0024347Y0518002D01*
X0024320Y0517947D01*
X0024290Y0517893D01*
X0024257Y0517842D01*
X0024220Y0517792D01*
X0024181Y0517745D01*
X0024139Y0517700D01*
X0024094Y0517658D01*
X0024047Y0517619D01*
X0023997Y0517582D01*
X0023946Y0517549D01*
X0023892Y0517519D01*
X0023837Y0517492D01*
X0023780Y0517468D01*
X0023722Y0517448D01*
X0023663Y0517432D01*
X0023602Y0517419D01*
X0023542Y0517409D01*
X0023480Y0517404D01*
X0023419Y0517402D01*
M02*
