G75*
%MOIN*%
%OFA0B0*%
%FSLAX25Y25*%
%IPPOS*%
%LPD*%
%AMOC8*
5,1,8,0,0,1.08239X$1,22.5*
%
%ADD10C,0.01400*%
%ADD11C,0.00400*%
%ADD12C,0.00500*%
%ADD13C,0.00800*%
%ADD14C,0.01600*%
%ADD15R,0.00500X0.03000*%
%ADD16C,0.00600*%
%ADD17C,0.00200*%
D10*
X0035822Y0095600D02*
X0035822Y0100311D01*
X0037589Y0097956D02*
X0031700Y0097956D01*
X0034056Y0106200D01*
X0034644Y0135025D02*
X0031700Y0135025D01*
X0034644Y0135025D02*
X0034752Y0135027D01*
X0034859Y0135033D01*
X0034966Y0135043D01*
X0035073Y0135056D01*
X0035179Y0135074D01*
X0035284Y0135095D01*
X0035389Y0135121D01*
X0035492Y0135150D01*
X0035595Y0135183D01*
X0035696Y0135219D01*
X0035795Y0135260D01*
X0035894Y0135303D01*
X0035990Y0135351D01*
X0036085Y0135402D01*
X0036178Y0135456D01*
X0036268Y0135514D01*
X0036357Y0135575D01*
X0036443Y0135639D01*
X0036527Y0135706D01*
X0036609Y0135776D01*
X0036687Y0135850D01*
X0036763Y0135926D01*
X0036837Y0136004D01*
X0036907Y0136086D01*
X0036974Y0136170D01*
X0037038Y0136256D01*
X0037099Y0136345D01*
X0037157Y0136435D01*
X0037211Y0136528D01*
X0037262Y0136623D01*
X0037310Y0136719D01*
X0037353Y0136818D01*
X0037394Y0136917D01*
X0037430Y0137018D01*
X0037463Y0137121D01*
X0037492Y0137224D01*
X0037518Y0137329D01*
X0037539Y0137434D01*
X0037557Y0137540D01*
X0037570Y0137647D01*
X0037580Y0137754D01*
X0037586Y0137861D01*
X0037588Y0137969D01*
X0037586Y0138077D01*
X0037580Y0138184D01*
X0037570Y0138291D01*
X0037557Y0138398D01*
X0037539Y0138504D01*
X0037518Y0138609D01*
X0037492Y0138714D01*
X0037463Y0138817D01*
X0037430Y0138920D01*
X0037394Y0139021D01*
X0037353Y0139120D01*
X0037310Y0139219D01*
X0037262Y0139315D01*
X0037211Y0139410D01*
X0037157Y0139503D01*
X0037099Y0139593D01*
X0037038Y0139682D01*
X0036974Y0139768D01*
X0036907Y0139852D01*
X0036837Y0139934D01*
X0036763Y0140012D01*
X0036687Y0140088D01*
X0036609Y0140162D01*
X0036527Y0140232D01*
X0036443Y0140299D01*
X0036357Y0140363D01*
X0036268Y0140424D01*
X0036178Y0140482D01*
X0036085Y0140536D01*
X0035990Y0140587D01*
X0035894Y0140635D01*
X0035795Y0140678D01*
X0035696Y0140719D01*
X0035595Y0140755D01*
X0035492Y0140788D01*
X0035389Y0140817D01*
X0035284Y0140843D01*
X0035179Y0140864D01*
X0035073Y0140882D01*
X0034966Y0140895D01*
X0034859Y0140905D01*
X0034752Y0140911D01*
X0034644Y0140913D01*
X0035233Y0140914D02*
X0032878Y0140914D01*
X0035233Y0140913D02*
X0035329Y0140915D01*
X0035425Y0140921D01*
X0035521Y0140931D01*
X0035616Y0140944D01*
X0035710Y0140962D01*
X0035804Y0140983D01*
X0035897Y0141008D01*
X0035988Y0141037D01*
X0036079Y0141070D01*
X0036168Y0141106D01*
X0036255Y0141146D01*
X0036341Y0141190D01*
X0036425Y0141237D01*
X0036507Y0141287D01*
X0036587Y0141341D01*
X0036664Y0141397D01*
X0036739Y0141457D01*
X0036812Y0141520D01*
X0036882Y0141586D01*
X0036949Y0141655D01*
X0037014Y0141726D01*
X0037075Y0141800D01*
X0037133Y0141876D01*
X0037189Y0141955D01*
X0037241Y0142036D01*
X0037289Y0142119D01*
X0037334Y0142204D01*
X0037376Y0142290D01*
X0037414Y0142379D01*
X0037449Y0142468D01*
X0037480Y0142559D01*
X0037507Y0142651D01*
X0037530Y0142745D01*
X0037549Y0142839D01*
X0037565Y0142934D01*
X0037577Y0143029D01*
X0037585Y0143125D01*
X0037589Y0143221D01*
X0037589Y0143317D01*
X0037585Y0143413D01*
X0037577Y0143509D01*
X0037565Y0143604D01*
X0037549Y0143699D01*
X0037530Y0143793D01*
X0037507Y0143887D01*
X0037480Y0143979D01*
X0037449Y0144070D01*
X0037414Y0144159D01*
X0037376Y0144248D01*
X0037334Y0144334D01*
X0037289Y0144419D01*
X0037241Y0144502D01*
X0037189Y0144583D01*
X0037133Y0144662D01*
X0037075Y0144738D01*
X0037014Y0144812D01*
X0036949Y0144883D01*
X0036882Y0144952D01*
X0036812Y0145018D01*
X0036739Y0145081D01*
X0036664Y0145141D01*
X0036587Y0145197D01*
X0036507Y0145251D01*
X0036425Y0145301D01*
X0036341Y0145348D01*
X0036255Y0145392D01*
X0036168Y0145432D01*
X0036079Y0145468D01*
X0035988Y0145501D01*
X0035897Y0145530D01*
X0035804Y0145555D01*
X0035710Y0145576D01*
X0035616Y0145594D01*
X0035521Y0145607D01*
X0035425Y0145617D01*
X0035329Y0145623D01*
X0035233Y0145625D01*
X0031700Y0145625D01*
X0169911Y0144044D02*
X0172856Y0146400D01*
X0172856Y0135800D01*
X0175800Y0135800D02*
X0169911Y0135800D01*
X0175800Y0103925D02*
X0175798Y0103820D01*
X0175792Y0103716D01*
X0175783Y0103611D01*
X0175769Y0103507D01*
X0175752Y0103404D01*
X0175731Y0103302D01*
X0175706Y0103200D01*
X0175678Y0103099D01*
X0175645Y0102999D01*
X0175609Y0102901D01*
X0175570Y0102804D01*
X0175527Y0102708D01*
X0175480Y0102615D01*
X0175430Y0102522D01*
X0175377Y0102432D01*
X0175321Y0102344D01*
X0175261Y0102258D01*
X0175198Y0102174D01*
X0175132Y0102093D01*
X0175063Y0102014D01*
X0174991Y0101938D01*
X0174917Y0101864D01*
X0169911Y0095975D01*
X0175800Y0095975D01*
X0169912Y0104220D02*
X0169949Y0104329D01*
X0169990Y0104437D01*
X0170035Y0104544D01*
X0170084Y0104649D01*
X0170136Y0104752D01*
X0170191Y0104854D01*
X0170250Y0104953D01*
X0170312Y0105051D01*
X0170378Y0105146D01*
X0170447Y0105239D01*
X0170518Y0105330D01*
X0170593Y0105418D01*
X0170671Y0105504D01*
X0170752Y0105587D01*
X0170835Y0105667D01*
X0170921Y0105744D01*
X0171010Y0105818D01*
X0171101Y0105890D01*
X0171195Y0105958D01*
X0171291Y0106022D01*
X0171389Y0106084D01*
X0171489Y0106142D01*
X0171591Y0106197D01*
X0171694Y0106248D01*
X0171800Y0106296D01*
X0171907Y0106340D01*
X0172015Y0106380D01*
X0172125Y0106417D01*
X0172236Y0106450D01*
X0172348Y0106479D01*
X0172461Y0106504D01*
X0172574Y0106526D01*
X0172689Y0106544D01*
X0172804Y0106557D01*
X0172919Y0106567D01*
X0173034Y0106573D01*
X0173150Y0106575D01*
X0173252Y0106573D01*
X0173353Y0106567D01*
X0173454Y0106558D01*
X0173555Y0106544D01*
X0173655Y0106527D01*
X0173754Y0106505D01*
X0173852Y0106480D01*
X0173950Y0106452D01*
X0174046Y0106419D01*
X0174141Y0106383D01*
X0174234Y0106343D01*
X0174326Y0106300D01*
X0174416Y0106253D01*
X0174504Y0106203D01*
X0174590Y0106149D01*
X0174675Y0106093D01*
X0174756Y0106033D01*
X0174836Y0105969D01*
X0174913Y0105903D01*
X0174988Y0105834D01*
X0175059Y0105763D01*
X0175128Y0105688D01*
X0175194Y0105611D01*
X0175258Y0105531D01*
X0175318Y0105450D01*
X0175374Y0105365D01*
X0175428Y0105279D01*
X0175478Y0105191D01*
X0175525Y0105101D01*
X0175568Y0105009D01*
X0175608Y0104916D01*
X0175644Y0104821D01*
X0175677Y0104725D01*
X0175705Y0104627D01*
X0175730Y0104529D01*
X0175752Y0104430D01*
X0175769Y0104330D01*
X0175783Y0104229D01*
X0175792Y0104128D01*
X0175798Y0104027D01*
X0175800Y0103925D01*
D11*
X0034025Y0053838D02*
X0029825Y0053838D01*
X0029825Y0052671D02*
X0029825Y0055005D01*
X0029825Y0051373D02*
X0029825Y0049506D01*
X0034025Y0049506D01*
X0034025Y0051373D01*
X0031692Y0050906D02*
X0031692Y0049506D01*
X0032275Y0047224D02*
X0031575Y0045941D01*
X0029825Y0046407D02*
X0029827Y0046487D01*
X0029832Y0046568D01*
X0029842Y0046648D01*
X0029854Y0046727D01*
X0029871Y0046806D01*
X0029891Y0046884D01*
X0029915Y0046960D01*
X0029942Y0047036D01*
X0029973Y0047110D01*
X0030007Y0047183D01*
X0030044Y0047255D01*
X0030085Y0047324D01*
X0030128Y0047392D01*
X0030175Y0047457D01*
X0031575Y0045941D02*
X0031544Y0045892D01*
X0031510Y0045845D01*
X0031473Y0045800D01*
X0031434Y0045757D01*
X0031392Y0045717D01*
X0031348Y0045680D01*
X0031302Y0045645D01*
X0031253Y0045614D01*
X0031203Y0045585D01*
X0031151Y0045559D01*
X0031098Y0045537D01*
X0031043Y0045518D01*
X0030987Y0045502D01*
X0030931Y0045490D01*
X0030874Y0045481D01*
X0030816Y0045476D01*
X0030758Y0045474D01*
X0030699Y0045476D01*
X0030641Y0045481D01*
X0030583Y0045491D01*
X0030526Y0045503D01*
X0030470Y0045520D01*
X0030415Y0045540D01*
X0030361Y0045563D01*
X0030309Y0045589D01*
X0030258Y0045619D01*
X0030210Y0045652D01*
X0030163Y0045688D01*
X0030119Y0045727D01*
X0030078Y0045768D01*
X0030039Y0045812D01*
X0030003Y0045859D01*
X0029970Y0045907D01*
X0029940Y0045958D01*
X0029914Y0046010D01*
X0029891Y0046064D01*
X0029871Y0046119D01*
X0029854Y0046175D01*
X0029842Y0046232D01*
X0029832Y0046290D01*
X0029827Y0046348D01*
X0029825Y0046407D01*
X0033442Y0045357D02*
X0033502Y0045419D01*
X0033559Y0045484D01*
X0033613Y0045551D01*
X0033665Y0045621D01*
X0033713Y0045692D01*
X0033758Y0045766D01*
X0033800Y0045842D01*
X0033838Y0045919D01*
X0033873Y0045999D01*
X0033905Y0046079D01*
X0033933Y0046161D01*
X0033957Y0046244D01*
X0033978Y0046328D01*
X0033995Y0046413D01*
X0034008Y0046498D01*
X0034017Y0046584D01*
X0034023Y0046671D01*
X0034025Y0046757D01*
X0034023Y0046816D01*
X0034018Y0046874D01*
X0034008Y0046932D01*
X0033996Y0046989D01*
X0033979Y0047045D01*
X0033959Y0047100D01*
X0033936Y0047154D01*
X0033910Y0047206D01*
X0033880Y0047257D01*
X0033847Y0047305D01*
X0033811Y0047352D01*
X0033772Y0047396D01*
X0033731Y0047437D01*
X0033687Y0047476D01*
X0033640Y0047512D01*
X0033592Y0047545D01*
X0033541Y0047575D01*
X0033489Y0047601D01*
X0033435Y0047624D01*
X0033380Y0047644D01*
X0033324Y0047661D01*
X0033267Y0047673D01*
X0033209Y0047683D01*
X0033151Y0047688D01*
X0033092Y0047690D01*
X0033092Y0047691D02*
X0033034Y0047689D01*
X0032976Y0047684D01*
X0032919Y0047675D01*
X0032863Y0047663D01*
X0032807Y0047647D01*
X0032752Y0047628D01*
X0032699Y0047606D01*
X0032647Y0047580D01*
X0032597Y0047551D01*
X0032548Y0047520D01*
X0032502Y0047485D01*
X0032458Y0047448D01*
X0032416Y0047408D01*
X0032377Y0047365D01*
X0032340Y0047320D01*
X0032306Y0047273D01*
X0032275Y0047224D01*
X0034025Y0043921D02*
X0034025Y0042054D01*
X0029825Y0042054D01*
X0029825Y0043921D01*
X0031692Y0043454D02*
X0031692Y0042054D01*
X0032158Y0039195D02*
X0034025Y0040129D01*
X0032158Y0038962D02*
X0032158Y0037795D01*
X0032159Y0038962D02*
X0032157Y0039029D01*
X0032151Y0039095D01*
X0032142Y0039161D01*
X0032129Y0039226D01*
X0032112Y0039291D01*
X0032091Y0039354D01*
X0032067Y0039416D01*
X0032039Y0039477D01*
X0032008Y0039536D01*
X0031974Y0039593D01*
X0031936Y0039648D01*
X0031895Y0039701D01*
X0031852Y0039751D01*
X0031805Y0039799D01*
X0031756Y0039844D01*
X0031705Y0039886D01*
X0031651Y0039925D01*
X0031595Y0039961D01*
X0031537Y0039994D01*
X0031477Y0040024D01*
X0031415Y0040049D01*
X0031353Y0040072D01*
X0031289Y0040091D01*
X0031224Y0040106D01*
X0031158Y0040117D01*
X0031092Y0040125D01*
X0031025Y0040129D01*
X0030959Y0040129D01*
X0030892Y0040125D01*
X0030826Y0040117D01*
X0030760Y0040106D01*
X0030695Y0040091D01*
X0030631Y0040072D01*
X0030569Y0040049D01*
X0030507Y0040024D01*
X0030447Y0039994D01*
X0030389Y0039961D01*
X0030333Y0039925D01*
X0030279Y0039886D01*
X0030228Y0039844D01*
X0030179Y0039799D01*
X0030132Y0039751D01*
X0030089Y0039701D01*
X0030048Y0039648D01*
X0030010Y0039593D01*
X0029976Y0039536D01*
X0029945Y0039477D01*
X0029917Y0039416D01*
X0029893Y0039354D01*
X0029872Y0039291D01*
X0029855Y0039226D01*
X0029842Y0039161D01*
X0029833Y0039095D01*
X0029827Y0039029D01*
X0029825Y0038962D01*
X0029825Y0037795D01*
X0034025Y0037795D01*
D12*
X0097601Y0080336D02*
X0110199Y0080336D01*
X0118664Y0088604D02*
X0118664Y0102974D01*
X0111774Y0109864D02*
X0097601Y0109864D01*
X0089136Y0101399D02*
X0089136Y0088801D01*
X0098388Y0091163D02*
X0101538Y0091163D01*
X0097179Y0091163D02*
X0097181Y0091268D01*
X0097187Y0091374D01*
X0097197Y0091478D01*
X0097211Y0091583D01*
X0097229Y0091687D01*
X0097250Y0091790D01*
X0097276Y0091892D01*
X0097306Y0091993D01*
X0097339Y0092093D01*
X0097376Y0092192D01*
X0097417Y0092289D01*
X0097461Y0092384D01*
X0097509Y0092478D01*
X0097561Y0092570D01*
X0097616Y0092660D01*
X0097674Y0092748D01*
X0097736Y0092833D01*
X0097801Y0092916D01*
X0097868Y0092997D01*
X0097939Y0093075D01*
X0098013Y0093150D01*
X0098090Y0093222D01*
X0098169Y0093292D01*
X0098251Y0093358D01*
X0098335Y0093421D01*
X0098422Y0093481D01*
X0098511Y0093538D01*
X0098602Y0093591D01*
X0098694Y0093641D01*
X0098789Y0093687D01*
X0098885Y0093730D01*
X0098983Y0093769D01*
X0099083Y0093804D01*
X0099183Y0093836D01*
X0099285Y0093863D01*
X0099388Y0093887D01*
X0099491Y0093907D01*
X0099595Y0093923D01*
X0099700Y0093935D01*
X0099805Y0093943D01*
X0099910Y0093947D01*
X0100016Y0093947D01*
X0100121Y0093943D01*
X0100226Y0093935D01*
X0100331Y0093923D01*
X0100435Y0093907D01*
X0100538Y0093887D01*
X0100641Y0093863D01*
X0100743Y0093836D01*
X0100843Y0093804D01*
X0100943Y0093769D01*
X0101041Y0093730D01*
X0101137Y0093687D01*
X0101232Y0093641D01*
X0101324Y0093591D01*
X0101415Y0093538D01*
X0101504Y0093481D01*
X0101591Y0093421D01*
X0101675Y0093358D01*
X0101757Y0093292D01*
X0101836Y0093222D01*
X0101913Y0093150D01*
X0101987Y0093075D01*
X0102058Y0092997D01*
X0102125Y0092916D01*
X0102190Y0092833D01*
X0102252Y0092748D01*
X0102310Y0092660D01*
X0102365Y0092570D01*
X0102417Y0092478D01*
X0102465Y0092384D01*
X0102509Y0092289D01*
X0102550Y0092192D01*
X0102587Y0092093D01*
X0102620Y0091993D01*
X0102650Y0091892D01*
X0102676Y0091790D01*
X0102697Y0091687D01*
X0102715Y0091583D01*
X0102729Y0091478D01*
X0102739Y0091374D01*
X0102745Y0091268D01*
X0102747Y0091163D01*
X0102745Y0091058D01*
X0102739Y0090952D01*
X0102729Y0090848D01*
X0102715Y0090743D01*
X0102697Y0090639D01*
X0102676Y0090536D01*
X0102650Y0090434D01*
X0102620Y0090333D01*
X0102587Y0090233D01*
X0102550Y0090134D01*
X0102509Y0090037D01*
X0102465Y0089942D01*
X0102417Y0089848D01*
X0102365Y0089756D01*
X0102310Y0089666D01*
X0102252Y0089578D01*
X0102190Y0089493D01*
X0102125Y0089410D01*
X0102058Y0089329D01*
X0101987Y0089251D01*
X0101913Y0089176D01*
X0101836Y0089104D01*
X0101757Y0089034D01*
X0101675Y0088968D01*
X0101591Y0088905D01*
X0101504Y0088845D01*
X0101415Y0088788D01*
X0101324Y0088735D01*
X0101232Y0088685D01*
X0101137Y0088639D01*
X0101041Y0088596D01*
X0100943Y0088557D01*
X0100843Y0088522D01*
X0100743Y0088490D01*
X0100641Y0088463D01*
X0100538Y0088439D01*
X0100435Y0088419D01*
X0100331Y0088403D01*
X0100226Y0088391D01*
X0100121Y0088383D01*
X0100016Y0088379D01*
X0099910Y0088379D01*
X0099805Y0088383D01*
X0099700Y0088391D01*
X0099595Y0088403D01*
X0099491Y0088419D01*
X0099388Y0088439D01*
X0099285Y0088463D01*
X0099183Y0088490D01*
X0099083Y0088522D01*
X0098983Y0088557D01*
X0098885Y0088596D01*
X0098789Y0088639D01*
X0098694Y0088685D01*
X0098602Y0088735D01*
X0098511Y0088788D01*
X0098422Y0088845D01*
X0098335Y0088905D01*
X0098251Y0088968D01*
X0098169Y0089034D01*
X0098090Y0089104D01*
X0098013Y0089176D01*
X0097939Y0089251D01*
X0097868Y0089329D01*
X0097801Y0089410D01*
X0097736Y0089493D01*
X0097674Y0089578D01*
X0097616Y0089666D01*
X0097561Y0089756D01*
X0097509Y0089848D01*
X0097461Y0089942D01*
X0097417Y0090037D01*
X0097376Y0090134D01*
X0097339Y0090233D01*
X0097306Y0090333D01*
X0097276Y0090434D01*
X0097250Y0090536D01*
X0097229Y0090639D01*
X0097211Y0090743D01*
X0097197Y0090848D01*
X0097187Y0090952D01*
X0097181Y0091058D01*
X0097179Y0091163D01*
X0099963Y0097462D02*
X0099963Y0100612D01*
X0097179Y0099037D02*
X0097181Y0099142D01*
X0097187Y0099248D01*
X0097197Y0099352D01*
X0097211Y0099457D01*
X0097229Y0099561D01*
X0097250Y0099664D01*
X0097276Y0099766D01*
X0097306Y0099867D01*
X0097339Y0099967D01*
X0097376Y0100066D01*
X0097417Y0100163D01*
X0097461Y0100258D01*
X0097509Y0100352D01*
X0097561Y0100444D01*
X0097616Y0100534D01*
X0097674Y0100622D01*
X0097736Y0100707D01*
X0097801Y0100790D01*
X0097868Y0100871D01*
X0097939Y0100949D01*
X0098013Y0101024D01*
X0098090Y0101096D01*
X0098169Y0101166D01*
X0098251Y0101232D01*
X0098335Y0101295D01*
X0098422Y0101355D01*
X0098511Y0101412D01*
X0098602Y0101465D01*
X0098694Y0101515D01*
X0098789Y0101561D01*
X0098885Y0101604D01*
X0098983Y0101643D01*
X0099083Y0101678D01*
X0099183Y0101710D01*
X0099285Y0101737D01*
X0099388Y0101761D01*
X0099491Y0101781D01*
X0099595Y0101797D01*
X0099700Y0101809D01*
X0099805Y0101817D01*
X0099910Y0101821D01*
X0100016Y0101821D01*
X0100121Y0101817D01*
X0100226Y0101809D01*
X0100331Y0101797D01*
X0100435Y0101781D01*
X0100538Y0101761D01*
X0100641Y0101737D01*
X0100743Y0101710D01*
X0100843Y0101678D01*
X0100943Y0101643D01*
X0101041Y0101604D01*
X0101137Y0101561D01*
X0101232Y0101515D01*
X0101324Y0101465D01*
X0101415Y0101412D01*
X0101504Y0101355D01*
X0101591Y0101295D01*
X0101675Y0101232D01*
X0101757Y0101166D01*
X0101836Y0101096D01*
X0101913Y0101024D01*
X0101987Y0100949D01*
X0102058Y0100871D01*
X0102125Y0100790D01*
X0102190Y0100707D01*
X0102252Y0100622D01*
X0102310Y0100534D01*
X0102365Y0100444D01*
X0102417Y0100352D01*
X0102465Y0100258D01*
X0102509Y0100163D01*
X0102550Y0100066D01*
X0102587Y0099967D01*
X0102620Y0099867D01*
X0102650Y0099766D01*
X0102676Y0099664D01*
X0102697Y0099561D01*
X0102715Y0099457D01*
X0102729Y0099352D01*
X0102739Y0099248D01*
X0102745Y0099142D01*
X0102747Y0099037D01*
X0102745Y0098932D01*
X0102739Y0098826D01*
X0102729Y0098722D01*
X0102715Y0098617D01*
X0102697Y0098513D01*
X0102676Y0098410D01*
X0102650Y0098308D01*
X0102620Y0098207D01*
X0102587Y0098107D01*
X0102550Y0098008D01*
X0102509Y0097911D01*
X0102465Y0097816D01*
X0102417Y0097722D01*
X0102365Y0097630D01*
X0102310Y0097540D01*
X0102252Y0097452D01*
X0102190Y0097367D01*
X0102125Y0097284D01*
X0102058Y0097203D01*
X0101987Y0097125D01*
X0101913Y0097050D01*
X0101836Y0096978D01*
X0101757Y0096908D01*
X0101675Y0096842D01*
X0101591Y0096779D01*
X0101504Y0096719D01*
X0101415Y0096662D01*
X0101324Y0096609D01*
X0101232Y0096559D01*
X0101137Y0096513D01*
X0101041Y0096470D01*
X0100943Y0096431D01*
X0100843Y0096396D01*
X0100743Y0096364D01*
X0100641Y0096337D01*
X0100538Y0096313D01*
X0100435Y0096293D01*
X0100331Y0096277D01*
X0100226Y0096265D01*
X0100121Y0096257D01*
X0100016Y0096253D01*
X0099910Y0096253D01*
X0099805Y0096257D01*
X0099700Y0096265D01*
X0099595Y0096277D01*
X0099491Y0096293D01*
X0099388Y0096313D01*
X0099285Y0096337D01*
X0099183Y0096364D01*
X0099083Y0096396D01*
X0098983Y0096431D01*
X0098885Y0096470D01*
X0098789Y0096513D01*
X0098694Y0096559D01*
X0098602Y0096609D01*
X0098511Y0096662D01*
X0098422Y0096719D01*
X0098335Y0096779D01*
X0098251Y0096842D01*
X0098169Y0096908D01*
X0098090Y0096978D01*
X0098013Y0097050D01*
X0097939Y0097125D01*
X0097868Y0097203D01*
X0097801Y0097284D01*
X0097736Y0097367D01*
X0097674Y0097452D01*
X0097616Y0097540D01*
X0097561Y0097630D01*
X0097509Y0097722D01*
X0097461Y0097816D01*
X0097417Y0097911D01*
X0097376Y0098008D01*
X0097339Y0098107D01*
X0097306Y0098207D01*
X0097276Y0098308D01*
X0097250Y0098410D01*
X0097229Y0098513D01*
X0097211Y0098617D01*
X0097197Y0098722D01*
X0097187Y0098826D01*
X0097181Y0098932D01*
X0097179Y0099037D01*
X0098388Y0099037D02*
X0101538Y0099037D01*
X0185456Y0081231D02*
X0187844Y0081231D01*
X0187128Y0082186D02*
X0187128Y0080275D01*
X0185456Y0081231D02*
X0186411Y0084575D01*
D13*
X0015494Y0054668D02*
X0015494Y0038132D01*
X0027506Y0038132D02*
X0027506Y0054668D01*
X0027506Y0092507D02*
X0027506Y0109043D01*
X0027500Y0113200D02*
X0027500Y0115200D01*
X0015494Y0109043D02*
X0015494Y0092507D01*
X0027500Y0125400D02*
X0027500Y0127400D01*
X0027506Y0131882D02*
X0027506Y0148418D01*
X0015494Y0148418D02*
X0015494Y0131882D01*
X0081200Y0083500D02*
X0083200Y0083500D01*
X0090550Y0077409D02*
X0096850Y0077409D01*
X0091928Y0075440D02*
X0091930Y0075479D01*
X0091936Y0075518D01*
X0091946Y0075556D01*
X0091959Y0075593D01*
X0091976Y0075628D01*
X0091996Y0075662D01*
X0092020Y0075693D01*
X0092047Y0075722D01*
X0092076Y0075748D01*
X0092108Y0075771D01*
X0092142Y0075791D01*
X0092178Y0075807D01*
X0092215Y0075819D01*
X0092254Y0075828D01*
X0092293Y0075833D01*
X0092332Y0075834D01*
X0092371Y0075831D01*
X0092410Y0075824D01*
X0092447Y0075813D01*
X0092484Y0075799D01*
X0092519Y0075781D01*
X0092552Y0075760D01*
X0092583Y0075735D01*
X0092611Y0075708D01*
X0092636Y0075678D01*
X0092658Y0075645D01*
X0092677Y0075611D01*
X0092692Y0075575D01*
X0092704Y0075537D01*
X0092712Y0075499D01*
X0092716Y0075460D01*
X0092716Y0075420D01*
X0092712Y0075381D01*
X0092704Y0075343D01*
X0092692Y0075305D01*
X0092677Y0075269D01*
X0092658Y0075235D01*
X0092636Y0075202D01*
X0092611Y0075172D01*
X0092583Y0075145D01*
X0092552Y0075120D01*
X0092519Y0075099D01*
X0092484Y0075081D01*
X0092447Y0075067D01*
X0092410Y0075056D01*
X0092371Y0075049D01*
X0092332Y0075046D01*
X0092293Y0075047D01*
X0092254Y0075052D01*
X0092215Y0075061D01*
X0092178Y0075073D01*
X0092142Y0075089D01*
X0092108Y0075109D01*
X0092076Y0075132D01*
X0092047Y0075158D01*
X0092020Y0075187D01*
X0091996Y0075218D01*
X0091976Y0075252D01*
X0091959Y0075287D01*
X0091946Y0075324D01*
X0091936Y0075362D01*
X0091930Y0075401D01*
X0091928Y0075440D01*
X0083200Y0071700D02*
X0081200Y0071700D01*
X0090550Y0065991D02*
X0096850Y0065991D01*
X0108100Y0067500D02*
X0108100Y0069500D01*
X0108200Y0074000D02*
X0108200Y0076000D01*
X0119450Y0076000D02*
X0119450Y0074000D01*
X0119450Y0069600D02*
X0119450Y0067600D01*
X0119450Y0063600D02*
X0119450Y0061600D01*
X0119450Y0055200D02*
X0119450Y0053200D01*
X0119450Y0047700D02*
X0119450Y0045700D01*
X0109593Y0046607D02*
X0109593Y0043457D01*
X0108215Y0043457D01*
X0097585Y0043457D02*
X0096207Y0043457D01*
X0096207Y0046607D01*
X0090200Y0050350D02*
X0088200Y0050350D01*
X0096207Y0053693D02*
X0096207Y0056843D01*
X0097585Y0056843D01*
X0108215Y0056843D02*
X0109593Y0056843D01*
X0109593Y0053693D01*
X0083300Y0058600D02*
X0081300Y0058600D01*
X0180494Y0093132D02*
X0180494Y0109668D01*
X0180500Y0114300D02*
X0180500Y0116300D01*
X0180500Y0126000D02*
X0180500Y0128000D01*
X0180494Y0132507D02*
X0180494Y0149043D01*
X0192506Y0149043D02*
X0192506Y0132507D01*
X0192506Y0109668D02*
X0192506Y0093132D01*
X0186700Y0072300D02*
X0186700Y0070300D01*
X0186319Y0060089D02*
X0189681Y0060089D01*
X0193618Y0057030D02*
X0193618Y0035770D01*
X0189681Y0032711D02*
X0186319Y0032711D01*
X0182382Y0039994D02*
X0182382Y0046900D01*
X0111600Y0160150D02*
X0111600Y0162150D01*
X0091325Y0162650D02*
X0091325Y0159650D01*
D14*
X0108608Y0059008D02*
X0108610Y0059047D01*
X0108616Y0059086D01*
X0108626Y0059124D01*
X0108639Y0059161D01*
X0108656Y0059196D01*
X0108676Y0059230D01*
X0108700Y0059261D01*
X0108727Y0059290D01*
X0108756Y0059316D01*
X0108788Y0059339D01*
X0108822Y0059359D01*
X0108858Y0059375D01*
X0108895Y0059387D01*
X0108934Y0059396D01*
X0108973Y0059401D01*
X0109012Y0059402D01*
X0109051Y0059399D01*
X0109090Y0059392D01*
X0109127Y0059381D01*
X0109164Y0059367D01*
X0109199Y0059349D01*
X0109232Y0059328D01*
X0109263Y0059303D01*
X0109291Y0059276D01*
X0109316Y0059246D01*
X0109338Y0059213D01*
X0109357Y0059179D01*
X0109372Y0059143D01*
X0109384Y0059105D01*
X0109392Y0059067D01*
X0109396Y0059028D01*
X0109396Y0058988D01*
X0109392Y0058949D01*
X0109384Y0058911D01*
X0109372Y0058873D01*
X0109357Y0058837D01*
X0109338Y0058803D01*
X0109316Y0058770D01*
X0109291Y0058740D01*
X0109263Y0058713D01*
X0109232Y0058688D01*
X0109199Y0058667D01*
X0109164Y0058649D01*
X0109127Y0058635D01*
X0109090Y0058624D01*
X0109051Y0058617D01*
X0109012Y0058614D01*
X0108973Y0058615D01*
X0108934Y0058620D01*
X0108895Y0058629D01*
X0108858Y0058641D01*
X0108822Y0058657D01*
X0108788Y0058677D01*
X0108756Y0058700D01*
X0108727Y0058726D01*
X0108700Y0058755D01*
X0108676Y0058786D01*
X0108656Y0058820D01*
X0108639Y0058855D01*
X0108626Y0058892D01*
X0108616Y0058930D01*
X0108610Y0058969D01*
X0108608Y0059008D01*
D15*
X0187500Y0077300D03*
D16*
X0187250Y0077300D02*
X0186000Y0076300D01*
X0186000Y0078300D01*
X0187250Y0077300D01*
X0187065Y0077448D02*
X0186000Y0077448D01*
X0186000Y0076850D02*
X0186687Y0076850D01*
X0186317Y0078047D02*
X0186000Y0078047D01*
X0087600Y0074717D02*
X0086444Y0074717D01*
X0087022Y0075150D02*
X0087022Y0073706D01*
X0085000Y0074283D01*
X0085000Y0072447D02*
X0085000Y0071869D01*
X0085002Y0071821D01*
X0085008Y0071774D01*
X0085018Y0071727D01*
X0085031Y0071681D01*
X0085049Y0071637D01*
X0085070Y0071594D01*
X0085094Y0071553D01*
X0085122Y0071514D01*
X0085153Y0071478D01*
X0085187Y0071444D01*
X0085223Y0071413D01*
X0085262Y0071385D01*
X0085303Y0071361D01*
X0085346Y0071340D01*
X0085390Y0071322D01*
X0085436Y0071309D01*
X0085483Y0071299D01*
X0085530Y0071293D01*
X0085578Y0071291D01*
X0085578Y0071292D02*
X0087022Y0071292D01*
X0087022Y0071291D02*
X0087070Y0071293D01*
X0087117Y0071299D01*
X0087164Y0071309D01*
X0087210Y0071322D01*
X0087254Y0071340D01*
X0087297Y0071361D01*
X0087338Y0071385D01*
X0087377Y0071413D01*
X0087413Y0071444D01*
X0087447Y0071478D01*
X0087478Y0071514D01*
X0087506Y0071553D01*
X0087530Y0071594D01*
X0087551Y0071637D01*
X0087569Y0071681D01*
X0087582Y0071727D01*
X0087592Y0071774D01*
X0087598Y0071821D01*
X0087600Y0071869D01*
X0087600Y0072447D01*
D17*
X0079950Y0072281D02*
X0078550Y0072281D01*
X0078861Y0071892D01*
X0079250Y0069876D02*
X0079315Y0069878D01*
X0079381Y0069883D01*
X0079445Y0069893D01*
X0079509Y0069906D01*
X0079573Y0069922D01*
X0079635Y0069942D01*
X0079696Y0069966D01*
X0079756Y0069993D01*
X0079639Y0069954D02*
X0078861Y0070576D01*
X0078745Y0070537D02*
X0078715Y0070525D01*
X0078686Y0070510D01*
X0078659Y0070491D01*
X0078635Y0070469D01*
X0078613Y0070445D01*
X0078595Y0070419D01*
X0078579Y0070391D01*
X0078566Y0070361D01*
X0078557Y0070329D01*
X0078552Y0070297D01*
X0078550Y0070265D01*
X0078552Y0070233D01*
X0078557Y0070201D01*
X0078566Y0070169D01*
X0078579Y0070139D01*
X0078595Y0070111D01*
X0078613Y0070085D01*
X0078635Y0070061D01*
X0078659Y0070039D01*
X0078686Y0070020D01*
X0078715Y0070005D01*
X0078745Y0069993D01*
X0078744Y0070537D02*
X0078804Y0070564D01*
X0078865Y0070588D01*
X0078927Y0070608D01*
X0078991Y0070624D01*
X0079055Y0070637D01*
X0079119Y0070647D01*
X0079185Y0070652D01*
X0079250Y0070654D01*
X0079250Y0069876D02*
X0079185Y0069878D01*
X0079119Y0069883D01*
X0079055Y0069893D01*
X0078991Y0069906D01*
X0078927Y0069922D01*
X0078865Y0069942D01*
X0078804Y0069966D01*
X0078744Y0069993D01*
X0079250Y0070654D02*
X0079315Y0070652D01*
X0079381Y0070647D01*
X0079445Y0070637D01*
X0079509Y0070624D01*
X0079573Y0070608D01*
X0079635Y0070588D01*
X0079696Y0070564D01*
X0079756Y0070537D01*
X0079755Y0070537D02*
X0079785Y0070525D01*
X0079814Y0070510D01*
X0079841Y0070491D01*
X0079865Y0070469D01*
X0079887Y0070445D01*
X0079905Y0070419D01*
X0079921Y0070391D01*
X0079934Y0070361D01*
X0079943Y0070329D01*
X0079948Y0070297D01*
X0079950Y0070265D01*
X0079948Y0070233D01*
X0079943Y0070201D01*
X0079934Y0070169D01*
X0079921Y0070139D01*
X0079905Y0070111D01*
X0079887Y0070085D01*
X0079865Y0070061D01*
X0079841Y0070039D01*
X0079814Y0070020D01*
X0079785Y0070005D01*
X0079755Y0069993D01*
X0079872Y0071234D02*
X0079872Y0071312D01*
X0079950Y0071312D01*
X0079950Y0071234D01*
X0079872Y0071234D01*
X0079950Y0071892D02*
X0079950Y0072670D01*
X0079717Y0073362D02*
X0079017Y0073362D01*
X0079017Y0073984D02*
X0079950Y0073984D01*
X0079950Y0073595D01*
X0079948Y0073567D01*
X0079943Y0073539D01*
X0079935Y0073512D01*
X0079923Y0073487D01*
X0079909Y0073463D01*
X0079891Y0073440D01*
X0079872Y0073421D01*
X0079849Y0073403D01*
X0079825Y0073389D01*
X0079800Y0073377D01*
X0079773Y0073369D01*
X0079745Y0073364D01*
X0079717Y0073362D01*
X0079950Y0074728D02*
X0078550Y0074728D01*
X0078550Y0075350D01*
X0079172Y0075350D02*
X0079172Y0074728D01*
M02*
