%
M48
M72
T01C0.01000
T02C0.01378
T03C0.03543
T04C0.04000
T05C0.10000
%
T01
X54200Y27200
X92300Y52300
X95600Y55900
X95725Y60275
X99847Y58138
X100425Y52750
X104800Y48239
X112600Y43900
X93500Y43800
X108031Y60369
X94625Y71700
X92750Y68675
X100200Y85975
X83238Y91050
X85850Y101675
X99200Y103900
X124700Y79600
X126200Y68600
X128150Y66075
X179000Y46400
X66700Y75500
X63600Y61400
X27842Y80242
X108600Y154700
T02
X40700Y99900
T03
X188000Y52306
X188000Y40494
T04
X157700Y40500
X157700Y50500
X157700Y60500
X157700Y70500
X157700Y80500
X157700Y90500
X157700Y100500
X157700Y110500
X134000Y110475
X134000Y120475
X134000Y100475
X134000Y90475
X134000Y80475
X134000Y70475
X134000Y60475
X134000Y50475
X134000Y40475
X134000Y30475
X157700Y30500
X74000Y30475
X74000Y40475
X74000Y50475
X74000Y60475
X74000Y70475
X74000Y80475
X74000Y90475
X74000Y100475
X74000Y110475
X74000Y120475
X89350Y139525
X99350Y139525
X109350Y139525
X119350Y139525
T05
X19000Y16400
X147189Y41951
X189000Y16400
X189000Y166400
X19000Y166400
M30
