G75*
%MOIN*%
%OFA0B0*%
%FSLAX25Y25*%
%IPPOS*%
%LPD*%
%AMOC8*
5,1,8,0,0,1.08239X$1,22.5*
%
%ADD10R,0.03543X0.03543*%
%ADD11R,0.03150X0.03150*%
%ADD12R,0.00984X0.01969*%
%ADD13R,0.01969X0.00984*%
%ADD14R,0.05906X0.02756*%
%ADD15R,0.02362X0.03937*%
%ADD16R,0.03150X0.03937*%
%ADD17R,0.07874X0.07874*%
%ADD18R,0.07874X0.03937*%
%ADD19R,0.04724X0.02165*%
D10*
X0018350Y0038329D03*
X0024650Y0038329D03*
X0024650Y0054471D03*
X0018350Y0054471D03*
X0018350Y0092704D03*
X0024650Y0092704D03*
X0024650Y0108846D03*
X0018350Y0108846D03*
X0018350Y0132079D03*
X0024650Y0132079D03*
X0024650Y0148221D03*
X0018350Y0148221D03*
X0183350Y0148846D03*
X0189650Y0148846D03*
X0189650Y0132704D03*
X0183350Y0132704D03*
X0183350Y0109471D03*
X0189650Y0109471D03*
X0189650Y0093329D03*
X0183350Y0093329D03*
D11*
X0183747Y0077300D03*
X0189653Y0077300D03*
X0189700Y0071300D03*
X0183700Y0071300D03*
X0183500Y0115300D03*
X0177500Y0115300D03*
X0177500Y0127000D03*
X0183500Y0127000D03*
X0122450Y0075000D03*
X0116450Y0075000D03*
X0111200Y0075000D03*
X0105200Y0075000D03*
X0105100Y0068500D03*
X0111100Y0068500D03*
X0116450Y0068600D03*
X0122450Y0068600D03*
X0122450Y0062600D03*
X0116450Y0062600D03*
X0116450Y0054200D03*
X0122450Y0054200D03*
X0122450Y0046700D03*
X0116450Y0046700D03*
X0089200Y0047350D03*
X0089200Y0053350D03*
X0082300Y0055600D03*
X0082300Y0061600D03*
X0082200Y0068700D03*
X0082200Y0074700D03*
X0082200Y0080500D03*
X0082200Y0086500D03*
X0030500Y0114200D03*
X0024500Y0114200D03*
X0024500Y0126400D03*
X0030500Y0126400D03*
X0093772Y0161150D03*
X0099678Y0161150D03*
X0108600Y0161150D03*
X0114600Y0161150D03*
D12*
X0106837Y0055465D03*
X0104869Y0055465D03*
X0102900Y0055465D03*
X0100931Y0055465D03*
X0098963Y0055465D03*
X0098963Y0044835D03*
X0100931Y0044835D03*
X0102900Y0044835D03*
X0104869Y0044835D03*
X0106837Y0044835D03*
D13*
X0108215Y0048181D03*
X0108215Y0050150D03*
X0108215Y0052119D03*
X0097585Y0052119D03*
X0097585Y0050150D03*
X0097585Y0048181D03*
D14*
X0181110Y0049353D03*
X0181110Y0055258D03*
X0181110Y0037542D03*
D15*
X0191937Y0032030D03*
X0191937Y0060770D03*
D16*
X0183669Y0060770D03*
X0183669Y0032030D03*
D17*
X0114924Y0084076D03*
X0092876Y0084076D03*
X0092876Y0106124D03*
D18*
G36*
X0117103Y0102736D02*
X0111536Y0108303D01*
X0114319Y0111086D01*
X0119886Y0105519D01*
X0117103Y0102736D01*
G37*
D19*
X0098818Y0075440D03*
X0098818Y0071700D03*
X0098818Y0067960D03*
X0088582Y0067960D03*
X0088582Y0071700D03*
X0088582Y0075440D03*
M02*
