G75*
%MOIN*%
%OFA0B0*%
%FSLAX25Y25*%
%IPPOS*%
%LPD*%
%AMOC8*
5,1,8,0,0,1.08239X$1,22.5*
%
%ADD10C,0.10800*%
%ADD11C,0.07800*%
%ADD12C,0.08200*%
%ADD13R,0.04737X0.18910*%
%ADD14R,0.07300X0.14600*%
%ADD15C,0.04343*%
D10*
X0019000Y0016400D03*
X0147189Y0041951D03*
X0189000Y0016400D03*
X0189000Y0166400D03*
X0019000Y0166400D03*
D11*
X0074000Y0120475D03*
X0074000Y0110475D03*
X0074000Y0100475D03*
X0074000Y0090475D03*
X0074000Y0080475D03*
X0074000Y0070475D03*
X0074000Y0060475D03*
X0074000Y0050475D03*
X0074000Y0040475D03*
X0074000Y0030475D03*
X0134000Y0030475D03*
X0134000Y0040475D03*
X0134000Y0050475D03*
X0134000Y0060475D03*
X0134000Y0070475D03*
X0134000Y0080475D03*
X0134000Y0090475D03*
X0134000Y0100475D03*
X0134000Y0110475D03*
X0134000Y0120475D03*
D12*
X0157700Y0110500D03*
X0157700Y0100500D03*
X0157700Y0090500D03*
X0157700Y0080500D03*
X0157700Y0070500D03*
X0157700Y0060500D03*
X0157700Y0050500D03*
X0157700Y0040500D03*
X0157700Y0030500D03*
X0119350Y0139525D03*
X0109350Y0139525D03*
X0099350Y0139525D03*
X0089350Y0139525D03*
D13*
X0037800Y0035900D03*
X0030200Y0035900D03*
D14*
X0020614Y0055900D03*
X0047386Y0055900D03*
D15*
X0188000Y0052306D03*
X0188000Y0040494D03*
M02*
